<svg width="215" height="207" viewBox="0 0 215 207" fill="none" xmlns="http://www.w3.org/2000/svg">
<g clip-path="url(#clip0_385_2564)">
<path d="M107.831 50.6137C121.804 47.8482 131.043 33.2021 127.292 19.4937C124.411 8.95619 117.376 2.62651 106.623 0.441118C106.073 0.329862 105.459 0.441118 105.001 -0.00390625H100.409C99.5166 0.576215 98.4524 0.484826 97.472 0.687471C81.8683 3.89801 74.0923 19.3547 78.062 32.9398C81.7168 45.4522 94.6183 53.2282 107.835 50.6137H107.831ZM102.864 4.92712C113.769 5.07414 123.438 14.0819 123.307 25.8671C123.179 37.2987 113.885 46.5449 102.446 46.2826C92.2269 46.3899 81.8165 38.2444 81.8404 25.6287C81.8643 12.8581 92.5298 4.78805 102.864 4.92712ZM167.794 175.042C167.427 174.934 167.049 174.863 166.674 174.795C163.601 174.251 160.52 173.754 157.455 173.158C152.139 172.125 146.866 170.893 141.645 169.455C140.405 169.113 140.409 169.094 140.568 167.901C140.612 167.588 140.668 167.274 140.724 166.96C142.127 159.331 143.167 151.65 143.653 143.906C143.717 142.881 144.056 142.15 144.817 141.442C147.934 138.53 151.035 135.601 154.056 132.59C159.512 127.15 164.713 121.468 169.608 115.516C169.839 115.234 170.018 114.852 170.584 114.88C170.767 115.023 171.03 115.198 171.258 115.408C173.904 117.892 176.543 120.383 179.181 122.871C179.552 123.22 179.89 123.61 180.297 123.908C181.094 124.5 181.955 124.508 182.8 123.991C184.211 123.133 184.466 121.512 183.338 120.264C182.485 119.322 181.564 118.436 180.636 117.566C178.452 115.52 176.248 113.497 174.056 111.463C173.402 110.855 173.398 110.787 173.94 110.048C175.032 108.562 176.16 107.1 177.228 105.598C180.672 100.754 183.585 95.6287 185.482 89.9705C187.439 84.1415 188.141 78.2092 186.861 72.1338C185.367 65.0452 181.592 59.534 175.311 55.8189C171.234 53.407 166.774 52.1792 162.059 51.8891C157.125 51.5872 152.258 52.1275 147.448 53.2202C142.653 54.3129 138.022 55.9102 133.442 57.6824C132.856 57.9089 132.302 58.2466 131.661 58.2665C131.258 57.9645 131.166 57.5195 131.003 57.1102C130.254 55.2189 129.516 53.3275 128.743 51.4441C128.528 50.9196 128.281 50.3832 127.934 49.9422C126.934 48.6865 125.104 48.7899 124.18 50.113C123.657 50.86 123.661 51.6229 124.004 52.4573C124.809 54.3924 125.567 56.3513 126.336 58.3022C126.523 58.7751 126.687 59.2559 126.834 59.7406C126.942 60.0863 126.81 60.3684 126.495 60.5393C126.216 60.6903 125.921 60.8135 125.626 60.9406C118.839 63.8651 112.167 67.0398 105.638 70.4967C104.794 70.9457 104.048 71.0331 103.108 70.7153C98.0977 69.0226 93.028 67.5325 87.8866 66.2809C87.5797 66.2054 87.2768 66.0981 86.9739 65.9948C86.6869 65.8955 86.5912 65.6571 86.6391 65.3948C86.7068 65.0213 86.8264 64.6558 86.938 64.2942C87.6434 62.0532 88.3529 59.8122 89.0623 57.5711C89.1978 57.146 89.3612 56.7288 89.4409 56.2957C89.6323 55.2665 89.154 54.4083 88.1974 53.9792C86.8503 53.3792 85.4434 53.8838 84.8256 55.2189C84.6383 55.6202 84.5147 56.0533 84.3792 56.4745C83.7017 58.5923 83.0281 60.7102 82.3545 62.828C82.1991 63.3128 82.0596 63.8015 81.8763 64.2743C81.7527 64.6001 81.4857 64.771 81.123 64.6955C80.4374 64.5564 79.7519 64.4054 79.0664 64.2664C75.009 63.4359 70.9357 62.7128 66.8345 62.1167C62.3507 61.4651 57.847 61.0439 53.3273 60.7896C47.7753 60.4757 42.2393 60.5989 36.771 61.7909C32.7456 62.6691 28.9513 64.1035 25.6073 66.559C21.5061 69.5709 18.7322 73.5126 17.5205 78.4595C16.6118 82.1667 16.7553 85.8977 17.6002 89.605C18.8358 95.0247 21.3148 99.8564 24.6229 104.295C26.5679 106.901 28.74 109.313 31.0517 111.598C40.123 120.57 49.8917 128.727 60.2742 136.142C63.4866 138.434 66.7787 140.616 70.0629 142.805C70.7683 143.274 71.1828 143.799 71.147 144.653C71.135 144.907 71.1549 145.162 71.1629 145.416C71.3463 151.706 71.7368 157.984 72.4702 164.238C73.072 169.356 73.9329 174.422 75.4714 179.357C75.6029 179.782 75.7424 180.203 75.85 180.636C75.9138 180.899 75.8301 181.149 75.567 181.276C75.1685 181.471 74.7619 181.661 74.3474 181.82C68.9429 183.942 63.4149 185.683 57.7075 186.775C50.7725 188.106 43.8057 188.536 36.799 187.316C28.3096 185.842 20.7409 182.46 14.3639 176.599C14.0371 176.297 13.7143 175.979 13.3476 175.737C12.3592 175.085 11.0479 175.312 10.2428 176.234C9.48553 177.096 9.44169 178.304 10.179 179.194C10.5417 179.631 10.9761 180.016 11.3986 180.402C15.6513 184.252 20.4938 187.137 25.8584 189.159C36.4044 193.133 47.2253 193.625 58.2336 191.647C64.1482 190.586 69.8636 188.83 75.4475 186.628C75.9815 186.418 76.5156 186.207 77.0537 186.012C77.7551 185.758 77.8468 185.798 78.2294 186.509C78.4407 186.902 78.632 187.304 78.8352 187.701C80.6248 191.178 82.8727 194.325 85.6148 197.114C89.1859 200.75 93.2751 203.623 98.1057 205.359C105.065 207.858 111.864 207.485 118.492 204.187C121.425 202.729 124.036 200.813 126.404 198.564C130.672 194.5 133.721 189.628 135.969 184.224C137.069 181.582 137.966 178.868 138.699 176.103C138.847 175.55 138.99 174.998 139.154 174.45C139.257 174.108 139.504 173.921 139.871 173.985C140.182 174.04 140.489 174.14 140.796 174.223C148.253 176.194 155.782 177.831 163.386 179.111C164.39 179.281 165.395 179.484 166.407 179.575C167.858 179.703 169.054 178.725 169.265 177.338C169.444 176.158 168.95 175.372 167.794 175.034V175.042ZM165.502 113.104C161.381 118.031 156.981 122.712 152.485 127.301C150.126 129.709 147.703 132.049 145.303 134.417C145.124 134.596 144.933 134.767 144.737 134.926C144.522 135.101 144.175 134.986 144.163 134.731C144.144 134.227 144.12 133.718 144.136 133.209C144.343 126.411 144.076 119.624 143.534 112.85C143.079 107.156 142.394 101.482 141.421 95.8472C141.298 95.132 141.075 94.3969 141.206 93.6181C145.299 95.2234 163.235 107.934 166.571 111.57C166.423 112.222 165.901 112.623 165.502 113.104ZM111.517 72.8569C116.854 70.1669 122.235 67.5604 127.699 65.1405C127.874 65.065 128.054 64.9498 128.229 64.9498C128.392 64.9498 128.635 65.0253 128.703 65.1485C128.887 65.4783 129.01 65.8438 129.134 66.2014C130.963 71.6808 132.553 77.2277 133.893 82.8462C133.936 83.025 133.94 83.2117 134.012 83.7918C131.258 82.4488 128.771 81.2011 126.252 80.021C123.777 78.8608 121.282 77.7403 118.771 76.6635C116.208 75.5629 113.61 74.5377 111.047 73.4887C111.099 73.143 111.282 72.9841 111.517 72.8649V72.8569ZM82.0915 82.572C82.9524 78.9959 83.8571 75.4277 84.7459 71.8556C84.7937 71.6729 84.8455 71.4901 84.9093 71.3073C85.1205 70.7192 85.2999 70.6 85.8937 70.7431C87.1293 71.0411 88.3688 71.3351 89.5924 71.6808C92.2269 72.4199 94.8534 73.1828 97.476 73.9496C97.6872 74.0132 98.026 73.9933 98.0021 74.3668C97.9821 74.6609 97.7231 74.7602 97.5158 74.8913C97.3524 74.9907 97.189 75.086 97.0216 75.1814C92.2588 77.8754 87.5836 80.7164 82.9723 83.6607C82.6654 83.8594 82.3745 84.1177 81.9679 84.0898C81.7447 83.5296 81.9759 83.0369 82.0875 82.564L82.0915 82.572ZM74.6782 89.2195C65.6947 95.3942 57.0857 102.05 48.8435 109.182C48.4569 109.516 48.0583 109.834 47.6996 110.191C46.7431 111.137 46.6115 112.11 47.2851 113.084C48.0224 114.145 49.3935 114.558 50.4776 113.97C50.9758 113.7 51.3983 113.299 51.8407 112.933C55.1288 110.215 58.389 107.462 61.7011 104.78C65.3638 101.815 69.1502 99.0101 72.9804 96.2605C73.3869 95.9704 73.8054 95.6962 74.5268 95.2035C74.4869 97.2538 74.0804 98.9227 73.8413 100.607C73.1238 105.642 72.53 110.684 72.0677 115.746C71.4618 122.398 71.2227 129.061 71.0633 135.733C71.0553 136.114 71.0434 136.495 71.0115 136.877C70.9796 137.282 70.6966 137.465 70.3857 137.278C69.9473 137.016 69.5248 136.738 69.1024 136.452C57.1734 128.445 46.0416 119.457 35.7428 109.448C33.4152 107.183 31.1832 104.823 29.1545 102.288C27.2016 99.8445 25.4798 97.2578 24.1287 94.4327C22.7138 91.4685 21.833 88.3533 21.7254 85.0792C21.5022 78.4674 23.9732 73.1947 29.7683 69.6822C33.1481 67.6358 36.8587 66.571 40.7327 65.967C44.276 65.4187 47.8471 65.4346 51.4182 65.4902C58.13 65.5935 64.7541 66.5153 71.3463 67.6875C73.6659 68.1007 75.9775 68.5696 78.2892 69.0226C78.7874 69.1219 79.2816 69.253 79.7758 69.3802C80.1585 69.4795 80.2501 69.7616 80.1943 70.1073C80.1425 70.4212 80.0787 70.7312 79.995 71.0371C78.5682 76.3138 77.2729 81.6184 76.2605 86.9865C76.0652 88.0196 75.5072 88.6394 74.6782 89.2116V89.2195ZM79.9791 177.636C78.7754 173.806 78.0381 169.876 77.4881 165.911C76.6989 160.245 76.3243 154.539 76.0254 148.829C76.0015 148.384 75.9895 147.939 75.9975 147.494C76.0054 146.973 76.2844 146.787 76.7149 147.013C77.1653 147.252 77.5997 147.518 78.0381 147.776C87.3007 153.275 96.8941 158.135 106.778 162.418C107.348 162.664 107.998 162.78 108.401 163.276C108.369 163.713 108.054 163.841 107.803 164C99.4967 169.34 90.9834 174.315 82.0317 178.518C80.4893 179.242 80.4813 179.23 79.9791 177.636ZM134.494 173.154C134.462 173.341 134.435 173.532 134.383 173.715C133.219 177.883 131.888 181.983 129.875 185.838C128.006 189.414 125.718 192.68 122.765 195.461C119.054 198.954 114.762 201.294 109.648 201.99C108.831 202.101 107.998 202.125 107.488 202.164C103.056 202.125 99.2495 200.972 95.7103 198.942C89.8315 195.568 85.6148 190.669 82.6893 184.618C82.3226 183.863 82.3784 183.74 83.2114 183.326C85.4354 182.226 87.6833 181.161 89.8953 180.04C97.8586 176.007 105.519 171.458 112.952 166.531C113.163 166.392 113.387 166.26 113.582 166.098C114.132 165.637 114.686 165.649 115.347 165.899C118.086 166.94 120.824 167.977 123.594 168.931C126.663 169.988 129.763 170.957 132.852 171.962C133.215 172.082 133.578 172.201 133.944 172.304C134.387 172.427 134.562 172.713 134.49 173.154H134.494ZM138.213 151.618C137.711 156.033 137.169 160.443 136.368 164.818C136.22 165.629 136.061 166.439 135.865 167.242C135.806 167.488 135.59 167.675 135.291 167.619C134.977 167.564 134.666 167.488 134.363 167.397C129.74 165.978 125.152 164.453 120.612 162.776C120.274 162.653 119.875 162.593 119.652 162.247C119.692 162.124 119.692 161.953 119.767 161.898C126.025 157.304 132.119 152.504 138.077 147.534C138.153 147.47 138.317 147.51 138.564 147.494C138.444 148.877 138.364 150.251 138.209 151.614L138.213 151.618ZM139.193 138.812C139.138 139.789 138.795 140.449 138.073 141.081C130.692 147.538 123.004 153.609 114.945 159.208C114.738 159.355 114.514 159.486 114.319 159.645C113.865 160.01 113.387 159.994 112.884 159.78C112.474 159.605 112.063 159.438 111.649 159.267C99.8673 154.376 88.5402 148.595 77.6674 141.935C75.6109 140.676 75.9018 141.148 75.8819 138.824C75.8261 131.513 76.1529 124.218 76.7707 116.938C77.4682 108.709 78.5642 100.532 80.0628 92.4062C80.2302 91.5003 80.6327 90.944 81.3701 90.4553C88.584 85.6633 95.9973 81.2011 103.578 77.0092C104.519 76.4887 105.312 76.5045 106.268 76.8542C113.092 79.3416 119.795 82.1111 126.304 85.3335C129.042 86.6885 131.728 88.1388 134.454 89.5175C135.196 89.891 135.57 90.3957 135.73 91.242C136.419 94.8618 137.017 98.4935 137.539 102.137C138.169 106.54 138.623 110.962 138.922 115.397C139.193 119.386 139.313 123.387 139.421 125.644C139.429 131.199 139.417 135.009 139.197 138.816L139.193 138.812ZM139.385 85.417C138.906 82.9892 138.285 80.5892 137.675 78.1893C136.535 73.6953 135.228 69.2491 133.737 64.8584C133.574 64.3776 133.422 63.8929 133.295 63.4002C133.203 63.0545 133.35 62.7803 133.673 62.6214C133.96 62.4823 134.255 62.3591 134.55 62.2479C139.907 60.1896 145.355 58.4493 151.015 57.4082C153.717 56.9115 156.439 56.6731 158.934 56.6096C162.445 56.6096 165.674 56.9115 168.783 57.9804C176.391 60.5949 180.883 65.9034 182.346 73.7629C183.179 78.233 182.581 82.6197 181.361 86.9428C180.373 90.4434 178.93 93.7572 177.117 96.9121C175.183 100.278 172.995 103.48 170.684 106.595C170.496 106.85 170.297 107.1 170.086 107.338C169.899 107.549 169.647 107.609 169.408 107.438C169.046 107.179 168.695 106.905 168.352 106.623C159.823 99.6299 150.78 93.3638 141.21 87.8646C140.186 87.2765 139.612 86.5971 139.381 85.417H139.385ZM51.0675 145.189C51.0356 131.278 39.4972 119.716 25.6034 119.803C11.6577 119.894 0.0635361 130.396 -0.000233777 145.392C-0.0640036 160.161 11.8649 170.826 25.7987 170.75C41.6255 170.667 51.183 157.273 51.0675 145.193V145.189ZM4.77055 145.289C4.84229 132.379 15.5317 124.551 25.5954 124.563C36.2968 124.579 46.2329 133.348 46.2568 145.293C46.2807 156.049 37.7555 165.931 25.6034 165.962C14.0132 165.962 4.70678 156.772 4.77055 145.289ZM189.627 127.281C175.311 127.333 163.972 138.522 163.936 152.783C163.896 167.898 176.435 178.308 189.476 178.181C203.155 178.503 215.02 167.143 214.996 152.743C214.972 137.815 202.672 127.237 189.627 127.281ZM189.623 173.432C178.252 173.504 168.85 164.79 168.703 152.834C168.81 140.159 179.002 132.045 189.476 132.041C201.026 132.041 210.145 141.514 210.221 152.699C210.285 162.609 202.672 173.349 189.627 173.432H189.623ZM107.408 90.3679C92.5696 90.5665 81.9241 102.348 81.9639 116.108C82.0038 129.955 93.3747 141.323 107.747 141.295C123.072 141.252 133.111 128.219 133.036 115.766C132.956 101.811 121.342 90.1811 107.404 90.3679H107.408ZM107.647 136.531C97.0973 136.531 86.8344 128.664 86.7507 115.957C86.6709 103.758 96.36 95.0843 107.595 95.128C119.413 95.1717 128.225 104.708 128.237 115.826C128.249 126.713 119.748 136.4 107.647 136.531ZM87.6793 32.3557C86.7865 30.5001 86.1767 28.2552 86.113 25.8433C86.0771 23.4314 86.5992 21.1626 87.4202 19.2752C87.8188 18.3255 88.313 17.4792 88.8072 16.7123C89.3214 15.9613 89.8475 15.2938 90.3816 14.7415C91.4457 13.625 92.4581 12.8939 93.2193 12.5005C93.9766 12.1031 94.4548 11.9998 94.5505 12.1429C94.7777 12.4727 93.3708 13.617 91.8124 15.8938C91.4218 16.458 91.0392 17.1097 90.6605 17.813C90.3058 18.5322 89.9391 19.303 89.6522 20.1493C89.0543 21.8301 88.6877 23.7691 88.7156 25.7916C88.7714 27.8181 89.2138 29.7372 89.8754 31.3942C90.1942 32.2286 90.5928 32.9835 90.9754 33.6868C91.3819 34.3742 91.7885 35.01 92.203 35.5583C93.8451 37.7755 95.2998 38.8602 95.0846 39.202C94.9969 39.349 94.5146 39.2655 93.7374 38.896C92.9642 38.5305 91.924 37.8391 90.816 36.7662C90.258 36.2338 89.708 35.5861 89.1659 34.859C88.6438 34.116 88.1177 33.2895 87.6793 32.3518V32.3557ZM96.8303 127.094C98.2771 129.002 99.5445 129.951 99.3452 130.293C99.2575 130.444 98.8231 130.4 98.1256 130.11C97.4281 129.824 96.4835 129.252 95.4752 128.338C94.4668 127.428 93.4226 126.145 92.5936 124.524C91.7646 122.906 91.1787 120.928 91.087 118.794C91.0192 116.66 91.4577 114.646 92.1671 112.969C92.8765 111.288 93.8211 109.933 94.7617 108.952C95.7023 107.966 96.5991 107.326 97.2767 106.989C97.9542 106.647 98.3847 106.575 98.4803 106.719C98.7035 107.044 97.5078 108.085 96.2085 110.092C95.5549 111.089 94.9012 112.349 94.415 113.811C93.9287 115.273 93.6418 116.95 93.6936 118.694C93.7693 120.439 94.1798 122.092 94.7737 123.514C95.3676 124.941 96.1089 126.145 96.8343 127.094H96.8303ZM182.493 141.963C182.593 142.34 181.297 142.893 179.667 144.224C178.85 144.883 177.965 145.758 177.172 146.854C176.379 147.947 175.698 149.27 175.299 150.736C174.92 152.21 174.853 153.692 175 155.035C175.148 156.379 175.478 157.575 175.861 158.552C176.618 160.515 177.471 161.635 177.196 161.913C177.077 162.037 176.698 161.917 176.144 161.52C175.59 161.123 174.897 160.419 174.227 159.398C173.557 158.377 172.952 157.018 172.629 155.409C172.306 153.804 172.298 151.944 172.78 150.077C173.286 148.213 174.219 146.6 175.295 145.368C176.375 144.128 177.575 143.246 178.663 142.69C179.751 142.13 180.708 141.864 181.385 141.792C182.063 141.717 182.449 141.8 182.493 141.967V141.963ZM18.7521 132.443C18.8198 132.824 17.6521 133.241 16.2132 134.342C15.4919 134.886 14.7186 135.621 14.0331 136.551C13.3476 137.477 12.7816 138.609 12.4867 139.857C12.2157 141.109 12.2356 142.376 12.4508 143.505C12.666 144.637 13.0487 145.634 13.4632 146.433C14.2842 148.046 15.1571 148.92 14.9299 149.238C14.8302 149.381 14.4715 149.346 13.9215 149.083C13.3715 148.821 12.6541 148.297 11.9407 147.466C11.2233 146.64 10.5417 145.487 10.1232 144.077C9.70075 142.67 9.57321 140.989 9.94786 139.281C10.3464 137.58 11.1914 136.114 12.1798 135.029C13.1682 133.937 14.2842 133.19 15.2846 132.752C16.289 132.311 17.1618 132.145 17.7716 132.145C18.3814 132.145 18.7202 132.268 18.7481 132.439L18.7521 132.443Z" fill="black"/>
</g>
<defs>
<clipPath id="clip0_385_2564">
<rect width="215" height="207" fill="white"/>
</clipPath>
</defs>
</svg>
