<svg width="215" height="207" viewBox="0 0 215 207" fill="none" xmlns="http://www.w3.org/2000/svg">
<g clip-path="url(#clip0_216_445)">
<path d="M107.831 50.6136C121.804 47.8481 131.043 33.202 127.293 19.4937C124.411 8.95612 117.376 2.62645 106.623 0.441057C106.073 0.329801 105.459 0.441057 105.001 -0.00396729H100.41C99.5168 0.576154 98.4527 0.484765 97.4722 0.68741C81.8685 3.89794 74.0926 19.3546 78.0623 32.9398C81.7171 45.4521 94.6185 53.2281 107.835 50.6136H107.831ZM102.865 4.92706C113.769 5.07408 123.438 14.0819 123.307 25.8671C123.179 37.2986 113.885 46.5448 102.446 46.2826C92.2271 46.3898 81.8167 38.2443 81.8406 25.6287C81.8645 12.858 92.53 4.78799 102.865 4.92706ZM167.794 175.042C167.428 174.934 167.049 174.863 166.674 174.795C163.602 174.251 160.521 173.754 157.456 173.158C152.139 172.125 146.866 170.893 141.645 169.455C140.405 169.113 140.409 169.093 140.569 167.901C140.613 167.588 140.668 167.274 140.724 166.96C142.127 159.331 143.167 151.65 143.654 143.906C143.717 142.881 144.056 142.15 144.817 141.442C147.934 138.53 151.035 135.601 154.056 132.59C159.512 127.15 164.714 121.468 169.608 115.516C169.839 115.234 170.018 114.852 170.584 114.88C170.768 115.023 171.031 115.198 171.258 115.408C173.904 117.892 176.543 120.383 179.181 122.87C179.552 123.22 179.891 123.61 180.297 123.908C181.094 124.5 181.955 124.508 182.8 123.991C184.211 123.133 184.466 121.512 183.338 120.264C182.485 119.322 181.565 118.436 180.636 117.566C178.452 115.52 176.248 113.497 174.056 111.463C173.402 110.855 173.398 110.787 173.94 110.048C175.032 108.562 176.16 107.1 177.228 105.598C180.672 100.754 183.585 95.6286 185.483 89.9705C187.439 84.1414 188.141 78.2091 186.862 72.1337C185.367 65.0451 181.593 59.534 175.311 55.8188C171.234 53.4069 166.774 52.1791 162.059 51.8891C157.125 51.5871 152.258 52.1275 147.448 53.2202C142.653 54.3129 138.022 55.9102 133.442 57.6823C132.856 57.9088 132.302 58.2466 131.661 58.2664C131.258 57.9645 131.167 57.5194 131.003 57.1102C130.254 55.2188 129.517 53.3275 128.743 51.444C128.528 50.9196 128.281 50.3831 127.934 49.9421C126.934 48.6865 125.104 48.7898 124.18 50.1129C123.658 50.86 123.662 51.6229 124.004 52.4573C124.81 54.3923 125.567 56.3512 126.336 58.3022C126.523 58.775 126.687 59.2558 126.834 59.7406C126.942 60.0863 126.81 60.3684 126.495 60.5392C126.216 60.6902 125.922 60.8134 125.627 60.9405C118.839 63.865 112.167 67.0398 105.639 70.4967C104.794 70.9457 104.048 71.0331 103.108 70.7152C98.098 69.0225 93.0282 67.5325 87.8868 66.2808C87.5799 66.2054 87.277 66.0981 86.9741 65.9948C86.6871 65.8954 86.5915 65.657 86.6393 65.3948C86.7071 65.0213 86.8266 64.6557 86.9382 64.2941C87.6437 62.0531 88.3531 59.8121 89.0626 57.5711C89.1981 57.1459 89.3615 56.7287 89.4412 56.2956C89.6325 55.2665 89.1542 54.4082 88.1977 53.9791C86.8505 53.3791 85.4436 53.8837 84.8259 55.2188C84.6385 55.6201 84.515 56.0532 84.3795 56.4744C83.7019 58.5923 83.0283 60.7101 82.3548 62.8279C82.1993 63.3127 82.0598 63.8014 81.8765 64.2743C81.7529 64.6001 81.4859 64.7709 81.1232 64.6954C80.4377 64.5564 79.7522 64.4054 79.0666 64.2663C75.0093 63.4359 70.936 62.7127 66.8348 62.1167C62.351 61.465 57.8472 61.0439 53.3275 60.7896C47.7756 60.4757 42.2396 60.5988 36.7713 61.7909C32.7458 62.669 28.9515 64.1034 25.6076 66.559C21.5064 69.5708 18.7324 73.5125 17.5208 78.4594C16.6121 82.1666 16.7555 85.8977 17.6005 89.6049C18.836 95.0247 21.3151 99.8564 24.6231 104.295C26.5681 106.901 28.7403 109.313 31.0519 111.598C40.1232 120.57 49.8919 128.727 60.2745 136.142C63.4869 138.434 66.779 140.616 70.0631 142.805C70.7686 143.274 71.1831 143.799 71.1472 144.653C71.1353 144.907 71.1552 145.161 71.1632 145.416C71.3465 151.706 71.7371 157.984 72.4704 164.238C73.0723 169.356 73.9332 174.422 75.4716 179.357C75.6031 179.782 75.7426 180.203 75.8502 180.636C75.914 180.898 75.8303 181.149 75.5673 181.276C75.1687 181.471 74.7622 181.661 74.3477 181.82C68.9432 183.942 63.4151 185.683 57.7077 186.775C50.7728 188.106 43.8059 188.535 36.7992 187.316C28.3098 185.841 20.7411 182.46 14.3642 176.599C14.0373 176.297 13.7145 175.979 13.3478 175.737C12.3594 175.085 11.0481 175.312 10.243 176.234C9.48577 177.096 9.44193 178.304 10.1793 179.194C10.542 179.631 10.9764 180.016 11.3989 180.402C15.6515 184.252 20.494 187.137 25.8587 189.159C36.4046 193.133 47.2256 193.625 58.2338 191.647C64.1485 190.586 69.8639 188.829 75.4477 186.628C75.9818 186.418 76.5158 186.207 77.0539 186.012C77.7554 185.758 77.847 185.798 78.2297 186.509C78.4409 186.902 78.6322 187.304 78.8355 187.701C80.625 191.178 82.8729 194.325 85.615 197.114C89.1861 200.75 93.2754 203.623 98.1059 205.359C105.065 207.858 111.864 207.485 118.492 204.187C121.426 202.729 124.036 200.813 126.404 198.564C130.672 194.5 133.721 189.628 135.969 184.224C137.069 181.582 137.966 178.868 138.699 176.103C138.847 175.55 138.99 174.998 139.154 174.45C139.257 174.108 139.505 173.921 139.871 173.985C140.182 174.04 140.489 174.14 140.796 174.223C148.253 176.194 155.782 177.831 163.386 179.11C164.391 179.281 165.395 179.484 166.407 179.575C167.858 179.703 169.054 178.725 169.265 177.338C169.444 176.158 168.95 175.371 167.794 175.034V175.042ZM165.503 113.104C161.382 118.031 156.981 122.712 152.486 127.301C150.126 129.709 147.703 132.049 145.304 134.417C145.124 134.596 144.933 134.767 144.738 134.926C144.522 135.101 144.176 134.985 144.164 134.731C144.144 134.227 144.12 133.718 144.136 133.209C144.343 126.411 144.076 119.624 143.534 112.849C143.08 107.156 142.394 101.481 141.422 95.8472C141.298 95.1319 141.075 94.3969 141.206 93.6181C145.3 95.2233 163.235 107.934 166.571 111.57C166.423 112.222 165.901 112.623 165.503 113.104ZM111.518 72.8569C116.854 70.1669 122.235 67.5603 127.699 65.1405C127.874 65.065 128.054 64.9497 128.229 64.9497C128.393 64.9497 128.636 65.0252 128.703 65.1484C128.887 65.4782 129.01 65.8438 129.134 66.2014C130.963 71.6807 132.554 77.2277 133.893 82.8461C133.937 83.0249 133.941 83.2116 134.012 83.7918C131.258 82.4487 128.771 81.2011 126.252 80.021C123.777 78.8607 121.282 77.7402 118.771 76.6634C116.209 75.5628 113.61 74.5376 111.047 73.4887C111.099 73.143 111.282 72.984 111.518 72.8648V72.8569ZM82.0917 82.5719C82.9526 78.9958 83.8573 75.4277 84.7461 71.8556C84.794 71.6728 84.8458 71.49 84.9095 71.3072C85.1208 70.7192 85.3001 70.6 85.894 70.743C87.1295 71.041 88.3691 71.3351 89.5926 71.6807C92.2271 72.4198 94.8537 73.1827 97.4762 73.9496C97.6874 74.0131 98.0262 73.9933 98.0023 74.3668C97.9824 74.6608 97.7233 74.7602 97.516 74.8913C97.3526 74.9906 97.1892 75.086 97.0218 75.1813C92.259 77.8753 87.5839 80.7163 82.9725 83.6606C82.6656 83.8593 82.3747 84.1176 81.9682 84.0898C81.745 83.5295 81.9761 83.0368 82.0877 82.564L82.0917 82.5719ZM74.6785 89.2195C65.6949 95.3942 57.086 102.05 48.8437 109.182C48.4571 109.516 48.0586 109.834 47.6998 110.191C46.7433 111.137 46.6118 112.11 47.2853 113.084C48.0227 114.145 49.3937 114.558 50.4778 113.97C50.976 113.7 51.3985 113.298 51.8409 112.933C55.129 110.215 58.3893 107.462 61.7013 104.779C65.3641 101.815 69.1504 99.01 72.9806 96.2604C73.3871 95.9703 73.8056 95.6962 74.527 95.2035C74.4872 97.2538 74.0806 98.9226 73.8415 100.607C73.1241 105.642 72.5302 110.684 72.0679 115.746C71.4621 122.398 71.2229 129.061 71.0635 135.732C71.0555 136.114 71.0436 136.495 71.0117 136.877C70.9798 137.282 70.6968 137.465 70.386 137.278C69.9476 137.016 69.5251 136.738 69.1026 136.452C57.1737 128.445 46.0418 119.457 35.743 109.448C33.4154 107.183 31.1835 104.823 29.1548 102.288C27.2018 99.8444 25.48 97.2577 24.1289 94.4326C22.714 91.4684 21.8332 88.3533 21.7256 85.0792C21.5024 78.4674 23.9735 73.1946 29.7686 69.6821C33.1484 67.6358 36.859 66.5709 40.733 65.9669C44.2762 65.4186 47.8473 65.4345 51.4184 65.4901C58.1302 65.5934 64.7543 66.5153 71.3465 67.6874C73.6661 68.1007 75.9778 68.5695 78.2894 69.0225C78.7876 69.1219 79.2819 69.253 79.7761 69.3801C80.1587 69.4795 80.2504 69.7616 80.1946 70.1073C80.1428 70.4212 80.079 70.7311 79.9953 71.037C78.5684 76.3138 77.2731 81.6183 76.2608 86.9864C76.0655 88.0195 75.5075 88.6394 74.6785 89.2115V89.2195ZM79.9793 177.636C78.7757 173.806 78.0383 169.876 77.4883 165.911C76.6992 160.245 76.3245 154.539 76.0256 148.829C76.0017 148.384 75.9897 147.939 75.9977 147.494C76.0057 146.973 76.2847 146.787 76.7151 147.013C77.1655 147.251 77.5999 147.518 78.0384 147.776C87.3009 153.275 96.8943 158.135 106.779 162.418C107.349 162.664 107.998 162.78 108.401 163.276C108.369 163.713 108.054 163.841 107.803 163.999C99.4969 169.34 90.9836 174.315 82.0319 178.518C80.4895 179.242 80.4815 179.23 79.9793 177.636ZM134.495 173.154C134.463 173.341 134.435 173.532 134.383 173.715C133.219 177.883 131.888 181.983 129.875 185.837C128.006 189.414 125.718 192.68 122.765 195.461C119.054 198.954 114.762 201.294 109.648 201.99C108.831 202.101 107.998 202.125 107.488 202.164C103.056 202.125 99.2498 200.972 95.7106 198.942C89.8318 195.568 85.615 190.669 82.6896 184.618C82.3229 183.863 82.3787 183.74 83.2117 183.326C85.4356 182.226 87.6835 181.161 89.8956 180.04C97.8588 176.007 105.519 171.458 112.952 166.531C113.164 166.391 113.387 166.26 113.582 166.097C114.132 165.637 114.686 165.648 115.348 165.899C118.086 166.94 120.824 167.977 123.594 168.931C126.663 169.987 129.764 170.957 132.853 171.962C133.215 172.081 133.578 172.201 133.945 172.304C134.387 172.427 134.562 172.713 134.491 173.154H134.495ZM138.213 151.618C137.711 156.033 137.169 160.443 136.368 164.818C136.22 165.629 136.061 166.439 135.866 167.242C135.806 167.488 135.591 167.675 135.292 167.619C134.977 167.564 134.666 167.488 134.363 167.397C129.74 165.978 125.152 164.452 120.613 162.776C120.274 162.653 119.875 162.593 119.652 162.247C119.692 162.124 119.692 161.953 119.768 161.898C126.025 157.304 132.119 152.504 138.078 147.534C138.153 147.47 138.317 147.51 138.564 147.494C138.444 148.877 138.365 150.251 138.209 151.614L138.213 151.618ZM139.194 138.812C139.138 139.789 138.795 140.449 138.074 141.081C130.692 147.538 123.004 153.609 114.945 159.208C114.738 159.355 114.515 159.486 114.319 159.645C113.865 160.01 113.387 159.994 112.885 159.78C112.474 159.605 112.064 159.438 111.649 159.267C99.8676 154.376 88.5404 148.594 77.6677 141.935C75.6111 140.675 75.9021 141.148 75.8821 138.824C75.8263 131.513 76.1532 124.217 76.7709 116.938C77.4684 108.709 78.5645 100.532 80.063 92.4062C80.2304 91.5002 80.633 90.9439 81.3703 90.4552C88.5843 85.6633 95.9975 81.2011 103.578 77.0091C104.519 76.4886 105.312 76.5045 106.268 76.8541C113.092 79.3415 119.796 82.111 126.304 85.3335C129.042 86.6884 131.729 88.1387 134.455 89.5175C135.196 89.891 135.571 90.3956 135.73 91.242C136.42 94.8618 137.017 98.4935 137.54 102.137C138.169 106.54 138.624 110.962 138.923 115.396C139.194 119.386 139.313 123.387 139.421 125.644C139.429 131.199 139.417 135.009 139.198 138.816L139.194 138.812ZM139.385 85.4169C138.907 82.9891 138.285 80.5892 137.675 78.1892C136.535 73.6953 135.228 69.249 133.737 64.8584C133.574 64.3776 133.422 63.8928 133.295 63.4001C133.203 63.0544 133.351 62.7803 133.674 62.6213C133.961 62.4822 134.255 62.3591 134.55 62.2478C139.907 60.1896 145.355 58.4492 151.015 57.4082C153.717 56.9115 156.439 56.6731 158.934 56.6095C162.446 56.6095 165.674 56.9115 168.783 57.9803C176.391 60.5949 180.883 65.9034 182.346 73.7628C183.179 78.2329 182.581 82.6196 181.361 86.9427C180.373 90.4433 178.93 93.7571 177.117 96.912C175.184 100.278 172.996 103.48 170.684 106.595C170.497 106.85 170.297 107.1 170.086 107.338C169.899 107.549 169.648 107.609 169.409 107.438C169.046 107.179 168.695 106.905 168.352 106.623C159.823 99.6299 150.78 93.3638 141.21 87.8645C140.186 87.2765 139.612 86.597 139.381 85.4169H139.385ZM51.0677 145.189C51.0358 131.278 39.4975 119.716 25.6036 119.803C11.6579 119.894 0.0637802 130.396 1.03637e-05 145.392C-0.0637595 160.161 11.8652 170.826 25.7989 170.75C41.6258 170.667 51.1833 157.272 51.0677 145.193V145.189ZM4.77079 145.289C4.84253 132.379 15.532 124.551 25.5956 124.563C36.297 124.579 46.2331 133.348 46.2571 145.293C46.281 156.049 37.7557 165.931 25.6036 165.962C14.0134 165.962 4.70702 156.772 4.77079 145.289ZM189.628 127.281C175.311 127.333 163.972 138.522 163.936 152.783C163.896 167.897 176.435 178.308 189.476 178.181C203.155 178.503 215.02 167.142 214.996 152.743C214.972 137.815 202.673 127.237 189.628 127.281ZM189.624 173.432C178.253 173.504 168.851 164.79 168.703 152.834C168.811 140.159 179.002 132.045 189.476 132.041C201.026 132.041 210.146 141.514 210.221 152.699C210.285 162.609 202.673 173.349 189.628 173.432H189.624ZM107.408 90.3678C92.5699 90.5665 81.9243 102.348 81.9642 116.108C82.004 129.955 93.375 141.323 107.747 141.295C123.072 141.252 133.112 128.219 133.036 115.766C132.956 101.811 121.342 90.181 107.404 90.3678H107.408ZM107.647 136.531C97.0976 136.531 86.8346 128.664 86.7509 115.957C86.6712 103.758 96.3602 95.0843 107.596 95.128C119.413 95.1717 128.225 104.708 128.237 115.826C128.249 126.713 119.748 136.4 107.647 136.531ZM87.6796 32.3557C86.7868 30.5001 86.177 28.2551 86.1132 25.8432C86.0773 23.4313 86.5994 21.1625 87.4205 19.2751C87.819 18.3255 88.3133 17.4791 88.8075 16.7123C89.3216 15.9613 89.8477 15.2937 90.3818 14.7414C91.446 13.6249 92.4583 12.8938 93.2196 12.5004C93.9768 12.1031 94.4551 11.9998 94.5508 12.1428C94.7779 12.4726 93.371 13.617 91.8126 15.8937C91.422 16.458 91.0394 17.1096 90.6608 17.8129C90.3061 18.5321 89.9394 19.3029 89.6524 20.1493C89.0546 21.83 88.6879 23.7691 88.7158 25.7916C88.7716 27.818 89.214 29.7372 89.8756 31.3941C90.1945 32.2285 90.593 32.9835 90.9757 33.6868C91.3822 34.3742 91.7887 35.0099 92.2032 35.5583C93.8453 37.7754 95.3 38.8602 95.0848 39.2019C94.9971 39.3489 94.5149 39.2655 93.7377 38.8959C92.9645 38.5304 91.9242 37.839 90.8162 36.7662C90.2582 36.2337 89.7082 35.5861 89.1662 34.8589C88.6441 34.1159 88.118 33.2894 87.6796 32.3517V32.3557ZM96.8305 127.094C98.2773 129.001 99.5447 129.951 99.3454 130.293C99.2578 130.444 98.8233 130.4 98.1258 130.11C97.4284 129.824 96.4838 129.252 95.4754 128.338C94.4671 127.428 93.4228 126.145 92.5938 124.523C91.7648 122.906 91.1789 120.927 91.0872 118.794C91.0195 116.66 91.4579 114.645 92.1674 112.969C92.8768 111.288 93.8214 109.933 94.762 108.952C95.7026 107.966 96.5994 107.326 97.2769 106.989C97.9545 106.647 98.3849 106.575 98.4806 106.718C98.7038 107.044 97.5081 108.085 96.2088 110.092C95.5551 111.089 94.9015 112.349 94.4152 113.811C93.929 115.273 93.642 116.95 93.6938 118.694C93.7696 120.439 94.1801 122.092 94.7739 123.514C95.3678 124.941 96.1091 126.145 96.8345 127.094H96.8305ZM182.493 141.963C182.593 142.34 181.298 142.893 179.668 144.224C178.85 144.883 177.966 145.757 177.173 146.854C176.379 147.947 175.698 149.27 175.299 150.736C174.921 152.21 174.853 153.692 175 155.035C175.148 156.378 175.479 157.574 175.861 158.552C176.619 160.515 177.471 161.635 177.196 161.913C177.077 162.037 176.698 161.917 176.144 161.52C175.59 161.123 174.897 160.419 174.227 159.398C173.558 158.377 172.952 157.018 172.629 155.409C172.306 153.804 172.298 151.944 172.78 150.077C173.287 148.213 174.219 146.6 175.295 145.368C176.375 144.128 177.575 143.246 178.663 142.69C179.751 142.13 180.708 141.864 181.385 141.792C182.063 141.716 182.449 141.8 182.493 141.967V141.963ZM18.7523 132.442C18.8201 132.824 17.6523 133.241 16.2135 134.342C15.4921 134.886 14.7189 135.621 14.0334 136.551C13.3478 137.477 12.7819 138.609 12.4869 139.857C12.2159 141.109 12.2358 142.376 12.4511 143.505C12.6663 144.637 13.0489 145.634 13.4634 146.433C14.2845 148.046 15.1573 148.92 14.9301 149.238C14.8305 149.381 14.4718 149.345 13.9218 149.083C13.3717 148.821 12.6543 148.296 11.9409 147.466C11.2235 146.64 10.542 145.487 10.1235 144.077C9.701 142.67 9.57346 140.989 9.9481 139.281C10.3467 137.58 11.1916 136.114 12.18 135.029C13.1685 133.936 14.2845 133.189 15.2848 132.752C16.2892 132.311 17.1621 132.144 17.7719 132.144C18.3817 132.144 18.7204 132.268 18.7483 132.439L18.7523 132.442Z" fill="white"/>
</g>
<defs>
<clipPath id="clip0_216_445">
<rect width="215" height="207" fill="white"/>
</clipPath>
</defs>
</svg>
