<svg width="218" height="244" viewBox="0 0 218 244" fill="none" xmlns="http://www.w3.org/2000/svg">
<g clip-path="url(#clip0_385_2987)">
<path d="M214.817 227.671C158.641 217.66 99.9474 222.135 43.4751 240.297C41.3942 199.542 27.2097 159.48 3.18262 126.494C26.5556 132.772 48.4228 144.575 66.4969 160.669C73.982 117.286 83.6535 74.2784 95.4607 31.8677C112.437 70.9726 129.414 110.08 146.39 149.185C161.837 118.992 188.43 96.2948 214.352 74.4255C206.517 120.631 206.43 168.143 214.817 227.671Z" stroke="black" stroke-width="6.36567" stroke-linecap="round" stroke-linejoin="round"/>
<path d="M197.224 114.622C190.707 145.221 191.4 177.332 199.235 207.622" stroke="black" stroke-width="6.36567" stroke-linecap="round" stroke-linejoin="round"/>
<path d="M176.99 148.406C175.159 166.089 176.77 184.122 181.709 201.201" stroke="black" stroke-width="6.36567" stroke-linecap="round" stroke-linejoin="round"/>
<path d="M170.216 28.0724C172.229 19.7751 174.244 11.4799 176.257 3.18262" stroke="black" stroke-width="6.36567" stroke-linecap="round" stroke-linejoin="round"/>
<path d="M179.62 25.963C181.505 21.641 183.389 17.3211 185.274 12.999" stroke="black" stroke-width="6.36567" stroke-linecap="round" stroke-linejoin="round"/>
<path d="M182.418 36.135C187.811 27.5326 194.598 19.8082 202.437 13.3525" stroke="black" stroke-width="6.36567" stroke-linecap="round" stroke-linejoin="round"/>
<path d="M37.5398 112.525C32.3682 106.216 25.8621 101.005 18.5767 97.3374" stroke="black" stroke-width="6.36567" stroke-linecap="round" stroke-linejoin="round"/>
<path d="M37.1822 99.1857C33.7075 95.2741 30.6453 90.9959 28.0596 86.4478" stroke="black" stroke-width="6.36567" stroke-linecap="round" stroke-linejoin="round"/>
<path d="M47.5957 104.93C44.4479 97.2365 42.6195 89.0073 42.2134 80.7056" stroke="black" stroke-width="6.36567" stroke-linecap="round" stroke-linejoin="round"/>
</g>
<defs>
<clipPath id="clip0_385_2987">
<rect width="218" height="243.48" fill="white"/>
</clipPath>
</defs>
</svg>
