<svg width="218" height="244" viewBox="0 0 218 244" fill="none" xmlns="http://www.w3.org/2000/svg">
<g clip-path="url(#clip0_216_1081)">
<path d="M214.817 227.671C158.641 217.66 99.9476 222.135 43.4753 240.297C41.3944 199.542 27.21 159.48 3.18286 126.495C26.5558 132.772 48.423 144.575 66.4971 160.669C73.9823 117.286 83.6537 74.2785 95.4609 31.8678C112.437 70.9728 129.414 110.08 146.391 149.185C161.837 118.992 188.43 96.2949 214.352 74.4256C206.518 120.632 206.43 168.144 214.817 227.671Z" stroke="white" stroke-width="6.36567" stroke-linecap="round" stroke-linejoin="round"/>
<path d="M197.224 114.621C190.707 145.221 191.4 177.332 199.234 207.622" stroke="white" stroke-width="6.36567" stroke-linecap="round" stroke-linejoin="round"/>
<path d="M176.99 148.406C175.159 166.089 176.77 184.122 181.709 201.201" stroke="white" stroke-width="6.36567" stroke-linecap="round" stroke-linejoin="round"/>
<path d="M170.216 28.0725C172.229 19.7752 174.244 11.4801 176.257 3.18274" stroke="white" stroke-width="6.36567" stroke-linecap="round" stroke-linejoin="round"/>
<path d="M179.619 25.9632C181.505 21.6411 183.388 17.3212 185.274 12.9991" stroke="white" stroke-width="6.36567" stroke-linecap="round" stroke-linejoin="round"/>
<path d="M182.418 36.135C187.811 27.5326 194.598 19.8082 202.437 13.3525" stroke="white" stroke-width="6.36567" stroke-linecap="round" stroke-linejoin="round"/>
<path d="M37.5399 112.525C32.3683 106.217 25.8622 101.006 18.5768 97.3376" stroke="white" stroke-width="6.36567" stroke-linecap="round" stroke-linejoin="round"/>
<path d="M37.1821 99.1859C33.7073 95.2743 30.6452 90.9962 28.0594 86.448" stroke="white" stroke-width="6.36567" stroke-linecap="round" stroke-linejoin="round"/>
<path d="M47.5954 104.93C44.4477 97.2367 42.6192 89.0074 42.2131 80.7057" stroke="white" stroke-width="6.36567" stroke-linecap="round" stroke-linejoin="round"/>
</g>
<defs>
<clipPath id="clip0_216_1081">
<rect width="218" height="243.48" fill="white"/>
</clipPath>
</defs>
</svg>
