<svg width="225" height="317" viewBox="0 0 225 317" fill="none" xmlns="http://www.w3.org/2000/svg">
<g clip-path="url(#clip0_216_411)">
<path d="M18.2101 287.21C38.5396 306.119 60.2268 313.931 98.2337 316.027C98.3368 316.027 98.4342 316.033 98.5373 316.033C98.5946 316.033 98.6519 316.033 98.7092 316.033C185.836 313.331 200.661 273.059 215.004 234.117C216.178 230.919 217.358 227.721 218.579 224.546C235.202 181.235 218.739 130.141 178.544 100.302C176.476 98.7662 173.623 98.869 171.664 100.542C169.711 102.215 169.178 105.014 170.387 107.281C178.681 122.877 180.142 141.209 174.5 158.906C171.888 167.09 167.843 174.754 162.636 181.572C166.795 170.756 168.749 159.146 168.222 147.428C167.15 123.534 155.848 101.142 137.214 85.9854C127.597 78.1674 121.737 66.6259 121.135 54.3306C120.545 42.1781 124.933 30.8251 133.491 22.3617C135.038 20.8369 135.536 18.5469 134.763 16.5139C133.989 14.4866 132.093 13.0988 129.922 12.9789C102.627 11.4256 81.4843 35.3423 78.8264 58.6423C77.0277 74.4211 81.1635 89.7146 85.1619 104.505C86.6856 110.131 88.2551 115.95 89.4351 121.609C91.3942 131.009 92.9981 145.812 87.9114 158.752C87.373 149.392 84.6578 139.941 79.8346 130.975C69.9934 112.689 52.7113 98.9832 32.4104 93.3809C30.2738 92.7927 27.9882 93.5351 26.6134 95.2769C25.2386 97.013 25.0439 99.4001 26.1208 101.336C45.4193 136.058 40.3727 177.78 12.9515 210.223C-6.18084 232.855 -3.87235 266.674 18.2043 287.205L18.2101 287.21ZM105.858 258.023C107.038 260.541 109.919 261.786 112.566 260.918C115.212 260.05 116.799 257.349 116.249 254.625C116.1 253.894 117.532 252.226 119.508 251.632C121.582 251.01 124.108 251.033 126.783 251.055C128.141 251.067 129.544 251.078 130.988 251.01C141.471 250.519 151.363 245.607 158.449 238.075C156.943 251.164 150.218 264.504 139.345 274.904C124.017 289.569 103.561 296.679 71.0417 298.632C54.2007 294.623 44.8923 274.944 45.614 257.96C46.1926 244.351 51.5027 231.222 57.7694 219.001L64.0762 264.841C64.46 267.634 66.9346 269.684 69.7299 269.581C72.5597 269.478 74.8453 267.257 75.0286 264.447C76.3518 243.94 84.9957 224.255 98.8581 209.207C96.4522 225.705 98.8123 243.015 105.841 258.023H105.858ZM21.3835 217.305C48.5641 185.147 55.8676 144.641 41.7589 108.709C53.771 114.762 63.7726 124.35 70.1309 136.166C77.3084 149.512 78.9238 164 74.6677 176.964C73.9116 179.271 74.7594 181.795 76.7585 183.183C78.7577 184.571 81.427 184.479 83.3345 182.972C100.021 169.74 106.018 147.154 100.227 119.382C98.9841 113.409 97.363 107.435 95.8049 101.656C91.904 87.2247 88.215 73.5931 89.7788 59.8929C91.4515 45.2448 102.261 30.2826 117.286 25.4855C112.171 34.2744 109.627 44.4852 110.131 54.8789C110.882 70.2808 118.214 84.7234 130.249 94.5116C146.454 107.686 156.284 127.16 157.218 147.93C158.168 169.049 149.845 189.796 134.385 204.85C132.443 206.74 132.174 209.766 133.755 211.971C135.336 214.175 138.291 214.9 140.72 213.678C161.823 203.062 177.965 184.314 185.005 162.236C189.153 149.227 189.977 135.886 187.56 123.225C212.214 150.374 220.813 188.02 208.296 220.623C207.059 223.849 205.862 227.093 204.67 230.337C191.432 266.286 178.91 300.305 105.95 304.714C122.974 300.396 136.012 293.327 146.987 282.83C165.518 265.104 173.749 239.777 167.958 218.304C167.311 215.9 165.134 214.278 162.619 214.238C160.122 214.249 157.939 215.934 157.309 218.344C154.227 230.137 142.696 239.462 130.484 240.034C129.344 240.085 128.147 240.079 126.886 240.068C123.673 240.039 120.024 240.011 116.352 241.107C114.834 241.558 113.356 242.255 111.993 243.146C107.416 227.504 108.012 210.189 113.9 195.061C114.783 192.788 114.061 190.207 112.125 188.722C110.189 187.237 107.502 187.197 105.526 188.631C89.9278 199.933 77.9271 215.7 70.8985 233.46L66.419 200.92C66.0982 198.585 64.311 196.712 61.9854 196.272C59.654 195.826 57.3111 196.923 56.154 198.985C46.4962 216.174 35.5437 235.653 34.6215 257.491C34.106 269.695 37.8866 283.036 45.362 293.264C38.3334 289.615 31.9922 284.995 25.737 279.175C7.95649 262.637 6.04898 235.454 21.395 217.299L21.3835 217.305Z" fill="white"/>
<path d="M159.503 81.097C160.477 81.8565 161.674 82.262 162.894 82.262C163.209 82.262 163.524 82.2334 163.839 82.182C186.54 78.2473 192.927 62.6283 191.501 50.453C190.854 44.9306 188.82 39.9566 186.85 35.1424C185.578 32.0243 184.369 29.0832 183.602 26.1479C182.548 22.1446 182.508 17.0449 184.942 13.4586C186.437 12.1965 187.921 10.963 189.382 9.74656C191.541 7.94766 191.994 4.81816 190.436 2.48245C188.878 0.146745 185.802 -0.641342 183.31 0.655004C180.68 2.01988 178.555 3.80164 176.894 5.85752C166.978 14.2809 156.822 23.835 151.065 35.7477C143.052 52.3261 146.523 70.9718 159.503 81.0913V81.097ZM160.987 40.5219C163.65 35.011 167.637 29.917 172.197 25.1599C172.369 26.4391 172.615 27.7012 172.936 28.9233C173.892 32.5611 175.29 35.9819 176.642 39.2884C178.406 43.6114 180.079 47.6889 180.549 51.7265C181.649 61.1207 175.668 68.1392 164.447 70.8461C155.997 62.6169 156.582 49.6363 160.981 40.5276L160.987 40.5219Z" fill="white"/>
<path d="M184.937 244.751C185.326 244.979 185.75 245.088 186.174 245.088C187.016 245.088 187.835 244.654 188.288 243.883C200.351 223.364 206.08 198.99 204.43 175.262C204.338 173.92 203.175 172.898 201.818 172.995C200.472 173.086 199.452 174.251 199.544 175.599C201.13 198.356 195.631 221.731 184.06 241.416C183.378 242.581 183.768 244.071 184.937 244.756V244.751Z" fill="white"/>
<path d="M188.648 214.181C188.832 214.221 189.015 214.244 189.198 214.244C190.315 214.244 191.324 213.478 191.581 212.348L194.761 198.55C195.064 197.237 194.239 195.929 192.922 195.627C191.604 195.324 190.293 196.146 189.989 197.46L186.81 211.257C186.506 212.57 187.331 213.878 188.648 214.181Z" fill="white"/>
<path d="M113.385 100.548C115.43 102.261 117.607 103.826 119.715 105.339C123.295 107.909 126.675 110.336 129.43 113.414C135.954 120.707 137.73 130.318 138.074 137.103C138.521 145.977 136.911 154.994 135.353 163.709C135.118 165.034 136.006 166.302 137.335 166.542C137.478 166.564 137.621 166.582 137.764 166.582C138.927 166.582 139.958 165.748 140.17 164.566C141.774 155.583 143.435 146.291 142.96 136.857C142.582 129.29 140.56 118.514 133.079 110.159C129.963 106.681 126.205 103.98 122.573 101.37C120.54 99.9083 118.437 98.4007 116.53 96.8016C113.076 93.912 107.365 88.0242 107.92 81.1084C108.029 79.7664 107.021 78.59 105.675 78.4815C104.329 78.373 103.149 79.3781 103.04 80.7201C102.307 89.8231 109.203 97.0472 113.379 100.542L113.385 100.548Z" fill="white"/>
<path d="M114.244 112.403C113.001 111.872 111.563 112.438 111.025 113.677C110.492 114.916 111.059 116.35 112.302 116.886C119.228 119.867 124.475 126.292 125.993 133.659C126.228 134.813 127.247 135.612 128.387 135.612C128.548 135.612 128.714 135.595 128.88 135.561C130.203 135.292 131.057 134.002 130.787 132.677C128.954 123.774 122.613 116.001 114.244 112.403Z" fill="white"/>
<path d="M61.0918 174.297C60.7481 175.599 61.5328 176.935 62.8389 177.278C63.0451 177.335 63.257 177.358 63.4632 177.358C64.5516 177.358 65.5426 176.633 65.829 175.536C69.2431 162.527 67.5589 148.267 61.2006 136.406C60.5648 135.218 59.0811 134.767 57.8897 135.401C56.6982 136.035 56.2457 137.514 56.8815 138.702C62.6613 149.489 64.1965 162.464 61.086 174.291L61.0918 174.297Z" fill="white"/>
<path d="M94.8426 287.776C95.2722 288.638 96.1372 289.135 97.0365 289.135C97.4031 289.135 97.7697 289.055 98.1192 288.878L116.65 279.723C117.864 279.124 118.357 277.662 117.756 276.451C117.154 275.24 115.688 274.749 114.473 275.349L95.9424 284.503C94.7281 285.103 94.2354 286.565 94.8369 287.776H94.8426Z" fill="white"/>
<path d="M90.6496 276.297C91.1021 277.085 91.927 277.525 92.7748 277.525C93.1872 277.525 93.6053 277.422 93.9949 277.199L100.554 273.436C101.728 272.762 102.129 271.272 101.453 270.101C100.777 268.93 99.2821 268.53 98.1078 269.204L91.5489 272.968C90.3746 273.641 89.9736 275.132 90.6438 276.297H90.6496Z" fill="white"/>
</g>
<defs>
<clipPath id="clip0_216_411">
<rect width="225" height="316" fill="white" transform="translate(0 0.038269)"/>
</clipPath>
</defs>
</svg>
