<svg width="225" height="317" viewBox="0 0 225 317" fill="none" xmlns="http://www.w3.org/2000/svg">
<g clip-path="url(#clip0_385_2459)">
<path d="M18.2105 287.21C38.5401 306.118 60.2273 313.931 98.2342 316.026C98.3373 316.026 98.4347 316.032 98.5378 316.032C98.5951 316.032 98.6524 316.032 98.7097 316.032C185.836 313.331 200.661 273.059 215.005 234.117C216.179 230.919 217.359 227.721 218.579 224.546C235.202 181.235 218.739 130.141 178.544 100.302C176.476 98.7658 173.624 98.8686 171.665 100.542C169.711 102.215 169.179 105.013 170.387 107.281C178.682 122.877 180.142 141.208 174.5 158.906C171.888 167.089 167.844 174.753 162.637 181.572C166.796 170.756 168.749 159.146 168.222 147.427C167.151 123.533 155.849 101.141 137.215 85.9851C127.597 78.167 121.737 66.6256 121.136 54.3303C120.546 42.1777 124.934 30.8247 133.492 22.3613C135.038 20.8366 135.537 18.5465 134.763 16.5135C133.99 14.4862 132.094 13.0985 129.923 12.9785C102.628 11.4252 81.4848 35.3419 78.8269 58.6419C77.0282 74.4208 81.164 89.7142 85.1623 104.505C86.6861 110.13 88.2556 115.95 89.4356 121.609C91.3947 131.009 92.9986 145.811 87.9119 158.752C87.3735 149.392 84.6583 139.94 79.8351 130.975C69.9939 112.689 52.7118 98.9828 32.4109 93.3805C30.2742 92.7923 27.9887 93.5347 26.6139 95.2765C25.2391 97.0126 25.0443 99.3997 26.1213 101.336C45.4197 136.057 40.3731 177.78 12.952 210.223C-6.18035 232.855 -3.87186 266.674 18.2048 287.204L18.2105 287.21ZM105.859 258.022C107.039 260.541 109.92 261.786 112.566 260.918C115.213 260.049 116.799 257.348 116.25 254.624C116.101 253.893 117.533 252.226 119.509 251.632C121.583 251.009 124.109 251.032 126.784 251.055C128.141 251.066 129.545 251.078 130.988 251.009C141.471 250.518 151.364 245.607 158.45 238.074C156.943 251.164 150.218 264.504 139.346 274.903C124.017 289.568 103.561 296.678 71.0422 298.631C54.2011 294.622 44.8927 274.943 45.6145 257.959C46.1931 244.351 51.5031 231.221 57.7698 219L64.0767 264.841C64.4604 267.633 66.9351 269.684 69.7304 269.581C72.5602 269.478 74.8458 267.256 75.0291 264.447C76.3523 243.939 84.9962 224.254 98.8586 209.206C96.4527 225.705 98.8128 243.014 105.841 258.022H105.859ZM21.384 217.304C48.5646 185.147 55.8681 144.64 41.7594 108.708C53.7715 114.762 63.7731 124.35 70.1314 136.166C77.3089 149.512 78.9243 164 74.6682 176.963C73.9121 179.271 74.7598 181.795 76.759 183.182C78.7582 184.57 81.4275 184.479 83.335 182.971C100.021 169.739 106.019 147.153 100.228 119.382C98.9846 113.408 97.3635 107.435 95.8054 101.655C91.9045 87.2243 88.2155 73.5927 89.7793 59.8926C91.452 45.2444 102.261 30.2822 117.286 25.4851C112.171 34.274 109.628 44.4849 110.132 54.8785C110.882 70.2804 118.214 84.723 130.249 94.5113C146.455 107.686 156.284 127.16 157.218 147.93C158.169 169.048 149.846 189.796 134.385 204.849C132.443 206.739 132.174 209.766 133.755 211.97C135.336 214.175 138.292 214.9 140.721 213.678C161.824 203.062 177.966 184.313 185.006 162.235C189.153 149.226 189.978 135.886 187.561 123.225C212.215 150.374 220.813 188.019 208.297 220.622C207.06 223.849 205.862 227.093 204.671 230.336C191.433 266.286 178.911 300.305 105.95 304.713C122.975 300.396 136.012 293.326 146.987 282.83C165.518 265.104 173.75 239.776 167.958 218.304C167.311 215.899 165.134 214.278 162.62 214.238C160.122 214.249 157.94 215.934 157.31 218.344C154.228 230.136 142.697 239.462 130.484 240.033C129.344 240.085 128.147 240.079 126.887 240.067C123.673 240.039 120.024 240.01 116.353 241.107C114.835 241.558 113.357 242.255 111.993 243.146C107.417 227.504 108.012 210.189 113.901 195.061C114.783 192.788 114.061 190.207 112.125 188.722C110.189 187.237 107.503 187.197 105.526 188.631C89.9283 199.932 77.9276 215.7 70.899 233.46L66.4195 200.92C66.0987 198.584 64.3115 196.711 61.9858 196.272C59.6544 195.826 57.3116 196.923 56.1545 198.984C46.4967 216.174 35.5442 235.653 34.622 257.491C34.1064 269.695 37.8871 283.035 45.3625 293.263C38.3339 289.614 31.9927 284.994 25.7375 279.175C7.95698 262.636 6.04947 235.453 21.3955 217.299L21.384 217.304Z" fill="black"/>
<path d="M159.504 81.097C160.477 81.8566 161.675 82.262 162.895 82.262C163.21 82.262 163.525 82.2335 163.84 82.1821C186.541 78.2474 192.928 62.6284 191.502 50.453C190.854 44.9307 188.821 39.9566 186.85 35.1424C185.579 32.0243 184.37 29.0833 183.602 26.148C182.548 22.1447 182.508 17.045 184.943 13.4586C186.438 12.1965 187.921 10.963 189.382 9.74662C191.542 7.94772 191.994 4.81822 190.436 2.48251C188.878 0.146806 185.802 -0.641281 183.31 0.655065C180.681 2.01994 178.556 3.8017 176.895 5.85758C166.979 14.281 156.823 23.8351 151.066 35.7478C143.052 52.3261 146.523 70.9718 159.504 81.0913V81.097ZM160.987 40.522C163.651 35.0111 167.638 29.9171 172.197 25.16C172.369 26.4392 172.616 27.7013 172.936 28.9234C173.893 32.5612 175.291 35.9819 176.643 39.2885C178.407 43.6115 180.079 47.689 180.549 51.7265C181.649 61.1207 175.669 68.1393 164.447 70.8462C155.998 62.617 156.582 49.6364 160.981 40.5277L160.987 40.522Z" fill="black"/>
<path d="M184.936 244.751C185.326 244.979 185.75 245.087 186.174 245.087C187.016 245.087 187.835 244.653 188.287 243.883C200.351 223.364 206.079 198.99 204.43 175.262C204.338 173.92 203.175 172.898 201.818 172.995C200.471 173.086 199.452 174.251 199.543 175.599C201.13 198.356 195.631 221.73 184.06 241.415C183.378 242.58 183.768 244.071 184.936 244.756V244.751Z" fill="black"/>
<path d="M188.649 214.181C188.832 214.22 189.015 214.243 189.199 214.243C190.316 214.243 191.324 213.478 191.582 212.347L194.761 198.55C195.064 197.237 194.24 195.929 192.922 195.626C191.605 195.324 190.293 196.146 189.989 197.459L186.81 211.257C186.506 212.57 187.331 213.878 188.649 214.181Z" fill="black"/>
<path d="M113.385 100.548C115.43 102.261 117.606 103.826 119.714 105.339C123.295 107.909 126.674 110.336 129.429 113.414C135.954 120.707 137.73 130.318 138.073 137.102C138.52 145.977 136.911 154.994 135.352 163.709C135.118 165.034 136.005 166.301 137.334 166.541C137.478 166.564 137.621 166.581 137.764 166.581C138.927 166.581 139.958 165.748 140.17 164.565C141.774 155.582 143.435 146.291 142.96 136.857C142.582 129.29 140.559 118.514 133.078 110.159C129.962 106.681 126.204 103.98 122.573 101.37C120.539 99.908 118.437 98.4003 116.529 96.8013C113.075 93.9117 107.364 88.0239 107.92 81.1081C108.029 79.7661 107.021 78.5897 105.674 78.4812C104.328 78.3727 103.148 79.3778 103.039 80.7198C102.306 89.8228 109.203 97.0469 113.379 100.542L113.385 100.548Z" fill="black"/>
<path d="M114.244 112.404C113.001 111.872 111.564 112.438 111.025 113.677C110.492 114.916 111.06 116.35 112.303 116.886C119.228 119.867 124.475 126.292 125.993 133.659C126.228 134.813 127.248 135.612 128.388 135.612C128.548 135.612 128.714 135.595 128.88 135.561C130.203 135.292 131.057 134.002 130.788 132.677C128.955 123.774 122.613 116.001 114.244 112.404Z" fill="black"/>
<path d="M61.092 174.296C60.7483 175.599 61.5331 176.935 62.8391 177.277C63.0453 177.335 63.2573 177.357 63.4635 177.357C64.5519 177.357 65.5428 176.632 65.8293 175.536C69.2433 162.527 67.5592 148.267 61.2008 136.405C60.565 135.218 59.0814 134.766 57.8899 135.4C56.6984 136.034 56.2459 137.513 56.8817 138.701C62.6615 149.489 64.1967 162.464 61.0863 174.291L61.092 174.296Z" fill="black"/>
<path d="M94.8431 287.775C95.2727 288.638 96.1377 289.135 97.037 289.135C97.4036 289.135 97.7702 289.055 98.1197 288.878L116.651 279.723C117.865 279.124 118.358 277.662 117.756 276.451C117.155 275.24 115.688 274.749 114.474 275.349L95.9429 284.503C94.7285 285.103 94.2359 286.565 94.8374 287.775H94.8431Z" fill="black"/>
<path d="M90.6493 276.297C91.1019 277.085 91.9267 277.525 92.7745 277.525C93.1869 277.525 93.6051 277.422 93.9946 277.199L100.553 273.436C101.728 272.762 102.129 271.272 101.453 270.101C100.777 268.93 99.2818 268.53 98.1075 269.204L91.5487 272.968C90.3744 273.641 89.9734 275.132 90.6436 276.297H90.6493Z" fill="black"/>
</g>
<defs>
<clipPath id="clip0_385_2459">
<rect width="225" height="316" fill="white" transform="translate(0 0.0380859)"/>
</clipPath>
</defs>
</svg>
