<svg width="217" height="262" viewBox="0 0 217 262" fill="none" xmlns="http://www.w3.org/2000/svg">
<g clip-path="url(#clip0_377_662)">
<path d="M171.184 142.31C171.184 140.805 169.963 139.585 168.456 139.585H113.525L113.521 145.033H168.456C169.963 145.033 171.184 143.813 171.184 142.308V142.31Z" fill="black"/>
<path d="M13.1418 137.305C15.2215 137.027 17.5682 136.596 20.0959 135.944C14.1933 132.022 10.2938 125.316 10.2938 117.718C10.2938 105.657 20.1121 95.8463 32.1818 95.8463H108.669H168.458C169.965 95.8463 171.186 94.6263 171.186 93.121C171.186 91.6157 169.965 90.3957 168.458 90.3957H46.5216C34.4519 90.3957 24.6336 80.5847 24.6336 68.5239C24.6336 56.4631 34.4519 46.6521 46.5216 46.6521H83.7521C91.558 46.6521 97.9085 40.3063 97.9085 32.5062V2.72528C97.9085 1.22 96.6876 0 95.1812 0C93.6748 0 92.4539 1.22 92.4539 2.72528V32.5085C92.4539 37.3027 88.5498 41.2039 83.7521 41.2039H46.5216C31.446 41.2039 19.1813 53.4595 19.1813 68.5239C19.1813 77.5022 23.538 85.4809 30.2484 90.463C16.0687 91.4557 4.83691 103.298 4.83691 117.713C4.83691 125.388 8.02147 132.335 13.1395 137.303L13.1418 137.305Z" fill="black"/>
<path d="M217 142.31C217 127.893 205.768 116.053 191.588 115.06C198.299 110.078 202.655 102.097 202.655 93.1208C202.655 78.0564 190.391 65.8008 175.315 65.8008H125.179C132.015 60.7375 136.455 52.6174 136.455 43.4813V11.1306C136.455 9.62527 135.234 8.40527 133.728 8.40527C132.222 8.40527 131.001 9.62527 131.001 11.1306V43.479C131.001 55.7857 120.98 65.7984 108.665 65.7984H53.3806C51.8742 65.7984 50.6533 67.0184 50.6533 68.5237C50.6533 70.029 51.8742 71.249 53.3806 71.249H175.315C187.385 71.249 197.203 81.06 197.203 93.1208C197.203 105.182 187.385 114.993 175.315 114.993H53.3806C51.8742 114.993 50.6533 116.213 50.6533 117.718C50.6533 119.223 51.8742 120.443 53.3806 120.443H189.66C201.729 120.443 211.548 130.254 211.548 142.315C211.548 154.376 201.729 164.187 189.66 164.187H113.506L113.502 169.635H175.317C187.162 169.635 196.836 179.084 197.194 190.834C197.138 191.05 197.106 191.275 197.106 191.507C197.106 203.565 187.287 213.379 175.218 213.379H137.987C130.181 213.379 123.831 219.724 123.831 227.524V257.308C123.831 258.813 125.052 260.033 126.558 260.033C128.064 260.033 129.285 258.813 129.285 257.308V227.524C129.285 222.73 133.189 218.829 137.987 218.829H175.218C190.04 218.829 202.142 206.982 202.546 192.268C202.616 192.026 202.655 191.771 202.655 191.509C202.655 182.531 198.299 174.552 191.588 169.57C205.768 168.577 217 156.735 217 142.32V142.31Z" fill="black"/>
<path d="M171.184 191.502C171.184 189.997 169.963 188.777 168.456 188.777H113.444C113.393 190.004 113.274 191.871 113.003 194.225H168.456C169.963 194.225 171.184 193.005 171.184 191.5V191.502Z" fill="black"/>
<path d="M55.291 125.553L53.3807 123.644L51.4705 125.553C36.4808 140.531 18.9982 143.804 9.90879 144.421H9.86701H0L0.0394588 187.191C0.0394588 187.511 0.0696332 195.155 2.6832 205.368C4.21977 211.368 6.33661 217.022 8.97571 222.174C12.2949 228.652 16.452 234.348 21.3356 239.103C41.7683 259.01 51.2221 261.634 52.2318 261.868L52.8098 262.002L53.39 261.882C53.6964 261.819 56.5398 261.17 61.8876 258.011C68.8602 253.891 76.7798 247.529 85.4282 239.103C90.3095 234.346 94.4689 228.652 97.7881 222.174C100.427 217.022 102.544 211.368 104.081 205.368C106.694 195.155 106.724 187.515 106.724 187.195L106.764 144.423H96.855C87.7679 143.804 70.283 140.534 55.2933 125.555L55.291 125.553ZM101.319 187.188C101.319 187.265 101.26 194.678 98.7955 204.213C97.3517 209.795 95.3765 215.044 92.9231 219.815C89.8801 225.727 86.0897 230.916 81.6541 235.237C71.5852 245.048 64.1646 250.32 59.7104 253.017C56.3773 255.037 54.1421 255.96 53.1045 256.331L52.8864 256.41L52.6705 256.324C51.7188 255.946 49.6531 255.009 46.5056 252.991C42.2836 250.287 35.1415 245.013 25.1097 235.237C20.6741 230.916 16.8837 225.727 13.8407 219.815C11.3873 215.046 9.40976 209.798 7.96835 204.213C5.50334 194.678 5.44531 187.265 5.44531 187.191L5.41281 149.823L10.1595 149.818C19.365 149.211 37.1678 146.033 52.9676 131.597L53.3831 131.219L53.7985 131.597C69.5983 146.035 87.4012 149.211 96.6067 149.818L96.6949 149.823H101.353L101.321 187.188H101.319Z" fill="black"/>
<path d="M86.7025 172.664C83.2371 169.698 78.003 170.102 75.0343 173.564L51.2871 201.26L40.473 191.595C37.0726 188.557 31.8293 188.849 28.7886 192.247C25.748 195.647 26.0381 200.884 29.4408 203.923L46.0646 218.778C47.7149 220.254 49.8016 221.049 51.995 221.049C52.1969 221.049 52.3989 221.042 52.6008 221.028C55.0148 220.868 57.2105 219.769 58.7842 217.934L87.6031 184.324C89.0421 182.647 89.7408 180.511 89.569 178.308C89.3996 176.104 88.3806 174.1 86.7025 172.664ZM83.5574 180.861L54.7386 214.471C54.1049 215.211 53.2206 215.654 52.248 215.717C51.2755 215.78 50.3424 215.459 49.6159 214.81L32.9921 199.954C31.7805 198.871 31.6761 197.006 32.76 195.796C33.844 194.585 35.7101 194.481 36.9218 195.564L49.7644 207.04C50.2983 207.518 51.0062 207.759 51.7165 207.713C52.4314 207.664 53.0975 207.332 53.5618 206.79L79.08 177.03C80.1361 175.796 82.0022 175.652 83.2371 176.709C83.8359 177.222 84.198 177.936 84.2584 178.72C84.3187 179.504 84.0703 180.265 83.5574 180.864V180.861Z" fill="black"/>
</g>
<defs>
<clipPath id="clip0_377_662">
<rect width="217" height="262" fill="white"/>
</clipPath>
</defs>
</svg>
