<svg width="218" height="318" viewBox="0 0 218 318" fill="none" xmlns="http://www.w3.org/2000/svg">
<g clip-path="url(#clip0_285_4448)">
<path d="M64.0498 202.757C69.1607 177.82 130.193 187.93 137.457 168.842" stroke="white" stroke-width="4.8" stroke-linecap="round" stroke-linejoin="round"/>
<path d="M98.3965 107.02C102.029 87.9317 160.173 89.7491 173.799 77.0172" stroke="white" stroke-width="4.8" stroke-linecap="round" stroke-linejoin="round"/>
<path fill-rule="evenodd" clip-rule="evenodd" d="M98.4756 283.012C152.869 283.012 196.951 284.959 196.951 287.372C196.951 289.1 174.176 290.59 141.178 291.295C123.256 291.672 123.236 292.943 122.353 297.581C120.16 309.151 111.139 318 99.9642 318C88.7898 318 79.5407 309.211 77.5857 297.621C76.9902 294.115 78.2406 291.712 60.5958 291.394C25.0084 290.739 0 289.179 0 287.372C0 284.969 44.0922 283.012 98.4756 283.012Z" fill="white"/>
<path fill-rule="evenodd" clip-rule="evenodd" d="M81.4859 292.218C82.1607 304.632 89.6334 311.555 101.691 310.74C112.885 309.985 120.398 299.875 117.659 287.58C116.021 280.231 105.522 266.536 105.581 256.605C106.068 177.512 132.207 84.8232 202.439 11.56C129.111 72.4686 96.3023 163.4 94.4565 257.568C94.2779 266.566 80.8408 280.638 81.4759 292.218H81.4859Z" fill="white"/>
<path fill-rule="evenodd" clip-rule="evenodd" d="M173.332 42.7542C121.598 101.428 98.1281 178.614 96.58 257.608C96.5006 261.431 96.1334 269.158 93.2058 273.836C91.1714 277.073 83.6887 284.77 83.5994 292.099C83.4704 302.189 90.4172 309.38 101.552 308.635C110.593 308.019 115.971 301.037 116.091 292.775C116.19 285.902 107.586 278.106 106.236 275.127C103.695 269.535 103.437 263 103.467 256.585C103.725 214.009 111.297 171.176 125.866 131.163C137.437 99.3825 153.335 69.668 173.322 42.7542H173.332Z" fill="#FF8373"/>
<path fill-rule="evenodd" clip-rule="evenodd" d="M175.595 78.9438C174.533 79.937 172.866 79.8774 171.873 78.8147C170.881 77.7521 170.941 76.0836 172.002 75.0905C180.785 66.8873 167.636 26.6457 184.576 12.3049C171.367 25.2553 186.521 69.1913 175.585 78.9538L175.595 78.9438Z" fill="white"/>
<path d="M137.467 168.832C144.731 149.744 94.7738 126.108 98.406 107.01" stroke="white" stroke-width="4.8" stroke-linecap="round" stroke-linejoin="round"/>
<path fill-rule="evenodd" clip-rule="evenodd" d="M111.942 265.116C120.328 264.222 149.217 259.604 103.11 238.47C82.6863 228.638 59.0672 217.277 61.4589 202.34C61.6872 200.9 63.0368 199.927 64.4659 200.155C65.9048 200.384 66.8774 201.734 66.6491 203.164C64.8827 214.238 86.5963 224.686 105.373 233.723C162.475 260.617 119.465 269.843 111.942 265.116Z" fill="white"/>
<path fill-rule="evenodd" clip-rule="evenodd" d="M149.673 227.715C143.778 226.136 139.571 221.805 137.546 215.539C135.522 221.805 131.314 226.136 125.419 227.715C131.314 229.294 135.522 233.624 137.546 239.89C139.571 233.624 143.778 229.294 149.673 227.715Z" fill="white"/>
<path fill-rule="evenodd" clip-rule="evenodd" d="M165.631 201.367C161.592 200.284 158.704 197.315 157.314 193.025C155.925 197.315 153.047 200.284 148.998 201.367C153.037 202.449 155.925 205.419 157.314 209.709C158.704 205.419 161.592 202.449 165.631 201.367Z" fill="white"/>
<path fill-rule="evenodd" clip-rule="evenodd" d="M156.521 26.2881C150.626 24.7091 146.418 20.379 144.394 14.1124C142.369 20.379 138.161 24.7091 132.267 26.2881C138.161 27.8672 142.369 32.1973 144.394 38.4639C146.418 32.1973 150.626 27.8672 156.521 26.2881Z" fill="white"/>
<path fill-rule="evenodd" clip-rule="evenodd" d="M133.954 51.2653C129.915 50.1828 127.027 47.2134 125.638 42.923C124.248 47.2134 121.37 50.1828 117.321 51.2653C121.36 52.3478 124.248 55.3173 125.638 59.6076C127.027 55.3173 129.915 52.3478 133.954 51.2653Z" fill="white"/>
<path fill-rule="evenodd" clip-rule="evenodd" d="M216.928 28.5922C212.889 27.5097 210.002 24.5402 208.612 20.2499C207.223 24.5402 204.335 27.5097 200.296 28.5922C204.335 29.6747 207.223 32.6442 208.612 36.9345C210.002 32.6442 212.879 29.6747 216.928 28.5922Z" fill="white"/>
<path fill-rule="evenodd" clip-rule="evenodd" d="M124.208 29.9329C121.231 29.1384 119.098 26.9436 118.075 23.7755C117.053 26.9436 114.92 29.1384 111.942 29.9329C114.92 30.7274 117.053 32.9222 118.075 36.0903C119.098 32.9222 121.231 30.7274 124.208 29.9329Z" fill="white"/>
<path fill-rule="evenodd" clip-rule="evenodd" d="M217.999 6.1574C215.022 5.3629 212.889 3.16808 211.866 0C210.844 3.16808 208.711 5.3629 205.733 6.1574C208.711 6.9519 210.844 9.14672 211.866 12.3148C212.889 9.14672 215.022 6.9519 217.999 6.1574Z" fill="white"/>
<path fill-rule="evenodd" clip-rule="evenodd" d="M141.754 200.761C138.777 199.967 136.643 197.772 135.621 194.604C134.599 197.772 132.465 199.967 129.488 200.761C132.465 201.556 134.599 203.75 135.621 206.918C136.643 203.75 138.777 201.556 141.754 200.761Z" fill="white"/>
<path fill-rule="evenodd" clip-rule="evenodd" d="M90.4672 135.324C87.49 134.529 85.3564 132.334 84.3342 129.166C83.312 132.334 81.1784 134.529 78.2012 135.324C81.1784 136.118 83.312 138.313 84.3342 141.481C85.3564 138.313 87.49 136.118 90.4672 135.324Z" fill="white"/>
<path fill-rule="evenodd" clip-rule="evenodd" d="M84.0063 248.044C81.0291 247.249 78.8954 245.055 77.8733 241.887C76.8511 245.055 74.7174 247.249 71.7402 248.044C74.7174 248.838 76.8511 251.033 77.8733 254.201C78.8954 251.033 81.0291 248.838 84.0063 248.044Z" fill="white"/>
</g>
<defs>
<clipPath id="clip0_285_4448">
<rect width="218" height="318" fill="white"/>
</clipPath>
</defs>
</svg>
