<svg width="218" height="318" viewBox="0 0 218 318" fill="none" xmlns="http://www.w3.org/2000/svg">
<g clip-path="url(#clip0_286_4629)">
<path d="M64.0498 202.757C69.1607 177.82 130.193 187.93 137.457 168.842" stroke="black" stroke-width="4.8" stroke-linecap="round" stroke-linejoin="round"/>
<path d="M98.3965 107.02C102.029 87.9316 160.173 89.749 173.799 77.0171" stroke="black" stroke-width="4.8" stroke-linecap="round" stroke-linejoin="round"/>
<path fill-rule="evenodd" clip-rule="evenodd" d="M98.4756 283.012C152.869 283.012 196.951 284.959 196.951 287.372C196.951 289.1 174.176 290.59 141.178 291.295C123.256 291.672 123.236 292.944 122.353 297.581C120.16 309.151 111.139 318 99.9642 318C88.7898 318 79.5407 309.211 77.5857 297.621C76.9902 294.115 78.2406 291.712 60.5958 291.394C25.0084 290.739 0 289.18 0 287.372C0 284.969 44.0922 283.012 98.4756 283.012Z" fill="black"/>
<path fill-rule="evenodd" clip-rule="evenodd" d="M81.4859 292.218C82.1607 304.632 89.6334 311.555 101.691 310.74C112.885 309.985 120.398 299.875 117.659 287.58C116.021 280.231 105.522 266.536 105.581 256.605C106.068 177.512 132.207 84.8232 202.439 11.5601C129.111 72.4687 96.3023 163.4 94.4565 257.568C94.2779 266.566 80.8408 280.638 81.4759 292.218H81.4859Z" fill="black"/>
<path fill-rule="evenodd" clip-rule="evenodd" d="M173.332 42.7544C121.598 101.428 98.1281 178.615 96.58 257.608C96.5006 261.432 96.1334 269.158 93.2058 273.836C91.1714 277.073 83.6887 284.77 83.5994 292.099C83.4704 302.19 90.4172 309.38 101.552 308.635C110.593 308.019 115.971 301.038 116.091 292.775C116.19 285.902 107.586 278.106 106.236 275.127C103.695 269.535 103.437 263.001 103.467 256.585C103.725 214.01 111.297 171.176 125.866 131.163C137.437 99.3826 153.335 69.6682 173.322 42.7544H173.332Z" fill="#FFD7CE"/>
<path fill-rule="evenodd" clip-rule="evenodd" d="M175.595 78.9437C174.533 79.9368 172.866 79.8772 171.873 78.8146C170.881 77.7519 170.941 76.0835 172.002 75.0903C180.785 66.8871 167.636 26.6455 184.576 12.3047C171.367 25.2551 186.521 69.1911 175.585 78.9536L175.595 78.9437Z" fill="black"/>
<path d="M137.467 168.832C144.731 149.744 94.7738 126.108 98.406 107.01" stroke="black" stroke-width="4.8" stroke-linecap="round" stroke-linejoin="round"/>
<path fill-rule="evenodd" clip-rule="evenodd" d="M111.942 265.116C120.328 264.222 149.217 259.604 103.11 238.47C82.6863 228.638 59.0672 217.277 61.4589 202.34C61.6872 200.9 63.0368 199.927 64.4659 200.155C65.9048 200.384 66.8774 201.734 66.6491 203.164C64.8827 214.238 86.5963 224.686 105.373 233.723C162.475 260.617 119.465 269.843 111.942 265.116Z" fill="black"/>
<path fill-rule="evenodd" clip-rule="evenodd" d="M149.673 227.715C143.778 226.136 139.571 221.806 137.546 215.539C135.522 221.806 131.314 226.136 125.419 227.715C131.314 229.294 135.522 233.624 137.546 239.891C139.571 233.624 143.778 229.294 149.673 227.715Z" fill="black"/>
<path fill-rule="evenodd" clip-rule="evenodd" d="M165.631 201.367C161.592 200.284 158.704 197.315 157.314 193.024C155.925 197.315 153.047 200.284 148.998 201.367C153.037 202.449 155.925 205.419 157.314 209.709C158.704 205.419 161.592 202.449 165.631 201.367Z" fill="black"/>
<path fill-rule="evenodd" clip-rule="evenodd" d="M156.521 26.2881C150.626 24.709 146.418 20.379 144.394 14.1123C142.369 20.379 138.161 24.709 132.267 26.2881C138.161 27.8671 142.369 32.1972 144.394 38.4638C146.418 32.1972 150.626 27.8671 156.521 26.2881Z" fill="black"/>
<path fill-rule="evenodd" clip-rule="evenodd" d="M133.954 51.2651C129.915 50.1826 127.027 47.2132 125.638 42.9229C124.248 47.2132 121.37 50.1826 117.321 51.2651C121.36 52.3476 124.248 55.3171 125.638 59.6074C127.027 55.3171 129.915 52.3476 133.954 51.2651Z" fill="black"/>
<path fill-rule="evenodd" clip-rule="evenodd" d="M216.928 28.5923C212.889 27.5098 210.002 24.5403 208.612 20.25C207.223 24.5403 204.335 27.5098 200.296 28.5923C204.335 29.6748 207.223 32.6443 208.612 36.9346C210.002 32.6443 212.879 29.6748 216.928 28.5923Z" fill="black"/>
<path fill-rule="evenodd" clip-rule="evenodd" d="M124.208 29.9328C121.231 29.1383 119.098 26.9435 118.075 23.7754C117.053 26.9435 114.92 29.1383 111.942 29.9328C114.92 30.7273 117.053 32.9221 118.075 36.0902C119.098 32.9221 121.231 30.7273 124.208 29.9328Z" fill="black"/>
<path fill-rule="evenodd" clip-rule="evenodd" d="M217.999 6.1574C215.022 5.3629 212.889 3.16808 211.866 0C210.844 3.16808 208.711 5.3629 205.733 6.1574C208.711 6.9519 210.844 9.14672 211.866 12.3148C212.889 9.14672 215.022 6.9519 217.999 6.1574Z" fill="black"/>
<path fill-rule="evenodd" clip-rule="evenodd" d="M141.754 200.761C138.777 199.966 136.643 197.772 135.621 194.604C134.599 197.772 132.465 199.966 129.488 200.761C132.465 201.555 134.599 203.75 135.621 206.918C136.643 203.75 138.777 201.555 141.754 200.761Z" fill="black"/>
<path fill-rule="evenodd" clip-rule="evenodd" d="M90.4672 135.324C87.49 134.529 85.3564 132.335 84.3342 129.167C83.312 132.335 81.1784 134.529 78.2012 135.324C81.1784 136.118 83.312 138.313 84.3342 141.481C85.3564 138.313 87.49 136.118 90.4672 135.324Z" fill="black"/>
<path fill-rule="evenodd" clip-rule="evenodd" d="M84.0063 248.044C81.0291 247.25 78.8954 245.055 77.8733 241.887C76.8511 245.055 74.7174 247.25 71.7402 248.044C74.7174 248.839 76.8511 251.033 77.8733 254.202C78.8954 251.033 81.0291 248.839 84.0063 248.044Z" fill="black"/>
</g>
<defs>
<clipPath id="clip0_286_4629">
<rect width="218" height="318" fill="white"/>
</clipPath>
</defs>
</svg>
