<svg width="215" height="147" viewBox="0 0 215 147" fill="none" xmlns="http://www.w3.org/2000/svg">
<path d="M127.824 146C126.28 146 125.119 145.082 123.855 143.718C120.066 139.6 116.531 134.959 113.341 129.936C112.971 129.35 112.614 128.764 112.269 128.164C111.95 127.616 111.618 127.081 111.287 126.545L111.121 126.265C110.84 125.793 110.521 125.258 109.794 124.811L109.717 124.76L109.641 124.811C108.926 125.398 108.211 125.959 107.497 126.532C105.761 127.922 104.115 129.248 102.482 130.663C101.512 131.517 100.568 131.9 99.4197 131.9C99.139 131.9 98.8328 131.874 98.5137 131.836C95.7576 131.428 92.8227 130.956 90.0155 130.166C86.7106 129.248 83.3164 128.458 80.0243 127.693C76.2601 126.826 72.381 125.921 68.604 124.811C47.0905 118.501 29.456 106.784 16.1855 90.007C8.4911 80.2414 3.61673 69.0606 1.74099 56.7834C0.26082 47.1198 0.924346 38.6546 3.78261 30.916C5.84975 25.3065 9.18014 20.3982 13.9907 15.9361C16.3769 13.7178 19.6179 10.913 23.548 8.9497C27.8099 6.80789 32.4291 5.72424 37.2652 5.72424C38.3498 5.72424 39.4599 5.77524 40.57 5.88998C42.4585 6.06846 44.3598 6.22145 46.2611 6.36168L47.5115 6.45093C49.9487 6.64216 52.3731 7.41984 54.7338 8.75847C63.3979 13.7178 69.6504 18.6771 74.4354 24.3886C75.2648 25.383 76.0559 26.4284 76.8343 27.4356C77.2043 27.92 77.5744 28.4045 77.9444 28.8762L78.0465 29.0164C78.2634 29.3096 78.4931 29.6284 79.0418 29.7941C79.6926 29.5774 79.9605 29.0419 80.2157 28.5192C80.2795 28.3917 80.3433 28.2515 80.4199 28.124C83.9544 21.6858 88.5736 15.8213 94.137 10.6708C95.7576 9.16643 97.7226 8.10828 99.6111 7.08837C104.166 4.62784 108.071 2.97049 111.988 1.83584C116.199 0.611946 120.346 0 124.289 0C125.501 0 126.714 0.0637443 127.9 0.178484C138.057 1.16015 145.56 6.34893 150.179 15.6174C152.642 20.5512 153.778 25.9184 154.722 30.9925C155.603 35.6968 155.13 40.3629 154.467 45.5262C154.467 45.5772 154.454 45.6154 154.441 45.6664C153.893 48.3564 153.689 51.1739 155.692 54.2719C158.244 58.2241 159.303 62.9156 160.324 67.467L160.656 68.9076C160.77 69.4048 160.885 69.902 161.026 70.3992C161.064 70.5267 161.153 70.616 161.242 70.7307C161.281 70.7817 161.332 70.8327 161.383 70.8964C161.587 70.9857 161.727 71.0112 161.868 71.0112C162.34 71.0112 162.735 70.7817 163.131 70.5522C163.271 70.4757 163.399 70.3992 163.539 70.3227C169.141 67.569 175.126 66.1666 181.314 66.1666C181.939 66.1666 182.565 66.1794 183.19 66.2049C188.473 66.4343 194.087 66.9953 199.331 69.4813C205.763 72.5283 210.331 77.4621 212.908 84.1425C213.61 85.9656 214.184 87.8779 214.605 89.8285C215.167 92.4038 215.128 94.7113 214.49 96.8914C213.942 98.7782 213.317 100.818 212.525 103.279C211.492 106.517 209.603 109.22 208.085 111.208C203.351 117.392 197.494 122.682 190.157 127.399C182.845 132.091 176.491 135.571 170.175 138.363C165.249 140.531 160.375 141.971 155.271 142.762C151.494 143.335 147.678 144.062 143.978 144.751L140.622 145.375C139.244 145.63 137.84 145.656 136.475 145.681H136.194C135.735 145.694 135.276 145.694 134.816 145.694H133.489C131.894 145.694 130.197 145.72 128.487 145.987C128.27 146.025 128.066 146.038 127.862 146.038L127.824 146ZM112.435 121.726L112.486 121.815C117.45 130.727 121.852 137.089 126.752 142.43C127.02 142.481 127.186 142.507 127.339 142.52C127.543 142.545 127.734 142.558 127.926 142.558C128.028 142.558 128.13 142.558 128.219 142.532C130.223 142.214 132.277 142.214 134.268 142.201C135.454 142.201 136.679 142.201 137.879 142.124C138.848 142.073 139.984 141.984 141.094 141.793L141.566 141.716C146.619 140.837 151.838 139.944 156.955 138.963C157.249 138.912 157.555 138.861 157.861 138.81C159.022 138.618 160.222 138.427 161.294 137.777C161.932 136.757 162.2 135.661 162.467 134.603C162.621 134.003 162.774 133.391 162.978 132.805C163.284 131.951 163.756 131.53 164.42 131.53C164.496 131.53 164.573 131.53 164.649 131.543C165.402 131.645 165.747 132.193 165.747 133.277C165.747 133.608 165.696 133.952 165.632 134.297C165.543 134.832 165.441 135.393 165.581 135.967L165.606 136.081H165.721C167.508 135.814 167.546 135.801 169.205 134.717C170.506 128.878 170.8 123.983 170.047 121.866L170.009 121.764H169.907C168.924 121.905 167.993 122.274 167.087 122.631C166.551 122.848 166.015 123.052 165.466 123.218C159.558 124.964 153.586 126.278 146.938 127.705C143.442 128.445 139.729 128.802 135.25 128.802C134.804 128.802 134.344 128.802 133.898 128.802C132.354 128.776 131.397 128.279 130.72 127.119C130.401 126.571 130.044 126.023 129.687 125.487C129.317 124.926 128.934 124.352 128.602 123.766C127.492 121.841 126.395 119.916 125.31 117.991C124.57 116.69 123.83 115.377 123.09 114.077C123.026 113.962 122.975 113.847 122.911 113.733C122.681 113.261 122.426 112.725 121.673 112.432L121.597 112.407L112.461 121.713L112.435 121.726ZM177.001 118.743C175.866 118.858 174.845 119.329 173.569 120.324C173.709 123.753 173.454 127.132 173.199 130.395L173.033 132.614H173.148C173.288 132.639 173.428 132.652 173.556 132.652C174.577 132.652 175.279 132.18 175.904 131.76L176.261 131.517C177.41 127.909 177.831 121.42 177.116 118.832L177.091 118.73H176.988L177.001 118.743ZM174.768 83.5051C178.992 83.5051 182.756 84.1298 186.252 85.4301C189.366 86.5775 191.829 88.4516 193.577 90.9887C195.797 94.2269 196.601 97.0826 196.103 99.9639C195.274 104.77 192.964 108.569 189.251 111.247C187.362 112.611 185.244 113.975 182.59 115.543C182.437 115.632 182.271 115.721 182.105 115.811C181.531 116.104 180.931 116.423 180.574 117.098V118.858C180.549 120.171 180.549 121.497 180.574 122.823C180.574 123.575 180.536 124.34 180.485 125.092C180.408 126.252 180.319 127.45 180.485 128.598C180.727 128.789 180.906 128.827 181.072 128.827C181.34 128.827 181.531 128.713 181.71 128.611C182.22 128.317 182.654 128.024 183.126 127.705L183.726 127.31L183.943 126.137C184.045 125.398 184.147 124.735 184.223 124.059C184.262 123.702 184.287 123.345 184.326 123.001C184.364 122.453 184.415 121.905 184.517 121.356C184.657 120.604 185.155 120.171 185.87 120.171C186.788 120.209 187.107 120.783 187.235 121.254C187.324 121.611 187.35 121.994 187.362 122.364C187.362 122.555 187.388 122.759 187.401 122.95C187.401 123.052 187.401 123.167 187.401 123.282C187.388 123.651 187.362 124.11 187.937 124.454C188.804 124.199 189.544 123.702 190.297 122.937L190.399 122.491C190.399 122.491 190.642 121.076 190.693 120.77C190.808 120.043 190.935 119.278 191.114 118.564C191.28 117.927 191.777 117.545 192.454 117.545C192.964 117.545 193.347 117.812 193.717 118.399C193.806 118.526 193.819 118.705 193.845 118.896C193.883 119.266 193.947 119.725 194.559 119.852C195.299 119.635 195.797 119.189 196.295 118.756C196.422 118.641 196.55 118.526 196.69 118.424C199.242 116.321 201.411 113.796 203.504 111.349L204.55 110.137C207.23 107.039 208.812 103.419 210.127 99.9639C211.951 95.1703 211.811 90.3257 209.705 85.1752C207.319 79.3617 203.351 75.1163 197.915 72.5538C193.538 70.4885 188.753 70.004 184.606 69.7108C183.547 69.6343 182.475 69.5961 181.429 69.5961C174.181 69.5961 167.291 71.4319 160.923 75.0653C160.464 75.333 159.941 75.6263 159.392 75.8047C159.201 75.8685 159.022 75.894 158.844 75.894C158.499 75.894 158.193 75.7793 157.963 75.5498C157.708 75.282 157.58 74.9123 157.58 74.4534C157.58 74.1601 157.631 73.8797 157.682 73.5992C157.746 73.153 157.823 72.7068 157.759 72.2223C157.198 68.2957 156.355 63.7061 154.378 59.5244L154.059 58.836C152.081 54.6161 150.026 50.256 146.058 47.2728C145.969 47.209 145.892 47.0943 145.816 46.9923C144.667 45.4497 143.161 44.57 141.822 43.9071C139.589 42.7979 137.19 42.2242 134.944 41.778C132.941 41.3828 130.924 41.1788 128.959 41.1788C127.211 41.1788 125.476 41.3318 123.792 41.6505C116.697 42.9764 110.993 46.7756 106.833 52.9588C101.959 60.1874 99.5346 68.2319 99.6111 76.8757C99.6622 83.3393 100.364 89.8158 101.678 96.1009L101.793 96.6746C102.01 97.7838 102.227 98.9312 103.005 100.079L103.082 100.193L103.184 100.104C106.157 97.7965 108.275 94.8006 110.317 91.9193C111.019 90.9377 111.708 89.956 112.435 89.0126C111.772 85.7616 111.082 82.3832 110.687 78.9665C110.279 75.4095 110.534 72.2223 111.491 69.2136C113.775 61.9722 118.011 57.4719 124.468 55.4703C126.28 54.9094 127.9 54.6289 129.419 54.6289C130.822 54.6289 132.162 54.8711 133.4 55.3428C139.971 57.8798 144.68 62.9666 147.385 70.4375C149.401 75.996 150.715 82.0007 151.302 88.2859C151.366 89.0126 151.43 89.701 152.042 90.1727C152.834 90.1472 153.408 89.7903 153.956 89.446C154.173 89.3058 154.39 89.1783 154.607 89.0508C159.022 86.7305 164.33 84.2827 170.187 83.7345C171.808 83.5816 173.314 83.5051 174.794 83.5051H174.768ZM83.0485 122.198C83.1378 122.198 83.2271 122.198 83.3164 122.211C84.0565 122.313 84.3245 122.874 84.5031 123.46C84.5542 123.626 84.5797 123.817 84.6052 123.995C84.669 124.467 84.7328 125.003 85.2815 125.449L85.4857 125.525C85.6643 125.589 85.894 125.666 86.1237 125.717C86.8638 125.882 87.6294 126.023 88.3822 126.163C90.041 126.481 91.7636 126.8 93.3331 127.399C94.6474 127.897 95.9745 128.075 97.276 128.241C97.9906 128.33 98.6924 128.432 99.407 128.572L99.9939 128.19C100.313 127.948 100.632 127.731 100.925 127.489C104.307 124.85 107.344 121.93 110.674 118.666C113.826 115.581 116.863 112.292 119.798 109.118C121.775 106.976 123.817 104.77 125.871 102.641C128.207 100.219 130.082 97.3631 131.894 94.6093L132.787 93.2579C137.202 86.6158 140.239 80.8278 142.345 75.0526L142.434 74.8231C143.991 70.565 144.029 70.4885 141.579 66.4853C139.308 62.7754 136.399 60.2639 132.673 58.8233L132.583 58.785L132.532 58.8615C131.129 60.8121 130.274 62.7882 129.368 64.9682C127.096 70.4502 124.404 75.9832 121.112 81.886C119.555 84.6652 117.424 88.2731 114.655 91.5496C113.673 92.7097 112.78 93.9846 111.925 95.2213L111.555 95.744C110.572 97.1463 109.577 98.4212 108.505 99.6451C106.425 102.029 104.103 104.247 101.857 106.402C101.155 107.078 100.453 107.753 99.7515 108.429C99.2283 108.939 98.6031 109.373 98.0033 109.78C97.7992 109.921 97.595 110.061 97.3909 110.201C96.1276 111.106 94.775 111.565 93.3459 111.565C92.861 111.565 92.3634 111.514 91.853 111.412C91.1384 111.272 90.4238 111.145 89.7093 111.017C89.1989 110.928 88.7012 110.839 88.1908 110.749C86.9403 110.507 85.6643 110.367 84.4266 110.239C83.074 110.086 81.6831 109.946 80.3306 109.666C76.6684 108.914 73.3125 107.626 69.3058 106.032C69.1144 105.956 68.923 105.867 68.7316 105.777C68.1447 105.497 67.5449 105.216 66.7921 105.216C66.639 105.216 66.4858 105.216 66.32 105.255H66.2434L66.2179 105.344C65.1333 109.5 64.8653 114.077 65.3757 119.725C66.3965 120.553 67.2642 120.885 68.2595 120.885C68.3999 120.885 68.553 120.885 68.6933 120.859H68.7699L68.7954 120.77C69.1527 119.737 69.0379 118.743 68.9103 117.787C68.872 117.519 68.8465 117.251 68.8209 116.984C68.6806 115.288 68.7827 114.013 69.1272 112.853C69.2675 112.394 69.5865 111.859 70.3266 111.859H70.4542C71.1305 111.922 71.5516 112.33 71.6665 113.019C71.7303 113.427 71.743 113.847 71.7558 114.255C71.7558 114.498 71.7685 114.74 71.7941 114.982L72.33 121.866C73.0063 122.364 73.6825 122.759 74.3844 122.759C74.6906 122.759 74.9841 122.682 75.2776 122.542C75.52 121.764 75.4435 121.152 75.3541 120.566C75.3286 120.4 75.3031 120.235 75.2903 120.069L75.2648 119.801C75.2138 119.329 75.1627 118.832 75.1882 118.36C75.2138 117.8 75.4435 117.086 76.3749 116.856C76.4515 116.843 76.5281 116.831 76.5919 116.831C77.1405 116.831 77.6892 117.277 77.9317 117.914C78.0338 118.182 78.072 118.475 78.1231 118.781C78.1486 118.972 78.1869 119.164 78.2252 119.355C78.3655 119.954 78.4293 120.566 78.4804 121.178C78.5569 122.019 78.6462 122.899 78.9525 123.702C79.5012 124.136 79.9988 124.327 80.4965 124.327C80.7517 124.327 81.0196 124.276 81.2876 124.187L81.479 123.804L81.7087 123.218C81.9894 122.529 82.4105 122.198 83.023 122.198H83.0485ZM145.203 77.3219C140.52 88.6429 133.744 99.1097 124.481 109.322L124.417 109.385L124.455 109.462C127.326 115.288 130.121 120.451 132.992 125.245C134.191 125.398 135.327 125.449 136.437 125.449C138.529 125.449 140.648 125.296 142.919 124.964C145.535 124.582 148.163 124.008 150.69 123.447C151.826 123.192 152.948 122.95 154.084 122.708C162.314 121.012 170.315 118.169 177.869 114.268C181.531 112.381 184.708 110.418 187.592 108.289C190.208 106.351 191.854 103.623 192.773 99.7089C192.939 98.9822 192.913 98.179 192.683 97.1973C191.675 92.952 189.098 90.0707 185.027 88.6301C181.825 87.4955 178.392 86.909 174.832 86.909C172.165 86.909 169.307 87.2405 166.372 87.8779C161.957 88.8468 157.555 90.7337 152.502 93.8444C152.336 93.9464 152.17 94.0611 152.004 94.1631C151.685 94.3671 151.379 94.5838 151.034 94.7496C150.69 94.9153 150.358 95.0045 150.052 95.0045C149.337 95.0045 148.776 94.5328 148.47 93.6659C148.329 93.2707 148.291 92.8245 148.278 92.493C148.074 88.4134 147.334 84.3975 146.67 80.9553L146.607 80.5856C146.441 79.6804 146.249 78.6605 145.433 77.3474L145.305 77.1434L145.216 77.3729L145.203 77.3219ZM58.8043 101.608C57.4772 105.318 57.3751 113.427 58.6256 117.392L58.8043 117.532C59.6592 117.991 60.5396 118.475 61.7774 118.475H61.905L61.9815 118.348C61.9943 117.583 62.007 116.818 62.007 116.066C62.0198 114.396 62.0326 112.662 62.1346 110.979C62.2367 109.232 62.4281 107.46 62.6195 105.739C62.7089 104.961 62.7854 104.184 62.862 103.393V103.317C62.862 103.317 62.4664 103.075 62.326 102.985C62.007 102.794 61.7263 102.616 61.4201 102.488C61.2159 102.399 61.0118 102.297 60.8076 102.182C60.2589 101.902 59.6975 101.596 58.9446 101.532H58.8425L58.8043 101.621V101.608ZM48.3665 104.324C48.4686 104.324 48.5706 104.324 48.6727 104.349C49.3745 104.464 49.7573 104.885 49.8084 105.561C49.8466 106.071 49.8339 106.581 49.8084 107.09V107.792C49.8084 108.238 49.7828 108.671 49.7701 109.118C49.7318 110.622 49.6808 112.177 50.0891 113.631C52.3221 115.148 52.6666 115.275 54.6955 115.492H54.8486V115.352C54.4786 108.837 54.6189 103.954 55.308 99.5176C54.6317 98.6125 53.9426 98.179 53.2791 97.771L52.9091 97.5416C49.4511 95.3233 46.1207 92.8245 43.0072 90.0962C35.6191 83.6581 30.2981 77.0796 26.7253 70.0168C23.2673 63.1706 21.8382 56.6177 22.3613 49.9883C22.7314 45.3477 24.2371 41.1788 26.8274 37.5964C30.464 32.5861 34.879 29.9088 40.3021 29.4371C41.2846 29.3479 42.2544 29.3096 43.1986 29.3096C45.6103 29.3096 47.9326 29.5901 50.1274 30.1511C55.8311 31.6172 61.3052 34.6387 66.8686 39.394C70.9008 42.8362 74.4864 46.8903 77.8424 51.7986C78.4804 52.7293 79.1566 53.5835 79.884 54.5014C80.203 54.9094 80.5347 55.3301 80.8665 55.7508L80.9431 55.84L81.0451 55.7763C81.7214 55.3173 81.9128 54.7564 82.0915 54.2082L82.1808 53.9277C82.9974 51.6456 83.8268 49.8736 84.8094 48.3564C89.7731 40.6561 95.4003 34.4347 102.036 29.3606C107.471 25.1918 113.724 23.0754 121.125 22.9097H121.559C128.487 22.9097 134 26.9001 136.284 33.5933C136.743 34.9319 137.024 36.3215 137.292 37.6601L137.47 38.5398C138.07 38.8203 138.581 39.0115 139.078 39.19C140.188 39.5852 141.26 39.9677 142.306 40.4012C143.85 41.0386 145.343 41.9183 146.747 43.0274C147.232 43.4099 147.653 43.8688 148.074 44.3151C148.738 45.0162 149.414 45.7429 150.307 46.1764L150.384 46.2146C150.384 46.2146 150.613 46.0234 150.664 45.9852C150.766 45.9087 150.817 45.8704 150.843 45.8067C150.971 45.5134 151.073 45.2967 151.111 45.08C152.732 35.7096 151.404 26.3264 147.168 17.1982C144.004 10.3776 138.861 6.04296 131.869 4.29637C129.572 3.72267 127.173 3.44219 124.557 3.44219C122.949 3.44219 121.291 3.54418 119.479 3.76092C112.626 4.57684 106.042 7.01188 99.3431 11.2063C97.1612 12.5704 94.9409 13.96 93.2311 15.9106C89.1861 20.5129 86.0216 24.9368 83.5589 29.4244C83.2271 30.0236 82.9081 30.6355 82.5764 31.2347C81.9766 32.3566 81.3514 33.5168 80.7006 34.6387C80.1775 35.5311 79.9478 35.7733 79.3736 35.7733C79.029 35.7733 78.5697 35.6841 77.9062 35.5438C75.9794 31.2857 72.968 27.7033 70.2884 24.771C64.9291 18.9066 58.3066 14.6994 53.1515 11.7035C51.7351 10.8748 50.1018 10.3011 47.9964 9.88037C46.6183 9.5999 45.2147 9.5489 43.8494 9.4979C42.8541 9.45966 41.8205 9.42141 40.8125 9.29392C39.6003 9.14094 38.3881 9.06444 37.2014 9.06444C33.0033 9.06444 28.92 10.0334 25.0665 11.9457C21.8892 13.5265 19.2606 15.7448 16.6193 18.0651C9.25671 24.5543 5.21175 33.0068 4.59926 43.2187C3.82089 56.1842 6.80676 68.5124 13.4675 79.8589C17.0276 85.9146 21.5192 91.5623 27.223 97.1081C27.4271 97.3121 27.6568 97.4778 27.8737 97.6308L28.1289 97.822C29.2263 97.5288 29.8005 97.3886 30.2088 97.3886C31.0127 97.3886 31.2552 97.8858 31.3955 99.7854C31.3955 99.8491 31.3955 99.9128 31.3955 99.9766C31.3955 100.079 31.3955 100.181 31.3955 100.295C31.6124 101.366 32.2377 101.94 33.2457 102.004C33.7306 101.443 33.7944 100.907 33.8582 100.385C33.9093 99.9638 33.9603 99.5814 34.1517 99.2372C34.509 98.6507 34.8918 98.383 35.415 98.383C35.4788 98.383 35.5553 98.383 35.6319 98.3957C36.3209 98.485 36.6016 98.9949 36.7165 99.4156C36.8696 99.9639 36.8696 100.576 36.8441 101.099C36.8313 101.557 36.7803 102.004 36.742 102.463C36.691 102.998 36.6399 103.534 36.6272 104.069C36.6016 105.484 37.0865 105.943 38.8985 106.198H39.0005L39.0388 106.122C39.3068 105.42 39.3323 104.694 39.3451 103.992C39.3451 103.483 39.3706 102.947 39.4854 102.45C39.7279 101.392 40.1234 100.92 40.7614 100.92C41.1825 100.92 41.7184 101.111 42.3947 101.519C42.5479 102.743 42.4458 104.056 42.3437 105.433C42.2544 106.606 42.1523 107.83 42.2799 109.041C42.5223 109.283 42.7265 109.436 42.9179 109.589C43.9387 110.392 44.9978 111.234 46.6311 111.387H46.7715V109.959C46.7715 109.003 46.7715 108.098 46.7715 107.18C46.7715 106.479 46.7842 105.854 47.0522 105.28C47.3584 104.617 47.7923 104.298 48.392 104.298L48.3665 104.324ZM42.6882 32.8156C42.1651 32.8156 41.6419 32.8283 41.1187 32.8538C38.1839 33.0068 35.6829 33.8992 33.4754 35.6076C27.9503 39.8912 25.3217 46.0361 25.6407 53.8767C25.8576 59.091 27.4016 64.2798 30.3619 69.7235C33.9093 76.2382 39.0261 82.2812 46.0186 88.2221C52.5901 93.8061 59.8761 98.332 67.6853 101.685L68.2212 101.914C72.011 103.546 75.9283 105.229 80.0626 106.134C81.9894 106.555 83.9672 106.797 85.894 107.027C88.2546 107.307 90.6918 107.613 93.0269 108.251C93.18 108.289 93.3331 108.314 93.4863 108.314C94.0477 108.314 94.5453 108.047 95.0047 107.753C96.9825 106.491 98.5775 105.267 99.8663 103.992C100.045 103.126 99.8918 102.603 99.7642 102.144L99.6749 101.838L99.2538 100.193C98.7945 98.4467 98.3351 96.6491 97.9651 94.8643C97.0081 90.1217 96.6508 85.2134 96.319 80.4708L96.2807 79.8589C96.051 76.6589 96.2169 73.2677 96.7656 69.5068C97.6971 63.1069 100.147 56.8854 104.052 51.021C107.624 45.6409 112.588 41.8035 119.249 39.292C122.669 38.0044 126.241 37.8259 129.278 37.8259C129.674 37.8259 130.057 37.8259 130.452 37.8259C130.682 37.8259 130.924 37.8514 131.167 37.8641C131.435 37.8896 131.703 37.9024 131.984 37.9024C132.456 37.9024 132.826 37.8386 133.17 37.6984C133.272 37.4944 133.285 37.3924 133.311 37.3032C133.349 37.1119 133.387 36.9462 133.374 36.7805C133.106 31.4769 128.309 26.7471 122.873 26.4539C122.273 26.4156 121.686 26.4029 121.099 26.4029C114.515 26.4029 108.543 28.481 103.375 32.5988C98.6796 36.3343 94.2391 41.0258 89.4158 47.3748C87.0934 50.4218 85.4984 53.4305 84.5414 56.5667C84.2479 57.5356 83.9034 58.479 83.5334 59.346C83.1123 60.3276 82.436 60.9013 81.6704 60.9013C80.9941 60.9013 80.3306 60.4679 79.8074 59.6774C77.5233 56.2735 75.0351 53.1755 72.9042 50.5747C67.6853 44.2386 62.6833 39.8275 57.1327 36.6912C52.5135 34.0905 47.805 32.8156 42.7265 32.8156H42.6882ZM127.505 58.2878C127.109 58.3261 126.675 58.3643 126.267 58.479C120.129 60.0854 116.263 64.216 114.451 71.0877C113.354 75.2565 113.953 79.4764 114.783 83.4031C114.847 83.6963 114.936 84.1425 115.689 84.1425H115.765L115.868 84.0788C121.061 75.9577 124.978 66.7913 128.436 58.7213L128.487 58.5938L128.36 58.5555C128.181 58.4918 128.041 58.4408 127.939 58.4026C127.773 58.3388 127.658 58.3006 127.556 58.3006H127.518L127.505 58.2878ZM164.752 128.725C164.062 128.725 163.578 128.254 163.539 127.54C163.514 127.17 163.629 126.826 163.846 126.583C164.062 126.354 164.343 126.227 164.688 126.214C165.441 126.214 165.977 126.711 166.028 127.399C166.053 127.731 165.938 128.037 165.721 128.292C165.492 128.547 165.185 128.7 164.841 128.725H164.752ZM82.436 118.641C81.798 118.641 81.16 117.978 81.1472 117.341C81.1472 117.035 81.2748 116.716 81.5045 116.474C81.7469 116.219 82.0787 116.066 82.4232 116.066C82.7678 116.066 83.074 116.193 83.3037 116.423C83.5461 116.665 83.6737 116.984 83.6737 117.341C83.6737 118.016 83.0868 118.654 82.4615 118.654H82.4488L82.436 118.641ZM48.6727 101.761C48.0602 101.761 47.4222 101.188 47.3329 100.563C47.2819 100.206 47.4095 99.8364 47.6774 99.5304C47.9326 99.2372 48.2772 99.0714 48.6217 99.0714C49.2597 99.0714 49.8466 99.6961 49.8849 100.372C49.9104 101.086 49.3873 101.723 48.7365 101.761H48.6855H48.6727ZM201.411 84.4612C200.799 84.4612 200.186 83.8875 200.11 83.2246C200.033 82.5616 200.556 81.886 201.233 81.784C201.284 81.784 201.335 81.784 201.386 81.784C201.718 81.784 202.062 81.937 202.33 82.2047C202.585 82.4597 202.726 82.7911 202.726 83.1099C202.726 83.7473 202.088 84.4357 201.462 84.474H201.399L201.411 84.4612ZM197.06 79.9991C196.792 79.9991 196.537 79.9099 196.269 79.7314C194.521 78.5458 192.811 77.6533 191.037 77.0031C190.31 76.7354 190.144 75.9322 190.361 75.3075C190.591 74.6319 191.139 74.4789 191.994 74.4406C194.1 74.6573 196.129 75.6645 197.992 77.4494C198.298 77.7426 198.464 78.125 198.464 78.533C198.464 78.9027 198.336 79.2469 198.107 79.4892C197.775 79.8206 197.417 79.9991 197.06 79.9991ZM28.3076 18.4349C27.6696 18.4349 27.2995 17.9886 27.1081 17.6062C26.8529 17.1345 26.9295 16.65 27.3378 16.1273C27.7206 15.6174 28.3076 15.3751 28.8818 15.1329C31.8166 13.8835 34.9683 13.2588 38.286 13.2588C39.5492 13.2588 40.8763 13.3481 42.2161 13.5265C42.8796 13.6158 43.39 13.8708 43.6835 14.2787C43.926 14.6229 44.0025 15.0564 43.9132 15.5409C43.7473 16.395 43.071 16.7648 42.4585 16.7648C40.8508 16.6118 39.2047 16.4715 37.6352 16.4715C35.9126 16.4715 34.4579 16.6373 33.0543 16.9942C32.3015 17.1855 31.5614 17.4277 30.8085 17.6699L29.9791 17.9377C29.8005 17.9886 29.6346 18.0524 29.4687 18.1161C29.1753 18.2309 28.8945 18.3329 28.5883 18.3966C28.4862 18.4094 28.3969 18.4221 28.3076 18.4221V18.4349Z" fill="black"/>
</svg>
