<svg width="215" height="147" viewBox="0 0 215 147" fill="none" xmlns="http://www.w3.org/2000/svg">
<path d="M127.824 146C126.28 146 125.119 145.082 123.856 143.718C120.066 139.6 116.532 134.959 113.341 129.936C112.971 129.35 112.614 128.764 112.27 128.164C111.951 127.616 111.619 127.081 111.287 126.545L111.121 126.265C110.841 125.793 110.522 125.258 109.794 124.811L109.718 124.76L109.641 124.811C108.926 125.398 108.212 125.959 107.497 126.532C105.762 127.922 104.116 129.248 102.483 130.663C101.513 131.517 100.569 131.9 99.4202 131.9C99.1395 131.9 98.8332 131.874 98.5142 131.836C95.758 131.428 92.8232 130.956 90.016 130.166C86.7111 129.248 83.3169 128.458 80.0248 127.693C76.2606 126.826 72.3815 125.921 68.6045 124.811C47.0909 118.501 29.4565 106.784 16.1859 90.007C8.49159 80.2414 3.61722 69.0606 1.74148 56.7834C0.261308 47.1198 0.924834 38.6546 3.7831 30.916C5.85024 25.3065 9.18063 20.3982 13.9912 15.9361C16.3773 13.7178 19.6184 10.913 23.5485 8.9497C27.8104 6.80789 32.4296 5.72424 37.2657 5.72424C38.3503 5.72424 39.4604 5.77524 40.5705 5.88998C42.459 6.06846 44.3603 6.22145 46.2615 6.36168L47.512 6.45093C49.9492 6.64216 52.3736 7.41984 54.7343 8.75847C63.3984 13.7178 69.6508 18.6771 74.4359 24.3886C75.2653 25.383 76.0564 26.4284 76.8348 27.4356C77.2048 27.92 77.5749 28.4045 77.9449 28.8762L78.047 29.0164C78.2639 29.3096 78.4936 29.6284 79.0423 29.7941C79.6931 29.5774 79.961 29.0419 80.2162 28.5192C80.28 28.3917 80.3438 28.2515 80.4204 28.124C83.9549 21.6858 88.5741 15.8213 94.1375 10.6708C95.758 9.16643 97.7231 8.10828 99.6116 7.08837C104.167 4.62784 108.072 2.97049 111.989 1.83584C116.2 0.611946 120.347 0 124.29 0C125.502 0 126.714 0.0637443 127.901 0.178484C138.058 1.16015 145.561 6.34893 150.18 15.6174C152.643 20.5512 153.778 25.9184 154.723 30.9925C155.603 35.6968 155.131 40.3629 154.467 45.5262C154.467 45.5772 154.455 45.6154 154.442 45.6664C153.893 48.3564 153.689 51.1739 155.692 54.2719C158.244 58.2241 159.303 62.9156 160.324 67.467L160.656 68.9076C160.771 69.4048 160.886 69.902 161.026 70.3992C161.064 70.5267 161.154 70.616 161.243 70.7307C161.281 70.7817 161.332 70.8327 161.383 70.8964C161.588 70.9857 161.728 71.0112 161.868 71.0112C162.34 71.0112 162.736 70.7817 163.131 70.5522C163.272 70.4757 163.399 70.3992 163.54 70.3227C169.142 67.569 175.126 66.1666 181.315 66.1666C181.94 66.1666 182.565 66.1794 183.19 66.2049C188.473 66.4343 194.088 66.9953 199.332 69.4813C205.763 72.5283 210.331 77.4621 212.909 84.1425C213.611 85.9656 214.185 87.8779 214.606 89.8285C215.167 92.4038 215.129 94.7113 214.491 96.8914C213.942 98.7782 213.317 100.818 212.526 103.279C211.492 106.517 209.604 109.22 208.085 111.208C203.351 117.392 197.494 122.682 190.157 127.399C182.846 132.091 176.491 135.571 170.175 138.363C165.25 140.531 160.375 141.971 155.271 142.762C151.494 143.335 147.679 144.062 143.979 144.751L140.623 145.375C139.245 145.63 137.841 145.656 136.476 145.681H136.195C135.736 145.694 135.276 145.694 134.817 145.694H133.49C131.895 145.694 130.198 145.72 128.488 145.987C128.271 146.025 128.067 146.038 127.863 146.038L127.824 146ZM112.436 121.726L112.487 121.815C117.45 130.727 121.852 137.089 126.752 142.43C127.02 142.481 127.186 142.507 127.339 142.52C127.544 142.545 127.735 142.558 127.926 142.558C128.028 142.558 128.13 142.558 128.22 142.532C130.223 142.214 132.278 142.214 134.268 142.201C135.455 142.201 136.68 142.201 137.879 142.124C138.849 142.073 139.985 141.984 141.095 141.793L141.567 141.716C146.62 140.837 151.839 139.944 156.956 138.963C157.249 138.912 157.555 138.861 157.862 138.81C159.023 138.618 160.222 138.427 161.294 137.777C161.932 136.757 162.2 135.661 162.468 134.603C162.621 134.003 162.774 133.391 162.978 132.805C163.285 131.951 163.757 131.53 164.42 131.53C164.497 131.53 164.573 131.53 164.65 131.543C165.403 131.645 165.747 132.193 165.747 133.277C165.747 133.608 165.696 133.952 165.632 134.297C165.543 134.832 165.441 135.393 165.581 135.967L165.607 136.081H165.722C167.508 135.814 167.546 135.801 169.205 134.717C170.507 128.878 170.8 123.983 170.047 121.866L170.009 121.764H169.907C168.925 121.905 167.993 122.274 167.087 122.631C166.551 122.848 166.015 123.052 165.467 123.218C159.559 124.964 153.587 126.278 146.939 127.705C143.443 128.445 139.729 128.802 135.251 128.802C134.804 128.802 134.345 128.802 133.898 128.802C132.354 128.776 131.397 128.279 130.721 127.119C130.402 126.571 130.044 126.023 129.687 125.487C129.317 124.926 128.934 124.352 128.603 123.766C127.492 121.841 126.395 119.916 125.31 117.991C124.57 116.69 123.83 115.377 123.09 114.077C123.026 113.962 122.975 113.847 122.912 113.733C122.682 113.261 122.427 112.725 121.674 112.432L121.597 112.407L112.461 121.713L112.436 121.726ZM177.002 118.743C175.866 118.858 174.845 119.329 173.569 120.324C173.71 123.753 173.454 127.132 173.199 130.395L173.033 132.614H173.148C173.289 132.639 173.429 132.652 173.557 132.652C174.577 132.652 175.279 132.18 175.904 131.76L176.262 131.517C177.41 127.909 177.831 121.42 177.117 118.832L177.091 118.73H176.989L177.002 118.743ZM174.769 83.5051C178.992 83.5051 182.757 84.1298 186.253 85.4301C189.366 86.5775 191.829 88.4516 193.577 90.9887C195.797 94.2269 196.601 97.0826 196.104 99.9639C195.274 104.77 192.965 108.569 189.251 111.247C187.363 112.611 185.245 113.975 182.591 115.543C182.438 115.632 182.272 115.721 182.106 115.811C181.532 116.104 180.932 116.423 180.575 117.098V118.858C180.549 120.171 180.549 121.497 180.575 122.823C180.575 123.575 180.536 124.34 180.485 125.092C180.409 126.252 180.319 127.45 180.485 128.598C180.728 128.789 180.906 128.827 181.072 128.827C181.34 128.827 181.532 128.713 181.71 128.611C182.221 128.317 182.654 128.024 183.127 127.705L183.726 127.31L183.943 126.137C184.045 125.398 184.147 124.735 184.224 124.059C184.262 123.702 184.288 123.345 184.326 123.001C184.364 122.453 184.415 121.905 184.517 121.356C184.658 120.604 185.155 120.171 185.87 120.171C186.789 120.209 187.108 120.783 187.235 121.254C187.325 121.611 187.35 121.994 187.363 122.364C187.363 122.555 187.388 122.759 187.401 122.95C187.401 123.052 187.401 123.167 187.401 123.282C187.388 123.651 187.363 124.11 187.937 124.454C188.805 124.199 189.545 123.702 190.298 122.937L190.4 122.491C190.4 122.491 190.642 121.076 190.693 120.77C190.808 120.043 190.936 119.278 191.114 118.564C191.28 117.927 191.778 117.545 192.454 117.545C192.965 117.545 193.347 117.812 193.718 118.399C193.807 118.526 193.82 118.705 193.845 118.896C193.883 119.266 193.947 119.725 194.56 119.852C195.3 119.635 195.797 119.189 196.295 118.756C196.423 118.641 196.55 118.526 196.691 118.424C199.243 116.321 201.412 113.796 203.505 111.349L204.551 110.137C207.23 107.039 208.813 103.419 210.127 99.9639C211.952 95.1703 211.811 90.3257 209.706 85.1752C207.32 79.3617 203.351 75.1163 197.916 72.5538C193.539 70.4885 188.754 70.004 184.607 69.7108C183.548 69.6343 182.476 69.5961 181.43 69.5961C174.182 69.5961 167.291 71.4319 160.924 75.0653C160.465 75.333 159.941 75.6263 159.393 75.8047C159.201 75.8685 159.023 75.894 158.844 75.894C158.5 75.894 158.193 75.7793 157.964 75.5498C157.708 75.282 157.581 74.9123 157.581 74.4534C157.581 74.1601 157.632 73.8797 157.683 73.5992C157.747 73.153 157.823 72.7068 157.759 72.2223C157.198 68.2957 156.356 63.7061 154.378 59.5244L154.059 58.836C152.081 54.6161 150.027 50.256 146.058 47.2728C145.969 47.209 145.893 47.0943 145.816 46.9923C144.668 45.4497 143.162 44.57 141.822 43.9071C139.589 42.7979 137.19 42.2242 134.944 41.778C132.941 41.3828 130.925 41.1788 128.96 41.1788C127.212 41.1788 125.476 41.3318 123.792 41.6505C116.697 42.9764 110.994 46.7756 106.834 52.9588C101.959 60.1874 99.535 68.2319 99.6116 76.8757C99.6627 83.3393 100.364 89.8158 101.679 96.1009L101.794 96.6746C102.011 97.7838 102.227 98.9312 103.006 100.079L103.082 100.193L103.184 100.104C106.158 97.7965 108.276 94.8006 110.317 91.9193C111.019 90.9377 111.708 89.956 112.436 89.0126C111.772 85.7616 111.083 82.3832 110.687 78.9665C110.279 75.4095 110.534 72.2223 111.491 69.2136C113.775 61.9722 118.012 57.4719 124.468 55.4703C126.28 54.9094 127.901 54.6289 129.419 54.6289C130.823 54.6289 132.163 54.8711 133.4 55.3428C139.972 57.8798 144.68 62.9666 147.385 70.4375C149.402 75.996 150.716 82.0007 151.303 88.2859C151.367 89.0126 151.43 89.701 152.043 90.1727C152.834 90.1472 153.408 89.7903 153.957 89.446C154.174 89.3058 154.391 89.1783 154.608 89.0508C159.023 86.7305 164.331 84.2827 170.188 83.7345C171.808 83.5816 173.314 83.5051 174.794 83.5051H174.769ZM83.049 122.198C83.1383 122.198 83.2276 122.198 83.3169 122.211C84.057 122.313 84.325 122.874 84.5036 123.46C84.5547 123.626 84.5802 123.817 84.6057 123.995C84.6695 124.467 84.7333 125.003 85.282 125.449L85.4862 125.525C85.6648 125.589 85.8945 125.666 86.1242 125.717C86.8643 125.882 87.6299 126.023 88.3827 126.163C90.0415 126.481 91.7641 126.8 93.3336 127.399C94.6479 127.897 95.975 128.075 97.2765 128.241C97.9911 128.33 98.6929 128.432 99.4074 128.572L99.9944 128.19C100.313 127.948 100.632 127.731 100.926 127.489C104.307 124.85 107.344 121.93 110.675 118.666C113.826 115.581 116.863 112.292 119.798 109.118C121.776 106.976 123.818 104.77 125.872 102.641C128.207 100.219 130.083 97.3631 131.895 94.6093L132.788 93.2579C137.203 86.6158 140.24 80.8278 142.345 75.0526L142.435 74.8231C143.991 70.565 144.03 70.4885 141.58 66.4853C139.308 62.7754 136.399 60.2639 132.673 58.8233L132.584 58.785L132.533 58.8615C131.129 60.8121 130.274 62.7882 129.368 64.9682C127.097 70.4502 124.405 75.9832 121.112 81.886C119.556 84.6652 117.425 88.2731 114.656 91.5496C113.673 92.7097 112.78 93.9846 111.925 95.2213L111.555 95.744C110.573 97.1463 109.577 98.4212 108.505 99.6451C106.426 102.029 104.103 104.247 101.857 106.402C101.156 107.078 100.454 107.753 99.752 108.429C99.2288 108.939 98.6036 109.373 98.0038 109.78C97.7997 109.921 97.5955 110.061 97.3913 110.201C96.1281 111.106 94.7755 111.565 93.3464 111.565C92.8615 111.565 92.3639 111.514 91.8535 111.412C91.1389 111.272 90.4243 111.145 89.7098 111.017C89.1993 110.928 88.7017 110.839 88.1913 110.749C86.9408 110.507 85.6648 110.367 84.4271 110.239C83.0745 110.086 81.6836 109.946 80.3311 109.666C76.6689 108.914 73.313 107.626 69.3063 106.032C69.1149 105.956 68.9235 105.867 68.7321 105.777C68.1451 105.497 67.5454 105.216 66.7926 105.216C66.6395 105.216 66.4863 105.216 66.3204 105.255H66.2439L66.2184 105.344C65.1338 109.5 64.8658 114.077 65.3762 119.725C66.397 120.553 67.2647 120.885 68.26 120.885C68.4004 120.885 68.5535 120.885 68.6938 120.859H68.7704L68.7959 120.77C69.1532 119.737 69.0384 118.743 68.9108 117.787C68.8725 117.519 68.847 117.251 68.8214 116.984C68.6811 115.288 68.7832 114.013 69.1277 112.853C69.268 112.394 69.587 111.859 70.3271 111.859H70.4547C71.131 111.922 71.5521 112.33 71.6669 113.019C71.7307 113.427 71.7435 113.847 71.7563 114.255C71.7563 114.498 71.769 114.74 71.7945 114.982L72.3305 121.866C73.0068 122.364 73.683 122.759 74.3848 122.759C74.6911 122.759 74.9846 122.682 75.2781 122.542C75.5205 121.764 75.4439 121.152 75.3546 120.566C75.3291 120.4 75.3036 120.235 75.2908 120.069L75.2653 119.801C75.2143 119.329 75.1632 118.832 75.1887 118.36C75.2143 117.8 75.4439 117.086 76.3754 116.856C76.452 116.843 76.5285 116.831 76.5923 116.831C77.141 116.831 77.6897 117.277 77.9322 117.914C78.0342 118.182 78.0725 118.475 78.1236 118.781C78.1491 118.972 78.1874 119.164 78.2256 119.355C78.366 119.954 78.4298 120.566 78.4809 121.178C78.5574 122.019 78.6467 122.899 78.953 123.702C79.5017 124.136 79.9993 124.327 80.4969 124.327C80.7521 124.327 81.0201 124.276 81.2881 124.187L81.4795 123.804L81.7092 123.218C81.9899 122.529 82.411 122.198 83.0235 122.198H83.049ZM145.204 77.3219C140.521 88.6429 133.745 99.1097 124.481 109.322L124.417 109.385L124.456 109.462C127.327 115.288 130.121 120.451 132.992 125.245C134.192 125.398 135.327 125.449 136.437 125.449C138.53 125.449 140.648 125.296 142.919 124.964C145.535 124.582 148.164 124.008 150.69 123.447C151.826 123.192 152.949 122.95 154.085 122.708C162.315 121.012 170.315 118.169 177.869 114.268C181.532 112.381 184.709 110.418 187.593 108.289C190.208 106.351 191.855 103.623 192.773 99.7089C192.939 98.9822 192.914 98.179 192.684 97.1973C191.676 92.952 189.098 90.0707 185.028 88.6301C181.825 87.4955 178.393 86.909 174.833 86.909C172.166 86.909 169.307 87.2405 166.373 87.8779C161.958 88.8468 157.555 90.7337 152.502 93.8444C152.336 93.9464 152.171 94.0611 152.005 94.1631C151.686 94.3671 151.379 94.5838 151.035 94.7496C150.69 94.9153 150.359 95.0045 150.052 95.0045C149.338 95.0045 148.776 94.5328 148.47 93.6659C148.33 93.2707 148.291 92.8245 148.279 92.493C148.075 88.4134 147.334 84.3975 146.671 80.9553L146.607 80.5856C146.441 79.6804 146.25 78.6605 145.433 77.3474L145.306 77.1434L145.216 77.3729L145.204 77.3219ZM58.8047 101.608C57.4777 105.318 57.3756 113.427 58.6261 117.392L58.8047 117.532C59.6597 117.991 60.5401 118.475 61.7779 118.475H61.9054L61.982 118.348C61.9948 117.583 62.0075 116.818 62.0075 116.066C62.0203 114.396 62.0331 112.662 62.1351 110.979C62.2372 109.232 62.4286 107.46 62.62 105.739C62.7093 104.961 62.7859 104.184 62.8625 103.393V103.317C62.8625 103.317 62.4669 103.075 62.3265 102.985C62.0075 102.794 61.7268 102.616 61.4206 102.488C61.2164 102.399 61.0122 102.297 60.8081 102.182C60.2594 101.902 59.6979 101.596 58.9451 101.532H58.843L58.8047 101.621V101.608ZM48.367 104.324C48.469 104.324 48.5711 104.324 48.6732 104.349C49.375 104.464 49.7578 104.885 49.8089 105.561C49.8471 106.071 49.8344 106.581 49.8089 107.09V107.792C49.8089 108.238 49.7833 108.671 49.7706 109.118C49.7323 110.622 49.6813 112.177 50.0896 113.631C52.3226 115.148 52.6671 115.275 54.696 115.492H54.8491V115.352C54.4791 108.837 54.6194 103.954 55.3085 99.5176C54.6322 98.6125 53.9431 98.179 53.2796 97.771L52.9096 97.5416C49.4516 95.3233 46.1212 92.8245 43.0077 90.0962C35.6196 83.6581 30.2986 77.0796 26.7258 70.0168C23.2678 63.1706 21.8387 56.6177 22.3618 49.9883C22.7319 45.3477 24.2376 41.1788 26.8279 37.5964C30.4645 32.5861 34.8795 29.9088 40.3026 29.4371C41.2851 29.3479 42.2549 29.3096 43.1991 29.3096C45.6108 29.3096 47.9331 29.5901 50.1279 30.1511C55.8316 31.6172 61.3057 34.6387 66.8691 39.394C70.9013 42.8362 74.4869 46.8903 77.8428 51.7986C78.4809 52.7293 79.1571 53.5835 79.8845 54.5014C80.2035 54.9094 80.5352 55.3301 80.867 55.7508L80.9436 55.84L81.0456 55.7763C81.7219 55.3173 81.9133 54.7564 82.092 54.2082L82.1813 53.9277C82.9979 51.6456 83.8273 49.8736 84.8099 48.3564C89.7736 40.6561 95.4008 34.4347 102.036 29.3606C107.472 25.1918 113.724 23.0754 121.125 22.9097H121.559C128.488 22.9097 134 26.9001 136.284 33.5933C136.744 34.9319 137.024 36.3215 137.292 37.6601L137.471 38.5398C138.071 38.8203 138.581 39.0115 139.079 39.19C140.189 39.5852 141.261 39.9677 142.307 40.4012C143.851 41.0386 145.344 41.9183 146.747 43.0274C147.232 43.4099 147.653 43.8688 148.075 44.3151C148.738 45.0162 149.414 45.7429 150.308 46.1764L150.384 46.2146C150.384 46.2146 150.614 46.0234 150.665 45.9852C150.767 45.9087 150.818 45.8704 150.843 45.8067C150.971 45.5134 151.073 45.2967 151.111 45.08C152.732 35.7096 151.405 26.3264 147.169 17.1982C144.004 10.3776 138.862 6.04296 131.869 4.29637C129.572 3.72267 127.173 3.44219 124.558 3.44219C122.95 3.44219 121.291 3.54418 119.479 3.76092C112.627 4.57684 106.043 7.01188 99.3436 11.2063C97.1617 12.5704 94.9414 13.96 93.2316 15.9106C89.1866 20.5129 86.0221 24.9368 83.5594 29.4244C83.2276 30.0236 82.9086 30.6355 82.5768 31.2347C81.9771 32.3566 81.3519 33.5168 80.7011 34.6387C80.1779 35.5311 79.9483 35.7733 79.3741 35.7733C79.0295 35.7733 78.5702 35.6841 77.9066 35.5438C75.9799 31.2857 72.9685 27.7033 70.2888 24.771C64.9296 18.9066 58.3071 14.6994 53.152 11.7035C51.7356 10.8748 50.1023 10.3011 47.9969 9.88037C46.6188 9.5999 45.2152 9.5489 43.8499 9.4979C42.8546 9.45966 41.821 9.42141 40.813 9.29392C39.6008 9.14094 38.3885 9.06444 37.2019 9.06444C33.0038 9.06444 28.9205 10.0334 25.067 11.9457C21.8897 13.5265 19.2611 15.7448 16.6198 18.0651C9.25719 24.5543 5.21223 33.0068 4.59975 43.2187C3.82138 56.1842 6.80725 68.5124 13.468 79.8589C17.0281 85.9146 21.5197 91.5623 27.2234 97.1081C27.4276 97.3121 27.6573 97.4778 27.8742 97.6308L28.1294 97.822C29.2268 97.5288 29.801 97.3886 30.2093 97.3886C31.0132 97.3886 31.2556 97.8858 31.396 99.7854C31.396 99.8491 31.396 99.9128 31.396 99.9766C31.396 100.079 31.396 100.181 31.396 100.295C31.6129 101.366 32.2382 101.94 33.2462 102.004C33.7311 101.443 33.7949 100.907 33.8587 100.385C33.9097 99.9638 33.9608 99.5814 34.1522 99.2372C34.5095 98.6507 34.8923 98.383 35.4154 98.383C35.4792 98.383 35.5558 98.383 35.6324 98.3957C36.3214 98.485 36.6021 98.9949 36.717 99.4156C36.8701 99.9639 36.8701 100.576 36.8446 101.099C36.8318 101.557 36.7808 102.004 36.7425 102.463C36.6915 102.998 36.6404 103.534 36.6277 104.069C36.6021 105.484 37.087 105.943 38.899 106.198H39.001L39.0393 106.122C39.3073 105.42 39.3328 104.694 39.3456 103.992C39.3456 103.483 39.3711 102.947 39.4859 102.45C39.7284 101.392 40.1239 100.92 40.7619 100.92C41.183 100.92 41.7189 101.111 42.3952 101.519C42.5483 102.743 42.4463 104.056 42.3442 105.433C42.2549 106.606 42.1528 107.83 42.2804 109.041C42.5228 109.283 42.727 109.436 42.9184 109.589C43.9392 110.392 44.9983 111.234 46.6316 111.387H46.7719V109.959C46.7719 109.003 46.7719 108.098 46.7719 107.18C46.7719 106.479 46.7847 105.854 47.0527 105.28C47.3589 104.617 47.7928 104.298 48.3925 104.298L48.367 104.324ZM42.6887 32.8156C42.1655 32.8156 41.6424 32.8283 41.1192 32.8538C38.1844 33.0068 35.6834 33.8992 33.4759 35.6076C27.9508 39.8912 25.3222 46.0361 25.6412 53.8767C25.8581 59.091 27.4021 64.2798 30.3624 69.7235C33.9097 76.2382 39.0266 82.2812 46.0191 88.2221C52.5906 93.8061 59.8766 98.332 67.6858 101.685L68.2217 101.914C72.0115 103.546 75.9288 105.229 80.0631 106.134C81.9899 106.555 83.9677 106.797 85.8945 107.027C88.2551 107.307 90.6923 107.613 93.0274 108.251C93.1805 108.289 93.3336 108.314 93.4867 108.314C94.0482 108.314 94.5458 108.047 95.0052 107.753C96.983 106.491 98.578 105.267 99.8668 103.992C100.045 103.126 99.8923 102.603 99.7647 102.144L99.6754 101.838L99.2543 100.193C98.795 98.4467 98.3356 96.6491 97.9656 94.8643C97.0085 90.1217 96.6513 85.2134 96.3195 80.4708L96.2812 79.8589C96.0515 76.6589 96.2174 73.2677 96.7661 69.5068C97.6976 63.1069 100.148 56.8854 104.052 51.021C107.625 45.6409 112.589 41.8035 119.249 39.292C122.669 38.0044 126.242 37.8259 129.279 37.8259C129.674 37.8259 130.057 37.8259 130.453 37.8259C130.682 37.8259 130.925 37.8514 131.167 37.8641C131.435 37.8896 131.703 37.9024 131.984 37.9024C132.456 37.9024 132.826 37.8386 133.171 37.6984C133.273 37.4944 133.286 37.3924 133.311 37.3032C133.349 37.1119 133.388 36.9462 133.375 36.7805C133.107 31.4769 128.309 26.7471 122.873 26.4539C122.274 26.4156 121.687 26.4029 121.1 26.4029C114.515 26.4029 108.544 28.481 103.376 32.5988C98.6801 36.3343 94.2396 41.0258 89.4163 47.3748C87.0939 50.4218 85.4989 53.4305 84.5419 56.5667C84.2484 57.5356 83.9039 58.479 83.5339 59.346C83.1128 60.3276 82.4365 60.9013 81.6709 60.9013C80.9946 60.9013 80.3311 60.4679 79.8079 59.6774C77.5238 56.2735 75.0356 53.1755 72.9047 50.5747C67.6858 44.2386 62.6838 39.8275 57.1332 36.6912C52.514 34.0905 47.8055 32.8156 42.727 32.8156H42.6887ZM127.505 58.2878C127.11 58.3261 126.676 58.3643 126.268 58.479C120.13 60.0854 116.264 64.216 114.452 71.0877C113.354 75.2565 113.954 79.4764 114.783 83.4031C114.847 83.6963 114.937 84.1425 115.689 84.1425H115.766L115.868 84.0788C121.061 75.9577 124.979 66.7913 128.437 58.7213L128.488 58.5938L128.36 58.5555C128.182 58.4918 128.041 58.4408 127.939 58.4026C127.773 58.3388 127.658 58.3006 127.556 58.3006H127.518L127.505 58.2878ZM164.752 128.725C164.063 128.725 163.578 128.254 163.54 127.54C163.514 127.17 163.629 126.826 163.846 126.583C164.063 126.354 164.344 126.227 164.688 126.214C165.441 126.214 165.977 126.711 166.028 127.399C166.054 127.731 165.939 128.037 165.722 128.292C165.492 128.547 165.186 128.7 164.841 128.725H164.752ZM82.4365 118.641C81.7985 118.641 81.1605 117.978 81.1477 117.341C81.1477 117.035 81.2753 116.716 81.505 116.474C81.7474 116.219 82.0792 116.066 82.4237 116.066C82.7682 116.066 83.0745 116.193 83.3042 116.423C83.5466 116.665 83.6742 116.984 83.6742 117.341C83.6742 118.016 83.0872 118.654 82.462 118.654H82.4492L82.4365 118.641ZM48.6732 101.761C48.0607 101.761 47.4227 101.188 47.3334 100.563C47.2824 100.206 47.41 99.8364 47.6779 99.5304C47.9331 99.2372 48.2776 99.0714 48.6222 99.0714C49.2602 99.0714 49.8471 99.6961 49.8854 100.372C49.9109 101.086 49.3878 101.723 48.737 101.761H48.686H48.6732ZM201.412 84.4612C200.799 84.4612 200.187 83.8875 200.11 83.2246C200.034 82.5616 200.557 81.886 201.233 81.784C201.284 81.784 201.335 81.784 201.386 81.784C201.718 81.784 202.063 81.937 202.331 82.2047C202.586 82.4597 202.726 82.7911 202.726 83.1099C202.726 83.7473 202.088 84.4357 201.463 84.474H201.399L201.412 84.4612ZM197.061 79.9991C196.793 79.9991 196.537 79.9099 196.27 79.7314C194.521 78.5458 192.812 77.6533 191.038 77.0031C190.311 76.7354 190.145 75.9322 190.362 75.3075C190.591 74.6319 191.14 74.4789 191.995 74.4406C194.1 74.6573 196.129 75.6645 197.992 77.4494C198.298 77.7426 198.464 78.125 198.464 78.533C198.464 78.9027 198.337 79.2469 198.107 79.4892C197.775 79.8206 197.418 79.9991 197.061 79.9991ZM28.3081 18.4349C27.67 18.4349 27.3 17.9886 27.1086 17.6062C26.8534 17.1345 26.93 16.65 27.3383 16.1273C27.7211 15.6174 28.3081 15.3751 28.8823 15.1329C31.8171 13.8835 34.9688 13.2588 38.2865 13.2588C39.5497 13.2588 40.8768 13.3481 42.2166 13.5265C42.8801 13.6158 43.3905 13.8708 43.684 14.2787C43.9264 14.6229 44.003 15.0564 43.9137 15.5409C43.7478 16.395 43.0715 16.7648 42.459 16.7648C40.8512 16.6118 39.2052 16.4715 37.6357 16.4715C35.9131 16.4715 34.4584 16.6373 33.0548 16.9942C32.302 17.1855 31.5619 17.4277 30.809 17.6699L29.9796 17.9377C29.801 17.9886 29.6351 18.0524 29.4692 18.1161C29.1757 18.2309 28.895 18.3329 28.5888 18.3966C28.4867 18.4094 28.3974 18.4221 28.3081 18.4221V18.4349Z" fill="white"/>
</svg>
