<svg width="158" height="291" viewBox="0 0 158 291" fill="none" xmlns="http://www.w3.org/2000/svg">
<g clip-path="url(#clip0_286_4487)">
<path fill-rule="evenodd" clip-rule="evenodd" d="M105.198 224.229C105.133 223.654 105.497 223.513 105.651 223.167C106.258 223.345 105.908 224.444 105.198 224.229Z" fill="white"/>
<path fill-rule="evenodd" clip-rule="evenodd" d="M105.959 218.911C105.912 219.421 105.805 219.87 105.501 220.127C104.89 220.043 104.95 218.855 105.352 218.607C105.767 218.494 105.66 218.911 105.959 218.911Z" fill="white"/>
<path fill-rule="evenodd" clip-rule="evenodd" d="M76.871 205.706H77.1744C77.0811 208.648 74.1074 209.967 72.7817 212.386C69.4392 218.462 67.0818 225.904 63.9961 232.419C65.6533 221.483 69.2898 211.216 76.871 205.706Z" fill="white"/>
<path fill-rule="evenodd" clip-rule="evenodd" d="M101.566 191.594C103.022 197.371 104.829 203.597 105.048 210.112C103.993 204.331 101.874 197.516 101.108 191.445C101.351 191.407 101.37 191.59 101.561 191.599L101.566 191.594Z" fill="white"/>
<path fill-rule="evenodd" clip-rule="evenodd" d="M70.21 200.397H70.5134C72.4787 201.164 73.7905 202.577 75.0556 204.041C72.8755 204.565 71.1763 202.095 70.21 200.397Z" fill="white"/>
<path fill-rule="evenodd" clip-rule="evenodd" d="M123.983 159.264V158.81C124.16 158.786 124.253 158.843 124.286 158.959C126.214 160.826 126.569 164.549 126.41 167.762C126.144 173.128 123.586 177.534 120.505 179.751C124.389 176.102 127.325 166.355 123.987 159.264H123.983Z" fill="white"/>
<path fill-rule="evenodd" clip-rule="evenodd" d="M114.137 193.867C113.222 193.83 112.895 192.389 113.227 191.594C114.114 191.122 114.618 192.969 114.137 193.867Z" fill="white"/>
<path fill-rule="evenodd" clip-rule="evenodd" d="M99.1388 182.487C96.9588 182.286 94.718 182.258 92.776 181.879C88.7521 181.093 85.3769 179.363 82.6274 178.235C82.3566 178.273 82.3146 178.09 82.4733 178.081C85.7737 178.67 89.5877 180.761 93.9851 181.117C101.137 181.697 108.349 181.612 113.073 178.988C117.205 176.696 119.338 173.801 119.74 168.366C121.28 169.011 120.444 173.656 119.889 174.896C118.068 178.946 111.43 182.352 105.8 182.787C103.746 182.946 101.436 182.693 99.1341 182.482L99.1388 182.487Z" fill="white"/>
<path fill-rule="evenodd" clip-rule="evenodd" d="M118.679 161.541C120.005 161.724 120.225 164.409 119.436 165.335C118.875 164.526 118.152 162.453 118.679 161.541Z" fill="white"/>
<path fill-rule="evenodd" clip-rule="evenodd" d="M102.93 243.954C102.953 244.235 103.028 244.464 103.233 244.562C102.948 245.367 102.435 246.658 101.716 246.536C102.369 245.699 101.151 243.776 102.93 243.954Z" fill="white"/>
<path fill-rule="evenodd" clip-rule="evenodd" d="M103.989 229.234C102.084 226.287 102.248 221.82 102.019 216.941C101.898 214.331 101.678 211.838 101.417 209.355C100.871 204.181 99.6614 199.574 98.8398 195.088C99.0873 195.051 99.1013 195.233 99.2927 195.238C102.43 205 104.414 215.912 103.989 229.239V229.234Z" fill="white"/>
<path fill-rule="evenodd" clip-rule="evenodd" d="M101.566 259.287C102.135 260.306 101.636 262.355 100.81 262.93C100.763 262 99.9973 259.1 101.566 259.287Z" fill="white"/>
<path fill-rule="evenodd" clip-rule="evenodd" d="M94.9002 248.964C94.1579 248.935 93.9245 247.687 94.4473 247.294C95.2643 247.392 95.2829 248.426 94.9002 248.964Z" fill="white"/>
<path fill-rule="evenodd" clip-rule="evenodd" d="M105.959 212.998C106.025 213.667 105.81 214.065 105.502 214.359C104.839 214.308 104.876 213.307 105.049 212.839C105.422 212.821 105.782 212.816 105.959 212.998Z" fill="white"/>
<path fill-rule="evenodd" clip-rule="evenodd" d="M67.936 194.929C67.1845 194.569 66.6009 194.045 66.1201 193.414C66.6336 191.805 69.3692 194.101 67.936 194.929Z" fill="white"/>
<path fill-rule="evenodd" clip-rule="evenodd" d="M86.8708 192.656C86.8287 192.413 87.0155 192.394 87.0248 192.202H87.4776C88.8174 195.542 86.9128 198.961 84.1445 199.639C84.4573 198.115 86.0071 197.563 86.5673 196.15C86.9314 195.229 86.8381 194.143 86.8708 192.661V192.656Z" fill="white"/>
<path fill-rule="evenodd" clip-rule="evenodd" d="M62.0268 192.656C61.2985 192.165 61.5553 191.678 61.2705 191.136C60.3322 189.382 58.1849 188.563 57.0318 187.038C55.7667 185.364 54.5297 182.819 55.5146 180.209H55.9675C56.1542 182.618 56.7517 184.101 57.9374 185.677C58.9738 187.048 61.0698 188.021 62.0268 189.321C62.5076 189.976 63.5346 191.576 62.0268 192.661V192.656Z" fill="white"/>
<path fill-rule="evenodd" clip-rule="evenodd" d="M95.3525 170.803C95.7073 169.919 97.1358 169.381 98.0788 169.587C98.0041 170.719 96.0108 171.224 95.3525 170.803Z" fill="white"/>
<path fill-rule="evenodd" clip-rule="evenodd" d="M123.53 219.823C124.169 215.389 124.902 210.374 124.743 204.644C124.659 201.684 124.65 198.629 124.286 195.841C124.081 194.246 122.876 192.656 123.53 190.528C123.656 190.5 123.674 190.589 123.684 190.677C125.49 197.45 126.825 204.822 126.256 213.293C125.976 217.521 125.005 222.148 124.137 226.348C123.245 230.637 122.419 234.884 121.256 238.491C121.056 236.568 121.667 234.547 122.013 232.569C122.713 228.593 122.89 224.266 123.525 219.823H123.53Z" fill="white"/>
<path fill-rule="evenodd" clip-rule="evenodd" d="M129.286 210.108C129.715 209.981 129.678 210.323 130.042 210.257C129.953 214.411 127.46 218.616 128.679 223.616C128.399 223.841 128.301 224.248 127.922 224.369C126.237 223.322 126.69 219.79 127.012 217.54C126.877 217.124 126.485 217.807 126.256 217.39C127.605 215.959 127.722 213.293 128.982 211.777C128.982 211.118 128.893 210.37 129.286 210.108Z" fill="white"/>
<path fill-rule="evenodd" clip-rule="evenodd" d="M118.834 157.748C119.497 157.795 120.145 159.114 119.436 159.567C118.913 159.263 118.264 158.23 118.834 157.748Z" fill="white"/>
<path fill-rule="evenodd" clip-rule="evenodd" d="M118.834 247.149C119.24 248.786 118.511 250.558 117.316 251.092C117.909 249.96 117.302 246.845 118.834 247.149Z" fill="white"/>
<path fill-rule="evenodd" clip-rule="evenodd" d="M81.115 169.432C81.7359 169.372 82.072 169.591 82.0253 170.19C81.6425 170.499 80.9376 170.153 81.115 169.432Z" fill="white"/>
<path fill-rule="evenodd" clip-rule="evenodd" d="M60.2109 172.014C60.2576 171.71 60.2623 171.406 60.2483 171.107C60.2856 171.154 60.323 171.21 60.3603 171.256C60.407 171.607 60.337 171.841 60.2109 172.014Z" fill="white"/>
<path fill-rule="evenodd" clip-rule="evenodd" d="M126.863 228.471C126.513 226.956 127.465 225.707 127.922 224.528C128.268 225.38 128.212 228.322 126.863 228.471Z" fill="white"/>
<path fill-rule="evenodd" clip-rule="evenodd" d="M74.4482 168.067C74.5229 167.271 75.3819 166.841 76.1148 167.159C76.4136 167.477 76.2315 168.165 76.1148 168.525C75.4612 168.862 74.635 168.642 74.4482 168.067Z" fill="white"/>
<path fill-rule="evenodd" clip-rule="evenodd" d="M121.103 249.876C120.165 250.568 119.287 252.083 117.924 251.849C118.447 250.741 120.062 249.964 121.103 249.876Z" fill="white"/>
<path fill-rule="evenodd" clip-rule="evenodd" d="M83.6918 175.354C83.1549 175.84 82.2213 175.887 81.7218 175.354C81.409 174.1 83.0522 173.801 83.6918 174.442V175.354Z" fill="white"/>
<path fill-rule="evenodd" clip-rule="evenodd" d="M98.9893 173.53C99.274 172.852 100.026 172.342 100.656 171.86C101.529 171.191 102.224 170.466 103.685 170.344C102.892 172.173 101.039 172.955 98.9893 173.53Z" fill="white"/>
<path fill-rule="evenodd" clip-rule="evenodd" d="M110.501 171.257C111.22 169.025 113.04 166.86 113.078 164.881H113.685C114.053 167.323 112.62 170.321 110.506 171.257H110.501Z" fill="white"/>
<path fill-rule="evenodd" clip-rule="evenodd" d="M36.7295 53.777C37.7472 50.7506 39.4884 48.4446 41.2763 46.1854C40.422 48.7721 38.298 51.3961 36.7295 53.777Z" fill="white"/>
<path fill-rule="evenodd" clip-rule="evenodd" d="M112.775 172.618C112.074 173.216 111.229 173.899 110.506 173.984C111.561 171.804 113.568 170.578 114.899 168.67H115.351C115.277 170.064 113.914 171.64 112.775 172.618Z" fill="white"/>
<path fill-rule="evenodd" clip-rule="evenodd" d="M83.5371 166.093C83.5371 165.195 84.4241 164.217 85.2037 165.036C85.5211 166.327 84.214 166.691 83.5371 166.093Z" fill="white"/>
<path fill-rule="evenodd" clip-rule="evenodd" d="M90.5074 175.05C89.7652 174.091 91.6465 173.198 91.4131 174.746C91.0956 174.83 90.9789 175.12 90.5074 175.05Z" fill="white"/>
<path fill-rule="evenodd" clip-rule="evenodd" d="M6.73656 17.8025C6.48448 18.8175 5.59752 19.1917 5.37345 20.2301C5.28475 19.4817 6.027 18.2609 6.73656 17.8025Z" fill="white"/>
<path fill-rule="evenodd" clip-rule="evenodd" d="M75.3589 112.213C77.0441 110.725 78.5426 109.14 80.5079 108.115C80.7553 108.073 80.7693 108.26 80.9654 108.265C80.0504 110.3 77.9311 111.516 76.2692 112.971C74.654 114.383 73.1975 116.268 71.2695 116.918C71.7924 114.851 73.8464 113.551 75.3589 112.213Z" fill="white"/>
<path fill-rule="evenodd" clip-rule="evenodd" d="M63.6934 126.783C63.8521 124.795 66.4009 123.139 68.3896 122.985C67.2365 124.58 65.7614 126.605 63.6934 126.783Z" fill="white"/>
<path fill-rule="evenodd" clip-rule="evenodd" d="M67.6325 77.6041C67.8752 77.562 67.8939 77.7491 68.0853 77.7584C66.6708 80.3872 64.7662 82.5248 62.7822 84.5875C64.066 81.9307 65.8399 79.7604 67.6278 77.6041H67.6325Z" fill="white"/>
<path fill-rule="evenodd" clip-rule="evenodd" d="M70.6628 85.8037C69.9812 86.9918 68.9075 87.787 67.9365 88.6897C68.366 87.946 69.4817 85.799 70.6628 85.8037Z" fill="white"/>
<path fill-rule="evenodd" clip-rule="evenodd" d="M65.0557 87.3192C65.8726 85.2564 67.4785 83.9795 68.5381 82.1599H69.145C68.4634 84.5595 66.5682 85.7522 65.0557 87.3192Z" fill="white"/>
<path fill-rule="evenodd" clip-rule="evenodd" d="M66.2695 128.907C66.5169 127.022 68.1321 125.211 70.2095 124.655C69.3785 126.559 68.1181 128.023 66.2695 128.907Z" fill="white"/>
<path fill-rule="evenodd" clip-rule="evenodd" d="M79.5977 97.6424C79.1169 96.9361 78.2439 95.8977 78.6874 94.7563C79.9758 94.9622 79.6304 96.4262 79.5977 97.6424Z" fill="white"/>
<path fill-rule="evenodd" clip-rule="evenodd" d="M71.5727 126.329C70.4944 127.929 69.6494 129.767 67.4834 130.277C67.5254 128.238 69.4721 126.811 71.5727 126.329Z" fill="white"/>
<path fill-rule="evenodd" clip-rule="evenodd" d="M72.0258 127.695C72.5112 127.564 72.4926 127.934 72.782 127.999C71.8017 129.267 70.9567 131.4 68.9961 131.185C69.0614 129.075 71.1621 129.005 72.0258 127.695Z" fill="white"/>
<path fill-rule="evenodd" clip-rule="evenodd" d="M146.708 108.569C146.035 108.33 145.914 107.54 145.951 106.595C147.165 105.44 147.884 108.139 146.708 108.569Z" fill="white"/>
<path fill-rule="evenodd" clip-rule="evenodd" d="M82.3282 146.817C82.5009 147.453 81.6373 148.351 81.4179 149.095C81.2778 148.496 81.9687 147.425 82.3282 146.817Z" fill="white"/>
<path fill-rule="evenodd" clip-rule="evenodd" d="M125.191 94.7564C126.018 93.9893 127.381 95.1025 126.858 96.1222C125.896 96.0754 125.159 95.7995 125.191 94.7564Z" fill="white"/>
<path fill-rule="evenodd" clip-rule="evenodd" d="M0.070479 26.6055C6.87672 34.0614 14.822 41.101 22.0344 49.2211C27.2348 55.0726 32.7806 61.0504 38.2424 66.5231C41.4634 69.7506 43.7182 72.4261 46.2717 76.0839C47.1166 77.2907 48.321 78.9371 48.6945 80.0317C48.8392 80.4573 49.1333 80.6865 48.6945 81.3975C49.4974 81.4068 49.6281 82.0196 49.9035 82.4593C51.0099 84.2086 51.9389 86.4351 52.3263 88.5306C52.6298 90.1537 52.219 91.9452 52.4757 93.9939C52.6204 95.1212 53.3534 96.3701 53.6895 97.0296C53.9135 97.474 53.8435 97.9791 53.9929 98.2458C54.6745 99.4479 55.7668 100.299 56.4157 101.431C56.9945 102.446 57.5314 103.471 57.7788 104.771C58.0869 106.422 58.3577 111.824 57.9282 113.728C57.7181 114.664 56.6724 116.034 55.9582 117.068C53.6148 120.454 51.0753 122.976 49.292 126.329C48.7785 129.795 47.6628 133.5 48.2323 137.256C48.4751 138.86 49.5301 140.745 50.3517 142.415C52.2236 146.204 54.9032 149.001 57.6248 151.373C55.7761 152.257 54.5204 153.73 53.9882 155.924C51.7101 156.499 49.0446 157.346 47.7795 159.263C47.4434 159.769 47.2987 160.695 46.8692 161.541C46.5098 162.252 45.9122 162.973 45.6555 163.665C43.6902 168.955 45.352 175.134 48.0783 177.627C44.6938 182.623 48.4517 188.806 48.8345 193.863C49.1846 198.456 48.4751 203.176 48.9839 207.68C49.4507 211.768 50.6551 215.758 50.9539 219.673C51.374 225.207 50.4357 231.1 49.7448 236.821C48.391 248 47.4434 258.936 45.6555 269.61C44.7358 275.111 43.7462 280.569 43.8396 286C47.7655 288.666 53.9042 289.508 60.0476 289.19C60.5704 288.652 61.4433 288.46 62.1669 288.128C63.1893 283.652 64.3983 278.918 65.346 274.161C66.3123 269.329 66.6064 264.315 68.2262 259.895C67.8248 257.364 68.7257 254.74 69.1366 252.004C69.9442 246.597 71.0085 241.246 72.0168 236.068C72.8571 231.736 73.3986 227.335 75.9568 225.749C78.7997 247.836 73.5573 269.114 71.41 288.586C71.8021 289.162 72.465 289.456 72.7731 290.102C75.9428 289.826 78.4636 290.485 80.8024 290.71C87.9821 291.398 95.96 290.85 101.707 289.494C104.769 288.773 107.803 287.272 110.492 287.679C111.86 286.973 113.036 286.323 114.432 286.767C114.824 285.289 116.089 284.685 116.855 283.582C116.902 283.03 115.833 283.596 116.099 282.819C119.408 269.839 122.363 256.597 126.854 243.809C130.117 234.519 132.946 225.019 135.943 215.58C136.947 212.418 137.61 208.98 138.823 206.015C139.234 205.014 140.299 204.181 140.639 202.979C141.559 199.78 139.883 195.734 140.182 193.114C140.439 190.907 141.293 188.699 141.246 185.981C141.12 179.054 137.997 172.842 137.157 166.855C136.583 162.772 137.003 158.814 135.794 155.928C134.501 152.837 131.849 150.549 129.431 148.491C127.186 146.573 126.126 145.053 122.158 145.301C124.142 143.697 126.196 141.353 127.765 139.838C128.381 141.199 128.946 142.556 130.038 143.935C130.972 145.114 132.419 145.858 133.371 146.971C135.014 148.893 136.009 151.246 138.217 152.13C140.751 153.141 141.587 152.229 142.913 150.914C144.099 149.745 144.561 149.104 145.336 147.878C147.119 145.063 149.85 142.607 151.395 139.684C153.51 135.684 154.742 130.244 155.788 124.655C157.286 116.661 158.304 108.728 157.912 99.9156C157.282 98.8772 155.965 98.5264 155.031 97.792C154.084 95.0744 151.801 92.5299 148.972 90.3549C146.386 88.3622 143.487 85.9487 140.485 85.3453C136.298 84.5033 134.165 86.1779 132.003 87.7729C130.818 88.6476 129.66 89.5971 128.521 90.5045C115.744 81.636 105.156 70.078 94.5876 59.0859C91.0211 55.372 87.9027 51.181 84.7424 47.0975C78.4449 38.9494 71.7367 31.0164 64.5991 23.5698C62.7971 21.6895 60.8878 19.9962 59.1466 18.1065C55.6361 14.2944 52.3404 10.1969 49.1473 6.26781C47.5368 4.28456 46.3744 1.84292 44.3017 0.196444C42.299 0.827903 39.6428 -0.224529 36.8793 0.0420869C33.4575 0.378865 29.9376 1.92243 26.4272 3.22745C22.9167 4.53247 19.2988 5.3978 16.1244 6.72153C13.0434 8.00783 10.4992 9.89286 7.48826 11.7311C5.00477 13.2466 1.21886 16.17 0.369244 18.4105C-0.438355 20.5341 0.350571 24.2247 0.0658108 26.6055H0.070479ZM133.068 94.906C132.4 94.6862 133.026 94.2231 133.222 93.9939C133.576 94.1249 133.096 94.6581 133.068 94.906ZM132.615 134.216C134.636 133.874 136.121 131.432 137.918 130.268C137.927 132.756 134.968 133.584 133.978 135.581C132.96 135.287 132.409 134.524 131.252 134.37C133.189 130.997 137.106 129.608 139.281 126.479C138.697 130.095 134.146 131.049 132.615 134.22V134.216ZM134.127 130.118C134.851 127.354 138.352 126.053 140.187 123.897C140.579 124.154 139.897 124.603 140.037 125.113C137.829 126.545 136.055 128.411 134.127 130.123V130.118ZM142.157 100.823C142.329 100.8 142.423 100.856 142.46 100.977C142.189 102.03 140.999 102.586 140.187 103.255C139.37 103.929 138.637 104.738 137.913 105.075C137.381 103.92 138.884 103.466 139.58 102.951C140.518 102.259 141.433 101.595 142.157 100.828V100.823ZM141.853 99.7613C141.517 99.6958 141.736 98.9567 141.853 98.8538C142.189 99.1719 142.138 99.4946 141.853 99.7613ZM140.793 97.6377C139.813 99.2842 137.955 100.056 136.555 101.281C136.219 100.187 137.684 99.808 138.371 99.3075C139.164 98.7275 139.888 97.8622 140.793 97.6377ZM138.217 97.7874C137.39 98.3954 136.499 99.1906 135.64 99.3029C136.839 97.7733 138.95 96.3467 140.485 95.6591C139.991 96.4777 139.043 97.1746 138.212 97.7827L138.217 97.7874ZM140.943 100.215C140.065 101.511 138.478 102.095 137.46 103.251C136.821 101.543 139.85 101.034 140.639 99.7613C140.859 99.794 140.691 100.215 140.943 100.22V100.215ZM142.46 102.643C143.034 102.521 142.651 103.358 142.763 103.704C140.803 104.518 140.023 106.525 138.52 107.802C138.235 107.432 138.193 106.81 138.217 106.132C139.659 104.995 141.078 103.84 142.46 102.643ZM142.609 105.07C143.375 108.518 139.874 109.009 138.371 110.683C138.917 107.947 141.4 107.147 142.609 105.07ZM142.913 109.018C142.455 111.291 139.626 112.423 138.371 113.569C138.576 110.791 141.349 110.585 142.609 108.864C142.787 108.84 142.88 108.896 142.913 109.018ZM142.913 111.904C142.619 114.079 139.416 115.103 138.217 116.61C137.782 116.31 138.268 115.665 138.217 115.244C139.771 114.168 141.321 113.092 142.609 111.75C142.787 111.726 142.88 111.782 142.913 111.904ZM137.764 119.341C138.273 116.563 141.265 116.268 142.609 114.332C143.137 115.903 139.146 118.017 137.764 119.341ZM142.157 117.367C141.148 119.898 138.562 120.852 137.008 122.831C137.036 119.921 140.602 119.252 142.007 117.213C142.278 117.171 142.32 117.358 142.161 117.367H142.157ZM141.097 120.553C140.677 123.369 137.414 124.65 135.49 126.47C136.489 123.621 139.463 122.76 141.097 120.553ZM134.888 97.937C136.335 96.3514 138.473 95.458 139.888 93.8396C138.996 95.3785 136.489 96.6086 134.888 97.937ZM150.191 131.479C151.325 126.554 151.25 121.011 151.554 115.543C151.857 110.056 153.696 104.668 152.763 98.9988C153.491 98.9287 154.154 100.238 155.036 100.519C154.378 107.549 155.116 115.384 153.524 121.465C153.365 122.073 152.875 122.573 152.763 123.135C152.165 126.138 152.977 130.212 150.191 131.479ZM141.858 144.38C143.324 143.117 144.967 142.032 146.708 141.04C146.274 141.531 145.816 142.35 145.191 142.86C144.229 143.641 142.904 144.824 141.858 144.375V144.38ZM141.708 135.881C141.662 135.675 141.33 135.754 141.102 135.726C141.573 134.819 142.376 135.862 142.619 136.484C141.736 136.713 141.19 137.279 140.499 137.7C140.14 136.933 141.634 136.713 141.713 135.881H141.708ZM144.589 137.551C143.31 138.598 141.666 139.277 140.345 140.282C140.005 140.17 140.285 139.431 140.196 139.066C141.722 138.678 142.95 136.409 144.589 137.551ZM143.982 139.674C144.211 140.03 143.076 140.497 142.465 140.89C141.792 141.321 141.027 142.013 140.345 142.106C140.906 140.647 142.74 140.455 143.982 139.679V139.674ZM146.405 139.978C145.387 140.591 142.633 142.864 141.102 143.468C142.381 141.816 144.607 141.11 146.405 139.978ZM134.435 136.185C135.168 135.652 136.041 134.459 136.709 134.365C136.578 135.446 136.648 136.732 136.256 137.551C138.553 134.258 138.87 129.945 140.495 125.862C142.031 121.998 144.211 118.541 144.738 114.327C145.434 108.742 144.547 102.114 143.678 96.8706C142.642 94.6675 141.965 92.1089 140.345 90.4952C140.019 90.0789 140.434 89.8637 140.196 89.4334C139.458 89.0966 138.772 89.1387 138.077 88.5213C140.962 87.7729 141.774 89.7327 142.773 92.0107C144.15 95.1539 146.545 100.879 146.106 104.308C148.137 99.0783 144.873 93.8863 143.23 90.3455C144.57 91.0097 149.84 93.7367 150.807 95.6544C151.95 97.937 151.964 101.749 151.712 105.215C151.516 108.003 150.592 111.142 150.349 114.472C149.948 120.029 150.424 126.937 149.593 132.078C148.006 133.018 145.504 133.215 143.534 132.99C143.506 133.982 144.911 133.533 145.2 134.206C146.199 133.944 147.618 134.351 148.837 134.356C149.229 134.267 149.383 134.417 149.294 134.81C149.411 134.164 150.139 134.141 150.811 134.047C150.573 134.487 149.341 135.956 149.294 135.109C148.986 136.779 145.242 137.883 144.598 135.717C142.469 135.722 142.32 133.748 141.414 132.532C141.942 130.329 142.689 128.345 142.927 125.852C141.643 127.251 141.769 130.057 140.35 131.32C139.846 134.155 139.286 136.933 138.38 139.365C138.487 139.815 138.833 140.025 138.683 140.731C138.884 141.587 138.081 141.442 138.077 142.097C139.57 143.281 139.542 145.993 141.713 146.499C141.428 147.331 140.635 147.645 139.897 148.019C137.292 144.862 137.624 138.762 134.445 136.18L134.435 136.185ZM134.286 145.442C134.389 145.044 134.972 145.119 135.042 144.684C135.458 144.871 135.434 145.502 135.495 146.05C134.921 146.017 134.762 145.572 134.286 145.442ZM133.072 144.529C133.502 143.692 134.137 143.065 134.589 142.251C135.406 143.257 134.174 144.969 133.072 144.529ZM131.709 143.313C131.709 142.078 133.436 141.316 133.833 139.974C134.169 139.889 134.048 140.264 134.286 140.278C133.567 141.339 132.727 143.051 131.709 143.313ZM130.346 141.19C131.732 140.909 132.171 139.679 132.923 138.762H133.226C133.198 138.893 133.287 138.907 133.38 138.912C132.591 139.992 131.611 140.886 130.804 141.947C130.626 141.718 130.365 141.578 130.346 141.185V141.19ZM131.406 137.546C131.63 137.625 131.789 137.77 132.013 137.85C131.452 138.907 130.626 139.698 129.739 140.432C129.384 139.104 131.13 138.739 131.406 137.546ZM122.77 149.385C122.401 149.67 122.135 150.063 121.406 149.993C121.673 149.534 122.06 148.964 122.77 149.385ZM125.799 151.055C125.458 151.087 124.109 150.83 123.829 150.297C124.543 149.941 125.104 150.9 125.799 151.055ZM130.649 157.276C128.119 155.372 124.249 153.538 118.68 153.936C117.877 153.992 117.135 154.273 116.257 154.24C116.869 153.131 117.751 152.196 118.227 151.354C118.353 151.326 118.372 151.41 118.377 151.504C121.729 152.42 125.743 153.604 128.978 155.147C129.744 155.512 131.494 156.275 130.645 157.271L130.649 157.276ZM116.864 148.622C117.182 147.963 117.826 147.743 118.531 148.168C118.19 148.893 117.695 148.964 116.864 148.622ZM117.168 151.05C116.276 152.285 116.029 154.16 114.441 154.694C114.927 153.258 115.772 152.182 116.257 150.746C116.612 150.797 116.883 150.928 117.168 151.05ZM129.893 158.337C129.716 158.361 129.762 158.613 129.744 158.791C129.212 158.464 129.188 157.626 128.684 157.271C129.1 157.018 129.725 157.842 129.898 158.333L129.893 158.337ZM132.769 158.487C132.293 159.829 131.177 160.531 130.649 161.827C129.426 160.297 130.663 158.389 131.56 157.271C132.027 157.612 132.428 158.015 132.769 158.487ZM131.102 164.708C130.071 162.486 132.629 161.298 133.222 159.698C134.314 162.037 131.541 162.917 131.102 164.708ZM133.376 166.378C133.908 168.632 131.317 169.072 130.799 170.779C130.22 168.478 132.47 167.702 133.376 166.378ZM131.102 167.136C130.757 166.827 131.046 165.877 130.953 165.316C132.157 165.536 132.661 163.81 133.376 163.038C134.445 165.035 131.751 165.854 131.102 167.136ZM137.465 183.526C136.956 183.806 136.634 183.862 136.102 183.526C136.312 183.081 136.802 182.913 137.012 182.468C137.526 182.454 137.46 183.025 137.465 183.526ZM136.555 199.312C136.205 198.854 136.499 197.75 136.401 197.039C136.793 196.875 137.129 196.655 137.311 196.276C138.343 197.478 137.689 198.779 136.555 199.312ZM136.858 192.179C137.348 191.552 136.905 189.999 137.768 189.747C137.218 190.313 137.726 191.931 136.858 192.179ZM136.251 194.003C136.48 193.774 136.886 193.727 137.008 193.395C137.428 194.274 137.152 195.762 136.401 195.972C136.051 195.612 136.345 194.611 136.251 194.003ZM137.465 186.412C137.218 185.729 137.05 184.765 137.614 184.438C138.417 184.873 138.291 186.168 137.465 186.412ZM138.375 188.081C137.899 188.011 137.754 188.269 137.619 188.54C137.045 187.805 137.979 187.286 138.226 186.87C138.567 186.987 138.287 187.721 138.38 188.086L138.375 188.081ZM136.405 201.74C135.794 200.514 137.185 199.995 137.923 199.616C138.161 201.071 136.863 200.977 136.405 201.74ZM137.316 202.044C137.432 202.975 136.326 203.985 136.107 205.084C135.453 203.611 136.723 202.769 137.316 202.044ZM129.893 188.081C131.835 187.946 133.012 185.747 134.589 184.742C134.818 186.22 133.044 187.207 132.013 188.081C130.869 189.054 129.604 190.046 128.679 190.659C128.418 185.743 129.734 182.408 130.5 178.521C131.849 177.342 133.222 176.187 134.435 174.877C134.949 174.97 134.636 175.892 135.042 176.088C133.567 178.001 131.424 179.246 130.197 181.402C132.307 181.804 133.567 178.03 135.5 177.758C135.439 179.335 133.866 180.406 132.773 181.402C131.611 182.464 130.075 183.31 129.594 184.891C131.793 183.853 133.805 181.322 135.803 179.578C136.284 179.961 136.345 180.756 136.713 181.248C134.762 183.844 131.789 185.415 129.898 188.077L129.893 188.081ZM130.197 177.459V175.335C131.91 174.774 132.619 173.207 133.833 172.145C135.192 174.709 131.121 176.21 130.197 177.459ZM134.589 188.844C132.629 190.266 130.439 192.272 128.679 193.4V191.88C130.705 190.42 132.521 188.746 134.435 187.174C134.781 187.436 134.491 188.334 134.589 188.844ZM133.983 191.576C132.26 192.885 130.537 194.195 128.834 195.523C128.488 195.313 128.778 194.471 128.684 194.008C130.85 193.189 132.381 191.735 133.987 190.359C134.557 190.28 133.95 191.225 133.987 191.576H133.983ZM133.679 201.44C132.447 202.179 131.322 203.026 130.197 203.873C129.959 203.353 129.982 202.572 129.893 201.894C131.308 201.342 132.213 200.276 133.376 199.471C134.029 199.574 133.516 200.846 133.679 201.44ZM129.893 201.141C128.343 198.437 132.041 197.965 133.072 196.435C134.589 198.971 130.906 199.691 129.893 201.141ZM129.137 198.101C129.128 197.455 128.932 196.992 128.834 196.435C130.262 195.332 131.915 194.462 133.226 193.245C133.791 193.306 132.816 194.625 133.38 195.215C131.798 196.01 130.79 197.38 129.137 198.096V198.101ZM114.441 264.128C114.432 261.943 117.387 261.415 118.531 259.876C118.848 262.369 115.665 262.668 114.441 264.128ZM115.501 260.788C115.473 257.93 117.924 256.237 119.894 254.871C120.146 257.954 117.172 259.123 115.501 260.788ZM112.317 270.349C112.691 266.485 114.908 265.077 117.466 263.37C118.05 263.655 117.023 264.811 117.163 265.648C115.618 266.172 114.339 266.967 113.676 268.38C114.675 268.267 115.744 266.906 116.86 266.41C116.5 268.875 113.825 269.035 112.317 270.354V270.349ZM111.407 273.997C111.519 270.92 114.596 270.817 116.103 269.137C116.323 271.836 112.574 272.683 111.407 273.997ZM115.496 272.023C115.571 274.727 112.163 275.26 110.8 277.033C110.987 274.582 114.171 273.834 115.496 272.023ZM114.437 277.337C112.873 278.193 111.332 279.077 110.044 280.218C110.105 277.697 113.251 276.958 114.586 275.209C115.151 275.387 114.371 276.663 114.437 277.337ZM109.134 282.646C109.124 281.879 109.657 281.654 110.347 281.589C111.309 280.373 112.784 279.68 113.984 278.703C113.905 280.948 111.458 282.141 109.134 282.651V282.646ZM91.4132 286.594C91.3759 285.948 91.5533 285.523 91.7167 285.078C93.906 285.312 96.2121 285.429 98.6863 285.382C96.6789 286.201 94.3915 286.743 91.4132 286.594ZM87.3239 286.594C88.0801 283.759 88.9624 281.051 88.8364 277.337C88.1268 277.234 88.2715 277.983 88.0801 278.394C84.789 279.849 82.4409 282.258 79.598 284.166C79.3786 279.063 84.8544 278.544 87.0204 275.513C84.4623 276.392 82.6323 277.992 80.6577 279.461C80.1955 278.984 80.8397 278.338 80.6577 277.641C83.0758 275.812 85.634 274.124 88.0801 272.327C85.2745 272.702 83.1038 275.026 80.9611 276.579C80.6997 275.957 81.1805 274.779 81.1105 273.848C83.3326 272.178 85.9888 270.943 87.7767 268.838C85.4146 269.254 83.5566 271.49 81.2599 272.482C81.3112 268.127 86.1381 268.562 87.6226 265.653C85.4286 265.784 83.6687 267.659 81.7174 268.534C81.7547 267.706 81.9601 267.056 81.8667 266.106C84.1542 264.497 86.5536 263.01 88.8364 261.401C89.1258 264.423 88.4722 267.814 88.687 271.266C89.6533 268.338 89.4712 264.264 90.0501 260.947C89.9754 260.213 90.9277 260.507 90.9604 259.885C91.1938 259.245 90.1761 259.862 90.2041 259.427C90.5309 254.01 91.3479 249.946 91.1144 244.099C91.0864 243.416 92.0061 243.673 92.0247 243.037C92.0061 242.7 91.3852 242.972 91.1144 242.887V240.305C91.8147 239.847 92.7717 239.637 93.0844 238.79C92.4449 238.308 91.7026 239.014 91.1144 239.094V236.966C91.5066 236.741 91.6793 236.409 92.1741 236.662C92.2722 236.058 91.5999 236.227 91.1144 236.203C91.0631 228.004 89.672 221.156 89.7513 212.825C89.7187 212.184 90.4282 212.292 90.657 211.918C90.5076 211.488 90.0174 211.96 89.7513 211.918C89.2145 207.685 90.769 205.552 92.0247 203.11C91.4506 214.247 92.6269 225.744 94.1441 235.745C94.6763 234.468 94.3869 232.419 94.2982 230.431C93.9107 222.105 92.8137 212.156 93.2385 203.718C93.2712 203.073 93.0984 202.348 93.2385 201.74C93.696 199.803 96.7396 197.1 95.2085 193.395C97.0757 193.858 98.0467 192.216 98.845 191.117C97.5659 191.103 95.75 191.861 95.2085 193.091C94.3075 191.814 93.1871 190.762 92.1788 189.602C93.3972 189.358 93.8734 188.362 95.3578 188.385C94.8117 189.054 93.6446 189.101 93.5419 190.21C93.3832 190.776 94.0507 190.504 94.1488 190.813C95.6099 190.303 96.6043 189.33 97.7853 188.54C103.607 188.951 110.343 188.984 112.327 185.05C108.345 185.453 102.472 186.136 97.1784 185.808C92.921 185.546 89.5599 184.148 86.1241 182.623C82.707 181.103 79.3086 179.975 76.1249 178.371H74.7617C75.5133 177.206 75.9148 175.681 76.2789 174.119C76.7831 174.161 77.3199 174.671 77.7914 174.269C78.6924 173.675 78.3562 171.448 76.7317 171.991C76.8951 171.397 77.0772 170.822 77.1892 170.171C75.4013 171.972 75.6814 175.845 74.463 178.217C73.7487 178.217 73.3146 177.95 72.647 177.913C73.0065 175.434 74.2062 173.001 74.1595 170.625C73.0345 171.837 72.8571 174.419 72.1896 176.238C72.0028 176.743 72.1615 177.931 71.1299 177.609C71.3493 175.331 72.9878 171.598 72.647 169.259C71.2606 171.72 70.8778 175.181 69.9208 178.062C69.5894 178.287 69.1039 178.357 68.8611 178.67C71.1019 174.535 70.7051 166.453 74.9205 163.796C74.9951 162.252 76.1622 161.799 76.4376 160.456C73.5947 162.365 72.3109 165.835 70.0749 168.347C69.9675 168.759 70.7891 168.24 70.6817 168.651C69.398 171.411 69.8601 175.925 67.0452 177.15C67.9742 174.891 69.1272 171.547 69.7714 168.497C69.6781 168.183 70.0142 167.44 69.468 167.589C69.7528 167.061 70.397 167.87 70.8311 167.131C70.9571 166.495 70.537 166.415 70.5277 165.92C72.2783 163.679 73.5713 160.975 75.3779 158.786C77.6747 158.964 79.7194 159.394 82.1935 159.394C82.3009 160.04 81.0265 161.097 80.2235 161.976C79.472 162.795 78.5897 164.367 77.6467 163.796C77.1285 163.436 78.6177 162.575 78.7064 161.822C79.1732 161.799 79.3879 162.355 79.766 161.972C79.8501 161.013 79.5933 160.386 80.2189 159.544C79.3926 159.787 79.2292 160.19 78.4029 160.152C78.0435 160.508 78.4263 160.896 78.4029 161.364C76.6057 163.408 74.8831 165.527 72.647 167.131C74.0148 167.44 75.1632 166.214 75.8261 165.311C76.4003 165.34 76.4003 165.948 77.0398 165.92C79.4673 164.507 81.2599 162.454 82.7957 160.152C83.0151 160.793 83.4259 161.237 83.706 161.822C83.3606 162.842 82.1982 163.043 81.736 163.946C81.2459 163.88 81.2972 163.267 80.6764 163.338C79.9901 163.408 79.8314 164.011 79.9201 164.853C79.8734 165.204 80.3589 165.021 80.3729 165.307C83.0805 165.223 83.1738 161.93 85.9794 162.425C85.6947 163.202 84.7704 163.342 84.4623 164.095C86.8524 164.694 88.3742 160.802 89.9147 159.235C90.7643 159.179 91.2872 158.791 92.1881 158.782C90.6056 161.139 88.8644 163.342 86.4322 164.853C87.814 166.163 88.4349 163.515 90.671 164.25C90.6476 164.933 89.7373 164.727 89.7653 165.461C91.2778 165.587 91.2825 164.179 92.795 164.699C93.2198 165.204 92.1461 165.176 92.3422 165.915C93.3645 165.775 93.654 164.905 94.919 165.007C95.6566 165.157 94.4382 165.648 94.1628 165.765C94.765 166.85 95.806 165.447 96.4362 165.157C98.4249 165.124 100.684 165.363 101.889 164.549C102.192 164.909 101.039 165.106 100.978 165.606C103.868 165.218 104.559 161.976 107.341 161.967C110.142 159.862 111.617 156.345 113.4 153.01C113.877 152.121 114.404 150.409 115.823 150.582C114.096 153.707 112.266 156.733 110.674 159.993C112.527 159.016 113.102 156.761 114.157 154.984C114.423 155.124 114.969 154.979 114.913 155.437C119.268 154.259 124.982 155.255 128.091 156.803C130.818 164.151 129.151 174.259 125.062 178.815C121.995 182.23 117.667 184.087 114.61 187.314C115.454 187.558 115.959 186.688 116.579 186.407C122.877 183.54 129.202 180.523 130.211 172.136C131.966 171.621 132.4 169.774 133.847 168.951C134.188 172.374 131.182 172.449 130.36 174.723C130.029 174.699 130.038 174.339 130.057 173.965C129.716 174.077 129.996 174.816 129.907 175.181C129.627 175.555 129.417 176.004 129.151 176.392C129.226 180.148 127.148 183.811 126.878 187.927C126.696 190.696 127.344 194.059 127.027 197.034C127.867 199.27 128.236 201.604 128.693 204.471C128.829 205.22 128.059 205.047 128.091 205.683C129.408 205.912 129.272 208.414 129.002 209.327C130.267 209.266 129.931 206.324 130.211 204.775C131.518 204.209 132.391 203.213 133.693 202.647C133.959 204.892 132.045 204.944 131.27 206.136C132.213 207.222 133.245 205.281 133.847 205.528C132.274 224.341 124.758 237.204 120.515 253.342C118.993 254.445 116.617 255.147 115.515 256.831C115.062 257.523 114.61 258.95 114.152 260.016C111.136 267.023 109.414 276.434 106.426 283.39C101.814 283.928 96.7957 284.059 91.8847 284.302C92.851 275.803 94.1441 267.645 94.3075 258.346C92.6316 266.111 91.9407 275.658 90.825 284.302C90.4656 284.648 89.3265 284.218 89.1585 284.76C89.5366 284.989 90.0781 285.05 90.671 285.064C90.7643 285.71 90.5636 286.065 90.5216 286.58H87.3379L87.3239 286.594ZM107.925 139.824C106.267 142.261 103.863 143.949 102.622 146.807C100.04 147.458 97.5752 148.229 94.8957 148.781C96.1981 146.826 97.79 144.263 99.5919 141.952C100.4 140.918 100.932 139.721 102.622 139.978C101.034 142.331 99.0224 144.267 97.9254 147.111C98.9384 147.542 99.1951 146.167 99.5919 145.591C100.857 143.776 102.594 141.648 104.139 139.978C105.408 139.936 106.884 140.095 107.925 139.829V139.824ZM105.198 138.762C106.225 136.755 109.428 136.929 111.561 136.03C110.487 137.99 108.597 139.132 105.198 138.762ZM102.323 138.612C102.514 137.644 103.644 137.607 104.9 137.7C104.573 138.538 103.625 138.748 102.323 138.612ZM84.1448 148.931C85.5219 147.846 86.3342 146.138 87.3239 144.684C88.3089 143.234 89.2845 141.765 90.3535 140.432C91.2778 140.245 92.4122 140.268 93.5326 140.278C91.4366 143.589 88.7337 146.298 87.3239 150.297C83.1738 150.638 78.9725 150.32 75.0512 149.993C74.6217 149.717 74.8551 148.772 73.8421 149.081C75.3406 146.485 76.699 143.748 78.0808 141.035C78.7064 141.054 79.0285 140.773 79.7474 140.881C78.3049 143.739 76.6617 146.391 75.3546 149.38C77.5066 147.593 78.5383 143.365 80.5036 140.881C81.0171 140.53 82.2449 140.904 82.777 140.577C81.2039 143.557 79.8081 146.709 78.0808 149.534C80.2982 147.603 81.512 143.355 83.3839 140.577C85.2278 140.399 87.2538 140.409 89.2892 140.427C89.4993 140.755 88.589 141.615 88.0754 142.247C86.6283 144.029 84.7097 146.223 84.1402 148.926L84.1448 148.931ZM59.7535 135.422C60.1269 135.909 60.5937 136.302 60.9672 136.788C60.3043 138.397 59.4547 139.824 58.8478 141.494C58.1803 141.353 58.1663 140.558 57.7881 140.128C58.3903 138.505 59.1606 137.055 59.7581 135.422H59.7535ZM57.1766 138.912C55.398 136.919 57.9142 134.707 58.3903 132.691C58.7265 133.215 58.8572 133.94 59.1466 134.515C58.5304 136.021 57.7788 137.396 57.1766 138.916V138.912ZM64.9025 148.173C65.0659 148.211 65.0052 148.477 65.2059 148.477C64.8418 149.581 64.0715 150.278 63.2359 150.905C62.9699 150.563 62.3723 150.554 62.3256 149.997C63.2406 149.445 64.0435 148.781 64.9025 148.173ZM61.266 149.235C60.5704 149.123 60.0849 148.8 59.9028 148.173C60.7711 147.238 61.6628 147.49 62.6291 148.173C62.3396 148.697 61.7001 148.861 61.266 149.235ZM59.7488 155.76C59.8515 155.302 61.266 154.857 61.7188 154.24C62.0362 154.427 62.307 154.656 62.6291 154.848C61.8728 155.358 60.5937 155.339 59.7488 155.76ZM63.0819 160.615C62.545 159.988 61.9008 159.469 61.5647 158.641C62.2369 159.133 62.8438 159.689 63.0819 160.615ZM58.8432 147.256C58.3997 147.247 58.2783 146.91 58.0822 146.648C58.3203 145.577 59.7768 145.282 60.0522 146.494C59.5854 146.686 59.254 147.013 58.8432 147.256ZM61.7188 137.696C62.2696 137.855 62.6337 138.196 63.0819 138.453C62.2463 140.348 61.5787 142.411 60.8085 144.37C60.379 143.889 59.9729 143.383 59.5994 142.855C60.0802 140.904 61.2006 139.599 61.7188 137.696ZM63.9922 138.757C64.6784 138.879 65.1686 139.197 65.8081 139.365C65.0052 141.545 63.9222 143.444 63.0819 145.587C62.8298 145.334 62.1903 145.47 61.7188 145.437C62.4844 143.22 63.5721 141.325 63.9922 138.757ZM66.8678 139.819C67.2973 139.693 67.2599 140.034 67.6241 139.969C66.6857 142.266 65.5934 144.408 65.0472 147.102C64.4263 147.107 63.9969 147.874 63.53 147.56C64.403 144.74 65.7428 142.387 66.8631 139.819H66.8678ZM68.6837 140.273C69.1552 140.357 69.6734 140.395 70.0469 140.577C68.7911 142.757 67.596 145.002 66.2609 147.102C66.5644 144.927 68.0442 142.616 68.6837 140.273ZM71.1065 140.727C71.3259 140.96 71.8815 140.862 72.3156 140.881C70.2009 143.921 69.2299 148.112 65.5 149.534C67.8061 147.037 69.2999 143.73 71.1065 140.731V140.727ZM73.3799 141.031H77.0165C75.4433 143.959 73.8421 146.854 72.3203 149.834H70.9571C71.62 146.962 74.2062 144.824 75.1959 141.788C72.6844 143.673 71.5827 146.971 69.7434 149.53C69.3093 149.548 68.7491 149.445 68.5297 149.679C67.9975 149.721 68.8051 150.353 68.3803 150.287C67.0872 150.755 65.9015 152.626 64.4403 151.957C64.9585 150.895 65.8688 151.059 66.7138 150.591C70.0655 148.739 70.9852 143.912 73.3799 141.031ZM67.4747 168.197C67.9322 166.195 68.9638 165.021 70.0515 163.038C71.1205 161.088 71.5453 159.198 74.1409 159.09C71.7087 161.916 70.2989 165.76 67.4747 168.197ZM69.1412 167.893C69.3139 167.926 69.2252 168.048 69.1412 168.043C68.539 169.498 68.1562 171.219 67.6287 172.749C67.1199 174.217 66.6157 175.826 65.5094 176.696C66.5317 174.175 66.541 169.334 69.1459 167.893H69.1412ZM92.4682 161.822C92.4122 161.373 92.2068 161.074 91.8614 160.91C92.6596 159.329 93.766 158.061 95.9507 157.874C94.9797 159.736 93.1685 162.065 91.4085 163.642H89.5926C89.8867 163.024 90.4329 162.659 90.8017 162.121C91.0678 162.257 91.2452 162.486 91.5579 162.58C92.1134 162.58 92.1368 162.047 92.4682 161.822ZM102.01 156.209C101.268 157.453 100.32 158.707 99.1344 160.307C98.2008 161.565 97.1411 164.147 95.0451 164.1C95.8153 162.828 96.931 161.827 97.9254 160.456C99.1438 158.772 99.7693 156.644 102.015 156.209H102.01ZM99.8907 151.957C99.3398 152.275 98.5322 152.257 97.9207 152.411C99.1344 151.401 100.017 150.063 101.707 149.525C102.197 149.427 100.502 151.602 99.8907 151.953V151.957ZM92.6176 163.95C94.0461 161.789 95.7313 159.886 97.0104 157.575C97.902 157.509 98.6116 157.257 99.2838 156.967C98.9243 158.071 97.818 159.016 96.707 160.456C95.736 161.724 94.793 164.165 92.6176 163.95ZM92.921 153.931C94.2748 152.505 95.3718 150.825 97.9207 150.591C96.4269 151.878 95.4699 153.702 92.921 153.931ZM91.2545 154.081C90.2695 154.156 89.4572 154.404 88.5283 154.535C89.8307 153.365 90.7503 151.803 93.0704 151.653C93.4485 152.257 91.5066 153.103 91.2545 154.081ZM88.5283 159.544C88.2062 160.031 87.814 160.447 87.4686 160.91C87.1231 160.746 87.4126 159.956 87.3192 159.544H88.5329H88.5283ZM84.5883 154.689C85.6853 153.51 86.6376 152.191 88.9811 152.261C89.5506 152.86 87.5526 153.435 87.772 154.689H84.5883ZM83.2252 154.689C81.8947 154.628 81.8247 154.899 80.4943 154.839C81.7174 153.739 82.3522 152.046 85.0411 152.411C84.4856 153.22 83.58 153.679 83.2252 154.689ZM78.529 154.689C77.9268 154.586 77.446 154.357 76.7084 154.385C77.9875 153.421 78.7857 151.747 81.1012 152.257C80.3356 153.159 79.2946 153.786 78.529 154.684V154.689ZM73.0765 153.931C74.3089 152.996 75.448 151.031 77.6187 151.957C76.2462 152.757 75.3593 154.506 73.0765 153.931ZM70.0469 153.323C71.3913 152.645 71.8161 151.05 74.1362 151.349C72.8478 152.009 72.0402 153.866 70.0469 153.323ZM66.8678 152.869C68.1562 152.313 69.1225 150.245 70.8078 151.05C69.622 151.742 68.6277 153.239 66.8678 152.869ZM95.0451 140.119H96.5622C94.1768 143.145 91.7353 146.11 90.1995 149.988C89.4246 149.866 89.1025 150.199 88.3836 150.138C88.2015 149.483 89.1865 148.697 89.7467 147.86C91.4039 145.381 93.1311 142.401 95.0497 140.119H95.0451ZM97.4679 140.119H99.5872C99.7786 140.54 98.9104 141.4 98.3782 142.092C96.9217 143.982 94.8864 146.457 94.2888 148.772C93.4532 149.3 92.1975 149.408 91.1051 149.684C93.0984 146.368 95.3112 143.276 97.4679 140.123V140.119ZM106.706 148.164C105.973 149.254 104.624 151.036 102.463 151.199C103.551 149.857 104.75 148.636 106.706 148.164ZM106.856 154.081C105.805 155.914 104.297 157.893 102.766 159.698C101.282 161.443 99.6853 163.6 97.3138 164.254C99.2698 161.462 101.333 158.768 103.07 155.755C104.372 155.241 105.787 154.834 106.856 154.086V154.081ZM106.856 155.751C108.27 153.875 109.008 152.425 111.398 151.653C108.34 156.176 106.179 162.917 99.4285 164.25C101.973 162 104.456 158.927 106.851 155.751H106.856ZM113.522 150.587C113.83 151.307 113.018 151.985 112.616 152.71C111.16 155.344 109.39 159.334 106.86 160.756C108.854 157.743 111.118 153.688 113.526 150.587H113.522ZM107.617 149.675C108.994 147.972 111.402 145.979 114.129 145.123C112.112 146.798 110.366 148.739 107.617 149.675ZM68.0769 177.145C68.3523 177.431 67.8388 178.217 67.7734 178.666C67.2599 178.778 67.526 178.104 67.1666 178.058C67.2973 177.585 67.8808 177.557 68.0722 177.145H68.0769ZM78.8324 185.799C79.8781 184.915 81.652 183.979 83.0758 183.975C81.7967 184.667 80.4756 185.948 78.8324 185.799ZM85.648 185.191C84.6397 185.649 83.8601 186.332 82.3195 186.253C83.2345 185.752 84.3829 184.845 85.648 185.191ZM77.4693 184.732C77.4226 184.377 76.9418 184.452 77.0165 183.975C78.3422 183.586 79.4253 181.926 80.8024 182.913C79.7567 183.586 78.5757 184.12 77.4693 184.732ZM75.9568 183.062C75.6394 182.772 75.2846 182.525 75.2005 182.001C76.475 181.491 77.4319 180.738 78.683 181.697C77.8474 182.225 76.9091 182.651 75.9568 183.062ZM72.9271 181.697C73.6507 180.944 74.673 179.606 75.9568 180.331C75.0885 180.845 74.0148 181.902 72.9271 181.697ZM70.5043 180.939C71.3166 180.336 71.8534 179.456 73.2306 179.419C72.549 180.069 71.7274 181.327 70.5043 180.939ZM68.8378 179.723C69.8741 179.582 70.1916 178.142 71.41 178.661C70.8871 179.218 69.3793 181.084 68.8378 179.723ZM92.1648 187.922C91.4926 188.161 90.8717 188.909 90.0454 188.53C90.3022 187.866 91.4599 187.665 92.1648 187.922ZM89.4386 233.607C87.3379 235.048 85.1392 236.381 82.9264 237.705C83.1132 237.003 82.6183 236.203 82.9264 235.885C84.7003 234.267 87.0905 233.275 88.9857 231.788C89.7373 231.788 88.9297 233.359 89.4432 233.607H89.4386ZM88.2248 220.707C85.6153 222.643 82.791 224.365 80.0461 226.165V224.496C82.7397 222.798 85.55 221.207 87.772 219.032C88.3695 219.14 87.9401 220.277 88.2248 220.702V220.707ZM87.772 215.697C85.1905 217.414 82.3616 219.692 80.0461 221.161C81.9928 218.204 84.7517 216.062 87.618 214.027C87.9634 214.289 87.674 215.187 87.772 215.697ZM85.9561 214.177C85.9561 213.171 87.2258 212.114 87.6226 210.987C87.9727 211.399 87.674 212.456 87.7767 213.115C87.0438 213.34 86.4976 213.751 85.9608 214.177H85.9561ZM87.9261 218.275C84.7283 219.421 82.8377 221.881 79.8968 223.284C80.499 221.783 82.1795 221.142 83.3792 220.248C84.7844 219.201 86.2642 218.195 87.4686 217.054C87.9914 217.086 87.744 217.896 87.9261 218.27V218.275ZM78.683 265.176C79.5326 264.661 80.3589 264.118 81.1058 263.506C81.8948 265.816 79.4299 266.177 78.5336 267.299C78.1789 266.785 78.8651 266.018 78.683 265.176ZM78.2302 268.211C79.2572 267.87 79.9948 267.243 80.8071 266.691C81.54 269.348 79.1919 270.237 77.9268 271.397C77.726 270.634 78.2956 269.339 78.2302 268.211ZM80.0461 271.093C81.0638 273.539 78.3096 274.811 76.8624 275.798C77.0725 274.793 77.4319 273.937 77.4693 272.762C78.4823 272.36 79.2806 271.743 80.0461 271.093ZM79.1358 261.836C80.1535 261.639 80.737 261.013 81.4093 260.47C82.1655 262.697 79.8314 263.141 78.9865 264.263C78.7437 263.763 79.1265 262.589 79.1358 261.836ZM81.5586 257.434C82.581 259.086 80.1675 259.876 79.4393 260.774C78.669 258.786 80.7464 258.337 81.5586 257.434ZM79.8921 254.703C80.709 254.46 81.3299 254.015 81.8621 253.487C82.5856 253.781 81.722 254.909 82.0115 255.765C81.3346 256.349 80.5643 256.845 79.8921 257.434C79.5233 256.756 80.1022 255.722 79.8921 254.703ZM89.1305 260.166C86.4696 261.293 84.5603 263.178 82.0115 264.418C82.2915 264.09 82.1142 263.305 82.1655 262.748C84.3316 261.078 86.7543 259.661 88.8317 257.897C89.4946 258.089 88.9624 259.483 89.1351 260.171L89.1305 260.166ZM89.2798 257.13C86.7497 258.342 84.6116 259.942 82.4643 261.537C82.1188 261.326 82.4082 260.475 82.3149 260.016C84.4529 258.216 86.9878 256.808 89.1305 255.011C89.686 255.096 89.0558 256.387 89.2798 257.135V257.13ZM89.4339 254.399C86.8991 255.4 84.7237 256.761 82.7677 258.346C82.4223 258.131 82.7117 257.289 82.6183 256.826C84.705 255.119 87.1698 253.8 89.2845 252.121C90.0081 252.415 89.1445 253.543 89.4386 254.399H89.4339ZM89.7373 250.909C87.2118 252.069 85.0458 253.594 82.9218 255.156C82.4969 254.576 83.1365 253.763 82.9218 252.879C85.0084 251.227 87.5806 250.053 89.588 248.327C89.9381 248.889 89.6393 250.095 89.7373 250.909ZM83.0711 245.441C85.2652 244.047 87.4499 242.644 89.588 241.19C89.9381 241.648 89.6393 242.756 89.7373 243.463C87.5013 244.712 85.2605 245.965 83.2252 247.411C82.8751 247.05 83.1692 246.049 83.0711 245.437V245.441ZM89.7373 247.715C87.1745 248.491 84.9478 250.404 83.0711 251.358V248.627C85.0738 247.195 87.3285 246.012 89.4339 244.684C90.1155 245.119 89.5553 246.788 89.7373 247.719V247.715ZM80.1955 229.5C80.8257 229.421 81.4093 228.495 81.8621 228.743C82.4876 230.01 80.8584 230.24 80.3496 230.871C80.0041 230.712 80.2935 229.917 80.1955 229.505V229.5ZM82.0115 232.536C81.3486 232.779 81.0451 233.387 80.4943 233.752C79.9108 233.579 80.3076 232.419 80.1909 231.783C80.7604 231.437 81.3859 231.156 81.8574 230.717C82.2029 231.025 81.9134 231.98 82.0068 232.536H82.0115ZM82.1655 234.814C81.4933 235.048 81.0171 235.483 80.499 235.876C80.1582 235.712 80.4429 234.922 80.3496 234.51C81.2599 234.59 82.3662 232.812 82.1655 234.814ZM80.499 239.515C80.1488 239.108 80.4476 238.056 80.3496 237.391C80.8817 236.961 81.5866 236.708 82.0161 236.175C83.1925 237.873 81.568 238.846 80.499 239.515ZM82.4689 241.185C81.7314 241.554 81.1385 242.074 80.499 242.551C80.1535 242.242 80.4476 241.292 80.3496 240.726C80.9611 240.231 81.7687 239.927 82.3195 239.365C82.665 239.674 82.3756 240.624 82.4689 241.185ZM82.4689 244.525C81.8434 245.062 81.0405 245.423 80.499 246.045C80.1488 245.535 80.4476 244.38 80.3496 243.617C80.9424 243.196 81.652 242.897 82.1655 242.401C82.8284 242.551 82.3009 243.884 82.4689 244.525ZM80.499 249.838C81.0872 250.217 81.708 249.333 82.1655 249.08C82.9498 251.536 81.61 253.178 79.8921 253.636C80.2655 251.733 80.4103 249.6 80.3449 247.261C81.0545 246.957 81.6567 246.55 82.1608 246.045C83.4119 247.92 80.8958 248.608 80.4943 249.838H80.499ZM88.3742 223.125C86.2735 224.566 84.1028 225.927 82.0115 227.377C81.8341 227.349 81.8854 227.101 81.8621 226.923C81.6893 227.868 80.7464 228.032 80.1955 228.588C79.8501 228.378 80.1395 227.536 80.0461 227.073C80.5503 227.064 81.3486 225.932 81.5586 226.615C83.3606 224.673 86.1008 223.672 88.0708 221.909C88.6683 221.815 88.2528 222.746 88.3742 223.125ZM85.4939 227.377C84.1075 228.261 83.0711 229.178 82.1655 229.5C82.2869 228.972 81.9414 228.916 82.0115 228.439C84.1215 227.012 86.3389 225.693 88.3742 224.192C89.5179 225.707 86.773 226.563 85.4939 227.377ZM88.6777 226.315C89.0558 227.658 89.0044 229.426 89.1305 231.021C86.5163 231.638 84.9478 233.303 82.6183 234.211C82.7444 232.971 84.733 233.598 84.8917 232.387C84.663 231.928 84.2289 232.517 83.8274 232.387C85.2932 230.918 87.5106 230.207 88.6777 228.439C86.4696 228.864 84.4576 230.787 82.6183 232.082C82.3756 231.671 82.3055 231.081 82.3149 230.413C84.4389 229.051 86.647 227.775 88.6777 226.315ZM89.588 236.788C87.4406 238.079 85.1578 239.225 83.2252 240.736C82.8751 240.427 83.1692 239.473 83.0711 238.916C85.1532 237.564 87.3612 236.334 89.2798 234.819C89.5226 235.333 89.5926 236.026 89.5833 236.788H89.588ZM89.7373 239.828C87.4686 241.143 85.1812 242.443 83.2252 244.076C82.8751 243.617 83.1692 242.509 83.0711 241.802C85.2419 240.539 87.3986 239.253 89.4339 237.854C90.0874 237.957 89.5739 239.23 89.7373 239.828ZM79.1358 286.725C79.0892 285.738 80.1908 285.088 80.8024 284.601C82.9124 282.913 85.4939 281.271 87.4686 279.288C87.646 279.26 87.7393 279.32 87.772 279.437C87.3472 281.996 86.5443 284.176 85.9561 286.57H83.5333C83.1178 286.075 84.8217 285.153 85.3492 284.601C83.2952 284.718 82.581 287.492 79.1405 286.725H79.1358ZM79.5887 274.886C80.0975 277.066 78.585 278.539 77.4693 279.592C78.0201 279.984 78.6177 279.133 78.9865 278.834C79.5513 281.219 76.9464 281.748 76.1062 283.235C76.8764 283.507 77.6747 282.613 78.2255 282.174C78.0762 283.946 78.1789 287.291 75.1959 286.729C75.7187 283.259 76.1482 279.69 76.7084 276.257C77.9314 276.598 78.7717 275.443 79.584 274.886H79.5887ZM62.4704 247.415C62.2416 248.772 62.5217 250.652 62.0175 251.966C61.6581 252.897 60.2296 253.51 59.5947 253.94C59.9822 250.928 60.5004 248.126 61.1119 245.287C61.6861 242.611 63.0819 239.875 62.475 237.087C59.5947 242.654 58.9552 250.456 57.7788 257.729C57.7601 258.37 57.2326 258.501 57.0226 258.941C58.2783 259.703 56.8965 262.004 56.1123 261.677C56.7985 251.536 58.2643 242.176 60.351 233.444C60.6357 233.177 60.9205 232.906 61.2613 232.686C63.8428 225.019 66.0835 213.943 64.1369 204.153C64.2209 203.424 65.0005 203.4 65.346 202.937C64.9445 202.006 63.9408 203.714 63.53 202.787C63.1986 201.665 64.9912 201.581 65.346 200.664C64.2676 200.224 63.5814 201.398 62.3163 201.267C60.8505 202.497 58.8992 203.484 57.1673 204.612C55.4961 205.697 53.4467 206.745 52.9239 208.559C54.6978 208.344 56.0376 206.712 57.6201 205.673C59.1979 204.635 60.8785 203.662 62.4657 203.091C62.5544 204.223 61.1119 204.584 60.3463 205.07C57.8909 206.609 54.8005 208.513 52.9239 210.833C53.8902 210.968 54.7772 210.117 55.5007 209.617C57.7881 208.045 60.2249 206.197 62.9232 204.916C63.0305 206.165 61.6067 206.787 60.7991 207.339C58.2643 209.088 55.5567 210.978 52.9239 212.802C52.6811 210.725 52.3544 208.723 52.1676 206.581C55.2066 204.846 58.8105 202.703 62.4657 200.664C63.5207 200.074 64.9072 198.746 65.7988 198.536C66.8258 198.297 68.1982 199.218 68.8284 197.928C66.6717 196.496 63.6141 195.968 60.7991 195.196C60.2483 195.201 60.407 195.916 60.0429 196.108C56.9199 197.025 54.399 199.359 52.0136 200.509C51.9155 199.364 53.3207 199.223 53.9836 198.84C56.0889 197.619 58.7405 196.267 60.1969 194.288C57.2093 194.742 54.4177 197.507 52.0182 198.54C51.4627 197.511 52.5177 197.558 53.0779 197.179C54.4784 196.23 56.4017 194.99 57.7741 193.835C56.243 190.261 53.5774 187.824 51.4114 184.882C51.0519 181.131 52.247 178.937 54.2917 177.599C57.1719 177.903 59.8702 176.121 62.1669 177.295C62.6151 177.674 62.265 177.805 62.1669 178.357C62.5824 178.778 62.7971 178.217 63.2266 178.207C64.7391 179.503 65.9855 181.814 68.2262 182.459C68.6931 182.59 69.1459 182.454 69.5894 182.609C70.0142 182.754 70.4436 183.17 70.9525 183.362C72.0775 183.797 73.1979 183.755 73.9821 184.424C75.1352 185.411 75.2706 186.912 76.559 187.763C81.0311 190.111 90.8297 187.127 89.7373 195.051C88.4209 198.002 85.6433 199.635 83.0711 201.581C81.9414 202.432 80.4803 203.162 79.8921 204.462C80.6483 205.266 81.3812 204.266 82.0115 204.004C84.7704 202.872 88.1408 201.599 89.8867 199.298C90.0594 199.331 89.9707 199.452 89.8867 199.452C88.4723 204.78 85.634 208.7 82.9171 212.657C80.1628 216.67 76.5357 219.664 73.5247 223.279C68.0255 229.884 64.2256 236.905 62.4657 247.411L62.4704 247.415ZM53.9882 193.227C54.2403 192.025 55.5474 192.291 56.411 193.227C56.3643 193.634 55.7761 193.503 55.6548 193.83C55.9956 193.128 54.5904 192.483 53.9882 193.227ZM52.9285 203.395C56.3223 202.235 59.5574 199.611 62.6244 197.623C63.5114 197.801 64.5057 197.867 64.8978 198.536C59.9915 200.248 55.9909 202.867 52.1723 205.669C51.8222 204.86 52.1209 203.395 52.0229 202.329C54.5671 200.126 57.8862 198.695 60.6544 196.716C61.3547 196.725 61.6394 197.146 62.1716 197.324C58.8525 199.106 55.314 200.669 52.9285 203.395ZM53.386 215.538C56.257 212.998 60.0849 211.427 62.9278 208.859C63.5394 208.798 63.0959 209.808 63.2313 210.225C59.7348 211.983 57.0366 214.542 53.5354 216.296C53.4514 216.071 53.7128 215.51 53.386 215.538ZM62.6291 220.393C59.6928 221.956 56.9759 224.552 54.4457 226.011C54.217 224.229 56.8078 223.046 58.2316 222.068C60.0616 220.805 61.378 220.029 62.4704 219.032C63.2126 219.126 62.391 219.851 62.6244 220.393H62.6291ZM62.9325 217.512C59.8235 219 57.228 221.811 54.4504 223.13C54.3663 222.031 55.6548 221.745 56.2663 221.306C58.409 219.776 60.6591 217.971 62.7785 216.301C63.1192 216.413 62.8391 217.152 62.9325 217.512ZM54.2963 221.156C53.6568 219.851 55.1179 219.36 55.8088 218.883C58.1149 217.283 60.7618 215.468 63.0819 213.873C63.53 214.098 62.8812 214.467 63.0819 214.935C59.7628 216.614 57.3447 219.205 54.2963 221.156ZM53.9929 218.579C53.4047 217.437 55.0059 216.862 55.6594 216.455C58.0822 214.94 60.8692 213.223 63.0819 211.445C63.4227 211.558 63.1426 212.297 63.2313 212.662C59.8001 214.182 56.7425 216.881 53.9929 218.579ZM53.386 214.327C53.162 214.046 53.0966 213.606 53.0826 213.115C53.3627 213.41 53.6381 213.162 53.9882 213.115C57.0039 211.127 59.9869 209.107 62.7738 206.89C63.3526 206.768 62.9652 207.61 63.0772 207.951C59.4267 209.654 56.4484 212.035 53.3814 214.322L53.386 214.327ZM61.7188 253.641C62.475 255.17 60.2296 256.279 59.296 257.13C58.5631 255.03 60.9859 254.782 61.7188 253.641ZM67.3253 241.04C66.9378 240.9 66.4663 240.792 66.2656 241.19C65.7661 240.231 67.0359 239.735 67.4793 239.22C67.8715 239.674 67.1386 240.287 67.3253 241.04ZM66.7184 243.622C65.8501 243.463 65.8315 244.15 65.2059 244.225C65.36 242.864 66.373 242.359 67.0219 241.494C67.2459 241.933 66.7884 242.976 66.7184 243.622ZM64.5991 247.715C64.1556 246.311 65.6634 245.549 66.2656 244.679C67.1105 245.904 65.2526 246.985 64.5991 247.715ZM63.6888 250.755C63.8241 249.272 65.0379 248.865 65.8081 248.019C66.387 249.614 64.6551 250.198 63.6888 250.755ZM65.3553 253.028C64.4497 252.71 63.7214 253.786 63.0819 254.244C62.5637 252.303 64.5897 251.606 65.5047 250.601C65.8128 251.167 65.3273 252.238 65.3506 253.028H65.3553ZM65.0519 255.605C62.7831 256.873 61.0512 258.679 58.6891 259.857C58.9412 259.605 58.8105 258.969 58.8432 258.496C61.0932 256.906 63.1986 255.166 65.2059 253.332C65.36 253.692 65.1499 254.988 65.0519 255.61V255.605ZM64.9025 258.187C62.5124 259.432 60.8692 261.429 58.5397 262.739C58.493 262.135 58.8105 261.901 58.6938 261.223C60.8271 259.867 62.8485 258.403 64.7531 256.822C65.0986 256.981 64.8138 257.776 64.9072 258.187H64.9025ZM58.6938 265.929C57.9889 264.128 60.1736 262.977 61.42 261.981C62.6244 261.017 63.8055 260.377 64.4497 259.549C65.6214 262.921 60.2903 263.941 58.6938 265.929ZM63.8428 265.321C61.9195 266.682 60.1969 268.244 58.3903 269.722C58.1476 269.32 58.5444 268.263 58.3903 267.444C60.2203 266.041 62.2556 264.844 63.9969 263.347C64.3983 263.861 63.7354 264.596 63.8475 265.321H63.8428ZM60.5097 282.927C59.4454 282.782 58.2876 282.725 57.1766 282.623C57.326 278.726 58.0402 275.391 58.0869 271.392C59.7955 269.82 61.8775 268.609 63.39 266.836C63.0072 272.168 61.2566 277.449 60.5097 282.927ZM60.2063 283.988C60.0662 285.565 58.3437 285.565 56.5697 285.504C56.2243 283.156 58.8572 284.372 60.2063 283.988ZM55.0572 282.468H53.2413C54.455 276.196 55.244 269.502 55.9675 262.734C56.6631 262.879 56.7005 262.36 57.3307 262.435C57.466 264.034 56.3597 264.399 55.8135 265.316C55.8742 266.032 56.8125 265.536 57.0272 265.774C57.4194 267.224 56.2336 267.103 55.9675 267.898C55.8788 268.44 56.4157 268.356 56.8778 268.356C56.2803 273.071 55.8882 277.992 55.0619 282.468H55.0572ZM52.331 285.205C52.401 284.007 53.2366 283.581 54.7538 283.834C54.6791 284.47 54.4644 284.957 54.301 285.504C53.8669 285.181 52.7885 285.504 52.331 285.205ZM46.4211 282.927C47.7655 283.352 49.4227 283.465 50.9632 283.684C50.7998 284.227 50.7298 284.863 50.5104 285.354C49.208 284.938 47.336 285.092 46.1176 284.596C46.3464 284.166 46.2624 283.422 46.4211 282.927ZM53.6941 230.866C56.5744 228.949 59.6788 227.251 61.7234 224.491C58.6984 225.562 56.467 228.233 54.1516 229.5C54.1283 228.724 54.175 228.004 54.455 227.531C56.7238 225.3 59.8095 223.888 62.1809 221.759C62.3957 224.556 61.1399 227.19 60.5144 229.65C58.4744 231.301 55.9862 232.503 54.7585 234.964C56.7425 234.618 58.353 231.788 60.0616 231.17C55.286 246.316 55.0806 266.041 51.4254 282.319C49.5814 282.351 48.139 281.968 46.5798 281.711C49.4647 265.274 52.2797 248.772 53.6988 230.866H53.6941ZM50.8138 174.709C51.1733 174.105 51.7288 173.703 52.0276 173.039C52.4244 173.399 52.9425 173.642 53.0873 174.255C52.1116 174.189 51.8035 174.793 50.8138 174.713V174.709ZM49.4507 186.692C49.8615 187.244 50.3984 187.67 50.8138 188.212C50.7812 188.68 50.3937 188.802 50.207 189.124C50.1836 189.854 50.9726 189.775 50.8138 190.64C49.9409 189.747 49.7355 188.184 49.4507 186.692ZM48.8439 168.632C49.2033 168.081 49.7635 167.734 50.207 167.267C51.6168 169.049 48.8159 169.568 49.3013 171.818C48.8392 171.069 48.8345 169.853 48.8439 168.632ZM50.8138 163.927C50.9025 164.975 50.0669 166.415 48.8439 166.659C48.8065 165.054 50.0763 164.76 50.8138 163.927ZM51.416 163.015C50.7905 163.352 50.0436 163.562 49.6001 164.077C49.4414 162.149 50.7812 160.4 52.7792 160.129C53.1339 160.709 51.5187 161.883 51.416 163.01V163.015ZM52.9332 165.592C55.9302 167.402 57.5734 170.555 59.296 173.637C56.0936 174.269 53.5774 172.894 52.4804 170.906C51.374 171.462 50.6925 173.263 50.5104 174.245C49.7215 174.526 49.6001 172.828 49.3013 172.117C50.8652 172.141 50.347 169.535 51.8782 169.994C52.317 168.965 52.7231 167.267 52.9379 165.587L52.9332 165.592ZM60.3557 164.834C59.8608 168.53 60.2996 172.571 63.0819 173.488C63.5721 172.351 62.7038 170.995 62.6291 169.39C62.4937 166.635 63.1846 163.983 64.7484 162.711C63.9688 164.713 63.544 168.385 63.0819 171.21C64.445 170.344 64.2349 168.085 64.5991 166.35C64.9725 164.554 65.36 162.903 66.1115 161.644C67.428 160.933 68.8658 160.353 70.6584 160.124C69.6174 161.967 68.357 163.585 67.4793 165.587C65.346 164.619 63.7121 167.585 65.6634 168.473C65.3273 169.657 64.4403 170.279 64.3003 171.659C65.7474 171.336 65.8221 169.643 66.8771 168.927C65.9108 171.097 65.2993 173.623 64.4543 175.911C63.0119 175.7 64.5104 174.241 64.0015 173.333C63.0352 173.277 63.3713 174.521 62.9418 175.003C62.1342 174.596 61.364 174.152 60.365 173.941C59.422 169.521 56.2103 166.57 53.5494 164.381C54.3057 163.932 54.9732 164.998 55.5194 165.442C57.3027 166.897 58.8572 169.166 60.253 171.06C60.1129 167.791 56.5978 164.848 54.0022 163.469C55.9395 163.258 57.5687 166.392 59.6087 167.112C58.6844 164.853 56.453 163.904 54.4597 162.711C54.6651 162.004 55.0619 161.495 55.5194 161.041C57.396 162.042 58.7358 163.585 60.365 164.834H60.3557ZM56.2663 160.129C57.1019 160.04 58.1616 160.938 58.9925 161.495C59.7955 162.033 61.0979 162.566 60.9625 163.469C59.4734 162.879 58.0542 160.924 56.2663 160.129ZM59.5994 160.583C59.0019 160.671 58.1756 159.684 57.326 159.521C58.4043 158.697 58.8292 160.208 59.5994 160.583ZM56.2663 144.796C56.5791 144.3 57.0506 143.963 57.48 143.585C57.9329 143.687 57.9889 144.188 57.9329 144.796C57.5221 144.89 57.2233 145.1 57.0272 145.404C56.6771 145.301 56.6211 144.899 56.2663 144.796ZM54.7491 142.368C55.272 142.186 55.5474 141.756 55.9629 141.456C56.4764 141.55 56.1543 142.476 56.4157 142.822C55.6548 143.519 54.9452 143.772 54.7491 142.364V142.368ZM52.7792 138.725C53.344 138.477 53.8575 138.187 54.1423 137.663C54.2777 137.728 54.413 137.794 54.4457 137.967C54.4457 138.874 53.4981 138.837 53.5354 139.786C53.5728 139.95 53.8388 139.889 53.8388 140.09C54.5764 140.221 54.5391 139.581 55.0479 139.482C55.174 139.861 55.4634 140.076 55.5007 140.544C54.9172 140.717 54.6371 141.199 53.9836 141.302C53.5961 140.423 53.0733 139.684 52.7698 138.72L52.7792 138.725ZM52.0229 136.447C52.6951 135.96 53.3627 135.464 53.8388 134.777C54.1843 135.039 53.8949 135.937 53.9882 136.447C53.4934 136.914 52.8305 137.214 52.4757 137.813C52.2236 137.462 52.0789 136.994 52.0229 136.447ZM51.7195 132.957C52.4057 132.279 53.26 131.769 53.8435 130.983C54.1936 131.493 53.8949 132.653 53.9929 133.411C53.232 133.813 52.5691 134.314 52.0229 134.931C51.6541 134.538 52.0509 133.383 51.7195 132.957ZM55.0526 127.19C55.0012 128.607 53.7875 130.17 52.3263 130.679C52.429 128.706 54.189 128.401 55.0526 127.19ZM61.1119 117.475C61.4247 119 59.3146 120.936 58.2316 122.18C56.9665 123.644 56.1029 124.781 55.5054 126.432C54.455 126.39 54.2216 127.171 53.386 127.344C53.9789 124.599 56.4157 123.701 57.7788 121.731C57.6808 121.362 57.0692 121.708 57.0226 121.881C57.6994 120.333 58.8805 117.975 61.1119 117.48V117.475ZM59.7488 90.1537C61.0839 89.6158 61.5087 88.1751 62.3256 87.118C62.7878 87.5156 63.2079 87.9506 63.3853 88.6382C62.489 90.121 61.336 91.3418 60.505 92.89C59.8515 92.4316 59.9635 91.2062 59.1419 90.9161C58.8105 90.8881 58.6611 91.0378 58.6891 91.3699C58.297 91.0565 58.255 90.3876 57.9329 90.004C58.9365 88.4277 60.1222 87.0338 60.9625 85.2985C61.5087 85.5604 61.7981 86.0796 62.0222 86.6643C61.1306 87.6934 60.2063 88.6897 59.7488 90.1537ZM59.7488 83.4743C60.1409 83.4883 59.9682 84.0683 60.3557 84.0824C59.506 85.7054 58.3997 87.0759 57.48 88.6335C57.0086 86.8514 59.3613 85.3921 59.7535 83.4743H59.7488ZM56.5651 86.6596C55.468 85.0085 58.0356 83.4836 58.3857 81.8044C59.7628 83.217 57.0272 85.1301 56.5651 86.6596ZM60.9579 116.259C60.9765 116.53 60.7711 116.577 60.8038 116.867C60.5377 116.956 59.9122 116.684 59.8935 117.016C59.5947 116.661 60.421 115.847 60.9532 116.259H60.9579ZM55.8088 89.396C57.2886 92.6702 59.268 96.2485 59.5947 100.173C57.6248 97.067 54.9686 94.9949 55.8088 89.396ZM57.326 80.2889C57.4894 80.3263 57.4287 80.593 57.6294 80.593C57.1626 82.1506 56.0236 83.0346 55.5101 84.5407C55.1366 83.3246 56.6678 81.4817 57.326 80.2936V80.2889ZM53.386 80.897C54.0349 79.9755 54.5297 78.9091 55.0526 77.8613C55.8228 77.9502 55.8275 78.8062 56.4157 79.0774C55.7948 80.2796 55.1133 81.4115 54.5998 82.7212C53.8855 82.4265 53.7315 81.5659 53.386 80.897ZM53.2366 75.7377C53.8762 75.8547 54.0442 76.444 54.4457 76.7995C54.0256 77.9455 53.1946 78.6799 52.7792 79.8352C51.3414 78.577 52.6344 77.0147 53.2366 75.7377ZM50.3564 75.1297C50.5664 74.4795 51.1546 74.2082 51.1126 73.3054C51.7942 73.6375 51.9856 74.4561 52.6298 74.8256C52.1723 75.5319 51.8035 76.3224 51.1126 76.7995C51.0192 76.0839 50.4264 75.8687 50.3564 75.1297ZM49.4507 72.094C49.9269 72.2203 49.8802 72.8751 50.3564 73.0014C50.333 73.5908 49.7448 73.6001 49.6001 74.0632C48.9046 73.5674 48.9559 72.7488 49.4507 72.0893V72.094ZM47.9336 69.9704C48.4237 70.0873 48.7272 70.3914 48.8439 70.8825C48.5684 71.2146 48.2557 71.5046 48.0876 71.9443C47.2473 71.5093 47.5975 70.6954 47.9382 69.9704H47.9336ZM45.5108 69.0583C45.6368 68.6794 45.9262 68.4642 45.9683 67.9965C46.7105 68.1649 46.8645 68.918 47.4854 69.208C47.0886 69.4185 46.9626 69.9002 46.4257 69.9657C46.1877 69.5962 45.8842 69.2922 45.5154 69.0536L45.5108 69.0583ZM43.9983 67.2388C44.0076 66.5278 44.7499 66.0226 45.2073 66.6307C45.1747 67.2013 44.6378 67.2715 44.6005 67.8468C44.3344 67.7112 44.129 67.5054 43.9936 67.2388H43.9983ZM42.3317 65.1152C42.7985 65.1526 43.0133 65.4426 43.3914 65.5689C43.1533 66.5371 41.9443 65.5923 42.3317 65.1152ZM40.6652 64.0534C40.5671 63.4968 40.9919 63.4734 40.9686 62.9916C41.5568 63.0103 41.5661 63.609 42.0283 63.7493C41.5895 64.2311 41.1413 64.741 40.6652 64.0534ZM38.6952 61.1721C39.3861 61.3405 39.8342 61.7474 40.0583 62.3835C39.8716 62.449 39.7502 62.58 39.7549 62.8372C39.1293 62.5472 38.2937 62.0234 38.6952 61.1674V61.1721ZM34.4518 54.3383C36.7112 51.1389 38.6719 47.6401 40.9639 44.4735C42.257 45.0488 43.0506 46.1246 43.8396 47.2051C41.7249 50.0443 39.4561 52.7292 38.5365 56.7659C40.6652 53.9407 42.2244 50.5448 44.2924 47.6588C45.2213 48.0938 45.7302 48.9498 46.2623 49.7871C45.0533 51.2558 44.0123 52.7713 42.9293 54.3383C41.9349 55.7789 40.4784 57.2991 40.3571 59.4975C42.4298 56.4151 44.4277 53.2578 46.5658 50.2408C47.294 50.4232 47.4014 51.2231 47.9289 51.6066C46.9999 53.0847 46.0663 54.7312 45.0533 56.3122C44.1383 57.7294 42.5651 59.2824 43.0833 61.1674C44.7965 58.2299 46.4958 55.2784 48.3817 52.514C49.3434 52.9724 49.5394 54.1886 50.3517 54.792C49.4414 56.1344 48.3304 57.547 47.322 59.0438C46.4351 60.3629 44.9272 61.869 45.3521 63.5997C46.3931 63.0664 46.9719 61.3124 48.0783 59.6519C48.251 59.3946 50.3704 55.8818 50.8045 55.8584C51.5748 55.8163 51.5794 57.3927 52.3217 57.5283C50.6411 60.2459 48.6291 62.6314 47.4761 65.8776C46.2017 65.335 45.3754 64.0721 44.2924 63.146C41.0666 60.3816 37.1547 57.7388 34.4471 54.3429L34.4518 54.3383ZM29.6015 45.2312C31.7676 44.0618 32.8739 40.5163 35.054 38.8558C35.7309 39.5995 34.7319 40.6005 34.2977 41.2834C32.8319 43.5894 30.9086 46.3725 29.6015 48.875C28.4765 47.8272 27.6269 46.4988 26.5719 45.3809C28.6025 42.5604 30.5118 39.6136 32.4771 36.7276C33.0933 37.2748 33.7189 37.8081 34.2977 38.3974C32.6172 40.5584 30.5492 42.3359 29.6015 45.2265V45.2312ZM26.1191 44.4735C25.3441 44.1881 24.9567 43.5099 24.6066 42.8036C26.2171 39.9644 28.3084 37.6069 30.059 34.9127C30.7779 35.053 31.1094 35.5816 31.5762 35.9745C29.5782 38.6313 27.7202 41.4237 26.1237 44.4735H26.1191ZM36.1183 39.9223C36.6412 40.1094 36.9213 40.535 37.3274 40.8344C35.3434 44.1554 33.056 47.177 31.1187 50.5495C31.1747 50.3063 29.933 49.9508 29.9096 49.4877C29.8863 49.1322 30.8946 48.5569 31.1187 48.2762C32.6032 46.4099 34.8346 41.9149 36.1183 39.927V39.9223ZM38.0883 41.5921C40.0116 41.9289 38.1677 43.6081 37.3321 44.7822C35.7309 47.0227 33.6022 50.1613 32.4865 52.2194C32.1364 52.1165 32.0803 51.7142 31.7302 51.6113C33.7236 48.15 36.151 45.1143 38.093 41.5921H38.0883ZM39.6008 43.1123C40.189 43.131 40.1984 43.7251 40.6605 43.8701C38.2004 47.0227 35.955 50.3905 34.1437 54.1886C33.6022 53.9266 33.3921 53.3279 32.9346 52.9771C35.2781 49.8151 37.4628 46.4848 39.6008 43.1123ZM36.5712 59.3525C37.0753 59.6098 38.0883 59.9887 37.6308 60.7183C37.066 60.4517 36.3097 59.9933 36.5712 59.3525ZM22.94 45.2359C23.0147 44.7027 23.1641 44.2489 23.0894 43.566C24.1304 44.8477 25.6196 45.6849 25.965 47.6635C27.0107 47.7804 27.6502 48.8609 28.5419 49.9414C29.4195 51.0032 30.4138 51.6534 30.0543 52.6731C30.2317 52.6965 30.3251 52.6403 30.3578 52.5187C31.9683 53.791 32.916 55.7228 34.5965 56.9202C32.5892 56.6022 31.1327 54.4225 30.0497 52.6684C27.5849 50.8863 25.1854 47.7337 22.9307 45.2312L22.94 45.2359ZM22.3331 40.6847C23.7243 37.6256 25.9183 35.3758 27.6362 32.6394C28.4812 32.9061 28.7379 33.7667 29.4522 34.1596C27.6409 36.8445 25.0454 38.7529 24.1491 42.3546C23.4675 41.8728 23.0054 41.1712 22.3331 40.6847ZM21.7263 40.0766C20.9887 39.5995 20.3538 39.0242 19.761 38.4068C21.5862 35.7359 23.3695 33.023 25.5169 30.6655C26.2078 30.9836 26.7166 31.4888 27.0294 32.1857C25.0921 34.6461 23.0567 37.0082 21.7263 40.0766ZM20.6666 42.8083C20.7926 42.2283 20.9233 41.6483 20.97 40.9887C21.8803 41.7933 22.8233 42.5697 22.4825 44.6325C21.815 44.0899 21.2081 43.4818 20.6666 42.813V42.8083ZM15.9704 38.4068C16.2131 38.0793 15.9704 37.3403 16.2738 37.0409C18.7293 34.618 21.5442 31.6104 23.6963 28.9957C24.3358 29.0658 24.3918 29.716 24.91 29.9078C22.6039 32.0548 20.914 34.8051 19.4575 37.7987C19.5276 38.1214 19.2428 38.0887 19 38.1027C19.1588 38.5331 19.1588 38.7342 19 39.1645C19.1308 39.6136 19.2288 38.8137 19.6069 39.0148C20.4285 39.8568 20.3445 40.7923 20.0597 42.2002C19.4902 41.7558 18.986 41.2507 18.5426 40.68C18.6079 39.3142 19.3081 37.3637 18.6966 36.2785C17.763 36.8585 17.8563 38.4723 17.6369 39.7679C16.9367 39.4592 16.4932 38.8932 15.9704 38.4021V38.4068ZM16.4232 33.5515C18.1084 31.3952 19.873 29.3184 21.5722 27.1761C22.1931 27.2089 22.5105 27.555 22.786 27.9386C20.7833 30.586 18.3418 32.7985 16.5772 35.6798C16.1011 35.2448 16.988 34.0801 16.4232 33.5562V33.5515ZM13.851 36.2832C14.3785 35.343 13.9117 33.4112 14.7613 32.7891C14.5326 32.4149 14.4485 31.8864 14.0051 31.7273C16.1945 29.9265 17.6743 27.41 19.6116 25.3519C20.1671 25.656 20.76 25.9226 20.9747 26.5681C18.4585 28.701 16.3252 31.2175 14.766 34.3093C15.1581 34.7162 15.2235 34.1269 15.6763 34.1596C15.6249 35.4225 15.3682 36.4843 15.2235 37.649C14.7053 37.2561 14.2478 36.8024 13.8604 36.2832H13.851ZM11.5776 34.1596C11.741 33.0557 12.0398 32.0922 12.0351 30.8199C12.6139 31.2502 13.3328 31.5402 13.7016 32.1857C13.6409 33.3411 13.2582 34.169 13.3982 35.5254C13.0434 35.9885 12.1705 34.459 11.5823 34.1596H11.5776ZM9.00542 31.732C9.20149 30.6609 9.40689 29.6038 9.61229 28.542C10.1211 29.0425 10.7233 29.4541 11.1295 30.0621C11.0127 31.166 10.77 32.1343 10.672 33.2522C9.9484 32.9154 9.49091 32.312 9.00542 31.732ZM6.42857 29.15C6.36789 27.7749 6.79269 26.8815 6.73201 25.5063C7.46024 26.0395 8.05311 26.7084 8.54794 27.4802C8.41723 28.5139 8.14647 29.4073 8.09512 30.5159C7.47425 30.6843 6.91873 29.6038 6.42857 29.15ZM5.52294 21.5632C8.61329 19.3507 10.1678 15.5947 13.7016 13.8219C11.797 13.546 10.0744 15.2299 8.85137 16.5536C7.54894 17.9662 6.29319 19.6173 5.36889 21.1048C4.63598 20.5248 4.26253 19.5846 3.85172 18.6772C10.714 10.8798 22.2818 7.79735 33.2381 4.10682C28.9667 6.96008 23.1314 8.24639 19.3035 11.544C26.6979 9.38769 33.5695 5.3978 41.2674 3.04503C47.266 9.35027 52.6858 16.0625 58.6891 22.4706C64.6084 28.7899 70.9198 34.7256 76.2602 41.5921C78.9071 44.9973 81.694 48.3979 84.4389 51.761C87.1978 55.1428 90.1901 58.2954 92.7717 61.7801C97.9674 68.7963 103.649 75.401 110.646 80.6023C110.782 80.8736 111.071 80.9905 110.95 81.5144C111.426 81.5893 111.543 81.1823 111.86 81.5144C117.915 87.5998 128.395 91.9639 132.764 100.486C133.52 101.964 134.51 103.849 134.734 105.341C135.752 112.096 134.86 121.067 132.764 125.375C133.959 117.812 135.738 103.578 130.038 99.1158C133.805 106.45 133.52 121.441 129.282 127.952C126.481 130.506 123.47 132.854 120.646 135.39C122.055 135.811 123.488 134.407 124.585 133.57C125.79 132.644 126.966 131.592 127.765 130.534C124.179 139.487 113.522 142.677 104.134 146.321C105.852 143.992 107.873 141.971 109.587 139.641C111.015 139.3 112.364 138.879 113.676 138.43C113.382 137.059 111.669 138.608 110.497 138.28C111.65 134.679 116.883 135.165 118.069 131.601C118.013 131.4 117.803 131.362 117.765 131.147C114.241 132.784 109.755 135.188 105.194 135.698C95.1104 136.83 86.8617 133.224 80.9564 129.781C82.1982 127.293 84.1168 125.052 85.9561 122.952C86.4556 122.377 87.1091 121.404 87.9261 121.437C88.5049 122.162 87.4266 122.793 87.0158 123.256C85.6386 124.819 83.8367 126.671 82.9264 128.72C84.2755 128.373 85.1205 126.83 86.1101 125.684C87.0951 124.538 88.2482 123.425 88.9857 122.19C89.0464 121.423 88.2435 121.521 88.0754 120.978C87.9821 120.225 88.5376 120.122 88.5329 119.463C87.9354 118.85 87.5386 119.996 87.1698 119.612C86.1475 117.751 85.2932 115.726 84.4436 113.695C84.2662 115.089 85.1672 116.712 85.6526 117.947C83.0851 120.885 80.6857 124 78.0808 126.9C76.8111 125.871 78.1649 124.678 79.1405 123.56C80.8771 121.572 83.4026 119.14 84.593 117.185C83.5986 116.956 82.9918 118.139 82.4736 118.705C80.6997 120.646 78.7204 122.962 77.0211 125.08C76.6477 124.697 76.489 124.098 76.1108 123.715C78.3142 120.408 81.8854 118.471 83.5333 114.608C80.7977 116.572 78.1975 119.987 75.658 122.653C75.1399 122.41 75.1865 121.61 74.7477 121.287C77.0165 117.999 80.7977 116.217 82.4736 112.334C79.7287 114.243 76.8624 117.335 74.4443 120.076C73.9868 119.725 73.8934 119.009 73.6834 118.406C75.2379 117.133 76.7504 115.819 78.2302 114.458C79.64 113.162 81.512 111.895 82.0161 109.752C78.9491 111.492 76.1762 114.827 73.3799 117.344C72.9131 117.456 73.1932 116.82 72.6237 117.04C72.479 117.756 72.3249 118.462 72.1662 119.168C72.4276 119.594 72.563 119.313 73.0765 119.322C73.1232 121.371 74.7337 122.587 74.5937 124.332C74.687 124.795 75.3172 124.72 75.4993 125.09C77.3059 131.166 84.0888 133.701 90.0408 136.171C93.3132 137.527 97.2298 137.509 101.707 137.691C102.771 138.364 98.7563 139.277 98.9804 138.145C98.2708 138.491 96.7303 138.949 95.9507 138.299C93.3225 138.954 88.8644 138.43 85.0458 138.603C78.4309 138.902 72.6237 139.871 67.6241 138.453C67.3813 138.243 67.8761 137.307 67.4747 136.933C66.6344 136.802 66.8771 137.752 66.415 137.995C64.5944 137.546 62.4097 137.457 61.8728 135.717C61.4994 135.736 61.1446 135.74 60.9625 135.563C59.7301 134.085 58.7405 132.186 58.6891 129.945C57.5361 131.372 57.0086 133.425 56.1123 135.104C55.1693 130.82 57.9982 129 58.9879 126.152C57.9235 126.245 57.8395 127.33 57.3213 127.971C59.7908 121.596 65.6447 117.288 68.0769 110.365C68.1749 108.929 68.2776 106.371 68.8331 104.902C68.4036 104.556 68.0675 104.673 67.6194 104.144C67.0965 104.986 66.2796 105.529 66.2563 106.876C64.7018 108.555 63.1239 110.211 61.2566 111.581C61.3967 111.067 61.462 110.468 61.5601 109.911C63.8942 107.493 66.6624 105.51 68.2262 102.325C67.8668 102.128 67.3673 102.072 67.0172 101.871C65.8828 104.275 63.7261 106.464 61.8682 107.638C61.7514 106.913 62.1062 106.661 62.0222 105.968C64.0669 103.414 67.0779 101.829 68.5343 98.6854C66.1769 99.5134 64.0902 102.727 62.0222 103.845C62.7785 101.469 64.9445 100.5 66.1115 98.5311C66.583 98.5171 66.5457 99.0082 67.1712 98.8351C67.8575 98.2551 67.5214 96.6554 68.0769 95.9491C67.1246 96.1643 67.1386 94.9902 66.5597 94.4336C66.6717 93.6338 67.4513 93.5028 67.6194 92.7638C66.1536 92.1744 65.2619 93.891 64.4357 94.8873C63.5347 95.9772 62.531 97.2027 61.8635 98.2271C60.9952 95.182 65.1872 93.9097 65.1966 91.2436C63.0539 91.8283 62.5917 94.0968 61.2566 95.4907C60.8972 95.341 61.1212 94.616 60.7991 94.4289C62.0549 92.8012 62.8672 90.7337 64.5897 89.569C64.501 88.975 64.7204 88.6897 64.8932 88.3529C64.9678 87.8758 64.1976 88.2406 64.1369 87.8992C63.2453 85.6072 62.2183 83.4462 60.8038 81.6781C61.5554 80.4012 62.7271 79.2037 63.6841 77.8847C64.5337 76.7153 65.9388 75.3121 65.5 73.7872C63.292 75.5693 61.8682 78.1373 60.5004 80.766C59.5807 80.172 59.2119 79.0213 58.381 78.3384C59.52 75.6863 61.8868 74.2643 63.0772 71.659C60.8085 73.0248 59.45 75.3121 58.0776 77.576C57.0646 77.1737 56.8312 75.9903 55.9582 75.4524C57.1626 72.964 59.3427 71.4578 60.351 68.773C59.0579 68.8665 58.5351 70.4802 57.7788 71.5046C56.9899 72.5711 55.9629 73.53 55.5054 74.69C54.7351 74.0445 54.0302 73.3382 53.386 72.5664C53.9649 71.2567 54.8892 69.9751 55.6594 68.6186C56.3317 67.4305 57.6014 65.9758 57.0226 64.5211C55.8929 65.3397 55.4167 66.8084 54.7491 68.0105C54.0863 69.2033 53.204 70.3586 52.9332 71.804C51.9809 71.2941 51.3087 70.499 50.8138 69.526C52.0136 66.6307 53.6101 64.1329 55.0572 61.4808C53.5494 61.5229 53.0312 63.4547 52.331 64.6661C51.5841 65.9618 50.5618 67.2668 50.361 68.7636C49.334 68.7636 48.8065 67.0002 47.7889 66.4857C49.3434 63.6371 51.0286 60.9288 52.7885 58.2907C58.283 64.624 63.4087 71.3269 69.2999 77.2626C66.6391 72.3232 63.0725 68.09 59.6041 63.9037C56.1449 59.7267 52.7512 55.531 49.6048 51.0032C49.4881 50.5355 50.0203 50.7085 49.9082 50.2455C49.6235 49.9508 49.3527 50.1987 48.9979 50.2455C44.073 43.7485 37.4768 38.9213 30.974 34.0053C30.8619 33.5422 31.2354 33.5609 31.1234 33.0932C29.8349 33.7854 29.3821 32.3401 28.3971 31.877C28.4251 31.1473 29.13 31.0912 29.1534 30.3615C28.4111 29.8844 28.1871 31.0631 27.4868 31.1193C26.5485 29.7207 24.051 29.1781 24.4572 27.3211C23.6122 27.2557 22.9493 27.5363 22.3378 26.7131C22.3098 26.0302 23.2761 26.3389 23.0941 25.5016C21.5909 25.7776 21.1241 26.0489 20.0644 25.1976C20.027 24.248 21.0541 24.365 21.2781 23.6774C19.3502 23.1863 18.1458 25.4127 17.0394 26.7131C15.8443 28.121 14.5372 29.6833 13.7063 31.1146C13.1181 30.7872 12.7913 30.2118 12.4926 29.5944C15.1161 27.6673 16.6753 24.6784 19.3081 22.7653C18.6453 21.9608 17.903 22.7793 17.4922 23.0693C15.5409 24.4258 14.0284 27.4428 12.0398 28.8366C11.3022 28.3549 10.1585 27.3913 9.76634 26.105C8.63663 25.5156 7.94574 24.4913 7.19416 23.523C7.07745 22.8635 7.38089 22.1151 7.19416 21.8532C6.46592 21.493 5.98509 22.6343 5.52761 21.5491L5.52294 21.5632ZM65.2059 96.5432C64.9072 96.0052 65.0052 96.2438 65.2059 95.6311C67.3113 98.1288 62.9372 99.4011 62.1763 101.398C61.5367 98.7322 64.333 98.199 65.2059 96.5432ZM78.9911 127.658C81.4186 124.875 83.9301 122.185 86.1101 119.159C86.5676 119.257 86.5349 119.846 86.8664 120.071C84.7657 123.177 81.4699 125.085 80.2002 129.024C79.5233 128.841 79.2759 128.228 78.9911 127.658ZM2.19451 25.394C2.29721 23.6259 2.48861 21.9467 2.95076 20.5388C3.82838 21.8859 4.80404 23.1348 5.83104 24.3322C5.6023 25.5203 5.48093 26.816 5.37823 28.1257C3.41758 27.569 4.64065 24.4351 4.01511 22.3583C3.17483 23.0366 3.71635 25.0947 3.55763 26.4558C2.97877 26.2266 2.56797 25.829 2.19451 25.394Z" fill="white"/>
<path fill-rule="evenodd" clip-rule="evenodd" d="M95.3524 241.222C95.4364 242.27 94.9416 242.733 94.7455 243.496C94.3021 242.981 94.1807 242.139 94.1387 241.222C94.2927 241.077 94.4468 240.923 94.5915 240.764C94.9089 240.853 95.0816 241.082 95.3477 241.222H95.3524Z" fill="white"/>
<path fill-rule="evenodd" clip-rule="evenodd" d="M17.6415 19.9307C17.0066 21.0767 15.8582 22.218 14.7659 23.4201C13.4074 24.9169 12.273 26.4698 10.5225 27.3679C12.2217 24.814 14.5278 21.5678 17.6415 19.9307Z" fill="white"/>
<path fill-rule="evenodd" clip-rule="evenodd" d="M62.4842 27.8217C69.6265 33.9819 75.205 41.3068 80.8162 49.2211C83.5237 53.0426 86.5627 56.6536 88.9949 60.9102C89.7371 62.2152 90.7268 63.6184 90.9649 65.1573C89.387 64.7504 88.8128 62.9495 87.9352 61.8176C85.1436 58.2206 82.0393 54.4552 79.299 50.587C77.4457 47.9722 75.8212 45.3201 73.8466 42.8457C70 38.0186 65.9059 33.2803 61.2751 29.0331C58.9877 26.9376 57.111 24.379 55.0664 22.0497C50.9397 17.3581 46.7523 12.7087 42.4902 8.23706C43.8814 8.79836 45.0064 10.0145 46.1268 10.9687C51.9433 15.9268 56.5602 22.7045 62.4842 27.817V27.8217Z" fill="white"/>
<path fill-rule="evenodd" clip-rule="evenodd" d="M13.4021 16.7407C12.6645 18.0644 11.4835 19.0467 10.5265 20.2301C9.66754 21.2966 9.01399 23.0132 7.34277 23.2658C8.8366 20.5622 10.8299 18.3591 13.4021 16.7407Z" fill="white"/>
<path fill-rule="evenodd" clip-rule="evenodd" d="M15.6755 18.5649C13.6775 20.7634 11.9316 23.2144 9.4668 24.9403C10.8719 22.1526 13.0286 20.1132 15.6755 18.5649Z" fill="white"/>
<path fill-rule="evenodd" clip-rule="evenodd" d="M70.21 100.524C69.7338 98.4048 72.1706 96.6321 73.8465 95.6638C73.0389 97.6845 71.3397 98.8211 70.21 100.524Z" fill="white"/>
<path fill-rule="evenodd" clip-rule="evenodd" d="M115.954 107.049C114.922 105.72 114.292 102.498 114.74 100.673C115.786 102.156 116.085 104.846 115.954 107.049Z" fill="white"/>
<path fill-rule="evenodd" clip-rule="evenodd" d="M119.59 106.141C119.548 106.338 118.931 107.531 118.833 107.053C118.493 105.837 117.732 102.24 118.53 100.379C119.305 101.015 119.94 104.556 119.59 106.146V106.141Z" fill="white"/>
<path fill-rule="evenodd" clip-rule="evenodd" d="M121.863 93.0865C118.091 92.7965 123.026 89.4287 121.863 93.0865V93.0865Z" fill="white"/>
<path fill-rule="evenodd" clip-rule="evenodd" d="M93.0791 65.4613C93.2098 65.4333 93.2192 65.5221 93.2285 65.6157H93.5319C99.3438 71.659 105.072 77.9128 111.71 83.2217C113.843 84.9243 116.677 86.365 117.466 89.2931C114.515 89.0873 112.429 86.51 110.347 84.7372C104.026 79.3675 97.9247 72.805 93.0791 65.915V65.4613Z" fill="white"/>
<path fill-rule="evenodd" clip-rule="evenodd" d="M126.256 106.899H126.709C127.456 107.802 127.176 110.005 126.56 110.847C125.71 110.295 125.827 107.811 126.256 106.899Z" fill="white"/>
<path fill-rule="evenodd" clip-rule="evenodd" d="M95.9591 125.417C96.2205 126.456 95.2542 127.391 94.7454 128.299C94.2692 129.159 94.0265 130.698 92.7754 130.726C92.9621 128.285 94.5353 127.227 95.3522 125.413H95.9591V125.417Z" fill="white"/>
<path fill-rule="evenodd" clip-rule="evenodd" d="M121.863 101.281C122.386 102.512 122.904 106.469 121.256 106.894C121.522 105.608 120.253 101.95 121.863 101.281Z" fill="white"/>
<path fill-rule="evenodd" clip-rule="evenodd" d="M126.405 119.346C126.349 122.227 124.986 125.104 122.918 126.479C123.011 123.836 125.499 122.288 125.798 119.346H126.405Z" fill="white"/>
<path fill-rule="evenodd" clip-rule="evenodd" d="M91.2633 124.66C89.6388 127.031 88.3457 129.73 86.1143 131.489C87.0106 128.495 89.1019 126.694 90.8105 124.505C91.0579 124.463 91.0719 124.65 91.2633 124.655V124.66Z" fill="white"/>
<path fill-rule="evenodd" clip-rule="evenodd" d="M75.9658 88.2313C75.4943 87.946 75.1162 87.5671 75.2096 86.7158C75.8911 86.7907 75.9565 87.4876 75.9658 88.2313Z" fill="white"/>
<path fill-rule="evenodd" clip-rule="evenodd" d="M72.9356 92.3288C72.5481 94.3261 70.7182 95.6638 69.4531 96.2766C70.4615 94.8593 71.3718 93.3438 72.4828 92.0294C72.6835 92.0855 72.7209 92.296 72.9356 92.3335V92.3288Z" fill="white"/>
<path fill-rule="evenodd" clip-rule="evenodd" d="M73.085 104.322C74.196 102.703 74.2707 100.047 76.4181 99.4619C75.9279 101.707 74.1026 102.605 73.085 104.322Z" fill="white"/>
<path fill-rule="evenodd" clip-rule="evenodd" d="M77.3283 106.291C77.9585 105.678 78.9388 106.31 79.597 105.837C77.7111 109.158 74.7981 111.45 71.8712 113.728C71.6611 112.896 71.3577 111.45 71.7218 110.543C71.6051 110.243 71.2363 110.954 70.6621 110.692C71.9645 108.662 73.9299 107.287 76.1146 106.141C75.6431 107.895 73.9018 108.377 72.7815 109.481C73.1969 110.042 72.7021 110.749 72.7815 111.455C74.3267 110.473 75.9465 108.256 77.7811 107.053C77.8932 106.534 77.1649 106.862 77.3283 106.296V106.291Z" fill="white"/>
<path fill-rule="evenodd" clip-rule="evenodd" d="M91.2635 121.928C90.9228 123.663 89.3776 125.066 88.2339 126.479C87.0575 127.938 86.1425 129.608 84.7514 130.731C84.4993 128.86 86.1519 127.461 87.1742 126.18C88.3693 124.688 89.4943 123.224 90.8107 121.928H91.2635Z" fill="white"/>
<path fill-rule="evenodd" clip-rule="evenodd" d="M147.007 111.909C147.193 112.339 147.128 112.91 146.703 113.12C146.05 113.265 146.19 112.161 146.4 111.909H147.007Z" fill="white"/>
<path fill-rule="evenodd" clip-rule="evenodd" d="M71.8717 89.2931C71.1341 90.5747 70.2145 91.6786 68.9961 92.4785C69.7197 91.1781 70.4106 89.8497 71.8717 89.2931Z" fill="white"/>
</g>
<defs>
<clipPath id="clip0_286_4487">
<rect width="158" height="291" fill="white"/>
</clipPath>
</defs>
</svg>
