<svg width="214" height="154" viewBox="0 0 214 154" fill="none" xmlns="http://www.w3.org/2000/svg">
<g clip-path="url(#clip0_271_900)">
<path d="M211.688 44.5122V58.4342H188.656V73.4192L165.953 50.7769L188.656 28.1346V44.5122H211.688Z" stroke="white" stroke-width="4" stroke-miterlimit="10"/>
<path d="M2.31201 44.5122V58.4342H25.3435V73.4192L48.0468 50.7769L25.3435 28.1346V44.5122H2.31201Z" stroke="white" stroke-width="4" stroke-miterlimit="10"/>
<path d="M67.2175 2.30573C67.2175 2.30573 79.0824 44.7635 56.0508 85.1346C51.8639 96.9676 45.5824 115.762 49.7693 150.562" stroke="white" stroke-width="5" stroke-miterlimit="10" stroke-linecap="round"/>
<path d="M148.339 2.30573C148.339 2.30573 136.474 44.7635 159.505 85.1346C163.692 96.9676 169.974 115.762 165.787 150.562" stroke="white" stroke-width="5" stroke-miterlimit="10" stroke-linecap="round"/>
<path d="M58.1455 81.4039C58.1455 81.4039 86.0622 92.5406 106.999 92.5406C123.749 92.5406 143.988 90.4516 157.249 81.4039" stroke="white" stroke-width="5" stroke-miterlimit="10" stroke-linecap="round"/>
<path d="M52.562 96.7163C52.562 96.7163 92.3435 104.374 107.697 131.519C111.186 126.647 129.14 98.3188 163.339 97.6225" stroke="white" stroke-width="5" stroke-miterlimit="10" stroke-linecap="round"/>
<path d="M107.697 151.694V131.51" stroke="white" stroke-width="5" stroke-miterlimit="10" stroke-linecap="round"/>
</g>
<defs>
<clipPath id="clip0_271_900">
<rect width="214" height="154" fill="white"/>
</clipPath>
</defs>
</svg>
