<svg width="214" height="154" viewBox="0 0 214 154" fill="none" xmlns="http://www.w3.org/2000/svg">
<g clip-path="url(#clip0_385_2306)">
<path d="M211.688 44.5124V58.4344H188.656V73.4194L165.953 50.7771L188.656 28.1348V44.5124H211.688Z" stroke="black" stroke-width="4" stroke-miterlimit="10"/>
<path d="M2.31152 44.5124V58.4344H25.3431V73.4194L48.0463 50.7771L25.3431 28.1348V44.5124H2.31152Z" stroke="black" stroke-width="4" stroke-miterlimit="10"/>
<path d="M67.2175 2.30566C67.2175 2.30566 79.0824 44.7635 56.0508 85.1346C51.8639 96.9676 45.5824 115.762 49.7693 150.562" stroke="black" stroke-width="5" stroke-miterlimit="10" stroke-linecap="round"/>
<path d="M148.339 2.30566C148.339 2.30566 136.474 44.7635 159.505 85.1346C163.692 96.9676 169.974 115.762 165.787 150.562" stroke="black" stroke-width="5" stroke-miterlimit="10" stroke-linecap="round"/>
<path d="M58.1455 81.4038C58.1455 81.4038 86.0622 92.5405 106.999 92.5405C123.749 92.5405 143.988 90.4515 157.249 81.4038" stroke="black" stroke-width="5" stroke-miterlimit="10" stroke-linecap="round"/>
<path d="M52.5615 96.7163C52.5615 96.7163 92.343 104.374 107.697 131.519C111.185 126.647 129.14 98.3188 163.338 97.6225" stroke="black" stroke-width="5" stroke-miterlimit="10" stroke-linecap="round"/>
<path d="M107.697 151.694V131.51" stroke="black" stroke-width="5" stroke-miterlimit="10" stroke-linecap="round"/>
</g>
<defs>
<clipPath id="clip0_385_2306">
<rect width="214" height="154" fill="white"/>
</clipPath>
</defs>
</svg>
