<svg width="163" height="84" viewBox="0 0 163 84" fill="none" xmlns="http://www.w3.org/2000/svg">
<path d="M156.253 37.2288C156.253 37.2288 154.597 39.0112 152.023 41.5698C146.763 47.804 139.063 53.6896 132.726 52.3984C132.726 52.3984 130.096 51.0993 131.11 45.1424C131.554 42.5125 133.914 39.1379 135.601 37.1417C135.419 39.4627 136.687 42.1005 140.909 42.8214C140.909 42.8214 150.787 40.8648 152.284 32.072C153.25 26.3923 145.266 23.0415 145.266 23.0415C145.266 23.0415 135.364 21.3622 126.674 37.6962C126.199 38.5755 125.811 39.4152 125.462 40.2232C123.719 41.7995 121.794 42.5362 118.562 42.7105C119.188 41.6173 119.759 40.3182 120.392 38.9478L121.628 35.7079C122.792 32.6106 123.838 29.0777 124.844 24.9189C124.844 24.9189 122.167 21.3225 120.202 21.2037C120.202 21.2037 111.837 23.5406 103.306 32.4839C108.478 19.4768 123.521 6.12125 124.678 5.55883C123.569 2.818 121.874 0.473248 118.507 0.283133C118.507 0.283133 100.818 17.9638 92.8573 41.3401C91.067 44.0096 89.2688 46.3465 87.938 47.202C87.938 47.202 93.4989 34.3058 92.4216 31.2719C91.3442 28.238 87.7479 28.1508 87.7479 28.1508C87.7479 28.1508 78.7333 46.1563 72.1189 49.9666C72.1189 49.9666 70.0355 34.9554 85.6408 24.3248C88.8331 22.186 89.9976 25.4972 91.5977 26.5349C91.5977 26.5349 94.0217 18.0985 83.8505 18.653C79.5413 18.8907 69.3147 26.1626 66.2015 40.54C66.1223 37.9814 65.4015 35.5653 63.8647 33.4028C61.1001 29.5688 57.3849 28.4835 53.947 28.5628C56.4502 26.8993 67.6908 19.0966 68.5146 12.9971C69.3939 6.23215 57.6859 -0.429799 52.0142 0.0217247C46.3662 0.53662 37.8506 2.08131 25.1604 8.91753C12.4306 15.825 -11.7774 34.2741 6.71924 44.6988C6.71924 44.6988 5.78451 29.7668 30.2143 14.1536C54.7312 -1.41998 61.0843 6.99261 61.0843 6.99261C61.0843 6.99261 64.9024 13.1793 37.8506 32.4364C40.1399 22.0988 43.3006 13.6466 31.8065 13.211C31.8065 13.211 32.6937 16.3954 31.6322 22.4078C31.1807 24.8238 29.5806 31.6125 28.6459 38.7498C27.9567 39.2013 27.3388 39.629 26.6496 40.0806C26.6496 40.0806 26.9586 40.8014 28.3052 41.9342C27.9884 45.5385 27.8775 49.1031 28.1626 52.2083C22.5463 57.5474 16.4943 64.7243 10.7988 74.0478C10.7988 74.0478 9.07984 79.7117 20.7244 83.5773C29.9925 86.7063 60.0307 64.7163 65.4173 46.3544C65.3698 47.0831 65.3302 47.8119 65.3143 48.5645C65.3143 48.5645 67.0491 54.664 73.9249 54.2838C73.9249 54.2838 76.9193 52.3588 81.2681 45.7207C80.9275 47.2891 80.9434 48.8338 81.791 50.1963C81.791 50.1963 85.918 53.6342 88.5797 53.4837C88.5797 53.4837 89.4986 52.0499 90.9007 49.8319C91.6136 50.9726 93.6573 53.7293 96.8259 53.9115C96.8259 53.9115 96.715 52.0737 97.3329 48.7308C99.8598 43.9462 106.268 33.9731 118.444 27.6993C118.444 27.6993 116.946 32.9592 113.81 38.623L111.267 42.56C99.1786 42.362 99.2816 49.1982 99.2816 49.1982C99.2816 49.1982 100.723 54.8383 105.001 55.0838C105.001 55.0838 110.277 55.0997 116.02 46.9168C116.511 46.9485 117.01 46.901 117.501 46.8613C120.258 46.7504 122.404 46.0217 124.012 45.1662C122.476 55.2977 132.243 58.0861 133.383 58.2762C134.144 58.4029 136.568 58.8148 141.368 56.1453C142.953 55.2027 141.867 56.1611 143.998 54.5293C147.61 51.7251 152.862 45.1345 158.487 38.8924C158.487 38.8924 158.098 37.4031 156.277 37.2368L156.253 37.2288ZM137.756 34.9395C141.044 31.5095 144.228 29.5529 146.375 29.9173C146.375 29.9173 142.62 36.9041 138.39 37.8942C138.39 37.8942 137.249 36.6347 137.756 34.9316V34.9395ZM46.5563 61.928C28.3924 78.7611 19.0846 79.0463 19.0846 79.0463C19.0846 79.0463 19.8689 69.992 30.1034 58.4584C31.1174 60.0268 32.567 60.9853 34.5394 61.1041C34.5394 61.1041 34.6266 58.0544 35.0068 53.4916C40.3379 48.5011 47.4989 43.3046 57.0126 38.2903C57.0126 38.2903 55.9749 36.0089 53.5193 36.2862C53.5193 36.2862 45.9543 38.1873 35.8069 45.7286C35.9653 44.2473 36.1633 42.6154 36.3772 41.0549C40.0844 37.7437 46.0414 33.2602 51.8637 32.5631C61.2031 31.4779 64.641 45.0315 46.5563 61.9201V61.928ZM102.822 50.9567C102.822 50.9567 102.854 50.3943 102.886 49.7606C104.391 48.0892 105.841 47.3287 107.686 47.0752C106.197 48.5407 104.636 49.927 102.822 50.9488V50.9567Z" fill="#020202"/>
<path d="M83.3501 69.3207V61.5576H89.5288C89.9328 61.5576 90.2735 61.5893 90.5586 61.6527C90.8359 61.716 91.0656 61.8269 91.232 61.9775C91.4062 62.128 91.5251 62.3339 91.6043 62.5874C91.6756 62.8409 91.7152 63.1657 91.7152 63.5459V64.0291C91.7152 64.7658 91.3745 65.1936 90.6854 65.3045C91.026 65.352 91.3112 65.4867 91.5409 65.7085C91.7706 65.9303 91.8894 66.2788 91.8894 66.7462V67.2532C91.8894 67.6492 91.8419 67.9819 91.7548 68.2513C91.6676 68.5206 91.5251 68.7345 91.3349 68.885C91.1448 69.0434 90.8993 69.1543 90.5982 69.2177C90.2972 69.2811 89.9408 69.3127 89.5288 69.3127H83.3501V69.3207ZM90.2101 63.7598C90.2101 63.5142 90.1626 63.3399 90.0596 63.237C89.9566 63.1419 89.7823 63.0865 89.5368 63.0865H84.8789V64.7658H89.5526C89.7902 64.7658 89.9645 64.7104 90.0675 64.5995C90.1705 64.4886 90.218 64.3064 90.218 64.045V63.7519L90.2101 63.7598ZM90.3923 66.7937C90.3923 66.5085 90.3368 66.3105 90.2259 66.1917C90.115 66.0729 89.9012 66.0174 89.5922 66.0174H84.8789V67.7997H89.5368C89.8774 67.7997 90.0992 67.7443 90.218 67.6334C90.3368 67.5225 90.3923 67.3403 90.3923 67.0789V66.7937Z" fill="black"/>
<path d="M95.4145 69.3207C94.9867 69.3207 94.6223 69.2731 94.3292 69.186C94.0282 69.0989 93.7906 68.9484 93.6084 68.7503C93.4262 68.5523 93.2915 68.2988 93.2044 67.9899C93.1252 67.6809 93.0776 67.3086 93.0776 66.865V61.5656H94.5906V66.865C94.5906 67.1977 94.654 67.4354 94.7728 67.5779C94.8996 67.7284 95.1055 67.7997 95.4065 67.7997H99.193C99.494 67.7997 99.7079 67.7284 99.8267 67.5779C99.9535 67.4274 100.017 67.1898 100.017 66.865V61.5656H101.538V66.865C101.538 67.3086 101.498 67.6809 101.411 67.9899C101.332 68.2988 101.197 68.5523 101.007 68.7503C100.825 68.9484 100.579 69.0909 100.278 69.186C99.9772 69.2731 99.6128 69.3207 99.1851 69.3207H95.3986H95.4145Z" fill="black"/>
<path d="M105.285 69.3207C104.818 69.3207 104.43 69.281 104.121 69.1939C103.812 69.1147 103.566 68.9721 103.384 68.782C103.202 68.5919 103.067 68.3305 102.988 68.0057C102.909 67.6809 102.869 67.2769 102.869 66.8016V64.0687C102.869 63.5855 102.909 63.1815 102.988 62.8647C103.067 62.5399 103.202 62.2785 103.384 62.0884C103.566 61.8903 103.812 61.7557 104.121 61.6764C104.43 61.5972 104.818 61.5576 105.285 61.5576H109.642C109.927 61.5576 110.181 61.5972 110.395 61.6764C110.608 61.7557 110.791 61.8507 110.941 61.9695C111.092 62.0884 111.21 62.2072 111.306 62.3418C111.393 62.4765 111.464 62.5953 111.511 62.6983L110.545 63.6885C110.474 63.538 110.371 63.4033 110.22 63.2766C110.07 63.1498 109.848 63.0865 109.555 63.0865H105.317C104.976 63.0865 104.739 63.1578 104.604 63.3003C104.469 63.4429 104.398 63.6964 104.398 64.0687V66.8096C104.398 66.9759 104.406 67.1185 104.43 67.2373C104.453 67.3561 104.493 67.4591 104.556 67.5383C104.62 67.6175 104.715 67.6809 104.834 67.7284C104.952 67.768 105.111 67.7918 105.309 67.7918H109.61C109.911 67.7918 110.133 67.7284 110.276 67.6017C110.418 67.475 110.521 67.3403 110.593 67.1898L111.559 68.172C111.511 68.275 111.448 68.3938 111.353 68.5285C111.266 68.6632 111.139 68.782 110.989 68.9008C110.838 69.0196 110.656 69.1147 110.442 69.1939C110.228 69.2731 109.975 69.3127 109.69 69.3127H105.293L105.285 69.3207Z" fill="black"/>
<path d="M119.623 69.3207L116.565 66.2788L114.228 68.378V69.3286H112.691V61.5656H114.228V66.461L119.623 61.5656H121.825L117.619 65.3362L121.801 69.3286H119.623V69.3207Z" fill="black"/>
<path d="M122.617 69.3207V61.5576H130.071V63.0944H124.138V64.8054H129.904V66.057H124.138V67.7918H130.071V69.3127H122.617V69.3207Z" fill="black"/>
<path d="M131.251 69.3207V61.5576H137.787C138.262 61.5576 138.65 61.5972 138.967 61.6844C139.276 61.7636 139.529 61.9062 139.712 62.1042C139.894 62.3022 140.028 62.5636 140.108 62.8805C140.187 63.1974 140.226 63.5934 140.226 64.0687V66.8016C140.226 67.2769 140.187 67.673 140.108 67.9978C140.028 68.3226 139.894 68.584 139.712 68.7741C139.529 68.9721 139.276 69.1068 138.967 69.1939C138.658 69.2731 138.262 69.3207 137.787 69.3207H131.251ZM138.698 64.0846C138.698 63.7043 138.626 63.4429 138.492 63.3003C138.357 63.1578 138.119 63.0944 137.779 63.0944H132.78V67.7997H137.779C138.127 67.7997 138.365 67.7284 138.492 67.5938C138.626 67.4591 138.69 67.1977 138.69 66.8175V64.0846H138.698Z" fill="black"/>
<path d="M147.364 69.3207C146.936 69.3207 146.572 69.2731 146.278 69.186C145.977 69.0989 145.74 68.9484 145.558 68.7503C145.375 68.5523 145.241 68.2988 145.154 67.9899C145.074 67.6809 145.027 67.3086 145.027 66.865V61.5656H146.54V66.865C146.54 67.1977 146.603 67.4354 146.722 67.5779C146.849 67.7284 147.055 67.7997 147.356 67.7997H151.142C151.443 67.7997 151.657 67.7284 151.776 67.5779C151.903 67.4274 151.966 67.1898 151.966 66.865V61.5656H153.487V66.865C153.487 67.3086 153.447 67.6809 153.36 67.9899C153.281 68.2988 153.146 68.5523 152.956 68.7503C152.774 68.9484 152.528 69.0909 152.227 69.186C151.926 69.2731 151.562 69.3207 151.134 69.3207H147.348H147.364Z" fill="black"/>
<path d="M156.355 66.8016V69.3207H154.834V61.5576H160.656C161.1 61.5576 161.472 61.5972 161.773 61.6764C162.074 61.7557 162.312 61.8824 162.494 62.0646C162.676 62.2468 162.803 62.4844 162.882 62.7854C162.961 63.0865 163.001 63.4588 163.001 63.9103V64.6074C163.001 65.0035 162.961 65.3441 162.882 65.6213C162.803 65.8986 162.676 66.1283 162.494 66.2947C162.312 66.4689 162.074 66.5957 161.773 66.6749C161.472 66.7541 161.1 66.7937 160.656 66.7937H156.355V66.8016ZM161.488 63.9103C161.488 63.6014 161.425 63.3875 161.306 63.2687C161.179 63.1498 160.965 63.0865 160.656 63.0865H156.355V65.4074H160.656C160.965 65.4074 161.179 65.3441 161.306 65.2173C161.433 65.0906 161.488 64.8926 161.488 64.6153V63.9024V63.9103Z" fill="black"/>
<path d="M162.993 68.4414C162.993 68.9326 162.605 69.3207 162.106 69.3207C161.607 69.3207 161.21 68.9326 161.21 68.4414C161.21 67.9503 161.607 67.578 162.106 67.578C162.605 67.578 162.993 67.9662 162.993 68.4414ZM161.44 68.4414C161.44 68.8296 161.725 69.1306 162.113 69.1306C162.502 69.1306 162.771 68.8217 162.771 68.4414C162.771 68.0612 162.494 67.7444 162.106 67.7444C161.717 67.7444 161.432 68.0533 161.432 68.4335L161.44 68.4414ZM161.971 68.893H161.773V68.0295C161.852 68.0137 161.963 68.0058 162.106 68.0058C162.272 68.0058 162.343 68.0295 162.407 68.0691C162.454 68.1087 162.494 68.1721 162.494 68.2592C162.494 68.3543 162.422 68.4256 162.312 68.4573C162.399 68.4969 162.446 68.5603 162.47 68.6791C162.494 68.8138 162.51 68.8613 162.533 68.893H162.319C162.319 68.893 162.28 68.7821 162.248 68.6791C162.232 68.584 162.177 68.5444 162.066 68.5444H161.971V68.893ZM161.971 68.4018H162.066C162.177 68.4018 162.264 68.3622 162.264 68.2751C162.264 68.1959 162.209 68.1404 162.082 68.1404C162.026 68.1404 161.995 68.1404 161.971 68.1483V68.3939V68.4018Z" fill="black"/>
<path fill-rule="evenodd" clip-rule="evenodd" d="M68.1564 58.405C67.8079 57.6603 67.3009 57.0345 66.3583 57.0345V57.0425C66.3583 57.0425 60.6627 63.4272 59.4111 71.0635C59.4111 71.0635 60.1003 72.22 61.2093 72.22C61.2093 72.22 61.1539 71.713 61.2727 70.7862C61.8985 69.4158 63.5065 66.5641 66.7702 64.6312C66.7702 64.6312 66.4533 66.1046 65.677 67.7206L65.0195 68.8455C61.6846 68.9801 61.8193 70.8733 61.8193 70.8733C61.8193 70.8733 62.3104 72.4101 63.4828 72.4101C63.4828 72.4101 64.9403 72.3309 66.4058 69.9703C66.5404 69.9703 66.683 69.9545 66.8177 69.9386C67.3484 69.8911 67.792 69.7564 68.1564 69.5901C68.0851 69.8515 68.0534 70.0495 68.0534 70.2C68.0534 71.0159 69.5902 71.5546 70.01 71.5546C70.0417 71.5546 70.0734 71.5467 70.0893 71.5387C70.0893 71.5387 72.236 68.5524 73.852 66.6591L73.4559 67.982C73.2262 68.79 73.0281 69.7168 72.8142 70.7704L72.6954 71.6259C72.417 71.8992 72.1383 72.1673 71.8613 72.4338C70.452 73.7897 69.0863 75.1037 68.0138 76.8382C68.0138 76.8382 68.0851 77.9393 69.4476 77.9393H69.5823C69.5823 77.9393 69.7011 77.7571 69.915 77.4402C70.216 77.9393 70.5566 78.5809 70.4774 78.9928C70.4774 78.9928 71.1191 79.7216 72.0776 79.7216C72.9648 79.7216 73.7252 76.9174 74.351 72.3309C75.1273 71.6021 77.4879 69.1782 79.4683 66.0254C79.4683 66.0254 79.3019 65.6769 78.8425 65.6769H78.787C78.787 65.6769 76.4106 68.7504 74.7075 70.3822L75.0006 69.0989C76.0937 65.4551 78.0899 63.0786 78.0899 63.0786C78.0899 63.0786 77.1552 61.8746 76.1967 61.8746C76.1967 61.8746 75.9195 62.1043 75.5234 62.7618L75.0323 63.6014C74.8976 63.8549 74.755 64.1639 74.6045 64.5124L70.5329 68.7821C70.8101 68.3464 73.1153 64.552 72.8063 62.9044C72.5924 61.4943 71.8161 61.3597 71.3963 61.3597C71.335 61.3597 71.2821 61.3625 71.2393 61.3647C71.2102 61.3663 71.1858 61.3676 71.1666 61.3676C71.1666 61.3676 71.0478 63.0865 70.1922 64.655C69.6853 65.558 69.0199 67.0314 68.5604 68.2672C68.1802 68.5365 67.7287 68.687 67.0395 68.7662C67.1513 68.5368 67.2587 68.2767 67.3748 67.9958C67.4149 67.8985 67.4562 67.7987 67.4989 67.6968L67.792 66.7859C68.0614 65.9145 68.2911 64.9085 68.505 63.752C68.505 63.752 67.7128 62.7935 67.1662 62.7935C67.1662 62.7935 64.8849 63.5698 62.6748 66.1759C63.8868 62.5004 67.8554 58.5713 68.1564 58.405ZM64.1086 70.1604C63.7204 70.5882 63.3164 71.0001 62.8253 71.3011V70.9842C63.2214 70.4931 63.6095 70.2555 64.1086 70.1604ZM72.1647 74.2083C71.3567 77.8522 71.0953 77.868 71.0953 77.868V77.8601C71.0953 77.8601 70.8973 77.2343 70.3982 76.7035C70.4497 76.6282 70.5032 76.5496 70.5587 76.4681C70.9815 75.8471 71.5205 75.0556 72.1647 74.2083Z" fill="black"/>
</svg>
