<svg width="206" height="106" viewBox="0 0 206 106" fill="none" xmlns="http://www.w3.org/2000/svg">
<path d="M197.252 46.9974C197.252 46.9974 195.162 49.2474 191.912 52.4774C185.272 60.3474 175.552 67.7774 167.552 66.1474C167.552 66.1474 164.232 64.5074 165.512 56.9874C166.072 53.6674 169.052 49.4074 171.182 46.8874C170.952 49.8174 172.552 53.1474 177.882 54.0574C177.882 54.0574 190.352 51.5874 192.242 40.4874C193.462 33.3174 183.382 29.0874 183.382 29.0874C183.382 29.0874 170.882 26.9674 159.912 47.5874C159.312 48.6974 158.822 49.7574 158.382 50.7774C156.182 52.7674 153.752 53.6974 149.672 53.9174C150.462 52.5374 151.182 50.8974 151.982 49.1674L153.542 45.0774C155.012 41.1674 156.332 36.7074 157.602 31.4574C157.602 31.4574 154.222 26.9174 151.742 26.7674C151.742 26.7674 141.182 29.7174 130.412 41.0074C136.942 24.5874 155.932 7.72743 157.392 7.01743C155.992 3.55743 153.852 0.597425 149.602 0.357425C149.602 0.357425 127.272 22.6774 117.222 52.1874C114.962 55.5574 112.692 58.5074 111.012 59.5874C111.012 59.5874 118.032 43.3074 116.672 39.4774C115.312 35.6474 110.772 35.5374 110.772 35.5374C110.772 35.5374 99.3923 58.2674 91.0423 63.0774C91.0423 63.0774 88.4123 44.1274 108.112 30.7074C112.142 28.0074 113.612 32.1874 115.632 33.4974C115.632 33.4974 118.692 22.8474 105.852 23.5474C100.412 23.8474 87.5023 33.0274 83.5723 51.1774C83.4723 47.9474 82.5623 44.8974 80.6223 42.1674C77.1323 37.3274 72.4423 35.9574 68.1023 36.0574C71.2623 33.9574 85.4523 24.1074 86.4923 16.4074C87.6023 7.86742 72.8223 -0.542575 65.6623 0.0274251C58.5323 0.677425 47.7823 2.62742 31.7623 11.2574C15.6923 19.9774 -14.8677 43.2674 8.48232 56.4274C8.48232 56.4274 7.30232 37.5774 38.1423 17.8674C69.0923 -1.79257 77.1123 8.82743 77.1123 8.82743C77.1123 8.82743 81.9323 16.6374 47.7823 40.9474C50.6723 27.8974 54.6623 17.2274 40.1523 16.6774C40.1523 16.6774 41.2723 20.6974 39.9323 28.2874C39.3623 31.3374 37.3423 39.9074 36.1623 48.9174C35.2923 49.4874 34.5123 50.0274 33.6423 50.5974C33.6423 50.5974 34.0323 51.5074 35.7323 52.9374C35.3323 57.4874 35.1923 61.9874 35.5523 65.9074C28.4623 72.6474 20.8223 81.7074 13.6323 93.4774C13.6323 93.4774 11.4623 100.627 26.1623 105.507C37.8623 109.457 75.7823 81.6974 82.5823 58.5174C82.5223 59.4374 82.4723 60.3574 82.4523 61.3074C82.4523 61.3074 84.6423 69.0074 93.3223 68.5274C93.3223 68.5274 97.1023 66.0974 102.592 57.7174C102.162 59.6974 102.182 61.6474 103.252 63.3674C103.252 63.3674 108.462 67.7074 111.822 67.5174C111.822 67.5174 112.982 65.7074 114.752 62.9074C115.652 64.3474 118.232 67.8274 122.232 68.0574C122.232 68.0574 122.092 65.7374 122.872 61.5174C126.062 55.4774 134.152 42.8874 149.522 34.9674C149.522 34.9674 147.632 41.6074 143.672 48.7574L140.462 53.7274C125.202 53.4774 125.332 62.1074 125.332 62.1074C125.332 62.1074 127.152 69.2274 132.552 69.5374C132.552 69.5374 139.212 69.5574 146.462 59.2274C147.082 59.2674 147.712 59.2074 148.332 59.1574C151.812 59.0174 154.522 58.0974 156.552 57.0174C154.612 69.8074 166.942 73.3274 168.382 73.5674C169.342 73.7274 172.402 74.2474 178.462 70.8774C180.462 69.6874 179.092 70.8974 181.782 68.8374C186.342 65.2974 192.972 56.9774 200.072 49.0974C200.072 49.0974 199.582 47.2174 197.282 47.0074L197.252 46.9974ZM173.902 44.1074C178.052 39.7774 182.072 37.3074 184.782 37.7674C184.782 37.7674 180.042 46.5874 174.702 47.8374C174.702 47.8374 173.262 46.2474 173.902 44.0974V44.1074ZM58.7723 78.1774C35.8423 99.4274 24.0923 99.7874 24.0923 99.7874C24.0923 99.7874 25.0823 88.3574 38.0023 73.7974C39.2823 75.7774 41.1123 76.9874 43.6023 77.1374C43.6023 77.1374 43.7123 73.2874 44.1923 67.5274C50.9223 61.2274 59.9623 54.6674 71.9723 48.3374C71.9723 48.3374 70.6623 45.4574 67.5623 45.8074C67.5623 45.8074 58.0123 48.2074 45.2023 57.7274C45.4023 55.8574 45.6523 53.7974 45.9223 51.8274C50.6023 47.6474 58.1223 41.9874 65.4723 41.1074C77.2623 39.7374 81.6023 56.8474 58.7723 78.1674V78.1774ZM129.802 64.3274C129.802 64.3274 129.842 63.6174 129.882 62.8174C131.782 60.7074 133.612 59.7474 135.942 59.4274C134.062 61.2774 132.092 63.0274 129.802 64.3174V64.3274Z" fill="#482B2E"/>
<path d="M105.22 87.51V77.71H113.02C113.53 77.71 113.96 77.75 114.32 77.83C114.67 77.91 114.96 78.05 115.17 78.24C115.39 78.43 115.54 78.69 115.64 79.01C115.73 79.33 115.78 79.74 115.78 80.22V80.83C115.78 81.76 115.35 82.3 114.48 82.44C114.91 82.5 115.27 82.67 115.56 82.95C115.85 83.23 116 83.67 116 84.26V84.9C116 85.4 115.94 85.82 115.83 86.16C115.72 86.5 115.54 86.77 115.3 86.96C115.06 87.16 114.75 87.3 114.37 87.38C113.99 87.46 113.54 87.5 113.02 87.5H105.22V87.51ZM113.88 80.49C113.88 80.18 113.82 79.96 113.69 79.83C113.56 79.71 113.34 79.64 113.03 79.64H107.15V81.76H113.05C113.35 81.76 113.57 81.69 113.7 81.55C113.83 81.41 113.89 81.18 113.89 80.85V80.48L113.88 80.49ZM114.11 84.32C114.11 83.96 114.04 83.71 113.9 83.56C113.76 83.41 113.49 83.34 113.1 83.34H107.15V85.59H113.03C113.46 85.59 113.74 85.52 113.89 85.38C114.04 85.24 114.11 85.01 114.11 84.68V84.32Z" fill="black"/>
<path d="M120.45 87.5097C119.91 87.5097 119.45 87.4497 119.08 87.3397C118.7 87.2297 118.4 87.0397 118.17 86.7897C117.94 86.5397 117.77 86.2197 117.66 85.8297C117.56 85.4397 117.5 84.9697 117.5 84.4097V77.7197H119.41V84.4097C119.41 84.8297 119.49 85.1297 119.64 85.3097C119.8 85.4997 120.06 85.5897 120.44 85.5897H125.22C125.6 85.5897 125.87 85.4997 126.02 85.3097C126.18 85.1197 126.26 84.8197 126.26 84.4097V77.7197H128.18V84.4097C128.18 84.9697 128.13 85.4397 128.02 85.8297C127.92 86.2197 127.75 86.5397 127.51 86.7897C127.28 87.0397 126.97 87.2197 126.59 87.3397C126.21 87.4497 125.75 87.5097 125.21 87.5097H120.43H120.45Z" fill="black"/>
<path d="M132.91 87.51C132.32 87.51 131.83 87.46 131.44 87.35C131.05 87.25 130.74 87.07 130.51 86.83C130.28 86.59 130.11 86.26 130.01 85.85C129.91 85.44 129.86 84.93 129.86 84.33V80.88C129.86 80.27 129.91 79.76 130.01 79.36C130.11 78.95 130.28 78.62 130.51 78.38C130.74 78.13 131.05 77.96 131.44 77.86C131.83 77.76 132.32 77.71 132.91 77.71H138.41C138.77 77.71 139.09 77.76 139.36 77.86C139.63 77.96 139.86 78.08 140.05 78.23C140.24 78.38 140.39 78.53 140.51 78.7C140.62 78.87 140.71 79.02 140.77 79.15L139.55 80.4C139.46 80.21 139.33 80.04 139.14 79.88C138.95 79.72 138.67 79.64 138.3 79.64H132.95C132.52 79.64 132.22 79.73 132.05 79.91C131.88 80.09 131.79 80.41 131.79 80.88V84.34C131.79 84.55 131.8 84.73 131.83 84.88C131.86 85.03 131.91 85.16 131.99 85.26C132.07 85.36 132.19 85.44 132.34 85.5C132.49 85.55 132.69 85.58 132.94 85.58H138.37C138.75 85.58 139.03 85.5 139.21 85.34C139.39 85.18 139.52 85.01 139.61 84.82L140.83 86.06C140.77 86.19 140.69 86.34 140.57 86.51C140.46 86.68 140.3 86.83 140.11 86.98C139.92 87.13 139.69 87.25 139.42 87.35C139.15 87.45 138.83 87.5 138.47 87.5H132.92L132.91 87.51Z" fill="black"/>
<path d="M151.01 87.5097L147.15 83.6697L144.2 86.3197V87.5197H142.26V77.7197H144.2V83.8997L151.01 77.7197H153.79L148.48 82.4797L153.76 87.5197H151.01V87.5097Z" fill="black"/>
<path d="M154.79 87.51V77.71H164.2V79.65H156.71V81.81H163.99V83.39H156.71V85.58H164.2V87.5H154.79V87.51Z" fill="black"/>
<path d="M165.69 87.51V77.71H173.94C174.54 77.71 175.03 77.76 175.43 77.87C175.82 77.97 176.14 78.15 176.37 78.4C176.6 78.65 176.77 78.98 176.87 79.38C176.97 79.78 177.02 80.28 177.02 80.88V84.33C177.02 84.93 176.97 85.43 176.87 85.84C176.77 86.25 176.6 86.58 176.37 86.82C176.14 87.07 175.82 87.24 175.43 87.35C175.04 87.45 174.54 87.51 173.94 87.51H165.69ZM175.09 80.9C175.09 80.42 175 80.09 174.83 79.91C174.66 79.73 174.36 79.65 173.93 79.65H167.62V85.59H173.93C174.37 85.59 174.67 85.5 174.83 85.33C175 85.16 175.08 84.83 175.08 84.35V80.9H175.09Z" fill="black"/>
<path d="M186.03 87.5097C185.49 87.5097 185.03 87.4497 184.66 87.3397C184.28 87.2297 183.98 87.0397 183.75 86.7897C183.52 86.5397 183.35 86.2197 183.24 85.8297C183.14 85.4397 183.08 84.9697 183.08 84.4097V77.7197H184.99V84.4097C184.99 84.8297 185.07 85.1297 185.22 85.3097C185.38 85.4997 185.64 85.5897 186.02 85.5897H190.8C191.18 85.5897 191.45 85.4997 191.6 85.3097C191.76 85.1197 191.84 84.8197 191.84 84.4097V77.7197H193.76V84.4097C193.76 84.9697 193.71 85.4397 193.6 85.8297C193.5 86.2197 193.33 86.5397 193.09 86.7897C192.86 87.0397 192.55 87.2197 192.17 87.3397C191.79 87.4497 191.33 87.5097 190.79 87.5097H186.01H186.03Z" fill="black"/>
<path d="M197.38 84.33V87.51H195.46V77.71H202.81C203.37 77.71 203.84 77.76 204.22 77.86C204.6 77.96 204.9 78.12 205.13 78.35C205.36 78.58 205.52 78.88 205.62 79.26C205.72 79.64 205.77 80.11 205.77 80.68V81.56C205.77 82.06 205.72 82.49 205.62 82.84C205.52 83.19 205.36 83.48 205.13 83.69C204.9 83.91 204.6 84.07 204.22 84.17C203.84 84.27 203.37 84.32 202.81 84.32H197.38V84.33ZM203.86 80.68C203.86 80.29 203.78 80.02 203.63 79.87C203.47 79.72 203.2 79.64 202.81 79.64H197.38V82.57H202.81C203.2 82.57 203.47 82.49 203.63 82.33C203.79 82.17 203.86 81.92 203.86 81.57V80.67V80.68Z" fill="black"/>
<path d="M205.76 86.4001C205.76 87.0201 205.27 87.5101 204.64 87.5101C204.01 87.5101 203.51 87.0201 203.51 86.4001C203.51 85.7801 204.01 85.3101 204.64 85.3101C205.27 85.3101 205.76 85.8001 205.76 86.4001ZM203.8 86.4001C203.8 86.8901 204.16 87.2701 204.65 87.2701C205.14 87.2701 205.48 86.8801 205.48 86.4001C205.48 85.9201 205.13 85.5201 204.64 85.5201C204.15 85.5201 203.79 85.9101 203.79 86.3901L203.8 86.4001ZM204.47 86.9701H204.22V85.8801C204.32 85.8601 204.46 85.8501 204.64 85.8501C204.85 85.8501 204.94 85.8801 205.02 85.9301C205.08 85.9801 205.13 86.0601 205.13 86.1701C205.13 86.2901 205.04 86.3801 204.9 86.4201C205.01 86.4701 205.07 86.5501 205.1 86.7001C205.13 86.8701 205.15 86.9301 205.18 86.9701H204.91C204.91 86.9701 204.86 86.8301 204.82 86.7001C204.8 86.5801 204.73 86.5301 204.59 86.5301H204.47V86.9701ZM204.47 86.3501H204.59C204.73 86.3501 204.84 86.3001 204.84 86.1901C204.84 86.0901 204.77 86.0201 204.61 86.0201C204.54 86.0201 204.5 86.0201 204.47 86.0301V86.3401V86.3501Z" fill="black"/>
<path fill-rule="evenodd" clip-rule="evenodd" d="M86.04 73.73C85.6 72.79 84.96 72 83.77 72V72.01C83.77 72.01 76.58 80.07 75 89.71C75 89.71 75.87 91.17 77.27 91.17C77.27 91.17 77.2 90.53 77.35 89.36C78.14 87.63 80.17 84.03 84.29 81.59C84.29 81.59 83.89 83.45 82.91 85.49L82.08 86.91C77.87 87.08 78.04 89.47 78.04 89.47C78.04 89.47 78.66 91.41 80.14 91.41C80.14 91.41 81.98 91.31 83.83 88.33C84 88.33 84.18 88.31 84.35 88.29C85.02 88.23 85.58 88.06 86.04 87.85C85.95 88.18 85.91 88.43 85.91 88.62C85.91 89.65 87.85 90.33 88.38 90.33C88.42 90.33 88.46 90.32 88.48 90.31C88.48 90.31 91.19 86.54 93.23 84.15L92.73 85.82C92.44 86.84 92.19 88.01 91.92 89.34L91.77 90.42C91.4185 90.765 91.0666 91.1035 90.7169 91.4399C88.9379 93.1516 87.2139 94.8104 85.86 97C85.86 97 85.95 98.39 87.67 98.39H87.84C87.84 98.39 87.99 98.16 88.26 97.76C88.64 98.39 89.07 99.2 88.97 99.72C88.97 99.72 89.78 100.64 90.99 100.64C92.11 100.64 93.07 97.1 93.86 91.31C94.84 90.39 97.82 87.33 100.32 83.35C100.32 83.35 100.11 82.91 99.53 82.91H99.46C99.46 82.91 96.46 86.79 94.31 88.85L94.68 87.23C96.06 82.63 98.58 79.63 98.58 79.63C98.58 79.63 97.4 78.11 96.19 78.11C96.19 78.11 95.84 78.4 95.34 79.23L94.72 80.29C94.55 80.61 94.37 81 94.18 81.44L89.04 86.83C89.39 86.28 92.3 81.49 91.91 79.41C91.64 77.63 90.66 77.46 90.13 77.46C90.0526 77.46 89.9858 77.4635 89.9318 77.4664C89.8951 77.4684 89.8643 77.47 89.84 77.47C89.84 77.47 89.69 79.64 88.61 81.62C87.97 82.76 87.13 84.62 86.55 86.18C86.07 86.52 85.5 86.71 84.63 86.81C84.7711 86.5203 84.9067 86.192 85.0532 85.8374C85.104 85.7146 85.156 85.5886 85.21 85.46L85.58 84.31C85.92 83.21 86.21 81.94 86.48 80.48C86.48 80.48 85.48 79.27 84.79 79.27C84.79 79.27 81.91 80.25 79.12 83.54C80.65 78.9 85.66 73.94 86.04 73.73ZM80.93 88.57C80.44 89.11 79.93 89.63 79.31 90.01V89.61C79.81 88.99 80.3 88.69 80.93 88.57ZM91.1 93.68C90.08 98.28 89.75 98.3 89.75 98.3V98.29C89.75 98.29 89.5 97.5 88.87 96.83C88.935 96.7348 89.0025 96.6357 89.0726 96.5327C89.6063 95.7489 90.2868 94.7496 91.1 93.68Z" fill="black"/>
</svg>
