<svg width="215" height="216" viewBox="0 0 215 216" fill="none" xmlns="http://www.w3.org/2000/svg">
<g clip-path="url(#clip0_216_423)">
<mask id="mask0_216_423" style="mask-type:luminance" maskUnits="userSpaceOnUse" x="0" y="0" width="215" height="216">
<path d="M215 0.038269H0V215.038H215V0.038269Z" fill="white"/>
</mask>
<g mask="url(#mask0_216_423)">
<path d="M107.5 215.038C48.1103 215.038 0 166.597 0 107.538C0 48.4791 48.1103 0.038269 107.5 0.038269C166.89 0.038269 215 48.1486 215 107.538C215 166.928 166.559 215.038 107.5 215.038ZM107.5 6.67505C51.7599 6.67505 6.63678 51.7982 6.63678 107.538C6.63678 163.278 51.7599 208.403 107.5 208.403C163.24 208.403 208.365 163.28 208.365 107.538C208.365 51.7968 162.91 6.67505 107.5 6.67505Z" fill="white"/>
</g>
<path d="M73.3997 91.5597C72.3233 89.7309 70.8721 88.4933 69.4208 86.9332C67.8607 85.2642 66.517 83.4354 65.2257 81.5528C62.9131 78.1625 60.493 74.2348 59.3091 70.2532C58.9329 69.0694 58.3416 66.0567 60.1691 65.6253C61.6755 65.2491 63.288 67.9393 63.8268 68.9081C65.7632 72.5672 66.8382 76.2799 70.4421 78.7014C72.0008 79.7777 74.6897 79.1314 75.2285 77.1413C76.1423 73.536 78.2399 70.4696 81.4138 68.4244C83.0814 67.348 84.9102 66.6493 86.8452 66.3805C87.114 66.3268 88.6203 66.0043 88.5666 65.9505C89.2653 66.273 88.4591 68.9632 88.3516 69.4483C87.0065 73.6986 83.0814 77.5726 80.0687 80.6942C76.7873 84.0831 73.2384 87.0971 69.4208 89.8411C65.8707 92.37 70.4421 97.7504 73.9385 95.0064C79.3162 90.8099 84.2102 85.967 88.4053 80.5867C91.9542 76.0125 96.9019 69.4483 94.2668 63.3154C91.7929 57.6112 83.2413 60.0327 79.1536 62.3466C74.3672 65.0905 70.6571 69.6633 69.2582 75.0988C70.8721 74.5599 72.4308 74.0224 74.0447 73.5387C71.8396 71.9786 71.0871 69.1272 70.0107 66.7595C68.8269 64.1768 67.1069 61.6478 64.7406 60.1415C59.2554 56.59 52.7476 60.1952 51.8325 66.3832C50.9725 72.2487 55.2214 78.4891 58.2865 83.1169C61.1904 87.4223 65.9231 93.8777 71.5695 94.309C72.9146 94.4165 74.1508 92.8564 73.3983 91.5651L73.3997 91.5597Z" fill="white"/>
<path d="M141.326 85.8569C136.701 79.0239 130.247 73.6422 127.451 65.5717C127.182 64.7641 126.159 61.8602 127.289 61.1601C128.366 60.5151 130.032 61.9677 130.677 62.6665C133.312 65.6254 133.905 69.9308 136.701 72.9972C138.53 74.9873 141.702 73.8048 142.079 71.2221C142.562 67.6168 144.66 64.3341 147.726 62.3977C148.803 61.7514 150.63 60.6226 151.922 60.9989C153.858 61.5364 153.966 64.1728 153.751 65.7329C152.729 73.8035 145.951 79.5077 139.821 83.8655C137.132 85.8018 140.144 90.1609 143.049 88.6546C148.265 85.9644 152.891 81.4978 156.009 76.5487C159.021 71.7059 161.817 64.6042 158.752 59.17C155.687 53.6822 149.502 54.0584 144.715 57.0173C139.875 60.0838 136.756 65.0342 136.002 70.6833C137.777 70.0907 139.552 69.4994 141.38 68.9082C139.444 66.7555 138.691 63.9041 137.401 61.3751C136.165 58.9537 134.444 56.9636 132.023 55.6722C127.022 53.0358 120.998 55.5647 120.407 61.4826C119.869 66.9167 123.418 72.4584 126.484 76.6025C129.818 81.1229 134.229 86.3407 139.823 88.0633C141.221 88.6559 142.135 87.0421 141.329 85.8569H141.326Z" fill="white"/>
<mask id="mask1_216_423" style="mask-type:luminance" maskUnits="userSpaceOnUse" x="37" y="102" width="141" height="59">
<path d="M177.144 102.173H37.797V160.76H177.144V102.173Z" fill="white"/>
</mask>
<g mask="url(#mask1_216_423)">
<path d="M37.8507 111.467C38.0657 127.232 47.2086 142.406 60.3854 150.908C70.2271 157.203 82.4888 159.786 93.9993 160.539C117.125 162.045 142.349 155.912 159.666 139.877C169.131 131.053 177.144 118.139 177.144 104.796C177.144 102.213 173.325 101.029 172.465 103.827C170.797 109.207 169.292 114.534 166.71 119.592C164.451 124.057 161.547 128.254 158.051 131.859C150.736 139.499 141.486 144.826 131.644 148.485C112.23 155.587 89.3191 155.857 69.9032 148.324C54.8451 142.458 43.6047 127.123 41.3996 111.251C41.1295 109.261 37.7956 109.422 37.8494 111.466L37.8507 111.467Z" fill="white"/>
</g>
</g>
<defs>
<clipPath id="clip0_216_423">
<rect width="215" height="215" fill="white" transform="translate(0 0.038269)"/>
</clipPath>
</defs>
</svg>
