<svg width="214" height="216" viewBox="0 0 214 216" fill="none" xmlns="http://www.w3.org/2000/svg">
<g clip-path="url(#clip0_385_2332)">
<path d="M105.063 159.036C103.948 158.72 102.861 158.195 101.799 157.564C101.879 157.485 101.932 157.406 101.959 157.327C101.959 157.196 101.667 157.222 101.401 157.327C97.3422 154.777 93.6809 150.545 90.3911 149.126C90.338 149.178 90.2584 149.205 90.1788 149.257L89.9666 149.021C88.9849 148.574 87.9502 148.469 86.942 148.889C87.5257 148.653 88.1094 148.416 88.6931 148.179C88.7196 148.232 86.889 147.575 85.6685 149.389C85.4563 149.283 85.2706 149.205 85.0848 149.126C84.8195 148.705 84.4481 148.39 84.0767 148.837C83.1481 148.784 82.8297 149.546 83.6787 151.807C87.4461 161.901 101.587 171.706 112.359 172.153C115.383 172.285 120.557 169.682 125.598 166.055C126.394 165.476 127.163 164.898 127.959 164.293C128.278 164.609 128.41 164.32 128.437 163.925C136.9 157.143 143.666 148.363 136.927 146.523C133.557 145.603 130.188 151.36 125.81 156.723C125.571 156.644 125.518 156.802 125.571 157.012C123.237 159.825 120.61 162.506 117.532 163.978C116.392 163.978 114.694 164.451 114.508 164.451C115.967 162.033 112.916 163.689 111.51 165.108C111.404 165.108 111.298 165.108 111.191 165.056C110.528 164.609 108.644 162.926 108.193 162.848C108.087 162.848 110.422 163.216 109.281 162.19C109.44 162.322 105.832 159.641 105.063 158.983V159.036ZM92.434 154.462C92.434 154.462 92.2483 154.304 92.1687 154.225C92.3809 154.015 92.4605 154.225 92.434 154.462ZM98.5096 159.299C98.5096 159.299 98.3239 159.194 98.2443 159.115C98.4035 158.931 98.5892 158.773 98.8545 158.615C98.7749 158.878 98.6423 159.088 98.5096 159.299ZM97.9259 158.747L97.7933 158.826C97.7933 158.826 97.6871 158.747 97.6606 158.72C97.7933 158.668 97.8994 158.668 97.9259 158.747ZM97.3688 157.695C97.0239 157.932 97.3422 157.327 97.3688 157.695V157.695ZM93.7871 153.332C91.3462 154.883 94.6095 151.465 93.7871 153.332V153.332ZM92.9381 152.674C91.3993 154.357 92.434 152.858 92.5666 152.78C92.7789 152.596 92.9115 152.569 92.9381 152.674ZM92.1687 151.781C90.5237 155.119 92.8585 151.754 92.1687 151.781V151.781ZM86.889 149.467C86.889 149.467 87.4726 150.125 86.9155 150.125C86.7563 150.019 86.5971 149.914 86.4379 149.835C86.5175 149.73 86.6502 149.625 86.8624 149.467H86.889Z" fill="black"/>
<path d="M77.8949 118.896C77.8949 118.896 78.0541 118.712 78.1868 118.502C79.6725 117.082 81.1848 115.557 82.644 113.928C85.2175 111.877 87.2074 110.195 86.8625 109.879C86.3053 110.3 85.7216 110.668 85.1114 111.036C85.8278 110.142 86.5441 109.249 87.2074 108.328C88.6931 107.172 89.9666 106.199 90.0993 106.12C91.3727 103.387 91.7442 101.914 91.585 101.284C91.7177 101.047 91.8238 100.81 91.9299 100.574C93.8401 97.5508 93.283 98.8652 94.4504 94.3964C94.7157 95.1061 94.8218 95.8422 94.7422 96.6045C95.432 94.4752 96.6259 85.932 95.83 82.5935C96.0688 83.3821 96.3341 84.1708 96.5729 84.9594C98.43 84.8279 89.4094 72.4468 90.0993 72.7622C88.9054 73.8663 87.1543 73.1039 89.834 72.6571C83.6257 70.5804 76.2235 75.4698 70.6254 78.0459C69.2723 78.6768 63.8335 82.5672 61.1007 86.0371C61.1803 86.0371 61.313 86.1686 61.5518 86.5103L61.1803 87.0097C61.1803 87.0097 60.9946 86.3526 61.0212 86.116C60.5701 86.7206 60.1987 87.2989 59.9334 87.8509C58.5272 85.1434 56.6701 82.9353 54.5741 81.2529C55.1578 81.358 55.768 81.4106 56.3782 81.3843C55.2374 80.5169 54.6272 80.7272 54.07 80.8586C51.6291 78.9922 48.8699 77.8093 46.1107 77.2836C42.98 75.0492 40.2473 73.3405 39.9289 73.9451C40.433 73.7348 43.4576 76.0218 44.2535 76.679C43.1922 76.0481 34.9941 74.5234 32.3675 77.2047C30.4838 79.1237 31.4655 80.2277 33.2431 80.622C32.7125 81.1215 32.2614 81.6998 31.8104 82.3044C31.8104 81.8838 31.7308 81.5683 31.4124 81.4632C29.8471 84.9594 30.1389 82.9878 29.5818 87.7984C29.2369 87.1412 29.0246 86.4314 28.9716 85.6691C28.5736 88.2978 28.6532 94.5804 29.741 98.2869C30.9349 100.837 32.9247 107.093 32.9247 107.645C34.2247 107.172 35.1798 108.144 33.0043 107.803C33.9859 108.696 35.5513 110.142 37.4881 111.798C37.3023 111.825 37.1432 111.904 37.1166 112.061C37.0901 112.272 37.7268 112.429 38.0717 112.298C43.2453 116.793 50.5148 122.76 55.317 124.968C55.37 124.916 55.4231 124.863 55.5027 124.81L55.9802 125.126C55.9802 125.126 55.8741 125.152 55.8211 125.178C57.917 126.072 59.4823 126.151 60.066 124.889C59.8538 125.599 59.8273 126.282 59.9864 126.992C60.4109 126.046 60.6497 125.652 60.7824 125.783C60.7824 125.52 60.7824 125.231 60.7824 124.968C62.5334 125.52 63.4886 125.573 62.8783 124.81C63.2763 124.521 63.6477 124.206 64.0457 123.917C61.6048 127.676 61.3926 130.252 67.7866 126.519C70.2275 125.836 75.0561 122.55 74.7908 122.155C74.6316 122.05 74.4724 121.998 74.3132 121.945C75.0561 121.341 75.8255 120.657 76.6214 119.974C76.5419 120.105 76.4888 120.236 76.4357 120.368C76.5153 120.236 76.5419 120.105 76.6214 119.974C77.0459 119.579 77.497 119.185 77.948 118.896H77.8949ZM94.6891 87.2726C94.6891 87.2726 94.6891 87.1938 94.6891 87.1412C94.7422 87.1412 94.7687 87.1412 94.8218 87.1412C94.8218 87.1675 94.7687 87.22 94.7157 87.2989L94.6891 87.2726ZM94.1851 83.5924C91.8768 81.4369 94.8749 84.3285 94.1851 83.5924V83.5924ZM79.6195 75.7326C79.6195 75.7326 79.4603 75.7589 79.3542 75.7852C79.3542 75.6801 79.3807 75.5749 79.4338 75.4435C79.5399 75.5223 79.5399 75.6275 79.5929 75.7326H79.6195ZM68.4764 80.0437C68.556 80.3854 68.556 80.622 68.5295 80.7534C68.4764 80.806 68.4233 80.8323 68.3703 80.8586C67.8397 80.7797 67.1233 79.4391 68.4764 80.0174V80.0437ZM67.1498 81.2266C67.309 81.3843 67.3886 81.5158 67.4948 81.6209C67.4152 81.6998 67.3356 81.7524 67.256 81.8312C67.1764 81.7786 67.1233 81.6998 67.1233 81.6998C66.9907 81.4369 67.0172 81.2792 67.1764 81.2266H67.1498ZM66.2478 82.6724C66.0886 82.8038 65.9294 82.9353 65.7968 83.093C65.7437 82.909 65.6641 82.6987 65.5845 82.4621C65.7172 81.0689 65.9294 81.6998 66.2478 82.6724ZM42.2637 76.9944C41.3085 77.0207 40.4065 77.1521 39.5044 77.3361C40.0616 76.3372 41.0698 76.4161 42.2637 76.9944ZM37.6472 77.8619C37.6472 77.8619 37.4881 77.9407 37.4085 77.967C37.1432 77.5202 37.6207 77.6516 37.6472 77.8619ZM36.2676 76.1795C36.2676 76.1795 36.2676 76.0481 36.4003 76.1795C36.4003 76.2058 35.1798 78.2825 33.8798 77.7304C34.3309 76.679 35.1533 76.1532 36.2676 76.1795ZM34.3839 78.9659C34.8084 79.334 33.5084 79.2814 33.3227 79.2025C32.8982 78.0196 33.3227 77.9145 34.3839 78.9659ZM33.0043 79.518C33.0043 79.518 33.0043 79.4654 33.5084 79.7545C33.588 79.9123 33.6676 80.0437 33.7206 80.1488C33.6145 80.2277 33.5084 80.3329 33.4023 80.4117C32.9247 80.0174 32.3675 79.2551 33.0043 79.4917V79.518ZM30.6165 84.1182C30.7492 83.8816 30.4838 83.3821 31.1471 83.2507C30.9879 83.5136 30.8553 83.7764 30.7226 84.0393C30.59 84.2233 30.4838 84.3285 30.6165 84.1445V84.1182ZM48.7107 119.868C48.8699 119.947 49.0556 120.052 49.2413 120.131C48.976 120.368 48.6842 120.42 48.7107 119.868ZM51.4434 121.656C50.3026 121.709 50.4883 121.577 51.3373 121.13C51.523 121.209 51.7087 121.314 51.921 121.393C51.7618 121.472 51.6291 121.551 51.4434 121.656Z" fill="black"/>
<path d="M129.738 99.6274C129.525 99.2331 129.287 98.8914 129.048 98.5234C130.268 100.942 132.417 106.094 132.603 107.251C133.77 106.909 134.513 107.671 132.603 107.461C133.001 107.855 134.805 109.459 136.981 111.273C136.821 111.325 136.662 111.404 136.636 111.562C136.636 111.746 137.219 111.903 137.564 111.772C140.748 114.374 144.542 117.213 146.479 117.739C146.744 117.923 146.983 118.133 147.248 118.317C146.373 121.183 150.379 123.575 154.12 124.574C154.067 124.521 154.12 124.39 154.544 124.074L155.075 124.416C155.075 124.416 154.491 124.6 154.252 124.626C157.277 125.415 160.036 125.231 159.665 123.601C159.983 124.311 160.514 124.731 161.257 124.889C160.859 124.127 160.673 123.68 160.699 123.522C160.806 123.417 161.044 123.522 161.495 123.917C161.495 123.917 161.31 123.706 161.097 123.417C161.257 123.365 161.442 123.259 161.601 123.154C161.92 122.944 162.238 122.734 162.583 122.497C162.583 122.55 162.61 122.602 162.636 122.655C163.379 124.153 170.33 118.948 170.118 118.633C169.349 118.107 168.659 118.186 168.075 118.843C168.102 118.738 168.208 118.633 168.287 118.501C169.853 117.371 171.471 116.109 173.143 114.795C172.957 115.189 172.798 115.61 172.904 115.584C172.957 115.584 173.355 114.926 173.54 114.48C175.636 112.771 177.732 110.931 179.722 109.012C180.651 108.223 181.234 107.698 181.234 107.487C188.424 100.022 193.465 91.2419 189.751 82.9615C189.724 82.6986 189.671 82.4358 189.618 82.2255C189.831 82.9615 190.069 83.6713 190.308 84.4073C191.476 84.3547 184.524 72.3679 185.135 72.7622C183.888 73.7085 182.216 72.9725 184.896 72.657C182.508 71.737 164.759 73.5245 165.661 78.4927C163.326 76.3372 159.24 80.5957 157.622 84.5124C157.118 82.0152 153.642 76.8892 152.899 77.599C152.793 77.8881 152.74 78.151 152.74 78.4139C150.724 76.9944 148.813 75.9692 147.009 75.2594C147.222 75.3383 148.893 75.496 148.76 75.3646C148.707 75.2594 146.771 74.944 146.983 75.2331C146.611 75.1017 146.266 74.9966 145.922 74.8651C146.452 72.5782 139.289 73.1039 136.689 73.393C137.538 73.5245 138.785 73.8925 139.687 74.1817C139.183 74.2605 138.679 74.3657 138.201 74.4971C135.203 74.944 130.534 76.2583 129.393 77.5201C127.27 79.9122 128.942 80.8848 131.223 80.9111C130.613 82.2255 130.136 83.6713 129.817 85.1959C128.517 83.829 129.817 82.1203 128.729 81.8049C127.615 85.0908 127.748 84.4336 127.774 88.324C127.35 87.7457 127.031 87.0886 126.846 86.4051C126.925 89.0864 128.013 97.1565 129.711 99.7063L129.738 99.6274ZM129.525 94.8695C129.525 94.8695 129.631 94.6592 129.764 94.5015C129.764 94.5803 129.764 94.6592 129.791 94.7381C129.711 94.7906 129.631 94.8169 129.525 94.8432V94.8695ZM170.41 83.4084C171.391 82.8038 172.453 82.2255 173.7 81.7523C174.734 81.3843 175.716 81.1477 176.645 81.0688C174.602 81.6472 172.479 82.462 170.41 83.4084ZM148.15 118.922C148.15 118.922 148.416 119.106 148.548 119.211C148.336 119.369 148.15 119.316 148.15 118.922ZM150.14 120.289C150.299 120.394 150.458 120.499 150.618 120.604C149.716 120.604 149.689 120.526 150.14 120.289ZM157.967 122.76C157.967 122.76 158.152 122.707 158.232 122.681C158.391 122.813 158.55 122.944 158.71 123.049C158.657 123.075 158.152 122.918 157.94 122.734L157.967 122.76ZM176.512 75.3383C176.512 75.3383 176.326 75.3383 176.247 75.3646C176.247 75.2594 176.194 75.1806 176.194 75.0754L176.512 75.3383ZM174.787 74.6811C175.053 74.944 175.106 75.2331 175.132 75.5749C175 75.6012 174.867 75.6274 174.734 75.6537C174.628 75.3909 174.628 75.0754 174.787 74.6811ZM174.018 75.5749L173.965 75.864C173.965 75.864 173.779 75.8903 173.7 75.9166C173.753 75.7326 173.859 75.5486 174.018 75.5749ZM172.347 75.6274C171.896 75.5223 172.347 76.0743 172.347 75.6274V75.6274ZM164.573 78.9133C162.663 78.0458 165.183 81.358 164.573 78.9133V78.9133ZM163.353 80.0437C163.671 80.3854 163.83 80.5957 163.91 80.7271C163.857 80.7534 163.804 80.806 163.75 80.8585C163.565 80.7271 163.353 80.5694 163.326 80.5168C163.193 80.2539 163.193 80.0962 163.326 80.0437H163.353ZM162.663 81.6734C162.53 81.7786 162.397 81.91 162.265 82.0152C162.159 81.7786 162.052 81.5157 161.946 81.2003C161.946 79.6493 162.371 80.7797 162.689 81.6734H162.663ZM158.285 85.0645L157.967 85.5639C157.887 85.3536 157.356 83.8815 158.285 85.0645ZM145.55 74.6548C145.55 74.6548 145.444 74.6022 145.391 74.6022C145.471 74.6022 145.524 74.6022 145.55 74.6548ZM133.107 76.232C133.001 76.7578 132.178 78.3087 131.011 77.9144C131.356 76.8892 132.072 76.3372 133.107 76.232ZM131.595 79.1236C132.046 79.4653 130.719 79.439 130.56 79.4128C130.056 78.2561 130.534 78.151 131.595 79.1236ZM130.268 79.7282C130.268 79.7282 130.268 79.6756 130.799 79.9648C132.205 82.1466 129.048 79.3602 130.268 79.7282ZM128.782 83.5398C128.756 83.829 128.146 84.9856 128.331 84.4861C128.438 84.2496 128.066 83.7501 128.782 83.5398Z" fill="black"/>
<path d="M197.179 48.6044C186.673 30.4927 169.852 17.3755 150.538 9.46314C140.748 5.44123 130.454 2.6811 120.054 0.78844C118.462 0.499283 110.343 -1.84026 111.378 3.33828C111.723 5.07322 116.26 6.20355 120.849 6.96588C126.394 9.46314 133.717 12.933 136.264 13.301C142.127 14.1685 145.603 17.8487 153.828 17.691C154.119 17.691 154.199 17.5858 154.146 17.4544C156.879 18.8739 159.558 20.4248 162.132 22.0546C160.779 23.8158 164.334 25.025 167.916 26.0239C169.428 27.1543 170.887 28.3109 172.346 29.4938C171.922 29.7041 171.577 29.8618 171.577 29.8618C172.426 31.3076 175.636 33.2528 178.767 35.2507C181.075 37.5113 183.251 39.8509 185.32 42.3218C184.524 45.3186 188.902 48.5781 190.494 49.9451C192.696 49.4982 195.614 73.393 202.194 71.1061C204.104 74.7074 201.796 77.4675 203.069 82.1203C204.237 79.5968 205.059 81.358 206.041 82.1729C206.094 82.3569 206.147 82.5146 206.174 82.6986C202.327 84.0656 206.067 88.9549 205.696 92.2145C206.386 91.5311 207.076 90.8739 207.739 90.1904C207.951 91.3208 208.11 92.4774 208.269 93.634C207.553 93.1608 206.704 92.898 205.749 92.9505C206.2 95.4478 206.518 97.9977 206.651 100.521C207.633 99.9429 208.402 99.8903 209.012 100.311C209.039 100.731 209.065 101.152 209.092 101.599C208.349 101.862 207.58 101.862 206.784 101.625C204.847 108.118 205.537 110.221 208.88 107.882C209.012 107.908 209.145 107.882 209.251 107.882C209.251 108.959 209.251 110.037 209.225 111.141C208.641 110.721 207.925 110.3 207.049 109.853C206.89 112.061 204.847 119.106 208.8 118.028C208.8 118.081 208.8 118.133 208.8 118.186C206.227 120.867 206.757 123.023 207.978 124.679C207.686 126.414 207.367 128.149 207.023 129.857C204.608 130.515 202.3 131.592 204.131 135.273C204.635 134.615 205.298 134.221 206.067 134.063C205.457 136.455 204.794 138.821 204.051 141.161C201.292 143.868 199.7 147.575 197.71 151.938C198.373 152.254 198.931 152.517 199.461 152.753C199.249 153.227 199.037 153.673 198.824 154.12C198.612 153.989 198.426 153.857 198.188 153.726C198.188 154.488 198.082 155.224 197.922 155.934C197.073 157.616 196.198 159.273 195.269 160.902C194.606 161.56 193.837 162.164 192.935 162.69C193.332 162.769 193.73 162.795 194.128 162.795C193.2 164.346 192.218 165.871 191.21 167.369C191.077 166.843 190.812 166.265 190.308 165.634C187.894 169.183 185.718 173.336 183.171 176.78C182.879 177.174 182.614 177.857 182.375 178.699C180.571 180.67 178.714 182.589 176.751 184.403C177.016 183.719 177.334 183.01 177.679 182.353C171.02 188.215 164.944 193.866 156.799 197.757C156.958 198.046 157.171 198.309 157.356 198.572C156.746 198.913 156.109 199.255 155.473 199.57C153.005 200.859 150.458 202.041 147.858 203.146C145.709 203.408 143.613 203.908 142.234 205.301C140.934 205.748 139.607 206.142 138.28 206.537C138.201 206.195 138.148 205.827 138.042 205.485C135.866 206.09 130.984 207.167 130.295 207.535C130.507 207.851 130.719 208.087 130.958 208.324C130.003 208.534 129.021 208.718 128.066 208.876C125.386 208.403 121.274 208.482 120.425 208.534C121.407 208.745 121.884 209.165 121.858 209.717C121.168 209.796 120.478 209.875 119.762 209.954C116.153 210.269 112.545 210.322 108.964 210.217C109.017 210.006 109.043 209.796 109.149 209.56C107.053 209.428 105.01 209.06 103.021 208.429C103.312 208.718 103.551 209.27 103.684 209.928C99.7838 209.612 95.9367 209.06 92.1163 208.298C89.5693 206.773 81.8753 204.802 79.2221 204.88C77.9486 204.46 76.6752 203.987 75.4282 203.514C74.4731 200.859 72.5363 198.677 69.9097 201.253C69.0077 200.859 68.1321 200.464 67.2301 200.044C64.0463 197.257 58.7136 193.183 56.3523 194.05C55.5033 193.577 54.7605 193.104 54.0441 192.631C51.4175 190.501 47.5175 186.69 46.7215 185.928C44.4664 183.798 43.0072 183.43 41.6275 183.22C40.4867 182.221 39.3459 181.196 38.2316 180.144C38.6826 179.803 37.6479 178.962 35.9499 177.936C32.8192 174.808 29.8743 171.47 27.1681 167.974C27.8579 167.632 28.5212 167.921 29.0253 169.472C31.4661 167.974 29.2906 167.448 26.6375 167.29C25.7089 166.081 24.8068 164.845 23.9048 163.584C24.5415 163.689 25.3109 164.004 26.213 164.53C25.1252 163.032 23.719 162.112 22.2333 161.086C18.8904 155.987 15.9454 150.624 13.5576 144.972C12.8148 143.185 12.1249 141.397 11.5147 139.61C10.7984 136.114 10.082 132.539 8.88815 128.543C8.46365 126.992 8.03915 123.181 7.24322 120.552C6.18197 110.642 6.81872 100.705 8.88815 90.9527C9.36571 89.8487 9.81674 89.2178 10.1882 89.3755C10.1882 87.7194 10.2943 86.1422 10.4535 84.5913C13.2393 74.4971 17.5108 64.6921 22.8966 55.439C24.4354 53.1258 26.0272 50.7863 27.6456 48.3153C27.513 48.3416 27.4334 48.3153 27.3273 48.3679C27.6456 47.8947 27.9375 47.4215 28.2559 46.9484C28.2559 47.1324 28.2559 47.2901 28.2559 47.5004C32.1294 42.4533 36.2948 37.5902 41.2826 33.5946C40.752 33.4894 40.2745 33.3317 39.7969 33.1477C40.2479 32.7008 40.6724 32.2277 41.1235 31.7808C43.299 32.3591 44.599 30.887 48.8705 27.496C53.1155 24.105 56.6442 23.6318 54.4155 21.1871C54.9462 20.8454 55.4768 20.4774 56.0074 20.1356C56.2462 20.5825 56.5115 21.082 56.7768 21.634C60.9157 18.4796 64.4443 17.5332 66.0892 14.7731C66.7525 14.4577 67.4423 14.1685 68.1321 13.8793C68.2913 14.1422 68.3444 14.4839 68.2117 14.9834C69.1668 14.5102 70.122 14.0371 71.0771 13.5639C70.8648 13.3536 70.6526 13.1433 70.4403 12.933C70.8914 12.749 71.3424 12.565 71.82 12.4073C71.8465 12.6439 71.8996 12.9067 71.873 13.1959C83.5732 8.28022 96.202 8.91111 107.345 3.8903C108.725 3.23313 107.61 2.62853 105.541 2.0765C107.266 1.52447 108.38 1.15646 108.274 1.15646C106.523 1.23532 104.798 1.39304 103.047 1.55076C98.8021 0.788439 93.2306 0.288987 92.5142 0.315274C89.0652 0.52557 86.5978 1.20903 84.5284 2.10279H88.0305C86.0937 3.60115 84.7406 3.8903 83.9447 2.97026C83.8386 2.83882 83.7324 2.70739 83.6528 2.52338C80.6018 4.07431 78.4262 6.12469 75.0302 7.85963C73.518 8.41166 72.0057 9.01626 70.5199 9.64715C70.3077 9.72601 70.122 9.77858 69.8832 9.83116C69.4587 10.094 68.9546 10.278 68.477 10.5146C69.6179 9.14769 66.779 9.85744 67.628 7.83335C65.1076 8.9374 52.3196 15.5091 52.8767 15.9034C54.5747 15.1674 56.2462 14.4577 57.9442 13.7216C53.0625 16.14 37.0111 23.4741 35.7907 28.7841C36.6928 29.3624 37.4356 29.8618 38.1254 30.2824C37.7805 30.5979 37.4622 30.887 37.1173 31.2025C36.5866 30.5716 36.1091 29.8881 35.7111 29.0469C31.8906 35.7501 27.1946 34.8038 24.1966 43.4522C23.8782 44.3459 23.0292 46.2386 21.9415 48.4467C19.1557 52.3635 16.5822 56.4642 14.2474 60.7753C13.9556 61.0382 13.6637 61.2485 13.425 61.301C10.5065 62.2999 0.902281 89.1915 2.6268 92.0305C2.54721 91.8991 2.78599 91.3996 3.15743 90.7161C2.33496 94.8432 1.75128 98.944 1.45943 103.045C1.19412 104.149 0.981874 104.964 0.902281 105.279C-0.742648 112.245 0.530845 121.262 1.93699 128.149C2.2819 127.912 2.60027 127.623 2.86558 127.334C3.92683 133.117 5.51869 138.769 7.58812 144.289C8.41059 147.023 9.36571 149.494 10.5331 151.308C11.9392 154.331 13.478 157.301 15.1495 160.193C16.4495 164.977 21.7027 170.944 25.2048 174.65C29.0518 179.356 33.2968 183.772 37.9397 187.899C38.6826 188.951 39.3724 190.081 39.9826 191.369C42.1582 196.39 46.2705 195.391 49.7726 197.152C52.638 199.097 55.5829 200.964 58.634 202.672C96.4408 223.991 146.24 219.601 178.873 190.764C219.996 154.409 223.843 94.3438 197.339 48.6307L197.179 48.6044ZM75.1629 11.7238C74.9506 11.5661 74.7914 11.4609 74.6323 11.3295C74.8445 11.2507 75.0302 11.1981 75.2425 11.1192C75.269 11.5398 75.5078 11.9341 75.1894 11.7238H75.1629ZM62.3484 13.2747C61.3136 13.4588 61.7912 13.5902 62.1361 13.485C61.4728 13.8268 60.783 14.1685 60.1197 14.5365C59.5361 14.3262 58.8728 14.0108 58.2891 13.6428C59.6422 13.5113 60.9953 13.4062 62.3749 13.2747H62.3484ZM51.4441 18.9002C52.6114 18.0327 53.4339 17.8224 54.0706 18.059C53.4074 18.4796 52.7441 18.9264 52.0808 19.347C51.8686 19.1893 51.6828 19.0579 51.4441 18.9002ZM194.261 58.2255C194.765 57.4631 195.137 56.9374 195.375 56.5694C195.72 57.174 196.092 57.7786 196.437 58.3832C195.747 58.1729 195.03 58.094 194.261 58.2255ZM185.983 173.862C186.434 173.336 186.965 172.863 187.496 172.416C187.124 172.889 186.753 173.336 186.381 173.809C186.249 173.809 186.143 173.836 185.983 173.862Z" fill="black"/>
</g>
<defs>
<clipPath id="clip0_385_2332">
<rect width="214" height="216" fill="white"/>
</clipPath>
</defs>
</svg>
