<svg width="215" height="216" viewBox="0 0 215 216" fill="none" xmlns="http://www.w3.org/2000/svg">
<g clip-path="url(#clip0_385_2472)">
<mask id="mask0_385_2472" style="mask-type:luminance" maskUnits="userSpaceOnUse" x="0" y="0" width="215" height="216">
<path d="M215 0.0380859H0V215.038H215V0.0380859Z" fill="white"/>
</mask>
<g mask="url(#mask0_385_2472)">
<path d="M107.5 215.038C48.1103 215.038 0 166.597 0 107.538C0 48.4789 48.1103 0.0380859 107.5 0.0380859C166.89 0.0380859 215 48.1484 215 107.538C215 166.928 166.559 215.038 107.5 215.038ZM107.5 6.67487C51.7599 6.67487 6.63678 51.798 6.63678 107.538C6.63678 163.278 51.7599 208.403 107.5 208.403C163.24 208.403 208.365 163.28 208.365 107.538C208.365 51.7966 162.91 6.67487 107.5 6.67487Z" fill="black"/>
</g>
<path d="M73.3996 91.5596C72.3232 89.7308 70.872 88.4932 69.4207 86.9331C67.8606 85.2641 66.5169 83.4353 65.2255 81.5527C62.9129 78.1624 60.4928 74.2346 59.309 70.2531C58.9328 69.0693 58.3415 66.0566 60.169 65.6252C61.6753 65.249 63.2878 67.9392 63.8267 68.908C65.763 72.567 66.838 76.2798 70.442 78.7013C72.0007 79.7776 74.6896 79.1313 75.2284 77.1412C76.1422 73.5359 78.2397 70.4694 81.4137 68.4243C83.0813 67.3479 84.9101 66.6492 86.8451 66.3804C87.1139 66.3267 88.6202 66.0042 88.5665 65.9504C89.2652 66.2729 88.459 68.9631 88.3515 69.4482C87.0064 73.6985 83.0813 77.5725 80.0686 80.694C76.7872 84.083 73.2383 87.097 69.4207 89.8409C65.8705 92.3699 70.442 97.7503 73.9384 95.0063C79.3161 90.8098 84.21 85.9669 88.4052 80.5865C91.9541 76.0124 96.9018 69.4482 94.2667 63.3153C91.7928 57.6111 83.2412 60.0325 79.1535 62.3465C74.3671 65.0904 70.657 69.6632 69.2581 75.0987C70.872 74.5598 72.4307 74.0223 74.0446 73.5386C71.8395 71.9785 71.087 69.127 70.0106 66.7593C68.8268 64.1767 67.1068 61.6477 64.7404 60.1414C59.2553 56.5898 52.7475 60.1951 51.8324 66.3831C50.9724 72.2486 55.2213 78.4889 58.2864 83.1168C61.1903 87.4222 65.9229 93.8776 71.5694 94.3089C72.9145 94.4164 74.1507 92.8563 73.3982 91.565L73.3996 91.5596Z" fill="black"/>
<path d="M141.326 85.8569C136.701 79.0239 130.247 73.6422 127.451 65.5717C127.182 64.7641 126.16 61.8602 127.29 61.1601C128.366 60.5151 130.032 61.9677 130.677 62.6665C133.312 65.6254 133.905 69.9308 136.701 72.9972C138.53 74.9873 141.703 73.8048 142.079 71.2221C142.563 67.6168 144.66 64.3341 147.727 62.3977C148.803 61.7514 150.631 60.6226 151.922 60.9989C153.858 61.5364 153.966 64.1728 153.751 65.7329C152.729 73.8035 145.952 79.5077 139.821 83.8655C137.133 85.8018 140.144 90.1609 143.049 88.6546C148.266 85.9644 152.891 81.4978 156.01 76.5487C159.021 71.7059 161.817 64.6042 158.752 59.17C155.687 53.6822 149.502 54.0584 144.715 57.0173C139.875 60.0838 136.756 65.0342 136.003 70.6833C137.778 70.0907 139.553 69.4994 141.38 68.9082C139.444 66.7555 138.691 63.9041 137.401 61.3751C136.165 58.9537 134.444 56.9636 132.024 55.6722C127.022 53.0358 120.998 55.5647 120.407 61.4826C119.869 66.9167 123.418 72.4584 126.485 76.6025C129.819 81.1229 134.229 86.3407 139.823 88.0633C141.222 88.6559 142.135 87.0421 141.329 85.8569H141.326Z" fill="black"/>
<mask id="mask1_385_2472" style="mask-type:luminance" maskUnits="userSpaceOnUse" x="37" y="102" width="141" height="59">
<path d="M177.144 102.173H37.7969V160.76H177.144V102.173Z" fill="white"/>
</mask>
<g mask="url(#mask1_385_2472)">
<path d="M37.8506 111.467C38.0656 127.232 47.2085 142.406 60.3853 150.908C70.2269 157.203 82.4887 159.786 93.9992 160.539C117.125 162.045 142.349 155.912 159.666 139.877C169.131 131.053 177.144 118.139 177.144 104.796C177.144 102.213 173.325 101.029 172.465 103.827C170.797 109.207 169.292 114.534 166.71 119.592C164.451 124.057 161.547 128.254 158.05 131.859C150.736 139.499 141.486 144.826 131.644 148.485C112.23 155.587 89.3189 155.857 69.9031 148.324C54.845 142.458 43.6046 127.123 41.3995 111.251C41.1294 109.261 37.7955 109.422 37.8493 111.466L37.8506 111.467Z" fill="black"/>
</g>
</g>
<defs>
<clipPath id="clip0_385_2472">
<rect width="215" height="215" fill="white" transform="translate(0 0.0380859)"/>
</clipPath>
</defs>
</svg>
