<svg width="214" height="216" viewBox="0 0 214 216" fill="none" xmlns="http://www.w3.org/2000/svg">
<g clip-path="url(#clip0_271_922)">
<path d="M105.063 159.036C103.949 158.721 102.861 158.195 101.8 157.564C101.88 157.485 101.933 157.406 101.959 157.327C101.959 157.196 101.667 157.222 101.402 157.327C97.3427 154.778 93.6814 150.545 90.3916 149.126C90.3385 149.179 90.2589 149.205 90.1793 149.257L89.9671 149.021C88.9854 148.574 87.9507 148.469 86.9425 148.889C87.5262 148.653 88.1099 148.416 88.6936 148.18C88.7201 148.232 86.8895 147.575 85.669 149.389C85.4568 149.284 85.2711 149.205 85.0853 149.126C84.82 148.705 84.4486 148.39 84.0772 148.837C83.1486 148.784 82.8302 149.547 83.6792 151.807C87.4466 161.901 101.588 171.706 112.359 172.153C115.384 172.285 120.557 169.682 125.598 166.055C126.394 165.476 127.164 164.898 127.96 164.294C128.278 164.609 128.411 164.32 128.437 163.926C136.901 157.143 143.666 148.364 136.927 146.524C133.558 145.604 130.188 151.36 125.811 156.723C125.572 156.644 125.519 156.802 125.572 157.012C123.237 159.825 120.611 162.506 117.533 163.978C116.392 163.978 114.694 164.451 114.508 164.451C115.968 162.033 112.916 163.689 111.51 165.108C111.404 165.108 111.298 165.108 111.192 165.056C110.529 164.609 108.645 162.927 108.194 162.848C108.088 162.848 110.423 163.216 109.282 162.191C109.441 162.322 105.833 159.641 105.063 158.984V159.036ZM92.4345 154.462C92.4345 154.462 92.2487 154.304 92.1691 154.226C92.3814 154.015 92.461 154.226 92.4345 154.462ZM98.5101 159.299C98.5101 159.299 98.3244 159.194 98.2448 159.115C98.404 158.931 98.5897 158.773 98.855 158.616C98.7754 158.878 98.6427 159.089 98.5101 159.299ZM97.9264 158.747L97.7937 158.826C97.7937 158.826 97.6876 158.747 97.6611 158.721C97.7937 158.668 97.8999 158.668 97.9264 158.747ZM97.3692 157.696C97.0243 157.932 97.3427 157.328 97.3692 157.696V157.696ZM93.7875 153.332C91.3467 154.883 94.61 151.466 93.7875 153.332V153.332ZM92.9385 152.675C91.3997 154.357 92.4345 152.859 92.5671 152.78C92.7794 152.596 92.912 152.57 92.9385 152.675ZM92.1691 151.781C90.5242 155.119 92.859 151.755 92.1691 151.781V151.781ZM86.8895 149.468C86.8895 149.468 87.4731 150.125 86.916 150.125C86.7568 150.02 86.5976 149.915 86.4384 149.836C86.518 149.731 86.6507 149.625 86.8629 149.468H86.8895Z" fill="white"/>
<path d="M77.8954 118.896C77.8954 118.896 78.0546 118.712 78.1873 118.502C79.673 117.082 81.1853 115.558 82.6445 113.928C85.218 111.877 87.2079 110.195 86.863 109.88C86.3058 110.3 85.7221 110.668 85.1119 111.036C85.8282 110.142 86.5446 109.249 87.2079 108.329C88.6936 107.172 89.9671 106.199 90.0997 106.12C91.3732 103.387 91.7447 101.915 91.5855 101.284C91.7181 101.047 91.8243 100.811 91.9304 100.574C93.8406 97.5509 93.2835 98.8653 94.4508 94.3965C94.7162 95.1063 94.8223 95.8423 94.7427 96.6046C95.4325 94.4754 96.6264 85.9321 95.8305 82.5937C96.0692 83.3823 96.3346 84.1709 96.5733 84.9595C98.4305 84.828 89.4099 72.4469 90.0997 72.7623C88.9058 73.8664 87.1548 73.1041 89.8344 72.6572C83.6262 70.5805 76.224 75.4699 70.6259 78.046C69.2728 78.6769 63.8339 82.5674 61.1012 86.0372C61.1808 86.0372 61.3135 86.1687 61.5523 86.5104L61.1808 87.0099C61.1808 87.0099 60.9951 86.3527 61.0216 86.1161C60.5706 86.7207 60.1992 87.299 59.9339 87.851C58.5277 85.1435 56.6705 82.9354 54.5746 81.253C55.1583 81.3582 55.7685 81.4107 56.3787 81.3845C55.2379 80.517 54.6276 80.7273 54.0705 80.8587C51.6296 78.9923 48.8704 77.8094 46.1112 77.2837C42.9805 75.0493 40.2478 73.3406 39.9294 73.9452C40.4335 73.7349 43.458 76.0219 44.254 76.6791C43.1927 76.0482 34.9946 74.5236 32.368 77.2048C30.4843 79.1238 31.466 80.2278 33.2436 80.6221C32.7129 81.1216 32.2619 81.6999 31.8109 82.3045C31.8109 81.8839 31.7313 81.5685 31.4129 81.4633C29.8476 84.9595 30.1394 82.988 29.5823 87.7985C29.2374 87.1413 29.0251 86.4316 28.9721 85.6692C28.5741 88.2979 28.6537 94.5805 29.7415 98.287C30.9354 100.837 32.9252 107.093 32.9252 107.645C34.2252 107.172 35.1803 108.145 33.0048 107.803C33.9864 108.697 35.5518 110.142 37.4885 111.798C37.3028 111.825 37.1436 111.904 37.1171 112.061C37.0906 112.272 37.7273 112.429 38.0722 112.298C43.2458 116.793 50.5153 122.76 55.3175 124.968C55.3705 124.916 55.4236 124.863 55.5032 124.811L55.9807 125.126C55.9807 125.126 55.8746 125.152 55.8215 125.179C57.9175 126.072 59.4828 126.151 60.0665 124.889C59.8543 125.599 59.8277 126.283 59.9869 126.992C60.4114 126.046 60.6502 125.652 60.7829 125.783C60.7829 125.52 60.7829 125.231 60.7829 124.968C62.5339 125.52 63.489 125.573 62.8788 124.811C63.2768 124.521 63.6482 124.206 64.0462 123.917C61.6053 127.676 61.3931 130.252 67.7871 126.519C70.2279 125.836 75.0566 122.55 74.7913 122.156C74.6321 122.05 74.4729 121.998 74.3137 121.945C75.0566 121.341 75.826 120.657 76.6219 119.974C76.5423 120.105 76.4893 120.237 76.4362 120.368C76.5158 120.237 76.5423 120.105 76.6219 119.974C77.0464 119.579 77.4975 119.185 77.9485 118.896H77.8954ZM94.6896 87.2727C94.6896 87.2727 94.6896 87.1939 94.6896 87.1413C94.7427 87.1413 94.7692 87.1413 94.8223 87.1413C94.8223 87.1676 94.7692 87.2202 94.7162 87.299L94.6896 87.2727ZM94.1855 83.5926C91.8773 81.437 94.8754 84.3286 94.1855 83.5926V83.5926ZM79.62 75.7328C79.62 75.7328 79.4608 75.759 79.3546 75.7853C79.3546 75.6802 79.3812 75.575 79.4342 75.4436C79.5404 75.5225 79.5404 75.6276 79.5934 75.7328H79.62ZM68.4769 80.0438C68.5565 80.3856 68.5565 80.6221 68.5299 80.7536C68.4769 80.8061 68.4238 80.8324 68.3708 80.8587C67.8401 80.7799 67.1238 79.4392 68.4769 80.0175V80.0438ZM67.1503 81.2267C67.3095 81.3845 67.3891 81.5159 67.4952 81.621C67.4156 81.6999 67.3361 81.7525 67.2565 81.8313C67.1769 81.7788 67.1238 81.6999 67.1238 81.6999C66.9911 81.437 67.0177 81.2793 67.1769 81.2267H67.1503ZM66.2483 82.6725C66.0891 82.804 65.9299 82.9354 65.7972 83.0931C65.7442 82.9091 65.6646 82.6988 65.585 82.4622C65.7177 81.069 65.9299 81.6999 66.2483 82.6725ZM42.2641 76.9945C41.309 77.0208 40.407 77.1523 39.5049 77.3363C40.0621 76.3374 41.0702 76.4162 42.2641 76.9945ZM37.6477 77.862C37.6477 77.862 37.4885 77.9409 37.409 77.9672C37.1436 77.5203 37.6212 77.6517 37.6477 77.862ZM36.2681 76.1796C36.2681 76.1796 36.2681 76.0482 36.4008 76.1796C36.4008 76.2059 35.1803 78.2826 33.8803 77.7306C34.3313 76.6791 35.1538 76.1534 36.2681 76.1796ZM34.3844 78.9661C34.8089 79.3341 33.5089 79.2815 33.3232 79.2026C32.8987 78.0197 33.3232 77.9146 34.3844 78.9661ZM33.0048 79.5181C33.0048 79.5181 33.0048 79.4655 33.5089 79.7547C33.5885 79.9124 33.6681 80.0438 33.7211 80.149C33.615 80.2278 33.5089 80.333 33.4028 80.4118C32.9252 80.0175 32.368 79.2552 33.0048 79.4918V79.5181ZM30.617 84.1183C30.7496 83.8817 30.4843 83.3823 31.1476 83.2508C30.9884 83.5137 30.8558 83.7766 30.7231 84.0394C30.5905 84.2234 30.4843 84.3286 30.617 84.1446V84.1183ZM48.7112 119.869C48.8704 119.947 49.0561 120.053 49.2418 120.131C48.9765 120.368 48.6847 120.421 48.7112 119.869ZM51.4439 121.656C50.3031 121.709 50.4888 121.577 51.3378 121.13C51.5235 121.209 51.7092 121.314 51.9215 121.393C51.7623 121.472 51.6296 121.551 51.4439 121.656Z" fill="white"/>
<path d="M129.737 99.6276C129.525 99.2333 129.286 98.8916 129.047 98.5236C130.268 100.942 132.417 106.094 132.602 107.251C133.77 106.909 134.513 107.671 132.602 107.461C133 107.855 134.805 109.459 136.98 111.273C136.821 111.325 136.662 111.404 136.635 111.562C136.635 111.746 137.219 111.904 137.564 111.772C140.748 114.375 144.541 117.214 146.478 117.739C146.744 117.923 146.982 118.134 147.248 118.318C146.372 121.183 150.378 123.575 154.119 124.574C154.066 124.521 154.119 124.39 154.544 124.075L155.074 124.416C155.074 124.416 154.491 124.6 154.252 124.627C157.276 125.415 160.036 125.231 159.664 123.601C159.983 124.311 160.513 124.732 161.256 124.889C160.858 124.127 160.672 123.68 160.699 123.522C160.805 123.417 161.044 123.522 161.495 123.917C161.495 123.917 161.309 123.706 161.097 123.417C161.256 123.365 161.442 123.26 161.601 123.154C161.919 122.944 162.238 122.734 162.583 122.497C162.583 122.55 162.609 122.602 162.636 122.655C163.379 124.153 170.33 118.949 170.117 118.633C169.348 118.107 168.658 118.186 168.075 118.843C168.101 118.738 168.207 118.633 168.287 118.502C169.852 117.371 171.471 116.11 173.142 114.795C172.956 115.19 172.797 115.61 172.903 115.584C172.956 115.584 173.354 114.927 173.54 114.48C175.636 112.771 177.732 110.931 179.722 109.012C180.65 108.223 181.234 107.698 181.234 107.487C188.424 100.022 193.465 91.2421 189.75 82.9617C189.724 82.6988 189.671 82.4359 189.618 82.2257C189.83 82.9617 190.069 83.6714 190.308 84.4075C191.475 84.3549 184.524 72.368 185.134 72.7623C183.887 73.7087 182.216 72.9726 184.895 72.6572C182.507 71.7372 164.758 73.5247 165.66 78.4929C163.325 76.3374 159.24 80.5959 157.621 84.5126C157.117 82.0154 153.642 76.8894 152.899 77.5991C152.793 77.8883 152.74 78.1512 152.74 78.414C150.723 76.9945 148.813 75.9694 147.009 75.2596C147.221 75.3385 148.893 75.4962 148.76 75.3648C148.707 75.2596 146.77 74.9442 146.982 75.2333C146.611 75.1019 146.266 74.9967 145.921 74.8653C146.452 72.5783 139.288 73.1041 136.688 73.3932C137.537 73.5247 138.784 73.8927 139.686 74.1818C139.182 74.2607 138.678 74.3658 138.201 74.4973C135.203 74.9442 130.533 76.2585 129.392 77.5203C127.27 79.9124 128.941 80.885 131.223 80.9113C130.613 82.2257 130.135 83.6714 129.817 85.1961C128.517 83.8292 129.817 82.1205 128.729 81.8051C127.615 85.0909 127.747 84.4338 127.774 88.3242C127.349 87.7459 127.031 87.0887 126.845 86.4053C126.925 89.0865 128.013 97.1566 129.711 99.7065L129.737 99.6276ZM129.525 94.8697C129.525 94.8697 129.631 94.6594 129.764 94.5017C129.764 94.5805 129.764 94.6594 129.79 94.7383C129.711 94.7908 129.631 94.8171 129.525 94.8434V94.8697ZM170.409 83.4086C171.391 82.804 172.452 82.2257 173.699 81.7525C174.734 81.3845 175.716 81.1479 176.644 81.069C174.601 81.6473 172.479 82.4622 170.409 83.4086ZM148.15 118.922C148.15 118.922 148.415 119.106 148.548 119.211C148.335 119.369 148.15 119.317 148.15 118.922ZM150.14 120.289C150.299 120.394 150.458 120.499 150.617 120.605C149.715 120.605 149.689 120.526 150.14 120.289ZM157.966 122.76C157.966 122.76 158.152 122.708 158.232 122.681C158.391 122.813 158.55 122.944 158.709 123.049C158.656 123.076 158.152 122.918 157.94 122.734L157.966 122.76ZM176.511 75.3385C176.511 75.3385 176.326 75.3385 176.246 75.3648C176.246 75.2596 176.193 75.1807 176.193 75.0756L176.511 75.3385ZM174.787 74.6813C175.052 74.9442 175.105 75.2333 175.132 75.575C174.999 75.6013 174.867 75.6276 174.734 75.6539C174.628 75.391 174.628 75.0756 174.787 74.6813ZM174.018 75.575L173.964 75.8642C173.964 75.8642 173.779 75.8905 173.699 75.9168C173.752 75.7328 173.858 75.5488 174.018 75.575ZM172.346 75.6276C171.895 75.5225 172.346 76.0745 172.346 75.6276V75.6276ZM164.572 78.9135C162.662 78.046 165.183 81.3582 164.572 78.9135V78.9135ZM163.352 80.0438C163.67 80.3856 163.83 80.5959 163.909 80.7273C163.856 80.7536 163.803 80.8062 163.75 80.8587C163.564 80.7273 163.352 80.5696 163.326 80.517C163.193 80.2541 163.193 80.0964 163.326 80.0438H163.352ZM162.662 81.6736C162.53 81.7788 162.397 81.9102 162.264 82.0154C162.158 81.7788 162.052 81.5159 161.946 81.2005C161.946 79.6495 162.37 80.7799 162.689 81.6736H162.662ZM158.285 85.0646L157.966 85.5641C157.887 85.3538 157.356 83.8817 158.285 85.0646ZM145.55 74.655C145.55 74.655 145.444 74.6024 145.39 74.6024C145.47 74.6024 145.523 74.6024 145.55 74.655ZM133.107 76.2322C133 76.758 132.178 78.3089 131.011 77.9146C131.356 76.8894 132.072 76.3374 133.107 76.2322ZM131.594 79.1238C132.045 79.4655 130.719 79.4392 130.56 79.4129C130.055 78.2563 130.533 78.1512 131.594 79.1238ZM130.268 79.7284C130.268 79.7284 130.268 79.6758 130.798 79.965C132.204 82.1468 129.047 79.3604 130.268 79.7284ZM128.782 83.54C128.755 83.8292 128.145 84.9858 128.331 84.4863C128.437 84.2497 128.066 83.7503 128.782 83.54Z" fill="white"/>
<path d="M197.179 48.6046C186.673 30.4929 169.852 17.3757 150.538 9.46332C140.748 5.44142 130.454 2.68128 120.054 0.788623C118.462 0.499466 110.343 -1.84007 111.378 3.33846C111.723 5.0734 116.26 6.20374 120.849 6.96606C126.394 9.46332 133.717 12.9332 136.264 13.3012C142.127 14.1687 145.603 17.8489 153.828 17.6911C154.119 17.6911 154.199 17.586 154.146 17.4546C156.879 18.8741 159.558 20.425 162.132 22.0548C160.779 23.816 164.334 25.0252 167.916 26.0241C169.428 27.1544 170.887 28.3111 172.346 29.494C171.922 29.7043 171.577 29.862 171.577 29.862C172.426 31.3078 175.636 33.253 178.767 35.2508C181.075 37.5115 183.251 39.8511 185.32 42.322C184.524 45.3187 188.902 48.5783 190.494 49.9453C192.696 49.4984 195.614 73.3932 202.194 71.1063C204.104 74.7076 201.796 77.4677 203.069 82.1205C204.237 79.597 205.059 81.3582 206.041 82.1731C206.094 82.3571 206.147 82.5148 206.174 82.6988C202.327 84.0657 206.067 88.9551 205.696 92.2147C206.386 91.5312 207.076 90.8741 207.739 90.1906C207.951 91.3209 208.11 92.4776 208.269 93.6342C207.553 93.161 206.704 92.8982 205.749 92.9507C206.2 95.448 206.518 97.9978 206.651 100.521C207.633 99.9431 208.402 99.8905 209.012 100.311C209.039 100.732 209.065 101.152 209.092 101.599C208.349 101.862 207.58 101.862 206.784 101.625C204.847 108.118 205.537 110.221 208.88 107.882C209.012 107.908 209.145 107.882 209.251 107.882C209.251 108.959 209.251 110.037 209.225 111.141C208.641 110.721 207.925 110.3 207.049 109.853C206.89 112.061 204.847 119.106 208.8 118.029C208.8 118.081 208.8 118.134 208.8 118.186C206.227 120.867 206.757 123.023 207.978 124.679C207.686 126.414 207.367 128.149 207.023 129.858C204.608 130.515 202.3 131.593 204.131 135.273C204.635 134.616 205.298 134.221 206.067 134.064C205.457 136.456 204.794 138.821 204.051 141.161C201.292 143.869 199.7 147.575 197.71 151.939C198.373 152.254 198.931 152.517 199.461 152.754C199.249 153.227 199.037 153.674 198.824 154.12C198.612 153.989 198.426 153.858 198.188 153.726C198.188 154.489 198.082 155.225 197.922 155.934C197.073 157.617 196.198 159.273 195.269 160.903C194.606 161.56 193.837 162.164 192.935 162.69C193.332 162.769 193.73 162.795 194.128 162.795C193.2 164.346 192.218 165.871 191.21 167.369C191.077 166.843 190.812 166.265 190.308 165.634C187.894 169.183 185.718 173.336 183.171 176.78C182.879 177.174 182.614 177.858 182.375 178.699C180.571 180.67 178.714 182.589 176.751 184.403C177.016 183.72 177.334 183.01 177.679 182.353C171.02 188.215 164.944 193.866 156.799 197.757C156.958 198.046 157.171 198.309 157.356 198.572C156.746 198.913 156.109 199.255 155.473 199.571C153.005 200.859 150.458 202.042 147.858 203.146C145.709 203.409 143.613 203.908 142.234 205.301C140.934 205.748 139.607 206.142 138.28 206.537C138.201 206.195 138.148 205.827 138.042 205.485C135.866 206.09 130.984 207.168 130.295 207.536C130.507 207.851 130.719 208.088 130.958 208.324C130.003 208.535 129.021 208.719 128.066 208.876C125.386 208.403 121.274 208.482 120.425 208.535C121.407 208.745 121.884 209.165 121.858 209.717C121.168 209.796 120.478 209.875 119.762 209.954C116.153 210.269 112.545 210.322 108.964 210.217C109.017 210.007 109.043 209.796 109.149 209.56C107.053 209.428 105.01 209.06 103.021 208.429C103.312 208.719 103.551 209.271 103.684 209.928C99.7838 209.612 95.9367 209.06 92.1163 208.298C89.5693 206.773 81.8753 204.802 79.2221 204.881C77.9486 204.46 76.6752 203.987 75.4282 203.514C74.4731 200.859 72.5363 198.677 69.9097 201.253C69.0077 200.859 68.1321 200.464 67.2301 200.044C64.0463 197.257 58.7136 193.183 56.3523 194.05C55.5033 193.577 54.7605 193.104 54.0441 192.631C51.4175 190.502 47.5175 186.69 46.7215 185.928C44.4664 183.798 43.0072 183.43 41.6275 183.22C40.4867 182.221 39.3459 181.196 38.2316 180.145C38.6826 179.803 37.6479 178.962 35.9499 177.937C32.8192 174.808 29.8743 171.47 27.1681 167.974C27.8579 167.632 28.5212 167.921 29.0253 169.472C31.4661 167.974 29.2906 167.448 26.6375 167.29C25.7089 166.081 24.8068 164.846 23.9048 163.584C24.5415 163.689 25.3109 164.004 26.213 164.53C25.1252 163.032 23.719 162.112 22.2333 161.087C18.8904 155.987 15.9454 150.624 13.5576 144.973C12.8148 143.185 12.1249 141.398 11.5147 139.61C10.7984 136.114 10.082 132.539 8.88815 128.543C8.46365 126.992 8.03915 123.181 7.24322 120.552C6.18197 110.642 6.81872 100.705 8.88815 90.9529C9.36571 89.8489 9.81674 89.218 10.1882 89.3757C10.1882 87.7196 10.2943 86.1424 10.4535 84.5915C13.2393 74.4973 17.5108 64.6922 22.8966 55.4392C24.4354 53.126 26.0272 50.7864 27.6456 48.3155C27.513 48.3417 27.4334 48.3155 27.3273 48.368C27.6456 47.8949 27.9375 47.4217 28.2559 46.9485C28.2559 47.1325 28.2559 47.2903 28.2559 47.5006C32.1294 42.4535 36.2948 37.5904 41.2826 33.5948C40.752 33.4896 40.2745 33.3319 39.7969 33.1479C40.2479 32.701 40.6724 32.2278 41.1235 31.781C43.299 32.3593 44.599 30.8872 48.8705 27.4962C53.1155 24.1052 56.6442 23.632 54.4155 21.1873C54.9462 20.8456 55.4768 20.4776 56.0074 20.1358C56.2462 20.5827 56.5115 21.0822 56.7768 21.6342C60.9157 18.4797 64.4443 17.5334 66.0892 14.7733C66.7525 14.4578 67.4423 14.1687 68.1321 13.8795C68.2913 14.1424 68.3444 14.4841 68.2117 14.9836C69.1668 14.5104 70.122 14.0373 71.0771 13.5641C70.8648 13.3538 70.6526 13.1435 70.4403 12.9332C70.8914 12.7492 71.3424 12.5652 71.82 12.4075C71.8465 12.644 71.8996 12.9069 71.873 13.1961C83.5732 8.28041 96.202 8.9113 107.345 3.89048C108.725 3.23331 107.61 2.62871 105.541 2.07668C107.266 1.52466 108.38 1.15664 108.274 1.15664C106.523 1.2355 104.798 1.39322 103.047 1.55094C98.8021 0.788623 93.2306 0.28917 92.5142 0.315457C89.0652 0.525753 86.5978 1.20921 84.5284 2.10297H88.0305C86.0937 3.60133 84.7406 3.89048 83.9447 2.97044C83.8386 2.83901 83.7324 2.70757 83.6528 2.52356C80.6018 4.07449 78.4262 6.12488 75.0302 7.85982C73.518 8.41184 72.0057 9.01644 70.5199 9.64733C70.3077 9.72619 70.122 9.77876 69.8832 9.83134C69.4587 10.0942 68.9546 10.2782 68.477 10.5148C69.6179 9.14788 66.779 9.85763 67.628 7.83353C65.1076 8.93758 52.3196 15.5093 52.8767 15.9036C54.5747 15.1676 56.2462 14.4578 57.9442 13.7218C53.0625 16.1402 37.0111 23.4743 35.7907 28.7842C36.6928 29.3626 37.4356 29.862 38.1254 30.2826C37.7805 30.598 37.4622 30.8872 37.1173 31.2026C36.5866 30.5718 36.1091 29.8883 35.7111 29.0471C31.8906 35.7503 27.1946 34.804 24.1966 43.4524C23.8782 44.3461 23.0292 46.2388 21.9415 48.4469C19.1557 52.3637 16.5822 56.4644 14.2474 60.7755C13.9556 61.0384 13.6637 61.2486 13.425 61.3012C10.5065 62.3001 0.902281 89.1917 2.6268 92.0307C2.54721 91.8992 2.78599 91.3998 3.15743 90.7163C2.33496 94.8434 1.75128 98.9442 1.45943 103.045C1.19412 104.149 0.981874 104.964 0.902281 105.279C-0.742648 112.245 0.530845 121.262 1.93699 128.149C2.2819 127.912 2.60027 127.623 2.86558 127.334C3.92683 133.117 5.51869 138.769 7.58812 144.289C8.41059 147.023 9.36571 149.494 10.5331 151.308C11.9392 154.331 13.478 157.301 15.1495 160.193C16.4495 164.977 21.7027 170.944 25.2048 174.651C29.0518 179.356 33.2968 183.772 37.9397 187.899C38.6826 188.951 39.3724 190.081 39.9826 191.369C42.1582 196.39 46.2705 195.391 49.7726 197.152C52.638 199.098 55.5829 200.964 58.634 202.673C96.4408 223.991 146.24 219.601 178.873 190.765C219.996 154.41 223.843 94.3439 197.339 48.6309L197.179 48.6046ZM75.1629 11.724C74.9506 11.5663 74.7914 11.4611 74.6323 11.3297C74.8445 11.2508 75.0302 11.1983 75.2425 11.1194C75.269 11.54 75.5078 11.9343 75.1894 11.724H75.1629ZM62.3484 13.2749C61.3136 13.4589 61.7912 13.5904 62.1361 13.4852C61.4728 13.827 60.783 14.1687 60.1197 14.5367C59.5361 14.3264 58.8728 14.011 58.2891 13.6429C59.6422 13.5115 60.9953 13.4064 62.3749 13.2749H62.3484ZM51.4441 18.9003C52.6114 18.0329 53.4339 17.8226 54.0706 18.0592C53.4074 18.4798 52.7441 18.9266 52.0808 19.3472C51.8686 19.1895 51.6828 19.0581 51.4441 18.9003ZM194.261 58.2256C194.765 57.4633 195.137 56.9376 195.375 56.5696C195.72 57.1742 196.092 57.7788 196.437 58.3834C195.747 58.1731 195.03 58.0942 194.261 58.2256ZM185.983 173.862C186.434 173.336 186.965 172.863 187.496 172.416C187.124 172.889 186.753 173.336 186.381 173.809C186.249 173.809 186.143 173.836 185.983 173.862Z" fill="white"/>
</g>
<defs>
<clipPath id="clip0_271_922">
<rect width="214" height="216" fill="white"/>
</clipPath>
</defs>
</svg>
