<svg width="218" height="181" viewBox="0 0 218 181" fill="none" xmlns="http://www.w3.org/2000/svg">
<g clip-path="url(#clip0_385_2456)">
<path d="M210.082 0.103214C205.438 0.558622 200.843 1.9899 196.314 3.0959C191.736 4.21815 187.092 4.81994 182.498 5.82834C177.61 6.88554 170.995 8.93488 173.08 15.1967C174.4 19.1816 176.893 21.2309 172.771 24.8904C171.891 25.6711 168.649 28.5174 167.769 28.3873C167.133 28.2897 164.135 25.6386 163.093 25.1181C156.054 21.6538 147.614 20.7267 139.891 19.9623C129.285 18.8888 118.385 22.4995 109.13 27.5253C105.139 29.6885 101.147 32.4697 98.377 36.1292C96.2426 38.9593 95.1021 42.2772 93.7987 45.5302C88.9922 44.5868 84.088 44.1477 79.2164 44.2127C63.5263 44.4079 47.9502 50.0354 36.6592 61.1116C24.2602 73.2775 17.6453 90.827 21.6208 107.986C22.6472 112.378 24.2928 116.623 26.2969 120.656C27.3559 122.803 28.643 124.804 29.7836 126.902C31.2173 129.553 30.4679 130.496 28.4312 132.481C27.6166 133.261 26.8508 134.058 26.0688 134.888C25.7918 135.18 24.9445 136.335 24.472 136.563C24.3743 136.612 24.3091 136.644 24.2439 136.693C24.2277 136.482 24.1136 136.205 23.8692 135.815C22.5658 133.847 21.0505 131.147 18.6066 130.447C14.126 129.163 6.59866 136.368 4.38281 139.686C0.260689 145.85 5.78401 149.672 9.38476 154.096C5.84918 156.861 1.1568 159.366 0.162931 163.887C-0.879819 168.588 3.47041 171.938 6.37055 174.882C9.41734 177.989 13.1321 181.323 17.7919 179.583C22.2725 177.908 24.6676 172.947 27.4862 169.206C31.0544 171.613 34.3619 175.452 38.9728 173.988C43.0135 172.703 46.9075 168.067 49.1722 164.684C51.4043 161.334 51.8768 157.886 48.7486 154.861C46.8912 153.072 45.3433 153.673 46.6957 151.201C47.9828 148.826 50.3779 146.891 52.9685 147.509C55.2821 148.062 57.449 149.867 59.5671 150.957C72.1127 157.365 87.7214 160.13 101 154.177C108.299 150.908 118.988 145.134 121.92 137.132C122.344 135.961 122.523 134.888 122.474 133.879C130.474 137.409 140.168 136.921 149.325 135.05C163.761 132.09 175.752 124.234 183.801 111.971C190.823 101.253 195.532 87.753 194.522 74.8064C194.066 69.0325 192.453 63.3724 189.129 58.5743C188.298 57.3708 187.271 56.3136 186.392 55.1425C184.665 52.8817 184.942 52.6703 186.587 50.133C188.607 46.9777 190.905 44.0338 192.974 40.9273C196.412 43.985 200.697 48.0674 205.047 45.1561C209.854 41.9357 210.994 31.624 212.574 26.5819C214.644 19.946 225.104 -1.29554 210.114 0.168272L210.082 0.103214ZM114.246 139.149C104.259 149.526 89.4158 154.291 75.3387 151.315C70.0761 150.193 65.0578 148.241 60.3329 145.687C57.6283 144.24 54.8422 141.93 51.5836 141.979C47.0541 142.044 41.1235 147.786 40.5695 152.226C39.9178 157.365 47.2985 157.235 44.6753 162.05C43.6 164.018 40.2111 167.823 38.1093 168.588C34.867 169.775 31.2173 164.928 28.2357 163.562C27.2093 163.09 25.8895 163.058 25.0586 163.969C23.1849 166.034 21.7348 168.344 20.1055 170.605C18.6229 172.654 16.7003 175.712 13.3277 174.329C11.9916 173.776 10.4601 171.825 9.43363 170.784C5.97952 167.319 3.91032 164.945 8.55381 161.334C10.6719 159.675 12.8552 158.292 14.7451 156.341C15.5109 155.56 15.8042 154.145 15.1525 153.185C13.7839 151.152 12.0405 149.607 10.346 147.851C6.76159 144.142 9.12407 141.459 12.5456 138.807C15.1199 136.823 16.6677 135.246 18.965 137.994C20.2685 139.539 20.9202 141.459 23.022 142.207C26.7531 143.54 29.2133 139.377 31.4617 137.116C34.6226 133.944 37.5879 131.472 35.7957 126.739C34.6389 123.649 32.4556 120.9 30.9892 117.94C28.92 113.744 27.3233 109.304 26.4761 104.717C24.7001 95.0883 26.6879 85.4434 31.4291 76.937C38.7773 63.7465 51.3392 54.6546 66.0028 51.239C71.6565 49.9216 77.4894 49.4499 83.2897 49.6776C86.1898 49.7915 89.0248 50.377 91.9087 50.5884C97.3016 50.9625 100.3 52.345 105.285 54.4106C107.452 55.3052 110.564 56.2485 112.992 57.6635C128.372 71.2119 136.568 89.0379 132.934 109.58C132.429 109.548 131.94 109.499 131.435 109.45C127.704 109.043 123.794 108.165 120.128 106.717C120.226 106.571 120.307 106.425 120.372 106.23C124.364 92.1769 116.397 76.3027 104.536 68.6746C91.762 60.461 75.4691 58.5093 61.6363 65.2266C35.8771 77.7503 26.2969 121.502 57.1069 134.367C64.4876 137.458 72.8459 137.978 80.6828 136.677C90.0839 135.099 97.3994 129.894 104.454 123.812C105.595 124.706 106.8 125.552 108.055 126.398C110.271 127.878 116.707 130.708 117.244 133.489C117.652 135.668 115.615 137.783 114.246 139.198V139.149ZM135.313 80.011C133.146 74.7413 130.295 69.7969 126.939 65.194C123.99 61.1604 120.324 58.1352 116.853 54.6871C125.733 44.538 143.753 42.2447 155.419 48.4578C170.18 56.3298 173.927 75.6521 168.811 90.4041C164.184 103.79 151.134 109.401 137.936 109.694C140.12 99.8701 139.126 89.2981 135.297 80.011H135.313ZM101.701 73.489C111.819 80.499 116.641 91.9005 117.195 105.368C113.187 103.351 109.652 100.569 107.208 96.8611C104.633 92.9576 102.825 88.062 102.059 83.4266C101.522 80.1086 101.961 76.7581 101.684 73.489H101.701ZM82.9964 89.3144C83.9414 94.8281 85.9454 100.13 88.5523 105.075C91.5665 110.816 96.0471 115.598 99.2731 121.16C92.87 126.528 86.2387 130.74 77.636 131.749C69.6199 132.676 60.8217 131.456 54.0764 126.82C40.2111 117.289 40.3903 97.4955 48.4227 84.2886C56.2108 71.4722 71.0048 64.9501 85.5055 67.1133C81.2042 73.1962 81.807 82.3369 83.0127 89.3144H82.9964ZM210.945 14.7413C209.446 19.149 208.11 23.6055 206.693 28.0457C205.894 30.5505 204.868 38.1298 202.815 39.8213C200.175 42.017 196.493 36.8937 194.18 35.1046C192.86 34.0799 191.019 34.0474 190.058 35.6413C188.086 38.9105 185.821 41.9357 183.589 45.0422C181.993 47.2705 179.549 49.9866 179.467 52.9143C179.337 57.4033 184.583 60.7863 186.457 64.6085C191.964 75.8636 188.852 90.03 183.817 100.878C178.261 112.865 169.691 122.299 157.211 127.162C144.062 132.302 129.008 133.294 116.902 125.991C103.493 117.924 93.1469 107.384 88.9922 91.9167C87.0534 84.7115 85.7988 74.5949 90.7356 68.2843C93.4728 69.0975 95.9493 70.1547 98.2303 71.3908C97.4972 80.2225 96.9432 87.7042 100.984 96.1292C104.536 103.513 110.76 108.409 118.271 111.467C131.305 116.753 148.266 116.411 160.437 108.962C185.43 93.6408 179.874 48.6855 151.003 41.2688C138.116 37.9671 120.601 40.7809 112.373 52.1824C110.026 50.8487 107.436 49.8403 105.171 48.9132C102.988 48.0186 100.739 47.2542 98.4584 46.6199C99.3383 44.9284 100.071 43.1393 101.13 41.3502C103.9 36.6172 108.593 33.592 113.399 31.1848C123.631 26.0777 133.651 24.2561 144.959 25.8826C149.374 26.5169 153.871 27.1837 158.074 28.7126C160.828 29.721 162.588 31.0872 164.95 32.6811C165.846 33.2829 166.384 33.8034 167.492 33.9335C171.891 34.4703 179.5 26.9398 180.591 23.0037C181.259 20.5803 180.412 18.3846 179.369 16.2214C178.115 13.6353 177.349 13.4076 180.103 11.8137C181.764 10.8541 184.404 10.6752 186.278 10.3336C190.774 9.50414 195.206 8.67464 199.654 7.56865C202.391 6.88554 212.02 3.24228 213.096 6.56025C213.78 8.67464 211.646 12.7245 210.961 14.7251L210.945 14.7413Z" fill="black"/>
</g>
<defs>
<clipPath id="clip0_385_2456">
<rect width="218" height="180" fill="white" transform="translate(0 0.0380859)"/>
</clipPath>
</defs>
</svg>
