<svg width="218" height="181" viewBox="0 0 218 181" fill="none" xmlns="http://www.w3.org/2000/svg">
<g clip-path="url(#clip0_216_409)">
<path d="M210.082 0.103336C205.438 0.558744 200.843 1.99003 196.314 3.09602C191.736 4.21827 187.092 4.82006 182.498 5.82846C177.61 6.88566 170.995 8.935 173.08 15.1969C174.4 19.1817 176.893 21.231 172.771 24.8905C171.891 25.6712 168.649 28.5175 167.769 28.3874C167.133 28.2898 164.135 25.6387 163.093 25.1182C156.054 21.6539 147.614 20.7268 139.891 19.9624C129.285 18.8889 118.385 22.4996 109.13 27.5254C105.139 29.6886 101.147 32.4698 98.377 36.1294C96.2426 38.9594 95.1021 42.2774 93.7987 45.5303C88.9922 44.5869 84.088 44.1478 79.2164 44.2129C63.5263 44.408 47.9502 50.0356 36.6592 61.1117C24.2602 73.2776 17.6453 90.8271 21.6208 107.986C22.6472 112.378 24.2928 116.623 26.2969 120.656C27.3559 122.803 28.643 124.804 29.7836 126.902C31.2173 129.553 30.4679 130.496 28.4312 132.481C27.6166 133.261 26.8508 134.058 26.0688 134.888C25.7918 135.181 24.9445 136.335 24.472 136.563C24.3743 136.612 24.3091 136.644 24.2439 136.693C24.2277 136.482 24.1136 136.205 23.8692 135.815C22.5658 133.847 21.0505 131.147 18.6066 130.448C14.126 129.163 6.59866 136.368 4.38281 139.686C0.260689 145.85 5.78401 149.672 9.38476 154.096C5.84918 156.861 1.1568 159.366 0.162931 163.888C-0.879819 168.588 3.47041 171.939 6.37055 174.882C9.41734 177.989 13.1321 181.323 17.7919 179.583C22.2725 177.908 24.6676 172.947 27.4862 169.206C31.0544 171.613 34.3619 175.452 38.9728 173.988C43.0135 172.703 46.9075 168.068 49.1722 164.685C51.4043 161.334 51.8768 157.886 48.7486 154.861C46.8912 153.072 45.3433 153.673 46.6957 151.201C47.9828 148.827 50.3779 146.891 52.9685 147.509C55.2821 148.062 57.449 149.868 59.5671 150.957C72.1127 157.365 87.7214 160.13 101 154.178C108.299 150.908 118.988 145.135 121.92 137.132C122.344 135.961 122.523 134.888 122.474 133.879C130.474 137.409 140.168 136.921 149.325 135.05C163.761 132.09 175.752 124.235 183.801 111.971C190.823 101.253 195.532 87.7531 194.522 74.8065C194.066 69.0326 192.453 63.3725 189.129 58.5745C188.298 57.3709 187.271 56.3137 186.392 55.1426C184.665 52.8819 184.942 52.6704 186.587 50.1332C188.607 46.9778 190.905 44.0339 192.974 40.9274C196.412 43.9851 200.697 48.0676 205.047 45.1562C209.854 41.9358 210.994 31.6241 212.574 26.5821C214.644 19.9461 225.104 -1.29542 210.114 0.168395L210.082 0.103336ZM114.246 139.149C104.259 149.526 89.4158 154.291 75.3387 151.315C70.0761 150.193 65.0578 148.241 60.3329 145.688C57.6283 144.24 54.8422 141.93 51.5836 141.979C47.0541 142.044 41.1235 147.786 40.5695 152.226C39.9178 157.365 47.2985 157.235 44.6753 162.05C43.6 164.018 40.2111 167.824 38.1093 168.588C34.867 169.775 31.2173 164.928 28.2357 163.562C27.2093 163.091 25.8895 163.058 25.0586 163.969C23.1849 166.034 21.7348 168.344 20.1055 170.605C18.6229 172.654 16.7003 175.712 13.3277 174.329C11.9916 173.776 10.4601 171.825 9.43363 170.784C5.97952 167.319 3.91032 164.945 8.55381 161.334C10.6719 159.675 12.8552 158.293 14.7451 156.341C15.5109 155.56 15.8042 154.145 15.1525 153.185C13.7839 151.152 12.0405 149.607 10.346 147.851C6.76159 144.142 9.12407 141.459 12.5456 138.808C15.1199 136.823 16.6677 135.246 18.965 137.994C20.2685 139.54 20.9202 141.459 23.022 142.207C26.7531 143.541 29.2133 139.377 31.4617 137.116C34.6226 133.944 37.5879 131.472 35.7957 126.739C34.6389 123.649 32.4556 120.9 30.9892 117.94C28.92 113.744 27.3233 109.304 26.4761 104.717C24.7001 95.0884 26.6879 85.4435 31.4291 76.9372C38.7773 63.7466 51.3392 54.6547 66.0028 51.2391C71.6565 49.9217 77.4894 49.45 83.2897 49.6777C86.1898 49.7916 89.0248 50.3771 91.9087 50.5886C97.3016 50.9627 100.3 52.3451 105.285 54.4107C107.452 55.3053 110.564 56.2486 112.992 57.6637C128.372 71.212 136.568 89.038 132.934 109.58C132.429 109.548 131.94 109.499 131.435 109.45C127.704 109.043 123.794 108.165 120.128 106.718C120.226 106.571 120.307 106.425 120.372 106.23C124.364 92.1771 116.397 76.3028 104.536 68.6748C91.762 60.4612 75.4691 58.5094 61.6363 65.2267C35.8771 77.7504 26.2969 121.502 57.1069 134.367C64.4876 137.458 72.8459 137.978 80.6828 136.677C90.0839 135.099 97.3994 129.895 104.454 123.812C105.595 124.706 106.8 125.552 108.055 126.398C110.271 127.878 116.707 130.708 117.244 133.489C117.652 135.669 115.615 137.783 114.246 139.198V139.149ZM135.313 80.0112C133.146 74.7414 130.295 69.797 126.939 65.1942C123.99 61.1605 120.324 58.1353 116.853 54.6872C125.733 44.5381 143.753 42.2448 155.419 48.4579C170.18 56.33 173.927 75.6523 168.811 90.4042C164.184 103.79 151.134 109.401 137.936 109.694C140.12 99.8702 139.126 89.2982 135.297 80.0112H135.313ZM101.701 73.4891C111.819 80.4991 116.641 91.9006 117.195 105.368C113.187 103.351 109.652 100.57 107.208 96.8613C104.633 92.9578 102.825 88.0621 102.059 83.4267C101.522 80.1088 101.961 76.7583 101.684 73.4891H101.701ZM82.9964 89.3145C83.9414 94.8282 85.9454 100.13 88.5523 105.075C91.5665 110.816 96.0471 115.598 99.2731 121.161C92.87 126.528 86.2387 130.74 77.636 131.749C69.6199 132.676 60.8217 131.456 54.0764 126.821C40.2111 117.29 40.3903 97.4956 48.4227 84.2887C56.2108 71.4723 71.0048 64.9502 85.5055 67.1134C81.2042 73.1963 81.807 82.337 83.0127 89.3145H82.9964ZM210.945 14.7415C209.446 19.1491 208.11 23.6056 206.693 28.0459C205.894 30.5506 204.868 38.1299 202.815 39.8214C200.175 42.0171 196.493 36.8938 194.18 35.1047C192.86 34.08 191.019 34.0475 190.058 35.6414C188.086 38.9106 185.821 41.9358 183.589 45.0423C181.993 47.2706 179.549 49.9868 179.467 52.9144C179.337 57.4034 184.583 60.7864 186.457 64.6086C191.964 75.8637 188.852 90.0302 183.817 100.879C178.261 112.866 169.691 122.299 157.211 127.162C144.062 132.302 129.008 133.294 116.902 125.991C103.493 117.924 93.1469 107.384 88.9922 91.9168C87.0534 84.7116 85.7988 74.5951 90.7356 68.2844C93.4728 69.0976 95.9493 70.1548 98.2303 71.3909C97.4972 80.2226 96.9432 87.7043 100.984 96.1294C104.536 103.513 110.76 108.409 118.271 111.467C131.305 116.753 148.266 116.411 160.437 108.962C185.43 93.6409 179.874 48.6856 151.003 41.269C138.116 37.9673 120.601 40.781 112.373 52.1825C110.026 50.8488 107.436 49.8404 105.171 48.9133C102.988 48.0188 100.739 47.2543 98.4584 46.62C99.3383 44.9285 100.071 43.1394 101.13 41.3503C103.9 36.6173 108.593 33.5921 113.399 31.1849C123.631 26.0779 133.651 24.2562 144.959 25.8827C149.374 26.517 153.871 27.1838 158.074 28.7127C160.828 29.7211 162.588 31.0873 164.95 32.6813C165.846 33.2831 166.384 33.8035 167.492 33.9336C171.891 34.4704 179.5 26.9399 180.591 23.0039C181.259 20.5804 180.412 18.3847 179.369 16.2215C178.115 13.6355 177.349 13.4078 180.103 11.8138C181.764 10.8542 184.404 10.6753 186.278 10.3338C190.774 9.50426 195.206 8.67477 199.654 7.56877C202.391 6.88566 212.02 3.2424 213.096 6.56037C213.78 8.67477 211.646 12.7246 210.961 14.7252L210.945 14.7415Z" fill="white"/>
</g>
<defs>
<clipPath id="clip0_216_409">
<rect width="218" height="180" fill="white" transform="translate(0 0.038269)"/>
</clipPath>
</defs>
</svg>
