<svg width="214" height="222" viewBox="0 0 214 222" fill="none" xmlns="http://www.w3.org/2000/svg">
<g clip-path="url(#clip0_216_665)">
<path fill-rule="evenodd" clip-rule="evenodd" d="M160.416 218.21C159.395 219.215 158.26 219.525 156.739 219.592C157.017 218.976 157.097 218.882 157.229 218.111C156.689 217.985 157.233 218.229 156.551 217.917C155.712 217.533 156.58 217.956 156.042 217.602C156.706 217.196 156.681 217.301 157.234 216.747C159.199 217.992 157.752 216.89 159.083 217.394C159.291 217.472 159.106 217.429 159.491 217.694L159.821 217.936C159.953 218.016 160.292 218.152 160.417 218.209L160.416 218.21ZM148.866 14.8442L148.79 13.5811L147.647 13.7777C147.795 14.8154 147.8 14.8191 148.866 14.8442ZM136.877 109.612C136.494 110.045 137.091 111.366 137.852 110.505C138.211 110.098 137.785 108.584 136.877 109.612ZM101.848 55.6943C101.853 55.6888 102.104 55.1378 102.102 55.0986C102.045 54.1367 101.534 54.2824 100.609 54.3173C100.936 55.6704 100.811 55.2461 101.848 55.6943ZM131.906 123.263C133.291 123.102 132.697 123.365 133.024 122.616C132.888 122.317 132.757 121.538 131.935 121.968C131.227 122.338 131.641 122.365 131.906 123.263C131.395 123.557 131.558 123.506 130.771 123.621C130.998 125.41 131.511 124.226 131.79 126.173L133.188 126.047L133.342 127.468C133.276 128.07 132.266 129.337 135.26 129.157C134.765 130.649 134.596 130.087 135.207 131.26C132.48 130.757 131.505 128.478 130.251 126.37C128.715 123.786 128.113 122.713 127.884 118.86C129.658 119.905 131.332 119.481 132.731 117.698C132.779 117.752 132.829 117.839 132.858 117.875C133.099 118.188 133.562 118.829 134.058 118.907C134.821 119.026 135.047 118.61 135.359 118.12C135.025 117.105 135.025 117.157 133.85 117.05C134.05 115.87 134.491 115.572 134.724 114.257C135.015 112.611 135.045 109.72 133.536 109.373C132.353 109.101 133.31 110.712 133.44 111.334C134.172 114.823 130.332 120.211 127.825 116.89L128.306 116.222C128.412 116.254 130.455 118.434 131.933 114.498C132.294 113.537 132.453 112.899 132.117 111.939C131.489 110.149 131.25 111.49 130.266 110.298C131.679 109.877 133.295 107.851 136.118 107.025C138.923 106.204 144.628 105.753 147.235 107.461L148.449 108.249C150.121 109.42 152.914 113.037 153.355 114.391L151.171 114.74C150.079 113.578 151.399 114.173 150.137 113.749C150.803 112.891 150.646 113.518 150.933 112.54C150.676 112.089 150.506 111.614 150.27 111.128C146.706 111.252 148.435 113.476 149.849 113.766C148.743 116.484 151.769 115.02 148.121 116.611C147.361 116.943 147.387 117.187 146.615 117.733C146.857 119.423 147.584 118.243 146.706 120.404C146.286 121.439 146.275 120.763 145.11 121.597C145.338 122.315 145.212 122.101 145.683 122.805L146.145 123.445C146.51 124.171 146.496 124.834 145.897 125.289C145.835 125.337 145.043 125.747 144.925 125.807L143.902 126.287C142.895 126.84 142.781 126.833 143.473 128.082C141.5 128.244 142.46 129.03 141.5 128.438C140.829 128.024 140.819 127.23 140.759 126.212C140.604 126.307 140.19 126.517 140.011 126.642L138.286 128.393L139.163 131.112C139.719 132.171 140.74 131.653 141.645 131.383C141.52 129.71 141.226 130.412 142.069 129.051C142.956 130.253 142.044 131.141 143.968 131.534C144.765 130.168 144.732 129.613 143.778 128.352C144.525 128.129 144.609 128.038 145.185 127.687C145.794 128.788 145.342 128.991 146.999 129.03C147.541 127.698 146.374 127.232 147.777 127.011C149.422 126.753 147.898 127.078 148.996 127.207C149.475 127.263 149.114 127.242 150.066 127.104C149.95 125.153 150.819 122.39 148.679 122.983C147.515 123.306 148.222 123.956 147.791 122.887L148.998 121.778C149.278 121.512 149.002 121.623 149.434 121.337C149.851 122.596 149.772 121.85 150.218 122.302C151.592 123.693 150.511 124.42 152.759 123.749L152.032 121.184C151.738 120.566 151.925 120.915 151.704 120.62C151.875 120.438 151.71 120.152 153.111 119.955C152.958 118.903 152.854 119.042 152.431 118.254C151.018 118.451 150.301 120.224 149.515 117.849C150.3 117.466 151.293 117.452 152.414 117.964C152.675 117.518 152.911 117.193 153.218 116.769C153.815 115.945 153.174 116.211 154.311 115.818C154.423 117.699 155.02 118.096 154.65 120.2C154.002 123.893 152.322 127.303 149.165 129.313C148.47 129.756 148.201 129.883 147.576 130.365L144.616 132.363C143.457 133.249 136.861 132.735 135.208 131.257C136.093 131.301 136.295 131.506 136.825 130.115C136.85 130.049 136.88 129.973 136.903 129.904C137.386 128.452 137.343 128.472 135.528 126.868C134.158 125.657 134.898 126.241 133.189 126.043C133.397 125.698 133.319 125.74 133.469 125.197C133.129 124.749 133.073 124.726 132.651 124.27C132.61 124.226 132.546 124.169 132.506 124.124L132.232 123.817C132.055 123.581 132.098 123.704 131.907 123.258L131.906 123.263ZM18.4084 87.1226L18.95 86.7558C18.8 85.6305 18.7628 85.6011 17.7282 85.4217C17.3939 86.4473 17.5727 86.5966 18.4084 87.1226ZM148.681 16.597C148.851 15.4589 148.9 16.2603 148.595 15.1509C147.728 15.2226 147.281 14.9991 147.307 15.7393C147.335 16.5132 148.059 16.5744 148.681 16.597ZM67.2475 38.0347L65.7988 37.7678C65.8513 38.5827 65.8409 39.2825 66.5412 39.3927C67.2152 39.4986 67.2628 38.8686 67.2475 38.0347L68.4175 38.2545C67.3366 40.6404 66.8364 40.99 64.9204 42.547C62.4365 44.5649 63.0075 44.3849 58.965 44.628L58.8619 42.8929L57.4211 42.9792L57.2363 44.7321C50.2488 45.1521 46.2186 41.9335 44.4362 35.4382C44.0244 33.9401 43.6365 32.0078 43.8719 30.3676C44.3246 27.2158 44.5991 27.5354 45.8331 25.8144C45.8679 25.766 45.9191 25.6974 45.9533 25.6478L49.1972 21.9572C49.8011 21.454 50.1537 21.3334 50.7771 20.9048C54.8518 18.105 58.9486 17.6274 63.3991 20.4725C64.0634 20.8974 64.5453 21.1031 65.2041 21.5219C67.2006 22.7929 71.7688 28.8119 70.4457 32.3733C69.9577 33.6866 69.6698 36.1307 69.244 36.4637C68.4157 37.1121 69.5368 36.3939 67.8154 36.7098C67.7557 36.7209 67.6202 36.8592 67.5714 36.7833C67.522 36.7062 67.4019 36.8256 67.2701 36.8666L67.2494 38.0341L67.2475 38.0347ZM198.94 127.073C199.227 128.198 199.07 127.964 199.908 128.123L200.284 128.196C200.3 128.193 200.767 128.611 200.72 127.837C200.651 126.68 199.791 126.688 198.94 127.073ZM106.176 191.28L106.09 189.834L104.649 189.921C104.816 191.339 104.721 191.336 106.176 191.281V191.28ZM103.858 196.064C104.012 195.3 103.732 195.747 104.4 195.451L104.348 194.583C103.566 194.565 103.556 194.495 102.89 194.381C102.681 195.31 102.572 195.686 103.858 196.064ZM24.6163 74.8483L25.444 73.0685C23.1346 73.1793 23.6781 73.3293 23.7787 73.9446C23.8324 74.271 24.1392 74.8777 24.6169 74.8489L24.6163 74.8483ZM150.647 15.6083L149.206 15.6946C149.455 16.373 149.602 16.9968 150.37 17.1842C151.366 17.4266 150.84 16.2609 150.647 15.6083ZM92.4738 204.005C93.6438 204.307 92.5385 204.073 93.6609 204.514C94.0787 203.798 93.9921 204.191 94.1684 203.323C92.5257 201.777 92.4738 204.005 92.4738 204.005V204.005ZM91.113 107.758C91.1398 110.207 92.3494 109.896 92.8331 108.194C92.1097 107.897 91.8242 108.05 91.113 107.758C90.4938 105.97 90.7836 106.73 88.906 106.154C88.0374 105.887 89.3787 105.923 87.7793 105.885C87.9154 107.692 88.2881 107.317 89.5776 106.938C89.7807 108.347 89.9784 107.984 91.1136 107.758H91.113ZM106.348 194.173C107.188 193.531 107.159 193.758 107.108 192.386L105.667 192.472C105.77 193.704 105.689 193.556 106.348 194.173ZM105.1 52.0153L105.641 51.1557C104.952 50.2839 105.184 50.2986 103.844 50.3494C104.019 51.8316 104.062 51.5445 105.1 52.0159V52.0153ZM145.746 112.852C146.583 113.958 147.745 114.29 147.296 112.067C146.405 111.967 146.109 112.086 145.746 112.852ZM137.891 24.7919C137.067 24.454 137.316 24.536 136.145 24.6064C136.207 25.5248 136.16 25.7605 136.938 25.9313C137.922 26.1474 137.876 25.5946 137.891 24.7919ZM26.1114 77.0646C25.7143 76.0208 25.6844 76.0171 24.3973 76.022C24.5772 77.7222 24.9554 78.3712 26.1114 77.0646ZM166.542 175.462L164.814 175.566C164.891 176.502 164.984 176.948 165.779 176.918C166.688 176.885 166.567 176.295 166.542 175.462ZM99.407 203.878C100.283 203.825 100.356 203.318 100.491 202.652C99.6138 202.292 99.6693 202.411 98.4567 202.484C98.661 202.959 98.8318 203.913 99.4077 203.878H99.407ZM13.152 86.277C14.8667 86.1742 13.3503 84.5236 13.0483 84.542C11.5789 84.6301 12.4182 86.3211 13.152 86.277ZM133.55 121.713L134.99 121.627C134.799 120.291 134.448 120.084 133.004 120.406C133.106 121.135 133.184 121.111 133.55 121.714V121.713ZM105.232 97.8705L105.126 96.1354L103.687 96.2223C103.801 97.6109 103.894 97.8466 105.232 97.8711V97.8705ZM136.663 115.72C136.709 116.494 137.13 116.551 137.596 116.826C138.699 115.984 138.442 116.318 138.069 115.056C137.435 115.108 136.623 115.054 136.662 115.72H136.663ZM50.1817 42.8335C51.2395 42.378 51.2389 42.6762 51.248 41.3182C50.5599 41.1994 50.3812 41.0947 49.5016 41.1327C49.5778 42.0529 49.7261 42.3174 50.1817 42.8335ZM25.0719 79.9091C25.1945 78.9907 25.2086 78.2952 24.2472 78.3534C23.2419 78.414 23.3829 78.7165 23.622 79.3005C23.9593 80.1246 24.1258 80.1418 25.0719 79.9091ZM49.634 39.8806C49.4479 38.7125 49.3058 38.628 47.9052 38.6158C48.0071 40.3178 48.1938 40.8394 49.634 39.8806ZM144.548 20.0378L145.709 20.2938C145.946 18.9756 146.47 18.3254 144.733 18.285C144.616 18.975 144.515 19.155 144.548 20.0378ZM104.301 198.649L102.572 198.749C102.62 199.743 102.565 200.531 103.446 200.3C104.046 200.143 104.284 199.382 104.3 198.649H104.301ZM96.1338 202.333C96.2015 203.477 96.576 203.162 97.6265 203.114L97.8814 201.949C97.0915 201.627 96.0576 201.059 96.1338 202.333ZM128.921 121.7C129.083 122.969 129.273 123.027 130.448 123.059C130.587 122.273 130.704 122.497 130.667 121.886C130.618 121.049 129.449 121.477 128.921 121.7ZM179.438 71.6414C179.333 70.8124 179.343 70.1959 178.487 70.2467L177.623 70.2987C177.769 72.0755 178.173 71.9916 179.438 71.6408V71.6414ZM171.776 171.083C172.519 171.215 172.242 171.193 172.942 171.235C173.748 170.191 173.564 170.756 173.13 169.55C171.74 169.665 171.691 169.654 171.776 171.083V171.083ZM104.505 100.236C105.045 99.5015 104.571 98.907 104.402 98.4999C103.998 98.5317 103.687 98.4668 103.342 98.667L103.072 99.2076C103.093 100.465 104.375 100.229 104.505 100.236ZM147.009 22.5021C146.485 23.584 147.099 24.1821 147.811 24.0046C148.851 23.7456 148.502 23.5209 148.449 22.4152L147.008 22.5021C148.119 20.5993 146.603 21.3131 145.481 21.1423L145.873 22.2689C145.169 22.4819 145.003 22.6031 144.127 22.6754C144.114 23.9997 144.306 23.8705 145.365 24.0523C146.033 23.4891 146.026 23.4578 146.126 22.2652C146.527 22.4605 146.454 22.4042 147.008 22.5027L147.009 22.5021ZM145.57 8.07461C145.831 9.89971 147.417 9.9493 147.334 8.5491C147.264 7.38278 146.316 7.73114 145.57 8.07461ZM134.778 156.47C134.928 157.251 134.693 157.371 135.495 157.547C136.27 157.718 136.54 157.315 136.501 156.656C136.419 155.284 135.359 155.933 134.778 156.47V156.47ZM107.686 61.4383L108.564 60.5769C107.889 59.781 107.722 59.7228 106.414 59.773C106.629 61.2185 106.656 61.0294 107.686 61.4383ZM97.6466 57.9779C97.8912 58.3557 98.3902 59.3849 98.8855 59.3549C99.357 59.3267 99.7395 59.1296 99.7157 58.7243C99.6468 57.5696 98.1017 57.4037 97.6466 57.9779ZM98.9099 50.0647C100.09 49.69 100.978 48.4888 99.3997 48.5837L98.8239 48.618C96.889 48.7343 98.4323 49.6943 98.9099 50.0641V50.0647ZM61.3513 41.0004C61.4203 42.1564 62.3963 41.939 63.1148 41.4749C63.0239 39.9529 61.258 39.4331 61.3513 41.0004ZM104.202 61.9379C103.983 62.8306 104.675 63.2689 105.772 63.2947C105.996 62.4296 106.307 62.4883 105.614 61.9361C104.416 60.9822 104.236 61.9147 104.202 61.9373V61.9379ZM109.235 48.8635C109.577 48.6841 109.976 48.8316 110.333 47.6365C109.546 47.2765 109.462 47.1351 108.282 47.1792C108.321 47.7951 108.138 47.8931 108.737 48.5151C108.776 48.5555 108.862 48.6045 108.9 48.6376C108.938 48.67 109.033 48.7288 109.065 48.7539C109.097 48.7784 109.182 48.8218 109.235 48.8635ZM105.059 94.977C105.682 94.5962 106.129 94.8062 105.855 93.8193C105.643 93.0607 104.995 93.2058 104.091 93.2934C104.203 94.6623 104.148 94.4407 105.059 94.977ZM176.329 179.517L174.598 179.582C174.666 180.541 174.606 181.232 175.595 181.191C176.358 181.159 176.406 180.454 176.329 179.518V179.517ZM63.3167 40.0129C64.7374 39.8953 64.7246 39.91 64.6715 38.4804C63.7992 38.2876 64.0231 38.249 62.9251 38.2949C63.0081 39.3835 63.0069 39.1717 63.3167 40.0129ZM100.404 201.207C100.599 203.579 102.227 202.671 102.168 201.681L102.117 200.814C101.12 200.889 101.192 200.857 100.405 201.207H100.404ZM192.715 124.545C192.764 124.592 192.839 124.596 192.862 124.687L193.344 125.378C194.299 125.363 194.46 125.354 195.055 124.985C194.561 123.492 193.253 123.408 192.715 124.545ZM91.4387 186.651C91.5101 187.848 92.6434 187.738 93.5078 187.398C93.3858 186.474 93.2138 185.964 92.2689 186.021C91.7974 186.049 91.4149 186.246 91.4387 186.651ZM23.7812 70.5442C23.9001 70.8204 24.1612 71.9016 24.332 72.1122C25.3873 73.415 27.2758 70.382 23.7812 70.5442ZM100.926 98.4197C101.796 98.9321 101.347 98.9817 102.418 99.2009C103.385 97.2019 101.543 97.0005 101.4 96.9399C101.205 97.4376 101.12 97.9146 100.926 98.4197ZM66.1367 63.0651C67.1615 62.8355 68.7597 61.1659 66.0336 61.33C65.4157 61.3667 65.2632 61.6018 65.3749 62.0757C65.4664 62.4645 65.6005 62.489 65.6866 62.6041C66.1556 63.2347 65.8183 62.7528 66.1373 63.0651H66.1367ZM143.534 124.265C144.173 124.098 144.674 123.986 144.62 123.08C144.58 122.413 144.367 122.224 143.704 122.264C142.173 122.356 142.939 123.656 143.534 124.265ZM179.943 167.4C180.666 167.357 181.681 167.437 181.638 166.718C181.579 165.73 180.497 165.705 179.552 165.683C179.624 166.562 179.745 166.729 179.943 167.4ZM106.266 197.661C106.205 196.631 105.515 196.569 104.468 196.608C104.482 197.623 104.386 197.988 105.139 198.369C105.689 198.648 106.323 198.611 106.266 197.661ZM203.272 136.682C203.334 137.712 204.023 137.774 205.07 137.735C205.317 136.779 205.228 136.89 204.967 136C204.244 136.043 203.229 135.963 203.272 136.682ZM159.189 212.188L157.46 212.291C157.477 213.27 157.399 214.063 158.431 214.001C159.47 213.939 159.247 213.164 159.189 212.187V212.188ZM59.2731 64.3477C60.074 63.9234 59.9136 63.82 60.9676 63.6657C60.8286 63.2457 60.6492 62.5239 59.1694 62.6126C58.5929 62.6469 58.3532 62.9181 58.4606 63.4459L59.2731 64.3483V64.3477ZM170.399 84.9571C170.471 86.1699 173.695 87.4085 171.806 84.2915C170.864 84.3485 170.357 84.2444 170.399 84.9571ZM92.2494 200.245C92.3152 203.163 94.0751 201.669 94.119 201.617C94.4667 201.206 94.2044 200.917 93.8823 200.592C93.2223 199.927 93.5078 200.169 92.2488 200.245H92.2494ZM171.732 78.201C171.779 79.0012 173.796 78.8799 173.749 78.0797C173.687 77.0499 172.998 76.9875 171.951 77.0267C171.812 77.8128 171.695 77.5893 171.732 78.201ZM100.215 198.025C102.32 198.506 101.66 198.232 102.232 197.904C101.855 196.706 99.981 194.882 100.215 198.025ZM46.598 36.0829C46.6688 37.2719 47.2135 37.2976 48.1236 37.4194C48.6879 36.5727 48.536 36.3866 48.0041 35.418C47.5051 35.448 46.5578 35.4137 46.598 36.0835V36.0829ZM103.705 120.901C103.457 120.111 103.748 120.41 102.936 119.919C102.239 119.497 102.311 119.548 101.321 119.586C101.463 121.35 102.248 121.722 103.705 120.902C103.948 121.637 104.055 121.638 104.375 122.306C106.178 122.197 106.102 122.621 107.546 122.115C107.926 123.414 108.45 123.512 109.615 122.862C109.053 120.966 108.555 121.755 107.228 121.703C106.854 121.688 106.531 121.442 106.011 121.086C105.304 120.602 105.327 120.621 104.544 120.264L103.706 120.902L103.705 120.901ZM195.233 132.811C195.303 133.99 195.009 133.979 195.81 134.331C196.826 134.777 197.304 133.859 197.319 133.846C196.937 132.691 196.292 132.356 195.233 132.811ZM59.1444 37.9417C59.1962 38.8135 59.8233 39.3523 60.6712 39.3009C61.8704 39.2286 60.6328 37.2713 59.9746 37.3111C59.4744 37.3411 59.1157 37.4641 59.1444 37.9417ZM147.53 215.501L148.072 215.135C147.932 213.258 147.047 213.098 145.999 214.073L146.412 215.264L147.53 215.501C147.634 217.24 147.808 217.701 149.345 216.843C149.539 219.212 150.424 218.185 151.694 217.995C152.302 217.904 152.003 218.279 152.808 217.865C152.65 218.737 152.771 218.629 152.976 219.528C152.29 219.412 151.297 219.264 150.846 219.145C148.405 218.498 146.566 217.391 144.708 215.607C141.493 212.517 140.635 206.823 141.708 203.459C142.623 200.589 141.29 202.951 143.239 200.179C145.407 197.097 143.623 199.11 146.966 196.376C147.628 195.834 148.227 195.417 149.158 195.041C149.783 194.788 150.847 194.411 151.773 194.353L154.646 194.175C153.79 195.64 153.125 198.4 155.181 200.053C155.733 200.497 156.061 200.842 156.593 201.234C159.047 203.039 161.994 203.657 163.846 200.949C165.237 198.914 163.419 199.402 162.204 200.624C160.444 202.395 158.32 200.937 156.647 199.627C153.492 197.158 156.292 195.771 155.509 194.122L157.527 194.001C157.142 194.851 157.205 194.707 156.695 195.455C155.582 197.086 155.89 197.163 156.711 198.321C158.298 200.56 160.714 200.648 161.852 199.491C163.133 198.191 161.512 198.497 163.226 197.432C163.649 198.859 164.908 199.71 165.585 200.939C165.853 201.424 165.918 201.794 166.222 202.379C166.838 203.561 167.1 203.745 167.402 205.369C167.816 207.595 167.565 210.467 166.64 212.247C165.91 213.65 165.15 214.698 164.027 215.673C162.449 217.044 163.042 217.091 160.417 218.211L161.265 217.044C160.774 215.947 160.63 216.935 160.481 214.434C159.126 214.559 159.657 214.432 158.745 215.067C158.694 215.103 158.627 215.155 158.575 215.192C158.523 215.23 158.454 215.278 158.402 215.316C158.332 215.367 158.118 215.503 158.052 215.558C157.493 216.028 157.633 215.618 157.414 216.361C155.789 214.953 156.829 216.359 156.919 214.76C156.298 214.499 154.717 213.856 154.072 213.959C152.935 214.14 153.34 215.373 154.096 215.871C149.037 217.571 149.933 216.452 148.971 215.416L147.531 215.503L147.53 215.501ZM162.158 213.461L162.077 211.724C161.385 211.925 161.22 212.046 160.343 212.119C160.383 213.888 160.691 214.28 162.158 213.461C161.959 214.728 162.01 213.924 161.38 214.96C161.621 215.336 161.556 215.27 161.72 215.81C162.686 215.291 161.89 216.021 162.548 214.91C163.815 212.767 163.495 213.521 164.101 213C164.464 212.687 164.243 213.082 164.52 212.551C164.87 211.879 164.573 212.404 164.665 211.859C164.269 211.379 163.738 210.844 163.199 211.352C162.792 211.735 163.012 212.261 163.276 212.813C162.438 213.093 162.817 212.959 162.158 213.461H162.158ZM138.761 112.111C138.947 113.241 139.35 113.493 140.865 113.436C140.638 110.66 139.235 111.376 138.761 112.111ZM102.611 46.131C102.546 47.3041 103.177 48.2408 104.588 48.2733L104.101 45.9902L102.611 46.131ZM166.747 207.961C167.573 206.602 167.314 207.27 166.914 205.919C165.994 205.974 165.161 205.857 165.264 206.855C165.357 207.752 166.05 207.706 166.746 207.962L166.747 207.961ZM93.6292 106.986L93.9433 106.717C95.2084 105.214 93.3742 107.963 94.2227 106.418C94.5722 105.78 94.3862 106.42 94.4075 105.487C93.179 105.277 93.5737 104.947 92.1164 105.091C92.1506 106.698 92.5117 106.475 93.6292 106.985V106.986ZM55.9419 71.5146C56.4921 72.242 56.1231 72.1036 57.146 72.313C58.2349 71.4277 57.7097 71.5673 57.5846 69.9644C56.3537 70.1665 56.1572 70.4493 55.9419 71.5146ZM12.8757 83.0181C12.9227 81.0436 13.0453 80.5165 11.638 80.2728C11.1494 81.392 11.3477 82.873 12.8757 83.0181ZM157.9 209.943C158.448 210.12 159.966 210.665 159.882 209.244C159.815 208.102 158.883 208.401 157.813 208.497L157.9 209.943ZM144.658 109.145C144.354 108.743 144.168 108.468 143.644 108.13C142.826 107.602 143.232 107.779 141.978 107.854C142.088 109.97 143.391 109.875 144.658 109.145H144.658ZM63.274 63.5273C63.3137 64.1898 63.3918 63.8579 63.6315 64.6673C65.9525 64.5779 65.9964 64.491 64.9692 62.8453C64.3476 62.8826 63.2319 62.8177 63.2746 63.5273H63.274ZM170.28 82.9324C170.707 83.2434 171.004 83.4785 171.482 83.6897C172.696 82.966 172.034 83.8997 172.568 82.5044C171.971 81.7158 171.948 81.5909 170.77 81.4514C170.565 81.9479 170.488 82.276 170.279 82.9324H170.28ZM147.542 12.0211L148.406 11.9691C148.499 13.1042 148.368 12.6524 148.781 13.3981C150.659 13.2848 150.061 13.3601 150.475 12.716C149.827 11.9275 150.165 12.1111 148.711 12.2415C148.618 11.1064 148.749 11.5583 148.337 10.8126L147.184 10.8817C147.411 11.2785 147.501 11.3446 147.541 12.0217L147.542 12.0211ZM172.81 163.765C173.424 164.574 173.554 164.902 174.33 165.125C175.1 164.281 174.861 164.598 174.77 163.066L173.59 162.541C173.536 162.607 173.452 162.611 173.438 162.703L172.811 163.764L172.81 163.765ZM58.5673 71.9053C59.3786 73.0538 59.2975 73.055 60.3674 72.9908C60.6889 72.245 60.7749 71.6255 60.806 70.6428C59.5403 70.9067 59.2157 71.1651 58.5673 71.9059V71.9053ZM170.429 163.038C169.982 162.942 169.034 162.937 168.626 163.023C167.373 163.289 168.078 165.233 169.303 164.748C170.146 164.413 170.279 163.919 170.429 163.038L170.429 163.038ZM175.05 172.629L175.476 174.926C176.887 174.473 176.863 173.925 176.779 172.525C176.376 172.361 175 171.782 175.05 172.628V172.629ZM91.5997 194.189C91.9627 193.886 92.6111 193.255 92.3476 192.439C92.0639 191.561 91.4228 191.877 90.309 191.944C90.359 193.6 90.5633 193.578 91.5997 194.189ZM201.319 133.025C201.376 133.978 202.379 134.23 203.135 134.368C203.282 134.125 203.668 133.619 203.659 133.466C203.593 132.364 201.215 131.282 201.319 133.025ZM61.8198 68.2587C62.2017 70.922 63.2728 69.6528 64.4824 69.2604C64.2195 68.372 64.3629 68.3622 63.5992 68.0744C63.0032 67.8498 62.4939 67.9489 61.8198 68.2587ZM195.602 129.306L196.582 130.363C197.224 130.205 197.674 130.038 198.23 129.728C197.986 128.906 196.738 126.612 195.602 129.306ZM98.6232 200.443C98.5616 199.409 98.9593 197.81 97.8918 197.874C96.7902 197.941 96.4778 198.147 96.8121 199.035C96.9469 199.393 97.0988 199.712 97.3855 199.995C97.8601 200.463 97.8375 200.405 98.6226 200.443H98.6232ZM200.242 124.673L201.745 126.368C202.383 126.722 201.722 126.536 202.668 126.558C202.578 125.057 202.733 124.42 201.055 123.752L200.242 124.672V124.673ZM165.315 77.2954C165.718 78.725 166.692 79.2044 168.002 78.7152C167.659 77.5544 167.635 77.5593 167.017 76.7426C166.449 76.7769 165.647 76.8883 165.315 77.2961V77.2954ZM169.936 179.032C171.612 179.316 170.846 179.053 172.224 178.605C172.064 178.06 172.381 178.598 171.985 177.951L170.649 176.432C169.974 177.398 169.858 177.712 169.936 179.032ZM162.336 206.774C164.008 207.061 162.981 207.425 164.659 206.925L164.557 204.899C162.782 205.838 162.519 204.274 162.337 206.774H162.336ZM144.391 114.386C144.484 115.574 144.613 115.645 145.088 116.376L146.784 115.924C146.677 114.344 145.933 113.676 144.391 114.386ZM144.726 110.302C144.86 112.54 146.544 112.054 147.354 110.725C147.039 110.344 146.18 109.634 145.556 109.671C145.084 109.7 144.702 109.897 144.726 110.302ZM7.52118 84.0026C7.69319 85.2044 7.66269 85.0483 9.99592 85.8858C10.4052 84.8842 10.4363 84.9644 10.3857 83.5397C9.28711 84.2591 8.99187 84.1146 7.52118 84.002V84.0026ZM190.329 128.17C190.413 129.582 191.013 129.186 192.144 129.512L193.211 127.997C191.814 127.264 190.282 127.379 190.329 128.17V128.17ZM194.903 137.181C195.527 137.969 195.549 137.835 196.425 138.254C196.625 137.27 196.635 137.587 197.611 137.114C197.652 137.094 197.738 137.051 197.797 137.011C197.497 136.309 197.414 135.872 195.134 136.01L194.903 137.181H194.903ZM182.202 171.328C182.121 170.341 182.134 169.715 180.99 169.928C180.379 170.042 179.735 170.635 179.613 171.288C179.285 173.051 181.086 171.801 181.85 171.486L182.095 171.384C182.11 171.378 182.169 171.349 182.203 171.327L182.202 171.328ZM146.532 19.3387C147.169 20.4376 147.947 21.2048 149.551 21.4797C149.976 20.2436 149.345 21.5415 149.77 20.3054C148.422 19.7532 148.329 20.3862 148.208 18.3676C147.478 18.9119 147.309 18.9009 146.532 19.3393V19.3387ZM169.86 71.0567C169.899 71.7191 169.977 71.3867 170.217 72.1961C171.571 72.1489 171.599 72.3755 172.828 72.3295C172.756 71.3677 172.667 71.2122 171.624 70.5791C170.942 70.1653 169.795 69.9644 169.86 71.0567ZM5.62836 81.793C6.64034 81.962 8.60453 82.7169 8.52401 81.3491C8.44288 79.9746 6.83188 80.4081 5.6674 80.1614L5.62836 81.793ZM69.0537 63.4704L69.4453 65.1883C70.1566 65.0855 70.1877 65.5085 71.0155 63.801C72.147 61.4659 68.9622 61.933 69.0543 63.4704H69.0537ZM55.0123 75.3442C55.5125 76.0048 55.3789 75.624 55.6576 76.4665C58.5063 76.2314 57.1229 73.4757 56.3494 73.5222C55.4167 73.5779 55.3508 74.5979 55.0117 75.3442H55.0123ZM165.641 73.0514L163.624 73.1726C163.652 73.652 163.271 75.2616 165.761 74.8232C166.589 74.6775 166.824 74.5599 166.729 73.9202C166.648 73.3691 166.273 73.014 165.641 73.052V73.0514ZM194.362 142.442C194.594 142.045 194.657 141.575 194.852 140.961C194.113 140.526 193.444 140.045 192.748 139.636C191.749 141.787 192.181 142.573 194.362 142.442ZM105.749 188.984C106.448 188.034 105.801 187.984 105.611 186.67C103.271 186.758 105.545 185.742 102.811 186.368C103.603 187.702 104.272 188.544 105.749 188.984ZM61.2269 68.0047C61.6539 66.9553 61.1519 67.3398 61.9131 66.422C62.7226 65.4473 62.539 66.3645 62.4786 64.7365L60.4607 64.8559C59.9313 66.174 59.9642 67.2614 61.2269 68.0047ZM164.867 210.396C164.591 207.955 162.948 209.156 161.737 208.979C161.185 211.397 163.461 210.815 164.867 210.396ZM101.508 103.319L102.564 103.362C102.608 103.353 102.685 103.302 102.727 103.292C103.382 103.125 102.55 103.151 103.173 103.169C103.229 103.17 104.716 103.78 104.66 102.839C104.568 101.294 102.776 101.501 101.404 101.583L101.508 103.319V103.319ZM87.1681 105.342C88.7273 105.249 87.575 103.93 87.5713 103.852L87.8007 103.187C87.8178 103.145 87.8745 103.051 87.8952 102.977L86.6533 101.859C86.5984 101.829 86.5581 101.25 86.0659 101.835C85.4955 102.514 85.9219 101.715 86.1818 102.74C86.6643 104.643 85.9896 102.756 85.9945 104.317C85.9957 104.785 86.5392 105.38 87.1687 105.342H87.1681ZM66.2496 30.9994C66.7656 32.055 66.4991 31.9184 67.4964 32.5056C68.3705 31.9221 68.8207 30.9235 68.7646 29.527C66.274 29.0844 68.1631 29.1352 66.2496 31.0001V30.9994ZM14.9967 83.2636C15.0638 84.3932 17.0633 84.9546 17.999 85.1156C17.96 82.5669 17.3891 83.3358 16.8474 83.0181L16.3386 82.6293C15.5511 82.1499 14.9387 82.2834 14.9973 83.2642L14.9967 83.2636ZM130.541 162.727C130.161 162.736 129.693 162.583 128.761 162.639C128.721 164.138 129.078 164.331 130.067 164.085C131.59 163.705 129.879 164.225 131.76 164.435C132.391 163.565 132.272 163.595 132.219 162.432C131.152 162.52 131.207 162.711 130.542 162.727L130.541 162.727ZM136.742 126.746C136.809 127.87 137.748 127.557 138.811 127.493C139.229 125.034 139.238 124.855 137.215 124.976C136.949 125.563 136.689 125.864 136.742 126.746H136.742ZM142.093 22.5082C144.689 20.0587 143.92 22.1066 144.278 20.3452C143.283 19.9313 143.205 20.3207 142.372 20.0311C141.442 19.7078 142.074 19.3815 140.734 19.1072C140.765 20.568 140.645 20.0801 141.171 21.0805L142.093 22.5082ZM66.848 69.9969L67.993 69.9191C68.2534 68.3879 68.2125 69.021 69.3477 68.3879C69.2605 67.3275 69.0159 66.7991 68.6334 66.1085C67.5098 66.7563 68.0668 67.161 67.1048 68.0487C66.532 68.5771 66.3948 67.8087 66.3338 68.8496C66.3045 69.3393 66.5174 69.024 66.8486 69.9969C66.4271 70.2436 66.0861 70.3893 65.678 70.5981C64.9594 70.9667 65.1833 70.843 64.6038 71.285C65.0021 72.6314 65.0229 73.693 66.6888 73.6899C67.2176 72.9387 67.2908 72.8181 67.0371 71.9585C66.848 71.3157 66.8992 71.874 66.8523 71.3181C66.8303 71.0542 66.8687 70.3746 66.848 69.9975V69.9969ZM124.279 160.289C124.975 162.637 125.882 160.87 126.896 161.641C127.214 161.882 127.436 162.432 127.91 162.925C127.931 162.889 127.94 162.774 127.946 162.804L128.379 161.79C128.531 161.514 128.528 161.692 128.674 161.192C128.31 160.979 128.373 161.011 127.986 160.736L127.165 160.122C126.587 160.341 126.742 160.17 126.436 160.638C125.618 159.844 126.361 160.22 125.332 159.651L124.28 160.288L124.279 160.289ZM100.459 105.125C101.426 105.067 101.447 104.528 101.526 103.609C98.4146 102.352 101.125 103.555 99.4912 101.99C97.7503 102.508 98.2322 103.894 98.2609 103.938C98.8605 104.877 98.4811 104.004 99.4272 104.417C100.797 105.015 99.268 105.196 100.459 105.125ZM87.403 201.408L87.4377 201.986C88.3155 202.346 88.26 202.227 89.4727 202.154L90.2846 203.422C90.9129 203.988 91.1422 203.714 91.8645 203.462C91.5924 201.562 91.1532 202.469 90.5011 202.164C89.8106 201.841 89.5306 200.966 89.1482 200.432C87.9337 200.505 87.342 200.372 87.4036 201.408H87.403ZM63.7096 34.6111C63.2954 37.5198 65.6079 36.0094 66.2191 35.9127C66.9852 35.7921 66.3362 36.2721 67.3988 35.7045C67.2451 34.6325 66.8748 34.3056 66.1294 33.817C64.6203 34.21 66.3313 33.9125 65.1937 34.3986C64.8881 34.529 64.5733 34.3803 63.7102 34.6111H63.7096ZM92.6989 125.33C92.8941 126.871 92.9826 126.376 93.8341 127.129C94.6979 127.892 94.2459 128.011 95.2103 128.639C96.1454 128.199 96.1015 127.912 96.2607 126.857C95.6647 126.523 95.4268 126.371 94.4972 126.383C94.6107 125.714 94.6808 125.704 94.6991 124.919C93.7859 124.974 93.3309 125.038 92.6989 125.33ZM138.858 123.427C138.957 124.168 139.079 124.717 139.579 125.073C140.151 125.48 139.996 125.128 141.267 125.023C141.591 126.001 141.918 126.339 143.083 126.366C142.982 124.678 143.131 124.261 141.553 124.017C139.862 123.755 141.071 122.442 138.858 123.426V123.427ZM21.9469 83.4265C22.2635 84.2805 22.1763 84.0516 22.8802 84.5309C23.7068 82.7714 23.4683 82.7799 21.3497 82.8656C21.3552 81.9595 21.5669 81.9142 21.5547 81.7079C21.5175 81.084 19.4179 77.7987 19.6954 82.1322C19.8028 83.8097 20.0651 83.5385 21.9463 83.4258L21.9469 83.4265ZM96.1905 125.699C96.3943 126.388 96.5815 126.954 96.8878 127.689C97.9492 127.335 98.0327 126.998 98.2249 125.867C99.2124 126.215 98.8837 126.699 99.429 126.666C101.243 126.557 100.008 124.818 99.562 124.045L97.8326 124.149C97.7735 125.715 97.424 125.019 96.1899 125.699H96.1905ZM131.469 159.573C132.261 159.525 133.099 158.235 133.064 159.377C133.059 159.536 132.012 161.251 133.372 161.477C134.5 161.664 134.121 161.153 134.378 160.113C134.517 159.547 134.685 160.605 134.634 159.092C134.57 157.167 133.498 158.325 132.442 158.153C131.285 157.966 132.646 158.021 131.45 157.921C131.151 157.896 131.007 157.97 130.5 157.889C130.56 158.895 130.428 159.635 131.468 159.573H131.469ZM104.513 124.619L104.121 122.901C103.282 123.181 103.661 123.047 103.003 123.549C102.824 122.297 103.231 123.047 102.509 122.515C102.068 122.189 101.594 122.289 101.388 122.425C100.855 122.777 101.207 122.945 101.037 124.847C100.806 127.42 101.299 125.905 103.217 125.112C103.944 124.811 103.866 124.979 104.513 124.619H104.513ZM188.454 135.54C188.727 136.742 188.726 136.87 189.981 136.899C190.095 137.699 190.171 137.631 190.216 138.099C190.358 139.537 189.897 137.895 190.273 139.126C190.546 140.022 191.126 140.007 192.188 139.96C192.108 138.909 191.901 138.931 191.969 138.326C192.11 137.069 192.435 138.25 192.269 136.472C191.465 136.194 190.983 136.458 190.173 136.051C189.242 135.581 189.67 135.017 188.453 135.54H188.454ZM106.143 127.714C108.268 127.586 106.621 127.761 107.569 127.055C107.617 127.019 107.682 126.964 107.732 126.929L108.077 126.701C108.926 126.174 107.902 126.909 108.626 126.404C108.63 122.118 107.377 124.033 106.736 124.673C105.627 125.778 105.999 124.738 105.446 126.03C105.179 126.653 105.023 127.782 106.143 127.715L106.143 127.714ZM96.1863 106.251C95.3097 106.66 95.7898 105.743 95.6617 107.154C94.4807 107.066 94.6009 106.608 94.3197 107.432C94.0806 108.133 94.5301 108.466 95.0279 108.797C95.6623 108.243 95.4921 108.68 95.6964 107.733C97.4764 108.094 96.0954 108.094 97.7137 107.611L96.7737 106.217L97.9656 105.137C98.4164 106.401 97.8686 105.773 98.7977 106.386L99.6242 105.808C98.3975 103.978 98.7489 105.405 97.0055 104.714C95.3591 104.06 95.1499 104.508 95.9459 105.879L96.1863 106.252V106.251ZM143.513 26.9293C143.688 26.3452 143.89 24.5752 143.907 23.8503C141.641 23.9862 143.106 24.3046 138.467 24.7576C139.009 26.5925 139.185 25.8566 140.712 25.9264C142.857 26.0256 141.7 26.5821 143.513 26.9286V26.9293ZM160.175 165.686C160.406 168.509 160.597 166.875 158.83 169.967C158.545 170.465 158.63 170.108 158.455 170.792L159.318 171.522C160.37 170.964 160.831 170.591 161.528 168.536C162.007 167.122 161.835 164.877 160.175 165.686C160.202 164.511 160.416 164.588 161.138 163.804C165.791 158.754 168.909 157.643 175.672 160.494L180.326 163.564C184.315 167.81 184.122 173.262 182.193 178.716C181.268 181.33 178.116 184.207 175.545 184.993L169.227 186.034C167.406 186.022 165.737 185.351 164.343 184.434L162.345 182.68C162.601 181.857 162.895 182.194 162.798 180.575C163.094 180.711 164.14 181.134 164.375 181.312C165.365 182.063 165.179 183.095 166.939 182.114L167.025 183.56C164.592 183.503 167.285 182.674 164.379 182.848C164.457 183.794 164.184 183.812 164.887 184.158C165.716 184.567 165.917 183.951 165.923 183.948C166.478 184.717 166.327 185.715 168.229 184.358C168.252 184.394 168.266 184.463 168.274 184.478C168.281 184.495 168.313 184.581 168.324 184.601C168.335 184.623 168.368 184.704 168.383 184.728L169.163 185.463C170.086 185.156 170.323 184.887 170.517 183.93C169.73 183.608 170.193 183.685 169.059 183.728C169.511 181.667 168.672 181.746 166.939 182.113C166.71 180.515 166.197 180.674 164.547 180.806C164.736 179.551 163.521 179.192 162.987 179.693C162.785 179.883 163.37 180.265 160.801 181.031C159.592 179.035 158.211 176.996 157.93 174.367C160.4 175.271 162.424 172.35 163.089 171.018C164.446 168.3 163.786 168.042 163.564 164.32C162.522 164.03 162.58 163.517 162.062 164.101C161.415 164.828 162.944 167.046 162.199 169.403L161.858 170.195C160.883 172.184 159.722 172.968 157.437 173.105C157.708 172.319 157.919 170.824 157.934 170.21C157.999 167.578 157.614 168.24 156.856 168.206C157.085 167.642 157.281 166.99 157.383 166.21C158.673 166.366 157.602 166.709 159.651 166.586C159.798 165.749 159.581 166.154 160.175 165.684L160.175 165.686ZM99.2442 128.418C99.3344 129.938 100.812 129.211 101.392 128.687C101.734 129.077 101.8 129.206 102.342 129.524C103.185 130.02 102.775 129.921 103.958 129.877C103.995 129.814 104.028 129.634 104.043 129.674L104.277 128.783C104.349 128.339 104.381 128.211 104.397 127.529C103.245 127.475 102.763 127.046 101.769 127.106C101.027 127.151 102.147 127.539 100.406 127.662C99.859 127.7 99.1758 127.27 99.2448 128.42L99.2442 128.418ZM55.0312 41.7131C53.333 40.5584 53.9125 40.0478 51.7555 40.1268C51.9184 42.8525 51.7866 40.6306 53.6654 42.5868C53.7057 42.629 53.8722 42.8353 53.9448 42.8978C54.9763 42.5543 54.5963 42.5451 55.3289 41.8613C55.668 42.8562 55.6028 42.5433 56.5556 43.0312C57.8494 41.9549 56.2609 42.3651 57.9445 42.0768L57.8414 40.3417C57.146 40.0239 57.0619 39.8898 56.0779 39.8672C56.0505 41.0733 55.7107 41.1486 55.0312 41.7131ZM71.7682 65.3389C71.7682 66.9142 71.3552 67.8522 73.2005 68.1559C73.4256 67.3306 73.256 66.5494 73.5152 65.5245C76.0241 65.5777 75.1903 65.5661 76.0119 66.0828L76.6671 66.4134C77.6095 64.9838 77.188 64.7543 75.7862 64.8075C75.6728 63.422 75.574 63.2714 74.2417 63.1587C72.8778 64.6753 74.3674 64.5534 71.7688 65.3389H71.7682ZM173.043 182.619C173.623 180.875 171.669 181.25 170.94 181.294C170.959 181.523 171.142 182.5 171.141 182.522C171.14 182.577 171.132 182.658 171.125 182.71C171.119 182.761 171.089 182.838 171.077 182.888C170.438 185.745 172.182 184.096 172.673 183.989L174.427 184.176C175.19 184.33 175.972 185.626 177.078 182.378C175.752 182.178 174.717 182.489 173.043 182.62V182.619ZM133.955 152.748C132.565 152.949 132.749 153.08 132.982 154.516L131.465 154.646C131.565 155.857 131.903 156.58 133.072 156.105L134.151 155.12C135.263 153.188 134.375 154.408 134.432 153.222C134.479 152.246 135.009 152.816 135.039 151.521L135.903 151.469C136.153 152.02 135.796 152.308 136.578 151.826C137.86 151.035 136.607 149.685 134.071 149.837L133.767 150.971C133.75 151.007 133.689 151.077 133.672 151.113C133.409 151.667 133.42 151.165 133.497 151.75C133.569 152.304 133.767 152.426 133.955 152.747L133.955 152.748ZM110.287 51.7043C110.208 51.6522 106.946 49.33 107.846 51.6516C108.067 52.221 108.189 52.112 108.898 52.6588C111.066 52.2088 109.115 51.8604 111.78 52.4855L112.775 50.3598C113.116 49.7053 112.904 50.6408 113.048 49.507C114.575 49.4494 113.844 49.7231 115.066 49.3857C114.925 47.6659 114.353 47.6867 112.657 47.789C112.388 49.1114 112.283 48.247 111.446 48.9094C111.409 48.9388 111.335 48.9914 111.305 49.0239C110.93 49.4378 111.439 49.4341 110.855 50.5508C110.544 51.1465 110.522 50.7688 110.287 51.7049V51.7043ZM100.96 65.0365C102.334 64.9538 101.795 65.0402 102.078 64.3887C101.63 63.0363 101.574 63.8071 99.992 63.3534C99.7297 62.4681 99.5742 62.5373 99.3119 61.6526C99.9725 61.6128 100.31 61.5075 100.909 61.6973C101.922 62.0187 101.016 62.4204 102.533 62.3298C102.869 61.5026 102.788 61.7524 102.718 60.5769L100.534 60.269C99.7913 60.0222 99.7596 59.2288 98.7379 60.6039L97.9906 61.3183C97.6362 61.5926 96.4717 61.5957 97.7198 62.7822C97.876 62.9304 99.1014 63.542 99.3832 63.7324C100.536 64.5118 100.303 65.0763 100.959 65.0371L100.96 65.0365ZM196.325 139.491C195.233 139.589 195.978 139.281 195.071 139.786C196.795 143.11 196.509 139.843 196.685 142.592C195.513 142.663 195.751 142.552 194.973 142.985C195.475 143.892 195.073 144.305 196.144 144.207C196.38 144.185 197.124 143.688 197.672 143.559C197.903 143.504 199.311 143.954 199.802 141.534L198.816 140.808C198.335 140.394 198.058 140.046 197.935 139.324L196.324 139.491H196.325ZM112.787 59.6818C112.756 60.2604 112.878 60.239 112.236 60.531L111.895 60.6167C111.845 60.632 111.761 60.6504 111.706 60.6657C111.207 60.8065 110.112 61.0832 109.598 61.3245C108.987 63.5512 109.158 63.6357 110.995 64.3851C112.024 63.133 111.746 64.5339 111.824 62.9322C114.079 63.6645 113.35 62.923 113.983 61.2951C114.222 60.6828 114.606 61.0881 114.55 60.1557C114.475 58.8945 113.677 59.533 112.787 59.6812V59.6818ZM138.8 117.624C138.955 118.85 139.24 119.548 139.79 120.209C138.932 120.846 139.043 120.038 138.827 121.181C138.766 121.509 138.794 122.122 139.495 122.382C139.572 122.41 142.856 122.597 142.77 121.158C142.683 119.691 141.927 120.994 140.955 119.816C142.003 119.665 142.106 119.715 142.039 118.589C141.975 117.514 142.149 118.366 141.553 117.9C141.421 117.797 140.795 117.536 140.771 117.528C139.722 117.179 139.854 117.157 138.8 117.623V117.624ZM133.084 147.865C133.847 147.819 134.651 146.785 134.57 146.295C134.347 144.953 133.395 146.395 132.71 146.436L128.39 145.458C126.117 144.39 127.001 143.343 125.806 142.207C123.088 144.409 128.329 148.151 133.085 147.865H133.084ZM164.927 84.973C166.533 85.3122 166.815 85.5332 168.012 87.0405C169.575 89.0095 168.412 89.4754 169.32 91.1168C170.291 90.793 170.089 91.0207 170.294 89.7919C170.908 86.113 165.495 81.1311 163.09 83.9193C162.638 84.4434 162.753 84.0148 162.584 84.845C163.656 85.284 162.779 84.9754 163.647 84.9246L164.722 84.9185C164.766 84.9246 164.864 84.9411 164.927 84.9717C163.604 85.2013 163.517 85.4107 163.569 86.8171C165.995 86.8722 167.202 90.027 165.676 90.6105C164.519 91.0526 165.324 90.7293 164.795 90.4054L164.338 89.9977C163.394 90.2456 163.574 90.4385 163.364 90.523L162.664 90.6448C163.517 91.7701 164.401 91.6868 163.932 92.8905C162.685 92.4705 163.87 91.8779 162.133 91.8374C162.094 93.5658 161.861 92.9193 161.093 93.3974L161.21 95.7491C159.906 95.3205 160.291 94.5956 159.643 95.9052C159.177 96.8499 159.262 97.1584 159.597 97.7958C158.653 97.6244 158.868 97.4554 157.833 97.3213C157.914 98.566 158.406 99.2438 157.769 99.6454C157.128 100.05 156.864 99.3705 155.919 99.1776C155.431 100.378 155.351 100.544 155.22 102.112C154.992 104.849 154.241 102.909 153.023 104.523L152.639 105.018C152.336 105.397 152.245 105.135 152.028 106.12C151.856 106.899 152.128 106.847 151.538 108.149C150.991 107.827 150.719 107.68 150.16 107.23C149.65 106.82 150.026 107.222 149.556 106.687C149.209 106.292 149.345 106.564 149.095 105.974C150.343 105.558 150.335 104.757 151.197 103.739C154.066 100.35 154.124 102.352 156.758 96.646C158.07 93.8046 160.938 90.8248 162.218 88.9195C162.482 88.527 162.293 88.813 162.585 88.4193C163.165 87.643 163.081 88.194 163.297 87.1238C162.184 85.7756 162.014 87.9546 160.832 83.4271C159.821 79.5522 159.6 77.3536 161.447 73.6991C163.353 69.9271 168.18 67.4089 172.498 67.1108C176.114 66.861 176.737 67.5344 179.384 68.9193C181.849 70.2087 182.158 71.2912 183.923 73.3563C186.365 76.2142 185.852 78.2114 185.535 80.3548C184.738 85.7395 184.65 86.0113 180.913 90.2089C179.863 91.3893 178.502 91.8583 176.593 92.113C169.66 93.0381 170.43 92.2385 167.031 91.543C167.082 90.5328 166.976 90.8162 167.861 90.9123C167.75 89.0395 167.883 88.344 167.065 87.1819C166.819 86.8324 166.334 86.3187 165.95 85.9734C165.258 85.352 165.465 85.7628 164.926 84.9705L164.927 84.973ZM180.68 174.903C179.841 174.559 179.583 174.402 178.934 174.717C178.645 175.557 178.913 175.827 179.614 176.418C176.119 176.693 179.144 175.865 175.545 176.082C175.69 178.505 176.341 177.776 178.208 177.083C178.604 177.737 178.751 177.798 178.872 178.77C178.077 179.423 178.015 179.22 177.251 179.753C177.979 180.859 178.482 180.257 178.549 180.261C179.105 180.297 178.606 179.657 178.991 180.52L180.144 180.45C180.409 179.143 181.354 179.115 180.871 178.084C180.153 176.555 180.963 178.309 180.24 177.518C179.544 176.756 180.135 176.522 180.395 176.047C180.731 175.433 180.454 176.058 180.715 175.481C181.779 175.966 181.393 175.961 182.461 175.666C182.307 173.775 182.421 175.153 181.728 174.026C181.694 173.97 181.648 173.901 181.616 173.843L181.119 172.553L179.726 172.669C179.897 174.694 180.096 172.927 180.681 174.902L180.68 174.903ZM100.487 87.3473C100.439 88.1334 100.585 88.0513 99.9231 88.4958C99.5662 88.7358 98.9874 88.8534 98.6391 88.9109L96.8347 87.9252L96.7517 87.0344C97.2727 87.0632 98.0242 87.1544 98.5122 87.2664C99.6211 87.5205 98.6049 87.3209 99.7273 87.7789L100.487 87.3479V87.3473ZM96.7517 87.0344L96.4937 87.6472C94.8284 87.6142 96.3839 87.796 95.4317 87.3424L93.7371 86.176C93.0948 85.7891 93.839 85.8815 92.6575 85.8534L93.4407 87.7544C93.9696 88.6973 94.0696 88.5289 94.5936 89.2207C94.3843 90.2511 93.1534 91.7144 95.6135 91.7719C95.5354 90.4587 95.0468 88.7015 96.3638 89.0309C98.2212 89.4956 96.063 89.7026 97.8339 91.3483L100.133 89.7724C100.637 89.2354 100.3 89.195 100.856 88.7628C101.233 88.4689 101.795 88.4787 102.34 88.175L102.254 86.7289C101.21 86.8146 101.072 87.0405 100.487 87.3473C100.625 86.2244 100.878 85.2901 101.251 84.4673C102.83 85.396 104.061 87.4783 105.129 89.0321C107.452 92.4111 107.788 97.377 106.483 101.447C105.616 104.151 104.925 104.959 103.289 106.275C102.523 105.672 102.822 105.548 101.629 105.344C101.186 106.443 101.71 106.664 102.326 107.334C101.623 107.763 101.091 108.091 100.378 108.612C100.105 107.791 100.416 108.157 99.6925 107.772C97.9327 106.837 98.464 108.786 98.7007 109.584C96.6889 109.747 97.4898 110.44 93.5438 110.481C91.0556 110.506 89.139 109.654 87.2712 108.314L82.8969 104.309C83.3221 104.225 83.7845 104.585 84.2615 103.602C84.464 103.184 84.3829 103.638 84.4195 102.895C83.1842 102.388 83.0305 102.598 82.1784 103.269C81.8911 101.982 81.289 101.492 81.0645 99.8933C81.0005 99.436 80.9132 98.0597 80.9639 97.6293C81.1066 96.4213 81.2018 97.3176 81.3506 96.0619C81.8978 91.4505 80.7729 94.1076 83.0744 89.6499C83.5319 88.7646 83.1184 89.004 83.904 88.1946C86.1824 85.8503 91.0416 83.6426 94.2483 83.4369C93.7792 85.7456 94.019 82.9005 92.8764 84.6803C93.9622 85.9948 94.1263 84.2726 94.421 86.3291C95.098 85.813 95.5513 85.2852 95.8862 84.3436C96.5248 82.5448 95.6232 82.7738 97.6722 82.6507C97.771 83.2385 97.51 83.6689 99.199 84.0105L99.2332 84.5891C95.8502 84.7924 98.625 85.4964 95.827 85.6648C95.9868 86.8819 95.8282 86.383 96.7517 87.0356V87.0344ZM201.466 138.369C199.412 138.522 200.828 136.996 198.748 138.405C199.328 139.362 198.751 139.195 199.764 139.42C200.716 139.632 200.509 138.961 201.882 139.774C202.173 139.946 202.175 139.927 202.416 140.113C202.835 140.433 202.971 140.677 203.244 141.037C202.694 140.943 199.81 139.618 200.572 141.826C201.097 143.347 200.657 141.98 201.635 143.165C204.843 142.209 204.228 142.993 204.108 140.985C205.465 140.873 205.696 140.451 207.514 139.909L207.446 138.752C205.303 138.385 206.857 137.958 204.572 138.912C204.294 139.029 203.698 139.245 203.381 139.112C202.98 138.945 203.414 139.338 203.022 138.793C202.583 138.182 202.946 138.712 202.783 138.162C202.366 138.187 201.626 138.356 201.467 138.367L201.466 138.369ZM127.728 164.732C127.371 163.77 127.315 164.001 124.938 163.569L123.773 163.338C123.146 162.972 123.221 162.206 122.93 161.504C121.687 158.495 118.122 157.181 114.958 159.114C116.254 160.826 116.243 159.229 118.225 159.431C119.862 159.597 120.459 160.311 121.173 161.352C123.014 164.038 121.866 164.198 121.674 164.854C121.288 166.174 122.695 166.36 123.407 164.172C124.354 164.912 123.652 165.329 125.199 164.919C125.884 164.737 125.457 164.642 125.911 164.887C126.757 165.343 126.993 165.943 127.728 164.732ZM205.245 126.114C205.342 127.737 206.149 128.579 207.452 129.174C207.501 130.483 207.233 130.341 207.319 131.794C206.113 131.747 204.625 131.693 206.287 133.888C207.714 133.682 207.12 133.4 208.235 132.61L208.594 133.749C208.243 133.91 208.042 134.066 207.608 134.162C206.32 134.447 204.568 133.597 205.596 135.525C206.69 137.575 205.975 137.507 207.289 137.69C208.495 137.859 207.701 136.865 208.276 138.122L209.428 138.053C209.629 136.87 209.615 137.975 209.739 136.972C209.9 135.651 209.856 136.884 209.567 136.068L209.152 133.426L210.12 135.109C211.057 134.537 210.655 135.053 211.221 134.172C210.479 132.948 211.401 133.442 210.017 133.374C209.843 132.029 209.196 131.175 209.074 130.469C208.928 129.632 209.39 128.122 209.349 127.029C208.545 126.891 207.686 126.357 207.158 125.777C206.243 124.773 207.433 125.71 206.837 123.697L205.396 123.783C205.519 125.009 205.667 124.718 205.461 125.508C205.25 126.313 205.166 124.766 205.246 126.114L205.245 126.114ZM113.675 50.3396C114.096 51.992 114.585 52.1867 115.848 52.8216C115.526 53.6114 115.603 53.1467 115.646 54.2849L113.204 53.32C112.916 53.1143 113.355 53.2373 112.515 52.8663C111.739 53.5331 111.387 54.2445 111.392 55.7016C110.325 55.7659 109.36 55.8871 108.362 55.9851C107.156 56.1039 107.402 55.6845 105.899 55.7414C106.904 58.0686 105.495 57.2028 108.69 57.2984C108.719 57.2996 108.8 57.299 108.828 57.2984L109.405 57.2433C112.56 57.3008 112.065 56.3439 112.463 59.1204C113.663 59.0653 113.281 59.1724 114.174 58.7273C113.942 57.1079 113.707 57.8188 113.164 56.7443C112.621 55.6686 112.607 55.3361 113.356 54.7129C113.498 56.4418 113.752 56.1492 114.917 56.6506C116.081 55.8761 114.819 56.2986 116.018 55.7139C117.54 57.7226 117.297 57.8384 118.75 57.872C119.176 55.352 118.743 57.9418 118.023 55.2896C117.185 52.2033 116.983 54.7043 117.204 52.4304C117.302 51.4129 117.474 51.149 117.42 50.1143C115.626 50.1816 116.22 49.6061 115.656 49.6398C114.623 49.7023 114.656 50.0402 113.674 50.3396H113.675ZM182.037 77.001C181.509 77.3714 180.391 77.5397 179.801 77.7154C179.898 78.7863 180.023 78.414 180.397 79.1218L180.747 80.3763C180.785 80.5514 180.805 80.566 180.834 80.7252C180.999 81.6032 180.54 80.9481 178.24 82.3513C177.345 82.8969 177.406 82.7946 176.347 82.8583L176.434 84.3044C173.83 84.4611 175.22 84.2628 174.435 84.7152C174.732 86.8617 174.807 84.9815 176.313 87.5285C176.353 87.5952 176.629 88.0262 176.659 88.0648C174.979 88.1658 175.364 88.0373 174.388 88.7817C173.943 87.4324 172.776 87.1366 171.402 87.2193C171.51 88.5307 171.566 88.306 172.345 88.9042C172.232 89.356 171.909 89.4534 172.016 90.0228C172.278 91.415 174.398 91.1848 173.828 89.105C174.793 89.3028 175.708 91.5852 177.048 88.9587C177.769 87.5444 176.623 88.5785 178.082 87.6883C180.603 88.1383 177.893 88.8381 180.744 88.6893C180.882 87.8799 180.844 88.0293 181.251 87.4973C179.474 85.1505 180.747 86.8164 178.554 85.9183C178.698 85.0722 178.799 85.4236 178.822 84.6754C178.841 84.0626 178.57 84.2867 178.722 83.8764L179.868 83.6964C180.067 87.013 182.008 85.6207 181.978 85.1322C181.908 83.9518 181.325 84.0583 181.526 83.4693C181.824 82.5901 181.812 83.2942 181.99 83.304C183.139 83.3707 181.683 83.4889 182.777 83.4577C184.303 83.4136 183.062 82.3367 182.873 80.7246C184.413 80.4675 184.587 79.2467 182.209 79.3128C182.324 79.1358 182.699 78.6877 182.713 78.6638L183.361 77.0573C183.672 76.4224 183.387 77.6156 183.766 76.3171C183.725 76.2614 183.646 76.1156 183.639 76.1524L183.409 75.1771C181.631 74.4479 182.045 74.9977 180.993 73.2767C179.758 71.2599 178.101 72.8316 178.06 72.8855C177.383 73.7904 178.584 73.3336 179.844 75.2046C181.392 77.5061 180.637 74.3628 182.038 77.0016L182.037 77.001ZM157.393 196.621C158.384 196.291 158.034 196.472 158.494 195.684C162.011 197.29 161.385 195.67 161.514 197.825C161.512 197.825 158.795 199.859 157.393 196.621ZM159.721 192.611C159.826 192.169 159.811 192.283 159.901 192.034L162.552 186.151C163.675 186.664 163.901 186.479 164.656 187.476C163.868 187.59 164.031 187.541 163.521 187.835C163.757 189.479 164.633 189.338 163.048 189.605C163.336 191.615 164.214 190.132 164.07 191.155C163.913 192.268 162.815 190.106 161.388 190.865C161.836 192.218 162.197 191.715 163.213 192.498C163.013 193.549 162.991 192.919 162.555 193.955L162.374 192.839C160.748 193.323 161.812 193.562 160.086 193.266C161.501 195.693 161.055 194.081 162.477 194.574C162.368 195.115 162.465 195.371 161.945 195.522C161.282 195.714 159.909 194.827 158.731 194.799L159.723 192.611H159.721ZM82.5444 192.7C82.4095 190.442 83.9156 187.958 84.8983 186.029C85.2784 185.282 85.6236 184.966 86.1488 184.413L87.6768 182.753C88.2356 182.312 88.665 182.099 89.5593 181.692C97.4575 178.103 103.338 180.208 107.83 187.246L108.283 187.968C109.263 189.918 108.004 188.387 108.29 192.607C108.687 198.477 106.119 201.662 101.756 204.599C100.398 205.513 97.3068 206.616 96.1045 206.689C92.6562 206.896 86.9174 204.283 85.4809 201.427C83.5301 197.55 82.8439 197.71 82.5456 192.7H82.5444ZM103.467 179.832C103.66 178.883 103.937 178.708 104.612 177.839L108.113 173.01C109.889 170.516 112.2 168.126 113.146 166.815C113.846 165.845 113.895 165.634 114.801 164.712C116.243 163.245 115.05 163.213 116.927 163.058C117.076 165.565 117.154 164.432 118.252 165.881C117.189 165.699 116.081 165.147 115.116 166.65C116.101 167.95 116.192 167.138 116.636 168.3C115.379 170.361 114.782 167.318 113.22 168.795C113.669 170.153 113.888 169.668 115.035 170.138C114.625 172.156 114.013 171.07 112.493 171.161C112.683 172.488 112.773 171.936 113.461 172.845C112.928 173.441 113.059 173.531 112.377 174.071C110.932 173.143 112.559 173.034 110.579 173.018C110.758 175.204 111.619 174.108 110.735 175.621C109.476 175.363 108.881 174.005 108.775 175.458C108.7 176.475 109.483 176.085 110.22 177.103C109.757 177.863 110.008 177.911 108.464 177.651C106.886 177.385 107.622 176.738 106.21 177.345C106.626 178.601 107.306 179.021 108.907 178.924C108.767 179.664 108.532 179.897 108.129 180.422C106.298 180.05 108.21 179.558 105.483 179.71C105.966 181.603 106.54 180.489 106.791 182.244C105.703 182.078 104.127 180.705 103.466 179.831L103.467 179.832ZM179.189 159.608C180.046 159.462 179.912 159.438 180.306 158.949C180.711 158.446 180.444 158.637 180.813 158.036L185.852 150.751C187.894 147.845 187.635 147.935 189.312 145.066C189.768 145.335 191.122 146.306 191.432 146.68C190.301 146.774 190.751 146.642 190.009 147.056C190.775 148.069 190.68 147.28 190.366 148.196C188.873 148.887 190.621 146.893 189.019 148.318C188.514 148.768 189.099 149.056 188.112 149.203C188.176 149.992 188.905 150.991 186.992 151.791C186.281 152.088 185.932 151.855 185.939 152.446C185.95 153.288 185.958 152.429 186.229 152.995C186.562 153.692 186.567 152.752 186.336 153.373C185.951 155.269 185.445 154.138 184.388 154.651C184.546 156.188 184.593 154.919 185.067 156.352C183.836 157.821 184.313 157.257 182.203 157.407L182.594 158.533C181.345 158.476 181.315 158.504 180.883 158.926C181.085 159.192 180.979 159.157 181.286 159.37C181.808 159.73 182.361 159.531 182.663 159.689C182.12 160.62 181.84 160.384 181.614 161.494C180.893 161.347 180.61 161.142 180.09 160.743L179.767 160.482C179.724 160.44 179.659 160.379 179.621 160.336L179.188 159.608L179.189 159.608ZM114.823 161.734C114.571 159.495 111.339 156.544 113.818 148.25C114.402 146.296 116.048 144.981 117.784 143.829C121.659 141.255 123.008 141.503 127.483 141.234C127.558 143.259 126.926 142.004 127.172 143.443C127.539 145.587 131.188 145.656 132.946 145.55C134.127 143.529 133.093 144.105 134.249 143.15C134.562 144.095 135.69 144.975 136.346 146.333C136.921 147.525 137.416 148.472 137.844 149.877C139.016 153.727 139.129 158.934 136.604 161.95C135.182 163.65 133.06 165.476 131.043 166.313C127.883 167.623 125.608 167.764 122.348 166.802C120.263 166.188 120.466 166.654 120.482 164.869C120.509 161.703 118.073 161.538 114.824 161.733L114.823 161.734ZM103.293 142.978C103.584 143.061 104.613 143.129 105.328 143.146C106.519 140.516 106.43 142.485 106.968 141.103C107.157 140.619 106.35 139.466 106.204 138.449C106.847 138.641 106.47 138.458 106.939 138.853L108.964 141.498C109.461 142.205 109.32 141.653 109.632 142.597C106.437 143.549 99.0447 146.098 96.0881 143.41C97.3422 143.315 97.6051 143.163 98.0364 142.132C99.1222 142.354 98.4262 142.402 99.512 142.624C99.9658 142.144 100.126 141.824 100.596 141.397C100.755 142.599 100.719 142.331 101.547 142.791C102.891 142.343 102.667 142.256 102.325 141.293C103.128 141.585 102.578 141.277 102.976 142.075C102.978 142.079 103.249 142.869 103.293 142.977V142.978ZM100.956 139.528C100.292 140.391 100.557 140.24 99.0868 140.328C99.72 138.705 98.0114 139.672 100.21 138.759L100.956 139.528ZM102.55 139.578C103.305 138.731 103.096 139.676 103.035 138.64C103.024 138.465 102.746 137.941 102.66 137.211L104.833 139.693C103.035 140.154 103.908 139.888 102.239 139.849L102.55 139.578ZM128.485 143.497C128.739 142.196 129.053 142.541 129.502 140.557C130.093 137.938 131.903 135.193 133.357 133.044C134.368 133.218 136.042 133.85 136.63 134.589C135.943 134.471 135.763 134.371 134.884 134.404C135.125 136.09 135.497 134.892 135.445 136.273L134.842 135.929C134.792 135.907 134.709 135.859 134.657 135.841C133.501 135.432 133.306 135.733 134.102 136.757C134.815 137.674 134.203 136.241 134.786 137.603C132.663 137.554 134.438 136.613 132.446 137.164C132.672 138.741 132.776 137.851 133.703 138.83C132.998 138.813 131.254 138.217 131.665 139.379C131.866 139.946 132.859 139.985 133.246 140.889C132.278 141.61 131.178 141.948 130.103 142.248L130.537 143.954C129.679 143.602 129.344 143.849 128.486 143.497H128.485ZM111.863 138.536C111.396 137.616 110.71 139.356 109.478 139.995C108.943 139.112 107.814 137.856 107.576 137.207C108.051 136.468 107.931 136.561 108.966 136.252C108.931 137.718 108.225 137.98 109.391 138.549C109.538 138.318 109.547 138.406 109.702 137.974C109.731 137.892 109.817 137.624 109.831 137.533L109.456 136.029C109.429 135.959 109.388 135.887 109.363 135.817C109.171 135.272 109.206 135.419 109.168 134.789C107.052 135.419 107.726 135.957 106.373 136.408C106.023 135.831 105.932 135.746 105.71 134.996C107.172 134.509 106.67 133.487 108.506 133.377C109.38 133.324 109.666 134.194 110.674 135.247L113.725 139.156C114.078 139.696 114.357 139.576 115.003 140.532C115.251 140.898 115.418 141.271 115.651 141.656C117.327 141.517 116.492 141.141 117.081 141.286C117.876 141.482 117.115 141.844 117.005 141.981C117.004 141.982 114.629 144.267 114.112 144.135C113.165 143.895 114.079 143.442 114.104 143.29C114.392 141.574 113.73 142.141 112.821 142.696C112.74 141.332 112.795 141.399 112.971 140.364C111.055 140.024 112.857 139.851 110.954 140.486C111.239 139.998 111.672 139.63 111.818 139.268C111.834 139.226 112.35 139.492 111.864 138.536L111.863 138.536ZM186.466 131.306C186.349 129.34 188.203 125.79 189.31 124.525C192.148 121.281 194.435 119.115 200.253 120.009C204.411 120.648 208.279 122.319 210.031 126.282C211.869 130.438 212.399 132.01 211.274 136.138C209.997 140.829 207.661 142.872 203.739 144.492C202.14 145.153 200.805 145.545 198.974 145.524C198.095 145.513 196.438 145.43 196.062 145.409L193.777 144.958C190.466 143.794 190.94 143.737 190.638 142.334C190.042 139.572 186.941 139.272 186.465 131.305L186.466 131.306ZM112.924 124.671C113.96 125.414 114.781 127.13 114.843 128.618C114.847 128.698 114.836 128.78 114.836 128.857C114.837 128.93 114.825 129.012 114.825 129.081C114.82 130.132 115.025 130.083 114.435 130.989C113.164 128.691 114.597 129.203 114.188 127.869C113.725 126.354 110.76 128.712 109.837 126.621C109.001 126.771 108.927 126.932 108.43 127.287C108.57 128.264 108.713 128.333 109.11 128.988C110.312 128.889 110.123 128.817 110.806 128.338C111.503 129.227 111.629 129.439 111.501 130.295C109.168 129.895 109.875 129.024 106.567 130.011C106.751 132.252 107.368 131.123 109.806 130.977C110.128 131.402 110.315 131.478 110.575 131.969C110.821 132.43 110.815 132.764 111.029 133.226C112.114 132.801 111.336 133.159 112.183 132.039C113.211 132.174 112.571 132.2 113.58 132.501C113.627 132.515 113.714 132.529 113.758 132.543C114.917 132.896 114.392 132.216 114.555 133.014C114.609 134.454 114.112 134.889 113.88 136.248C112.995 136.059 113.406 136.228 112.774 135.646C114.047 134.888 113.837 135.522 113.725 133.644C110.105 133.781 113.397 133.881 111.148 134.09C110.581 133.153 109.917 132.331 109.247 131.301C105.889 132.302 107.175 132.237 105.587 132.973C105.798 131.733 105.885 132.165 105.195 131.255C104.017 131.974 102.893 132.973 102.515 134.346C102.148 135.681 102.604 135.845 101.521 136.742C100.826 137.317 100.762 137.309 99.9688 137.36C100.454 136.744 100.518 136.605 100.842 135.839C99.3552 135.015 100.486 134.908 98.7922 135.414C98.8812 133.993 98.675 134.413 99.5967 134.442C100.52 134.469 99.6327 134.657 100.312 134.489C101.008 134.317 101.604 133.371 102.006 132.794C102.877 131.54 102.528 133.049 102.603 131.412C101.924 130.589 100.9 130.209 99.7779 131.083C98.0431 132.433 100.353 131.728 97.1275 131.741C97.0683 131.412 96.6706 129.793 96.548 129.629C96.2064 129.168 95.4872 129.341 95.239 129.898C95.206 129.973 94.7723 132.005 95.4848 133.291C93.2516 132.908 92.899 134.102 91.4503 133.533C92.1402 132.352 92.2109 132.961 92.3396 131.053C92.3909 130.292 92.3634 129.443 92.0389 128.854L90.7323 129.337C90.6841 129.373 90.6311 129.44 90.5853 129.479C90.5389 129.517 90.4853 129.583 90.4395 129.621C90.3944 129.659 90.3358 129.721 90.2888 129.757C89.677 130.242 89.2885 130.335 88.6846 130.796C89.0091 134.759 90.8647 133.757 91.554 135.268C90.7945 135.626 91.263 135.109 90.2205 137.158C92.1231 139.446 89.8313 138.383 92.3189 139.033C94.4575 139.592 93.2321 139.815 94.8168 140.476C95.9185 139.685 95.1676 140.164 95.6739 138.633C96.3449 139.218 96.6486 139.891 96.8146 141.047C94.8065 141.337 96.0905 142.079 95.4945 143.159L94.3886 142.558C92.7117 141.404 91.6266 140.014 90.5091 138.611C86.3233 133.36 89.2763 127.022 89.2903 126.405C91.066 126.586 89.2885 126.952 91.3649 127.239C91.6668 126.349 91.5985 126.317 91.5271 125.11L90.6829 124.833C90.0595 124.63 90.5023 124.892 90.0522 124.618L91.5741 122.968C92.1548 122.357 92.3537 121.93 93.0497 121.535C93.2839 122.437 93.1778 122.546 94.0007 122.929C96.1222 122.297 94.2514 123.031 96.293 123.062L97.0598 121.584L93.8793 120.904C94.9846 119.73 94.8309 119.58 96.9561 119.155C97.2025 120.037 97.2464 120.956 97.879 121.3C98.3932 121.58 99.4046 121.132 99.9481 120.829C99.6175 119.829 98.7232 120.047 99.5223 118.532C102.554 119.354 105.14 117.79 108.14 119.587L110.929 121.682C111.779 122.52 112.509 123.443 112.924 124.672V124.671ZM128.351 112.156C129.747 112.188 129.713 112.648 130.996 112.868C130.707 113.505 130.595 113.991 130.165 114.594C129.688 115.261 129.541 115.48 128.557 115.627C128.252 114.917 128.057 115.046 127.624 114.522C128.284 113.47 128.46 114.003 128.351 112.156ZM65.4127 84.8781C65.9269 83.544 65.445 84.5615 66.7113 84.3338C68.8543 83.9481 68.4803 82.3409 70.9221 85.1279C70.0273 85.1811 68.6334 85.3489 67.7941 85.2613C66.6327 85.1407 66.8419 84.8242 65.4127 84.8781ZM71.2107 85.1107C71.3278 84.9105 71.4229 84.7434 71.5114 84.5573L72.2531 83.2838C72.3038 83.2165 72.8967 82.4769 72.9388 81.7618C72.9443 81.6675 72.9888 81.6387 73.0248 81.583C73.7903 82.0501 74.8975 83.1069 75.1933 84.0007C73.7488 84.3515 72.9644 84.9969 71.2107 85.1107ZM73.8806 80.5458C73.9965 79.7432 74.3918 79.4401 74.884 78.8101C74.3351 77.1148 74.1271 78.5689 74.1917 77.6861C74.1996 77.5777 74.9121 75.9577 76.3426 78.0699L81.4848 83.6615C83.0988 85.3128 82.3742 85.3109 84.231 85.1989C83.7643 85.9979 82.9787 86.5966 82.2327 87.294L81.6391 85.5766L79.6548 86.0542C79.875 84.7618 80.3527 84.4158 80.3472 83.1099C78.6245 83.3585 79.509 83.7681 78.4159 84.6773C77.895 83.9848 77.8096 84.155 77.9956 83.2342C78.089 82.7713 78.3885 82.1058 78.5318 81.7679C76.7531 81.463 77.6437 80.8446 76.4286 80.443C75.5721 81.4367 76.2937 81.6797 75.1951 81.8389C75.2244 80.6273 76.4548 80.9836 75.563 79.3342C74.4095 79.685 74.759 79.854 73.8818 80.5458H73.8806ZM63.1026 80.083C63.2997 79.1114 64.5129 78.3209 65.3864 77.7356L65.9275 77.3934C65.9513 77.304 66.0519 77.3205 66.1172 77.2899C66.2673 78.9393 66.4582 77.9046 65.5957 78.7299C64.9186 79.3783 65.04 78.9552 64.8313 79.9795L63.1026 80.083ZM67.4427 80.1124C67.3738 78.9583 67.3128 78.875 67.705 77.8722L68.2077 76.9612C68.2437 76.9165 68.3083 76.8595 68.3461 76.8161L69.5515 75.4183C69.5856 75.3693 69.6436 75.3069 69.6747 75.2555C70.1084 74.5226 69.8388 74.9481 69.9931 74.1773C70.5415 71.4375 72.341 71.9359 72.8265 73.4034C69.998 74.2465 68.7225 77.3303 68.9177 80.6046C67.2335 80.7056 67.547 80.7479 66.9041 81.9314L66.0532 81.0669L67.275 80.2361C67.2963 80.1485 67.3891 80.1571 67.4421 80.1124H67.4427ZM79.2992 70.4016C79.2327 69.2867 79.2132 69.4863 80.0946 69.1924C80.8669 71.8024 79.3431 75.9901 79.459 77.9389C77.7041 77.8979 78.0084 76.7377 76.6567 75.8506C74.2741 74.2869 69.341 77.9695 72.308 81.4318C71.4577 81.6301 71.4089 81.4893 70.6977 81.3675C70.5409 78.9822 70.3512 77.525 71.6242 76.1708C75.2336 72.332 77.6919 75.2787 79.5566 74.7399C79.387 72.6712 78.558 73.3508 78.1457 70.4708L79.298 70.4016H79.2992ZM29.9702 72.4942C31.2908 72.3969 32.4461 72.0553 33.4112 71.9971C35.4174 71.8765 36.0006 72.1324 36.3099 72.1134L51.8543 70.8895L52.0611 74.3604C48.7531 73.7836 50.3611 73.2626 48.2285 73.1395C48.2023 74.2685 48.0138 73.9085 48.0614 75.1814L47.1635 75.2402L46.4461 72.3351C45.8239 72.5518 45.5854 72.4508 45.6361 73.2951L46.0448 75.3026C40.4096 75.6412 45.4238 73.4548 42.364 72.9112C42.0603 73.8069 42.2207 74.2189 42.2988 75.5279L41.1459 75.5971C41.0349 73.6942 41.3935 73.772 40.126 73.0459C39.7697 74.4234 39.9039 74.1736 40.0101 75.9559C36.5331 76.1646 39.2897 73.8271 37.6311 73.3991C36.8277 73.1922 37.2651 74.2636 37.417 76.112C33.2404 76.363 38.0715 73.9171 34.7519 73.9606L34.5354 76.2846L33.671 76.3367C33.5905 74.9799 33.7448 74.4087 33.2105 73.4616C32.4809 73.7769 32.5364 73.5063 32.4608 74.6714C32.4309 75.141 32.5657 75.695 32.5181 76.4059C30.9456 76.5099 30.7168 76.9354 30.4179 75.3816C30.2703 74.6132 30.0513 73.2644 29.9714 72.4948L29.9702 72.4942ZM1.85067 76.2154C1.66462 73.0948 4.04177 67.2461 6.36951 65.4632C10.6157 62.2122 15.4773 62.1253 20.6324 63.6014C23.1559 64.3245 25.7929 67.8724 26.9849 70.3238C27.1154 70.5926 27.396 71.1234 27.5564 71.4767L28.627 76.4855C28.7715 78.3571 26.6091 82.783 25.469 84.0913C22.291 87.7379 16.6308 89.0781 11.6142 88.325C7.60291 87.7226 2.18068 81.7728 1.84945 76.2161L1.85067 76.2154ZM114.658 66.8255C114.762 66.133 114.803 66.3314 114.764 65.8606C114.687 64.9275 114.291 65.5679 114.625 64.6006L114.925 63.7453C115.943 64.941 116.351 64.1763 117.69 64.3214C117.09 66.0749 114.329 67.491 112.727 68.3934C112.2 66.801 111.836 68.2006 112.03 66.403C114.302 66.2665 113.203 66.5285 114.658 66.8261L114.658 66.8255ZM53.6001 71.0744C53.5373 70.0232 54.5969 67.4408 55.0489 66.6136C57.5456 62.0494 59.9605 60.5653 65.4975 59.1951C66.8736 58.8547 66.6595 59.0445 67.8819 58.9686C70.3866 58.8118 72.7631 59.4504 74.7065 61.0851L76.9647 62.8434L79.431 67.7806C78.4001 67.6042 77.679 67.2553 77.2734 68.4608C77.2618 68.4963 77.2496 68.5924 77.2417 68.6249L76.2962 68.5496C76.6677 67.2877 76.7305 68.2067 76.786 67.0685C73.7123 65.26 75.5849 67.4757 74.2539 69.1998C73.5122 70.1591 73.7464 69.4422 72.5087 70.0875C71.7267 70.4953 72.4355 70.2289 71.5822 70.6575C68.6194 72.1452 71.3851 71.2906 68.8311 72.5879C66.8144 73.6122 68.5419 73.2755 67.8106 74.7112C67.3518 75.6124 67.8423 74.9983 66.5466 75.163C65.2162 75.3326 65.4273 75.9155 63.7895 76.2173C63.3472 75.2622 63.221 73.9795 62.1638 74.0432C60.7871 74.1259 61.2653 76.1989 63.4717 76.5767C63.4217 77.5979 62.7561 77.4173 62.664 77.4436C62.2755 77.5569 60.5083 78.1128 60.2442 77.4681C60.2082 77.3805 60.1191 77.3836 60.0478 77.3628C59.6159 78.2769 59.7263 78.5254 58.6936 78.8952L58.7625 80.0524C59.7025 80.2367 59.7568 80.3273 60.3796 81.0062C61.0244 81.7079 60.8725 81.7899 61.4843 81.9791C62.8965 82.415 63.5784 82.666 65.3846 82.5577L64.139 82.9232C64.2531 83.9279 64.3836 84.0026 64.8191 84.624C62.126 84.1624 62.2456 83.7803 60.8585 83.252C60.357 83.0609 59.9831 83.0254 59.5433 82.8675C58.6851 82.5589 56.2005 80.4503 56.2121 79.1524C56.7355 79.3011 59.6464 79.123 58.0482 77.7748C59.5787 77.6487 59.3457 77.6077 59.4927 75.9467C58.1763 76.1212 57.7365 76.0979 57.7432 77.503C56.4043 77.1736 57.7542 77.2134 56.2676 77.0107C56.0474 78.2824 56.2201 77.8942 55.3899 78.2248C53.727 75.662 53.8173 74.7191 53.6001 71.0757V71.0744ZM116.445 58.0098C115.111 58.12 115.458 57.9675 114.894 58.8198C115.474 59.3947 115.538 59.2386 116.226 59.7651C115.276 61.9618 114.98 60.7839 116.433 62.6555C114.805 62.8685 114.695 63.449 113.065 63.7796L113.674 65.1277C111.924 64.7371 111.644 64.7542 111.419 65.8587C110.953 65.6677 110.098 65.3879 109.436 65.32C108.159 65.1877 108.108 65.6469 107.943 65.7773C107.895 65.7185 107.869 65.6157 107.846 65.5722L107.414 64.8204C106.947 64.2975 107.766 64.3367 106.704 64.401C105.378 64.4806 106.801 64.5957 105.878 64.5736C105.12 64.5559 105.398 64.1892 103.805 64.2847C103.985 65.6898 104.081 65.9041 105.35 65.9334C105.301 68.0353 104.941 66.5383 103.367 66.6332C102.345 66.6945 101.103 66.921 102.201 67.8779C102.705 68.3169 103.127 68.2544 104.016 68.6769C104.056 68.6959 104.171 68.8391 104.195 68.7834C104.219 68.7283 104.314 68.8532 104.37 68.8949C105.8 67.9655 104.954 67.6434 107.439 68.2159C108.27 68.4075 108.329 68.6512 109.087 68.4289C110.073 68.1406 109.897 68.0855 110.064 67.3912C111.104 68.064 110.373 68.0059 111.455 69.0498C108.589 69.6791 109.401 69.463 106.15 69.6589C103.798 69.8004 102.775 69.3442 101.383 68.5667C100.33 67.9783 99.7791 68.0518 99.0612 67.1824C99.8084 66.6975 100.09 67.5412 100.739 66.2108C99.9024 64.9924 100.231 65.6842 98.8763 65.0965L97.8393 66.0945C97.0952 65.1118 97.0598 65.6028 96.2058 64.5436C94.1989 62.0543 93.4145 59.792 93.2186 56.5037C93.0796 54.1771 94.2727 51.4998 95.3286 49.6208C96.5187 47.5049 97.6161 46.4549 99.8633 45.1643C102.827 43.4617 106.495 43.2449 109.92 44.0959C113.999 45.1092 115.162 45.9608 117.528 48.4527C118.311 49.2767 118.422 49.0092 118.951 50.2478C119.168 50.7584 119.559 52.0453 119.592 52.5963C120.112 61.3177 119.516 57.2377 118.466 62.8239C118.422 62.762 118.38 62.6683 118.359 62.623C117.933 61.6796 118.096 62.3739 118.005 59.9494C117.047 59.3849 117.775 59.4865 116.53 59.4571L116.444 58.011L116.445 58.0098ZM80.1782 46.5559L79.3083 46.3086C79.5767 44.9861 79.703 45.7998 80.0702 44.8215C80.4167 43.8976 80.2008 44.7627 80.0001 43.3643C78.5349 43.8529 78.8929 44.6641 77.8084 45.5439L76.6286 45.018C78.1048 42.4906 78.5471 43.0557 77.6071 41.7664C76.1461 42.8445 76.0369 43.0723 76.0211 43.8694C75.9991 44.9929 76.0638 44.3415 76.2096 44.6451C75.3751 44.5974 75.2659 44.4198 74.5498 44.118C74.7486 42.5684 75.0707 43.1482 74.9457 41.0549C73.1077 41.6678 74.2606 42.4968 73.0663 43.4904C71.9414 42.9768 72.0213 43.6196 72.2818 42.0106C72.5142 40.578 72.7393 41.9347 72.3001 40.3435C70.9667 40.5364 70.9282 41.0764 70.9801 42.4551C69.8455 42.4288 69.768 42.1343 68.6402 42.0155C68.986 40.7568 69.3941 40.5468 69.987 39.6511C70.5019 38.8735 70.5994 38.0041 71.551 37.4862C71.9091 38.568 71.717 38.1253 72.7497 38.6066L93.3297 48.659C92.8996 49.6074 92.4787 50.7161 92.0615 51.6376C89.1488 50.4994 92.3884 50.6402 90.7524 49.0882C88.7834 49.7916 90.6079 51.7655 88.5778 50.6861C89.2287 49.5002 89.638 50.4902 89.5489 48.3057C89.5081 48.3119 88.8584 48.4514 88.8499 48.4521C88.4357 48.4686 88.6211 48.4827 88.3234 48.3749C87.9184 48.228 88.3478 48.3908 87.8501 48.0816C86.3367 47.1431 89.1994 48.3859 87.4969 47.8484L86.6191 48.7098C86.0756 49.3833 86.7832 48.918 85.8713 49.6876C85.9103 47.9959 86.4605 48.7202 86.0042 47.0672C84.7861 47.2594 84.9124 47.3004 84.9307 48.6321L83.1916 48.3969C83.2294 46.7506 83.5704 47.7118 83.8101 46.728C84.012 45.899 83.782 45.9143 83.3087 45.5108C81.9636 46.6368 83.2562 47.0757 81.3939 47.3439C81.3597 45.3523 82.0027 46.6735 81.7977 44.4168C80.3344 44.9047 80.6546 45.6596 80.1782 46.5553V46.5559ZM115.566 43.259C116.486 42.861 115.807 43.2376 116.61 42.2721L119.01 39.2047C120.18 37.9 121.13 36.5794 122.248 35.2374L124.71 32.2356C125.006 31.8603 125.163 31.6668 125.478 31.2713L128.373 27.1062C129.846 27.1227 129.612 27.3639 130.705 27.9854C132.61 29.0684 132.103 28.9258 131.855 29.5533C131.453 29.6433 130.708 28.4801 130.286 29.4009C130.017 29.9862 130.773 30.5084 130.982 31.2413L130.235 32.219C129.272 31.4648 130.079 31.7115 128.962 31.4243C128.474 31.9472 128.165 31.9521 127.849 32.3011C127.108 33.1178 127.808 32.4125 127.464 33.4582C127.102 34.556 126.825 33.596 126.984 35.8974C125.727 34.6105 126.348 34.8713 125.186 34.8443C125.34 36.7233 125.675 35.7866 126.188 37.1066C124.647 37.0705 124.229 35.5631 123.779 36.7209C123.512 37.4109 124.688 38.0862 125.121 38.6225C124.217 39.3125 124.292 39.8219 123.191 40.1898C122.495 37.84 120.697 38.7578 122.683 41.3813C120.926 41.5613 122.603 40.8051 120.055 40.9582C120.463 42.1919 120.764 41.8062 121.6 42.607C121.322 43.0833 121.019 43.8719 120.266 43.7561C119.3 43.6074 119.756 43.0631 119.26 42.1674C118.513 42.3902 118.428 42.4815 117.853 42.8323C119.104 44.9868 118.84 43.9061 119.72 45.0425C119.431 45.4202 119.408 45.4435 119.196 45.9449C117.54 45.9063 115.861 44.1541 115.566 43.2602V43.259ZM126.474 17.6403C126.164 12.4515 128.264 6.58135 133.059 4.32462C135.034 3.39524 138.957 1.96504 140.746 2.16463C143.328 2.45238 145.976 3.74728 147.451 5.32503C148.436 6.37931 148.953 6.88625 149.86 8.16094C153.081 12.6879 153.564 14.7572 151.748 19.6013C150.109 23.9752 148.551 26.1278 143.826 27.3297C142.989 27.5427 142.634 27.6897 141.797 27.8464C134.757 29.1676 126.901 24.7858 126.543 18.7974L126.474 17.6403H126.474ZM128.351 112.155C127.033 112.594 128.123 112.626 126.656 112.837C126.466 111.515 126.926 112.285 125.979 111.717C125.484 112.223 124.783 113.288 124.182 113.112C122.943 112.749 124.915 112.746 123.942 110.969C122.512 111.445 123.424 111.77 121.994 112.247C121.121 111.093 121.688 111.958 121.568 109.95C120.59 110.091 119.909 111.438 119.485 110.568C119.085 109.749 120.06 110.043 119.448 108.336C118.221 108.745 118.942 108.64 118.139 109.371C117.329 110.107 118.076 109.777 116.635 109.666L116.514 107.641C113.96 108.01 116.792 108.539 114.566 108.92C113.826 107.524 115.138 107.844 114.126 106.401C113.433 106.816 113.252 106.881 113.056 107.849C111.032 107.502 111.831 107.368 111.765 105.604L110.901 105.656C110.754 106.379 111.156 106.251 110.291 106.492C108.956 106.865 109.698 104.887 109.627 103.701C108.251 104.152 108.54 104.622 108.02 105.83C107.251 105.698 107.156 105.617 106.544 105.337L108.731 99.6123C110.36 93.316 105.088 84.234 101.757 83.274C102.037 81.6271 103.337 77.3922 104.366 75.7379C104.707 75.1887 104.414 75.7814 104.694 75.2028C105.043 74.4779 105.039 73.5375 105.332 72.7459C104.122 72.6712 104.23 73.2399 103.816 74.1522C103.489 74.0181 103.437 73.9912 103.01 73.7995C101.982 73.3379 101.685 73.6997 100.324 73.7812C100.39 75.3859 99.9024 74.7828 99.5803 75.8579C100.827 76.5914 101.039 76.8399 100.797 78.3099C99.7029 78.4171 99.8292 77.9787 98.8715 78.5126C99.224 80.972 99.7492 78.384 100.433 80.4503C99.7523 81.2634 98.9453 80.8612 97.8912 81.474C98.1779 81.853 98.073 81.7256 98.4573 82.0685C98.4994 82.1058 98.5768 82.1652 98.6159 82.1983L99.113 82.562C98.0541 82.6018 97.502 82.4205 96.7731 82.1224C96.8176 80.1987 97.9211 78.163 98.3188 76.3857L99.8639 70.9061C101.544 70.843 101.074 71.2183 102.344 71.4951C103.117 71.6634 104.282 71.6604 105.093 71.781C109.286 72.4024 111.88 71.1253 115.57 69.5579C122.279 66.7067 123.859 52.4898 119.88 47.6898L134.439 29.9495C136.892 30.1386 137.473 30.6088 140.242 30.4686C146.202 30.168 151.293 26.9195 153.323 21.5495C154.937 17.2821 155.787 15.2777 153.852 10.4373C152.608 7.32523 149.899 4.27809 147.434 2.56871C143.969 0.167491 141.764 -0.51516 137.222 0.368919C134.333 0.930958 133.916 1.11463 131.771 2.36238C128.142 4.47401 126.96 6.26605 125.451 10.1593C124.607 12.3389 124.674 13.346 124.471 15.3401C123.965 20.3317 125.054 22.2964 127.839 25.9748C127.158 27.1405 125.948 28.226 125.137 29.3195L118.367 37.81C117.861 38.6017 118.333 38.1033 117.641 38.7994C117.091 39.3535 117.19 39.0694 116.627 39.8292C116.051 40.6055 115.05 42.4411 114.091 42.7662C113.93 42.8206 107.892 40.7702 102.541 41.7939C97.6539 42.7282 96.0978 45.6431 94.1092 47.1596C93.0204 46.9729 91.9871 46.6227 91.055 45.9872C88.4918 44.2386 85.3656 43.3606 82.6444 41.9182C80.5106 40.7868 72.9199 36.6217 71.4833 36.3278C71.8658 35.3721 71.7706 34.2854 72.1006 33.3192C72.5703 31.946 73.2279 30.6719 71.8414 27.5795C69.8845 23.2166 68.0356 20.8864 63.848 18.1111C61.5368 16.5787 61.3654 16.6503 58.8595 16.6191C55.4692 16.5781 56.7752 16.1128 53.0487 17.1744C50.0536 18.0272 46.8585 20.8368 45.0194 23.1689C41.4747 27.6652 41.3075 33.9958 43.8335 39.5145C43.9982 39.8745 44.9315 41.4737 45.1456 41.7364C46.4223 43.3019 49.0874 45.4717 51.0363 46.1819C60.4748 49.6214 67.1884 43.2713 67.2689 43.2572C68.3785 43.4843 67.738 43.5155 68.8238 43.9594C69.5484 44.2557 69.7845 44.2331 70.6403 44.3855C73.364 44.871 78.5141 47.5863 81.2115 49.0931L88.2826 52.8259C89.4495 53.3849 89.8417 54.0308 91.335 54.0027C91.0434 56.7596 91.3057 58.191 91.981 60.6822C92.7349 63.463 96.1954 69.242 98.9288 69.8016L98.1114 70.9991C97.854 72.0663 98.162 71.7259 98.148 72.4924C98.1145 74.3083 97.4209 73.2963 96.936 74.8844C96.5803 76.0483 96.9244 76.161 96.4016 77.683C96.0069 78.8328 96.2284 80.0089 95.9337 80.8501C95.5012 82.085 94.8296 81.253 92.9746 81.4697C90.3675 81.774 86.9381 83.5624 84.7897 84.8744C83.8894 83.6591 83.5893 83.4901 82.4358 82.2846C77.715 77.3518 83.0732 80.045 81.7849 69.7961L78.3092 62.2673C77.6302 61.3955 77.7974 61.7365 77.1459 61.1028C72.7802 56.8588 66.909 56.1284 61.3013 58.472C57.4681 60.0737 52.9688 64.5571 52.615 69.1006C49.0282 69.3161 37.8452 70.8577 34.9404 70.5761L29.2906 70.7922C28.6813 68.7326 27.2337 66.7122 26.007 65.2434C24.5943 63.553 23.0614 62.5716 20.9996 61.6385C18.9427 60.7073 16.7906 60.1949 13.9188 60.37C8.18973 60.7196 5.59725 62.6641 2.87668 66.9853C1.76527 68.751 0.856989 70.6887 0.420233 73.0085C-0.237341 76.5008 -0.174511 76.6765 0.969838 79.9783C2.11846 83.293 3.61172 85.7279 6.16333 88.0011L7.73528 89.0064C7.79018 89.037 7.86338 89.0787 7.91767 89.1099L8.27513 89.323C12.3127 91.647 19.2196 90.995 23.0443 88.7842C29.5273 85.0367 28.7844 80.833 30.3185 78.8163C31.6843 77.0218 39.1591 77.5912 40.6256 77.3285C45.96 76.3722 47.4282 77.0671 50.7643 76.7897C52.0636 76.682 51.5109 76.8136 52.4698 76.3654C52.9664 78.0442 55.1184 80.9487 56.1993 82.0269C57.3394 83.1638 57.1973 83.2856 58.596 84.2542L61.516 85.8748C65.8092 87.924 72.585 87.125 76.3975 84.7979C77.2008 85.8558 78.1994 86.3701 79.2126 87.4807C79.2528 87.5254 79.3126 87.5866 79.3547 87.6289C79.3968 87.6711 79.4602 87.7281 79.5042 87.7679C80.2075 88.4052 80.1825 88.5442 81.2506 88.5693C81.0737 89.4387 80.0745 91.3219 79.6536 92.6199C78.9887 94.6691 78.8283 97.2405 79.1382 99.3491C79.7628 103.604 82.3559 107.011 85.8017 109.355C87.6439 110.608 88.565 111.396 91.2038 111.887C95.7141 112.728 100.809 110.811 103.865 108.154C105.57 106.67 105.034 106.818 107.524 107.305C108.831 107.56 110.332 108.213 111.342 108.861C114.52 110.901 119.197 111.733 122.673 113.949C123.592 114.534 125.051 115.558 126.253 115.764C125.082 118.623 126.382 123.088 127.358 125.322C127.882 126.521 128.75 127.896 129.536 129.033C130.586 130.551 130.451 130.777 132.022 131.855L129.624 136.569C129.197 137.239 129.507 136.717 129.14 137.505C128.742 138.358 128.548 138.774 128.244 139.447C125.58 138.99 122.859 139.237 120.253 140.27C119.4 140.608 118.697 141.001 117.939 141.226C116.606 140.443 116.003 139.142 114.867 138.219C117.087 134.418 115.89 133.237 116.644 129.645C117.453 125.793 113.159 120.705 110.163 118.842L107.83 117.453C106.358 116.841 104.297 116.636 102.883 116.286C101.681 115.987 101.402 116.072 99.8188 116.233C96.2223 116.599 92.9509 118.178 90.5121 120.917C88.31 123.389 86.3428 127.22 86.3471 130.638C86.3507 133.048 86.6612 135.41 87.5067 137.068C89.6667 141.304 93.9 146.421 99.1472 146.447C108.253 146.492 108.251 144.475 110.567 143.702L113.264 145.282C112.199 147.124 112.041 147.36 111.464 149.702C110.868 152.127 110.744 156.01 111.521 158.486C112.037 160.13 113.377 162.195 113.774 163.538C112.136 166.342 109.249 168.427 107.635 171.217C107.591 171.292 107.485 171.522 107.442 171.597L106.192 173.485C105.462 174.443 104.746 175.027 104.058 175.979C102.035 178.78 102.431 179.401 99.1728 178.517C97.2763 178.003 98.1248 177.843 95.5519 177.94C89.361 178.174 84.7348 181.875 81.8526 186.873C81.0779 188.216 81.056 188.216 80.5863 189.864C79.8262 192.526 80.6461 194.632 81.2872 197.21C82.5047 202.106 85.523 205.185 89.128 207.172C93.3992 209.527 98.783 209.091 103.021 206.55C106.59 204.411 109.375 200.857 110.243 196.273C110.424 195.317 110.852 189.514 110.683 188.663C110.181 186.147 108.001 184.832 107.421 183.079C108.647 182.543 107.899 183.454 109.032 181.788L113.086 175.799C113.626 174.998 113.72 174.43 114.244 173.543L118.657 167.824C122.68 167.982 122.441 170.539 130.244 168.617C132.497 168.062 134.041 166.81 135.688 165.522C136.842 164.62 137.853 163.73 138.287 162.357L140.757 163.267C141.682 163.653 141.957 163.878 142.842 164.307C143.732 164.739 144.038 164.936 144.905 165.362L155.824 170.303C154.517 173.516 156.479 177.988 158.245 180.839C158.47 181.202 158.671 181.483 158.951 181.895L160.743 184.225C161.504 185.535 158.923 190.813 158.288 192.215C154.303 191.532 149.836 192.058 146.726 193.972C144.422 195.389 140.88 198.824 139.99 201.682C139.406 203.561 139.368 206.021 139.357 207.512C139.318 212.951 142.762 217.862 147.546 220.114C154.07 223.184 158.244 222.396 163.896 218.571C166.882 216.55 168.607 213.685 169.412 210.068C169.974 207.545 170.003 206.572 169.227 203.92C167.615 198.413 164.795 197.001 163.932 194.733C164.723 193.758 166.681 189.562 167.302 188.191C171.887 187.916 174.514 187.859 177.735 186.526C183.495 184.14 186.054 176.533 185.638 170.53C185.5 168.547 185.277 167.481 184.468 166.002C184.066 165.268 183.862 164.798 183.39 164.121C182.877 163.385 182.527 163.185 182.244 162.331C183.223 162.004 183.874 160.799 184.399 159.867L189.265 151.875C193.195 146.326 192.659 147.279 197.222 147.544C198.602 147.624 199.674 147.757 201.304 147.514C206.206 146.783 209.878 143.723 211.894 140.257C214.528 135.727 214.6 132.214 212.62 126.417C211.994 124.586 211.295 123.583 209.973 122.334L207.44 120.237C204.563 118.224 200.733 117.366 197.198 117.71C190.507 118.359 185.528 123.549 184.311 130.209C183.33 135.573 185.698 139.565 188.588 143.372L184.832 149.848C184.177 151.228 183.228 151.744 182.142 153.751C181.663 154.638 181.375 154.754 180.808 155.574C179.104 158.037 178.594 157.479 178.902 159.629C178.037 159.234 176.995 158.702 176.211 158.353C173.739 157.256 169.323 156.193 166.786 157.331C166.142 157.62 165.974 157.725 165.358 157.978C163.884 158.582 162.839 159.285 161.591 160.363C160.252 161.521 158.863 162.95 158.091 164.653C155.534 164.215 148.527 159.774 145.313 158.735C144.036 158.323 144.301 158.401 143.148 157.777C142.31 157.324 142.048 157.117 141.147 156.963C140.906 158.391 140.659 158.146 142.182 158.864L148.494 161.926C151.119 163.474 154.623 164.405 156.96 166.172C156.892 167.183 156.602 167.363 156.586 168.517C155.435 168.13 156.31 168.741 156.16 166.221C155.448 166.444 155.726 166.267 155.142 166.755C154.831 165.483 155.257 165.906 154.38 165.457C153.3 166.28 153.55 166.797 152.754 167.296C151.425 166.172 153.353 165.911 152.361 164.975C151.722 164.372 150.845 165.384 150.668 166.26C150.008 165.948 148.987 165.384 148.293 165.242C148.319 164.112 148.508 164.473 148.46 163.2C147.291 163.369 147.296 163.419 147.088 164.443C146.03 164.419 145.904 164.101 145.019 163.697L144.899 161.672C143.918 161.999 144.021 161.883 143.815 162.899L143.238 162.933C143.134 161.614 143.507 160.591 143.048 159.751C141.979 160.108 141.758 160.578 141.728 161.863C140.768 161.565 140.214 161.278 139.371 161.134C139.406 159.592 140.457 157.805 140.676 155.99C141.162 151.935 137.788 142.298 134.74 141.673C134.911 140.671 137.432 135.602 138.072 134.507C139.077 134.919 142.175 134.911 143.781 134.703C145.468 134.484 145.679 133.711 147.623 132.879C151.36 131.28 152.139 129.404 154.225 126.978C155.782 125.168 157.159 120.109 156.653 117.498C155.835 113.279 154.079 112.364 152.466 109.147L156.486 103.795C156.972 103.15 156.876 103.386 157.306 102.882L163.703 94.6097C164.234 93.9044 164.696 93.3258 165.374 92.8091C166.594 93.5266 168.807 94.4034 170.657 94.5534C172.802 94.7266 175.005 94.6556 177.439 94.2674C180.38 93.7978 181.695 92.2691 183.731 90.256C185.722 88.2877 186.642 85.9281 187.326 83.3224C187.937 80.9946 188.824 81.1942 188.07 77.6261C186.893 72.0583 183.365 68.0726 178.336 65.7981C173.744 63.7208 168.865 64.8755 164.743 67.0471L162.288 68.9738C160.987 70.4732 160.217 71.2422 159.289 73.142C158.478 74.8024 157.912 75.9908 157.527 78.1575C157.33 79.265 158.452 83.8881 158.906 84.9944C160.481 88.8332 160.981 87.8407 159.669 89.9205C158.291 92.105 157.658 91.8607 156.498 94.2221C155.771 95.7001 154.486 97.1101 153.661 98.5397C153.195 99.3478 153.482 98.8819 152.935 99.5352L148.198 105.453C146.522 104.687 144.967 104.327 142.626 104.343C139.922 104.36 139.744 104.014 136.996 104.789C133.415 105.8 130.499 107.189 128.43 110.037C127.866 109.401 126.785 109.202 126.074 108.877C125.239 108.495 124.546 108.274 123.664 107.897C122.773 107.516 122.131 107.296 121.345 106.817L114.46 103.181C113.071 102.478 110.794 101.949 110.305 100.473L109.152 100.542C109.033 102.189 109.068 102.086 110.466 102.755C114.448 104.659 118.465 106.419 122.23 108.592C122.853 108.951 122.753 108.969 123.466 109.355C124.811 110.083 127.453 111.069 128.354 112.161L128.351 112.155Z" fill="white"/>
</g>
<defs>
<clipPath id="clip0_216_665">
<rect width="214" height="222" fill="white"/>
</clipPath>
</defs>
</svg>
