<svg width="223" height="252" viewBox="0 0 223 252" fill="none" xmlns="http://www.w3.org/2000/svg">
<g clip-path="url(#clip0_286_4650)">
<path d="M209.233 193.164H16.3789V96.5869C16.3789 43.3226 59.6341 0 112.806 0C165.978 0 209.233 43.3226 209.233 96.5772V193.154V193.164ZM18.3042 191.226H207.298V96.5869C207.298 44.3982 164.904 1.94763 112.806 1.94763C60.708 1.94763 18.3138 44.3982 18.3138 96.5772V191.217L18.3042 191.226Z" fill="black"/>
<path d="M222.797 116.644C222.303 116.654 221.8 116.664 221.307 116.664C221.268 116.615 221.21 116.586 221.123 116.577C220.223 116.48 219.323 116.509 218.424 116.548C218.375 116.489 218.308 116.451 218.201 116.451C218.075 116.451 217.95 116.451 217.824 116.451C215.27 116.325 212.667 114.949 211.052 112.962C209.359 110.879 208.914 108.098 208.643 105.472C208.604 104.087 208.575 102.691 208.507 101.306C208.488 100.889 207.888 100.889 207.859 101.306C207.714 103.815 207.637 106.335 207.637 108.844C207.453 109.426 207.279 110.007 207.114 110.598C206.959 111.15 206.805 111.693 206.495 112.187C206.195 112.672 205.789 113.098 205.373 113.486C203.854 114.881 201.851 115.811 199.8 116.063C199.2 116.082 198.591 116.102 197.991 116.121C195.94 116.063 193.86 116.218 191.857 116.441C191.519 116.48 191.509 116.955 191.857 116.974C193.444 117.08 195.021 117.08 196.607 117.061C198.059 117.042 199.539 116.732 200.971 117.1C202.915 117.604 204.647 118.641 205.972 120.104C206.185 120.385 206.369 120.666 206.543 120.976C207.25 122.264 207.433 123.737 207.569 125.171C207.588 125.336 207.598 125.511 207.607 125.675C207.607 125.772 207.607 125.869 207.607 125.966C207.607 126.014 207.617 126.063 207.637 126.111C207.685 126.76 207.714 127.41 207.743 128.059C207.733 128.853 207.724 129.648 207.704 130.433C207.704 130.433 207.704 130.452 207.704 130.462C207.666 131.363 207.656 132.264 207.762 133.146C207.811 133.572 208.401 133.582 208.43 133.146C208.498 132.245 208.507 131.344 208.517 130.433C208.565 130.375 208.614 130.297 208.623 130.191C208.72 129.183 208.71 128.175 208.662 127.167C208.739 126.198 208.846 125.22 208.904 124.251C209.513 121.954 210.713 119.813 212.735 118.495C213.393 118.069 214.109 117.749 214.883 117.565C215.347 117.449 215.831 117.429 216.305 117.371C216.711 117.313 217.118 117.236 217.524 117.206C217.669 117.197 217.805 117.187 217.95 117.187C218.259 117.206 218.569 117.226 218.878 117.236C219.062 117.236 219.256 117.236 219.44 117.236C220.581 117.303 221.703 117.391 222.845 117.09C223.077 117.032 223.039 116.654 222.787 116.664L222.797 116.644ZM205.102 114.716C205.305 114.561 205.498 114.406 205.692 114.232C205.518 114.416 205.315 114.581 205.102 114.716ZM206.601 114.949C206.601 114.949 206.543 114.978 206.514 114.997C206.843 114.745 207.133 114.455 207.375 114.125C207.191 114.445 206.921 114.716 206.601 114.949ZM209.997 115.937C209.997 115.937 209.997 115.918 209.997 115.908C210.007 115.908 210.016 115.918 210.026 115.927C210.026 115.927 210.007 115.937 209.997 115.947V115.937ZM212.59 115.598C212.59 115.598 212.59 115.598 212.6 115.598C212.6 115.598 212.6 115.598 212.59 115.598Z" fill="black"/>
<path d="M26.354 104.435C26.0348 104.435 25.7155 104.445 25.4059 104.445C25.3769 104.416 25.3382 104.397 25.2898 104.387C24.7094 104.329 24.1385 104.348 23.5677 104.368C23.5387 104.329 23.4903 104.3 23.4226 104.3C23.3452 104.3 23.2582 104.3 23.1808 104.3C21.5457 104.222 19.8817 103.341 18.8465 102.071C17.763 100.734 17.4824 98.9608 17.3083 97.2845C17.2889 96.393 17.2696 95.5112 17.2212 94.6198C17.2115 94.3485 16.8245 94.3582 16.8052 94.6198C16.7181 96.2283 16.6601 97.8368 16.6601 99.4453C16.544 99.8232 16.4279 100.191 16.3215 100.569C16.2247 100.928 16.1183 101.277 15.9248 101.587C15.7313 101.897 15.4798 102.168 15.2089 102.41C14.2414 103.302 12.9547 103.893 11.6486 104.058C11.2616 104.067 10.8746 104.087 10.4877 104.096C9.17191 104.058 7.84649 104.154 6.55976 104.3C6.34692 104.319 6.33725 104.629 6.55976 104.639C7.5756 104.707 8.58176 104.707 9.59759 104.697C10.5264 104.687 11.4745 104.484 12.3839 104.716C13.6319 105.036 14.7348 105.705 15.5862 106.635C15.7216 106.809 15.8377 106.994 15.9441 107.197C16.3989 108.021 16.5149 108.961 16.602 109.881C16.6117 109.988 16.6214 110.094 16.631 110.201C16.631 110.259 16.631 110.327 16.631 110.385C16.631 110.414 16.631 110.453 16.6504 110.482C16.6794 110.898 16.6988 111.305 16.7181 111.722C16.7181 112.226 16.7084 112.74 16.6988 113.243C16.6988 113.243 16.6988 113.253 16.6988 113.263C16.6697 113.834 16.6697 114.416 16.7375 114.978C16.7665 115.249 17.1438 115.259 17.1631 114.978C17.2115 114.406 17.2115 113.825 17.2212 113.243C17.2502 113.205 17.2792 113.156 17.2889 113.088C17.347 112.449 17.347 111.8 17.3083 111.15C17.3566 110.53 17.4244 109.91 17.4631 109.28C17.85 107.807 18.624 106.441 19.9107 105.598C20.3364 105.327 20.7911 105.123 21.2845 105.007C21.5844 104.939 21.894 104.92 22.194 104.881C22.4552 104.842 22.7067 104.794 22.9776 104.775C23.0647 104.775 23.1614 104.775 23.2485 104.765C23.4517 104.775 23.6451 104.794 23.8483 104.794C23.9644 104.794 24.0902 104.794 24.2063 104.794C24.9319 104.842 25.6575 104.891 26.3831 104.707C26.5379 104.668 26.5088 104.426 26.3444 104.435H26.354ZM15.0347 103.205C15.1605 103.108 15.2863 103.001 15.412 102.895C15.2959 103.011 15.1702 103.118 15.0347 103.205ZM15.9925 103.35C15.9925 103.35 15.9538 103.37 15.9345 103.379C16.1473 103.215 16.3311 103.03 16.4859 102.817C16.3698 103.021 16.1957 103.195 15.9925 103.341V103.35ZM18.1693 103.98C18.1693 103.98 18.1693 103.97 18.1693 103.961C18.1693 103.961 18.179 103.961 18.1887 103.97C18.1887 103.97 18.179 103.97 18.1693 103.98Z" fill="black"/>
<path d="M141.056 34.534C140.601 34.5437 140.156 34.5534 139.701 34.5534C139.663 34.5146 139.605 34.4856 139.537 34.4759C138.715 34.3887 137.902 34.4178 137.08 34.4468C137.041 34.3887 136.973 34.3596 136.876 34.3596C136.76 34.3596 136.644 34.3596 136.528 34.3596C134.206 34.2433 131.836 32.9934 130.365 31.1911C128.827 29.2919 128.421 26.7629 128.169 24.3792C128.14 23.1196 128.111 21.8502 128.044 20.5906C128.024 20.2127 127.473 20.2127 127.453 20.5906C127.328 22.8773 127.25 25.1641 127.25 27.4509C127.086 27.9838 126.921 28.5167 126.776 29.0497C126.641 29.5535 126.486 30.0477 126.215 30.4934C125.944 30.9391 125.576 31.317 125.189 31.6756C123.806 32.9449 121.978 33.7879 120.12 34.0205C119.569 34.0399 119.027 34.0592 118.475 34.0689C116.608 34.0205 114.722 34.1561 112.893 34.3596C112.583 34.3887 112.574 34.8247 112.893 34.8441C114.335 34.941 115.766 34.941 117.218 34.9216C118.533 34.9022 119.888 34.6212 121.184 34.9507C122.955 35.4061 124.532 36.3557 125.741 37.6832C125.934 37.9351 126.109 38.1967 126.254 38.4777C126.892 39.6502 127.066 40.9874 127.192 42.2955C127.211 42.4505 127.211 42.6055 127.231 42.7509C127.231 42.8381 127.231 42.9253 127.231 43.0125C127.231 43.061 127.241 43.0997 127.25 43.1482C127.289 43.7392 127.318 44.3303 127.347 44.9214C127.347 45.6384 127.328 46.3652 127.318 47.0822C127.318 47.0822 127.318 47.0919 127.318 47.1016C127.279 47.9155 127.279 48.7391 127.376 49.5434C127.424 49.931 127.956 49.9407 127.985 49.5434C128.053 48.7197 128.053 47.8961 128.063 47.0725C128.111 47.0144 128.15 46.9465 128.16 46.8593C128.247 45.9485 128.237 45.028 128.189 44.1075C128.266 43.2257 128.353 42.3342 128.411 41.4525C128.963 39.3595 130.056 37.4119 131.894 36.2103C132.494 35.8228 133.152 35.5321 133.848 35.3673C134.274 35.2608 134.709 35.2511 135.145 35.1832C135.512 35.1348 135.88 35.0573 136.257 35.0379C136.383 35.0379 136.518 35.0282 136.644 35.0185C136.925 35.0379 137.205 35.0573 137.496 35.0573C137.67 35.0573 137.834 35.0573 138.008 35.0573C139.044 35.1251 140.069 35.2026 141.114 34.9216C141.327 34.8635 141.288 34.5243 141.066 34.534H141.056ZM124.948 32.7802C125.131 32.6445 125.315 32.4895 125.489 32.3442C125.325 32.5089 125.151 32.6639 124.948 32.7802ZM126.312 32.9934C126.312 32.9934 126.263 33.0224 126.234 33.0418C126.534 32.8093 126.795 32.5476 127.018 32.2473C126.844 32.5379 126.612 32.7802 126.312 32.9934ZM129.408 33.8848C129.408 33.8848 129.408 33.8654 129.408 33.8557C129.417 33.8557 129.427 33.8654 129.437 33.8751L129.417 33.8848H129.408Z" fill="black"/>
<path d="M62.4883 68.2348C62.2271 68.2348 61.9659 68.2348 61.7144 68.2348C61.695 68.2154 61.666 68.196 61.6176 68.1863C61.1435 68.1379 60.6792 68.1573 60.2148 68.167C60.1954 68.1379 60.1567 68.1185 60.0987 68.1185C60.031 68.1185 59.9632 68.1185 59.8955 68.1185C58.5604 68.0507 57.206 67.3336 56.3643 66.2968C55.4839 65.2116 55.2517 63.7581 55.1066 62.3919C55.0872 61.6652 55.0776 60.9384 55.0389 60.2214C55.0292 60.0082 54.7099 60.0082 54.7003 60.2214C54.6229 61.5295 54.5842 62.8473 54.5842 64.1554C54.4874 64.4558 54.4003 64.7659 54.3133 65.0663C54.2359 65.3569 54.1488 65.6379 53.994 65.8996C53.8392 66.1515 53.6264 66.3744 53.4039 66.5778C52.6105 67.3046 51.5657 67.7891 50.5015 67.9247C50.1919 67.9247 49.8726 67.9441 49.5534 67.9538C48.4795 67.9247 47.3959 68.0022 46.3511 68.1185C46.1769 68.1379 46.1672 68.3801 46.3511 68.3995C47.1831 68.4576 47.9957 68.4576 48.8278 68.448C49.5824 68.4383 50.3563 68.2735 51.1013 68.4673C52.1171 68.729 53.0169 69.2716 53.7134 70.0371C53.8199 70.1824 53.9263 70.3374 54.0134 70.4925C54.381 71.1611 54.4777 71.9266 54.5455 72.6824C54.5455 72.7696 54.5551 72.8568 54.5648 72.944C54.5648 72.9924 54.5648 73.0409 54.5648 73.099C54.5648 73.1281 54.5648 73.1475 54.5745 73.1765C54.5938 73.5157 54.6132 73.8548 54.6325 74.1939C54.6325 74.6106 54.6229 75.0176 54.6132 75.4342C54.6132 75.4342 54.6132 75.4342 54.6132 75.4439C54.5938 75.909 54.5842 76.3838 54.6422 76.8392C54.6712 77.0621 54.9711 77.0718 54.9905 76.8392C55.0292 76.3644 55.0292 75.8993 55.0389 75.4245C55.0679 75.3955 55.0872 75.3567 55.0969 75.2986C55.1453 74.7753 55.1453 74.2424 55.1163 73.7192C55.155 73.2153 55.213 72.7017 55.242 72.1979C55.5613 70.9963 56.1805 69.882 57.235 69.1941C57.5833 68.9712 57.9509 68.8065 58.3573 68.7096C58.5991 68.6514 58.8507 68.6418 59.1022 68.603C59.315 68.5739 59.5279 68.5352 59.7407 68.5158C59.8181 68.5158 59.8858 68.5158 59.9632 68.5158C60.1277 68.5255 60.2825 68.5352 60.447 68.5449C60.5437 68.5449 60.6405 68.5449 60.7372 68.5449C61.3274 68.5836 61.9175 68.6321 62.5173 68.4673C62.6431 68.4383 62.6141 68.2445 62.4883 68.2445V68.2348ZM53.2587 67.2271C53.3652 67.1495 53.4716 67.0623 53.5683 66.9751C53.4716 67.072 53.3748 67.1592 53.2587 67.2271ZM54.0424 67.3433C54.0424 67.3433 54.0134 67.3627 53.994 67.3724C54.1682 67.2367 54.3133 67.0914 54.439 66.917C54.3423 67.0817 54.2068 67.2271 54.0327 67.3433H54.0424ZM55.8128 67.8569C55.8128 67.8569 55.8128 67.8472 55.8128 67.8375C55.8128 67.8375 55.8225 67.8375 55.8322 67.8375C55.8322 67.8375 55.8322 67.8375 55.8225 67.8375L55.8128 67.8569Z" fill="black"/>
<path d="M188.133 165.054C187.872 165.054 187.61 165.054 187.359 165.054C187.34 165.035 187.311 165.015 187.262 165.006C186.788 164.957 186.324 164.977 185.859 164.986C185.84 164.957 185.801 164.938 185.743 164.938C185.676 164.938 185.608 164.938 185.54 164.938C184.205 164.87 182.851 164.153 182.009 163.116C181.128 162.031 180.896 160.577 180.751 159.211C180.732 158.484 180.722 157.758 180.683 157.041C180.674 156.828 180.354 156.828 180.345 157.041C180.267 158.349 180.229 159.667 180.229 160.975C180.132 161.275 180.045 161.585 179.958 161.886C179.88 162.176 179.793 162.457 179.639 162.719C179.484 162.971 179.271 163.194 179.048 163.397C178.255 164.124 177.21 164.608 176.146 164.744C175.836 164.744 175.517 164.763 175.198 164.773C174.124 164.744 173.04 164.822 171.996 164.938C171.821 164.957 171.812 165.199 171.996 165.219C172.828 165.277 173.64 165.277 174.472 165.267C175.227 165.258 176.001 165.093 176.746 165.287C177.762 165.548 178.661 166.091 179.358 166.856C179.464 167.002 179.571 167.157 179.658 167.312C180.026 167.98 180.122 168.746 180.19 169.502C180.19 169.589 180.2 169.676 180.209 169.763C180.209 169.812 180.209 169.86 180.209 169.918C180.209 169.947 180.209 169.967 180.219 169.996C180.238 170.335 180.258 170.674 180.277 171.013C180.277 171.43 180.267 171.837 180.258 172.254C180.258 172.254 180.258 172.254 180.258 172.263C180.238 172.728 180.229 173.203 180.287 173.659C180.316 173.881 180.616 173.891 180.635 173.659C180.674 173.184 180.674 172.719 180.683 172.244C180.712 172.215 180.732 172.176 180.741 172.118C180.79 171.595 180.79 171.062 180.761 170.538C180.799 170.035 180.858 169.521 180.887 169.017C181.206 167.816 181.835 166.701 182.88 166.013C183.228 165.791 183.595 165.626 184.002 165.529C184.244 165.471 184.495 165.461 184.747 165.422C184.96 165.393 185.172 165.354 185.385 165.335C185.463 165.335 185.53 165.335 185.608 165.335C185.772 165.345 185.927 165.354 186.092 165.364C186.188 165.364 186.285 165.364 186.382 165.364C186.972 165.403 187.562 165.451 188.162 165.287C188.288 165.258 188.259 165.064 188.133 165.064V165.054ZM178.903 164.046C179.01 163.969 179.116 163.882 179.213 163.794C179.116 163.891 179.019 163.979 178.903 164.046ZM179.687 164.163C179.687 164.163 179.658 164.182 179.639 164.192C179.813 164.056 179.958 163.911 180.084 163.736C179.987 163.901 179.851 164.046 179.677 164.163H179.687ZM181.457 164.676C181.457 164.676 181.457 164.667 181.457 164.657C181.457 164.657 181.467 164.657 181.477 164.657C181.477 164.657 181.477 164.657 181.467 164.657L181.457 164.676Z" fill="black"/>
<path d="M69.8506 130.821C79.9799 125.453 111.771 108.874 117.546 104.93C123.322 100.996 142.759 80.4732 147.731 71.6846C152.714 62.896 165.02 46.2394 171.908 47.5282C178.787 48.8169 172.595 61.0356 171.869 63.739C171.144 66.4425 156.409 96.3352 154.31 99.8235C152.211 103.312 136.335 120.298 133.674 125.879" fill="#FFD7CE"/>
<path d="M144.993 136.421C148.998 129.106 157.29 113.389 160.511 107.895C163.723 102.391 169.992 78.7096 173.185 60.4639L151.224 90.2209L144.993 136.421Z" fill="#FFD7CE"/>
<path d="M164.034 98.709C163.898 111.422 158.229 131.315 157.203 135.094C156.178 138.873 150.17 149.987 150.17 149.987" fill="black"/>
<path d="M168.048 83.8642C172.411 94.9007 172.421 111.993 172.237 121.218C172.063 130.443 166.277 142.196 160.763 150.839C155.248 159.483 147.063 174.356 143.184 181.42C139.304 188.484 123.08 193.929 118.291 196.691C113.493 199.443 94.0949 208.096 75.0456 222.911C55.9963 237.737 30.8229 250.605 28.1043 251.031C17.8879 250.285 -6.09546 215.974 2.94064 200.751C11.8219 196.788 22.6091 188.988 32.2741 172.496C41.939 155.994 50.1818 125.501 62.3525 112.575C74.5231 99.6487 89.6349 60.8705 92.3148 55.2311C96.62 53.2157 102.173 63.6999 101.893 67.9634C101.602 72.2268 98.1389 85.2013 92.5953 97.0228C87.5258 107.836 84.6041 123.059 84.6041 123.059" fill="#FFD7CE"/>
<path d="M69.8509 131.79C69.5026 131.79 69.164 131.606 68.9995 131.276C68.748 130.801 68.9318 130.22 69.4058 129.968C70.9731 129.135 73.0628 128.04 75.4912 126.761C88.31 120.007 112.168 107.44 117.005 104.135C122.607 100.318 142.043 79.7852 146.89 71.2195C151.795 62.5666 164.391 45.1542 172.083 46.5883C173.592 46.8693 174.704 47.6251 175.372 48.8266C177.268 52.2277 174.917 58.3516 173.514 62.0143C173.185 62.867 172.905 63.6034 172.799 64.0104C171.996 66.9851 157.01 97.217 155.133 100.347C154.262 101.781 151.427 105.114 147.828 109.319C142.604 115.434 136.103 123.04 134.545 126.315C134.313 126.8 133.742 127.003 133.258 126.771C132.775 126.538 132.571 125.957 132.804 125.482C134.477 121.974 140.795 114.581 146.367 108.06C149.628 104.252 152.704 100.647 153.488 99.3487C155.549 95.9186 170.254 66.0743 170.951 63.5065C171.086 63.0027 171.367 62.2566 171.734 61.3263C172.934 58.2063 175.169 52.3924 173.708 49.7762C173.331 49.0883 172.692 48.6716 171.754 48.4972C166.084 47.4507 154.465 61.8205 148.602 72.1788C143.533 81.1224 123.98 101.752 118.118 105.744C113.193 109.106 90.1676 121.228 76.4103 128.476C73.9819 129.755 71.8922 130.86 70.3249 131.683C70.1798 131.761 70.025 131.8 69.8702 131.8L69.8509 131.79Z" fill="black"/>
<path d="M144.984 137.39C144.829 137.39 144.665 137.352 144.52 137.274C144.055 137.012 143.881 136.431 144.133 135.956C145.516 133.418 147.422 129.871 149.454 126.092C153.246 119.028 157.552 111.015 159.661 107.401C162.563 102.44 167.4 83.5931 170.902 63.5839C170.999 63.0607 171.502 62.7021 172.025 62.799C172.547 62.8959 172.905 63.3901 172.808 63.923C169.8 81.1126 164.749 102.536 161.334 108.389C159.245 111.965 154.949 119.959 151.166 127.013C149.135 130.801 147.229 134.348 145.836 136.886C145.661 137.206 145.332 137.39 144.984 137.39Z" fill="black"/>
<path d="M150.169 150.965C150.014 150.965 149.86 150.927 149.705 150.849C149.231 150.597 149.057 150.006 149.318 149.531C149.376 149.425 155.287 138.475 156.274 134.842L156.506 133.979C160.773 118.408 162.978 106.538 163.065 98.6991C163.065 98.1662 163.539 97.7205 164.043 97.7399C164.575 97.7399 165.01 98.1856 165 98.7185C164.913 106.722 162.688 118.757 158.373 134.493L158.141 135.346C157.106 139.192 151.272 149.987 151.021 150.452C150.846 150.772 150.517 150.956 150.169 150.956V150.965Z" fill="black"/>
<path d="M28.1436 252H28.0372C21.4487 251.516 11.571 239.84 5.82423 228.822C-0.31915 217.03 -1.6736 206.623 2.0995 200.247L2.2543 199.986L2.53486 199.86C13.8251 194.821 23.5481 185.442 31.4233 171.992C35.177 165.587 38.6792 157.119 42.3943 148.165C48.1507 134.261 54.1103 119.881 61.6371 111.897C71.6116 101.306 83.821 72.5857 89.0356 60.3282C90.1579 57.6926 90.9706 55.7838 91.435 54.7954L91.5801 54.4853L91.8993 54.34C92.8281 53.904 94.318 53.6617 96.2142 54.9601C99.9099 57.4892 103.083 64.4657 102.841 68.0122C102.541 72.4888 99.0199 85.5408 93.4473 97.4107C88.4842 107.982 85.5625 123.069 85.5334 123.214C85.4367 123.738 84.9239 124.086 84.4015 123.98C83.8791 123.883 83.5308 123.369 83.6372 122.846C83.6662 122.691 86.6363 107.381 91.7058 96.5774C97.3655 84.5137 100.665 71.6749 100.916 67.8668C101.11 64.9599 98.1491 58.6132 95.121 56.5396C94.0955 55.8419 93.4086 55.8516 93.0216 55.9582C92.5572 56.9853 91.8026 58.7391 90.8158 61.0647C85.5625 73.419 73.2563 102.362 63.0496 113.205C55.7743 120.937 49.8825 135.142 44.1841 148.892C40.4497 157.913 36.9185 166.43 33.097 172.961C25.0767 186.653 15.1602 196.246 3.60875 201.488C0.367748 207.302 1.78992 216.904 7.52697 227.912C13.5349 239.442 22.8903 249.51 28.0372 250.033C30.7848 249.384 55.2132 237.088 74.4366 222.127C89.7903 210.179 105.144 202.34 113.396 198.135C115.331 197.147 116.87 196.362 117.798 195.829C119.056 195.102 121.039 194.22 123.342 193.193C129.814 190.296 139.595 185.926 142.333 180.936C145.922 174.395 154.339 159.086 159.941 150.307C163.279 145.084 171.067 131.78 171.27 121.189C171.396 114.93 171.763 95.8894 167.149 84.2133C166.955 83.7192 167.197 83.1572 167.69 82.9537C168.184 82.7599 168.745 83.0021 168.948 83.4963C173.708 95.5309 173.331 114.872 173.215 121.218C173.002 132.303 165.01 145.975 161.586 151.344C156.013 160.064 147.625 175.345 144.046 181.866C140.988 187.428 131.256 191.779 124.145 194.957C121.891 195.965 119.956 196.837 118.785 197.505C117.818 198.067 116.27 198.852 114.306 199.86C106.111 204.036 90.8641 211.817 75.6556 223.658C56.3257 238.696 31.1427 251.525 28.2694 251.971L28.1629 251.99L28.1436 252Z" fill="black"/>
<path d="M169.277 64.4463C168.9 64.4463 168.522 64.3494 168.193 64.1653L163.549 61.5781C163.017 61.2874 162.64 60.8029 162.476 60.2119C162.311 59.6305 162.398 59.02 162.698 58.4871L166.694 51.5977C167.671 49.9117 169.451 48.8652 171.338 48.8652C171.86 48.8652 172.382 48.9524 172.886 49.1075C174.25 49.5532 175.072 50.4931 175.178 51.7528C175.382 53.9911 173.185 59.1945 171.299 63.1575C170.931 63.9327 170.138 64.4366 169.277 64.4366V64.4463Z" fill="black"/>
<path d="M171.337 49.8344C171.753 49.8344 172.169 49.9022 172.576 50.0281C173.437 50.3091 174.124 50.8518 174.211 51.8401C174.414 54.0397 171.666 60.1248 170.418 62.741C170.196 63.2061 169.741 63.4678 169.267 63.4678C169.054 63.4678 168.851 63.4193 168.648 63.303L164.004 60.7159C163.385 60.3671 163.162 59.5822 163.52 58.962L167.516 52.0727C168.319 50.687 169.789 49.8247 171.318 49.8247M171.318 47.8867C169.093 47.8867 166.994 49.1173 165.842 51.1037L161.847 57.9931C161.411 58.7489 161.295 59.6209 161.527 60.4543C161.76 61.2876 162.301 61.9852 163.066 62.4116L167.709 64.9987C168.183 65.2604 168.725 65.4057 169.267 65.4057C170.496 65.4057 171.637 64.6887 172.16 63.5743C174.975 57.6442 176.31 53.6424 176.126 51.6657C175.981 50.0185 174.898 48.7588 173.166 48.1871C172.566 47.9933 171.947 47.8964 171.318 47.8964V47.8867Z" fill="black"/>
<path d="M89.8574 69.5138C89.1705 69.5138 88.474 69.2522 87.9419 68.7871L86.8486 67.8278L92.9049 53.5452C93.1855 52.8863 93.824 52.46 94.54 52.46C94.9366 52.46 95.3139 52.5859 95.6332 52.8379C96.62 53.6033 96.9973 54.9115 96.5716 56.0936L92.3148 67.8666C92.0729 68.3801 91.7633 68.7483 91.386 69.0293C90.9507 69.3491 90.4282 69.5138 89.8671 69.5138H89.8574Z" fill="black"/>
<path d="M94.5406 53.4292C94.7147 53.4292 94.8889 53.4873 95.034 53.6036C95.6822 54.1171 95.9337 54.9795 95.6532 55.7644L91.3963 67.5373C91.2609 67.828 91.0577 68.0703 90.8062 68.2447C90.5256 68.4482 90.187 68.5451 89.8581 68.5451C89.4033 68.5451 88.9293 68.3707 88.5713 68.0509L88.0005 67.5567L93.7763 53.9233C93.9117 53.6036 94.2116 53.4292 94.5212 53.4292M94.5212 51.4912C93.4183 51.4912 92.4218 52.1501 91.9961 53.1675L86.2204 66.8009L85.6689 68.0994L86.7332 69.0199L87.304 69.514C88.0199 70.1342 88.9293 70.483 89.8581 70.483C90.6223 70.483 91.3383 70.2505 91.9478 69.8144C92.4605 69.4462 92.8765 68.9424 93.1474 68.3707L93.1861 68.2835L93.2151 68.1962L97.472 56.4233C98.0428 54.8535 97.5397 53.1094 96.224 52.0823C95.7402 51.7044 95.1404 51.5009 94.5406 51.5009L94.5212 51.4912Z" fill="black"/>
</g>
<defs>
<clipPath id="clip0_286_4650">
<rect width="223" height="252" fill="white"/>
</clipPath>
</defs>
</svg>
