<svg width="220" height="228" viewBox="0 0 220 228" fill="none" xmlns="http://www.w3.org/2000/svg">
<g clip-path="url(#clip0_216_1196)">
<path d="M219.981 65.6749C219.961 64.284 219.929 62.8919 219.897 61.501C219.882 60.8163 219.347 60.311 218.671 60.2781C208.703 59.7955 198.675 60.6676 188.929 62.8056C179.189 64.9426 169.725 68.3705 160.883 72.9702C152.663 77.2463 144.999 82.5773 138.091 88.7417C137.802 88.9983 137.518 89.2594 137.233 89.5183C136.918 86.4492 136.484 83.3925 136.04 80.3404C135.514 76.7263 134.937 73.1428 134.69 69.4969C134.267 63.2212 134.527 56.9274 134.272 50.6472C133.988 43.6369 132.966 36.6766 130.731 30.0069C129.436 26.1418 127.832 22.3199 125.825 18.7659C124.087 15.6854 122.02 12.7968 119.779 10.0615C117.114 6.80844 114.18 3.68367 110.948 0.976746C110.896 0.932463 110.843 0.88818 110.791 0.845033C110.275 0.421509 109.568 0.346569 109.057 0.845033C103.479 6.28613 98.3958 12.22 93.8443 18.5388C89.3361 24.7974 85.3677 31.4421 81.9879 38.3718C78.5763 45.3673 75.7477 52.6513 73.5728 60.1226C71.3409 67.788 69.8047 75.6544 68.9917 83.5958C68.0602 92.7056 68.1559 101.919 69.5576 110.976C69.61 111.318 69.6658 111.659 69.7228 112C63.1854 109.461 56.4111 107.533 49.5059 106.269C35.1318 103.637 20.2874 103.759 5.97026 106.699C4.26446 107.049 2.5689 107.441 0.881312 107.871C0.198078 108.044 -0.091157 108.734 0.0249927 109.375C2.02231 120.449 4.27698 131.966 11.5067 140.976C18.1409 149.245 27.754 154.282 35.519 161.334C39.6833 165.115 42.9822 169.568 46.0487 174.252C49.1882 179.048 52.1671 183.97 55.8816 188.358C62.8312 196.57 72.4773 202.501 82.9217 205.117C85.5829 205.783 88.2987 206.137 90.993 206.637C93.5243 207.107 96.0443 207.648 98.5905 208.037C103.378 208.769 108.151 208.751 112.705 206.916C113.613 206.551 114.497 206.14 115.363 205.688C115.529 206.059 115.692 206.433 115.851 206.808C117.004 209.555 117.975 212.377 118.774 215.246C119.401 217.493 119.923 219.77 120.333 222.066C120.484 222.907 120.618 223.752 120.734 224.599C120.805 225.132 120.868 225.668 120.914 226.204C120.946 226.572 121.034 226.947 121.319 227.203C122.041 227.854 123.412 227.375 123.375 226.333C123.375 226.322 123.376 226.312 123.375 226.302C123.378 225.637 123.385 224.97 123.392 224.305C123.411 222.546 123.44 220.786 123.474 219.027C123.523 216.505 123.585 213.983 123.663 211.463C123.754 208.49 123.866 205.519 124.006 202.548C124.149 199.494 124.321 196.442 124.542 193.392C124.56 193.134 124.58 192.878 124.599 192.62C125.294 191.177 125.915 189.701 126.45 188.186C127.443 185.372 128.06 182.442 128.277 179.478C130.442 179.93 132.663 180.116 134.87 179.928C137.316 179.719 139.692 179.124 142.004 178.32C144.533 177.44 146.99 176.365 149.467 175.353C152.061 174.294 154.718 173.385 157.265 172.212C166.404 168.007 174.27 161.055 179.597 152.544C185.567 143.003 187.663 131.611 193.767 122.142C199.308 113.549 207.397 106.946 212.946 98.3544C215.957 93.69 217.915 88.5044 218.9 83.0496C219.935 77.319 220.063 71.4805 219.981 65.6727V65.6749ZM215.893 85.4069C215.855 85.4103 215.817 85.4159 215.78 85.4193C215.369 85.4602 214.957 85.4943 214.543 85.5193C213.71 85.5715 212.875 85.5931 212.039 85.5851C211.195 85.5772 210.353 85.5374 209.512 85.4682C209.1 85.4341 208.688 85.3932 208.277 85.3444C208.174 85.3319 208.072 85.3194 207.968 85.3069C207.92 85.3013 207.874 85.2944 207.826 85.2888C207.809 85.2865 207.791 85.2842 207.773 85.2819C207.766 85.2819 207.747 85.2785 207.735 85.2763C207.522 85.2467 207.309 85.2161 207.097 85.1832C205.445 84.9254 203.812 84.5518 202.213 84.0636C201.414 83.8195 200.623 83.547 199.845 83.2472C199.644 83.17 199.445 83.0905 199.246 83.0099C199.157 82.9736 199.069 82.9372 198.981 82.9009C198.963 82.893 198.944 82.885 198.926 82.8782C198.922 82.8771 198.92 82.8759 198.915 82.8736C198.857 82.8487 198.798 82.8237 198.74 82.7987C198.36 82.6352 197.983 82.4649 197.609 82.2889C196.094 81.5713 194.631 80.7424 193.241 79.8068C193.533 79.5524 193.824 79.2981 194.118 79.046C196.918 76.6502 199.825 74.3907 202.81 72.2401C204.742 73.0361 206.767 73.5516 208.846 73.7934C211.001 74.0432 213.182 73.9774 215.322 73.6288C216.044 73.5107 216.76 73.3585 217.467 73.1723C217.306 77.3111 216.874 81.4305 215.89 85.408L215.893 85.4069ZM192.96 73.195C193.145 70.9979 193.504 68.8428 194.048 66.6741C194.26 65.8282 194.502 64.9891 194.767 64.158C197.402 63.7106 200.053 63.3575 202.713 63.1009C201.917 65.2321 201.408 67.4667 201.496 69.758C201.523 70.4688 201.605 71.1807 201.744 71.8791C199.802 73.2904 197.895 74.7472 196.03 76.2619C194.962 77.1294 193.91 78.0162 192.87 78.9177C192.771 77.0102 192.799 75.0969 192.961 73.1939L192.96 73.195ZM217.503 72.2129C216.858 72.3911 216.206 72.5422 215.549 72.6625C215.287 72.7113 215.024 72.7545 214.76 72.7931C214.693 72.8033 214.627 72.8124 214.561 72.8215C214.535 72.8249 214.51 72.8283 214.484 72.8317C214.481 72.8317 214.473 72.8328 214.46 72.8351C214.32 72.8533 214.179 72.8703 214.038 72.8862C213.516 72.9441 212.991 72.9838 212.467 73.0066C211.419 73.0508 210.366 73.0247 209.321 72.9248C209.056 72.8998 208.79 72.8703 208.526 72.8351C208.52 72.8351 208.516 72.834 208.513 72.8328C208.484 72.8294 208.454 72.8249 208.426 72.8203C208.36 72.8113 208.294 72.801 208.228 72.792C208.096 72.7727 207.965 72.7511 207.833 72.7295C207.308 72.6409 206.785 72.5342 206.268 72.4082C205.702 72.2708 205.142 72.1107 204.588 71.9279C204.304 71.8336 204.021 71.7337 203.741 71.6281C203.724 71.6213 203.708 71.6145 203.691 71.6088C207.627 68.8145 211.693 66.2029 215.833 63.714C216.379 63.3858 216.927 63.06 217.474 62.7364C217.545 65.8657 217.596 69.0415 217.504 72.2106L217.503 72.2129ZM215.075 62.6058C215.343 62.6103 215.609 62.616 215.877 62.6228C211.332 65.3445 206.868 68.2024 202.566 71.2863C202.495 70.8662 202.451 70.4552 202.426 69.9999C202.387 69.3175 202.401 68.6316 202.462 67.9504C202.494 67.6029 202.526 67.3452 202.58 67.0193C202.633 66.6889 202.699 66.3607 202.773 66.0349C202.924 65.3763 203.112 64.7257 203.328 64.0853C203.449 63.7276 203.58 63.3734 203.717 63.0214C203.718 63.018 203.721 63.0134 203.722 63.01C207.494 62.6807 211.284 62.5445 215.074 62.6069L215.075 62.6058ZM193.747 64.3362C193.245 65.9713 192.843 67.637 192.545 69.322C192.151 71.5577 191.93 73.8252 191.896 76.095C191.878 77.2906 191.913 78.4863 191.998 79.6785C188.534 82.7351 185.231 85.9746 182.085 89.3571C181.776 86.456 181.655 83.5356 181.724 80.6186C181.8 77.3712 182.11 74.1454 182.651 70.9764C182.898 69.5309 183.193 68.0934 183.535 66.6673C184.414 66.4232 185.296 66.1893 186.181 65.9667C188.684 65.3354 191.208 64.7927 193.748 64.3374L193.747 64.3362ZM199.008 111.518C197.41 111.367 195.85 111.09 194.267 110.667C192.387 110.165 190.633 109.497 188.921 108.654C187.255 107.835 185.662 106.876 184.131 105.828C182.583 104.767 181.185 103.685 179.747 102.497C178.303 101.302 176.898 100.062 175.503 98.8109C175.433 98.7473 175.361 98.6837 175.29 98.619C177.392 95.995 179.581 93.4322 181.855 90.9467C183.358 92.072 184.928 93.1064 186.556 94.0442C188.283 95.0389 190.074 95.9257 191.912 96.7001C193.773 97.4847 195.678 98.1614 197.619 98.7166C199.538 99.2651 201.491 99.6977 203.463 100.01C205.109 100.271 206.766 100.45 208.429 100.547C205.531 104.378 202.205 107.902 199.009 111.518H199.008ZM186.66 119.891C188.191 120.487 189.744 121.025 191.316 121.504C189.883 123.839 188.637 126.271 187.508 128.773C185.953 128.375 184.433 127.844 182.941 127.256C181.156 126.552 179.411 125.786 177.645 124.968C175.9 124.16 174.174 123.308 172.471 122.414C170.759 121.515 169.072 120.575 167.407 119.593C165.743 118.611 164.103 117.588 162.49 116.525C162.43 116.485 162.37 116.446 162.31 116.406C164.178 113.851 165.993 111.257 167.821 108.673C169.13 109.783 170.479 110.844 171.868 111.849C173.38 112.942 174.937 113.97 176.536 114.931C178.135 115.892 179.775 116.784 181.45 117.606C183.152 118.442 184.892 119.204 186.66 119.892V119.891ZM180.254 146.258C178.427 145.907 176.618 145.477 174.833 144.957C173.758 144.645 172.692 144.301 171.637 143.926C171.11 143.739 170.585 143.543 170.062 143.341C169.805 143.241 169.548 143.139 169.292 143.036C169.167 142.986 169.043 142.935 168.919 142.884C168.858 142.857 168.795 142.832 168.734 142.806C168.703 142.794 168.672 142.78 168.64 142.768C168.632 142.764 168.6 142.751 168.583 142.744C166.497 141.863 164.462 140.86 162.488 139.753C160.436 138.603 158.449 137.34 156.526 135.987C154.502 134.562 152.576 133.06 150.685 131.459C150.549 131.344 150.414 131.227 150.278 131.111C151.76 129.373 153.266 127.656 154.756 125.924C156.316 127.254 157.951 128.497 159.651 129.642C161.464 130.862 163.351 131.973 165.298 132.968C167.258 133.969 169.279 134.854 171.343 135.618C173.394 136.377 175.491 137.016 177.618 137.525C179.566 137.992 181.541 138.349 183.529 138.599C182.514 141.186 181.466 143.757 180.254 146.258ZM161.999 166.846C160.521 165.907 159.064 164.934 157.634 163.922C156.767 163.309 155.908 162.682 155.06 162.043C154.221 161.411 153.436 160.801 152.597 160.128C150.946 158.803 149.334 157.429 147.766 156.007C146.191 154.581 144.661 153.106 143.175 151.588C141.696 150.074 140.262 148.518 138.877 146.918C138.786 146.812 138.695 146.705 138.604 146.6C139.251 145.626 139.908 144.658 140.574 143.698C140.694 143.526 140.814 143.356 140.934 143.184C142.381 144.728 143.881 146.222 145.436 147.657C147.115 149.206 148.854 150.69 150.647 152.105C152.466 153.539 154.337 154.906 156.26 156.196C158.164 157.473 160.118 158.678 162.115 159.804C163.921 160.823 165.764 161.777 167.638 162.667C165.862 164.187 163.978 165.585 161.998 166.847L161.999 166.846ZM127.171 166.993C126.969 165.913 126.748 164.835 126.489 163.771C127.116 163.743 127.742 163.698 128.366 163.634C127.94 164.732 127.543 165.844 127.179 166.968C127.177 166.976 127.174 166.985 127.171 166.993ZM118.155 198.825C118.112 198.876 118.072 198.932 118.04 198.992C118.038 198.995 118.036 198.999 118.035 199.002C118.03 199.01 118.025 199.018 118.019 199.026C117.294 200.093 116.54 201.14 115.767 202.172C114.312 198.274 112.405 194.588 110.169 191.102C112.27 190.888 114.35 190.485 116.378 189.899C118.658 189.24 120.875 188.353 122.987 187.272C123.476 187.021 123.96 186.756 124.438 186.484C123.027 190.893 120.744 194.993 118.156 198.825H118.155ZM77.8772 200.955C75.6862 200.116 73.5557 199.125 71.5037 197.991C72.9351 196.914 74.3357 195.795 75.6999 194.634C77.4467 193.149 79.1343 191.596 80.7604 189.979C82.3865 188.363 83.9488 186.684 85.444 184.946C86.9596 183.186 88.4058 181.366 89.7802 179.494C91.1364 177.647 92.4198 175.747 93.6257 173.8C93.6724 173.725 93.7179 173.649 93.7646 173.574C94.6551 174.419 95.5353 175.272 96.4076 176.136C96.5146 176.242 96.6205 176.349 96.7276 176.454C95.754 178.204 94.7325 179.928 93.6598 181.62C92.5234 183.411 91.3334 185.168 90.0911 186.888C89.4728 187.744 88.8408 188.592 88.1963 189.429C88.0311 189.644 87.923 189.783 87.7476 190.007C87.5836 190.217 87.4185 190.426 87.2534 190.635C86.922 191.052 86.5872 191.466 86.2502 191.878C84.9053 193.52 83.5104 195.121 82.0699 196.679C80.7137 198.144 79.3154 199.57 77.8783 200.956L77.8772 200.955ZM56.3337 184.236C56.3268 184.238 56.3189 184.242 56.3075 184.247C56.2802 184.258 56.254 184.27 56.2266 184.281C56.1594 184.309 56.0923 184.337 56.0251 184.365C55.9704 184.388 55.9158 184.411 55.86 184.432C54.1712 182.227 52.6203 179.919 51.1012 177.585C52.7524 177.027 54.3762 176.389 55.967 175.675C57.9598 174.783 59.8967 173.77 61.7676 172.647C63.6602 171.511 65.4799 170.258 67.2244 168.907C68.9496 167.572 70.595 166.133 72.1471 164.601C73.6992 163.07 75.1567 161.445 76.5095 159.736C76.5893 159.636 76.6667 159.534 76.7453 159.433C78.5513 160.835 80.3755 162.216 82.1804 163.619C82.1758 163.625 82.1713 163.631 82.1667 163.636C82.0654 163.766 81.964 163.896 81.8615 164.026C81.6691 164.27 81.4755 164.514 81.2797 164.756C80.8845 165.247 80.4837 165.735 80.0772 166.217C79.2846 167.161 78.4704 168.086 77.6357 168.992C76.0324 170.732 74.3483 172.397 72.5787 173.968C71.7269 174.723 70.8558 175.455 69.9642 176.164C69.4905 176.54 69.1602 176.795 68.6786 177.156C68.2276 177.493 67.7733 177.824 67.3132 178.148C65.4935 179.432 63.5998 180.611 61.6447 181.677C60.6619 182.213 59.6644 182.72 58.6532 183.198C58.1442 183.439 57.6318 183.671 57.1171 183.897C56.8655 184.007 56.6115 184.116 56.3587 184.224C56.3485 184.229 56.3405 184.232 56.3348 184.235L56.3337 184.236ZM66.5229 168.298C66.5298 168.293 66.5332 168.29 66.5229 168.298V168.298ZM40.0795 162.367C41.3173 161.696 42.5335 160.985 43.7246 160.234C45.3063 159.239 46.8447 158.175 48.3364 157.048C49.8464 155.907 51.3085 154.706 52.7171 153.442C54.1075 152.194 55.4443 150.886 56.722 149.525C57.9996 148.163 59.2192 146.746 60.375 145.279C60.416 145.227 60.457 145.174 60.498 145.122C62.8084 147.287 65.1075 149.463 67.4487 151.595C66.1904 152.854 64.906 154.087 63.5907 155.287C62.1628 156.592 60.7018 157.861 59.2101 159.094C57.7161 160.329 56.2312 161.495 54.695 162.638C53.1475 163.791 51.5727 164.909 49.9648 165.979C48.4469 166.989 46.8868 167.945 45.2459 168.745C43.6597 166.517 41.971 164.365 40.0795 162.367ZM62.9143 128.152C62.8938 125.697 62.5579 123.246 61.8792 120.885C61.2461 118.682 60.326 116.563 59.2089 114.561C58.38 113.077 57.4416 111.657 56.4327 110.29C60.8054 111.414 65.1064 112.808 69.306 114.46C70.0359 116.472 70.6303 118.531 71.0847 120.623C71.6233 123.105 71.9649 125.628 72.1107 128.164C72.2576 130.719 72.2097 133.286 71.9672 135.835C71.7258 138.375 71.284 140.894 70.652 143.366C70.0222 145.824 69.2069 148.241 68.1923 150.568C68.1422 150.683 68.0898 150.797 68.0386 150.91C67.221 150.171 66.4091 149.425 65.6029 148.673C63.9825 147.162 62.3769 145.637 60.7633 144.119C60.7542 144.11 60.7451 144.101 60.7348 144.093C60.5253 143.896 60.3158 143.7 60.1063 143.505C60.9011 141.026 61.6025 138.515 62.1081 135.961C62.616 133.392 62.9348 130.773 62.9132 128.152H62.9143ZM71.2828 144.573C71.982 142.057 72.4751 139.486 72.7768 136.893C73.0763 134.317 73.1776 131.719 73.0774 129.126C72.9772 126.53 72.6777 123.938 72.1801 121.387C71.752 119.192 71.1724 117.028 70.4424 114.914C74.2708 116.469 78.0127 118.242 81.6418 120.223C81.9595 120.397 82.2749 120.572 82.5903 120.748C82.7976 123.035 82.6666 125.357 82.5391 127.641C82.3933 130.266 82.1553 132.888 81.8228 135.496C81.4994 138.04 81.0804 140.571 80.5702 143.083C80.0646 145.581 79.4668 148.06 78.7767 150.514C78.0935 152.941 77.3203 155.344 76.4538 157.713C76.4219 157.8 76.3888 157.889 76.3558 157.976C73.7493 155.919 71.2213 153.768 68.7503 151.552C69.7683 149.292 70.6178 146.959 71.2805 144.572L71.2828 144.573ZM120.128 109.137C117.71 112.65 115.495 116.304 113.5 120.072C110.293 120.469 107.076 120.781 103.853 121.006C100.953 121.208 98.0496 121.339 95.1447 121.402C95.0491 118.437 94.9682 115.473 94.909 112.508C97.0339 112.482 99.1564 112.37 101.273 112.181C104.742 111.87 108.192 111.351 111.606 110.662C114.641 110.048 117.646 109.298 120.619 108.437C120.456 108.671 120.291 108.903 120.129 109.138L120.128 109.137ZM122.75 131.539C124.409 133.124 126.169 134.602 128.014 135.967C129.845 137.323 131.761 138.562 133.751 139.674C135.748 140.789 137.817 141.772 139.941 142.622C140.008 142.65 140.076 142.675 140.144 142.702C139.269 143.943 138.407 145.195 137.566 146.462C137.528 146.458 137.49 146.453 137.453 146.448C137.358 146.435 137.415 146.443 137.436 146.445C137.405 146.441 137.374 146.438 137.342 146.433C137.265 146.423 137.188 146.411 137.11 146.4C136.855 146.364 136.6 146.325 136.345 146.284C135.828 146.202 135.312 146.112 134.797 146.012C133.769 145.813 132.746 145.581 131.732 145.317C129.703 144.788 127.709 144.128 125.763 143.347C124.838 142.976 123.902 142.564 122.95 142.109C122.004 141.657 121.072 141.175 120.156 140.665C118.331 139.647 116.571 138.517 114.889 137.279C114.682 137.126 114.475 136.971 114.27 136.816C114.219 136.778 114.171 136.74 114.12 136.702C114.109 136.694 114.103 136.689 114.096 136.684C114.093 136.682 114.091 136.679 114.084 136.674C114.059 136.654 114.035 136.635 114.01 136.616C113.905 136.534 113.8 136.452 113.696 136.371C113.285 136.047 112.878 135.715 112.478 135.379C111.768 134.781 111.074 134.161 110.4 133.522C111.268 130.395 112.582 127.378 113.999 124.476C114.348 123.76 114.708 123.049 115.072 122.342C116.025 123.789 117.05 125.187 118.14 126.535C119.566 128.3 121.106 129.971 122.747 131.539H122.75ZM121.74 158.018C121.348 158.577 120.947 159.127 120.531 159.669C120.495 159.717 120.459 159.764 120.422 159.812C120.366 159.885 120.399 159.842 120.412 159.826C120.394 159.849 120.375 159.873 120.356 159.897C120.273 160.004 120.19 160.11 120.106 160.215C119.938 160.426 119.768 160.636 119.597 160.845C119.267 161.245 118.933 161.64 118.592 162.03C117.212 163.606 115.731 165.094 114.161 166.483C113.379 167.175 112.575 167.843 111.752 168.486C111.698 168.528 111.645 168.569 111.591 168.611C111.587 168.614 111.571 168.627 111.562 168.633C111.543 168.648 111.524 168.662 111.506 168.677C111.399 168.758 111.291 168.841 111.182 168.922C110.979 169.075 110.773 169.227 110.566 169.378C110.142 169.688 109.711 169.991 109.276 170.288C107.544 171.469 105.738 172.542 103.87 173.494C102.939 173.969 101.994 174.414 101.035 174.827C100.918 174.878 100.801 174.928 100.683 174.977C100.68 174.978 100.68 174.978 100.678 174.979C100.674 174.981 100.673 174.982 100.669 174.983C100.635 174.998 100.599 175.012 100.565 175.026C100.502 175.052 100.44 175.078 100.377 175.103C100.135 175.203 99.8898 175.301 99.645 175.397C99.1553 175.589 98.6634 175.773 98.168 175.949C98.0086 176.006 97.8481 176.06 97.6875 176.115C97.6784 176.106 97.6681 176.096 97.659 176.086C97.6397 176.062 97.6169 176.039 97.5919 176.02C96.5522 174.982 95.4989 173.956 94.4342 172.945C96.1981 171.797 97.8913 170.544 99.506 169.197C101.245 167.745 102.89 166.182 104.43 164.522C105.991 162.838 107.445 161.053 108.782 159.188C110.105 157.341 111.31 155.412 112.386 153.413C113.342 151.638 114.193 149.808 114.939 147.935C117.521 151.084 119.907 154.423 121.738 158.017L121.74 158.018ZM114.038 147.733C113.936 147.99 113.831 148.246 113.724 148.502C113.709 148.536 113.696 148.571 113.681 148.605C113.68 148.608 113.674 148.621 113.669 148.631C113.644 148.689 113.619 148.748 113.595 148.806C113.54 148.937 113.483 149.067 113.426 149.198C112.971 150.233 112.483 151.253 111.963 152.257C110.924 154.259 109.756 156.193 108.47 158.046C108.153 158.503 107.831 158.954 107.501 159.399C107.331 159.628 107.161 159.855 106.987 160.081C106.823 160.295 106.702 160.452 106.507 160.699C105.809 161.581 105.082 162.441 104.33 163.276C102.825 164.949 101.215 166.527 99.5117 167.996C99.0802 168.369 98.6429 168.733 98.1999 169.092C97.9836 169.267 97.7672 169.44 97.5486 169.61C97.4951 169.652 97.4427 169.693 97.3892 169.735C97.3652 169.753 97.3413 169.771 97.3186 169.79C97.3117 169.796 97.3083 169.798 97.3026 169.803C97.3003 169.805 97.2946 169.809 97.2867 169.815C97.1739 169.902 97.0601 169.988 96.9462 170.074C96.0432 170.757 95.1174 171.41 94.1711 172.031C94.0322 172.121 93.8933 172.21 93.7532 172.3C92.4892 171.112 91.2059 169.946 89.9021 168.801C91.4029 167.139 92.8388 165.42 94.2064 163.648C95.6685 161.754 97.0498 159.798 98.3423 157.785C99.629 155.781 100.827 153.719 101.924 151.606C103.029 149.476 104.03 147.293 104.921 145.064C105.695 143.122 106.381 141.145 106.966 139.138C108.344 140.512 109.686 141.922 110.991 143.368C112.097 144.595 113.2 145.847 114.276 147.131C114.199 147.332 114.122 147.532 114.042 147.732L114.038 147.733ZM107.575 134.778C107.483 135.206 107.401 135.635 107.327 136.066C106.303 135.078 105.259 134.11 104.199 133.162C105.496 132.982 106.788 132.779 108.077 132.55C108.098 132.546 108.117 132.542 108.138 132.538C107.926 133.279 107.738 134.025 107.575 134.778ZM97.7205 122.049C101.38 121.919 105.036 121.676 108.681 121.324C110.153 121.182 111.624 121.02 113.093 120.841C111.271 124.346 109.535 127.976 108.368 131.766C106.86 132.041 105.347 132.287 103.829 132.494C103.718 132.509 103.608 132.523 103.497 132.537C100.869 130.227 98.1327 128.039 95.3019 125.979C95.2552 124.694 95.2108 123.407 95.1686 122.121C96.0193 122.102 96.871 122.079 97.7217 122.048L97.7205 122.049ZM94.5105 124.052C94.5264 124.516 94.5435 124.981 94.5606 125.445C92.9709 124.308 91.3517 123.211 89.7051 122.156C91.2856 122.169 92.8662 122.161 94.4456 122.134C94.4661 122.774 94.4877 123.413 94.5105 124.051V124.052ZM96.7014 130.098C96.3233 132.118 95.8735 134.126 95.3486 136.113C94.7234 138.483 93.9946 140.825 93.1656 143.132C92.3401 145.43 91.4154 147.693 90.3917 149.911C89.3646 152.136 88.2407 154.318 87.0222 156.447C85.8049 158.574 84.4943 160.65 83.0936 162.662C83.0128 162.779 82.9297 162.895 82.8477 163.011C80.9437 161.524 79.0227 160.058 77.1142 158.571C77.9682 156.28 78.738 153.958 79.4213 151.609C80.1387 149.142 80.7615 146.649 81.2922 144.135C81.8285 141.589 82.2703 139.025 82.6188 136.448C82.9729 133.829 83.2371 131.2 83.4056 128.562C83.5594 126.153 83.7131 123.706 83.5503 121.289C88.1382 123.912 92.5348 126.858 96.7014 130.098ZM87.3764 157.669C88.621 155.545 89.7722 153.366 90.8267 151.142C91.8891 148.899 92.8548 146.611 93.7202 144.286C94.5788 141.979 95.3372 139.635 95.9908 137.262C96.5852 135.108 97.0931 132.93 97.5144 130.735C100.546 133.138 103.452 135.696 106.217 138.401C105.684 140.284 105.064 142.142 104.364 143.97C103.526 146.154 102.583 148.268 101.522 150.374C100.45 152.5 99.276 154.573 98.0109 156.591C96.7549 158.595 95.4101 160.543 93.9844 162.433C92.5826 164.29 91.0704 166.123 89.499 167.877C89.4033 167.984 89.3054 168.091 89.2097 168.197C89.1869 168.178 89.1653 168.158 89.1425 168.138C87.324 166.566 85.4576 165.059 83.5708 163.578C84.9213 161.663 86.1932 159.693 87.3775 157.672L87.3764 157.669ZM89.3498 169.542C90.6115 170.652 91.855 171.782 93.0814 172.932C91.954 174.774 90.7584 176.575 89.4978 178.329C88.1575 180.193 86.8161 181.913 85.3278 183.674C83.8543 185.418 82.3125 187.106 80.708 188.732C79.1092 190.352 77.4479 191.911 75.7284 193.403C74.8664 194.153 73.9884 194.884 73.0979 195.599C72.2576 196.274 71.4912 196.865 70.6383 197.499C68.3734 196.187 66.2109 194.701 64.1783 193.051C65.8762 192.203 67.533 191.274 69.142 190.267C71.194 188.983 73.1651 187.574 75.0508 186.058C76.9184 184.557 78.697 182.946 80.3744 181.237C82.0745 179.504 83.6664 177.67 85.1502 175.75C86.6134 173.856 87.964 171.876 89.1881 169.82C89.2427 169.728 89.2963 169.634 89.3509 169.542H89.3498ZM103.628 174.641C105.517 173.715 107.347 172.666 109.103 171.508C110.892 170.327 112.607 169.032 114.233 167.636C115.83 166.266 117.338 164.796 118.748 163.234C119.977 161.873 121.13 160.443 122.2 158.954C122.227 159.01 122.254 159.067 122.282 159.124C123.472 161.656 124.112 164.306 124.665 167.031C124.859 167.983 125.045 168.937 125.214 169.893C125.291 170.329 125.364 170.766 125.432 171.204C125.46 171.381 125.486 171.558 125.512 171.735C125.158 172.05 124.798 172.36 124.434 172.663C124.106 172.936 123.774 173.205 123.439 173.468C123.358 173.532 123.277 173.595 123.196 173.658C123.182 173.668 123.169 173.679 123.155 173.69C123.147 173.695 123.123 173.715 123.12 173.717C123.075 173.751 123.032 173.784 122.988 173.818C122.818 173.947 122.647 174.076 122.476 174.202C121.104 175.217 119.675 176.155 118.197 177.011C116.713 177.87 115.181 178.647 113.609 179.334C113.515 179.375 113.421 179.416 113.327 179.457C113.283 179.475 113.239 179.494 113.196 179.512C113.174 179.521 113.152 179.53 113.131 179.539C113.122 179.543 113.098 179.553 113.082 179.56C112.887 179.642 112.691 179.722 112.495 179.801C112.099 179.96 111.702 180.114 111.302 180.262C110.502 180.557 109.693 180.83 108.878 181.079C107.247 181.578 105.587 181.981 103.908 182.283C103.793 182.303 103.678 182.322 103.564 182.342C103.52 182.291 103.477 182.24 103.432 182.19C103.4 182.132 103.355 182.081 103.303 182.041C102.274 180.867 101.215 179.72 100.132 178.6C99.5607 178.01 98.9845 177.423 98.406 176.839C100.188 176.208 101.933 175.472 103.63 174.641H103.628ZM108.554 182.134C110.232 181.647 111.876 181.056 113.485 180.378C115.066 179.713 116.61 178.959 118.105 178.12C119.608 177.278 121.063 176.35 122.462 175.343C123.56 174.551 124.626 173.713 125.652 172.829C126.102 176.726 125.977 180.537 125.07 184.242C124.993 184.56 124.91 184.877 124.822 185.193C124.198 185.57 123.565 185.931 122.92 186.272C122.411 186.541 121.896 186.797 121.375 187.041C121.111 187.165 120.846 187.287 120.578 187.404C120.299 187.527 120.092 187.615 119.837 187.72C117.696 188.6 115.47 189.278 113.198 189.729C112.561 189.855 111.92 189.963 111.278 190.053C111.245 190.057 111.212 190.062 111.179 190.066C111.167 190.068 111.16 190.068 111.157 190.07C111.139 190.072 111.121 190.074 111.104 190.076C111.03 190.087 110.955 190.096 110.881 190.105C110.716 190.125 110.551 190.145 110.384 190.163C110.125 190.191 109.865 190.215 109.605 190.238C109.48 190.049 109.355 189.862 109.227 189.674C109.202 189.609 109.164 189.548 109.111 189.502C107.61 187.301 105.98 185.185 104.255 183.148C105.704 182.883 107.14 182.545 108.554 182.133V182.134ZM129.062 161.914C129.033 161.958 129.014 162.006 129.002 162.056C128.916 162.262 128.83 162.469 128.746 162.677C127.919 162.77 127.089 162.832 126.258 162.864C125.368 159.555 123.856 156.483 122.032 153.585C124.763 154.195 127.552 154.555 130.348 154.646C131.091 154.67 131.833 154.674 132.575 154.659C131.284 157.019 130.1 159.434 129.06 161.913L129.062 161.914ZM133.267 153.421C133.244 153.451 133.226 153.484 133.211 153.518C133.171 153.589 133.131 153.659 133.092 153.729C129.665 153.836 126.269 153.535 122.936 152.845C122.393 152.732 121.852 152.609 121.314 152.476C119.713 150.072 117.919 147.788 116.114 145.586C114.019 143.029 111.805 140.567 109.487 138.207C109.62 136.966 109.843 135.74 110.138 134.531C111.3 135.604 112.513 136.619 113.771 137.579C115.45 138.858 117.212 140.03 119.041 141.085C120.892 142.153 122.811 143.099 124.782 143.927C126.729 144.746 128.728 145.442 130.764 146.006C132.798 146.57 134.869 147.003 136.96 147.296C136.977 147.298 136.994 147.3 137.011 147.303C135.701 149.305 134.444 151.342 133.267 153.419V153.421ZM140.689 141.933C140.259 141.766 139.83 141.595 139.406 141.418C139.382 141.407 139.316 141.38 139.3 141.373C139.23 141.344 139.162 141.314 139.093 141.285C138.955 141.226 138.817 141.166 138.68 141.105C138.426 140.994 138.174 140.881 137.922 140.765C136.894 140.292 135.881 139.787 134.886 139.25C132.907 138.182 130.997 136.988 129.17 135.679C128.706 135.348 128.249 135.008 127.796 134.663C127.782 134.651 127.711 134.597 127.699 134.588C127.644 134.545 127.588 134.503 127.533 134.46C127.421 134.372 127.309 134.285 127.197 134.196C126.98 134.024 126.764 133.85 126.55 133.675C125.673 132.96 124.82 132.216 123.99 131.446C122.337 129.913 120.781 128.276 119.336 126.547C118.976 126.116 118.623 125.679 118.277 125.237C118.239 125.189 118.202 125.141 118.164 125.092C118.154 125.08 118.134 125.054 118.129 125.047C118.106 125.017 118.083 124.988 118.06 124.958C117.974 124.846 117.887 124.732 117.802 124.619C117.635 124.397 117.471 124.176 117.307 123.952C116.7 123.121 116.119 122.272 115.563 121.406C117.107 118.484 118.783 115.63 120.585 112.858C120.755 112.598 120.927 112.339 121.098 112.08C121.942 113.68 122.853 115.243 123.828 116.767C125.118 118.786 126.517 120.733 128.001 122.612C129.484 124.49 131.059 126.297 132.71 128.03C134.358 129.758 136.084 131.413 137.876 132.993C139.678 134.58 141.549 136.089 143.477 137.521C143.575 137.593 143.673 137.665 143.77 137.737C143.056 138.676 142.354 139.624 141.663 140.58C141.337 141.029 141.014 141.481 140.691 141.933H140.689ZM144.325 137.012C143.954 136.74 143.585 136.466 143.219 136.188C142.764 135.841 142.347 135.519 141.869 135.139C140.942 134.404 140.031 133.649 139.137 132.877C137.336 131.32 135.6 129.688 133.94 127.983C132.286 126.284 130.707 124.513 129.216 122.67C128.461 121.737 127.801 120.88 127.084 119.9C126.394 118.956 125.726 117.996 125.085 117.018C123.852 115.141 122.713 113.202 121.68 111.208C123.845 108.004 126.179 104.916 128.669 101.957C129.404 103.736 130.199 105.493 131.053 107.219C132.146 109.426 133.335 111.586 134.615 113.69C135.901 115.802 137.277 117.857 138.742 119.85C140.214 121.852 141.771 123.792 143.412 125.66C145.038 127.511 146.745 129.29 148.529 130.991C148.651 131.107 148.773 131.221 148.896 131.336C147.334 133.197 145.808 135.088 144.326 137.013L144.325 137.012ZM154.839 124.393C153.631 122.442 152.489 120.449 151.418 118.42C150.234 116.175 149.134 113.886 148.119 111.56C147.094 109.211 146.161 106.823 145.312 104.405C144.449 101.947 143.674 99.4581 142.987 96.9465C142.635 95.6611 142.306 94.3701 142.001 93.0746C141.7 91.7949 141.432 90.5028 141.286 89.1959C144.693 86.2641 148.279 83.5424 152.021 81.0512C151.773 82.9418 151.636 84.8448 151.613 86.7512C151.582 89.3628 151.767 91.972 152.14 94.5575C152.511 97.1225 153.082 99.6602 153.844 102.138C154.607 104.623 155.563 107.051 156.698 109.39C157.829 111.72 159.144 113.961 160.635 116.08C160.765 116.264 160.897 116.446 161.028 116.627C160.756 116.995 160.482 117.362 160.208 117.729C158.49 120.014 156.682 122.218 154.84 124.394L154.839 124.393ZM168.488 106.217C167.36 104.193 166.305 102.128 165.388 99.9986C164.423 97.756 163.623 95.434 163.095 93.0496C162.575 90.7106 162.352 88.3182 162.476 85.9246C162.596 83.5992 163.042 81.3033 163.723 79.079C164.352 77.0238 165.18 75.0356 166.127 73.1065C168.406 72.038 170.721 71.049 173.068 70.1395C172.695 71.4714 172.381 72.8203 172.13 74.1806C171.761 76.1813 171.52 78.2081 171.412 80.2394C171.305 82.2492 171.326 84.2657 171.479 86.2721C171.633 88.2898 171.916 90.3007 172.331 92.282C172.742 94.2486 173.286 96.188 173.961 98.0797C174.023 98.2522 174.088 98.4248 174.152 98.5974C172.195 101.087 170.329 103.642 168.488 106.216V106.217ZM182.526 66.9523C181.907 69.6365 181.452 72.3582 181.162 75.0981C180.818 78.3534 180.709 81.6326 180.839 84.9027C180.91 86.6888 181.053 88.4726 181.266 90.2473C179.532 92.1412 177.844 94.0772 176.206 96.0517C175.738 96.6149 175.278 97.1849 174.821 97.756C174.249 96.1437 173.772 94.4984 173.391 92.8304C172.945 90.8741 172.638 88.9461 172.457 86.9738C172.275 84.9879 172.221 82.9906 172.297 80.9979C172.333 80.0055 172.402 79.0154 172.503 78.0275C172.604 77.0249 172.727 76.1132 172.894 75.1185C173.201 73.2995 173.618 71.4998 174.141 69.7308C176.897 68.6952 179.695 67.7687 182.526 66.9534V66.9523ZM164.812 73.7332C164.173 75.114 163.598 76.5242 163.115 77.9662C162.356 80.2326 161.835 82.5784 161.624 84.9606C161.407 87.4257 161.554 89.9044 162.012 92.3354C162.471 94.7743 163.233 97.1486 164.168 99.4456C165.143 101.839 166.297 104.155 167.547 106.417C167.663 106.627 167.78 106.835 167.898 107.044C167.764 107.231 167.631 107.419 167.498 107.606C167.467 107.625 167.439 107.647 167.413 107.675C167.359 107.733 167.322 107.807 167.3 107.884C165.41 110.547 163.532 113.219 161.598 115.853C160.238 113.942 159.018 111.932 157.95 109.845C156.792 107.581 155.815 105.228 155.022 102.813C154.223 100.379 153.61 97.8844 153.19 95.358C152.771 92.8429 152.553 90.295 152.531 87.7447C152.509 85.2842 152.672 82.8191 153.035 80.3836C154.999 79.1062 157.006 77.8901 159.051 76.7422C160.941 75.6817 162.863 74.6779 164.813 73.7321L164.812 73.7332ZM140.454 89.9203C140.745 92.0254 141.28 94.0999 141.82 96.1494C142.491 98.6951 143.249 101.217 144.1 103.709C144.943 106.182 145.878 108.623 146.899 111.031C147.899 113.39 148.986 115.714 150.16 117.993C151.326 120.258 152.578 122.479 153.915 124.648C154.014 124.808 154.115 124.968 154.215 125.128C152.96 126.6 151.693 128.061 150.429 129.531C150.113 129.896 149.8 130.264 149.488 130.633C147.822 129.061 146.22 127.421 144.688 125.717C143.871 124.807 143.074 123.879 142.296 122.935C141.511 121.982 140.78 121.052 140.051 120.081C138.582 118.125 137.198 116.106 135.903 114.031C134.604 111.948 133.394 109.81 132.281 107.623C131.204 105.508 130.213 103.341 129.333 101.174C131.916 98.1603 134.661 95.2819 137.552 92.5568C138.504 91.6598 139.473 90.7821 140.454 89.9203ZM121.286 107.489C118.465 108.328 115.614 109.07 112.737 109.691C109.362 110.419 105.951 110.983 102.516 111.341C99.9843 111.604 97.4404 111.757 94.8942 111.789C94.8327 108.489 94.8008 105.189 94.8122 101.887C94.8145 101.269 94.8191 100.65 94.8236 100.033C95.4066 100.012 95.9908 99.9702 96.5761 99.8952C99.8784 99.4751 103.141 98.6985 106.37 97.9059C110.856 96.8057 115.309 95.5726 119.745 94.285C124.615 92.8702 129.464 91.3816 134.291 89.826C134.459 89.7715 134.628 89.717 134.796 89.6625C134.863 90.3188 134.923 90.9762 134.977 91.6337C129.938 96.4843 125.35 101.802 121.286 107.49V107.489ZM70.8342 94.4564C75.1169 96.5536 79.6741 98.1012 84.3531 99.0323C86.9118 99.5421 89.5092 99.8714 92.1157 99.9986C92.7819 100.031 93.4423 100.05 94.1017 100.046C94.0686 103.961 94.0994 107.877 94.1723 111.793C93.5073 111.795 92.8422 111.79 92.1772 111.775C88.7337 111.697 85.2936 111.387 81.8923 110.844C78.475 110.299 75.093 109.528 71.7782 108.537C71.7417 108.527 71.7064 108.514 71.67 108.504C71.0539 103.851 70.7932 99.1527 70.8342 94.4576V94.4564ZM71.1587 86.833C71.2976 84.9969 71.4798 83.1632 71.7019 81.3351C74.962 82.9497 78.393 84.2146 81.9094 85.148C85.9393 86.2187 90.082 86.8625 94.2417 87.1452C94.318 87.1509 94.3943 87.1543 94.4695 87.16C94.2747 91.0194 94.1597 94.8833 94.1131 98.7473C94.1108 98.9403 94.1096 99.1334 94.1074 99.3264C91.5726 99.3763 89.0252 99.0959 86.5292 98.6951C81.348 97.8639 76.2773 96.2822 71.5504 94.0102C71.3136 93.8966 71.0778 93.7797 70.8421 93.6616C70.8786 91.3827 70.9856 89.105 71.1564 86.833H71.1587ZM73.9508 68.4591C77.3579 69.7194 80.8481 70.7561 84.3941 71.5554C88.0664 72.382 91.798 72.9577 95.5501 73.2722C95.5205 73.5482 95.4909 73.8229 95.4624 74.0989C95.0388 78.2047 94.7257 82.3207 94.507 86.4424C90.8711 86.2085 87.2523 85.6941 83.7063 84.8561C79.7162 83.9137 75.8161 82.5659 72.1391 80.7504C72.0241 80.6936 71.9102 80.6357 71.7964 80.5778C72.3168 76.506 73.041 72.4615 73.9508 68.4579V68.4591ZM97.8287 61.5305C101.531 61.937 105.257 61.4965 108.864 60.596C112.807 59.6116 116.615 58.1355 120.385 56.6333C124.249 55.0925 128.072 53.4438 131.843 51.6873C131.848 51.685 131.853 51.6827 131.856 51.6816C132.018 56.79 131.889 61.9052 132.105 67.0125C128.76 68.3535 125.328 69.4787 121.834 70.3678C117.926 71.3635 113.943 72.0687 109.929 72.4615C105.935 72.8521 101.912 72.935 97.905 72.7159C97.3846 72.6875 96.8653 72.6534 96.3449 72.6148C96.6467 69.8761 96.9952 67.1431 97.3903 64.4168C97.5304 63.454 97.675 62.4911 97.8287 61.5305ZM82.9638 42.0109C83.0071 41.9178 83.0515 41.8247 83.0948 41.7316C85.3847 43.3791 87.882 44.7213 90.5204 45.7352C93.5972 46.9172 96.8483 47.611 100.128 47.9153C100.016 48.3082 99.9057 48.701 99.7964 49.0939C98.7363 52.9215 97.9107 56.7991 97.2423 60.705C94.1484 60.2702 91.1444 59.2483 88.3614 57.8448C85.0613 56.1791 82.0699 53.9843 79.345 51.4988C79.2607 51.4216 79.1776 51.3444 79.0933 51.266C80.2651 48.1333 81.5552 45.0449 82.9627 42.0109H82.9638ZM88.4923 31.3513C90.4987 32.531 92.6384 33.4848 94.8498 34.2126C97.4882 35.0812 100.223 35.6058 102.989 35.8465C103.234 35.8681 103.479 35.8863 103.723 35.9033C102.584 39.6719 101.412 43.4302 100.328 47.2136C97.5042 46.9638 94.7029 46.4154 92.0155 45.5104C88.9672 44.4839 86.0714 43.0033 83.466 41.1207C83.4455 41.106 83.425 41.0901 83.4045 41.0753C84.9691 37.7677 86.6669 34.5237 88.4923 31.3524V31.3513ZM93.2704 23.6574C93.4378 23.721 93.604 23.7857 93.7714 23.8471C94.2964 24.039 94.8248 24.2195 95.3577 24.3887C96.4167 24.7259 97.4905 25.0189 98.5723 25.2698C100.772 25.7807 103.013 26.1202 105.265 26.311C105.655 26.3439 106.046 26.3712 106.436 26.395C105.665 29.3472 104.814 32.2767 103.935 35.1971C101.262 35.0256 98.6144 34.5896 96.0443 33.8311C93.5323 33.0897 91.108 32.0564 88.851 30.7279C90.2505 28.3264 91.724 25.9681 93.2693 23.6574H93.2704ZM99.8272 51.7543C100.159 50.4916 100.506 49.2336 100.862 47.9777C104.192 48.2275 107.541 48.0663 110.844 47.6042C114.3 47.1216 117.704 46.2995 121.021 45.2243C124.405 44.1274 127.703 42.7762 130.928 41.2786C131.317 43.7357 131.579 46.2166 131.725 48.7146C131.767 49.4311 131.8 50.1487 131.828 50.8652C128.464 52.4401 125.061 53.9298 121.621 55.3287C117.895 56.8445 114.132 58.3388 110.259 59.4424C106.48 60.52 102.544 61.1842 98.6053 60.8583C98.3855 60.8402 98.1658 60.8186 97.9471 60.7947C98.4482 57.7563 99.0426 54.7348 99.826 51.7543H99.8272ZM96.3882 73.3381C100.428 73.6356 104.49 73.6288 108.528 73.3052C112.539 72.985 116.525 72.3616 120.441 71.4476C124.384 70.5279 128.255 69.3129 132.017 67.8187C132.058 67.8028 132.099 67.7857 132.14 67.7687C132.346 71.7962 132.9 75.785 133.483 79.7727C129.573 81.1693 125.614 82.4331 121.595 83.4823C117.268 84.612 112.868 85.5079 108.426 86.037C104.296 86.5287 100.126 86.7024 95.9692 86.5196C95.7221 86.5082 95.475 86.4969 95.2279 86.4833C95.3918 83.3698 95.6105 80.2587 95.8906 77.1521C96.0056 75.8758 96.1331 74.6019 96.2687 73.3279C96.3085 73.3313 96.3495 73.3347 96.3894 73.337L96.3882 73.3381ZM134.721 88.929C130.334 90.3495 125.928 91.7132 121.505 93.0178C116.985 94.3508 112.448 95.6282 107.88 96.7852C104.464 97.6516 101.021 98.493 97.5349 99.0357C96.6387 99.1754 95.7369 99.2605 94.8327 99.3014C94.876 95.266 94.9899 91.2317 95.1914 87.2009C99.0688 87.4132 102.962 87.3121 106.825 86.9306C111.27 86.4923 115.678 85.6828 120.016 84.6234C124.48 83.5322 128.875 82.1697 133.205 80.6357C133.334 80.5902 133.462 80.5437 133.59 80.4971C134.001 83.3028 134.416 86.1086 134.722 88.9279L134.721 88.929ZM130.808 40.5416C127.959 41.8724 125.054 43.0862 122.08 44.1115C118.832 45.2299 115.501 46.1156 112.112 46.6845C108.734 47.251 105.295 47.494 101.873 47.3203C101.604 47.3067 101.334 47.2896 101.064 47.2703C102.151 43.4825 103.325 39.7196 104.464 35.9465C106.882 36.0702 109.308 35.9896 111.715 35.7489C114.625 35.4571 117.509 34.9416 120.354 34.2728C123.189 33.6074 125.99 32.7933 128.76 31.8929C129.638 34.7315 130.314 37.619 130.808 40.5416ZM128.543 31.2071C126.166 31.9826 123.763 32.6877 121.336 33.294C118.535 33.9935 115.696 34.5612 112.829 34.9064C110.127 35.2311 107.397 35.364 104.677 35.2379C105.364 32.9511 106.035 30.6598 106.663 28.3571C106.837 27.7178 107.008 27.0763 107.174 26.4348C108.787 26.5108 110.402 26.512 112.015 26.4416C114.385 26.3371 116.747 26.0782 119.09 25.7126C121.376 25.3561 123.645 24.8905 125.894 24.3467C126.468 25.6161 126.999 26.9048 127.494 28.2072C127.87 29.2007 128.219 30.2022 128.543 31.2093V31.2071ZM122.36 17.7451C123.566 19.6504 124.634 21.6375 125.587 23.6779C123.68 24.1366 121.76 24.5397 119.825 24.8667C117.489 25.2607 115.132 25.5457 112.765 25.682C110.965 25.7864 109.159 25.8 107.358 25.7217C107.997 23.2067 108.571 20.6712 109.041 18.1187C111.866 18.4911 114.73 18.532 117.566 18.2152C119.108 18.0438 120.636 17.7735 122.144 17.4102C122.216 17.5214 122.29 17.6316 122.36 17.744V17.7451ZM116.468 9.92753C118.367 12.094 120.137 14.3706 121.727 16.7698C118.909 17.4295 116.016 17.7554 113.119 17.7065C111.796 17.6838 110.478 17.5839 109.167 17.4113C109.906 13.2192 110.358 8.98283 110.359 4.71353C110.359 4.36721 110.356 4.0209 110.349 3.67459C112.532 5.60599 114.557 7.74632 116.467 9.9264L116.468 9.92753ZM108.775 4.58295C109.057 4.29681 109.341 4.01182 109.625 3.72795C109.685 8.29134 109.232 12.8252 108.446 17.3103C106.808 17.0605 105.187 16.696 103.596 16.2248C102.275 15.833 100.977 15.3686 99.7087 14.8327C102.549 11.2628 105.574 7.83943 108.774 4.58295H108.775ZM94.3249 22.0985C95.8952 19.8185 97.5372 17.5896 99.2487 15.414C101.917 16.5552 104.71 17.3988 107.572 17.895C107.821 17.9382 108.07 17.9779 108.321 18.0165C107.853 20.5758 107.279 23.1192 106.634 25.6422C106.631 25.6558 106.628 25.6706 106.623 25.6842C106.432 25.6729 106.242 25.6627 106.05 25.649C103.827 25.4957 101.616 25.1926 99.4377 24.7236C97.4825 24.3024 95.5547 23.746 93.6826 23.0443C93.8967 22.7286 94.1096 22.413 94.326 22.0985H94.3249ZM78.8143 52.0268C81.2535 54.25 83.8964 56.2563 86.7899 57.8607C89.9704 59.6241 93.4446 60.9185 97.0566 61.4317C97.0771 61.4351 97.0976 61.4363 97.1181 61.4397C96.5055 65.1265 96.0295 68.8383 95.6264 72.5569C92.3799 72.2855 89.1516 71.8177 85.9609 71.1558C82.0312 70.3416 78.1607 69.238 74.3927 67.8561C74.2993 67.8221 74.2059 67.7869 74.1114 67.7517C74.4564 66.2733 74.8265 64.7995 75.2216 63.3336C76.2511 59.5151 77.4501 55.7408 78.8143 52.0268ZM71.777 109.283C74.6307 110.128 77.5321 110.813 80.4643 111.329C83.9044 111.934 87.3843 112.313 90.8745 112.452C91.9779 112.497 93.0825 112.514 94.1871 112.51C94.2463 115.479 94.3271 118.447 94.4228 121.416C93.9081 121.425 93.3922 121.431 92.8764 121.437C91.4325 121.45 89.9875 121.445 88.5436 121.423C88.0482 121.115 87.5517 120.808 87.0518 120.506C82.3557 117.675 77.4524 115.191 72.3953 113.076C72.1619 111.816 71.9558 110.551 71.777 109.284V109.283ZM55.0219 109.935C56.0991 111.33 57.1091 112.785 58.0053 114.306C59.1372 116.226 60.0778 118.232 60.7565 120.349C61.4784 122.6 61.8849 124.924 61.9749 127.281C62.0717 129.82 61.8326 132.362 61.3839 134.862C60.9159 137.471 60.2315 140.038 59.4412 142.568C59.4162 142.647 59.39 142.727 59.3649 142.806C58.1169 141.644 56.8609 140.491 55.5844 139.358C54.4946 138.391 53.3901 137.439 52.273 136.5C52.5645 134.589 52.7376 132.66 52.7797 130.727C52.8241 128.714 52.733 126.698 52.511 124.696C52.2855 122.669 51.9336 120.656 51.4497 118.673C50.9737 116.723 50.3713 114.803 49.6471 112.93C49.0504 111.387 48.374 109.875 47.6179 108.402C50.1026 108.828 52.5713 109.339 55.0196 109.934L55.0219 109.935ZM39.796 149.334C39.788 149.34 39.7698 149.354 39.7641 149.359C39.5785 149.501 39.3906 149.642 39.2016 149.779C38.8224 150.056 38.4375 150.324 38.0469 150.584C37.2339 151.124 36.3935 151.621 35.5292 152.075C33.9111 152.926 32.277 153.593 30.5268 154.126C26.6722 151.22 22.714 148.437 19.094 145.259C20.4548 144.9 21.8008 144.483 23.1251 144.008C25.0165 143.329 26.8681 142.536 28.665 141.637C30.4539 140.741 32.1871 139.736 33.8542 138.63C35.5326 137.516 37.1439 136.298 38.6732 134.988C40.1843 133.693 41.6145 132.303 42.9491 130.828C43.0323 130.736 43.1131 130.644 43.1951 130.551C45.9212 132.534 48.579 134.608 51.1639 136.761C50.1231 138.167 49.08 139.558 48.0199 140.893C46.8527 142.361 45.6411 143.796 44.3532 145.161C43.0744 146.516 41.7182 147.8 40.264 148.966C40.1763 149.037 40.0875 149.107 39.9987 149.176C39.9543 149.211 39.9099 149.245 39.8655 149.281C39.8438 149.298 39.8211 149.315 39.7994 149.332L39.796 149.334ZM46.4849 108.216C46.773 108.755 47.0508 109.299 47.3173 109.849C47.7511 110.746 48.1451 111.636 48.5061 112.526C49.252 114.372 49.8783 116.266 50.3804 118.192C50.6332 119.159 50.8553 120.135 51.0443 121.116C51.1377 121.598 51.2231 122.082 51.3017 122.567C51.3802 123.055 51.4497 123.538 51.5066 123.979C51.7583 125.961 51.8813 127.958 51.8722 129.955C51.8676 130.953 51.8289 131.95 51.7571 132.946C51.7218 133.435 51.6786 133.924 51.6273 134.411C51.6011 134.658 51.5727 134.907 51.5419 135.155C51.5271 135.274 51.5123 135.393 51.4964 135.513C51.4964 135.516 51.4907 135.553 51.4895 135.562C51.4873 135.583 51.4839 135.602 51.4816 135.622C51.4725 135.688 51.4634 135.753 51.4542 135.819C48.9115 133.711 46.3015 131.681 43.6267 129.74C43.3545 126.519 42.858 123.317 42.1338 120.168C41.3982 116.968 40.4291 113.822 39.2346 110.762C38.762 109.551 38.2553 108.354 37.7144 107.172C39.714 107.331 41.7102 107.541 43.6984 107.807C44.6287 107.932 45.5579 108.069 46.4849 108.218V108.216ZM36.6702 107.092C37.8898 109.701 38.9272 112.36 39.8051 115.131C40.7901 118.236 41.5496 121.413 42.0769 124.628C42.3183 126.1 42.5039 127.545 42.6451 129.033C39.4316 126.741 36.1293 124.577 32.7405 122.56C32.8225 122.478 32.9056 122.397 32.9876 122.314C33.1003 122.2 33.2108 122.084 33.3212 121.968C33.4761 121.897 33.6048 121.75 33.582 121.572C33.3019 119.382 32.8566 117.218 32.2315 115.099C31.6097 112.993 30.816 110.935 29.8663 108.954C29.5202 108.232 29.1501 107.521 28.7606 106.82C31.3991 106.817 34.0375 106.908 36.6702 107.092ZM21.9545 116.261C22.0308 116.404 22.1822 116.509 22.3474 116.502C22.5922 116.491 22.788 116.307 22.7926 116.058C22.8427 113.296 21.9386 110.637 20.5573 108.27C20.3421 107.901 20.1143 107.539 19.8786 107.183C22.4965 106.971 25.1213 106.852 27.7472 106.825C28.1583 107.543 28.5466 108.273 28.9121 109.014C29.3835 109.971 29.8014 110.911 30.1841 111.879C30.9789 113.886 31.6131 115.956 32.08 118.064C32.2098 118.651 32.3271 119.24 32.4296 119.832C32.482 120.131 32.531 120.432 32.5765 120.734C32.6118 120.966 32.6403 121.166 32.6676 121.368C32.4319 121.613 32.1939 121.856 31.9502 122.095C31.6075 121.894 31.2647 121.691 30.9197 121.493C27.836 119.723 24.6806 118.094 21.4694 116.584C21.6334 116.479 21.7951 116.371 21.9556 116.261H21.9545ZM18.8674 107.27C20.2453 109.29 21.335 111.46 21.745 113.887C21.8042 114.236 21.8418 114.541 21.8702 114.914C21.8828 115.071 21.8907 115.228 21.8964 115.385C21.7928 115.362 21.6824 115.374 21.5935 115.436C21.2394 115.683 20.875 115.915 20.5061 116.138C15.4274 113.794 10.2177 111.732 4.94086 109.859C4.68692 109.769 4.43185 109.681 4.17791 109.591C9.01634 108.487 13.9277 107.714 18.8697 107.269L18.8674 107.27ZM15.8179 142.155C12.1171 138.333 9.33519 133.826 7.40733 128.88C5.38268 123.685 4.17108 118.217 3.1337 112.753C2.96062 111.842 2.79437 110.932 2.62811 110.02C8.35702 112.006 14.0233 114.178 19.5347 116.691C19.3434 116.793 19.151 116.894 18.9574 116.99C18.5121 117.21 18.0316 117.426 17.6228 117.591C17.1491 117.783 16.6697 117.958 16.1835 118.116C15.211 118.433 14.2169 118.68 13.2103 118.86C12.9586 118.905 12.7058 118.945 12.453 118.981C12.4211 118.986 12.3892 118.99 12.3585 118.995C12.3551 118.995 12.3323 118.998 12.3198 119C12.2697 119.007 12.2184 119.014 12.1683 119.02C12.034 119.037 11.8984 119.051 11.7629 119.066C11.2539 119.121 10.7438 119.157 10.2325 119.175C9.08353 119.218 7.93114 119.171 6.789 119.033C6.5567 119.006 6.33465 119.257 6.34376 119.477C6.35515 119.742 6.53962 119.892 6.789 119.921C8.87059 120.17 10.9761 120.113 13.0463 119.783C15.1131 119.453 17.1263 118.83 19.02 117.942C19.5359 117.7 20.0415 117.437 20.5357 117.153C22.9361 118.269 25.3069 119.45 27.639 120.713C28.8563 121.371 30.0622 122.052 31.259 122.75C30.5974 123.361 29.9108 123.944 29.1991 124.498C29.1808 124.512 29.1626 124.527 29.1444 124.54C29.1444 124.54 29.1262 124.555 29.1148 124.563C29.1034 124.572 29.0875 124.585 29.0886 124.583C29.0704 124.597 29.0522 124.612 29.0339 124.625C28.9485 124.69 28.8631 124.755 28.7766 124.82C28.6172 124.939 28.4555 125.057 28.2938 125.174C27.9635 125.411 27.6288 125.643 27.2906 125.869C26.613 126.32 25.9195 126.746 25.2101 127.147C24.5075 127.545 23.7913 127.917 23.0636 128.263C22.3121 128.621 21.6527 128.906 20.9057 129.197C19.3947 129.786 17.8426 130.268 16.2632 130.635C15.4775 130.818 14.686 130.974 13.8889 131.099C13.684 131.132 13.479 131.161 13.274 131.189C13.2547 131.192 13.1852 131.202 13.1727 131.203C13.1579 131.205 13.0918 131.213 13.0725 131.216C12.9654 131.229 12.8595 131.243 12.7525 131.255C12.3482 131.303 11.9429 131.344 11.5375 131.377C11.3382 131.393 11.1389 131.408 10.9396 131.42C10.7073 131.435 10.483 131.613 10.4944 131.864C10.5047 132.092 10.6903 132.324 10.9396 132.308C12.5965 132.203 14.2465 131.976 15.8692 131.631C17.4702 131.291 19.0462 130.833 20.5812 130.265C22.1378 129.69 23.6558 129.005 25.1145 128.215C26.5527 127.436 27.9339 126.552 29.2435 125.571C30.2228 124.838 31.1645 124.054 32.0572 123.219C35.6169 125.326 39.0832 127.598 42.447 130.012C41.2388 131.36 39.9532 132.639 38.5969 133.84C37.8602 134.491 37.1041 135.12 36.3286 135.726C36.2796 135.763 36.2318 135.802 36.1828 135.839C36.1635 135.854 36.1441 135.869 36.1248 135.883C36.1157 135.89 36.0963 135.905 36.0929 135.908C35.9893 135.988 35.8856 136.067 35.7809 136.146C35.585 136.293 35.3869 136.441 35.1887 136.585C34.7856 136.88 34.3768 137.169 33.9646 137.45C32.334 138.567 30.635 139.585 28.8802 140.497C28 140.954 27.1049 141.387 26.1985 141.791C25.9742 141.891 25.7476 141.99 25.5221 142.088C25.4652 142.111 25.4094 142.136 25.3525 142.16C25.3274 142.17 25.3023 142.181 25.2784 142.192C25.2716 142.195 25.2625 142.199 25.25 142.203C25.1361 142.251 25.0222 142.298 24.9084 142.344C24.4529 142.53 23.994 142.711 23.5328 142.884C21.8122 143.528 20.0551 144.076 18.273 144.522C17.4326 143.758 16.6116 142.972 15.8191 142.152L15.8179 142.155ZM31.4196 154.804C32.7507 154.364 34.0523 153.834 35.3106 153.215C37.0551 152.355 38.7062 151.319 40.2481 150.137C41.7592 148.979 43.1712 147.701 44.4978 146.338C45.8221 144.976 47.0633 143.536 48.2556 142.059C49.4615 140.564 50.6184 139.031 51.7628 137.488C51.7959 137.442 51.83 137.398 51.863 137.353C52.0054 137.472 52.1477 137.59 52.2889 137.71C54.8681 139.901 57.3585 142.188 59.8295 144.496C59.7749 144.566 59.7202 144.636 59.6644 144.705C59.5221 144.885 59.3775 145.066 59.2328 145.245C58.9379 145.61 58.6396 145.971 58.3378 146.33C57.7377 147.04 57.1228 147.738 56.4931 148.421C55.2382 149.784 53.9264 151.093 52.5611 152.344C51.1969 153.595 49.7792 154.788 48.3136 155.92C48.2966 155.933 48.2453 155.972 48.2339 155.981C48.1895 156.015 48.1451 156.049 48.1018 156.082C48.0005 156.159 47.8992 156.236 47.7978 156.313C47.6133 156.451 47.4289 156.59 47.2432 156.726C46.872 157 46.4974 157.27 46.1205 157.535C45.3598 158.071 44.5889 158.591 43.8054 159.096C42.3786 160.014 40.9142 160.876 39.4202 161.68C36.9435 159.166 34.2197 156.942 31.4207 154.805L31.4196 154.804ZM45.7811 169.5C47.1818 168.813 48.5254 168.012 49.8327 167.162C51.4622 166.102 53.0519 164.982 54.6165 163.83C56.1993 162.665 57.7548 161.462 59.2784 160.22C60.7781 158.997 62.2471 157.736 63.6841 156.441C65.1269 155.14 66.5378 153.802 67.9145 152.429C67.9873 152.357 68.0602 152.283 68.1331 152.21C69.7558 153.675 71.4012 155.116 73.0888 156.51C74.0579 157.312 75.0417 158.095 76.0313 158.87C75.9561 158.965 75.8821 159.06 75.807 159.156C75.6361 159.37 75.4642 159.584 75.29 159.796C74.9518 160.208 74.6079 160.616 74.2571 161.018C73.5466 161.833 72.8098 162.628 72.0514 163.399C70.5324 164.942 68.92 166.393 67.2267 167.745C67.0126 167.917 66.7962 168.086 66.5788 168.255C66.556 168.272 66.5332 168.29 66.5116 168.307C66.5059 168.312 66.499 168.317 66.4911 168.323C66.4421 168.361 66.3943 168.397 66.3453 168.435C66.2303 168.522 66.1142 168.61 65.998 168.697C65.5641 169.022 65.1257 169.341 64.6839 169.653C63.798 170.278 62.8938 170.876 61.9726 171.447C60.137 172.585 58.2342 173.615 56.2767 174.529C55.7859 174.758 55.2917 174.979 54.7941 175.194C54.6745 175.245 54.5561 175.296 54.4366 175.346C54.4274 175.35 54.4229 175.352 54.4195 175.354C54.4138 175.356 54.407 175.36 54.399 175.363C54.3705 175.375 54.3432 175.387 54.3147 175.398C54.2441 175.428 54.1735 175.457 54.1029 175.486C53.8558 175.588 53.6087 175.688 53.3593 175.786C52.4461 176.146 51.5226 176.48 50.5911 176.789C49.0083 174.345 47.4459 171.884 45.7834 169.5H45.7811ZM59.6303 188.865C58.5006 187.684 57.4462 186.449 56.4407 185.175C58.1112 184.48 59.7521 183.716 61.3531 182.873C63.3425 181.826 65.2704 180.664 67.1242 179.394C69.027 178.091 70.8524 176.676 72.5969 175.169C74.3892 173.621 76.0939 171.974 77.7177 170.251C79.4338 168.429 81.0599 166.523 82.6063 164.556C82.7053 164.431 82.8021 164.304 82.9001 164.178C83.7894 164.875 84.673 165.58 85.5453 166.298C86.5918 167.16 87.6246 168.036 88.6472 168.924C87.5085 170.874 86.2593 172.757 84.9053 174.565C84.2153 175.486 83.499 176.384 82.7179 177.306C81.9458 178.217 81.1476 179.105 80.3243 179.967C78.6765 181.694 76.9263 183.326 75.0873 184.849C74.141 185.632 73.2915 186.294 72.3191 187.006C71.3557 187.711 70.3718 188.389 69.3675 189.036C67.4476 190.274 65.4571 191.402 63.4074 192.411C62.0888 191.297 60.8271 190.114 59.6314 188.865H59.6303ZM78.8348 201.308C79.9861 200.189 81.1111 199.043 82.21 197.872C83.6687 196.319 85.0796 194.722 86.4403 193.082C87.8102 191.432 89.1311 189.741 90.4008 188.013C91.6614 186.296 92.8707 184.542 94.0242 182.752C95.1743 180.969 96.2698 179.151 97.3083 177.303C97.3413 177.245 97.3732 177.187 97.4051 177.128C99.1542 178.884 100.87 180.674 102.511 182.528C102.246 183.364 101.962 184.194 101.659 185.016C101.5 185.447 101.336 185.878 101.165 186.304C101.08 186.519 100.993 186.734 100.904 186.947C100.86 187.054 100.817 187.159 100.771 187.265C100.771 187.265 100.765 187.28 100.76 187.291C100.753 187.307 100.739 187.34 100.737 187.346C100.713 187.401 100.689 187.458 100.665 187.514C99.965 189.144 99.1792 190.74 98.3058 192.285C97.4632 193.778 96.5385 195.225 95.5376 196.618C95.2928 196.958 95.0445 197.296 94.7917 197.629C94.728 197.715 94.6631 197.799 94.5981 197.884C94.572 197.918 94.5458 197.951 94.5207 197.985C94.5207 197.985 94.4604 198.062 94.449 198.077C94.318 198.245 94.1859 198.412 94.0527 198.578C93.5198 199.243 92.9698 199.895 92.4038 200.533C91.3778 201.691 90.2983 202.8 89.1812 203.872C88.3466 203.727 87.513 203.58 86.6795 203.427C84.008 202.937 81.3833 202.222 78.8337 201.305L78.8348 201.308ZM94.7849 204.878C93.2932 204.59 91.7969 204.329 90.3006 204.07C91.108 203.278 91.896 202.468 92.6555 201.631C93.8227 200.343 94.9261 198.999 95.9578 197.601C96.9781 196.219 97.9232 194.783 98.7875 193.299C99.6837 191.76 100.492 190.171 101.215 188.544C101.97 186.843 102.636 185.104 103.218 183.336C104.422 184.728 105.582 186.158 106.682 187.639C107.249 188.402 107.802 189.176 108.338 189.963C107.98 192.286 107.434 194.578 106.705 196.813C105.948 199.135 105.039 201.29 103.906 203.454C103.447 204.33 102.958 205.189 102.441 206.032C102.159 206.014 101.877 205.992 101.597 205.967C99.3056 205.76 97.0418 205.315 94.7849 204.879V204.878ZM108.202 205.718C106.649 206.03 105.066 206.123 103.486 206.08C104.461 204.45 105.331 202.758 106.086 201.017C107.068 198.751 107.87 196.412 108.463 194.016C108.703 193.045 108.91 192.065 109.082 191.079C111.065 194.11 112.804 197.302 114.191 200.646C114.519 201.436 114.824 202.234 115.111 203.039C112.945 204.271 110.655 205.228 108.202 205.718ZM117.362 204.182C117.354 204.165 117.346 204.149 117.34 204.132C117.699 203.66 118.056 203.185 118.408 202.706C118.673 204.272 118.921 205.84 119.149 207.41C119.232 207.987 119.312 208.564 119.39 209.141C118.777 207.464 118.1 205.809 117.362 204.182ZM121.609 201.468C121.533 202.991 121.466 204.514 121.405 206.036C121.122 204.132 120.814 202.231 120.476 200.336C120.448 200.185 120.421 200.034 120.394 199.883C120.881 199.158 121.356 198.424 121.815 197.681C121.741 198.942 121.671 200.205 121.609 201.467V201.468ZM131.267 177.475C130.289 177.389 129.324 177.219 128.369 176.996C128.368 176.406 128.352 175.815 128.319 175.224C128.206 173.217 127.93 171.22 127.581 169.241C127.565 169.151 127.549 169.06 127.533 168.971C128.086 167.082 128.732 165.235 129.458 163.422C130.217 165.339 131.109 167.205 132.13 168.998C133.352 171.144 134.759 173.182 136.319 175.098C136.831 175.727 137.364 176.341 137.912 176.94C135.754 177.437 133.547 177.675 131.267 177.475ZM145.186 174.49C143.127 175.33 141.048 176.121 138.925 176.688C138.364 176.088 137.818 175.473 137.292 174.842C137.095 174.606 136.902 174.369 136.71 174.129C136.513 173.883 136.352 173.676 136.185 173.458C135.823 172.983 135.47 172.501 135.126 172.011C133.731 170.022 132.501 167.917 131.455 165.724C130.887 164.533 130.42 163.424 129.966 162.192C131.055 159.62 132.3 157.118 133.657 154.672C134.455 156.065 135.309 157.426 136.224 158.745C137.257 160.23 138.367 161.664 139.554 163.031C140.689 164.338 141.896 165.584 143.168 166.76C144.44 167.936 145.776 169.04 147.16 170.082C148.223 170.882 149.316 171.64 150.432 172.362C148.678 173.059 146.935 173.778 145.186 174.491V174.49ZM153.144 171.307C152.59 171.516 152.038 171.731 151.485 171.947C150.35 171.23 149.237 170.478 148.155 169.685C147.983 169.559 147.812 169.432 147.641 169.303C147.561 169.243 147.483 169.184 147.403 169.124C147.363 169.094 147.324 169.064 147.285 169.033C147.262 169.016 147.239 168.999 147.217 168.981C147.213 168.977 147.198 168.966 147.185 168.956C146.852 168.698 146.52 168.436 146.193 168.17C145.533 167.634 144.888 167.082 144.257 166.513C142.99 165.37 141.785 164.161 140.648 162.888C140.065 162.236 139.501 161.567 138.955 160.885C138.817 160.712 138.679 160.539 138.544 160.364C138.539 160.358 138.536 160.354 138.533 160.351C138.52 160.334 138.506 160.316 138.492 160.299C138.461 160.258 138.429 160.217 138.398 160.175C138.325 160.081 138.253 159.986 138.182 159.892C137.911 159.533 137.644 159.169 137.383 158.804C136.303 157.288 135.305 155.714 134.384 154.097C134.316 153.978 134.25 153.858 134.182 153.738C135.41 151.583 136.719 149.471 138.084 147.391C139.352 148.863 140.658 150.3 142.007 151.699C143.481 153.229 145.001 154.714 146.566 156.151C148.136 157.594 149.751 158.991 151.406 160.337C153.072 161.691 154.778 162.997 156.523 164.251C158.033 165.336 159.574 166.378 161.138 167.382C160.677 167.663 160.212 167.937 159.741 168.203C157.623 169.4 155.42 170.449 153.143 171.308L153.144 171.307ZM168.394 162.007C166.685 161.203 165.002 160.347 163.349 159.435C161.347 158.333 159.388 157.152 157.477 155.898C156.515 155.267 155.565 154.616 154.629 153.949C154.168 153.619 153.709 153.285 153.254 152.947C153.019 152.773 152.786 152.598 152.553 152.421C152.33 152.252 152.114 152.086 151.933 151.946C150.127 150.547 148.374 149.079 146.681 147.545C144.989 146.011 143.356 144.412 141.789 142.751C141.683 142.639 141.58 142.526 141.474 142.413C142.444 141.042 143.438 139.687 144.453 138.349C145.941 140.002 147.521 141.572 149.187 143.049C150.996 144.654 152.902 146.15 154.887 147.532C156.854 148.901 158.902 150.155 161.018 151.284C163.159 152.427 165.371 153.442 167.634 154.326C169.655 155.116 171.72 155.795 173.817 156.359C172.16 158.379 170.346 160.266 168.394 162.005V162.007ZM174.445 155.578C172.511 155.07 170.601 154.466 168.727 153.767C168.168 153.558 167.611 153.341 167.057 153.115C166.512 152.893 166.032 152.688 165.472 152.441C164.38 151.956 163.303 151.439 162.242 150.892C160.118 149.796 158.06 148.577 156.08 147.24C154.096 145.902 152.272 144.51 150.465 142.951C148.658 141.392 146.943 139.726 145.336 137.961C145.23 137.844 145.126 137.726 145.02 137.609C146.314 135.923 147.641 134.261 149.003 132.627C149.231 132.353 149.461 132.08 149.691 131.807C151.499 133.351 153.363 134.832 155.291 136.224C157.216 137.614 159.206 138.916 161.261 140.106C163.244 141.254 165.288 142.297 167.386 143.216C169.461 144.126 171.585 144.922 173.75 145.587C175.749 146.201 177.782 146.707 179.836 147.106C179.82 147.139 179.804 147.172 179.787 147.205C178.285 150.175 176.492 152.98 174.444 155.579L174.445 155.578ZM183.874 137.722C183.19 137.64 182.527 137.546 181.814 137.43C180.739 137.255 179.67 137.048 178.606 136.81C176.497 136.335 174.416 135.735 172.377 135.015C170.319 134.288 168.403 133.48 166.445 132.513C164.507 131.557 162.625 130.487 160.815 129.308C158.996 128.125 157.309 126.875 155.668 125.494C155.563 125.405 155.458 125.316 155.355 125.226C156.577 123.794 157.782 122.348 158.946 120.866C159.908 119.64 160.848 118.395 161.773 117.141C163.279 118.139 164.807 119.104 166.358 120.031C168.016 121.023 169.699 121.973 171.405 122.881C173.119 123.793 174.855 124.663 176.612 125.488C178.386 126.322 180.181 127.114 181.996 127.854C183.672 128.537 185.379 129.162 187.133 129.62C186.806 130.366 186.487 131.117 186.178 131.874C185.384 133.812 184.635 135.77 183.874 137.723V137.722ZM191.825 120.693C190.399 120.265 188.987 119.79 187.593 119.265C187.158 119.101 186.725 118.933 186.295 118.76C186.075 118.672 185.856 118.583 185.639 118.493C185.541 118.452 185.443 118.411 185.345 118.37C185.338 118.367 185.334 118.366 185.33 118.363C185.327 118.362 185.325 118.361 185.32 118.359C185.297 118.35 185.275 118.34 185.253 118.33C185.193 118.305 185.133 118.279 185.073 118.254C184.219 117.89 183.373 117.507 182.535 117.106C180.859 116.306 179.217 115.434 177.614 114.495C176.012 113.556 174.45 112.549 172.934 111.478C171.406 110.398 170.017 109.325 168.584 108.115C168.508 108.05 168.432 107.985 168.357 107.919C170.385 105.062 172.438 102.223 174.61 99.4706C174.647 99.424 174.684 99.3775 174.722 99.3309C176.002 100.479 177.288 101.62 178.605 102.725C180.066 103.951 181.565 105.135 183.125 106.233C184.655 107.311 186.247 108.306 187.912 109.163C189.655 110.06 191.479 110.808 193.363 111.359C194.967 111.828 196.613 112.156 198.274 112.351C196.748 114.098 195.262 115.871 193.879 117.718C193.152 118.688 192.471 119.681 191.826 120.691L191.825 120.693ZM212.605 94.1169C211.565 96.0597 210.377 97.8946 209.09 99.6602C208.479 99.6341 207.87 99.5966 207.261 99.5478C206.76 99.5069 206.259 99.4581 205.759 99.4013C205.253 99.3446 204.842 99.2912 204.385 99.2253C202.417 98.9415 200.466 98.5384 198.548 98.0195C196.637 97.5028 194.757 96.8715 192.921 96.1289C192.455 95.9405 192.094 95.7883 191.62 95.5782C191.167 95.3784 190.718 95.1718 190.271 94.9583C189.372 94.528 188.486 94.0704 187.615 93.5844C185.887 92.6215 184.22 91.5531 182.628 90.3813C182.578 90.3438 182.528 90.3063 182.478 90.2689C185.667 86.8239 189.022 83.5299 192.536 80.4256C193.843 81.3226 195.213 82.1254 196.636 82.8282C198.167 83.5856 199.757 84.2317 201.383 84.7596C202.995 85.2831 204.645 85.6907 206.317 85.9768C208.013 86.2675 209.729 86.4424 211.448 86.4889C212.851 86.5264 214.257 86.4787 215.655 86.3447C214.93 89.0165 213.943 91.6201 212.606 94.118L212.605 94.1169Z" fill="white"/>
</g>
<defs>
<clipPath id="clip0_216_1196">
<rect width="220" height="227" fill="white" transform="translate(0 0.5)"/>
</clipPath>
</defs>
</svg>
