<svg width="225" height="208" viewBox="0 0 225 208" fill="none" xmlns="http://www.w3.org/2000/svg">
<g clip-path="url(#clip0_271_908)">
<path d="M224.334 107.337C224.704 107.337 225 107.042 225 106.672C225 106.303 224.704 106.007 224.334 106.007H213.317C212.895 79.0561 200.923 54.0642 180.516 36.8707C184.305 32.2655 188.093 27.653 191.881 23.0405C192.303 22.5304 192.421 22.0352 191.822 21.6138C186.998 18.2284 182.181 14.8429 177.357 11.4574C176.432 10.8069 174.538 11.4352 174.012 12.3518C171.238 17.1344 168.456 21.9169 165.681 26.6995C152.577 19.6033 137.853 16.0552 123.018 15.8851V0.665269C123.018 0.295675 122.722 0 122.352 0C121.982 0 121.686 0.295675 121.686 0.665269V15.8556C112.873 15.8704 104.046 17.0678 95.5077 19.448C78.5489 24.1714 63.4991 33.8844 51.9195 46.8054C49.389 44.8465 46.8215 42.9246 44.5499 40.6405C43.7138 39.7979 40.0809 41.2097 40.9244 42.0672C43.6103 44.7726 46.7179 46.968 49.6923 49.326C47.2728 52.2236 45.0383 55.2838 42.9813 58.4623C42.8999 58.4032 42.8186 58.3515 42.7446 58.2997C39.6221 56.1043 36.3073 54.1824 33.1775 51.9944C32.149 51.2774 28.6862 52.8223 29.5593 53.4285C32.3044 55.3504 35.1827 57.0801 37.9647 58.9428C38.5123 59.3124 39.9551 60.1329 41.3165 61.0939C39.4741 64.1393 37.7945 67.2882 36.2999 70.5407C31.1501 81.7689 28.6196 93.8768 28.5086 106.007H17.4691C17.0992 106.007 16.8032 106.303 16.8032 106.672C16.8032 107.042 17.0992 107.337 17.4691 107.337H28.5086C28.5974 124.058 33.2589 140.756 42.0342 155.178C59.0744 183.193 90.0324 198.442 121.678 198.102V207.327C121.678 207.697 121.974 207.993 122.344 207.993C122.714 207.993 123.01 207.697 123.01 207.327V198.08C130.809 197.888 138.637 196.757 146.303 194.628C185.392 183.747 212.54 147.542 213.309 107.337H224.334ZM209.417 105.999H173.628C173.11 90.5061 166.118 76.8829 155.233 67.6209C162.966 58.2184 170.698 48.8159 178.422 39.4135C197.653 56.0156 208.737 80.5714 209.425 105.999H209.417ZM169.706 105.999H130.498C130.202 103.775 129.285 102.023 127.99 100.751C136.351 90.5874 144.705 80.4162 153.066 70.2524C162.862 79.3 169.114 92.2432 169.706 106.007V105.999ZM187.893 23.0109C187.893 23.0109 187.96 23.0479 187.997 23.07C187.923 23.1661 187.841 23.2548 187.767 23.3509C187.619 23.3435 187.464 23.3214 187.316 23.3066C187.375 23.2548 187.434 23.1957 187.494 23.144C187.597 23.07 187.649 22.9666 187.664 22.8483C187.738 22.9 187.812 22.9518 187.893 23.0035V23.0109ZM175.337 24.7776C174.427 25.6498 173.546 26.5886 172.695 27.5791C172.34 27.4312 171.46 27.5273 170.638 27.7491C171.526 26.3446 174.308 22.2126 176.121 19.5219C175.729 21.2812 175.455 23.0109 175.337 24.7702V24.7776ZM145.481 70.8659C144.505 72.1447 143.565 73.4383 142.662 74.7614C142.056 75.5006 141.449 76.2324 140.835 76.9716C140.65 76.9716 140.443 77.0012 140.221 77.0381C140.346 76.8238 140.472 76.6094 140.598 76.3876C142.13 74.4805 143.809 72.6547 145.489 70.8659H145.481ZM180.931 29.9223C180.931 29.9223 180.871 29.9741 180.849 30.0036C180.849 29.9814 180.849 29.9519 180.849 29.9297C181.145 29.4344 181.449 28.9244 181.767 28.3996C182.403 27.7861 183.039 27.1799 183.69 26.5812C183.328 27.3869 182.314 28.4365 180.938 29.9223H180.931ZM133.08 89.316C133.302 89.2643 133.51 89.1978 133.695 89.1238C133.117 89.8261 132.54 90.5283 131.963 91.2305C132.333 90.5948 132.703 89.9517 133.073 89.316H133.08ZM123.188 108.757C123.069 108.439 123.025 108.121 123.025 107.811C123.077 107.811 123.129 107.788 123.173 107.774C123.277 108.01 123.395 108.239 123.506 108.468C123.41 108.572 123.299 108.661 123.188 108.757ZM119.252 105.098C119.37 105.401 119.481 105.704 119.592 106.014H118.822C118.645 105.297 118.512 104.58 118.43 103.848C118.726 104.255 119 104.669 119.259 105.098H119.252ZM118.356 109.585C118.63 110.324 118.911 111.048 119.215 111.765C118.489 111.433 118.319 110.516 118.356 109.585ZM116.765 106.007C116.721 105.859 116.684 105.711 116.64 105.563C116.721 105.711 116.802 105.859 116.876 106.007H116.773H116.765ZM120.65 111.846C120.65 111.81 120.65 111.773 120.643 111.736C120.258 110.494 119.806 109.259 119.4 108.017C119.488 108.054 119.592 108.084 119.703 108.106C119.895 108.158 120.11 108.187 120.339 108.195C120.68 109.193 121.027 110.183 121.464 111.144C121.516 111.263 121.59 111.336 121.671 111.388V111.477C121.345 111.647 121.005 111.773 120.643 111.854L120.65 111.846ZM126.258 105.201C126.347 105.467 126.436 105.733 126.495 106.007H126.155C126.207 105.741 126.244 105.467 126.258 105.201ZM120.354 100.833C120.361 101.128 120.384 101.417 120.406 101.705C120.206 101.431 120.006 101.15 119.806 100.87C119.984 100.84 120.169 100.84 120.354 100.825V100.833ZM117.01 102.311C117.01 102.518 117.01 102.718 117.01 102.924C116.987 103.124 116.965 103.324 116.95 103.523C116.802 103.301 116.654 103.08 116.484 102.873C116.647 102.673 116.817 102.488 117.002 102.311H117.01ZM116.906 111.056C116.958 111.189 117.01 111.314 117.054 111.447C116.95 111.329 116.832 111.226 116.736 111.1C116.795 111.092 116.854 111.078 116.906 111.056ZM121.678 112.918V113.244C121.368 113.273 121.064 113.31 120.731 113.295C120.665 113.295 120.613 113.273 120.554 113.266C120.902 113.214 121.279 113.088 121.686 112.926L121.678 112.918ZM123.018 112.201C123.891 111.61 124.631 110.856 125.178 110.006C125.437 109.91 125.63 109.681 125.607 109.355C125.689 109.252 125.733 109.119 125.718 108.978C125.933 108.454 126.066 107.907 126.125 107.345H126.651C126.466 109.858 125.208 112.105 123.018 112.94V112.209V112.201ZM172.207 42.2889C172.037 42.2889 171.837 42.3037 171.623 42.3333C173.154 40.7514 174.641 39.1252 176.077 37.4546C176.099 37.4694 176.121 37.4916 176.143 37.5064C174.834 39.103 173.524 40.6923 172.214 42.2889H172.207ZM134.901 79.6918C133.835 81.185 132.903 82.7373 132.17 84.393C129.44 89.0943 126.71 93.7955 123.98 98.4893C123.661 98.4007 123.343 98.3341 123.018 98.275V57.5827C130.713 57.8858 137.883 60.0812 144.187 63.7032C141.094 69.0327 137.994 74.3623 134.901 79.6918ZM121.686 98.1271C117.076 97.9128 112.237 100.603 111.349 105.999H72.0599C72.0525 79.0709 95.0342 57.2723 121.686 57.5457V98.1271ZM111.223 107.337C111.061 112.334 115.9 116.452 120.746 116.193C121.064 116.178 121.375 116.149 121.686 116.104V156.516C121.05 156.53 120.413 156.545 119.769 156.53C93.2806 156.057 72.7998 133.002 72.0747 107.345H111.223V107.337ZM123.025 115.838C127.043 114.811 130.136 111.676 130.565 107.337H169.773C169.247 133.63 149.255 155.244 123.032 156.471V115.838H123.025ZM164.12 29.3975C157.971 39.9827 151.822 50.5752 145.674 61.1604C138.889 57.5975 131.216 55.4538 123.025 55.099V17.6814C137.328 18.2653 151.512 22.3087 164.12 29.3975ZM32.4228 102.791C32.8519 88.7025 36.8697 75.1384 43.6325 63.1118C43.9802 63.5553 44.1948 63.9767 44.1504 64.3537C44.0024 65.6916 47.8795 64.9302 48.0053 63.7919C48.1533 62.454 46.8289 61.1604 45.4082 60.1033C47.3394 56.9544 49.463 53.9237 51.7567 51.0335C52.1636 51.3809 52.5632 51.7283 52.9554 52.0905C53.8432 52.9037 57.4318 51.4548 56.5809 50.6639C55.7226 49.873 54.8347 49.1338 53.932 48.402C61.3164 39.7831 70.3137 32.4873 80.4579 27.106C93.3102 20.2907 107.524 17.2748 121.664 17.637V55.0473C121.664 55.0473 121.627 55.0473 121.604 55.0473C94.0353 54.552 70.7059 76.4542 68.2641 103.538C68.1902 104.366 68.1384 105.186 68.1088 106.007H32.371C32.371 104.935 32.371 103.871 32.408 102.799L32.4228 102.791ZM70.6911 180.317C46.7179 163.797 32.9407 136.077 32.408 107.337H68.1014C67.7684 134.318 89.877 156.501 116.477 158.896C118.223 159.051 119.954 159.118 121.678 159.095V196.424C103.713 196.291 85.7557 190.696 70.6911 180.317ZM164.416 185.3C151.623 192.728 137.335 196.328 123.018 196.432V159.044C147.79 158.038 169.122 138.79 173.139 114.175C173.509 111.913 173.605 109.622 173.657 107.337H209.462C209.462 107.411 209.462 107.485 209.462 107.552C209.136 139.596 192.214 169.148 164.423 185.292L164.416 185.3Z" fill="white"/>
<path d="M3.87715 117.671C3.87715 116.673 -0.00738857 117.353 1.05568e-05 118.706C0.147993 144.563 7.75429 167.655 24.2025 187.724C24.9499 188.633 28.6642 187.31 27.8207 186.283C11.4391 166.295 4.02513 143.365 3.87715 117.671Z" fill="white"/>
<path d="M37.4098 91.6223C36.0779 94.823 35.5452 98.7185 35.3824 102.156C35.338 103.021 36.6773 103.013 36.7217 102.156C36.8845 98.8442 37.4246 95.0669 38.7046 91.9771C39.0376 91.1788 37.7427 90.8388 37.4172 91.6223H37.4098Z" fill="white"/>
<path d="M39.06 95.1409C38.9638 97.351 38.2905 99.6129 38.3941 101.823C38.4311 102.681 39.7703 102.688 39.7333 101.823C39.6298 99.6129 40.3105 97.3584 40.3993 95.1409C40.4363 94.276 39.097 94.2834 39.06 95.1409Z" fill="white"/>
<path d="M42.7596 95.6509C43.4847 97.9867 42.7078 100.441 42.7374 102.821C42.7448 103.686 44.084 103.686 44.0766 102.821C44.0544 100.3 44.8165 97.765 44.0544 95.2961C43.8028 94.4756 42.508 94.823 42.767 95.6509H42.7596Z" fill="white"/>
<path d="M124.328 20.6381C127.568 20.8081 130.543 22.39 133.355 23.8906C134.117 24.2971 134.79 23.144 134.028 22.7374C131.002 21.126 127.813 19.485 124.328 19.3076C123.462 19.2632 123.469 20.6012 124.328 20.6455V20.6381Z" fill="white"/>
<path d="M131.86 24.3415C129.477 23.7206 127.546 21.9835 124.994 21.9761C124.128 21.9761 124.128 23.3066 124.994 23.314C127.361 23.314 129.27 25.0511 131.505 25.6277C132.341 25.842 132.696 24.5558 131.86 24.3415Z" fill="white"/>
<path d="M126.007 25.0732C125.238 24.6888 124.564 25.842 125.334 26.2263C126.806 26.9655 128.109 27.9117 129.211 29.1314C129.788 29.7744 130.735 28.8209 130.158 28.1852C128.982 26.8916 127.576 25.8568 126.007 25.0732Z" fill="white"/>
<path d="M117.306 193.357C113.739 193.497 110.669 192.041 107.45 190.71C106.651 190.378 106.311 191.671 107.095 191.997C110.432 193.379 113.614 194.842 117.306 194.695C118.164 194.658 118.171 193.327 117.306 193.357Z" fill="white"/>
<path d="M114.627 190.925C115.397 191.317 116.07 190.163 115.301 189.772C113.828 189.025 112.289 188.419 110.95 187.436C110.255 186.918 109.589 188.079 110.277 188.589C111.609 189.579 113.155 190.178 114.627 190.925Z" fill="white"/>
<path d="M116.122 187.317C116.929 187.621 117.276 186.327 116.477 186.031C116.314 185.972 115.915 185.713 115.767 185.536C115.227 184.863 114.287 185.817 114.82 186.482C115.108 186.837 115.693 187.162 116.115 187.325L116.122 187.317Z" fill="white"/>
<path d="M197.949 40.9288C203.158 43.8855 206.51 49.252 210.084 53.872C210.609 54.552 211.549 53.5985 211.031 52.9258C207.368 48.2024 203.95 42.7915 198.622 39.7683C197.868 39.3395 197.194 40.5001 197.949 40.9214V40.9288Z" fill="white"/>
<path d="M204.26 41.7124C208.603 44.2034 211.4 48.816 214.227 52.7928C214.722 53.4876 215.884 52.8224 215.381 52.1201C212.429 47.9511 209.484 43.1686 204.933 40.5592C204.186 40.1305 203.513 41.2836 204.26 41.7124Z" fill="white"/>
</g>
<defs>
<clipPath id="clip0_271_908">
<rect width="225" height="208" fill="white"/>
</clipPath>
</defs>
</svg>
