<svg width="225" height="208" viewBox="0 0 225 208" fill="none" xmlns="http://www.w3.org/2000/svg">
<g clip-path="url(#clip0_385_2315)">
<path d="M224.334 107.337C224.704 107.337 225 107.042 225 106.672C225 106.303 224.704 106.007 224.334 106.007H213.317C212.895 79.0561 200.924 54.0642 180.517 36.8707C184.305 32.2655 188.093 27.653 191.882 23.0405C192.304 22.5304 192.422 22.0352 191.823 21.6138C186.998 18.2284 182.182 14.8429 177.357 11.4574C176.432 10.8069 174.538 11.4352 174.013 12.3518C171.238 17.1344 168.456 21.9169 165.682 26.6995C152.578 19.6033 137.853 16.0552 123.018 15.8851V0.665269C123.018 0.295675 122.722 0 122.352 0C121.982 0 121.686 0.295675 121.686 0.665269V15.8556C112.874 15.8704 104.047 17.0678 95.5082 19.448C78.5494 24.1714 63.4996 33.8844 51.92 46.8054C49.3895 44.8465 46.822 42.9246 44.5504 40.6405C43.7143 39.7979 40.0814 41.2097 40.9249 42.0672C43.6107 44.7726 46.7184 46.968 49.6928 49.326C47.2733 52.2236 45.0388 55.2838 42.9818 58.4623C42.9004 58.4032 42.819 58.3515 42.745 58.2997C39.6226 56.1043 36.3078 54.1824 33.178 51.9944C32.1495 51.2774 28.6867 52.8223 29.5598 53.4285C32.3049 55.3504 35.1831 57.0801 37.9652 58.9428C38.5127 59.3124 39.9556 60.1329 41.317 61.0939C39.4746 64.1393 37.795 67.2882 36.3004 70.5407C31.1506 81.7689 28.6201 93.8768 28.5091 106.007H17.4696C17.0997 106.007 16.8037 106.303 16.8037 106.672C16.8037 107.042 17.0997 107.337 17.4696 107.337H28.5091C28.5979 124.058 33.2594 140.756 42.0347 155.178C59.0749 183.193 90.0329 198.442 121.679 198.102V207.327C121.679 207.697 121.975 207.993 122.345 207.993C122.715 207.993 123.011 207.697 123.011 207.327V198.08C130.809 197.888 138.638 196.757 146.303 194.628C185.393 183.747 212.54 147.542 213.31 107.337H224.334ZM209.418 105.999H173.628C173.11 90.5061 166.118 76.8829 155.234 67.6209C162.966 58.2184 170.698 48.8159 178.423 39.4135C197.653 56.0156 208.737 80.5714 209.425 105.999H209.418ZM169.707 105.999H130.499C130.203 103.775 129.285 102.023 127.99 100.751C136.351 90.5874 144.705 80.4162 153.066 70.2524C162.862 79.3 169.115 92.2432 169.707 106.007V105.999ZM187.894 23.0109C187.894 23.0109 187.96 23.0479 187.997 23.07C187.923 23.1661 187.842 23.2548 187.768 23.3509C187.62 23.3435 187.465 23.3214 187.317 23.3066C187.376 23.2548 187.435 23.1957 187.494 23.144C187.598 23.07 187.65 22.9666 187.664 22.8483C187.738 22.9 187.812 22.9518 187.894 23.0035V23.0109ZM175.337 24.7776C174.427 25.6498 173.547 26.5886 172.696 27.5791C172.341 27.4312 171.46 27.5273 170.639 27.7491C171.527 26.3446 174.309 22.2126 176.122 19.5219C175.73 21.2812 175.456 23.0109 175.337 24.7702V24.7776ZM145.482 70.8659C144.505 72.1447 143.566 73.4383 142.663 74.7614C142.056 75.5006 141.449 76.2324 140.835 76.9716C140.65 76.9716 140.443 77.0012 140.221 77.0381C140.347 76.8238 140.473 76.6094 140.598 76.3876C142.13 74.4805 143.81 72.6547 145.489 70.8659H145.482ZM180.931 29.9223C180.931 29.9223 180.872 29.9741 180.85 30.0036C180.85 29.9814 180.85 29.9519 180.85 29.9297C181.146 29.4344 181.449 28.9244 181.767 28.3996C182.404 27.7861 183.04 27.1799 183.691 26.5812C183.328 27.3869 182.315 28.4365 180.939 29.9223H180.931ZM133.081 89.316C133.303 89.2643 133.51 89.1978 133.695 89.1238C133.118 89.8261 132.541 90.5283 131.964 91.2305C132.334 90.5948 132.704 89.9517 133.074 89.316H133.081ZM123.188 108.757C123.07 108.439 123.026 108.121 123.026 107.811C123.077 107.811 123.129 107.788 123.174 107.774C123.277 108.01 123.396 108.239 123.506 108.468C123.41 108.572 123.299 108.661 123.188 108.757ZM119.252 105.098C119.37 105.401 119.481 105.704 119.592 106.014H118.823C118.645 105.297 118.512 104.58 118.431 103.848C118.727 104.255 119 104.669 119.259 105.098H119.252ZM118.357 109.585C118.63 110.324 118.912 111.048 119.215 111.765C118.49 111.433 118.32 110.516 118.357 109.585ZM116.766 106.007C116.722 105.859 116.685 105.711 116.64 105.563C116.721 105.711 116.803 105.859 116.877 106.007H116.773H116.766ZM120.65 111.846C120.65 111.81 120.65 111.773 120.643 111.736C120.258 110.494 119.807 109.259 119.4 108.017C119.489 108.054 119.592 108.084 119.703 108.106C119.896 108.158 120.11 108.187 120.34 108.195C120.68 109.193 121.028 110.183 121.464 111.144C121.516 111.263 121.59 111.336 121.672 111.388V111.477C121.346 111.647 121.006 111.773 120.643 111.854L120.65 111.846ZM126.259 105.201C126.348 105.467 126.437 105.733 126.496 106.007H126.155C126.207 105.741 126.244 105.467 126.259 105.201ZM120.354 100.833C120.362 101.128 120.384 101.417 120.406 101.705C120.206 101.431 120.007 101.15 119.807 100.87C119.985 100.84 120.17 100.84 120.354 100.825V100.833ZM117.01 102.311C117.01 102.518 117.01 102.718 117.01 102.924C116.988 103.124 116.966 103.324 116.951 103.523C116.803 103.301 116.655 103.08 116.485 102.873C116.648 102.673 116.818 102.488 117.003 102.311H117.01ZM116.906 111.056C116.958 111.189 117.01 111.314 117.054 111.447C116.951 111.329 116.832 111.226 116.736 111.1C116.795 111.092 116.855 111.078 116.906 111.056ZM121.679 112.918V113.244C121.368 113.273 121.065 113.31 120.732 113.295C120.665 113.295 120.613 113.273 120.554 113.266C120.902 113.214 121.279 113.088 121.686 112.926L121.679 112.918ZM123.018 112.201C123.891 111.61 124.631 110.856 125.179 110.006C125.438 109.91 125.63 109.681 125.608 109.355C125.689 109.252 125.734 109.119 125.719 108.978C125.933 108.454 126.067 107.907 126.126 107.345H126.651C126.466 109.858 125.208 112.105 123.018 112.94V112.209V112.201ZM172.208 42.2889C172.037 42.2889 171.838 42.3037 171.623 42.3333C173.155 40.7514 174.642 39.1252 176.077 37.4546C176.1 37.4694 176.122 37.4916 176.144 37.5064C174.834 39.103 173.525 40.6923 172.215 42.2889H172.208ZM134.901 79.6918C133.836 81.185 132.903 82.7373 132.171 84.393C129.441 89.0943 126.71 93.7955 123.98 98.4893C123.662 98.4007 123.344 98.3341 123.018 98.275V57.5827C130.713 57.8858 137.883 60.0812 144.187 63.7032C141.094 69.0327 137.994 74.3623 134.901 79.6918ZM121.686 98.1271C117.077 97.9128 112.238 100.603 111.35 105.999H72.0604C72.053 79.0709 95.0347 57.2723 121.686 57.5457V98.1271ZM111.224 107.337C111.061 112.334 115.9 116.452 120.747 116.193C121.065 116.178 121.376 116.149 121.686 116.104V156.516C121.05 156.53 120.414 156.545 119.77 156.53C93.2811 156.057 72.8003 133.002 72.0752 107.345H111.224V107.337ZM123.026 115.838C127.043 114.811 130.136 111.676 130.565 107.337H169.773C169.248 133.63 149.255 155.244 123.033 156.471V115.838H123.026ZM164.12 29.3975C157.972 39.9827 151.823 50.5752 145.674 61.1604C138.889 57.5975 131.216 55.4538 123.026 55.099V17.6814C137.328 18.2653 151.512 22.3087 164.12 29.3975ZM32.4233 102.791C32.8524 88.7025 36.8701 75.1384 43.6329 63.1118C43.9807 63.5553 44.1953 63.9767 44.1509 64.3537C44.0029 65.6916 47.88 64.9302 48.0058 63.7919C48.1538 62.454 46.8294 61.1604 45.4087 60.1033C47.3399 56.9544 49.4635 53.9237 51.7572 51.0335C52.1641 51.3809 52.5637 51.7283 52.9558 52.0905C53.8437 52.9037 57.4323 51.4548 56.5814 50.6639C55.7231 49.873 54.8352 49.1338 53.9325 48.402C61.3169 39.7831 70.3142 32.4873 80.4584 27.106C93.3107 20.2907 107.524 17.2748 121.664 17.637V55.0473C121.664 55.0473 121.627 55.0473 121.605 55.0473C94.0358 54.552 70.7063 76.4542 68.2646 103.538C68.1906 104.366 68.1388 105.186 68.1093 106.007H32.3715C32.3715 104.935 32.3715 103.871 32.4085 102.799L32.4233 102.791ZM70.6915 180.317C46.7184 163.797 32.9412 136.077 32.4085 107.337H68.1019C67.7689 134.318 89.8775 156.501 116.477 158.896C118.224 159.051 119.955 159.118 121.679 159.095V196.424C103.714 196.291 85.7562 190.696 70.6915 180.317ZM164.416 185.3C151.623 192.728 137.335 196.328 123.018 196.432V159.044C147.79 158.038 169.122 138.79 173.14 114.175C173.51 111.913 173.606 109.622 173.658 107.337H209.462C209.462 107.411 209.462 107.485 209.462 107.552C209.137 139.596 192.215 169.148 164.424 185.292L164.416 185.3Z" fill="black"/>
<path d="M3.87715 117.671C3.87715 116.673 -0.00738857 117.353 1.05568e-05 118.706C0.147993 144.563 7.75429 167.655 24.2025 187.724C24.9499 188.633 28.6642 187.31 27.8207 186.283C11.4391 166.295 4.02513 143.365 3.87715 117.671Z" fill="black"/>
<path d="M37.4103 91.6223C36.0784 94.823 35.5457 98.7185 35.3829 102.156C35.3385 103.021 36.6778 103.013 36.7222 102.156C36.8849 98.8442 37.4251 95.0669 38.7051 91.9771C39.0381 91.1788 37.7432 90.8388 37.4177 91.6223H37.4103Z" fill="black"/>
<path d="M39.0595 95.141C38.9633 97.3512 38.29 99.6131 38.3936 101.823C38.4306 102.681 39.7699 102.688 39.7329 101.823C39.6293 99.6131 40.31 97.3585 40.3988 95.141C40.4358 94.2761 39.0965 94.2835 39.0595 95.141Z" fill="black"/>
<path d="M42.7591 95.6509C43.4842 97.9868 42.7073 100.441 42.7369 102.821C42.7443 103.686 44.0835 103.686 44.0761 102.821C44.0539 100.3 44.816 97.765 44.0539 95.2961C43.8024 94.4756 42.5075 94.823 42.7665 95.6509H42.7591Z" fill="black"/>
<path d="M124.327 20.6383C127.568 20.8083 130.542 22.3901 133.354 23.8907C134.116 24.2972 134.79 23.1441 134.027 22.7375C131.001 21.1261 127.812 19.4851 124.327 19.3077C123.461 19.2634 123.469 20.6013 124.327 20.6456V20.6383Z" fill="black"/>
<path d="M131.859 24.3415C129.477 23.7206 127.546 21.9835 124.993 21.9761C124.127 21.9761 124.127 23.3066 124.993 23.314C127.361 23.314 129.27 25.0511 131.504 25.6277C132.34 25.842 132.696 24.5558 131.859 24.3415Z" fill="black"/>
<path d="M126.007 25.0735C125.238 24.6891 124.564 25.8422 125.334 26.2266C126.806 26.9658 128.109 27.9119 129.211 29.1316C129.788 29.7747 130.735 28.8211 130.158 28.1854C128.982 26.8919 127.576 25.857 126.007 25.0735Z" fill="black"/>
<path d="M117.306 193.357C113.74 193.497 110.669 192.041 107.451 190.71C106.651 190.378 106.311 191.671 107.095 191.997C110.432 193.379 113.614 194.843 117.306 194.695C118.164 194.658 118.172 193.327 117.306 193.357Z" fill="black"/>
<path d="M114.627 190.925C115.397 191.316 116.07 190.163 115.301 189.771C113.828 189.025 112.289 188.419 110.95 187.436C110.255 186.918 109.589 188.079 110.277 188.589C111.609 189.579 113.155 190.178 114.627 190.925Z" fill="black"/>
<path d="M116.122 187.317C116.928 187.62 117.276 186.327 116.477 186.031C116.314 185.972 115.914 185.713 115.766 185.536C115.226 184.863 114.287 185.817 114.819 186.482C115.108 186.837 115.692 187.162 116.114 187.325L116.122 187.317Z" fill="black"/>
<path d="M197.948 40.9289C203.157 43.8856 206.509 49.2521 210.083 53.872C210.608 54.5521 211.548 53.5985 211.03 52.9259C207.368 48.2025 203.949 42.7916 198.622 39.7683C197.867 39.3396 197.194 40.5001 197.948 40.9215V40.9289Z" fill="black"/>
<path d="M204.26 41.7124C208.603 44.2035 211.4 48.816 214.227 52.7928C214.722 53.4877 215.884 52.8224 215.381 52.1202C212.429 47.9512 209.484 43.1686 204.933 40.5593C204.186 40.1306 203.513 41.2837 204.26 41.7124Z" fill="black"/>
</g>
<defs>
<clipPath id="clip0_385_2315">
<rect width="225" height="208" fill="white"/>
</clipPath>
</defs>
</svg>
