<svg width="221" height="258" viewBox="0 0 221 258" fill="none" xmlns="http://www.w3.org/2000/svg">
<g clip-path="url(#clip0_216_1184)">
<path d="M104.439 256.577C114.354 252.402 196.326 226.548 205.361 170.927C224.573 52.5698 223.6 54.0113 215.612 50.9036C207.625 47.7771 123.37 -1.02967 115.008 1.04178e-05C106.067 1.14202 4.5644 35.6643 3.87226 39.0529C3.36718 41.5241 2.31961 43.7894 2.24478 46.4291C-0.542506 164.767 -15.0588 198.428 89.0061 255.529C94.1317 258.337 99.1077 258.805 104.42 256.558L104.439 256.577ZM8.41796 150.071C9.0914 132.922 11.0556 59.3282 9.05399 42.4602C8.77339 40.12 9.11011 41.0935 25.5345 35.5894C119.966 3.96895 114.054 4.69909 117.889 6.66484C123.108 9.36072 203.247 50.604 213.648 55.4716C216.623 56.857 214.621 54.5355 209.196 91.3231C197.112 173.136 203.696 171.694 183.531 197.642C164.356 222.298 104.982 255.023 92.5791 248.508C56.4379 229.562 6.84661 190.715 8.41796 150.071Z" fill="white"/>
<path d="M170.155 181.467C182.221 165.572 181.679 155.5 185.85 126.276C196.008 55.2844 198.178 67.2661 178.087 56.1643C157.716 44.894 136.97 34.3164 116.823 22.6155C115.139 21.6233 113.531 21.5296 111.716 22.2972C25.1978 58.6917 28.7147 43.3027 28.5276 66.6296C27.8168 149.229 26.4512 153.291 33.3726 167.089C46.6543 193.505 67.5496 212.02 93.5892 225.125C109.696 233.232 154.461 202.135 170.137 181.486L170.155 181.467ZM97.4428 218.76C67.3626 204.85 39.0407 177.105 33.1481 144.174C32.7366 141.89 32.7927 143.968 34.0835 98.456C35.2994 52.6072 33.5597 54.8351 36.6463 53.8428C54.3989 48.1515 109.696 28.7936 109.901 28.7187C115.195 26.3411 114.41 27.5954 168.341 55.8273C188.338 66.2926 188.507 65.0195 187.983 68.4455C181.828 108.453 180.968 124.909 177.301 150.707C171.689 190.397 106.983 223.159 97.4428 218.76Z" fill="white"/>
<path d="M62.555 221.325C18.557 187.589 19.7917 168.905 16.4058 167.931C17.0792 182.309 53.0146 223.833 71.1787 230.873C69.121 226.904 67.6245 225.2 62.555 221.325Z" fill="white"/>
<path d="M128.645 17.6917C152.796 31.6579 193.258 51.9145 193.445 51.9894C195.054 52.5885 195.559 50.7351 194.249 50.0424C179.322 42.067 156.724 29.2429 129.319 16.0068C124.212 13.5356 123.127 14.5091 128.645 17.6917Z" fill="white"/>
<path d="M78.9045 234.879C81.2429 238.099 81.8602 238.455 85.4893 238.736C83.3941 235.553 81.7479 234.598 78.9045 234.879Z" fill="white"/>
<path d="M201.452 56.5762C204.201 56.3889 203.659 54.3857 201.264 53.6556C199.319 53.0752 198.458 56.0332 201.452 56.5762Z" fill="white"/>
<path d="M128.833 113.639C145.032 90.3309 154.592 85.5382 156.986 83.1419C159.025 81.0825 158.295 77.7688 154.386 77.8624C150.308 77.956 133.229 91.9222 119.872 109.745C95.6657 141.983 99.2387 150.165 97.2558 140.954C91.9057 116.035 91.9805 111.318 88.0147 109.277C84.0115 107.236 79.8212 106.469 75.4438 107.779C65.23 110.831 65.8848 107.555 93.6454 172.724C95.8902 178.003 104.458 176.393 102.699 170.065C99.5941 158.851 122.192 123.224 128.851 113.639H128.833Z" fill="white"/>
<path d="M106.478 207.284C90.9328 212.732 138.878 204.344 156.256 176.375C150.981 179.389 139.177 195.807 106.478 207.284Z" fill="white"/>
<path d="M47.5149 57.0629C49.0862 59.5154 87.229 44.22 89.5674 42.4415C84.8907 42.1606 54.268 52.9629 47.5149 57.0629Z" fill="white"/>
<path d="M160.054 173.679C162.28 173.81 164.787 168.418 162.486 168.905C159.362 169.56 157.323 173.023 160.054 173.679Z" fill="white"/>
<path d="M96.5447 40.7191C98.4902 41.3744 100.043 38.5849 98.0974 38.2853C95.7778 37.9109 95.3101 40.3072 96.5447 40.7191Z" fill="white"/>
</g>
<defs>
<clipPath id="clip0_216_1184">
<rect width="221" height="258" fill="white"/>
</clipPath>
</defs>
</svg>
