<svg width="221" height="258" viewBox="0 0 221 258" fill="none" xmlns="http://www.w3.org/2000/svg">
<g clip-path="url(#clip0_377_634)">
<path d="M104.439 256.577C114.354 252.402 196.326 226.548 205.361 170.927C224.573 52.5697 223.6 54.0113 215.613 50.9035C207.625 47.777 123.37 -1.02973 115.009 -5.06174e-05C106.067 1.14196 4.56465 35.6643 3.8725 39.0528C3.36742 41.5241 2.31985 43.7894 2.24502 46.4291C-0.542262 164.767 -15.0586 198.428 89.0063 255.529C94.132 258.337 99.1079 258.805 104.421 256.558L104.439 256.577ZM8.41821 150.071C9.09165 132.922 11.0558 59.3282 9.05423 42.4601C8.77363 40.12 9.11035 41.0935 25.5348 35.5894C119.966 3.96889 114.054 4.69903 117.889 6.66478C123.108 9.36066 203.248 50.604 213.649 55.4715C216.623 56.8569 214.621 54.5355 209.196 91.3231C197.112 173.136 203.697 171.694 183.531 197.642C164.357 222.298 104.982 255.023 92.5793 248.508C56.4381 229.562 6.84685 190.715 8.41821 150.071Z" fill="black"/>
<path d="M170.155 181.467C182.221 165.573 181.678 155.5 185.85 126.276C196.007 55.2846 198.177 67.2663 178.087 56.1645C157.715 44.8942 136.969 34.3166 116.822 22.6157C115.139 21.6235 113.53 21.5299 111.715 22.2974C25.1974 58.6919 28.7142 43.3029 28.5271 66.6298C27.8163 149.229 26.4507 153.291 33.3721 167.089C46.6538 193.505 67.5491 212.02 93.5888 225.125C109.695 233.232 154.46 202.135 170.136 181.486L170.155 181.467ZM97.4423 218.76C67.3621 204.85 39.0402 177.105 33.1477 144.174C32.7361 141.89 32.7922 143.968 34.083 98.4562C35.2989 52.6074 33.5592 54.8353 36.6458 53.843C54.3984 48.1517 109.695 28.7938 109.901 28.7189C115.195 26.3413 114.409 27.5956 168.34 55.8275C188.338 66.2928 188.506 65.0197 187.982 68.4458C181.828 108.453 180.967 124.91 177.301 150.708C171.689 190.397 106.983 223.16 97.4423 218.76Z" fill="black"/>
<path d="M62.5545 221.325C18.5565 187.589 19.7912 168.905 16.4053 167.931C17.0787 182.309 53.0141 223.833 71.1783 230.873C69.1205 226.904 67.624 225.2 62.5545 221.325Z" fill="black"/>
<path d="M128.646 17.6917C152.796 31.6579 193.258 51.9145 193.445 51.9893C195.054 52.5884 195.559 50.735 194.25 50.0423C179.322 42.067 156.724 29.2428 129.319 16.0068C124.212 13.5355 123.127 14.509 128.646 17.6917Z" fill="black"/>
<path d="M78.9043 234.879C81.2426 238.099 81.8599 238.455 85.489 238.736C83.3939 235.553 81.7477 234.598 78.9043 234.879Z" fill="black"/>
<path d="M201.452 56.5762C204.202 56.389 203.659 54.3858 201.265 53.6556C199.319 53.0753 198.459 56.0333 201.452 56.5762Z" fill="black"/>
<path d="M128.833 113.639C145.032 90.3308 154.592 85.5381 156.986 83.1417C159.025 81.0824 158.295 77.7687 154.386 77.8623C150.308 77.9559 133.229 91.9221 119.872 109.745C95.6657 141.983 99.2387 150.164 97.2558 140.954C91.9057 116.035 91.9805 111.317 88.0147 109.277C84.0115 107.236 79.8212 106.469 75.4438 107.779C65.23 110.831 65.8848 107.554 93.6454 172.724C95.8902 178.003 104.458 176.393 102.699 170.065C99.5941 158.851 122.192 123.224 128.851 113.639H128.833Z" fill="black"/>
<path d="M106.478 207.284C90.9328 212.732 138.878 204.344 156.256 176.375C150.981 179.389 139.177 195.807 106.478 207.284Z" fill="black"/>
<path d="M47.5146 57.0628C49.086 59.5154 87.2288 44.2199 89.5671 42.4414C84.8905 42.1606 54.2677 52.9628 47.5146 57.0628Z" fill="black"/>
<path d="M160.054 173.679C162.28 173.81 164.787 168.418 162.486 168.905C159.362 169.56 157.323 173.023 160.054 173.679Z" fill="black"/>
<path d="M96.5445 40.719C98.49 41.3742 100.043 38.5847 98.0971 38.2852C95.7775 37.9107 95.3099 40.3071 96.5445 40.719Z" fill="black"/>
</g>
<defs>
<clipPath id="clip0_377_634">
<rect width="221" height="258" fill="white"/>
</clipPath>
</defs>
</svg>
