<svg width="183" height="226" viewBox="0 0 183 226" fill="none" xmlns="http://www.w3.org/2000/svg">
<mask id="mask0_50_3" style="mask-type:luminance" maskUnits="userSpaceOnUse" x="2" y="51" width="178" height="173">
<path d="M91.3765 223.062C140.322 223.062 180 184.66 180 137.288C180 89.9167 140.322 51.5145 91.3765 51.5145C42.431 51.5145 2.75293 89.9167 2.75293 137.288C2.75293 184.66 42.431 223.062 91.3765 223.062Z" fill="white"/>
</mask>
<g mask="url(#mask0_50_3)">
<path d="M150.328 105.941C151.771 104.664 153.525 103.612 155.539 102.865C161.553 100.637 168.462 95.8483 174.621 100.111C179.134 103.235 184.391 109.516 183.548 115.31C182.964 119.328 179.774 122.428 176.762 125.205C169.775 131.644 155.304 131.838 149.037 124.078C143.99 117.827 145.188 110.485 150.325 105.944L150.328 105.941Z" fill="#FF8373" stroke="white" stroke-width="2.06" stroke-miterlimit="10"/>
<path d="M160.393 112.512C161.835 111.235 163.589 110.183 165.603 109.435C171.617 107.208 178.527 102.419 184.686 106.682C189.199 109.806 194.456 116.087 193.612 121.881C193.029 125.898 189.838 128.998 186.826 131.776C179.84 138.215 165.369 138.409 159.101 130.649C154.054 124.398 155.253 117.056 160.389 112.515L160.393 112.512Z" fill="#FF8373" stroke="white" stroke-width="2.06" stroke-miterlimit="10"/>
<path d="M171.583 121.725C173.025 120.449 174.78 119.396 176.794 118.649C182.808 116.422 189.717 111.633 195.876 115.896C200.389 119.02 205.646 125.3 204.803 131.094C204.219 135.112 201.028 138.212 198.017 140.989C191.03 147.429 176.559 147.623 170.292 139.862C165.245 133.611 166.443 126.269 171.58 121.728L171.583 121.725Z" fill="#FF8373" stroke="white" stroke-width="2.06" stroke-miterlimit="10"/>
<path d="M181.794 130.843C183.236 129.566 184.991 128.514 187.005 127.767C193.019 125.54 199.928 120.751 206.087 125.013C210.6 128.137 215.857 134.418 215.014 140.212C214.43 144.23 211.239 147.33 208.228 150.107C201.241 156.546 186.77 156.741 180.503 148.98C175.456 142.729 176.654 135.387 181.791 130.846L181.794 130.843Z" fill="#FF8373" stroke="white" stroke-width="2.06" stroke-miterlimit="10"/>
<path d="M130.956 106.99C132.531 105.597 134.449 104.443 136.648 103.63C143.218 101.196 150.767 95.9649 157.495 100.622C162.424 104.036 168.166 110.897 167.249 117.223C166.613 121.611 163.125 124.999 159.836 128.03C152.203 135.064 136.395 135.276 129.547 126.798C124.034 119.97 125.343 111.947 130.956 106.987V106.99Z" fill="#FF8373" stroke="white" stroke-width="2.25" stroke-miterlimit="10"/>
<path d="M141.949 114.168C143.524 112.775 145.442 111.621 147.641 110.808C154.211 108.374 161.76 103.143 168.488 107.8C173.417 111.214 179.16 118.075 178.242 124.401C177.606 128.789 174.119 132.176 170.829 135.208C163.197 142.242 147.388 142.454 140.54 133.976C135.027 127.148 136.337 119.124 141.949 114.165V114.168Z" fill="#FF8373" stroke="white" stroke-width="2.25" stroke-miterlimit="10"/>
<path d="M154.177 124.233C155.753 122.84 157.671 121.686 159.87 120.873C166.44 118.44 173.989 113.208 180.716 117.866C185.646 121.28 191.388 128.14 190.471 134.466C189.834 138.855 186.347 142.242 183.058 145.273C175.425 152.307 159.617 152.52 152.769 144.041C147.255 137.214 148.565 129.19 154.177 124.23V124.233Z" fill="#FF8373" stroke="white" stroke-width="2.25" stroke-miterlimit="10"/>
<path d="M165.331 134.194C166.906 132.801 168.824 131.647 171.023 130.834C177.593 128.401 185.142 123.169 191.87 127.827C196.799 131.241 202.541 138.101 201.624 144.427C200.988 148.816 197.5 152.203 194.211 155.234C186.578 162.268 170.77 162.48 163.922 154.002C158.409 147.174 159.718 139.151 165.331 134.191V134.194Z" fill="#FF8373" stroke="white" stroke-width="2.25" stroke-miterlimit="10"/>
<path d="M178.146 147.491C179.721 146.098 181.64 144.944 183.839 144.131C190.409 141.698 197.958 136.466 204.685 141.124C209.615 144.538 215.357 151.399 214.439 157.724C213.803 162.113 210.316 165.5 207.026 168.531C199.394 175.565 183.585 175.778 176.738 167.299C171.224 160.472 172.534 152.448 178.146 147.488V147.491Z" fill="#FF8373" stroke="white" stroke-width="2.25" stroke-miterlimit="10"/>
<path d="M110.601 109.501C112.325 107.98 114.416 106.721 116.822 105.83C123.997 103.169 132.244 97.4566 139.596 102.545C144.982 106.273 151.253 113.77 150.249 120.682C149.554 125.477 145.745 129.178 142.15 132.49C133.813 140.173 116.541 140.406 109.063 131.145C103.043 123.686 104.473 114.921 110.601 109.504V109.501Z" fill="#FF8373" stroke="white" stroke-width="2.46" stroke-miterlimit="10"/>
<path d="M122.61 117.34C124.333 115.818 126.424 114.559 128.831 113.668C136.006 111.011 144.253 105.295 151.604 110.383C156.991 114.111 163.261 121.608 162.258 128.52C161.563 133.315 157.754 137.016 154.159 140.329C145.822 148.011 128.55 148.245 121.072 138.983C115.052 131.525 116.482 122.759 122.61 117.343V117.34Z" fill="#FF8373" stroke="white" stroke-width="2.46" stroke-miterlimit="10"/>
<path d="M135.965 128.335C137.689 126.813 139.78 125.555 142.186 124.664C149.361 122.003 157.608 116.29 164.96 121.378C170.347 125.106 176.617 132.604 175.613 139.515C174.918 144.311 171.11 148.011 167.514 151.324C159.178 159.007 141.905 159.24 134.427 149.979C128.407 142.52 129.837 133.755 135.965 128.338V128.335Z" fill="#FF8373" stroke="white" stroke-width="2.46" stroke-miterlimit="10"/>
<path d="M148.154 139.216C149.877 137.695 151.968 136.436 154.375 135.545C161.55 132.888 169.797 127.172 177.148 132.26C182.535 135.988 188.805 143.485 187.801 150.397C187.107 155.192 183.298 158.893 179.703 162.205C171.366 169.888 154.094 170.122 146.616 160.86C140.596 153.401 142.026 144.636 148.154 139.219V139.216Z" fill="#FF8373" stroke="white" stroke-width="2.46" stroke-miterlimit="10"/>
<path d="M162.153 153.745C163.876 152.224 165.967 150.965 168.374 150.074C175.549 147.414 183.796 141.701 191.147 146.789C196.534 150.517 202.804 158.014 201.801 164.926C201.106 169.721 197.297 173.422 193.702 176.734C185.365 184.417 168.093 184.65 160.615 175.389C154.595 167.93 156.025 159.165 162.153 153.748V153.745Z" fill="#FF8373" stroke="white" stroke-width="2.46" stroke-miterlimit="10"/>
<path d="M181.115 169.338C182.838 167.817 184.929 166.558 187.336 165.667C194.511 163.01 202.758 157.294 210.109 162.382C215.496 166.11 221.766 173.607 220.762 180.519C220.067 185.314 216.259 189.015 212.664 192.327C204.327 200.01 187.054 200.243 179.577 190.982C173.556 183.523 174.987 174.758 181.115 169.341V169.338Z" fill="#FF8373" stroke="white" stroke-width="2.46" stroke-miterlimit="10"/>
<path d="M83.9014 113.34C85.7825 111.677 88.0682 110.302 90.6936 109.331C98.5299 106.428 107.537 100.186 115.568 105.743C121.449 109.815 128.3 118.003 127.203 125.552C126.443 130.789 122.283 134.831 118.36 138.448C109.254 146.84 90.3909 147.094 82.2242 136.977C75.6481 128.831 77.2111 119.259 83.9045 113.343L83.9014 113.34Z" fill="#FF8373" stroke="white" stroke-width="2.69" stroke-miterlimit="10"/>
<path d="M97.0196 121.901C98.9006 120.239 101.186 118.864 103.812 117.893C111.648 114.99 120.655 108.748 128.686 114.305C134.567 118.377 141.418 126.565 140.321 134.113C139.561 139.351 135.401 143.393 131.478 147.01C122.372 155.401 103.509 155.656 95.3423 145.539C88.7663 137.393 90.3292 127.821 97.0226 121.904L97.0196 121.901Z" fill="#FF8373" stroke="white" stroke-width="2.69" stroke-miterlimit="10"/>
<path d="M111.605 133.91C113.486 132.248 115.771 130.873 118.397 129.901C126.233 126.999 135.24 120.756 143.271 126.314C149.152 130.386 156.003 138.574 154.906 146.122C154.146 151.36 149.986 155.401 146.063 159.019C136.957 167.41 118.094 167.664 109.927 157.548C103.351 149.402 104.914 139.829 111.608 133.913L111.605 133.91Z" fill="#FF8373" stroke="white" stroke-width="2.69" stroke-miterlimit="10"/>
<path d="M124.914 145.793C126.795 144.131 129.081 142.756 131.706 141.784C139.543 138.882 148.549 132.64 156.58 138.197C162.461 142.269 169.312 150.457 168.216 158.005C167.456 163.243 163.295 167.285 159.373 170.902C150.267 179.293 131.404 179.547 123.237 169.431C116.661 161.285 118.224 151.712 124.917 145.796L124.914 145.793Z" fill="#FF8373" stroke="white" stroke-width="2.69" stroke-miterlimit="10"/>
<path d="M140.204 161.661C142.085 159.999 144.371 158.624 146.996 157.652C154.833 154.75 163.84 148.508 171.87 154.065C177.751 158.137 184.602 166.325 183.506 173.873C182.746 179.111 178.585 183.153 174.663 186.77C165.557 195.161 146.694 195.415 138.527 185.299C131.951 177.153 133.514 167.581 140.207 161.664L140.204 161.661Z" fill="#FF8373" stroke="white" stroke-width="2.69" stroke-miterlimit="10"/>
<path d="M160.911 178.692C162.792 177.03 165.078 175.655 167.703 174.683C175.54 171.781 184.547 165.539 192.577 171.096C198.458 175.168 205.309 183.356 204.213 190.904C203.453 196.142 199.292 200.184 195.37 203.801C186.264 212.192 167.401 212.446 159.234 202.33C152.658 194.184 154.221 184.611 160.914 178.695L160.911 178.692Z" fill="#FF8373" stroke="white" stroke-width="2.69" stroke-miterlimit="10"/>
<path d="M51.3423 120.434C53.3346 118.673 55.7562 117.217 58.5361 116.186C66.8357 113.109 76.3769 106.5 84.8804 112.386C91.1105 116.7 98.366 125.369 97.2046 133.363C96.3985 138.909 91.9939 143.189 87.8363 147.022C78.1931 155.91 58.2149 156.179 49.5632 145.464C42.5979 136.837 44.2535 126.7 51.3423 120.431V120.434Z" fill="#FF8373" stroke="white" stroke-width="2.85" stroke-miterlimit="10"/>
<path d="M65.2359 129.504C67.2281 127.743 69.6497 126.287 72.4296 125.256C80.7292 122.179 90.2705 115.57 98.7739 121.456C105.004 125.77 112.26 134.439 111.098 142.433C110.292 147.979 105.887 152.259 101.73 156.092C92.0867 164.98 72.1084 165.249 63.4567 154.534C56.4915 145.907 58.1471 135.77 65.2359 129.501V129.504Z" fill="#FF8373" stroke="white" stroke-width="2.85" stroke-miterlimit="10"/>
<path d="M80.6831 142.221C82.6754 140.46 85.097 139.004 87.8769 137.973C96.1765 134.897 105.718 128.287 114.221 134.173C120.451 138.487 127.707 147.156 126.545 155.15C125.739 160.696 121.335 164.977 117.177 168.809C107.534 177.697 87.5557 177.966 78.904 167.252C71.9388 158.624 73.5943 148.487 80.6831 142.218V142.221Z" fill="#FF8373" stroke="white" stroke-width="2.85" stroke-miterlimit="10"/>
<path d="M94.7808 154.807C96.773 153.046 99.1947 151.59 101.975 150.558C110.274 147.482 119.815 140.873 128.319 146.759C134.549 151.073 141.805 159.742 140.643 167.736C139.837 173.281 135.432 177.562 131.275 181.395C121.632 190.283 101.653 190.552 93.0016 179.837C86.0364 171.21 87.692 161.072 94.7808 154.804V154.807Z" fill="#FF8373" stroke="white" stroke-width="2.85" stroke-miterlimit="10"/>
<path d="M110.975 171.61C112.967 169.849 115.389 168.394 118.169 167.362C126.468 164.286 136.01 157.676 144.513 163.563C150.743 167.876 157.999 176.546 156.837 184.54C156.031 190.085 151.627 194.366 147.469 198.199C137.826 207.086 117.848 207.355 109.196 196.641C102.231 188.014 103.886 177.876 110.975 171.607V171.61Z" fill="#FF8373" stroke="white" stroke-width="2.85" stroke-miterlimit="10"/>
<path d="M132.905 189.652C134.897 187.891 137.319 186.435 140.099 185.404C148.398 182.328 157.939 175.718 166.443 181.604C172.673 185.918 179.929 194.587 178.767 202.581C177.961 208.127 173.556 212.408 169.399 216.24C159.756 225.128 139.777 225.397 131.126 214.683C124.16 206.055 125.816 195.918 132.905 189.649V189.652Z" fill="#FF8373" stroke="white" stroke-width="2.85" stroke-miterlimit="10"/>
<path d="M17.9624 130.254C19.9547 128.493 22.3763 127.037 25.1562 126.006C33.4558 122.93 42.997 116.32 51.5005 122.206C57.7306 126.52 64.9861 135.19 63.8248 143.183C63.0186 148.729 58.614 153.01 54.4565 156.842C44.8133 165.73 24.835 165.999 16.1833 155.285C9.21805 146.657 10.8736 136.52 17.9624 130.251V130.254Z" fill="#FF8373" stroke="white" stroke-width="2.85" stroke-miterlimit="10"/>
<path d="M31.855 139.324C33.8473 137.563 36.2689 136.107 39.0488 135.076C47.3484 132 56.8896 125.39 65.3931 131.276C71.6231 135.59 78.8787 144.26 77.7173 152.254C76.9112 157.799 72.5065 162.08 68.349 165.912C58.7058 174.8 38.7275 175.069 30.0758 164.355C23.1106 155.727 24.7662 145.59 31.855 139.321V139.324Z" fill="#FF8373" stroke="white" stroke-width="2.85" stroke-miterlimit="10"/>
<path d="M47.3023 152.041C49.2945 150.28 51.7161 148.825 54.496 147.793C62.7956 144.717 72.3369 138.107 80.8403 143.994C87.0704 148.307 94.326 156.977 93.1646 164.971C92.3584 170.516 87.9538 174.797 83.7963 178.63C74.1531 187.517 54.1748 187.786 45.5231 177.072C38.5579 168.444 40.2135 158.307 47.3023 152.038V152.041Z" fill="#FF8373" stroke="white" stroke-width="2.85" stroke-miterlimit="10"/>
<path d="M61.3999 164.627C63.3922 162.866 65.8138 161.41 68.5937 160.379C76.8933 157.303 86.4345 150.693 94.938 156.579C101.168 160.893 108.424 169.563 107.262 177.556C106.456 183.102 102.051 187.383 97.894 191.215C88.2508 200.103 68.2725 200.372 59.6208 189.658C52.6556 181.03 54.3111 170.893 61.3999 164.624V164.627Z" fill="#FF8373" stroke="white" stroke-width="2.85" stroke-miterlimit="10"/>
<path d="M77.5942 181.431C79.5865 179.67 82.0081 178.214 84.788 177.183C93.0876 174.107 102.629 167.497 111.132 173.383C117.362 177.697 124.618 186.366 123.457 194.36C122.65 199.906 118.246 204.187 114.088 208.019C104.445 216.907 84.4668 217.176 75.8151 206.461C68.8499 197.834 70.5055 187.697 77.5942 181.428V181.431Z" fill="#FF8373" stroke="white" stroke-width="2.85" stroke-miterlimit="10"/>
<path d="M99.5239 199.472C101.516 197.711 103.938 196.255 106.718 195.224C115.017 192.148 124.559 185.538 133.062 191.424C139.292 195.738 146.548 204.408 145.386 212.402C144.58 217.947 140.175 222.228 136.018 226.06C126.375 234.948 106.396 235.217 97.7448 224.503C90.7796 215.875 92.4352 205.738 99.5239 199.469V199.472Z" fill="#FF8373" stroke="white" stroke-width="2.85" stroke-miterlimit="10"/>
<path d="M-17.8712 141.605C-15.8202 139.79 -13.3276 138.293 -10.4643 137.231C-1.9176 134.066 7.90166 127.262 16.6553 133.321C23.0707 137.761 30.5394 146.69 29.344 154.92C28.5162 160.63 23.9788 165.036 19.7008 168.98C9.77037 178.13 -10.7948 178.408 -19.7029 167.377C-26.875 158.496 -25.17 148.056 -17.8712 141.605Z" fill="#FF8373" stroke="white" stroke-width="2.93" stroke-miterlimit="10"/>
<path d="M-4.89855 151.587C-2.84759 149.772 -0.354939 148.275 2.50837 147.213C11.055 144.047 20.8743 137.243 29.6279 143.303C36.0434 147.742 43.5121 156.672 42.3167 164.902C41.4889 170.612 36.9515 175.018 32.6735 178.961C22.743 188.112 2.17787 188.39 -6.7302 177.359C-13.9024 168.477 -12.1974 158.038 -4.89855 151.587Z" fill="#FF8373" stroke="white" stroke-width="2.93" stroke-miterlimit="10"/>
<path d="M9.01063 164.038C11.0616 162.223 13.5542 160.726 16.4176 159.664C24.9642 156.499 34.7835 149.695 43.5371 155.754C49.9525 160.194 57.4212 169.123 56.2259 177.353C55.3981 183.063 50.8606 187.469 46.5827 191.413C36.6522 200.563 16.087 200.841 7.17898 189.81C0.00681138 180.928 1.71182 170.489 9.01063 164.038Z" fill="#FF8373" stroke="white" stroke-width="2.93" stroke-miterlimit="10"/>
<path d="M24.6425 179.491C26.6934 177.676 29.1861 176.178 32.0494 175.117C40.5961 171.951 50.4153 165.147 59.169 171.207C65.5844 175.646 73.0531 184.576 71.8577 192.806C71.0299 198.516 66.4956 202.922 62.2145 206.865C52.284 216.016 31.7189 216.294 22.8108 205.263C15.6386 196.381 17.3437 185.942 24.6425 179.491Z" fill="#FF8373" stroke="white" stroke-width="2.93" stroke-miterlimit="10"/>
<path d="M42.9403 198.808C44.9913 196.994 47.4839 195.496 50.3472 194.435C58.8939 191.269 68.7132 184.465 77.4668 190.525C83.8822 194.964 91.3509 203.894 90.1556 212.124C89.3278 217.833 84.7903 222.24 80.5124 226.183C70.5819 235.334 50.0167 235.612 41.1087 224.581C33.9365 215.699 35.6415 205.26 42.9403 198.808Z" fill="#FF8373" stroke="white" stroke-width="2.93" stroke-miterlimit="10"/>
<path d="M62.7733 219.412C64.8243 217.597 67.3169 216.1 70.1802 215.038C78.7269 211.872 88.5462 205.068 97.2998 211.128C103.715 215.567 111.184 224.497 109.989 232.727C109.161 238.437 104.626 242.843 100.345 246.786C90.4149 255.937 69.8497 256.215 60.9417 245.184C53.7695 236.302 55.4745 225.863 62.7733 219.412Z" fill="#FF8373" stroke="white" stroke-width="2.93" stroke-miterlimit="10"/>
</g>
<path d="M91.3765 223.062C140.322 223.062 180 184.66 180 137.288C180 89.9167 140.322 51.5145 91.3765 51.5145C42.431 51.5145 2.75293 89.9167 2.75293 137.288C2.75293 184.66 42.431 223.062 91.3765 223.062Z" stroke="white" stroke-width="4.4" stroke-miterlimit="10"/>
<path d="M93.6292 119.946C95.1361 135.334 93.1331 150.512 84.5404 163.967C70.1857 186.445 38.8789 185.437 25.8559 161.542C7.46079 127.795 23.463 88.5353 37.0272 57.2621C43.2164 42.9932 49.0979 28.4626 53.2417 13.0714C54.2683 9.25303 55.2021 5.39869 56.0299 1.50836C60.7812 21.1825 67.6336 39.8783 75.0935 58.1881C82.5163 76.403 91.5202 98.3773 93.6292 119.943V119.946Z" fill="#FF8373" stroke="white" stroke-width="2.25" stroke-linecap="round" stroke-linejoin="round"/>
<path d="M86.3764 104.329C84.4292 87.9594 77.2266 71.4394 71.2894 57.7464C65.3204 43.9846 59.8077 29.912 55.8815 15.0444C55.3111 18.0251 54.6638 20.9862 53.9396 23.9146C53.7883 24.5264 53.6318 25.1383 53.4727 25.7501C57.7969 38.0591 63.1477 49.7596 68.8276 61.2048C75.3988 74.4496 83.3654 90.4265 86.0793 106.629C86.448 108.828 86.7186 111.033 86.8752 113.235C86.9096 110.284 86.7292 107.306 86.3764 104.329Z" fill="white"/>
<path d="M61.4229 171.577C39.8151 171.417 23.866 151.788 24.9961 111.858C25.0757 105.51 26.0732 98.3282 27.6835 90.7569C24.7865 101.492 22.7544 112.11 22.6403 120.999V121.091C22.0912 140.422 26.4313 154.036 33.8647 163.479C39.3721 170.474 46.2776 175.808 55.1568 175.88C61.9853 175.824 68.0551 173.593 73.0001 169.388C69.3948 170.818 65.5083 171.548 61.4202 171.577H61.4229Z" fill="white"/>
<path d="M155.513 58.2139C156.336 64.5276 155.242 70.7547 150.546 76.2732C142.698 85.4957 125.587 85.0802 118.466 75.2777C108.412 61.4335 117.158 45.3263 124.573 32.4955C127.955 26.6421 131.171 20.6811 133.435 14.3674C133.997 12.8009 134.508 11.2195 134.96 9.62309C137.556 17.6947 141.303 25.3656 145.382 32.8752C149.438 40.3488 154.36 49.3621 155.513 58.2109V58.2139Z" fill="#FF8373" stroke="white" stroke-width="4.15" stroke-linecap="round" stroke-linejoin="round"/>
<path d="M151.547 51.8074C150.481 45.0901 146.547 38.313 143.298 32.6958C140.036 27.0487 137.023 21.276 134.875 15.1775C134.565 16.4002 134.21 17.6139 133.813 18.8187C133.729 19.0698 133.645 19.3209 133.558 19.572C135.922 24.6212 138.848 29.4223 141.951 34.1188C145.543 39.5536 149.899 46.1065 151.382 52.7551C151.582 53.6579 151.731 54.5607 151.818 55.4666C151.837 54.2558 151.737 53.0361 151.543 51.8134L151.547 51.8074Z" fill="white"/>
<path d="M137.905 79.3942C126.094 79.3285 117.374 71.2749 117.994 54.8926C118.04 52.2888 118.582 49.3411 119.464 46.2351C117.881 50.6386 116.77 54.9942 116.709 58.6414V58.6772C116.409 66.6083 118.782 72.1926 122.845 76.067C125.855 78.9369 129.631 81.1251 134.485 81.155C138.218 81.1311 141.535 80.2163 144.238 78.4914C142.268 79.0774 140.143 79.3763 137.908 79.3883L137.905 79.3942Z" fill="white"/>
</svg>
