<svg width="215" height="247" viewBox="0 0 215 247" fill="none" xmlns="http://www.w3.org/2000/svg">
<g clip-path="url(#clip0_385_911)">
<path d="M128.766 51.6354C129.094 51.1124 129.588 50.9954 130.163 50.861C130.767 50.7196 131.373 50.5947 131.984 50.4969C133.177 50.3049 134.394 50.2359 135.6 50.201C138.059 50.1285 140.553 50.4044 142.971 50.8304C147.786 51.679 152.506 53.4023 156.692 55.9358C158.758 57.186 160.892 58.6195 162.493 60.4467C162.805 60.802 163.029 61.3608 162.605 61.7318C162.08 62.1919 161.503 61.7039 161.065 61.3913C160.103 60.706 159.151 60.0023 158.174 59.3389C154.159 56.6107 149.691 54.5862 144.978 53.4189C142.335 52.765 139.634 52.3853 136.913 52.2988C135.538 52.2552 134.167 52.2482 132.793 52.3015C132.14 52.3268 131.487 52.3364 130.834 52.3608C130.176 52.3862 129.45 52.5485 128.893 52.1216C128.745 52.0081 128.654 51.8152 128.766 51.6362V51.6354Z" fill="black"/>
<path d="M73.1391 49.0706C73.6374 48.2883 74.8366 47.9479 75.6867 47.6938C76.6224 47.4144 77.5955 47.2634 78.5669 47.1779C80.4425 47.012 82.3216 47.1552 84.1859 47.383C86.0598 47.6126 87.9136 47.9094 89.7167 48.4821C90.5939 48.7606 91.4614 49.0924 92.2915 49.4905C93.1381 49.8956 94.0754 50.381 94.675 51.1213C94.915 51.4172 94.7012 51.914 94.2814 51.797C93.4383 51.5621 92.6676 51.1003 91.8577 50.7729C91.0285 50.4377 90.1828 50.1548 89.317 49.9296C87.6421 49.4948 85.9097 49.2233 84.185 49.1011C82.4578 48.9798 80.6956 48.9073 78.9667 49.0225C78.1227 49.0784 77.2874 49.2033 76.4705 49.425C76.0446 49.5402 75.6195 49.6773 75.2154 49.8545C74.759 50.0553 74.3784 50.3137 73.8644 50.3347C73.2386 50.36 72.803 49.5979 73.1391 49.0706Z" fill="black"/>
<path d="M89.8677 88.2915C89.9899 87.0282 90.7562 86.0618 91.5452 85.1259C92.3569 84.1638 93.1005 83.1573 93.7848 82.1009C96.4188 78.0414 98.3355 73.1787 98.8286 68.3404C98.9552 67.0999 98.9787 65.8095 98.7413 64.5803C98.6209 63.9596 98.4306 63.3537 98.1915 62.7688C97.9576 62.1979 97.5596 61.7195 97.4278 61.1223C97.3999 60.9966 97.5107 60.8613 97.646 60.9041C98.5423 61.186 99.1341 62.2904 99.4771 63.1198C99.9135 64.1735 100.136 65.3111 100.207 66.4468C100.356 68.8276 99.9222 71.258 99.3252 73.5541C98.682 76.0308 97.7062 78.4299 96.4956 80.6831C95.8978 81.7962 95.2371 82.8753 94.5127 83.9107C93.8022 84.9251 92.987 85.8575 92.2609 86.858C91.876 87.3879 91.5566 87.9466 91.5609 88.618C91.5662 89.3775 91.8332 90.1388 92.0567 90.8564C92.5271 92.3693 93.3702 93.8439 93.6451 95.4039C93.7438 95.9635 93.0883 96.4568 92.6362 95.9915C91.6831 95.0111 91.1978 93.6221 90.7492 92.358C90.3024 91.1 89.7359 89.649 89.8668 88.2915H89.8677Z" fill="black"/>
<path d="M67.5626 68.1573C67.4412 68.0045 67.5102 67.7601 67.7284 67.7575C67.9457 67.7549 68.1447 67.7723 68.3603 67.8081C68.4336 67.8203 68.4816 67.8247 68.5872 67.8299C68.6919 67.8352 68.7967 67.8334 68.9014 67.8378C68.9992 67.8422 69.0969 67.8413 69.1947 67.8361C69.247 67.8334 69.2994 67.8291 69.3518 67.8238C69.3518 67.8238 69.3701 67.8212 69.3832 67.8203C69.3989 67.8177 69.4312 67.8125 69.4364 67.8116C69.5333 67.795 69.6267 67.7671 69.7236 67.7496C69.7978 67.7365 69.8719 67.7339 69.947 67.7278C69.968 67.726 70.0613 67.7173 70.0421 67.7191C70.1434 67.7077 70.2822 67.6964 70.4 67.7226C70.4628 67.6475 70.5248 67.5715 70.5876 67.4964C70.3642 67.5392 70.1373 67.5672 69.9121 67.5558C69.5577 67.5384 69.2043 67.4772 68.8778 67.3367C68.7181 67.2677 68.5828 67.1891 68.4493 67.0765C68.321 66.9683 68.2355 66.8452 68.1403 66.7081C68.0592 66.592 68.1927 66.4497 68.3158 66.4803C68.4502 66.5134 68.5881 66.5309 68.7242 66.5588C68.8639 66.5876 69.0009 66.6234 69.1406 66.6531C69.4129 66.7107 69.6581 66.7544 69.9383 66.7509C70.2132 66.7474 70.4471 66.7256 70.7081 66.6583C70.914 66.6051 71.2003 66.516 71.4368 66.5396C71.5765 66.3956 71.7188 66.2533 71.868 66.118C71.4866 66.1214 71.1052 66.0944 70.7308 66.0193C70.3345 65.9399 69.9287 65.8054 69.5813 65.5941C69.275 65.4082 68.822 65.1035 68.8115 64.7159C68.8089 64.6242 68.9023 64.5605 68.9869 64.5823C69.1728 64.6312 69.2566 64.7351 69.3998 64.8573C69.5438 64.9813 69.7035 65.0799 69.8685 65.1725C70.2019 65.3602 70.5536 65.4903 70.928 65.5671C71.3775 65.6596 71.8409 65.671 72.2974 65.6535C72.3384 65.6518 72.3795 65.6535 72.4205 65.6518C72.739 65.3942 73.0628 65.1445 73.3945 64.9036C73.0253 64.8599 72.6587 64.77 72.3218 64.6242C71.8846 64.4348 71.4857 64.1746 71.1174 63.8726C70.9394 63.7268 70.7709 63.5687 70.6121 63.4029C70.427 63.2108 70.3555 62.9952 70.2324 62.7647C70.1844 62.6756 70.29 62.5412 70.3843 62.6128C70.5501 62.7385 70.7456 62.8101 70.9053 62.9463C71.0624 63.0816 71.216 63.2178 71.3845 63.3391C71.7327 63.5906 72.1124 63.8071 72.5182 63.9511C72.9415 64.1013 73.3657 64.2156 73.8178 64.2253C73.9915 64.2287 74.1652 64.2253 74.3389 64.2322C74.365 64.2148 74.3903 64.1973 74.4157 64.179C74.3441 64.1641 74.2725 64.1502 74.2036 64.1327C73.7838 64.0245 73.3578 63.8726 72.9799 63.6578C72.6116 63.4483 72.2642 63.1968 71.9483 62.9149C71.7833 62.7673 71.6271 62.6102 71.4822 62.4434C71.3731 62.3186 71.2309 62.0357 71.0685 61.9799C70.9385 61.9345 70.8887 61.7782 70.9882 61.6743C71.3347 61.3094 71.7362 61.9406 71.9614 62.1518C72.2817 62.4539 72.6404 62.7097 73.0262 62.9218C73.3971 63.1252 73.7881 63.3033 74.1922 63.4308C74.4026 63.4972 74.6181 63.5504 74.8311 63.6063C74.935 63.6333 75.031 63.6683 75.1305 63.7058C75.5354 63.4509 75.9509 63.2126 76.3855 63.0083C76.3532 62.9952 76.3209 62.9873 76.2887 62.9733C75.8104 62.7734 75.3565 62.5272 74.935 62.2252C74.5125 61.9222 74.1285 61.5818 73.7934 61.1828C73.631 60.9899 73.4608 60.7891 73.3439 60.5656C73.2199 60.3281 73.1143 60.0793 73.0175 59.8296C72.9197 59.5764 73.2854 59.4743 73.4224 59.6585C73.6991 60.0313 74.0255 60.3883 74.3467 60.7236C74.6583 61.0483 75.0004 61.3556 75.3679 61.6158C75.744 61.8821 76.149 62.1143 76.5749 62.2924C76.7818 62.3788 76.9904 62.4583 77.1964 62.5473C77.2487 62.57 77.295 62.6006 77.3447 62.6276C77.5394 62.5674 77.7357 62.5133 77.933 62.467C77.8544 62.4277 77.7776 62.3841 77.7026 62.3378C77.35 62.1195 77.0183 61.855 76.7102 61.5783C76.4126 61.3111 76.0879 61.0073 75.9029 60.6485C75.8034 60.4556 75.7109 60.2504 75.6777 60.0356C75.6428 59.8113 75.6192 59.5878 75.5747 59.3652C75.5555 59.2674 75.6987 59.1897 75.7467 59.2927C75.8348 59.4795 75.9326 59.6498 76.0521 59.8191C76.163 59.9763 76.259 60.1439 76.3742 60.2975C76.602 60.5987 76.8525 60.8668 77.1387 61.1129C77.4076 61.3443 77.6703 61.5931 77.9539 61.8061C78.1032 61.9187 78.2646 62.0139 78.4226 62.1125C78.5221 62.1754 78.6347 62.233 78.7089 62.3229C79.017 62.2819 79.3268 62.2514 79.6375 62.2435C79.1907 61.7695 78.8442 61.1941 78.55 60.6197C78.2978 60.1273 78.0552 59.6332 77.8989 59.1006C77.748 58.5821 77.7349 58.1133 77.8387 57.5868C77.8544 57.5074 77.9662 57.5196 77.988 57.5868C78.1363 58.0364 78.365 58.4895 78.5823 58.9095C78.7988 59.3276 79.0371 59.7362 79.2823 60.1387C79.5302 60.5437 79.7501 60.9672 80.0294 61.3522C80.2057 61.5957 80.4082 61.7887 80.6325 61.9668C80.629 61.958 80.622 61.9493 80.6185 61.9406C80.4152 61.4849 80.3087 61.0222 80.2424 60.5289C80.2075 60.2705 80.1612 59.9981 80.1752 59.7379C80.19 59.4673 80.2755 59.2298 80.3611 58.9758C80.3681 58.9557 80.4012 58.9452 80.4117 58.9688C80.4902 59.153 80.5932 59.3259 80.6569 59.5162C80.7329 59.7423 80.7687 59.9763 80.821 60.2076C80.9179 60.6302 81.0314 61.0614 81.1824 61.4683C81.3133 61.8218 81.5105 62.1527 81.7907 62.4068C81.8038 62.419 81.8195 62.4286 81.8335 62.4408C82.3344 62.5403 82.831 62.6704 83.3181 62.8354C83.2543 62.7219 83.1854 62.6119 83.1269 62.4958C82.9986 62.2383 82.8904 61.979 82.8136 61.7014C82.7769 61.5687 82.7333 61.4316 82.7377 61.2928C82.7411 61.147 82.7612 61.0003 82.7726 60.8545C82.7743 60.8301 82.8118 60.8126 82.8241 60.8406C82.8773 60.9654 82.9428 61.0798 83.017 61.1933C83.0885 61.3024 83.1269 61.4272 83.1793 61.5468C83.2928 61.8035 83.4193 62.0584 83.552 62.3046C83.6838 62.5482 83.8278 62.7856 83.9788 63.0179C83.9962 63.0449 84.0163 63.0737 84.0381 63.1026C85.2172 63.5818 86.33 64.2261 87.3049 64.9682C88.9676 66.2341 90.8441 67.6841 91.8696 69.5358C91.9263 69.638 91.8129 69.7514 91.7108 69.6947C90.0891 68.7955 88.9091 67.2869 87.4184 66.1965C87.1339 65.9879 86.8406 65.7871 86.5439 65.5906C86.6669 65.9652 86.68 66.3633 86.6189 66.75C86.5578 67.1394 86.3781 67.4746 86.138 67.7819C86.0953 67.8369 86.0473 67.8902 85.9984 67.9426C86.1057 67.9609 86.2131 67.9783 86.3196 68.001C87.4044 68.2298 88.6342 68.6383 89.3403 69.5393C89.4049 69.6214 89.349 69.7942 89.2216 69.7427C88.0564 69.2713 87.0003 68.8199 85.7322 68.6977C84.3052 68.5598 82.8782 68.7178 81.4555 68.8357C80.0512 68.9518 78.6286 68.9963 77.2199 68.9919C76.3026 68.9893 75.0449 68.8889 74.5937 67.9391C74.5178 67.7784 74.6461 67.5471 74.8442 67.6134C75.333 67.7784 75.7746 67.926 76.2913 67.9792C76.5767 68.0089 76.8621 68.0203 77.1475 68.0237C76.7643 67.4458 76.6997 66.6549 76.7827 65.9713C76.8525 65.3942 76.9747 64.7945 77.2269 64.2672C77.2749 64.1659 77.3325 64.0699 77.3901 63.9738C77.3613 63.9852 77.3316 63.9939 77.3028 64.0053C76.4484 64.3658 75.6725 64.9062 74.9184 65.4396C74.1521 65.9809 73.3727 66.5187 72.6867 67.163C71.9893 67.8177 71.4691 68.6148 70.8783 69.3595C70.2743 70.1216 69.6284 70.6559 68.7164 70.9929C68.04 71.2426 67.7581 70.2753 68.2599 69.9095C68.7583 69.5463 69.1851 69.122 69.5865 68.6741C69.3745 68.7117 69.1563 68.7239 68.9477 68.7204C68.4554 68.7126 67.8776 68.5484 67.5626 68.153V68.1573Z" fill="black"/>
<path d="M123.265 71.0382C123.777 70.9893 124.288 71.0059 124.799 70.9221C125.35 70.8313 125.891 70.6576 126.418 70.4751C127.377 70.1425 128.3 69.6571 129.176 69.1394C129.06 69.0669 128.942 68.9866 128.862 68.8792C128.818 68.8216 128.783 68.7684 128.761 68.6985C128.744 68.6426 128.732 68.5859 128.721 68.5283C128.711 68.468 128.755 68.4244 128.815 68.434C128.856 68.441 128.897 68.448 128.939 68.4506C129.008 68.4558 129.067 68.4724 129.133 68.4907C129.198 68.5082 129.259 68.5396 129.319 68.5676C129.334 68.5728 129.348 68.5789 129.363 68.585C129.392 68.5964 129.423 68.6068 129.453 68.6164C129.561 68.6514 129.672 68.6793 129.781 68.7099C129.814 68.7195 129.849 68.7264 129.883 68.7343C130.122 68.5972 130.359 68.4567 130.602 68.3257C130.564 68.3065 130.524 68.2899 130.489 68.2681C130.32 68.1677 130.173 68.0341 130.05 67.8814C129.979 67.7941 129.908 67.7076 129.872 67.6003C129.844 67.5147 129.821 67.4265 129.798 67.3392C129.768 67.2222 129.925 67.1157 130.011 67.2153C130.059 67.2703 130.108 67.3174 130.169 67.3584C130.246 67.4108 130.308 67.4754 130.379 67.5357C130.379 67.5357 130.438 67.5837 130.406 67.5592C130.419 67.5688 130.432 67.5784 130.445 67.588C130.478 67.6116 130.512 67.6343 130.547 67.6561C130.62 67.7015 130.695 67.7452 130.771 67.7853C130.808 67.8045 130.846 67.8211 130.882 67.8395C130.885 67.8412 130.883 67.8395 130.885 67.8412C130.888 67.843 130.887 67.8421 130.894 67.8447C130.913 67.8517 130.932 67.8595 130.951 67.8665C131.029 67.8945 131.108 67.9163 131.189 67.9329C131.209 67.9372 131.229 67.9407 131.25 67.9442C131.255 67.9451 131.278 67.9486 131.29 67.9503C131.301 67.9512 131.314 67.953 131.317 67.953C131.321 67.953 131.326 67.9547 131.33 67.9556C131.426 67.9084 131.519 67.856 131.616 67.8098C131.548 67.7661 131.48 67.7225 131.415 67.6692C131.27 67.5514 131.145 67.4108 131.038 67.258C130.928 67.1018 130.888 66.9263 130.859 66.7395C130.851 66.6818 130.923 66.6172 130.97 66.6749C131.072 66.798 131.2 66.8896 131.313 66.9987C131.429 67.1087 131.545 67.1908 131.692 67.2685C131.728 67.2877 131.765 67.3052 131.802 67.3218C131.806 67.3235 131.805 67.3226 131.806 67.3235C131.811 67.3253 131.81 67.3253 131.818 67.3279C131.836 67.3349 131.855 67.3418 131.874 67.3488C131.95 67.3759 132.025 67.4056 132.101 67.4309C132.176 67.4553 132.252 67.4737 132.328 67.4876C132.478 67.4239 132.626 67.3558 132.777 67.2964C132.714 67.2589 132.651 67.2214 132.592 67.1777C132.417 67.0503 132.282 66.8765 132.144 66.7124C131.99 66.5291 131.851 66.3318 131.762 66.1083C131.679 65.9014 131.626 65.6857 131.598 65.4657C131.596 65.4544 131.614 65.4509 131.619 65.4605C131.804 65.8237 132.087 66.1537 132.397 66.4164C132.548 66.5448 132.73 66.6164 132.9 66.7115C133.089 66.8163 133.205 66.866 133.418 66.9254C133.491 66.9455 133.561 66.9673 133.631 66.99C133.708 66.9647 133.783 66.9324 133.861 66.908C133.822 66.8774 133.779 66.8521 133.741 66.8207C133.492 66.6172 133.281 66.3798 133.111 66.1065C132.947 65.8437 132.826 65.5653 132.757 65.2632C132.722 65.1095 132.703 64.9559 132.698 64.7987C132.696 64.728 132.691 64.6512 132.702 64.5814C132.716 64.5002 132.744 64.4295 132.749 64.3439C132.751 64.3195 132.786 64.3134 132.793 64.3378C132.815 64.4172 132.856 64.4714 132.897 64.5395C132.931 64.5962 132.954 64.6626 132.984 64.7219C133.043 64.8389 133.11 64.9541 133.177 65.0668C133.312 65.2929 133.466 65.512 133.635 65.7032C133.81 65.9005 134.003 66.0952 134.212 66.2567C134.224 66.2654 134.268 66.2968 134.267 66.296C134.293 66.3143 134.319 66.3326 134.346 66.3501C134.405 66.3894 134.465 66.4261 134.526 66.461C134.545 66.4714 134.566 66.4819 134.586 66.4924C134.389 66.11 134.242 65.6962 134.139 65.2789C133.93 64.4382 133.882 63.5573 134.098 62.714C134.105 62.6834 134.151 62.6904 134.152 62.721C134.171 63.511 134.27 64.3037 134.537 65.051C134.666 65.4099 134.833 65.7521 135.03 66.0786C135.117 66.2235 135.209 66.3649 135.328 66.4863C135.344 66.5029 135.364 66.5125 135.381 66.5273C135.526 66.5029 135.673 66.4802 135.82 66.4566C135.624 66.1371 135.483 65.7739 135.387 65.4151C135.134 64.4609 135.208 63.463 135.253 62.4879C135.256 62.4311 135.339 62.4311 135.342 62.4879C135.386 63.3906 135.456 64.309 135.786 65.1593C135.916 65.4937 136.094 65.8193 136.319 66.0987C136.39 66.1877 136.468 66.2707 136.544 66.3562C136.858 66.3222 137.172 66.2916 137.489 66.2776C137.408 66.1964 137.343 66.096 137.286 65.9974C137.164 65.7861 137.103 65.5557 137.048 65.3199C136.99 65.072 136.948 64.8223 136.906 64.5718C136.859 64.2872 136.794 64.0052 136.808 63.7153C136.817 63.5076 137.143 63.3696 137.241 63.5983C137.3 63.7345 137.348 63.8603 137.377 64.0052C137.401 64.1257 137.425 64.247 137.449 64.3675C137.5 64.6198 137.544 64.8712 137.589 65.1244C137.627 65.3479 137.684 65.5661 137.727 65.7887C137.758 65.952 137.809 66.1065 137.814 66.2689C137.874 66.268 137.934 66.2637 137.995 66.2628C137.961 66.1589 137.937 66.0524 137.92 65.9564C137.852 65.5705 137.872 65.189 137.933 64.804C137.989 64.4382 138.066 64.0593 138.196 63.7127C138.262 63.5372 138.326 63.3583 138.406 63.1898C138.487 63.0204 138.598 62.9078 138.747 62.7978C138.817 62.7463 138.933 62.7995 138.95 62.8807C139.023 63.2256 138.92 63.5198 138.845 63.8559C138.774 64.1745 138.677 64.4862 138.611 64.8057C138.547 65.1148 138.507 65.4352 138.543 65.7503C138.564 65.9267 138.639 66.1022 138.68 66.2785C139.275 66.3082 139.867 66.3789 140.448 66.5072C140.447 66.4941 140.444 66.4784 140.444 66.4671C140.437 66.2776 140.526 66.0585 140.592 65.8839C140.666 65.6901 140.755 65.5146 140.869 65.3418C140.991 65.1567 141.125 64.9803 141.263 64.8075C141.334 64.7193 141.415 64.6468 141.499 64.5718C141.544 64.5307 141.583 64.501 141.64 64.4792C141.69 64.4609 141.739 64.4487 141.782 64.4181C141.83 64.3849 141.898 64.4399 141.88 64.4932C141.851 64.5814 141.876 64.6739 141.837 64.7603C141.798 64.8511 141.761 64.9454 141.716 65.0327C141.627 65.203 141.524 65.3645 141.438 65.5373C141.35 65.7128 141.281 65.8778 141.202 66.0568C141.14 66.1982 141.099 66.3885 141.041 66.5465C141.03 66.5762 141.014 66.6111 140.998 66.6461C141.034 66.6565 141.07 66.6635 141.106 66.674C141.754 66.8669 142.387 67.1236 142.976 67.4571C143.14 67.155 143.401 66.8975 143.643 66.6635C143.813 66.4985 143.977 66.3265 144.133 66.1484C144.288 65.9712 144.425 65.7713 144.661 65.7032C144.752 65.677 144.818 65.7486 144.829 65.8315C144.858 66.0524 144.738 66.2453 144.625 66.426C144.518 66.598 144.404 66.7657 144.286 66.9298C144.155 67.1105 144.019 67.2842 143.864 67.4449C143.806 67.5051 143.748 67.5653 143.694 67.6282C143.68 67.6439 143.667 67.6605 143.653 67.6762C143.647 67.6841 143.638 67.6945 143.637 67.6963C143.61 67.7338 143.584 67.7731 143.561 67.8133C143.559 67.8168 143.557 67.8211 143.555 67.8246C143.597 67.8543 143.642 67.8787 143.683 67.9093C144.044 68.1764 144.378 68.4733 144.702 68.7841C144.793 68.4864 145.066 68.2236 145.275 68.0176C145.453 67.843 145.632 67.6684 145.816 67.499C145.907 67.4134 146.012 67.341 146.111 67.265C146.214 67.1864 146.306 67.1533 146.43 67.1175C146.45 67.1114 146.469 67.1314 146.464 67.1515C146.435 67.2607 146.412 67.3523 146.346 67.4457C146.278 67.5435 146.214 67.6457 146.14 67.7391C145.988 67.9303 145.83 68.1171 145.678 68.3083C145.538 68.4855 145.396 68.6575 145.246 68.8268C145.168 68.915 145.081 68.9927 144.991 69.0669C145.162 69.2389 145.331 69.4118 145.498 69.5872C145.502 69.5838 145.507 69.5811 145.511 69.5776C145.499 69.5864 145.499 69.5864 145.511 69.5759C145.536 69.5558 145.56 69.5349 145.588 69.5174C145.642 69.4842 145.699 69.4764 145.759 69.4589C145.784 69.4511 145.809 69.4432 145.833 69.4336C145.836 69.4318 145.836 69.4327 145.838 69.4318C145.84 69.431 145.841 69.4301 145.849 69.4266C145.892 69.4057 145.933 69.3812 145.976 69.3585C146.156 69.2616 146.323 69.1534 146.486 69.032C146.641 68.9159 146.783 68.7972 146.948 68.6784C147.085 68.5798 147.22 68.427 147.398 68.42C147.415 68.42 147.434 68.4296 147.442 68.4453C147.543 68.6339 147.393 68.8626 147.284 69.0154C147.148 69.2075 146.971 69.3576 146.796 69.5122C146.625 69.6614 146.44 69.8291 146.23 69.9216C146.128 69.9661 146.025 70.0019 145.917 70.0229C145.946 70.0534 145.976 70.0849 146.006 70.1154C146.815 70.9526 147.641 71.7733 148.465 72.5957C148.488 72.5834 148.509 72.5712 148.535 72.5599C148.657 72.5066 148.793 72.5136 148.924 72.5057C149.148 72.4926 149.358 72.4953 149.575 72.4211C149.776 72.3521 149.97 72.2334 150.155 72.1277C150.36 72.0099 150.567 71.906 150.79 71.8274C150.831 71.8134 150.872 71.8658 150.847 71.9007C150.57 72.298 150.193 72.7039 149.74 72.8977C149.52 72.992 149.224 73.0723 148.944 73.0688C149.055 73.1771 149.166 73.2862 149.278 73.3936C149.35 73.3526 149.447 73.3447 149.527 73.3395C149.545 73.3386 149.563 73.336 149.582 73.3351C149.599 73.3351 149.659 73.3412 149.671 73.343C149.688 73.3438 149.725 73.3464 149.737 73.3473C149.774 73.3491 149.812 73.3482 149.85 73.3473C149.868 73.3473 149.887 73.3447 149.905 73.3438C149.948 73.3412 149.909 73.3447 149.933 73.3412C150.076 73.3194 150.198 73.2801 150.311 73.2164C150.454 73.1369 150.556 73.0252 150.687 72.9213C150.81 72.8235 151.075 72.6926 151.207 72.8453C151.232 72.8741 151.252 72.9187 151.236 72.958C151.207 73.0313 151.15 73.0758 151.091 73.1265C151.041 73.1692 150.998 73.2207 150.952 73.267C150.84 73.3796 150.738 73.4931 150.61 73.5892C150.372 73.7672 150.075 73.8633 149.779 73.8834C149.829 73.9322 149.878 73.9794 149.927 74.0283C150.312 73.8467 150.775 73.8938 151.187 73.8196C151.427 73.7769 151.666 73.7096 151.899 73.6398C151.99 73.6127 152.081 73.583 152.167 73.542C152.279 73.4888 152.362 73.4189 152.487 73.3962C152.634 73.37 152.746 73.48 152.718 73.6276C152.672 73.8738 152.39 74.0248 152.183 74.1348C151.927 74.2718 151.661 74.3618 151.376 74.4176C151.07 74.4779 150.677 74.5311 150.34 74.4543C150.707 74.848 151.05 75.261 151.333 75.7193C151.516 76.0161 151.152 76.3776 150.856 76.1969C149.927 75.6303 149.212 74.8245 148.445 74.0615C147.653 73.2714 146.855 72.4857 146.06 71.6982C145.017 70.6654 143.987 69.5837 142.757 68.8085C142.784 68.9107 142.805 69.0084 142.821 69.0931C142.9 69.5253 142.866 69.953 142.756 70.3773C142.656 70.7571 142.513 71.1246 142.369 71.4895C142.25 71.7907 142.115 72.0928 141.903 72.3346C142.449 72.4481 142.999 72.4726 143.549 72.5765C143.678 72.6009 143.713 72.8157 143.587 72.8698C142.557 73.3185 141.256 72.7947 140.255 72.4778C138.879 72.043 137.505 71.8126 136.062 71.7532C134.68 71.6965 133.281 71.7322 131.903 71.8527C131.193 71.9147 130.489 72.0299 129.782 72.112C129.192 72.1801 128.567 72.2578 128.017 71.9968C127.799 71.8929 127.856 71.5315 128.084 71.4799C128.666 71.3499 129.295 71.4075 129.89 71.335C130.562 71.253 131.229 71.1508 131.903 71.0862C132.232 71.0548 132.559 71.0321 132.887 71.0138C132.348 70.2595 132.139 69.4057 132.414 68.5388C131.343 68.9578 130.317 69.4877 129.302 70.1067C127.589 71.1499 125.161 72.5249 123.114 71.5952C122.815 71.4599 123.004 71.0626 123.265 71.0373V71.0382Z" fill="black"/>
<path d="M76.6909 122.788C76.8052 121.869 76.6411 120.94 76.7354 120.019C76.9064 118.351 77.9599 117.237 79.4637 116.608C81.1639 115.897 83.084 115.635 84.8959 115.375C88.9605 114.792 93.1088 114.862 97.183 115.309C99.2506 115.536 101.313 115.831 103.322 116.382C105.132 116.878 106.891 117.547 108.612 118.292C110.424 119.075 112.204 119.93 114.015 120.715C115.786 121.484 117.586 122.069 119.426 122.642C121.108 123.165 122.846 123.753 124.151 124.99C124.269 125.102 124.381 125.223 124.488 125.347C124.789 125.29 125.164 125.461 125.214 125.858C125.248 126.131 125.284 126.402 125.322 126.674C125.341 126.716 125.363 126.757 125.381 126.798C125.553 127.225 125.765 127.888 125.599 128.38C125.595 128.567 125.548 128.751 125.418 128.926C124.941 129.571 124.197 129.924 123.442 130.133C122.609 130.363 121.734 130.42 120.876 130.489C119.83 130.573 118.783 130.651 117.735 130.73C113.508 131.047 109.277 131.317 105.042 130.995C102.943 130.835 100.882 130.544 98.8177 130.14C96.7702 129.741 94.7724 129.705 92.6934 129.75C88.4543 129.842 84.3347 128.796 80.2003 127.984C79.3049 127.809 78.2366 127.809 77.4371 127.322C76.7808 126.922 76.4465 126.209 76.3557 125.468C76.2431 124.547 76.5774 123.689 76.69 122.788H76.6909ZM77.5392 125.578C77.74 126.494 78.5595 126.594 79.3564 126.736C81.1901 127.064 83.0543 127.256 84.9003 127.503C86.7314 127.748 88.5747 127.995 90.4241 128.035C92.2378 128.074 94.0514 127.871 95.8633 127.96C97.6543 128.049 99.3981 128.482 101.164 128.76C105.261 129.407 109.451 129.303 113.581 129.101C115.664 128.998 117.748 128.905 119.831 128.808C121.308 128.739 122.928 128.833 124.227 128.046C124.238 127.445 124.19 126.835 124.139 126.235C123.701 125.738 123.169 125.314 122.602 124.978C121.171 124.131 119.51 123.838 117.943 123.345C114.736 122.335 111.703 120.854 108.623 119.52C105.357 118.106 102.073 117.021 98.5332 116.554C94.9731 116.083 91.3135 115.956 87.7325 116.225C85.9127 116.362 84.106 116.588 82.3221 116.975C81.0138 117.259 79.4035 117.554 78.4722 118.616C77.4057 119.831 77.952 121.738 77.7513 123.21C77.6466 123.978 77.3699 124.8 77.5401 125.576L77.5392 125.578Z" fill="black"/>
<path d="M167.027 24.5756C167.744 25.8843 168.243 27.3221 168.897 28.6666C169.522 29.9499 170.209 31.2114 170.997 32.4022C171.848 33.6882 172.849 34.865 173.998 35.8934C175.159 36.9323 176.43 37.8402 177.618 38.8468C179.883 40.7675 181.831 43.0679 183.357 45.6162C185.01 48.3758 186.037 51.4523 187.873 54.1098C188.864 55.545 190.008 56.8685 191.161 58.1737C192.31 59.4753 193.582 60.6801 194.636 62.0603C194.723 62.1747 194.553 62.338 194.439 62.2577C193.187 61.3768 192.069 60.3038 190.976 59.2353C189.86 58.1457 188.829 57.0012 187.884 55.7598C186.91 54.4791 186.067 53.1145 185.357 51.6706C184.628 50.1882 184.005 48.656 183.238 47.192C181.816 44.4726 179.917 42.0133 177.651 39.9433C176.459 38.8538 175.133 37.9302 173.892 36.8991C172.754 35.9528 171.753 34.8938 170.882 33.6969C169.904 32.356 169.113 30.9006 168.425 29.3938C167.743 27.9044 167.012 26.3444 166.581 24.7625C166.51 24.4997 166.892 24.3286 167.026 24.5748L167.027 24.5756Z" fill="black"/>
<path d="M176.273 40.6388C177.029 41.5031 177.457 42.7113 177.987 43.7249C178.542 44.7874 179.123 45.8367 179.755 46.8555C181.067 48.9726 182.727 50.7754 184.239 52.7397C185.737 54.6856 186.729 56.9232 187.918 59.056C189.117 61.2018 190.555 63.2037 192.118 65.0964C192.97 66.1274 193.848 67.1383 194.742 68.1336C195.643 69.1375 196.649 70.0979 197.331 71.2721C197.405 71.3987 197.255 71.5584 197.127 71.4764C196.129 70.8434 195.321 69.9617 194.516 69.1061C193.672 68.2095 192.837 67.3016 192.047 66.3561C190.495 64.4992 189.039 62.5515 187.801 60.4694C186.518 58.3113 185.584 55.9471 184.134 53.8894C182.73 51.8963 180.995 50.187 179.678 48.1223C178.939 46.9638 178.276 45.7582 177.651 44.5333C177.33 43.9039 177.019 43.2683 176.713 42.631C176.431 42.0443 176.113 41.442 175.996 40.7985C175.969 40.6501 176.155 40.5009 176.274 40.637L176.273 40.6388Z" fill="black"/>
<path d="M176.037 45.4404C176.94 45.615 177.321 46.5596 177.612 47.3471C178.038 48.4916 178.37 49.6667 178.812 50.8051C179.279 52.009 179.827 53.185 180.507 54.2841C181.211 55.4234 182.083 56.4352 182.957 57.4453C186.221 61.2167 188.875 65.4238 191.054 69.9041C191.649 71.1289 192.223 72.3634 192.734 73.6258C193.239 74.8707 193.893 76.2474 194.049 77.5901C194.065 77.7324 193.877 77.7403 193.811 77.6548C193.075 76.6988 192.608 75.4373 192.1 74.346C191.601 73.2748 191.114 72.1975 190.611 71.1281C189.579 68.9298 188.459 66.7674 187.231 64.673C185.982 62.5446 184.586 60.5209 183.006 58.6239C181.418 56.7154 179.889 54.8847 178.85 52.6044C178.289 51.3717 177.834 50.0945 177.424 48.805C177.235 48.2105 177.099 47.5933 176.87 47.0119C176.657 46.4723 176.309 45.9965 175.962 45.54C175.924 45.4893 175.987 45.4326 176.037 45.4422V45.4404Z" fill="black"/>
<path d="M175.234 53.727C176.109 54.3267 176.807 54.9815 177.483 55.8065C178.123 56.5878 178.683 57.4294 179.2 58.2972C180.295 60.1384 181.181 62.094 182.094 64.0294C183.008 65.9667 183.944 67.9144 185.153 69.6892C186.441 71.5819 188.113 73.1298 189.793 74.6671C190.727 75.5227 191.651 76.3748 192.487 77.3298C192.881 77.7803 193.249 78.2561 193.594 78.7467C193.927 79.2208 194.308 79.7254 194.315 80.3234C194.315 80.3854 194.25 80.416 194.198 80.3906C193.737 80.161 193.446 79.735 193.113 79.3535C192.743 78.9301 192.347 78.5311 191.948 78.1348C191.144 77.3342 190.299 76.5712 189.464 75.8021C187.823 74.2891 186.204 72.7736 184.904 70.9446C182.456 67.4979 181.092 63.4628 179.12 59.7543C178.006 57.659 176.621 55.7454 175.032 53.9871C174.912 53.8544 175.07 53.6143 175.234 53.7261V53.727Z" fill="black"/>
<path d="M181.556 65.9423C182.106 66.5604 182.46 67.3435 182.814 68.0829C183.182 68.8495 183.525 69.6273 183.839 70.4174C184.49 72.0595 185.079 73.7261 185.738 75.3657C186.398 77.0078 187.142 78.6246 188.065 80.1367C189.015 81.6959 190.21 83.0508 191.461 84.3734C192.804 85.7938 194.42 87.2701 194.997 89.1951C195.067 89.4265 194.774 89.5723 194.608 89.4212C193.287 88.2138 192.16 86.7734 190.951 85.4534C189.748 84.1403 188.551 82.8168 187.58 81.3179C187.519 81.2245 187.467 81.1267 187.408 81.0315C187.391 83.3441 187.516 85.6026 188.149 87.8542C188.478 89.0292 188.906 90.1912 189.424 91.2973C189.692 91.8709 189.951 92.4497 190.23 93.018C190.455 93.4755 190.77 93.9251 190.838 94.4384C190.845 94.5013 190.767 94.5292 190.721 94.5057C190.231 94.256 189.907 93.7121 189.595 93.2747C189.204 92.7273 188.869 92.1695 188.58 91.5619C188.032 90.413 187.607 89.2213 187.3 87.986C186.696 85.545 186.431 82.8727 186.945 80.3925C186.951 80.3628 186.963 80.3392 186.977 80.3174C185.446 77.6285 184.489 74.6419 183.436 71.7444C183.092 70.7945 182.741 69.8447 182.368 68.9053C182.003 67.9852 181.499 67.086 181.232 66.1309C181.181 65.951 181.425 65.7939 181.556 65.9423H181.556Z" fill="black"/>
<path d="M184.827 84.5133C185.351 85.6177 185.717 86.784 186.131 87.932C186.586 89.1962 187.086 90.4402 187.629 91.6694C188.139 92.8227 188.703 93.9515 189.357 95.0297C189.684 95.5666 190.04 96.0834 190.373 96.6151C190.61 96.9922 191.06 97.4488 190.996 97.9167C190.991 97.949 190.951 97.9744 190.921 97.9735C190.445 97.9578 190.087 97.3903 189.805 97.0533C189.401 96.5705 189.062 96.0459 188.736 95.5072C188.067 94.4002 187.488 93.2382 186.977 92.0501C186.476 90.8846 186.061 89.6816 185.669 88.4759C185.255 87.2031 184.841 85.9215 184.623 84.5989C184.605 84.4854 184.767 84.3902 184.826 84.5133H184.827Z" fill="black"/>
<path d="M183.689 89.8334C184.287 91.4669 184.686 93.1588 185.308 94.7887C185.629 95.6311 185.999 96.4492 186.394 97.2602C186.753 97.9979 187.169 98.7304 187.395 99.5222C187.423 99.62 187.299 99.6863 187.229 99.6191C186.592 99.0184 186.154 98.2039 185.774 97.4226C185.395 96.6438 185.055 95.8442 184.749 95.0331C184.136 93.4023 183.595 91.5987 183.602 89.8457C183.602 89.7933 183.673 89.788 183.69 89.8343L183.689 89.8334Z" fill="black"/>
<path d="M182.283 94.4105C182.706 95.789 183.214 97.164 183.765 98.4971C184.313 99.8232 184.917 101.117 185.377 102.477C185.402 102.549 185.298 102.611 185.247 102.552C183.341 100.336 182.432 97.3394 181.898 94.5161C181.851 94.2664 182.206 94.1617 182.283 94.4096V94.4105Z" fill="black"/>
<path d="M122.684 3.05646C123.493 1.13582 125.596 0.681853 127.473 0.492409C130.324 0.205186 133.189 -0.0357664 136.057 0.00439239C141.636 0.0829639 147.01 1.5313 152.264 3.30614C161.015 6.26218 169.484 10.2204 177.127 15.4315C184.677 20.5779 191.35 26.9116 196.345 34.5968C202.092 43.4378 205.101 53.6556 207.887 63.7276C210.855 74.457 214.111 85.6011 213.02 96.856C212.884 98.2493 212.681 99.6191 212.357 100.981C212.092 102.096 210.52 101.596 210.68 100.518C211.08 97.8198 211.358 95.1178 211.357 92.387C211.355 89.6981 211.14 87.0101 210.775 84.3465C210.027 78.8937 208.678 73.5438 207.272 68.2298C204.633 58.2582 202.031 48.0762 197.004 38.989C192.712 31.2305 186.542 24.5379 179.48 19.2134C172.358 13.8435 164.37 9.71583 156.07 6.50138C151.354 4.67503 146.489 2.98138 141.496 2.1136C138.785 1.64217 136.045 1.52257 133.299 1.58368C131.918 1.61424 130.539 1.66924 129.159 1.73733C128.049 1.79233 126.912 1.79233 125.821 2.03154C124.896 2.23408 124.052 2.55447 123.606 3.44582C123.355 3.94781 122.461 3.58813 122.686 3.05733L122.684 3.05646Z" fill="black"/>
<path d="M173.896 202.085C174.685 204.551 176.94 205.989 179.355 206.584C182.117 207.263 185.084 206.903 187.751 206.006C193.263 204.153 197.886 199.951 201.329 195.367C208.663 185.602 211.348 173.17 210.571 161.131C210.327 157.367 209.733 153.643 208.932 149.959C208.524 148.079 208.048 146.212 207.513 144.363C206.978 142.513 206.341 140.708 205.995 138.812C205.951 138.567 206.271 138.405 206.411 138.636C207.335 140.169 207.927 141.823 208.499 143.515C209.069 145.199 209.59 146.898 210.054 148.614C210.99 152.069 211.654 155.592 212.06 159.149C212.822 165.813 212.562 172.572 210.994 179.105C209.552 185.11 207.03 190.906 203.377 195.9C199.697 200.932 194.899 205.334 188.943 207.448C185.789 208.567 182.206 208.979 178.942 208.089C176.192 207.34 173.208 205.432 172.69 202.417C172.556 201.633 173.647 201.304 173.897 202.084L173.896 202.085Z" fill="black"/>
<path d="M121.051 226.729C121.542 222.876 122.393 219.131 123.536 215.422C124.103 213.585 124.679 211.745 125.074 209.86C125.472 207.961 125.565 206.038 125.729 204.11C126.046 200.358 126.99 196.741 128.502 193.295C130.056 189.754 132.178 186.502 134.282 183.27C136.456 179.93 138.648 176.602 140.864 173.29C145.275 166.699 149.734 160.138 154.263 153.629C158.782 147.137 163.426 140.702 168.28 134.456C168.799 133.789 169.325 133.138 169.872 132.498C168.302 128.909 167.113 125.153 166.405 121.298C166.196 120.16 166.019 119.012 165.905 117.861C165.794 116.725 165.789 115.563 165.385 114.481C164.622 112.436 162.841 110.995 161.229 109.626C159.585 108.228 158.088 106.794 156.974 104.924C155.909 103.137 155.134 101.198 154 99.4489C152.784 97.5746 151.02 96.1542 149.751 94.32C148.546 92.5792 147.683 90.6053 147.135 88.5624C146.551 86.3807 146.349 84.048 146.702 81.8114C146.951 80.2391 147.732 77.8584 149.33 77.0945C149.351 77.022 149.372 76.9504 149.4 76.8815C149.778 75.9465 150.763 76.2756 151.445 76.6405C152.945 77.4437 154.1 78.9767 155.076 80.3307C155.65 81.1287 156.165 81.958 156.602 82.8389C156.949 83.5356 157.317 84.2742 157.487 85.0442C158.539 86.2716 159.59 87.5026 160.663 88.7126C161.197 89.3158 161.725 89.9243 162.257 90.5284C162.431 90.7257 162.594 90.9292 162.759 91.1317C162.708 90.7624 162.66 90.3914 162.626 90.0204C162.449 88.0683 162.533 86.09 162.832 84.1537C162.989 83.1401 163.223 82.1527 163.546 81.1793C163.742 80.5892 163.931 79.992 164.225 79.4551C164.306 78.7183 164.758 78.1176 165.507 77.8994C166.282 77.6741 167.064 77.9291 167.674 78.4215C168.345 78.9627 168.822 79.7519 169.244 80.4922C169.717 81.3234 170.093 82.2112 170.433 83.1034C170.812 84.103 171.117 85.1315 171.398 86.1625C171.425 86.2603 171.446 86.3624 171.462 86.4654C177.083 92.2579 181.978 98.7767 185.707 105.949C186.384 107.251 187.009 108.577 187.575 109.929C188.064 106.916 189.588 103.335 192.641 102.18C192.732 102.145 192.823 102.153 192.906 102.184C193.219 101.937 193.574 101.776 193.948 101.765C193.76 101.493 193.633 101.163 193.586 100.884C193.453 100.105 193.513 99.3346 193.63 98.5585C193.908 96.7173 194.366 94.8892 194.788 93.0768C195.008 92.1322 195.235 91.1893 195.468 90.2473C195.681 89.3935 195.866 88.524 196.243 87.7243C196.864 86.4087 198.109 85.6326 199.446 85.1856C200.204 84.9315 200.98 84.7945 201.772 84.6906C202.274 84.6242 202.834 84.6723 203.154 85.0476C203.634 84.6819 204.269 84.5064 204.855 84.6967C205.591 84.9359 205.94 85.678 206.15 86.3633C206.417 87.2311 206.552 88.1407 206.601 89.0452C206.712 91.0828 206.447 93.2881 205.91 95.2576C205.902 95.2881 205.883 95.3082 205.869 95.3335C206.435 97.3642 206.521 99.5528 206.734 101.636C206.974 103.989 207.215 106.341 207.456 108.693C207.933 113.348 208.373 118.008 208.828 122.665C209.037 124.799 209.166 126.975 208.496 129.047C207.814 131.158 206.661 133.149 205.65 135.116C204.61 137.141 203.6 139.183 202.513 141.183C201.466 143.107 200.265 144.909 198.968 146.671C197.507 148.656 196.098 150.65 194.958 152.841C193.819 155.03 192.974 157.362 191.808 159.536C191.734 159.675 191.619 159.744 191.496 159.764C191.164 160.475 190.832 161.191 190.5 161.908C190.981 161.898 191.462 161.989 191.806 162.157C193.237 162.855 193.39 164.628 193.33 166.03C193.257 167.735 192.394 168.876 191.062 169.864C189.588 170.956 188.052 171.95 186.596 173.071C185.701 173.76 184.806 174.449 183.906 175.132C183.366 175.541 182.831 175.985 182.281 176.403C180.717 178.577 179.07 180.692 177.447 182.836C176.602 183.952 175.764 185.072 175.02 186.258C174.275 187.444 173.73 188.697 173.103 189.941C172.733 190.677 171.592 190.16 171.798 189.391C172.117 188.197 172.75 187.044 173.363 185.978C173.96 184.942 174.627 183.948 175.326 182.979C176.785 180.959 178.433 179.083 179.916 177.082C179.953 177.033 179.987 176.982 180.024 176.933C179.8 176.546 179.826 175.997 180.278 175.802C180.672 175.442 181.098 175.112 181.536 174.794C183.88 171.362 185.945 167.737 187.786 164.015C187.876 163.828 187.966 163.641 188.059 163.455C188.626 162.296 189.178 161.129 189.698 159.949C190.263 158.665 190.699 157.171 191.486 156.008C191.541 155.928 191.633 155.892 191.722 155.895C192.024 155.241 192.311 154.582 192.545 153.902C192.624 153.674 192.84 153.539 193.056 153.557C193.11 153.441 193.161 153.322 193.216 153.206C194.133 151.247 195.2 149.387 196.47 147.635C197.752 145.868 199.101 144.16 200.218 142.28C201.342 140.387 202.31 138.404 203.289 136.433C204.282 134.438 205.318 132.462 206.294 130.459C206.774 129.476 207.18 128.465 207.364 127.382C207.541 126.335 207.523 125.255 207.46 124.199C207.325 121.926 207.035 119.662 206.828 117.395C206.617 115.08 206.401 112.768 206.17 110.455C205.912 107.869 205.685 105.28 205.447 102.692C205.328 101.398 205.202 100.105 205.102 98.8108C205.018 97.7204 204.93 96.6535 204.991 95.5727C204.424 95.5815 203.827 95.2244 203.414 94.8813C202.835 94.3994 202.424 93.7289 202.187 93.0183C201.899 92.1505 201.876 91.1946 201.914 90.2892C201.952 89.3621 202.009 88.4271 202.099 87.5034C202.157 86.9115 202.256 86.2943 202.539 85.7705C202.462 85.7644 202.385 85.7626 202.306 85.774C201.93 85.8307 201.557 85.9547 201.19 86.0507C200.481 86.2376 199.77 86.4209 199.116 86.7631C198.454 87.1088 197.886 87.5873 197.535 88.2551C197.104 89.0749 196.953 90.0649 196.734 90.9571C196.235 92.9921 195.773 95.0358 195.327 97.0831C195.14 97.9404 194.918 98.8046 194.88 99.6846C194.861 100.132 194.944 100.528 194.985 100.967C195.018 101.315 195.181 101.715 195.059 102.054C195.046 102.09 195.026 102.126 195.002 102.159C196.188 103.109 196.435 105.117 196.535 106.506C196.607 107.499 196.576 108.5 196.51 109.494C196.463 110.199 196.438 110.925 196.088 111.534C196.333 111.732 196.543 112.012 196.695 112.24C197.27 113.11 197.73 114.034 198.116 115.002C198.898 116.967 199.276 119.087 199.363 121.197C199.454 123.417 199.232 125.643 199.027 127.851C198.819 130.084 198.619 132.318 198.4 134.55C198.202 136.567 198.006 138.619 197.229 140.51C196.659 141.897 195.856 143.141 194.9 144.292C193.001 146.579 190.578 148.313 188.333 150.231C187.086 151.298 185.856 152.413 184.789 153.664C184.296 154.242 183.88 154.865 183.458 155.495C183.002 156.176 182.666 156.904 182.13 157.528C181.884 157.815 181.462 157.562 181.439 157.242C181.346 155.905 182.144 154.546 182.895 153.489C183.692 152.368 184.617 151.345 185.626 150.411C187.695 148.496 189.964 146.812 192.01 144.869C194.168 142.821 195.764 140.528 196.36 137.57C196.774 135.517 196.909 133.397 197.123 131.316C197.34 129.224 197.56 127.13 197.714 125.033C197.883 122.72 197.958 120.334 197.557 118.041C197.367 116.954 197.071 115.885 196.665 114.859C196.454 114.323 196.209 113.799 195.949 113.285C195.91 113.208 195.831 113.019 195.735 112.812C195.624 112.866 195.498 112.891 195.375 112.872C194.646 112.76 194.014 112.158 193.562 111.607C193.076 111.015 192.726 110.35 192.45 109.637C192.107 108.749 191.942 107.803 191.829 106.861C191.724 105.98 191.575 105.038 191.728 104.156C191.734 104.121 191.743 104.086 191.75 104.051C191.11 104.679 190.571 105.386 190.144 106.238C189.491 107.537 189.098 108.971 188.913 110.41C188.679 112.226 188.723 114.064 188.713 115.892C188.704 117.712 188.561 119.511 188.289 121.31C188.304 121.308 188.317 121.305 188.335 121.302C188.624 121.254 188.909 121.172 189.184 121.068C189.449 120.968 189.689 120.827 189.936 120.691C190.065 120.62 190.195 120.552 190.321 120.473C190.391 120.429 190.453 120.384 190.528 120.353C190.59 120.329 190.657 120.316 190.713 120.282C190.874 120.182 191.084 120.383 190.978 120.547C190.929 120.622 190.911 120.712 190.862 120.787C190.809 120.869 190.732 120.939 190.664 121.008C190.519 121.155 190.366 121.294 190.195 121.41C189.866 121.631 189.51 121.808 189.14 121.95C188.825 122.071 188.489 122.174 188.148 122.174C187.879 123.736 187.533 125.284 187.16 126.824C186.817 128.238 186.478 129.658 185.995 131.033C185.033 133.769 183.475 136.228 180.723 137.41C179.104 138.105 177.325 138.378 175.918 139.506C174.649 140.524 173.769 141.986 173.14 143.468C172.992 143.818 172.423 143.631 172.438 143.278C172.569 140.156 175.033 137.874 177.797 136.808C179.282 136.235 180.82 135.843 181.987 134.697C182.957 133.743 183.637 132.494 184.13 131.235C184.663 129.873 185.03 128.453 185.381 127.035C185.841 125.176 186.308 123.316 186.65 121.431C187.241 118.175 187.057 114.868 187.368 111.593C185.672 108.34 183.98 105.083 182.051 101.957C179.923 98.5087 177.513 95.2349 174.925 92.1182C173.699 90.6419 172.405 89.2285 171.064 87.857C170.998 87.8614 170.93 87.8553 170.857 87.8273C169.928 87.4642 169.068 86.8426 168.235 86.3022C167.449 85.7923 166.728 85.2153 166.134 84.4854C165.476 83.6761 164.909 82.7019 164.564 81.6708C164.383 82.398 164.227 83.1331 164.103 83.8708C163.811 85.5994 163.752 87.3577 163.905 89.1037C164.06 90.8715 164.444 92.6237 165.031 94.2973C165.676 96.1376 166.582 97.8801 167.438 99.6279C167.532 99.586 167.624 99.5397 167.711 99.4795C168.005 99.2769 168.241 98.9941 168.479 98.7322C168.775 98.4066 169.091 98.1089 169.433 97.833C169.781 97.5527 170.149 97.3284 170.536 97.1084C170.725 97.0001 170.956 97.2725 170.777 97.4218C170.179 97.9194 169.635 98.5 169.128 99.0884C168.737 99.5432 168.335 100.071 167.785 100.343C169.452 103.757 171.085 107.186 172.747 110.603C173.59 112.336 174.576 114.061 175.211 115.885C175.378 116.365 175.497 116.865 175.565 117.37C175.853 117.35 176.138 117.319 176.423 117.245C176.777 117.155 177.135 117.034 177.468 116.887C177.806 116.737 178.123 116.483 178.482 116.406C178.567 116.387 178.665 116.462 178.632 116.556C178.502 116.933 178.131 117.188 177.81 117.406C177.442 117.656 177.047 117.836 176.621 117.962C176.297 118.057 175.956 118.116 175.618 118.147C175.618 118.246 175.626 118.344 175.621 118.442C175.577 119.387 175.349 120.313 175.167 121.238C174.733 123.431 174.357 125.634 174.087 127.853C173.953 128.959 173.85 130.067 173.74 131.174C173.627 132.304 173.596 133.436 173.26 134.526C173.122 134.973 172.397 135.041 172.282 134.539C172.11 135.026 171.49 135.31 171.006 134.854C170.769 134.631 170.617 134.361 170.447 134.086C170.364 133.951 170.358 133.803 170.399 133.668C170.387 133.642 170.376 133.614 170.364 133.588C168.451 136.629 166.285 139.534 164.216 142.465C161.963 145.655 159.731 148.86 157.514 152.075C157.206 152.522 156.894 152.968 156.585 153.414C156.721 153.457 156.855 153.511 156.979 153.561C157.27 153.68 157.551 153.819 157.819 153.985C158.332 154.302 158.79 154.721 159.203 155.158C159.627 155.605 160.009 156.089 160.377 156.582C160.581 156.856 161.235 157.661 160.674 157.923C160.497 158.006 160.264 157.768 160.446 157.627C160.549 157.546 158.709 155.604 158.501 155.416C158.131 155.084 157.73 154.789 157.301 154.537C157.095 154.417 156.881 154.307 156.658 154.221C156.49 154.157 156.313 154.114 156.143 154.054C152.103 159.883 148.014 165.675 144.085 171.58C141.92 174.834 139.762 178.092 137.618 181.359C135.496 184.59 133.29 187.796 131.474 191.213C129.742 194.473 128.432 197.971 127.81 201.617C127.487 203.513 127.439 205.434 127.245 207.343C127.052 209.233 126.66 211.082 126.142 212.908C125.09 216.621 123.862 220.233 123.227 224.054C122.595 227.856 122.362 231.687 122.069 235.524C121.994 236.509 121.911 237.485 121.782 238.465C121.66 239.39 120.312 239.458 120.287 238.465C120.186 234.565 120.564 230.592 121.057 226.724L121.051 226.729ZM188.52 165.815C187.805 167.335 187.04 168.83 186.223 170.298C185.879 170.916 185.52 171.523 185.151 172.122C186.716 170.966 188.284 169.852 189.952 168.849C190.594 168.464 191.253 168.042 191.69 167.418C192.229 166.649 192.322 165.603 192.217 164.69C192.128 163.913 191.789 163.185 191.003 162.927C190.652 162.811 190.337 162.833 190.03 162.906C189.557 163.896 189.065 164.875 188.52 165.815ZM203.806 93.4216C204.023 93.7054 204.301 93.9594 204.624 94.1148C204.826 94.2117 205.024 94.258 205.215 94.3235C205.383 92.7442 205.661 91.1876 205.606 89.5838C205.581 88.861 205.262 84.7561 203.829 85.9661C203.186 86.5091 203.287 87.6361 203.241 88.3904C203.186 89.2923 203.095 90.1993 203.12 91.1038C203.143 91.9148 203.303 92.7625 203.805 93.4216H203.806ZM192.888 105.303C192.96 106.228 193.059 107.169 193.252 108.078C193.426 108.901 193.694 109.682 194.171 110.381C194.452 110.792 194.8 111.082 195.166 111.36C195.2 111.344 195.235 111.332 195.269 111.32C195.331 111.158 195.425 110.998 195.468 110.833C195.575 110.431 195.571 110.003 195.585 109.589C195.618 108.683 195.646 107.776 195.588 106.87C195.546 106.213 194.959 101.962 193.642 102.967C192.936 103.505 192.824 104.493 192.888 105.303ZM165.534 80.5778C165.838 81.8376 166.473 83.0074 167.373 83.9407C167.928 84.5169 168.568 84.9778 169.239 85.41C169.622 85.657 170.023 85.8953 170.414 86.1485C170.445 86.1258 170.478 86.1057 170.511 86.0883C170.372 85.719 170.198 85.3672 170.138 85.2153C169.871 84.5265 169.606 83.8342 169.313 83.1549C168.78 81.9231 168.151 80.5394 167.212 79.5599C166.847 79.1792 166.326 78.8318 165.78 79.0369C165.163 79.2683 165.417 80.0942 165.534 80.5778ZM156.088 83.9468C155.725 83.2929 155.326 82.6608 154.919 82.0331C154.125 80.8083 153.213 79.6332 152.169 78.6109C151.92 78.3673 151.66 78.1307 151.374 77.9308C151.233 77.8322 151.087 77.7405 150.936 77.6576C150.785 77.5746 150.577 77.5292 150.43 77.4384C150.424 77.4655 150.418 77.4882 150.418 77.4917C150.389 77.6567 150.378 77.8252 150.376 77.9928C150.372 78.3577 150.415 78.7165 150.503 79.0701C150.858 80.501 151.833 81.5861 152.93 82.5185C154.103 83.5155 155.371 84.3466 156.692 85.1201C156.7 85.1061 156.708 85.0922 156.717 85.0791C156.496 84.7089 156.298 84.3257 156.088 83.9476L156.088 83.9468ZM172.159 133.732C171.995 132.063 172.288 130.295 172.477 128.657C172.707 126.646 172.998 124.64 173.349 122.647C173.67 120.836 174.445 118.82 173.972 116.984C173.743 116.096 173.331 115.274 172.93 114.453C172.48 113.534 172.031 112.615 171.581 111.696C169.766 107.985 167.915 104.292 166.11 100.576C165.252 98.8099 164.349 97.0551 163.712 95.1939C163.389 94.251 163.143 93.2854 162.955 92.3077C162.819 92.2483 162.701 92.1435 162.564 92.0248C162.26 91.7603 161.961 91.4931 161.676 91.2077C161.09 90.6236 160.513 90.0343 159.953 89.4258C158.994 88.3843 158.063 87.3227 157.158 86.235C157.034 86.3415 156.865 86.4 156.674 86.3624C155.769 86.1834 155.02 85.7024 154.289 85.162C153.589 84.6443 152.904 84.0996 152.252 83.5225C150.979 82.3946 149.807 80.9881 149.386 79.3032C149.338 79.1111 149.297 78.9051 149.266 78.6938C149.09 78.9566 148.921 79.2238 148.779 79.5075C148.379 80.3063 148.153 81.2072 148.018 82.0864C147.718 84.0402 147.942 86.1005 148.451 88.0002C148.973 89.954 149.898 91.7978 151.116 93.412C152.37 95.0742 153.974 96.4318 155.127 98.1743C155.133 98.1647 155.137 98.1551 155.142 98.1455C155.394 97.716 155.728 97.3223 156.019 96.9189C156.173 96.7068 156.322 96.4903 156.488 96.2869C156.623 96.121 156.753 95.9342 156.929 95.8076C157.207 95.605 157.737 95.7115 157.678 96.1306C157.667 96.2065 157.567 96.2135 157.521 96.1725C157.372 96.0407 157.124 96.5907 157.082 96.6631C156.893 96.9975 156.669 97.3127 156.458 97.6339C156.262 97.9342 156.055 98.2302 155.874 98.5401C155.8 98.6641 155.723 98.7854 155.683 98.9251C155.673 98.9618 155.668 98.9985 155.659 99.0351C156.537 100.556 157.226 102.185 158.099 103.708C159.151 105.543 160.546 106.935 162.154 108.286C163.693 109.577 165.26 110.91 166.257 112.686C166.27 112.674 166.284 112.663 166.296 112.651C166.521 112.439 166.753 112.236 166.971 112.017C167.184 111.804 167.378 111.573 167.586 111.357C167.695 111.244 167.801 111.125 167.916 111.02C167.983 110.96 168.062 110.894 168.141 110.856C168.206 110.824 168.264 110.8 168.327 110.76C168.472 110.667 168.654 110.82 168.611 110.979C168.592 111.049 168.585 111.116 168.572 111.187C168.555 111.275 168.513 111.368 168.47 111.448C168.396 111.583 168.299 111.713 168.209 111.838C168.013 112.108 167.778 112.356 167.55 112.597C167.339 112.819 167.123 113.045 166.888 113.243C166.804 113.315 166.716 113.383 166.63 113.452C167.386 115.299 167.296 117.307 167.614 119.279C168.422 124.282 169.96 129.17 172.16 133.733L172.159 133.732Z" fill="black"/>
<path d="M160.564 235.532C160.611 233.843 160.698 232.155 160.824 230.47C161.079 227.054 161.535 223.651 162.105 220.275C163.227 213.632 164.909 207.005 167.337 200.715C168.005 198.984 168.718 197.269 169.47 195.572C170.221 193.881 170.943 192.048 172.178 190.645C172.306 190.499 172.502 190.659 172.474 190.818C172.19 192.465 171.427 194.012 170.814 195.555C170.206 197.089 169.632 198.636 169.094 200.196C169.04 200.35 168.991 200.505 168.938 200.659C169.082 200.578 169.249 200.537 169.432 200.563C170.139 200.659 170.297 201.63 169.894 201.971C169.906 202.019 169.919 202.069 169.932 202.109C170.028 202.403 170.128 202.696 170.227 202.99C170.423 203.577 170.621 204.164 170.821 204.75C171.22 205.922 171.623 207.093 172.032 208.262C172.829 210.54 173.64 212.813 174.483 215.075C175.847 218.736 177.437 222.454 180.108 225.368C183.116 228.648 187.34 229.849 191.318 231.517C195.382 233.221 199.339 235.201 203.11 237.483C207.36 240.057 211.282 243.054 214.897 246.459C215.21 246.754 214.755 247.178 214.434 246.922C206.755 240.772 198.254 235.529 189.033 232.052C186.75 231.192 184.412 230.386 182.322 229.104C180.427 227.942 178.851 226.393 177.557 224.592C174.892 220.879 173.441 216.401 171.905 212.142C170.855 209.23 169.836 206.305 168.85 203.37C168.723 202.99 168.529 202.57 168.437 202.148C167.6 204.668 166.824 207.209 166.142 209.776C164.444 216.167 163.36 222.696 162.847 229.288C162.702 231.151 162.596 233.017 162.542 234.886C162.515 235.82 162.509 236.755 162.497 237.689C162.486 238.557 162.598 239.591 161.854 240.179C161.704 240.298 161.461 240.385 161.283 240.253C160.56 239.711 160.55 238.973 160.533 238.12C160.514 237.257 160.541 236.394 160.566 235.531L160.564 235.532Z" fill="black"/>
<path d="M174.112 133.21C174.338 133.331 174.558 133.462 174.721 133.666C174.894 133.88 175.035 134.113 175.17 134.352C175.301 134.585 175.446 134.824 175.542 135.074C175.587 135.19 175.612 135.313 175.654 135.429C175.702 135.562 175.757 135.692 175.805 135.825C175.889 136.054 175.521 136.209 175.411 135.991C175.353 135.88 175.295 135.767 175.234 135.657C175.172 135.545 175.091 135.449 175.021 135.344C174.877 135.129 174.768 134.886 174.636 134.664C174.505 134.447 174.365 134.237 174.248 134.012C174.126 133.779 174.074 133.533 174.023 133.278C174.012 133.226 174.064 133.183 174.113 133.209L174.112 133.21Z" fill="black"/>
<path d="M172.355 162.399C172.864 161.797 173.405 161.225 173.967 160.673C174.183 160.46 175.365 159.209 175.621 159.92C175.728 160.214 175.497 160.498 175.33 160.717C175.129 160.981 174.897 161.218 174.679 161.467C174.221 161.989 173.782 162.527 173.349 163.068C172.99 163.517 172.587 163.991 172.388 164.538C172.301 164.774 172.24 165.04 172.235 165.293C172.23 165.574 172.331 165.904 172.254 166.171C172.165 166.478 171.741 166.621 171.512 166.367C170.337 165.062 171.441 163.48 172.355 162.4L172.355 162.399Z" fill="black"/>
<path d="M130.825 194.223C131.736 193.988 132.698 194.029 133.611 194.23C135.672 194.683 137.506 195.982 139.421 196.824C141.419 197.703 143.52 198.355 145.656 198.799C148.05 199.298 150.481 199.536 152.906 199.83C155.416 200.135 157.899 200.324 160.422 200.053C160.667 200.027 160.712 200.419 160.48 200.477C159.441 200.739 158.477 201.059 157.402 201.18C156.287 201.306 155.177 201.295 154.058 201.228C151.864 201.096 149.661 200.846 147.486 200.525C145.358 200.212 143.258 199.759 141.229 199.038C139.2 198.316 137.294 197.358 135.361 196.423C134.453 195.983 133.472 195.566 132.454 195.482C131.998 195.444 131.543 195.468 131.099 195.579C130.707 195.677 130.186 195.878 129.845 195.544C129.234 194.945 130.362 194.343 130.825 194.224V194.223Z" fill="black"/>
<path d="M164.379 19.8734C165.735 19.9319 167.087 20.0759 168.427 20.295C169.766 20.5142 171.088 20.8381 172.386 21.2353C173.054 21.4404 173.713 21.6639 174.359 21.9311C174.87 22.1432 175.46 22.3527 175.781 22.8277C175.818 22.8835 175.782 22.9778 175.714 22.99C175.22 23.0791 174.719 22.8844 174.252 22.729C173.627 22.5204 173 22.3126 172.37 22.1197C171.141 21.7443 169.891 21.45 168.631 21.2012C167.371 20.9524 166.098 20.7778 164.818 20.6792C164.175 20.6294 163.522 20.5796 162.878 20.6006C162.424 20.6154 161.792 20.8546 161.39 20.6041C161.346 20.5762 161.318 20.5185 161.334 20.4662C161.629 19.553 163.669 19.8411 164.38 19.8716L164.379 19.8734Z" fill="black"/>
<path d="M60.5853 60.5427C60.8454 58.8666 61.4703 57.3353 62.3484 55.8913C63.1784 54.525 64.1681 53.2408 64.834 51.7803C65.5811 50.1408 65.5829 48.365 65.6841 46.6015C65.7862 44.8145 66.0821 43.0423 66.6311 41.3355C67.1775 39.6384 67.956 38.0233 68.8768 36.499C69.8002 34.9703 70.8379 33.5089 71.6514 31.9165C73.3131 28.6628 73.9468 25.004 75.5126 21.7075C77.0722 18.4241 79.1809 15.3388 81.4353 12.4937C79.2315 13.4802 77.1473 14.7216 75.352 16.2834C74.4338 17.0822 73.5828 17.9806 72.8628 18.9636C72.0939 20.0129 71.4681 21.1636 70.7725 22.261C70.7088 22.3605 70.5726 22.2933 70.5901 22.1841C70.9697 19.8593 72.5032 17.806 74.1824 16.2188C75.8521 14.6404 77.8193 13.3998 79.8695 12.3793C80.7274 11.9524 81.6072 11.5735 82.4966 11.2208C86.2591 6.91595 91.1005 3.64214 96.5397 1.85857C94.301 1.91793 92.0623 2.2392 89.8751 2.68007C87.5762 3.14365 85.252 3.94071 82.9024 4.03849C82.8204 4.04198 82.7881 3.9215 82.8605 3.88396C84.7955 2.8573 87.0665 2.38674 89.1987 1.93626C91.3449 1.4823 93.5181 1.14356 95.7123 1.05539C96.8469 1.00999 97.9972 1.03095 99.1415 1.13047C105.472 -0.330087 112.276 0.294992 118.187 2.99261C119.004 3.36539 119.757 3.84119 120.498 4.34492C120.692 4.47674 120.577 4.84516 120.327 4.75C117.1 3.51206 113.85 2.4819 110.417 2.00174C108.073 1.67349 105.69 1.64206 103.337 1.89698C104.433 2.21388 105.5 2.62682 106.516 3.14888C108.336 4.08476 109.865 5.35762 111.178 6.92381C111.259 7.02071 111.126 7.1604 111.038 7.06524C108.668 4.50555 105.211 2.97253 101.837 2.28634C101.662 2.25055 101.487 2.22087 101.311 2.18944C100.999 2.24618 100.687 2.30293 100.377 2.37015C94.9198 3.55484 89.883 6.2219 85.8812 10.0815C88.5624 9.33159 91.3309 8.89682 94.1229 8.82C95.4941 8.78246 96.8984 8.7973 98.2599 8.9754C99.4207 9.1273 100.563 9.44683 101.472 10.216C101.491 10.2325 101.466 10.2648 101.445 10.2509C100.461 9.56294 99.2951 9.48611 98.1334 9.43984C96.9717 9.3927 95.8153 9.35778 94.6527 9.40492C92.2822 9.50095 89.9292 9.82397 87.6259 10.3958C86.6755 10.6315 85.7206 10.9048 84.7719 11.2147C84.5546 11.4487 84.3373 11.6835 84.1269 11.9244C81.8088 14.5871 79.7962 17.6191 78.117 20.721C77.2625 22.2994 76.5529 23.9363 75.9682 25.6326C75.4104 27.2511 74.926 28.895 74.2933 30.4865C73.6326 32.1496 72.7746 33.6687 71.7814 35.1545C70.81 36.6081 69.7792 38.0373 69.0313 39.6244C68.3191 41.1373 67.8268 42.7594 67.5414 44.4059C67.2368 46.1598 67.3154 47.9477 67.064 49.7077C66.8004 51.5542 65.9887 53.1431 64.9658 54.6804C64.0127 56.1122 62.9218 57.4881 62.344 59.1285C61.699 60.9583 61.651 62.9086 61.8517 64.8214C62.0324 66.5456 62.3466 68.2672 62.6233 69.9827C64.3645 65.8245 66.2017 61.6812 67.6496 57.413C68.4011 55.1973 69.1098 52.965 69.7845 50.7248C70.4557 48.4969 71.1277 46.2663 72.0328 44.1196C75.2202 36.5584 81.3733 30.7397 87.7036 25.7574C94.7191 20.2356 102.128 15.0368 110.679 12.2117C114.902 10.8166 119.313 9.99857 123.754 9.76984C126.023 9.65286 128.29 9.68691 130.556 9.85365C132.962 10.0317 135.344 10.236 137.759 10.1444C140.13 10.0544 142.521 9.81087 144.891 10.0405C146.813 10.2264 148.705 10.6472 150.522 11.2994C154.066 12.5722 157.45 14.6648 159.927 17.5275C160.524 18.2172 161.05 18.9645 161.534 19.7371C161.623 19.8794 161.414 20.0461 161.299 19.9187C158.8 17.111 155.789 14.6954 152.338 13.1694C150.583 12.3941 148.722 11.8511 146.83 11.5464C144.712 11.2051 142.559 11.2426 140.425 11.3614C138.076 11.4923 135.75 11.625 133.397 11.4853C131.143 11.3509 128.898 11.1361 126.638 11.1405C122.256 11.1483 117.87 11.7682 113.643 12.9171C109.405 14.0695 105.362 15.7631 101.57 17.9797C97.7668 20.2041 94.2015 22.8232 90.6973 25.4876C84.463 30.2272 78.2287 35.5675 74.5621 42.6223C72.5041 46.5832 71.5519 50.9378 70.0961 55.1274C68.5643 59.5344 66.7734 63.8977 64.8925 68.1659C64.4317 69.2118 63.9674 70.2568 63.503 71.3009C63.2386 71.8946 62.2899 71.5925 62.2454 71.0425C62.1956 71.0059 62.1511 70.9561 62.1232 70.8819C60.8751 67.5766 60.0407 64.0933 60.5906 60.5427H60.5853Z" fill="black"/>
<path d="M1.22628 109.299C2.09732 105.838 3.27123 102.459 4.75671 99.2139C6.18895 96.0859 7.95633 93.1369 9.51949 90.0752C9.93668 89.2581 10.332 88.4296 10.6995 87.588C10.4246 85.6167 10.8566 83.5511 12.0287 81.9195C13.2506 80.2197 15.4867 78.925 17.55 79.9456C18.2046 80.2695 18.709 80.7566 19.0896 81.3354C19.1542 81.2542 19.2188 81.1731 19.2833 81.0919C19.8402 80.3934 20.397 79.695 20.9538 78.9966C22.0195 77.66 23.0974 76.3339 24.1709 75.0034C24.52 74.5713 24.8412 74.1252 25.1554 73.6756C25.7297 72.0055 26.565 70.256 27.9562 69.197C28.6623 68.6592 29.5281 68.3153 30.4262 68.4689C31.3382 68.6252 32.0216 69.2581 32.5793 69.9574C33.7454 71.4188 34.509 73.1483 34.7831 75.0008C34.9472 76.1139 35.0205 77.6382 34.6129 78.8587C35.2291 78.8657 35.8383 79.0464 36.3698 79.4462C37.5795 80.3577 37.9609 81.9352 38.1128 83.3652C38.2524 84.6782 38.2367 86.2558 37.8344 87.6142C38.1075 87.4658 38.3842 87.3217 38.6635 87.1829C40.2677 86.3867 41.9059 85.6866 43.4647 84.8467C44.1839 84.3692 44.9231 83.9187 45.6746 83.4883C46.0228 83.2395 46.3641 82.9793 46.6949 82.6973C46.8136 82.5961 46.9777 82.6196 47.0815 82.7035C47.881 82.2643 48.6831 81.8322 49.4747 81.3887C50.5735 80.7741 51.6863 80.1708 52.7066 79.4279C53.7033 78.7015 54.5648 77.8093 55.3782 76.8874C56.1724 75.9873 56.9265 75.0515 57.7548 74.1819C58.1336 73.7847 58.5263 73.4023 58.9435 73.047C59.3555 72.6961 59.8198 72.2604 60.3592 72.1277C61.0862 71.9496 61.7295 72.3792 62.0288 72.999C62.1126 72.9519 62.2217 72.9501 62.3195 73.0392C65.2773 75.7097 63.7116 80.0364 62.0489 82.9357C60.0904 86.3509 57.692 89.6352 54.6032 92.1128C54.5726 92.1373 54.5412 92.1608 54.5107 92.1853C53.5026 96.3277 52.8131 100.494 52.5347 104.754C52.2467 109.169 52.5312 113.561 53.0295 117.95C53.527 122.33 54.1048 126.701 54.6477 131.076C55.1853 135.406 55.5597 139.818 56.8314 144.01C58.0088 147.894 59.8608 151.57 62.0794 154.96C63.9935 157.885 66.2199 160.611 68.7807 162.994C71.3222 165.36 74.1963 167.374 77.3776 168.783C80.9962 170.385 84.9115 171.05 88.8539 171.041C93.189 171.032 97.4752 170.294 101.72 169.48C106.095 168.64 110.474 167.821 114.85 166.984C115.881 166.787 116.899 166.674 117.944 166.594C118.247 166.572 118.264 167.002 118.012 167.094C115.863 167.884 113.623 168.343 111.394 168.857C109.166 169.37 106.934 169.854 104.694 170.309C100.345 171.192 95.9705 172.089 91.5368 172.409C87.6311 172.692 83.6643 172.452 79.9069 171.306C80.0178 171.545 80.133 171.783 80.2683 172.014C80.4219 172.277 80.0379 172.488 79.8668 172.249C79.7481 172.083 79.6215 171.927 79.4915 171.774C79.776 176.19 80.0972 180.596 80.6383 184.993C81.2414 189.897 81.8847 194.793 82.3376 199.714C83.1502 208.549 83.3038 217.568 81.2667 226.26C80.716 228.608 79.9907 230.915 79.0717 233.145C78.6187 234.246 78.1291 235.33 77.5871 236.39C77.3113 236.93 77.0233 237.462 76.7222 237.988C76.572 238.249 76.4114 238.506 76.2657 238.769C76.1548 238.97 75.879 239.344 75.8581 239.562C75.8214 239.926 75.4217 240.273 75.0578 240.021C73.972 239.269 74.3901 238.147 74.9452 237.183C75.4819 236.251 75.9785 235.295 76.4359 234.322C77.354 232.369 78.0959 230.337 78.7008 228.265C79.9183 224.094 80.5877 219.792 80.8426 215.459C81.4029 205.932 80.0003 196.52 79.1118 187.062C78.6039 181.662 78.0139 176.183 78.2792 170.752C75.2498 169.591 72.4525 167.863 69.945 165.815C64.1715 161.1 59.7395 154.506 56.9449 147.635C55.2927 143.573 54.5142 139.3 53.9425 134.972C53.3446 130.448 52.7459 125.924 52.1611 121.398C51.5833 116.927 51.0972 112.451 51.0605 107.938C51.0248 103.463 51.4795 99.0097 52.3784 94.6254C52.4465 94.2919 52.5242 93.961 52.5993 93.6293C51.5685 94.3897 50.5412 95.1527 49.596 96.0257C47.9578 97.5395 46.4418 99.1912 44.8865 100.79C42.0168 103.74 38.6932 106.642 37.2383 110.602C36.4397 112.777 35.9797 115.058 35.1427 117.222C34.4069 119.123 33.5132 121.027 32.3629 122.725C34.1207 125.952 35.6323 129.323 37.2391 132.627C38.7918 135.82 40.4038 138.989 41.7977 142.255C42.4654 143.82 43.0658 145.404 43.5537 147.035C43.6401 147.324 43.7265 147.614 43.8147 147.902C43.9639 147.276 44.1952 146.681 44.5312 146.149C45.0313 145.359 45.7348 144.702 46.612 144.359C47.7082 143.931 49.0112 144.047 50.1537 144.199C52.3784 144.495 53.884 145.797 55.0666 147.636C56.2388 149.46 57.3542 151.518 57.8377 153.646C58.1126 154.856 58.1606 156.1 58.2697 157.332C58.323 157.934 58.4068 158.531 58.542 159.121C58.6154 159.44 58.7576 159.754 58.8379 160.073C60.9152 161.899 62.6581 164.116 64.0415 166.503C65.643 169.266 66.7829 172.292 67.5614 175.385C68.3635 178.575 68.9195 181.878 69.1385 185.161C69.2555 186.917 69.2162 188.71 68.792 190.426C68.3897 192.053 67.5954 193.488 66.5455 194.782C65.5793 195.972 64.4342 196.998 63.3485 198.074C62.268 199.146 61.3812 200.282 60.532 201.541C59.8573 202.542 58.4565 201.578 58.9566 200.667C59.9682 198.193 62.3326 196.478 64.1514 194.617C65.0862 193.661 65.9485 192.628 66.5062 191.402C67.132 190.028 67.3432 188.492 67.3746 186.995C67.4392 183.854 66.9705 180.6 66.3194 177.533C65.6448 174.358 64.6463 171.218 63.1381 168.336C61.8237 165.823 60.1419 163.512 58.0568 161.583C56.0363 159.714 53.6693 158.481 51.2037 157.307C48.9048 156.211 46.495 155.071 44.7451 153.163C44.4553 153.205 44.1333 153.069 44.0329 152.731C43.9622 152.49 43.8985 152.241 43.8435 151.986C42.4846 149.873 42.0298 147.325 41.1344 144.971C40.4405 143.146 39.5869 141.395 38.7857 139.615C37.9766 137.819 37.1868 136.013 36.3873 134.213C34.8145 130.671 33.1274 127.159 31.6969 123.556C31.1314 123.892 30.2988 123.331 30.7168 122.646C31.7685 120.921 32.7897 119.204 33.5603 117.33C34.3118 115.503 34.7918 113.603 35.3478 111.712C35.9081 109.806 36.6483 107.99 37.8291 106.38C38.187 105.892 38.5701 105.426 38.9638 104.97C38.9402 104.811 38.9061 104.654 38.852 104.496C38.7368 104.16 38.5544 103.837 38.3266 103.563C38.0901 103.28 37.8143 103.055 37.5079 102.853C37.2033 102.652 36.849 102.471 36.4894 102.401C36.2991 102.365 36.3428 102.056 36.5348 102.064C36.7416 102.073 36.9651 102.08 37.1693 102.119C37.3788 102.16 37.5874 102.252 37.7785 102.342C38.1625 102.523 38.5082 102.822 38.7831 103.142C39.0781 103.484 39.3373 103.908 39.5014 104.36C40.2179 103.569 40.965 102.806 41.7148 102.044C44.4797 99.2358 47.1051 96.1872 50.2035 93.7314C50.1869 93.7192 50.1712 93.7052 50.1616 93.6877C50.0115 93.4215 50.0787 93.0609 50.0324 92.765C49.9835 92.4489 49.9006 92.1303 49.7854 91.8317C49.6746 91.5454 49.5201 91.273 49.3412 91.0233C49.2451 90.8906 49.1195 90.7762 49.0462 90.6296C49.013 90.5632 48.9632 90.4995 48.9362 90.4314C48.9257 90.4043 48.924 90.379 48.9152 90.3528C48.9091 90.3345 48.91 90.331 48.9091 90.3258C48.9039 90.3205 48.8978 90.3144 48.8812 90.2917C48.828 90.2184 48.9283 90.145 48.9947 90.1782C49.0156 90.1887 49.0366 90.1992 49.0575 90.2097C49.1692 90.2044 49.2783 90.2769 49.3761 90.3336C49.5271 90.4209 49.6362 90.5763 49.7418 90.7134C49.9661 91.0032 50.1476 91.3175 50.2899 91.6554C50.4304 91.9906 50.5194 92.3302 50.5604 92.6916C50.5866 92.9239 50.6198 93.2128 50.5535 93.4547C50.6652 93.3691 50.7725 93.2774 50.886 93.1927C51.6305 92.6384 52.3802 92.0989 53.1142 91.541C53.1256 91.4991 53.1352 91.4572 53.1465 91.4153C53.2626 90.9936 53.6161 90.8443 53.9486 90.8906C54.5351 90.4174 55.105 89.9224 55.6444 89.3855C56.9964 88.0385 58.1973 86.5421 59.2935 84.982C61.3995 81.985 64.7973 77.3283 62.199 73.7088C62.2339 74.8297 61.2721 75.7097 60.5102 76.4055C58.5936 78.1559 56.1332 79.661 53.5777 80.2346C53.5515 80.2407 53.5227 80.2407 53.4956 80.2442C52.2772 81.1224 50.9445 81.8331 49.6091 82.5419C48.3148 83.2299 47.0291 83.9519 45.7191 84.618C44.3122 85.8524 42.5361 86.6818 40.8516 87.4614C39.6367 88.0245 38.4165 88.5841 37.2775 89.293C36.0163 90.0787 35.0039 91.0914 34.0482 92.222C33.0655 93.3839 32.1359 94.587 30.9664 95.5708C29.899 96.4692 28.7373 97.2435 27.5887 98.0319C25.241 99.6426 23.1271 101.456 22.1478 104.218C21.5918 105.786 21.4068 107.412 21.1747 109.048C21.0577 109.873 20.9355 110.698 20.7985 111.521C20.6632 112.334 20.5567 113.167 20.2469 113.935C20.143 114.191 19.7965 114.152 19.7677 113.87C19.6159 112.373 19.738 110.757 19.8201 109.254C19.8995 107.801 20.1107 106.33 20.4764 104.921C20.843 103.51 21.4129 102.132 22.2875 100.956C23.1314 99.8224 24.1709 98.897 25.2951 98.0493C26.4105 97.2086 27.5818 96.4465 28.7085 95.6224C29.9191 94.7362 31.0048 93.7314 32.0077 92.6148C33.0559 91.4485 34.0526 90.2367 35.2911 89.2624C35.8357 88.8347 36.4047 88.4496 36.993 88.0943C37.0541 87.5592 37.1484 87.0301 37.1981 86.4897C37.2671 85.7354 37.2679 84.9803 37.2164 84.2251C37.1318 82.9907 36.9773 81.5249 36.1028 80.5646C35.895 80.3367 35.6611 80.1822 35.4133 80.0844C35.333 80.8518 34.674 81.7178 34.283 82.2023C33.3674 83.3355 32.1718 84.24 30.8312 84.8083C30.6557 84.8825 30.4602 84.8834 30.2891 84.8284C29.9453 85.5355 29.6014 86.2418 29.1868 86.9114C28.6204 87.8263 27.9736 88.6871 27.3339 89.5514C24.6344 93.1945 22.8731 97.4094 21.2227 101.606C20.2862 103.988 19.5111 106.436 18.2308 108.658C18.1339 108.827 17.8118 108.768 17.8389 108.552C18.2308 105.431 19.5495 102.474 20.7435 99.5832C21.9253 96.7206 23.066 93.7707 24.7243 91.1438C25.5106 89.8971 26.4271 88.7377 27.2649 87.526C28.1054 86.3116 28.7731 85.0248 29.4355 83.7083C29.9034 82.7794 30.4131 81.854 31.0746 81.05C31.3906 80.5296 31.7764 80.0573 32.273 79.675C32.7338 79.3196 33.2706 79.0656 33.8257 78.9416C33.8719 78.568 33.9339 78.1934 33.9679 77.8198C34.036 77.0699 34.0142 76.3173 33.9225 75.5709C33.7297 74.0108 33.1781 72.5049 32.2791 71.2119C31.8505 70.5965 31.2911 69.8797 30.5518 69.6353C30.4585 69.6047 30.3651 69.5838 30.2726 69.5724C30.359 69.7374 30.3659 69.9356 30.2254 70.1311C29.4364 71.225 28.6553 72.325 27.8759 73.4259C27.3234 74.2064 26.7308 75.2453 25.6869 75.3073C25.4522 75.6233 25.2139 75.9367 24.9695 76.2475C23.9789 77.5081 22.9586 78.7434 21.9436 79.984C21.4033 80.644 20.8622 81.3049 20.3219 81.9649C20.1221 82.2093 19.9213 82.4538 19.7215 82.6982C20.0112 83.6341 20.0907 84.6529 20.0147 85.5757C19.7948 88.2392 18.6759 90.826 17.7795 93.3176C17.255 94.7738 16.7322 96.2308 16.2068 97.687C15.6735 99.1633 15.2048 100.692 14.4586 102.075C14.3163 102.338 13.9567 102.146 14.003 101.883C14.2098 100.697 14.62 99.5762 14.9918 98.4335C15.3628 97.2942 15.7424 96.1584 16.1195 95.0217C16.8509 92.8208 17.6669 90.6383 18.3276 88.4156C18.7728 86.9184 19.1253 85.1924 18.7876 83.6262C18.7614 83.6437 18.7361 83.6611 18.716 83.6821C18.2622 84.1675 17.5343 83.4377 17.9872 82.9531C17.8877 83.0596 18.1356 82.5123 18.0885 82.5917C18.1461 82.4957 18.2212 82.4023 18.2988 82.3106C18.2692 82.2573 18.243 82.2023 18.2116 82.15C17.7542 81.3904 17.015 80.7802 16.0959 80.754C15.1673 80.7287 14.2954 81.263 13.6591 81.8985C13.6478 81.9099 13.639 81.9239 13.6277 81.9352C13.8747 81.8374 14.1531 81.7955 14.4699 81.8339C14.8792 81.8828 15.2362 82.2154 15.1036 82.6659C14.4612 84.8502 13.4601 86.8983 12.0837 88.715C11.9519 88.8888 11.7547 88.9883 11.5557 89.0101C11.3209 89.5008 11.0809 89.9888 10.8322 90.4707C9.34406 93.3595 7.63863 96.1331 6.26574 99.0812C4.8719 102.074 3.71198 105.191 2.82873 108.373C2.02925 111.252 1.37554 114.213 1.30135 117.211C1.26295 118.77 1.36243 120.351 1.74646 121.866C2.1427 123.429 2.90118 124.833 3.55663 126.295C3.64915 126.502 3.59502 126.704 3.47545 126.841C3.82631 127.545 4.16496 128.254 4.47306 128.979C5.2673 130.844 5.94368 132.741 6.48132 134.697C7.01546 136.641 7.40037 138.61 7.75909 140.591C7.92841 141.528 8.11606 142.462 8.37615 143.379C8.64322 144.321 9.20964 145.249 9.36325 146.209C9.41125 146.51 9.07874 146.917 8.76104 146.672C8.01917 146.099 7.67878 145.141 7.37942 144.282C7.06696 143.385 6.85313 142.457 6.66636 141.527C6.264 139.528 5.92799 137.525 5.41043 135.549C4.88414 133.543 4.25747 131.549 3.54353 129.602C3.19878 128.663 2.84094 127.728 2.45866 126.805C2.37313 126.599 2.28061 126.391 2.18635 126.183C0.534164 124.138 0.0899277 121.052 0.0113754 118.535C-0.0855026 115.419 0.468704 112.303 1.22628 109.293V109.299ZM45.1186 150.977C45.1736 151.064 45.226 151.152 45.2853 151.238C46.742 153.328 49.1884 154.508 51.421 155.574C53.5698 156.6 55.6523 157.623 57.5532 159.03C57.5427 158.989 57.5305 158.946 57.5209 158.907C57.287 158.01 57.1866 157.073 57.0862 156.153C56.8576 154.053 56.2466 152.23 55.2185 150.385C54.3588 148.843 53.4485 147.009 51.8714 146.085C50.9645 145.554 49.9015 145.452 48.8716 145.417C47.8531 145.382 46.9166 145.478 46.1703 146.236C45.4965 146.92 45.1369 147.876 45.0418 148.821C44.9676 149.554 45.0375 150.265 45.1186 150.978V150.977ZM58.8484 76.2536C59.2298 75.9524 59.5964 75.6311 59.949 75.2959C60.3321 74.9301 60.8794 74.4857 60.9954 73.9427C61.0723 73.5813 60.8977 73.1692 60.4918 73.3526C60.0188 73.5656 59.5824 74.051 59.2097 74.4054C58.0271 75.5281 57.0286 76.8219 55.9359 78.0276C56.9571 77.5465 57.9311 76.9782 58.8493 76.2545L58.8484 76.2536ZM32.0783 81.7824C31.8776 82.1412 31.7118 82.5236 31.5747 82.9182C31.9448 82.672 32.2983 82.4005 32.6247 82.0932C32.9834 81.7554 33.3159 81.3878 33.6057 80.9888C33.6616 80.912 33.8999 80.5427 34.0508 80.2869C33.2557 80.5969 32.6151 81.1338 32.0792 81.7815L32.0783 81.7824Z" fill="black"/>
<path d="M49.7286 238.67C49.7277 238.649 49.7286 238.632 49.7234 238.602C49.7042 238.485 49.7269 238.323 49.7277 238.2C49.7321 237.865 49.7347 237.531 49.7269 237.196C49.7094 236.454 49.7714 235.721 49.8394 234.982C49.9669 233.604 50.1126 232.227 50.2819 230.853C50.6258 228.068 51.0596 225.293 51.647 222.548C52.7868 217.219 54.5036 211.961 57.1499 207.179C57.5365 206.481 57.9336 205.786 58.3709 205.118C58.7375 204.558 59.1224 203.849 59.6234 203.398C59.9044 203.146 60.4062 203.072 60.703 203.355C60.9413 203.584 60.8479 203.877 60.5485 203.977C60.4604 204.007 60.3897 203.987 60.3382 203.943C60.2806 203.978 60.2378 204.028 60.223 204.112C60.1278 204.248 60.0737 204.414 59.9978 204.562C59.8459 204.859 59.6705 205.144 59.509 205.437C59.1555 206.078 58.7994 206.719 58.4625 207.37C57.8036 208.646 57.1918 209.949 56.6472 211.277C55.5859 213.865 54.7454 216.539 54.048 219.246C53.3253 222.048 52.786 224.896 52.3618 227.758C51.9463 230.561 51.743 233.377 51.4323 236.19C51.3433 236.997 51.1992 237.798 51.0901 238.602C51.016 239.148 50.7349 239.801 50.0716 239.735C49.2573 239.653 49.4065 238.971 49.7286 238.67Z" fill="black"/>
<path d="M9.72448 146.327C9.75765 146.287 9.84056 146.285 9.87372 146.327C10.3075 146.875 10.3791 147.446 10.4716 148.129C10.5746 148.89 10.6426 149.652 10.7709 150.411C11.0293 151.935 11.3828 153.436 11.827 154.917C12.7085 157.854 13.8929 160.68 15.024 163.526C17.4181 169.548 19.1619 175.753 20.3637 182.12C21.0393 185.697 21.5865 189.307 21.6991 192.948C21.7078 193.215 21.295 193.274 21.2313 193.011C20.4554 189.813 19.95 186.566 19.319 183.338C18.6941 180.14 18.0107 176.956 17.1484 173.812C16.2966 170.708 15.2859 167.658 14.1163 164.658C12.9774 161.738 11.752 158.846 10.7771 155.865C10.2543 154.266 9.79691 152.633 9.51413 150.973C9.37623 150.161 9.26627 149.331 9.22525 148.508C9.18598 147.722 9.20954 146.95 9.72448 146.326V146.327Z" fill="black"/>
<path d="M1.52639 240.704C1.99246 239.071 2.62957 237.543 3.5137 236.09C4.40132 234.633 5.34045 233.209 6.27345 231.782C8.10019 228.986 9.94089 226.149 11.2186 223.05C12.4981 219.946 13.0166 216.656 13.3928 213.339C13.7602 210.099 13.9845 206.758 14.9812 203.634C15.5224 201.939 16.2677 200.297 17.2976 198.842C18.4689 197.186 19.9849 195.815 21.2155 194.205C21.4346 193.918 21.8928 194.159 21.713 194.496C20.8769 196.059 19.6629 197.372 18.6338 198.805C17.6947 200.115 16.9843 201.561 16.485 203.092C15.4656 206.219 15.1593 209.508 14.8407 212.764C14.5204 216.039 14.1547 219.333 13.0437 222.45C11.9178 225.61 10.2202 228.514 8.43185 231.337C7.41418 232.943 6.36511 234.53 5.36664 236.149C4.34897 237.797 3.28154 239.385 2.18358 240.98C1.96189 241.303 1.40769 241.115 1.52551 240.702L1.52639 240.704Z" fill="black"/>
<path d="M36.316 192.013C39.2355 190.041 43.0941 189.599 46.525 190.049C48.2592 190.276 49.9315 190.756 51.5217 191.484C52.3761 191.875 53.1948 192.347 54.0772 192.677C54.5572 192.855 55.0626 192.998 55.5758 193.033C55.835 193.05 56.1239 193.068 56.3586 192.927C56.4564 192.868 56.4189 192.666 56.4433 192.793C56.4285 192.718 56.4756 192.648 56.5559 192.645C56.651 192.642 56.699 192.653 56.7828 192.693C56.878 192.739 56.9347 192.881 56.8998 192.981C56.6772 193.626 55.9537 193.624 55.3759 193.581C54.4979 193.515 53.6687 193.218 52.864 192.876C51.0966 192.126 49.3973 191.432 47.4955 191.092C43.7068 190.415 40.0533 191.167 36.4443 192.317C36.2567 192.376 36.1659 192.114 36.316 192.013Z" fill="black"/>
<path d="M22.3194 146.201C22.6554 145.834 22.8858 145.498 23.2829 145.186C23.5736 144.958 23.879 144.753 24.1906 144.556C24.9037 144.104 25.6578 143.724 26.4319 143.389C27.4985 142.928 28.5912 142.626 29.6953 142.333C29.4841 141.416 29.2746 140.498 29.0363 139.594C28.5441 137.721 27.9131 135.861 26.9416 134.179C25.9833 132.52 24.6087 131.143 23.0063 130.097C22.8343 129.985 22.939 129.687 23.1511 129.753C26.4206 130.766 28.1784 134.214 29.2091 137.248C29.7503 138.84 30.1203 140.482 30.5026 142.119C30.706 142.064 30.9102 142.009 31.1144 141.952C31.8912 141.734 32.6531 141.462 33.3339 141.021C34.0845 140.535 34.6431 139.844 35.1545 139.122C35.4818 138.66 36.7928 136.255 37.5032 137.691C37.5695 137.824 37.3854 137.934 37.3025 137.808C36.8879 137.176 35.9409 139.121 35.7856 139.375C35.4103 139.985 34.9791 140.578 34.4607 141.075C33.4709 142.025 32.1783 142.516 30.8814 142.887C30.8203 142.904 30.7592 142.921 30.6981 142.937C31.1022 144.625 31.5491 146.299 32.2456 147.899C32.9796 149.586 34.0042 151.148 35.4522 152.306C36.3363 153.014 37.3278 153.575 38.2232 154.269C39.0236 154.89 39.7471 155.601 40.4078 156.368C41.7711 157.954 42.8787 159.737 43.9487 161.528C45.0668 163.398 46.1403 165.295 47.1274 167.238C48.221 169.393 49.1942 171.602 49.9797 173.889C50.7748 176.203 51.2705 178.523 51.528 180.951C51.535 181.013 51.4328 181.026 51.4189 180.966C50.4998 176.784 48.9114 172.715 47.0192 168.884C46.0696 166.962 45.0257 165.089 43.9304 163.246C42.8726 161.466 41.8113 159.664 40.5876 157.992C39.9828 157.166 39.3186 156.378 38.5776 155.67C37.7895 154.917 36.9019 154.326 36.0011 153.718C34.4589 152.678 33.1951 151.426 32.2543 149.812C31.0516 147.748 30.4319 145.465 29.8882 143.161C28.7684 143.468 27.6547 143.777 26.582 144.244C25.9013 144.539 25.238 144.879 24.5886 145.238C24.2343 145.433 23.8886 145.645 23.536 145.842C23.1773 146.043 22.7907 146.156 22.4319 146.347C22.3368 146.398 22.2452 146.279 22.3176 146.199L22.3194 146.201Z" fill="black"/>
<path d="M12.8945 112.722C12.8753 111.778 13.1834 110.903 13.543 110.043C13.9689 109.023 14.3459 108.006 14.5266 106.91C14.6191 106.351 14.6671 105.786 14.6689 105.219C14.6706 104.708 14.5065 104.086 14.6846 103.604C14.7178 103.514 14.8426 103.456 14.9159 103.542C15.3776 104.086 15.3322 105.178 15.3426 105.853C15.3557 106.736 15.2589 107.62 15.0599 108.48C14.8425 109.42 14.421 110.279 14.1399 111.198C13.8711 112.075 13.8668 112.914 14.1199 113.793C14.5685 115.353 15.5207 116.714 15.9807 118.271C16.5244 120.112 15.999 121.951 16.1945 123.814C16.2896 124.718 16.6405 125.587 17.1799 126.319C17.5787 126.86 18.6584 127.528 18.6444 128.255C18.6427 128.354 18.5912 128.455 18.5021 128.504C17.8598 128.854 17.0682 128.169 16.6449 127.736C16.0723 127.151 15.6307 126.429 15.3234 125.673C14.5859 123.853 15.0127 122.004 15.0066 120.111C15.0005 118.292 14.064 116.749 13.4269 115.099C13.1336 114.339 12.9137 113.541 12.8962 112.721L12.8945 112.722Z" fill="black"/>
<path d="M85.6185 226.69C85.7721 227.04 85.979 227.356 86.1405 227.702C86.3037 228.052 86.4442 228.411 86.5978 228.765C86.9094 229.48 87.2175 230.194 87.5526 230.899C88.2107 232.283 89.1271 233.54 89.7005 234.961C89.7913 235.186 89.4789 235.303 89.3305 235.176C88.1365 234.162 87.3755 232.615 86.7165 231.218C86.391 230.528 86.089 229.805 85.8655 229.074C85.7442 228.678 85.6273 228.279 85.5566 227.87C85.4911 227.495 85.4972 227.113 85.4536 226.734C85.444 226.649 85.5845 226.61 85.6185 226.69Z" fill="black"/>
</g>
<defs>
<clipPath id="clip0_385_911">
<rect width="215" height="247" fill="white" transform="matrix(-1 0 0 1 215 0)"/>
</clipPath>
</defs>
</svg>
