<svg viewBox="0 0 230 291" fill="none" xmlns="http://www.w3.org/2000/svg">
                  <title>Young Woman</title>
                  <g clip-path="url(#clip0_385_360)">
                  <path d="M35.7377 274.635C34.8427 267.754 33.9117 260.877 33.3382 253.947C33.063 250.483 32.8753 246.996 33.0553 243.496C33.1324 241.746 33.3408 239.999 33.6262 238.267C33.9091 236.532 34.3386 234.826 34.8118 233.141C35.7737 229.769 36.9927 226.506 38.2066 223.253C39.4256 220 40.6549 216.76 41.8534 213.51C44.2477 207.007 46.5443 200.473 48.7226 193.895L49.5379 191.427C49.8156 190.593 50.0651 189.814 50.2837 188.998C50.708 187.371 51.0115 185.706 51.2147 184.021C51.6236 180.65 51.675 177.219 51.5439 173.794C51.2661 166.936 50.2734 160.09 49.0878 153.286C47.8894 146.479 46.4414 139.706 44.9781 132.927C44.2477 129.535 43.5122 126.144 42.8075 122.739L41.7788 117.633L40.7269 112.543C39.3099 105.756 37.898 98.8956 37.2242 91.9035C36.8795 88.4113 36.7278 84.896 36.7535 81.3832C36.7792 77.8704 37.0056 74.3628 37.3759 70.8757C37.7488 67.3887 38.2786 63.9248 38.9318 60.4866L39.4436 57.9131L39.9965 55.35C40.3823 53.618 40.871 51.8938 41.4393 50.2159C42.5786 46.8524 44.0214 43.615 45.6725 40.4985C47.3184 37.3794 49.1701 34.3814 51.1812 31.4965C55.2035 25.7294 59.8327 20.3868 65.11 15.6954C65.7658 15.1138 66.4551 14.5245 67.1598 13.9763C67.8644 13.4256 68.5819 12.8955 69.3149 12.3911C70.7782 11.3797 72.2853 10.4481 73.8258 9.57828C76.9042 7.84119 80.1087 6.35115 83.3877 5.06956C89.9509 2.52183 96.851 0.77959 103.908 0.19284C107.434 -0.0953887 110.998 -0.0799479 114.535 0.336954C118.068 0.753856 121.574 1.59538 124.907 2.92844L124.23 2.8641C126.463 2.43948 128.764 2.3211 131.03 2.54242C133.296 2.75601 135.508 3.30416 137.616 4.0376C141.842 5.51734 145.666 7.67391 149.501 9.60144L150.941 10.3169L151.301 10.4919L151.682 10.6874C151.934 10.8213 152.193 10.9422 152.438 11.0863C153.435 11.6345 154.369 12.265 155.279 12.9186C157.085 14.244 158.749 15.7211 160.305 17.2858C161.866 18.8479 163.324 20.5001 164.705 22.2114C166.086 23.9202 167.39 25.6882 168.614 27.5076C169.841 29.3271 170.993 31.1954 172.053 33.1204C173.117 35.0427 174.092 37.0192 174.943 39.0651C175.363 40.0893 175.746 41.1444 176.08 42.179C176.25 42.6988 176.43 43.2161 176.594 43.7385L177.068 45.3109L177.304 46.0984L177.518 46.891L177.945 48.4762C178.078 49.0064 178.199 49.5417 178.328 50.0718C178.454 50.6045 178.585 51.1346 178.69 51.6725C180.55 60.2318 181.074 69.0331 180.66 77.7314C180.239 86.44 178.958 95.0509 177.466 103.584C176.723 107.854 175.913 112.108 175.134 116.362C174.326 120.608 173.696 124.87 173.266 129.165C172.837 133.457 172.6 137.77 172.652 142.078C172.68 144.232 172.786 146.386 173.002 148.528C173.11 149.598 173.251 150.664 173.423 151.726C173.511 152.256 173.606 152.787 173.709 153.317C173.809 153.847 173.907 154.377 174.02 154.905C174.874 159.133 176.013 163.312 177.626 167.319C179.233 171.326 181.344 175.132 183.896 178.627C181.265 175.191 179.056 171.424 177.345 167.435C175.622 163.448 174.401 159.259 173.459 155.023C173.336 154.495 173.228 153.963 173.117 153.433C173.004 152.902 172.896 152.37 172.801 151.832C172.611 150.759 172.449 149.683 172.323 148.602C172.071 146.44 171.929 144.268 171.867 142.094C171.749 137.747 171.939 133.401 172.312 129.075C172.685 124.749 173.277 120.433 174.015 116.164L176.142 103.358C177.515 94.827 178.667 86.2573 178.968 77.6568C179.259 69.0666 178.68 60.4429 176.772 52.092C176.664 51.567 176.53 51.0497 176.402 50.5299C176.27 50.01 176.147 49.4902 176.011 48.9729L175.579 47.4263L175.363 46.6542L175.123 45.8873L174.648 44.3561C174.483 43.8466 174.303 43.3447 174.131 42.8378C173.789 41.8161 173.426 40.8382 173.02 39.8628C172.194 37.9173 171.243 36.0104 170.196 34.1549C169.157 32.2969 168.02 30.4877 166.819 28.7223C165.621 26.9569 164.348 25.243 163.003 23.5934C161.657 21.9412 160.243 20.3508 158.738 18.8582C157.239 17.363 155.65 15.9656 153.963 14.7381C153.114 14.1359 152.247 13.5569 151.347 13.0653C151.126 12.9341 150.895 12.8286 150.668 12.7102L150.326 12.5352L149.956 12.3576L148.487 11.6371C144.591 9.69666 140.826 7.61215 136.863 6.25078C134.885 5.57139 132.864 5.08757 130.819 4.90486C128.777 4.717 126.72 4.8328 124.703 5.22397L124.359 5.29088L124.027 5.15963C120.91 3.92951 117.613 3.1549 114.262 2.77145C110.911 2.38029 107.509 2.36999 104.124 2.65307C97.3525 3.22696 90.6684 4.92287 84.3161 7.40112C81.1426 8.64925 78.0436 10.0955 75.0834 11.7709C73.6046 12.6098 72.1619 13.5054 70.7757 14.4679C70.0813 14.9491 69.4023 15.4484 68.744 15.9682C68.083 16.4855 67.4555 17.0233 66.8126 17.5946C61.7256 22.1291 57.2224 27.3558 53.2952 32.9505C51.3355 35.753 49.5327 38.6662 47.9356 41.6797C46.3334 44.6907 44.9395 47.8071 43.8491 51.0163C43.3039 52.6221 42.8409 54.2408 42.4706 55.893L41.9202 58.415L41.4136 60.9447C40.7681 64.3237 40.2434 67.7206 39.8705 71.133C39.5028 74.5455 39.2764 77.9682 39.2456 81.3935C39.2147 84.8187 39.3587 88.244 39.6854 91.659C40.3103 98.4916 41.6656 105.26 43.0518 112.056L44.0805 117.165L45.0861 122.265C45.7728 125.657 46.4954 129.049 47.213 132.443C48.6506 139.232 50.0779 146.036 51.261 152.902C51.8499 156.335 52.3797 159.781 52.7938 163.25C53.2052 166.717 53.5164 170.204 53.6296 173.711C53.7402 177.217 53.6707 180.747 53.2207 184.263C52.9969 186.02 52.6677 187.773 52.2048 189.502C51.9682 190.362 51.6853 191.232 51.4024 192.04L50.5537 194.503C49.4196 197.786 48.2468 201.057 47.0587 204.323C45.8551 207.581 44.6232 210.831 43.3579 214.066C42.0951 217.301 40.8041 220.525 39.5259 223.745C38.2554 226.969 36.9876 230.189 35.9614 233.467C35.4599 235.109 34.9996 236.764 34.6832 238.447C34.3643 240.13 34.12 241.829 34.0043 243.543C33.8834 245.256 33.8294 246.981 33.8525 248.705L33.8654 249.999L33.904 251.296C33.922 252.161 33.9734 253.026 34.0146 253.888C34.1946 257.347 34.4878 260.8 34.7887 264.256C35.087 267.713 35.4213 271.166 35.7505 274.62L35.7377 274.635Z" fill="black"></path>
                  <path d="M69.6514 69.9467C71.5056 67.049 73.9231 64.5142 76.6441 62.3782C79.3624 60.2293 82.3611 58.4588 85.4524 56.9147C87.0006 56.1427 88.5746 55.4247 90.1639 54.7478C91.7533 54.0787 93.3555 53.4431 94.9578 52.8177C98.1622 51.5696 101.367 50.3549 104.497 49.0142C106.06 48.3451 107.606 47.6399 109.118 46.8808C109.869 46.4922 110.62 46.1061 111.353 45.6892L111.906 45.3804L112.448 45.0587L112.991 44.7345L113.261 44.5724L113.503 44.4154C114.776 43.5738 115.828 42.3489 116.694 40.9875C117.561 39.621 118.258 38.1181 118.855 36.5663C120.038 33.4524 120.817 30.1481 121.432 26.818C122.044 23.4802 122.468 20.1013 122.867 16.6914L125.261 16.9204C125.197 18.1634 125.351 19.4321 125.706 20.6777C126.043 21.9258 126.555 23.1534 127.159 24.3423C128.378 26.7254 129.962 28.972 131.662 31.1363C135.072 35.4726 138.984 39.4769 142.718 43.6922C144.591 45.7973 146.445 47.941 148.165 50.2314C149.027 51.3766 149.847 52.563 150.601 53.8137C150.974 54.4416 151.331 55.085 151.661 55.7463C151.987 56.4052 152.288 57.1129 152.537 57.7974C154.543 63.1708 155.613 68.8299 156.297 74.4271C156.652 77.2245 156.91 80.0244 157.342 82.7214C157.565 84.0622 157.848 85.3875 158.329 86.5559C158.568 87.1401 158.867 87.6702 159.229 88.118C159.592 88.5632 160.027 88.9132 160.533 89.1628C161.549 89.6621 162.845 89.7316 164.144 89.6029L164.406 89.5771C164.517 89.5668 164.627 89.5566 164.743 89.5566C164.972 89.5514 165.214 89.5669 165.461 89.6183C165.954 89.7058 166.471 89.9786 166.837 90.3569C167.202 90.7352 167.423 91.1753 167.564 91.587C167.708 92.0039 167.778 92.408 167.822 92.8017C167.904 93.5892 167.873 94.3381 167.809 95.0715C167.739 95.8049 167.634 96.5204 167.5 97.2281C167.238 98.6409 166.888 100.02 166.507 101.387C166.124 102.751 165.705 104.099 165.265 105.437L164.931 106.441C164.813 106.786 164.717 107.072 164.615 107.422C164.409 108.098 164.19 108.778 163.941 109.449C163.434 110.788 162.868 112.126 161.976 113.341C161.75 113.642 161.498 113.935 161.202 114.2C160.904 114.463 160.556 114.704 160.142 114.851C159.731 115.006 159.25 115.024 158.826 114.916C158.401 114.805 158.033 114.596 157.725 114.354C157.568 114.234 157.424 114.105 157.29 113.971L157.239 113.92L157.213 113.894C157.213 113.894 157.226 113.904 157.236 113.912C157.259 113.927 157.303 113.953 157.357 113.963C157.414 113.974 157.468 113.968 157.504 113.956C157.573 113.932 157.573 113.914 157.57 113.922C157.565 113.927 157.547 113.943 157.532 113.963C157.46 114.053 157.378 114.198 157.306 114.342C157.231 114.488 157.162 114.64 157.092 114.797C156.817 115.422 156.562 116.076 156.308 116.727C155.799 118.032 155.284 119.344 154.726 120.636C154.171 121.928 153.566 123.202 152.887 124.437C152.211 125.67 151.462 126.867 150.603 127.976C152.177 125.649 153.276 123.058 154.258 120.448C154.747 119.139 155.186 117.813 155.629 116.483C155.853 115.816 156.069 115.15 156.328 114.481C156.395 114.313 156.462 114.146 156.539 113.974C156.619 113.801 156.699 113.634 156.835 113.441C156.871 113.392 156.91 113.341 156.969 113.286C157.028 113.232 157.102 113.163 157.254 113.112C157.331 113.088 157.432 113.078 157.529 113.096C157.624 113.114 157.709 113.158 157.766 113.202C157.794 113.222 157.82 113.248 157.838 113.263L157.861 113.284L157.905 113.325C158.023 113.433 158.144 113.534 158.27 113.621C158.519 113.801 158.784 113.927 159.042 113.981C159.299 114.03 159.548 114.012 159.792 113.909C160.284 113.714 160.726 113.232 161.089 112.702C161.814 111.621 162.313 110.327 162.737 109.033C162.948 108.381 163.141 107.72 163.321 107.048C163.406 106.722 163.516 106.338 163.619 106.019L163.925 105.018C164.327 103.682 164.707 102.344 165.047 100.998C165.386 99.6548 165.687 98.3038 165.903 96.9553C166.011 96.281 166.093 95.6068 166.137 94.9428C166.181 94.2789 166.183 93.6201 166.101 93.0127C166.026 92.4105 165.831 91.8572 165.571 91.6153C165.443 91.497 165.314 91.4249 165.116 91.3914C165.021 91.3734 164.91 91.3657 164.789 91.3734C164.73 91.3734 164.666 91.3812 164.604 91.3889L164.345 91.4198C163.604 91.5098 162.843 91.551 162.061 91.4892C161.282 91.4326 160.474 91.2525 159.71 90.9076C159.332 90.7275 158.964 90.5165 158.627 90.2565C158.296 89.9966 157.985 89.711 157.717 89.3944C157.18 88.7665 156.776 88.0665 156.467 87.3614C155.847 85.946 155.518 84.5126 155.243 83.0997C154.97 81.6869 154.783 80.2818 154.597 78.887C154.412 77.4922 154.24 76.105 154.045 74.7257C153.661 71.9695 153.201 69.239 152.573 66.5549C151.949 63.8708 151.164 61.233 150.207 58.6621C149.305 56.207 147.793 53.9346 146.149 51.7472C144.493 49.5623 142.67 47.4701 140.808 45.3959L137.986 42.2948L135.162 39.1681C133.285 37.0681 131.426 34.9347 129.674 32.6881C127.925 30.4389 126.267 28.079 124.942 25.4618C124.284 24.1545 123.713 22.7751 123.325 21.3159C122.931 19.8619 122.751 18.3101 122.856 16.7532L125.251 16.9822C124.816 20.3921 124.353 23.8276 123.69 27.24C123.024 30.6525 122.188 34.0572 120.897 37.3564C120.249 39.0034 119.472 40.6221 118.472 42.1404C117.471 43.6511 116.226 45.0845 114.609 46.1164L114.305 46.3043L114.02 46.4664L113.449 46.7907L112.878 47.1124L112.297 47.4186C111.528 47.8329 110.741 48.2112 109.959 48.5947C108.385 49.3384 106.785 50.0178 105.181 50.6637C101.963 51.9453 98.6997 53.0391 95.467 54.1817C93.8519 54.753 92.2394 55.3294 90.6449 55.9394C89.0478 56.5415 87.4661 57.1823 85.9128 57.8772C82.8061 59.272 79.7894 60.8856 77.0041 62.8517C74.2317 64.8255 71.6831 67.1648 69.6539 69.9416L69.6514 69.9467Z" fill="black"></path>
                  <path d="M149.128 192.202C152.924 191.963 156.658 191.239 160.3 190.231C163.944 189.217 167.503 187.932 171.024 186.535C174.553 185.156 178.048 183.671 181.584 182.25C182.476 181.895 183.34 181.548 184.266 181.208C185.187 180.879 186.115 180.593 187.051 180.336C188.924 179.823 190.824 179.43 192.743 179.149C196.58 178.596 200.507 178.467 204.396 179.008C208.274 179.54 212.129 180.74 215.552 182.796C217.262 183.82 218.854 185.048 220.279 186.445C221.701 187.848 222.948 189.42 224.018 191.09C226.161 194.443 227.57 198.18 228.486 201.976C229.396 205.779 229.838 209.658 229.959 213.523C230.077 217.391 229.908 221.246 229.548 225.073C229.368 226.987 229.139 228.894 228.871 230.794C228.599 232.701 228.303 234.561 228.002 236.442C227.405 240.197 226.824 243.954 226.194 247.714C225.559 251.471 224.867 255.229 224.008 258.963C223.165 262.699 222.087 266.385 220.847 270.003C219.618 273.626 218.168 277.16 216.648 280.652C215.894 282.402 215.084 284.126 214.292 285.855C213.489 287.58 212.643 289.286 211.82 291C213.194 287.451 214.59 283.915 215.884 280.343C216.208 279.45 216.555 278.567 216.858 277.669L217.792 274.983C218.093 274.084 218.373 273.181 218.666 272.28C218.972 271.385 219.227 270.474 219.502 269.571C220.582 265.947 221.449 262.275 222.187 258.574C222.928 254.874 223.473 251.124 224.023 247.372C224.579 243.62 225.091 239.852 225.618 236.087L226.418 230.451C226.672 228.586 226.888 226.715 227.056 224.844C227.393 221.099 227.539 217.345 227.405 213.611C227.259 209.882 226.87 206.163 226.019 202.565C225.171 198.975 223.864 195.496 221.922 192.423C219.983 189.356 217.404 186.72 214.32 184.824C211.242 182.914 207.711 181.751 204.079 181.203C200.44 180.66 196.698 180.673 193.008 181.126C191.161 181.355 189.325 181.689 187.522 182.14C186.622 182.366 185.727 182.621 184.853 182.912C184.421 183.056 183.976 183.218 183.528 183.377L182.191 183.854C178.624 185.135 175.07 186.489 171.469 187.745C167.861 188.977 164.209 190.12 160.475 190.941C158.608 191.345 156.722 191.672 154.83 191.901C152.934 192.112 151.028 192.217 149.128 192.204V192.202Z" fill="black"></path>
                  <path d="M183.582 231.875C183.885 235.668 183.798 239.489 183.366 243.288C182.928 247.084 182.093 250.854 180.917 254.498C179.745 258.147 178.23 261.647 176.648 265.067C175.056 268.487 173.441 271.864 171.818 275.31C172.415 271.545 173.544 267.885 174.771 264.313C176.008 260.739 177.327 257.241 178.469 253.708C179.611 250.174 180.583 246.597 181.378 242.951C182.188 239.307 182.823 235.611 183.582 231.875Z" fill="black"></path>
                  <path d="M128.713 265.942C125.787 260.098 123.505 253.875 122.253 247.382C121.651 244.135 121.314 240.82 121.342 237.487C121.378 234.157 121.805 230.812 122.662 227.564C123.094 225.943 123.631 224.34 124.279 222.793C124.928 221.246 125.66 219.746 126.445 218.282C128.011 215.35 129.762 212.561 131.457 209.784C133.16 207.015 134.801 204.22 136.359 201.374C137.918 198.528 139.373 195.627 140.801 192.714C142.215 189.796 143.558 186.842 144.813 183.846C145.432 182.346 146.047 180.845 146.631 179.33C146.934 178.578 147.22 177.819 147.508 177.06C147.798 176.303 148.084 175.541 148.357 174.777C148.917 173.254 149.442 171.717 149.961 170.178L150.717 167.862C150.962 167.09 151.198 166.321 151.417 165.551C151.854 164.012 152.232 162.471 152.435 160.924C152.543 160.15 152.597 159.375 152.603 158.605C152.613 158.219 152.587 157.836 152.572 157.453C152.536 157.072 152.507 156.688 152.441 156.312C152.224 154.804 151.695 153.317 151.108 151.824C150.517 150.332 149.83 148.837 149.251 147.267C148.675 145.702 148.197 144.037 148.117 142.305C148.071 141.448 148.146 140.553 148.303 139.729C148.452 138.9 148.65 138.097 148.855 137.3C149.267 135.707 149.732 134.142 150.118 132.567C150.306 131.782 150.491 130.992 150.591 130.21C150.64 129.819 150.671 129.425 150.638 129.062C150.622 128.882 150.586 128.707 150.527 128.568C150.465 128.426 150.386 128.347 150.278 128.3C150.044 128.208 149.65 128.311 149.308 128.465C149.218 128.504 149.136 128.547 149.043 128.591L148.768 128.725C148.593 128.815 148.418 128.908 148.254 129.016C147.58 129.433 146.975 129.968 146.433 130.56C145.348 131.754 144.545 133.198 143.907 134.698C144.435 133.154 145.157 131.654 146.194 130.354C146.713 129.708 147.307 129.111 148.002 128.632C148.174 128.509 148.354 128.398 148.537 128.293L148.804 128.143C148.894 128.094 148.989 128.038 149.084 127.991C149.277 127.894 149.483 127.806 149.709 127.747C149.933 127.69 150.195 127.659 150.473 127.744C150.751 127.832 150.98 128.069 151.085 128.298C151.201 128.529 151.252 128.761 151.286 128.985C151.347 129.433 151.332 129.86 151.304 130.282C151.237 131.123 151.098 131.942 150.936 132.75C150.612 134.366 150.213 135.954 149.876 137.542C149.709 138.334 149.55 139.127 149.442 139.912C149.39 140.303 149.347 140.694 149.339 141.07C149.334 141.451 149.349 141.837 149.39 142.22C149.534 143.757 150.028 145.257 150.645 146.726C151.263 148.198 152.003 149.647 152.685 151.163C153.027 151.92 153.351 152.697 153.626 153.502C153.906 154.305 154.143 155.142 154.295 156.001C154.382 156.428 154.428 156.861 154.482 157.29C154.516 157.723 154.555 158.155 154.56 158.585C154.58 159.447 154.547 160.309 154.457 161.156C154.287 162.854 153.942 164.512 153.523 166.125C153.31 166.931 153.083 167.728 152.849 168.518L152.129 170.878C151.633 172.446 151.131 174.013 150.594 175.567C150.334 176.347 150.059 177.122 149.779 177.896C149.501 178.671 149.228 179.445 148.933 180.215C148.351 181.754 147.739 183.28 147.119 184.806C145.867 187.848 144.525 190.854 143.107 193.823C140.268 199.76 137.043 205.515 133.556 211.086C131.802 213.855 130.02 216.57 128.451 219.375C126.88 222.18 125.545 225.076 124.634 228.12C123.724 231.167 123.228 234.34 123.071 237.541C122.904 240.743 123.084 243.975 123.534 247.174C123.961 250.38 124.676 253.554 125.558 256.685C125.997 258.253 126.489 259.807 127.021 261.349C127.543 262.895 128.119 264.421 128.716 265.945L128.713 265.942Z" fill="black"></path>
                  <path d="M98.952 263.863C98.0056 258.786 97.2778 253.685 96.6014 248.582C96.2568 246.031 95.9919 243.476 95.7656 240.89C95.5547 238.306 95.4132 235.699 95.4544 233.074C95.4981 230.452 95.7399 227.798 96.2465 225.207C96.7506 222.613 97.4681 220.063 98.3965 217.597C100.264 212.666 102.838 208.052 105.793 203.757C107.269 201.606 108.828 199.519 110.458 197.496C112.091 195.476 113.786 193.512 115.512 191.585C117.237 189.657 118.994 187.763 120.766 185.892L122.096 184.49L122.762 183.79C122.991 183.553 123.181 183.339 123.392 183.113C124.204 182.209 124.922 181.242 125.521 180.22C126.113 179.198 126.565 178.112 126.843 176.983C127.111 175.85 127.219 174.679 127.154 173.501C127.028 171.141 126.216 168.763 125.457 166.28C125.076 165.037 124.721 163.747 124.48 162.412C124.24 161.032 124.212 159.632 124.4 158.243C124.588 156.858 124.999 155.471 125.75 154.213C126.131 153.59 126.594 152.998 127.157 152.499C127.712 151.992 128.368 151.59 129.062 151.3L129.482 151.125L129.875 151.33C130.197 151.498 130.505 151.734 130.752 152.018C131.002 152.301 131.184 152.622 131.31 152.939C131.565 153.58 131.624 154.19 131.647 154.756C131.665 155.324 131.632 155.862 131.593 156.38C131.555 156.897 131.511 157.393 131.506 157.844C131.49 159.699 132.077 161.555 132.951 163.31C133.823 165.073 134.947 166.756 136.037 168.488C136.585 169.352 137.125 170.233 137.627 171.146C138.123 172.062 138.609 173.079 138.722 174.242C138.784 174.818 138.714 175.421 138.565 175.964C138.414 176.509 138.19 177.011 137.945 177.482C137.701 177.953 137.434 178.396 137.182 178.833C136.937 179.273 136.675 179.705 136.444 180.153C136.204 180.598 135.968 181.044 135.744 181.497C135.513 181.944 135.299 182.402 135.086 182.861C134.867 183.316 134.672 183.782 134.461 184.242C134.268 184.708 134.065 185.174 133.882 185.645C132.398 189.41 131.349 193.363 130.78 197.398C130.942 195.368 131.228 193.342 131.634 191.335C132.046 189.33 132.596 187.354 133.252 185.411C133.905 183.465 134.7 181.566 135.603 179.718C135.821 179.253 136.068 178.802 136.299 178.342C136.539 177.886 136.78 177.446 136.986 177.003C137.408 176.121 137.665 175.233 137.534 174.371C137.418 173.496 136.978 172.639 136.485 171.789C135.978 170.932 135.425 170.094 134.857 169.255C133.723 167.577 132.519 165.901 131.521 164.041C131.025 163.109 130.58 162.134 130.256 161.094C129.927 160.06 129.731 158.958 129.713 157.846C129.708 157.278 129.744 156.758 129.77 156.259C129.795 155.759 129.811 155.278 129.785 154.828C129.762 154.38 129.69 153.963 129.556 153.657C129.42 153.345 129.253 153.176 128.996 153.044L129.808 153.073C128.828 153.5 128.036 154.267 127.489 155.232C126.941 156.199 126.619 157.334 126.491 158.498C126.36 159.663 126.419 160.86 126.63 162.013C126.861 163.204 127.206 164.396 127.594 165.608C127.98 166.818 128.399 168.048 128.754 169.332C129.114 170.611 129.392 171.957 129.495 173.349C129.59 174.736 129.484 176.154 129.178 177.528C128.862 178.903 128.33 180.22 127.651 181.432C126.961 182.639 126.136 183.746 125.236 184.757C125.009 185.002 124.773 185.267 124.557 185.493L123.896 186.193L122.576 187.596C120.822 189.467 119.089 191.35 117.394 193.262C114.007 197.087 110.769 201.029 107.879 205.193C104.991 209.354 102.499 213.781 100.701 218.467C99.8161 220.814 99.0832 223.215 98.5791 225.665C98.0648 228.115 97.8024 230.603 97.7253 233.12C97.6507 235.637 97.7536 238.175 97.9233 240.722C98.003 241.996 98.1008 243.273 98.2036 244.552L98.2808 245.512L98.3374 246.474L98.4479 248.402C98.7206 253.543 98.9417 258.688 98.9417 263.855L98.952 263.863Z" fill="black"></path>
                  <path d="M137.708 172.741C138.164 171.709 138.524 170.647 138.755 169.556C139.002 168.469 139.146 167.363 139.221 166.254C139.365 164.035 139.275 161.807 139.084 159.581C138.909 157.352 138.66 155.121 138.441 152.872C138.223 150.623 138.076 148.348 138.079 146.047C138.086 143.749 138.269 141.409 138.83 139.109C138.966 138.532 139.131 137.964 139.318 137.397C139.367 137.253 139.408 137.122 139.465 136.968C139.521 136.813 139.583 136.659 139.648 136.51C139.781 136.209 139.928 135.915 140.1 135.629C140.447 135.058 140.864 134.495 141.512 134.011C141.836 133.774 142.235 133.558 142.711 133.45C143.181 133.339 143.721 133.365 144.174 133.512C144.639 133.65 145.061 133.934 145.37 134.232C145.681 134.536 145.907 134.86 146.087 135.174C146.177 135.331 146.257 135.491 146.329 135.645C146.396 135.797 146.46 135.946 146.522 136.098C146.64 136.402 146.746 136.71 146.831 137.022C147.18 138.272 147.255 139.544 147.209 140.748C147.108 143.162 146.591 145.378 146.445 147.493C146.28 149.573 146.555 151.696 146.951 153.881C147.329 156.063 147.823 158.309 147.993 160.669C148.08 161.848 148.073 163.055 147.96 164.236C147.854 165.417 147.646 166.581 147.376 167.718C147.106 168.853 146.779 169.967 146.411 171.056C146.041 172.144 145.635 173.212 145.215 174.268C144.796 175.323 144.367 176.365 143.94 177.405C143.513 178.444 143.091 179.489 142.651 180.524L140.036 186.749C138.259 190.887 136.489 195.028 134.609 199.125C137.328 190.534 140.308 182.021 143.333 173.565C143.698 172.51 144.045 171.457 144.354 170.402C144.668 169.347 144.945 168.289 145.161 167.229C145.593 165.103 145.774 162.983 145.56 160.867C145.362 158.737 144.876 156.577 144.452 154.336C144.243 153.214 144.053 152.069 143.94 150.893C143.824 149.722 143.793 148.502 143.881 147.305C144.068 144.93 144.58 142.732 144.675 140.645C144.729 139.605 144.673 138.602 144.426 137.678C144.367 137.446 144.292 137.222 144.21 137.001L144.076 136.674C144.032 136.574 143.984 136.479 143.937 136.394C143.842 136.219 143.739 136.082 143.652 135.987C143.557 135.895 143.5 135.856 143.425 135.83C143.343 135.802 143.302 135.799 143.225 135.81C143.15 135.822 143.037 135.866 142.906 135.956C142.641 136.139 142.348 136.474 142.106 136.86C141.983 137.053 141.872 137.258 141.774 137.472C141.726 137.578 141.677 137.686 141.635 137.794L141.499 138.159C141.319 138.656 141.155 139.163 141.016 139.678C140.452 141.739 140.18 143.906 140.072 146.103C139.961 148.301 140.036 150.527 140.108 152.769C140.182 155.01 140.306 157.265 140.332 159.532C140.339 161.799 140.28 164.087 139.918 166.341C139.732 167.468 139.48 168.583 139.123 169.664C138.76 170.742 138.292 171.784 137.706 172.747L137.708 172.741Z" fill="black"></path>
                  <path d="M64.246 113.547C62.8006 109.751 61.507 105.885 60.5349 101.925C60.0643 99.9406 59.6579 97.9385 59.3673 95.9132C59.0793 93.8878 58.9301 91.8368 58.9198 89.7806C58.8761 85.663 59.6168 81.5506 60.6429 77.6107C61.1418 75.6342 61.6562 73.6835 62.042 71.72C62.42 69.759 62.6618 67.7852 62.7132 65.8036L62.7312 65.1113L63.441 65.0187C64.6112 64.8643 65.8148 65.1551 66.8023 65.7135C67.8002 66.2694 68.6129 67.062 69.2481 67.9576C69.8833 68.8506 70.354 69.8851 70.5983 70.9531C70.858 72.0031 70.9378 73.0685 70.9429 74.1082C70.9429 76.1953 70.5957 78.1742 70.4234 80.0966C70.2177 82.0267 70.1405 83.9671 70.1225 85.9049C70.0479 93.6717 71.3981 101.415 73.5867 108.894C75.7444 116.393 78.72 123.658 82.0453 130.76C82.8786 132.536 83.7324 134.304 84.5939 136.07L87.2249 141.373C88.0967 143.165 88.9351 144.999 89.6398 146.914C90.3367 148.829 90.9025 150.828 91.1649 152.91C91.4298 154.985 91.368 157.154 90.8794 159.223C90.3959 161.287 89.5806 163.173 88.7834 164.988C87.9836 166.799 87.176 168.554 86.6385 170.343C86.0933 172.116 85.8567 173.969 85.8567 175.85C85.8567 177.734 86.0882 179.633 86.4353 181.527C86.78 183.424 87.248 185.315 87.7418 187.217C87.9887 188.159 88.2485 189.137 88.4722 190.11C88.7011 191.083 88.9094 192.055 89.1049 193.031C89.4983 194.979 89.8507 196.93 90.1747 198.883C90.8228 202.787 91.3732 206.701 91.9158 210.61L92.7157 216.475L93.4898 222.342L94.2896 228.202C94.5648 230.156 94.8348 232.106 95.1331 234.054C95.7401 237.948 96.347 241.847 97.2754 245.684C96.1438 241.901 95.3132 238.03 94.5468 234.157C93.7752 230.284 93.0989 226.393 92.4353 222.502L91.4478 216.665L90.4808 210.829C89.8301 206.94 89.1537 203.057 88.4208 199.194C88.0581 197.261 87.6672 195.337 87.2403 193.427C87.0269 192.472 86.8031 191.52 86.5614 190.578C86.3248 189.634 86.0573 188.71 85.7847 187.75C85.2446 185.843 84.7251 183.913 84.3239 181.934C83.9253 179.957 83.6553 177.927 83.627 175.863C83.5987 173.804 83.8378 171.694 84.4268 169.687C85.0029 167.685 85.8335 165.837 86.6025 164.033C87.3689 162.234 88.0942 160.463 88.4876 158.672C88.8965 156.897 88.9454 155.057 88.7062 153.224C88.4671 151.389 87.9527 149.57 87.2918 147.781C86.6257 145.993 85.8181 144.238 84.9566 142.488L82.3076 137.202C81.4255 135.429 80.564 133.645 79.7358 131.841C76.4054 124.646 73.4067 117.25 71.2309 109.568C69.0886 101.889 67.7899 93.9007 67.9725 85.8689C68.0316 83.8642 68.1551 81.862 68.4071 79.8702C68.6334 77.8706 69.0012 75.9508 69.0372 74.085C69.0526 73.156 68.9986 72.2373 68.8006 71.3674C68.6232 70.5079 68.276 69.705 67.7848 68.9818C67.2961 68.2612 66.6712 67.6359 65.9562 67.2087C65.2413 66.7789 64.4363 66.5705 63.6416 66.6477L64.3694 65.8602C64.264 67.9396 63.9605 70.0061 63.5182 72.0211C63.0707 74.0361 62.4997 76.0022 61.9545 77.9504C61.4093 79.901 60.9001 81.844 60.5426 83.8153C60.1748 85.784 59.9588 87.781 59.9074 89.7883C59.8508 91.7956 59.9434 93.8081 60.1491 95.8154C60.3574 97.8227 60.6841 99.8171 61.0775 101.804C61.9057 105.767 62.9884 109.684 64.2665 113.541L64.246 113.547Z" fill="black"></path>
                  <path d="M55.1985 261.23C56.6669 252.377 58.1174 243.525 59.3776 234.651C59.5396 233.542 59.6888 232.433 59.8328 231.321L60.2803 227.991C60.5529 225.768 60.8435 223.549 61.075 221.323C61.5739 216.876 61.97 212.422 62.2606 207.965C62.546 203.507 62.7235 199.045 62.6978 194.585C62.6875 190.125 62.5358 185.671 62.1937 181.229C62.0986 180.12 62.0188 179.008 61.9082 177.901L61.5559 174.579L61.1341 171.264C61.0004 170.158 60.8101 169.059 60.6584 167.957C59.9948 163.549 59.195 159.161 58.2717 154.794C57.3382 150.43 56.3095 146.08 55.2062 141.749C54.1029 137.415 52.9661 133.089 51.7497 128.782C51.1582 126.622 50.5281 124.474 49.9186 122.32L48.036 115.868C46.7759 111.565 45.5028 107.236 44.505 102.81C43.5097 98.3888 42.7973 93.8544 42.7176 89.2633C42.6816 86.9704 42.7896 84.6697 43.1008 82.3922C43.2576 81.247 43.4402 80.1327 43.6974 78.9849C43.9623 77.8449 44.2992 76.7228 44.7107 75.6368C45.5234 73.4571 46.5984 71.4138 47.7223 69.4502C48.8436 67.4841 50.0189 65.5874 51.0116 63.6342C51.4977 62.6717 51.9632 61.632 52.4415 60.6232C52.9147 59.6093 53.3905 58.6005 53.8354 57.5891C54.2752 56.5777 54.697 55.5664 54.9876 54.5473C55.291 53.5282 55.4428 52.5014 55.4556 51.4462L55.4711 50.1724L56.5821 50.7488C57.0733 51.0036 57.5619 51.2738 58.0429 51.5878C58.5212 51.9043 58.9996 52.262 59.4265 52.7304C59.8534 53.1936 60.2032 53.8112 60.3472 54.4546C60.4938 55.098 60.4758 55.7182 60.4166 56.2895C60.2854 57.4347 60.0257 58.4744 59.802 59.5243L59.7171 59.9155L59.6168 60.3298C59.5448 60.6026 59.4702 60.8754 59.3802 61.1431C59.2079 61.6783 59.0073 62.1982 58.781 62.7026C57.8808 64.7279 56.7107 66.5551 55.5842 68.3745C55.0184 69.2829 54.4604 70.1888 53.946 71.1101C53.4394 72.034 52.9687 72.9733 52.6575 73.9486C52.5084 74.4247 52.3798 74.9626 52.246 75.4747C52.1175 75.992 51.9863 76.5092 51.868 77.0265C51.742 77.5438 51.6391 78.0662 51.5285 78.586C51.4359 79.1084 51.3228 79.6283 51.2482 80.1558C50.9087 82.2532 50.7313 84.3815 50.6978 86.5149C50.667 88.6483 50.7621 90.7868 50.9396 92.9177C51.1067 95.0511 51.4102 97.1742 51.724 99.2947C50.901 95.0897 50.2709 90.8254 50.1963 86.5123C50.1578 84.3583 50.2632 82.1966 50.5358 80.0503C50.595 79.5125 50.6901 78.9798 50.7673 78.4445C50.865 77.9143 50.9499 77.3791 51.063 76.8515C51.1685 76.3214 51.2842 75.7964 51.3999 75.2688C51.5234 74.7413 51.6262 74.2317 51.7831 73.6784C52.0969 72.6001 52.5649 71.6016 53.0613 70.634C53.5628 69.6664 54.1054 68.7348 54.6481 67.8083C55.7282 65.958 56.8238 64.1283 57.6108 62.2033C57.8088 61.7247 57.9837 61.2383 58.1303 60.7493C58.2074 60.5048 58.2666 60.2604 58.3283 60.0133L58.408 59.6427L58.4852 59.2464C58.6884 58.1964 58.9198 57.1439 59.0073 56.1531C59.0484 55.6616 59.0381 55.1932 58.9378 54.7917C58.835 54.3903 58.6344 54.0506 58.3309 53.7289C57.7188 53.0907 56.8007 52.5863 55.88 52.1282L57.0064 51.4308C57.0064 52.0253 56.9833 52.6249 56.9035 53.2193C56.8213 53.8112 56.7107 54.4031 56.5512 54.9719C56.2503 56.1171 55.8285 57.1902 55.3965 58.2453C54.9619 59.2979 54.5066 60.3273 54.0463 61.3515C53.5808 62.3757 53.1462 63.3923 52.6395 64.4397C51.6288 66.501 50.4689 68.4388 49.3991 70.387C48.3266 72.3299 47.3416 74.2909 46.6164 76.3265C46.2512 77.343 45.958 78.3801 45.7317 79.4275C45.5157 80.4724 45.3511 81.5738 45.2199 82.6521C44.9653 84.8241 44.8727 87.0141 44.9293 89.2067C45.045 93.5945 45.7703 97.9642 46.7836 102.277C47.7969 106.596 49.1033 110.862 50.3944 115.158L52.3078 121.614C52.9301 123.774 53.5679 125.925 54.1723 128.089C55.4093 132.408 56.5692 136.754 57.6982 141.108C58.7912 145.473 59.8097 149.861 60.7355 154.269C61.6511 158.683 62.4432 163.124 63.0964 167.589C63.7419 172.057 64.2151 176.553 64.498 181.059C64.7835 185.565 64.9018 190.081 64.8324 194.593C64.7681 199.104 64.5006 203.608 64.1226 208.096C63.9477 210.34 63.7034 212.579 63.4642 214.815C63.189 217.049 62.9267 219.283 62.6052 221.506C62.312 223.735 61.9571 225.953 61.6228 228.177C61.2627 230.395 60.9052 232.611 60.5041 234.821C58.943 243.666 57.1479 252.46 55.1959 261.22L55.1985 261.23Z" fill="black"></path>
                  <path d="M90.0231 156.766C91.3938 157.61 92.8238 158.222 94.2897 158.788C95.753 159.352 97.2318 159.867 98.7209 160.366C100.21 160.865 101.704 161.351 103.203 161.838L104.33 162.208C104.523 162.278 104.693 162.316 104.867 162.368L105.392 162.515C105.737 162.628 106.094 162.685 106.449 162.751L106.981 162.854C107.161 162.875 107.341 162.888 107.522 162.906C107.882 162.939 108.239 163.001 108.607 162.991L109.155 163.001C109.337 163.006 109.52 163.011 109.702 162.996C110.07 162.975 110.438 162.968 110.806 162.937C111.173 162.893 111.541 162.844 111.914 162.805C113.393 162.589 114.874 162.221 116.361 161.789C119.334 160.932 122.296 159.735 125.398 158.873C124.084 159.805 122.739 160.664 121.358 161.48C119.977 162.296 118.547 163.047 117.047 163.691C115.551 164.337 113.977 164.867 112.331 165.209C111.917 165.284 111.5 165.348 111.083 165.415C110.664 165.466 110.237 165.492 109.813 165.531C109.602 165.554 109.386 165.551 109.173 165.549L108.53 165.544C108.1 165.554 107.673 165.497 107.244 165.459C107.03 165.436 106.814 165.415 106.601 165.387L105.966 165.258C105.544 165.17 105.117 165.098 104.708 164.954L104.093 164.756C103.89 164.689 103.677 164.625 103.497 164.553C103.124 164.414 102.751 164.275 102.381 164.126C100.894 163.544 99.4127 162.924 97.9622 162.229C96.5117 161.534 95.0818 160.778 93.7136 159.903C93.3715 159.684 93.0372 159.45 92.7055 159.221C92.3814 158.974 92.0496 158.742 91.7385 158.477C91.1058 157.967 90.5194 157.388 90.0205 156.758L90.0231 156.766Z" fill="black"></path>
                  <path d="M130.41 154.601C130.68 153.507 131.117 152.594 131.588 151.714C132.064 150.839 132.604 150.031 133.188 149.253C133.777 148.479 134.409 147.74 135.124 147.05C135.844 146.361 136.608 145.697 137.593 145.144C137.524 146.271 137.195 147.259 136.788 148.201C136.374 149.138 135.847 150.005 135.235 150.81C134.623 151.613 133.928 152.354 133.136 153.003C132.339 153.646 131.475 154.228 130.41 154.601Z" fill="black"></path>
                  <path d="M116.993 113.122C117.26 113.297 117.492 113.518 117.721 113.74C117.952 113.961 118.163 114.203 118.371 114.447C118.783 114.939 119.164 115.456 119.5 116.022C119.67 116.305 119.824 116.599 119.958 116.939C119.992 117.021 120.022 117.111 120.051 117.209C120.079 117.301 120.107 117.402 120.125 117.51C120.164 117.723 120.172 117.937 120.159 118.148C120.131 118.57 120.007 118.979 119.796 119.358C119.585 119.736 119.279 120.094 118.829 120.351C118.605 120.477 118.341 120.575 118.06 120.616C117.78 120.66 117.479 120.634 117.214 120.565C116.679 120.42 116.327 120.166 116.072 120.016C115.818 119.852 115.65 119.798 115.648 119.826C115.63 119.852 115.681 119.836 115.576 119.906C115.473 119.975 115.301 120.142 115.087 120.351C114.869 120.559 114.617 120.817 114.259 121.079C114.079 121.208 113.871 121.342 113.621 121.447C113.377 121.548 113.12 121.625 112.85 121.661C112.307 121.741 111.775 121.648 111.348 121.506C110.921 121.36 110.571 121.167 110.265 120.979C109.959 120.791 109.684 120.606 109.434 120.428C108.938 120.07 108.491 119.785 108.131 119.641C108.043 119.607 107.958 119.579 107.881 119.561C107.843 119.548 107.801 119.548 107.77 119.54C107.832 119.54 107.853 119.53 107.855 119.525C107.848 119.52 107.765 119.54 107.67 119.581C107.575 119.623 107.459 119.682 107.338 119.751C107.097 119.885 106.834 120.058 106.531 120.225C106.379 120.31 106.22 120.397 106.035 120.482C105.847 120.567 105.649 120.655 105.361 120.716C105.219 120.747 105.052 120.768 104.841 120.755C104.61 120.742 104.378 120.665 104.201 120.559C103.838 120.343 103.663 120.078 103.537 119.857C103.296 119.401 103.229 119.002 103.19 118.598C103.167 118.194 103.185 117.801 103.321 117.353C103.36 117.237 103.401 117.124 103.47 116.998C103.486 116.967 103.506 116.933 103.524 116.902C103.545 116.872 103.568 116.833 103.576 116.825L103.648 116.738C103.743 116.622 103.838 116.501 103.931 116.383C104.679 115.425 105.446 114.311 106.5 113.552C105.934 114.707 105.608 115.865 105.116 117.065C105.055 117.214 104.99 117.363 104.924 117.515L104.872 117.628C104.859 117.654 104.864 117.651 104.864 117.654C104.864 117.657 104.864 117.654 104.864 117.662L104.857 117.747C104.844 117.906 104.864 118.145 104.924 118.359C104.975 118.573 105.07 118.789 105.152 118.869C105.186 118.91 105.219 118.894 105.132 118.827C105.091 118.797 105.011 118.768 104.936 118.758C104.88 118.75 104.87 118.755 104.88 118.745C104.895 118.735 104.983 118.688 105.07 118.632C105.163 118.573 105.268 118.498 105.381 118.416C105.605 118.248 105.855 118.061 106.137 117.86C106.281 117.759 106.433 117.659 106.613 117.556C106.796 117.456 106.999 117.348 107.292 117.263C107.444 117.222 107.621 117.191 107.84 117.191C107.961 117.196 108.079 117.196 108.195 117.211C108.426 117.234 108.645 117.281 108.856 117.337C109.692 117.574 110.299 117.986 110.839 118.315C111.109 118.483 111.35 118.65 111.579 118.781C111.806 118.918 112.014 119.013 112.176 119.069C112.338 119.126 112.441 119.139 112.515 119.129C112.554 119.129 112.598 119.113 112.644 119.098C112.683 119.082 112.744 119.056 112.821 119.008C112.976 118.912 113.179 118.74 113.421 118.526C113.665 118.315 113.961 118.061 114.401 117.819C114.624 117.7 114.894 117.592 115.198 117.541C115.506 117.487 115.825 117.5 116.124 117.574C116.425 117.649 116.674 117.775 116.869 117.896C117.065 118.019 117.217 118.14 117.343 118.241C117.592 118.452 117.749 118.58 117.813 118.619C117.87 118.658 117.896 118.694 118.014 118.678C118.125 118.658 118.281 118.568 118.418 118.429C118.554 118.29 118.667 118.104 118.744 117.914C118.821 117.713 118.85 117.543 118.798 117.276C118.757 117.016 118.672 116.73 118.58 116.45C118.395 115.881 118.155 115.315 117.896 114.754C117.631 114.195 117.358 113.637 116.99 113.125L116.993 113.122Z" fill="black"></path>
                  <path d="M152.262 168.974C154.158 171.586 156.529 173.601 159.17 175.116C161.809 176.635 164.692 177.685 167.654 178.328C170.64 178.974 173.724 179.26 176.856 179.406C179.989 179.566 183.173 179.561 186.393 179.813C183.276 180.637 180.115 181.187 176.882 181.429C173.657 181.661 170.35 181.548 167.109 180.842C163.861 180.135 160.729 178.794 158.054 176.797C156.722 175.796 155.511 174.63 154.51 173.313C153.512 171.995 152.715 170.528 152.26 168.976L152.262 168.974Z" fill="black"></path>
                  <path d="M59.7165 171.799C59.6677 172.595 59.4696 173.385 59.1713 174.139C58.8653 174.89 58.4486 175.6 57.9574 176.257C56.9724 177.572 55.6788 178.645 54.2515 179.481C52.8216 180.305 51.2682 180.892 49.7097 181.339C48.1486 181.792 46.5721 182.111 45.0213 182.428C38.8156 183.686 32.5919 184.844 26.3553 185.917C24.7942 186.183 23.246 186.437 21.7235 186.746C20.201 187.045 18.7042 187.397 17.2486 187.842C15.7956 188.29 14.3965 188.851 13.072 189.541C12.4188 189.899 11.7759 190.274 11.1766 190.717C10.8809 190.941 10.5645 191.142 10.2816 191.386C9.99875 191.628 9.70814 191.865 9.42524 192.112C7.20064 194.137 5.45183 196.718 3.96534 199.459C2.47113 202.205 1.27525 205.144 -0.00292969 208.052C0.732601 204.961 1.60958 201.901 2.82346 198.916C4.05792 195.954 5.69101 193.061 8.0159 190.658C9.18349 189.471 10.5131 188.411 11.9584 187.565C13.4012 186.713 14.9391 186.059 16.4925 185.521C18.051 184.994 19.6327 184.602 21.2092 184.258C22.7882 183.923 24.3596 183.655 25.9181 183.383C32.1547 182.312 38.4093 181.326 44.6767 180.441C47.804 180.004 50.8876 179.607 53.6754 178.362C55.059 177.754 56.3398 176.885 57.4173 175.793C57.9548 175.248 58.4332 174.635 58.8241 173.966C59.2227 173.3 59.5236 172.569 59.7165 171.797V171.799Z" fill="black"></path>
                  <path d="M78.6295 97.1382C80.4812 97.604 82.2172 97.9849 83.966 98.2114C85.7071 98.4456 87.4405 98.5485 89.1713 98.5253C90.9021 98.4996 92.6303 98.3555 94.3637 98.0776C96.1048 97.8073 97.8279 97.3853 99.6693 96.8706C98.3937 98.3092 96.6963 99.3308 94.8961 100.031C93.0855 100.721 91.1438 101.076 89.2021 101.099C87.2604 101.122 85.311 100.816 83.4825 100.17C81.6642 99.5161 79.9437 98.5408 78.627 97.1382H78.6295Z" fill="black"></path>
                  <path d="M121.121 97.2231C123.091 97.4419 124.945 97.7661 126.782 97.9489C128.615 98.1419 130.41 98.2294 132.218 98.1599C134.026 98.0981 135.847 97.9154 137.712 97.707C139.576 97.5088 141.472 97.2566 143.454 97.2231C141.785 98.2911 140.003 99.076 138.139 99.6859C136.274 100.283 134.309 100.669 132.301 100.733C130.295 100.808 128.266 100.52 126.368 99.9227C124.47 99.3154 122.687 98.4378 121.121 97.2231Z" fill="black"></path>
                  <path d="M96.2002 137.879C97.1903 136.986 98.3296 136.252 99.5409 135.653C100.755 135.056 102.046 134.582 103.417 134.312C104.782 134.044 106.243 133.954 107.737 134.296C107.917 134.338 108.118 134.399 108.282 134.446L108.763 134.59C109.085 134.682 109.391 134.785 109.692 134.881C110.294 135.063 110.834 135.218 111.348 135.279C111.605 135.31 111.865 135.321 112.13 135.321C112.397 135.316 112.67 135.298 112.953 135.256C113.105 135.241 113.197 135.225 113.331 135.2C113.454 135.177 113.583 135.143 113.717 135.104C113.984 135.03 114.267 134.927 114.576 134.824C115.188 134.618 115.895 134.353 116.713 134.268C117.518 134.175 118.279 134.268 118.971 134.405C119.668 134.546 120.295 134.731 120.925 134.909C121.555 135.089 122.186 135.279 122.816 135.475C124.071 135.877 125.323 136.299 126.558 136.813C125.22 136.852 123.901 136.795 122.587 136.721C121.931 136.679 121.275 136.631 120.619 136.574C119.964 136.52 119.308 136.443 118.711 136.412C118.109 136.381 117.549 136.402 117.06 136.512C116.582 136.625 116.06 136.839 115.455 137.104C115.154 137.235 114.825 137.367 114.468 137.488C114.29 137.547 114.105 137.606 113.907 137.655C113.722 137.704 113.49 137.75 113.321 137.776C112.595 137.886 111.801 137.938 111.016 137.825C110.628 137.768 110.247 137.686 109.89 137.585C109.535 137.482 109.201 137.361 108.882 137.243C108.565 137.125 108.257 137.006 107.961 136.883L107.516 136.703C107.372 136.649 107.259 136.605 107.125 136.564C106.608 136.394 106.045 136.286 105.459 136.234C104.875 136.167 104.27 136.178 103.658 136.198C102.434 136.263 101.182 136.456 99.937 136.749C98.6897 137.037 97.4501 137.421 96.2028 137.884L96.2002 137.879Z" fill="black"></path>
                  <path d="M52.0842 74.2962C52.128 74.0852 52.1743 73.8716 52.2257 73.6605L52.3003 73.3414L52.3903 73.0275C52.5163 72.6131 52.6423 72.1911 52.7863 71.7845C53.0615 70.9584 53.383 70.1555 53.7019 69.35C54.3577 67.7493 55.0727 66.1795 55.8108 64.6277C57.2921 61.5266 58.9021 58.4951 60.4657 55.4867C60.8566 54.7378 61.2475 53.9864 61.5947 53.2426C61.7876 52.8669 61.9316 52.5118 62.0962 52.1489L62.2454 51.7989C62.3071 51.6651 62.3765 51.5261 62.4665 51.3769C62.5591 51.2276 62.6723 51.0681 62.8292 50.9085C62.986 50.7489 63.1918 50.5842 63.449 50.4659C63.7087 50.3449 63.9993 50.2831 64.2899 50.2857C64.5831 50.2883 64.8583 50.3629 65.0795 50.4659C65.5244 50.6769 65.779 50.942 65.9873 51.1864C66.0902 51.31 66.1802 51.4309 66.2574 51.5544L66.4502 51.8736C66.5711 52.0897 66.6894 52.3059 66.7897 52.5298C67.2115 53.4151 67.461 54.3544 67.5895 55.286C67.8493 57.1569 67.5973 59.0098 67.1035 60.7057C66.8566 61.5575 66.5531 62.381 66.2111 63.1814C66.0388 63.5803 65.8639 63.9791 65.6839 64.3703L65.5424 64.6637C65.4961 64.7563 65.4524 64.867 65.3752 64.9699C65.3032 65.0626 65.1618 65.1887 64.9998 65.0935C64.9355 65.0317 64.938 64.9596 64.9509 64.903C64.9586 64.8747 64.9715 64.8438 64.9972 64.8232C65.0255 64.8001 65.0615 64.8129 65.0795 64.831C65.0203 64.8027 64.9946 64.8644 65.0023 64.9082C65.0023 64.9545 65.0332 65.0034 65.0589 65.006C65.0743 65.0085 65.1181 64.9957 65.1412 64.9699C65.1669 64.9442 65.1875 64.9082 65.2029 64.867C65.2338 64.7846 65.2441 64.6843 65.2621 64.5736L65.3135 64.2545C65.3881 63.8299 65.4627 63.4053 65.527 62.9832C65.6581 62.1365 65.7893 61.2976 65.8639 60.4664C66.0259 58.8065 65.995 57.1723 65.6041 55.6643C65.5115 55.2885 65.3907 54.9231 65.2518 54.5731C65.1155 54.2206 64.9586 53.8809 64.7734 53.5643C64.686 53.4022 64.5831 53.2504 64.4803 53.1011L64.3259 52.8798C64.2848 52.8232 64.2437 52.7768 64.2051 52.7382C64.1331 52.661 64.0611 52.6302 64.1125 52.6662C64.1382 52.6816 64.2025 52.7048 64.2797 52.7074C64.3542 52.7125 64.434 52.6971 64.4983 52.6688C64.632 52.6044 64.6217 52.5761 64.5857 52.6507C64.5677 52.6868 64.542 52.7382 64.5163 52.8026L64.4211 53.0471C64.2514 53.4717 64.0842 53.9169 63.899 54.3106C63.7139 54.7147 63.5287 55.1187 63.3307 55.5047C63.1352 55.8959 62.9475 56.2896 62.7443 56.6731C61.1421 59.7458 59.383 62.6873 57.5724 65.6004C56.6646 67.0544 55.7439 68.4982 54.8103 69.9341C53.8845 71.3779 52.9355 72.7958 52.0791 74.2987L52.0842 74.2962Z" fill="black"></path>
                  <path d="M104.453 143.435C105.909 143.733 107.233 143.983 108.542 144.137C109.846 144.297 111.111 144.348 112.364 144.287C113.616 144.225 114.859 144.037 116.126 143.738C117.399 143.437 118.678 143.005 120.113 142.575C119.341 143.862 118.194 144.868 116.877 145.617C115.55 146.35 114.028 146.788 112.49 146.857C110.952 146.929 109.406 146.662 108.015 146.083C107.318 145.792 106.657 145.432 106.053 144.994C105.451 144.554 104.885 144.055 104.453 143.435Z" fill="black"></path>
                  <path d="M160.218 115.137C159.786 120.361 159.577 125.544 159.734 130.706C159.883 135.866 160.374 141 161.213 146.075C162.051 151.15 163.232 156.171 164.749 161.104C166.259 166.045 168.116 170.883 170.199 175.696C167.177 171.406 164.757 166.686 162.838 161.768C160.927 156.848 159.533 151.714 158.677 146.492C157.818 141.27 157.489 135.961 157.72 130.688C157.96 125.415 158.739 120.168 160.218 115.134V115.137Z" fill="black"></path>
                  <path d="M120.455 84.2863C122.237 82.3588 124.323 80.7427 126.591 79.3865C128.862 78.0431 131.344 76.9906 133.957 76.3652C136.565 75.7398 139.311 75.5571 141.973 75.9406C144.63 76.324 147.197 77.2273 149.385 78.6839C146.798 78.2335 144.308 77.9299 141.834 77.9582C139.365 77.9685 136.938 78.3004 134.551 78.8666C132.162 79.4353 129.816 80.2408 127.489 81.1879C125.154 82.1272 122.86 83.2312 120.455 84.2812V84.2863Z" fill="black"></path>
                  <path d="M104.569 84.2861C102.164 83.2335 99.87 82.1295 97.5349 81.1928C95.2074 80.2457 92.8619 79.4377 90.4727 78.8715C88.0861 78.3053 85.6584 77.9734 83.1894 77.9631C80.7154 77.9348 78.2259 78.2384 75.6387 78.6888C77.8247 77.2322 80.3939 76.3289 83.0506 75.9455C85.7124 75.562 88.459 75.7447 91.0668 76.3701C93.6798 76.9929 96.1615 78.048 98.4324 79.3913C100.698 80.745 102.784 82.3611 104.569 84.2912V84.2861Z" fill="black"></path>
                  <path d="M147.335 22.2992C147.929 22.2914 148.528 22.4175 149.104 22.6157C149.678 22.8242 150.22 23.1175 150.729 23.4521C151.75 24.1289 152.643 24.9781 153.45 25.8531C155.076 27.5979 156.611 29.4508 157.943 31.4453C160.646 35.411 162.758 39.7704 164.357 44.2792C165.941 48.7982 167.024 53.4639 167.731 58.1604C168.428 62.8622 168.77 67.5973 168.693 72.3325C167.703 67.7003 166.816 63.0886 165.743 58.5413C164.681 53.994 163.457 49.5059 161.929 45.1335C160.384 40.7715 158.522 36.5356 156.233 32.5158C155.112 30.4905 153.823 28.5656 152.481 26.6586C151.817 25.6987 151.107 24.8031 150.287 24.0105C149.876 23.6168 149.428 23.2616 148.937 22.9683C148.448 22.6672 147.908 22.4407 147.332 22.2992H147.335Z" fill="black"></path>
                  <path d="M63.8369 45.1491C65.7735 40.8823 68.3967 36.9191 71.4417 33.3163C74.4944 29.716 77.992 26.476 81.8111 23.6786C85.6302 20.8813 89.7734 18.5291 94.13 16.7071C98.484 14.8954 103.054 13.5932 107.706 13.0425C103.309 14.6355 99.0575 16.4266 94.9838 18.542C90.9101 20.6497 87.0164 23.061 83.3311 25.7554C79.6457 28.4524 76.1686 31.4351 72.9282 34.6802C69.6774 37.9228 66.6865 41.4356 63.8395 45.1491H63.8369Z" fill="black"></path>
                  </g>
                  <defs>
                  <clipPath id="clip0_385_360">
                  <rect width="230" height="291" fill="white"></rect>
                  </clipPath>
                  </defs>
                </svg>