<svg width="230" height="291" viewBox="0 0 230 291" fill="none" xmlns="http://www.w3.org/2000/svg">
<g clip-path="url(#clip0_280_1399)">
<path d="M35.7377 274.635C34.8427 267.754 33.9117 260.878 33.3382 253.947C33.063 250.483 32.8753 246.996 33.0553 243.496C33.1324 241.746 33.3408 239.999 33.6262 238.267C33.9091 236.533 34.3386 234.826 34.8118 233.141C35.7737 229.77 36.9927 226.506 38.2066 223.253C39.4256 220.001 40.6549 216.761 41.8534 213.51C44.2477 207.007 46.5443 200.473 48.7226 193.895L49.5379 191.427C49.8156 190.594 50.0651 189.814 50.2837 188.998C50.708 187.372 51.0115 185.707 51.2147 184.021C51.6236 180.65 51.675 177.219 51.5439 173.794C51.2661 166.936 50.2734 160.09 49.0878 153.286C47.8894 146.479 46.4414 139.706 44.9781 132.927C44.2477 129.536 43.5122 126.144 42.8075 122.739L41.7788 117.633L40.7269 112.543C39.3099 105.757 37.898 98.8958 37.2242 91.9037C36.8795 88.4115 36.7278 84.8961 36.7535 81.3833C36.7792 77.8706 37.0056 74.3629 37.3759 70.8759C37.7488 67.3888 38.2786 63.9249 38.9318 60.4868L39.4436 57.9133L39.9965 55.3501C40.3823 53.6182 40.871 51.894 41.4393 50.2161C42.5786 46.8526 44.0214 43.6151 45.6725 40.4987C47.3184 37.3796 49.1701 34.3815 51.1812 31.4967C55.2035 25.7295 59.8327 20.387 65.11 15.6956C65.7658 15.114 66.4551 14.5247 67.1598 13.9765C67.8644 13.4258 68.5819 12.8956 69.3149 12.3912C70.7782 11.3799 72.2853 10.4483 73.8258 9.57845C76.9042 7.84135 80.1087 6.35132 83.3877 5.06973C89.9509 2.522 96.851 0.779758 103.908 0.193008C107.434 -0.0952209 110.998 -0.0797801 114.535 0.337122C118.068 0.754023 121.574 1.59555 124.907 2.9286L124.23 2.86427C126.463 2.43965 128.764 2.32127 131.03 2.54258C133.296 2.75618 135.508 3.30433 137.616 4.03777C141.842 5.51751 145.666 7.67408 149.501 9.60161L150.941 10.317L151.301 10.492L151.682 10.6876C151.934 10.8214 152.193 10.9424 152.438 11.0865C153.435 11.6346 154.369 12.2651 155.279 12.9188C157.085 14.2441 158.749 15.7213 160.305 17.286C161.866 18.8481 163.324 20.5002 164.705 22.2116C166.086 23.9204 167.39 25.6884 168.614 27.5078C169.841 29.3272 170.993 31.1956 172.053 33.1205C173.117 35.0429 174.092 37.0193 174.943 39.0652C175.363 40.0895 175.746 41.1446 176.08 42.1791C176.25 42.699 176.43 43.2162 176.594 43.7387L177.068 45.311L177.304 46.0985L177.518 46.8912L177.945 48.4764C178.078 49.0065 178.199 49.5418 178.328 50.072C178.454 50.6047 178.585 51.1348 178.69 51.6727C180.55 60.232 181.074 69.0333 180.66 77.7316C180.239 86.4402 178.958 95.051 177.466 103.585C176.723 107.854 175.913 112.108 175.134 116.362C174.326 120.608 173.696 124.87 173.266 129.165C172.837 133.457 172.6 137.771 172.652 142.079C172.68 144.233 172.786 146.387 173.002 148.528C173.11 149.598 173.251 150.664 173.423 151.727C173.511 152.257 173.606 152.787 173.709 153.317C173.809 153.847 173.907 154.377 174.02 154.905C174.874 159.133 176.013 163.312 177.626 167.319C179.233 171.326 181.344 175.132 183.896 178.627C181.265 175.191 179.056 171.424 177.345 167.435C175.622 163.449 174.401 159.259 173.459 155.023C173.336 154.496 173.228 153.963 173.117 153.433C173.004 152.903 172.896 152.37 172.801 151.832C172.611 150.759 172.449 149.683 172.323 148.602C172.071 146.441 171.929 144.269 171.867 142.094C171.749 137.747 171.939 133.401 172.312 129.075C172.685 124.749 173.277 120.433 174.015 116.164L176.142 103.358C177.515 94.8271 178.667 86.2575 178.968 77.657C179.259 69.0667 178.68 60.443 176.772 52.0921C176.664 51.5671 176.53 51.0499 176.402 50.53C176.27 50.0102 176.147 49.4904 176.011 48.9731L175.579 47.4264L175.363 46.6544L175.123 45.8875L174.648 44.3563C174.483 43.8467 174.303 43.3449 174.131 42.8379C173.789 41.8163 173.426 40.8384 173.02 39.863C172.194 37.9175 171.243 36.0105 170.196 34.1551C169.157 32.297 168.02 30.4879 166.819 28.7225C165.621 26.9571 164.348 25.2431 163.003 23.5935C161.657 21.9414 160.243 20.351 158.738 18.8584C157.239 17.3632 155.65 15.9658 153.963 14.7382C153.114 14.1361 152.247 13.557 151.347 13.0655C151.126 12.9342 150.895 12.8287 150.668 12.7104L150.326 12.5354L149.956 12.3578L148.487 11.6372C144.591 9.69683 140.826 7.61232 136.863 6.25095C134.885 5.57156 132.864 5.08774 130.819 4.90503C128.777 4.71716 126.72 4.83297 124.703 5.22414L124.359 5.29105L124.027 5.1598C120.91 3.92968 117.613 3.15507 114.262 2.77162C110.911 2.38046 107.509 2.37016 104.124 2.65324C97.3525 3.22713 90.6684 4.92304 84.3161 7.40129C81.1426 8.64942 78.0436 10.0957 75.0834 11.771C73.6046 12.61 72.1619 13.5056 70.7757 14.468C70.0813 14.9493 69.4023 15.4485 68.744 15.9684C68.083 16.4856 67.4555 17.0235 66.8126 17.5948C61.7256 22.1292 57.2224 27.356 53.2952 32.9507C51.3355 35.7532 49.5327 38.6664 47.9356 41.6799C46.3334 44.6908 44.9395 47.8073 43.8491 51.0164C43.3039 52.6223 42.8409 54.241 42.4706 55.8931L41.9202 58.4151L41.4136 60.9449C40.7681 64.3238 40.2434 67.7208 39.8705 71.1332C39.5028 74.5456 39.2764 77.9683 39.2456 81.3936C39.2147 84.8189 39.3587 88.2442 39.6854 91.6592C40.3103 98.4918 41.6656 105.26 43.0518 112.057L44.0805 117.165L45.0861 122.265C45.7728 125.657 46.4954 129.049 47.213 132.444C48.6506 139.232 50.0779 146.037 51.261 152.903C51.8499 156.336 52.3797 159.781 52.7938 163.251C53.2052 166.717 53.5164 170.204 53.6296 173.712C53.7402 177.217 53.6707 180.748 53.2207 184.263C52.9969 186.021 52.6677 187.773 52.2048 189.502C51.9682 190.362 51.6853 191.232 51.4024 192.04L50.5537 194.503C49.4196 197.786 48.2468 201.057 47.0587 204.323C45.8551 207.581 44.6232 210.831 43.3579 214.066C42.0951 217.301 40.8041 220.526 39.5259 223.745C38.2554 226.97 36.9876 230.189 35.9614 233.468C35.4599 235.109 34.9996 236.764 34.6832 238.447C34.3643 240.13 34.12 241.829 34.0043 243.543C33.8834 245.257 33.8294 246.981 33.8525 248.705L33.8654 250L33.904 251.297C33.922 252.161 33.9734 253.026 34.0146 253.888C34.1946 257.347 34.4878 260.8 34.7887 264.257C35.087 267.713 35.4213 271.166 35.7505 274.62L35.7377 274.635Z" fill="white"/>
<path d="M69.6519 69.9468C71.5061 67.0491 73.9236 64.5143 76.6445 62.3783C79.3629 60.2294 82.3616 58.4589 85.4529 56.9148C87.0011 56.1428 88.5751 55.4248 90.1644 54.748C91.7538 54.0788 93.356 53.4432 94.9582 52.8179C98.1627 51.5697 101.367 50.355 104.497 49.0143C106.061 48.3452 107.606 47.64 109.118 46.8809C109.869 46.4923 110.62 46.1062 111.353 45.6893L111.906 45.3805L112.449 45.0588L112.992 44.7346L113.262 44.5725L113.503 44.4155C114.776 43.574 115.828 42.349 116.695 40.9876C117.562 39.6211 118.259 38.1182 118.855 36.5664C120.038 33.4525 120.818 30.1482 121.432 26.8181C122.044 23.4803 122.469 20.1014 122.867 16.6915L125.262 16.9206C125.197 18.1635 125.352 19.4323 125.707 20.6778C126.043 21.9259 126.555 23.1535 127.16 24.3424C128.379 26.7255 129.963 28.9721 131.663 31.1364C135.073 35.4727 138.985 39.477 142.719 43.6923C144.591 45.7974 146.445 47.9411 148.166 50.2315C149.027 51.3767 149.848 52.5631 150.601 53.8138C150.974 54.4417 151.332 55.0851 151.661 55.7465C151.988 56.4053 152.289 57.113 152.538 57.7975C154.544 63.1709 155.614 68.83 156.298 74.4273C156.653 77.2246 156.91 80.0246 157.342 82.7215C157.566 84.0623 157.849 85.3876 158.33 86.556C158.569 87.1402 158.867 87.6703 159.23 88.1181C159.592 88.5633 160.027 88.9133 160.534 89.1629C161.55 89.6622 162.846 89.7317 164.144 89.603L164.407 89.5773C164.517 89.567 164.628 89.5567 164.744 89.5567C164.973 89.5515 165.214 89.567 165.461 89.6184C165.955 89.7059 166.472 89.9787 166.837 90.357C167.202 90.7353 167.423 91.1754 167.565 91.5871C167.709 92.004 167.778 92.4081 167.822 92.8018C167.904 93.5893 167.874 94.3382 167.809 95.0716C167.74 95.8051 167.634 96.5205 167.501 97.2282C167.238 98.641 166.889 100.02 166.508 101.387C166.125 102.751 165.706 104.099 165.266 105.438L164.931 106.441C164.813 106.786 164.718 107.072 164.615 107.422C164.409 108.099 164.191 108.778 163.941 109.45C163.435 110.788 162.869 112.126 161.976 113.341C161.75 113.642 161.498 113.935 161.202 114.2C160.904 114.463 160.557 114.705 160.143 114.851C159.731 115.006 159.25 115.024 158.826 114.916C158.402 114.805 158.034 114.597 157.725 114.355C157.568 114.234 157.424 114.105 157.291 113.971L157.239 113.92L157.213 113.894C157.213 113.894 157.226 113.904 157.237 113.912C157.26 113.927 157.303 113.953 157.357 113.963C157.414 113.974 157.468 113.969 157.504 113.956C157.574 113.933 157.574 113.915 157.571 113.922C157.566 113.927 157.548 113.943 157.532 113.963C157.46 114.054 157.378 114.198 157.306 114.342C157.231 114.488 157.162 114.64 157.093 114.797C156.817 115.423 156.563 116.076 156.308 116.727C155.799 118.032 155.285 119.345 154.727 120.636C154.171 121.928 153.567 123.202 152.888 124.437C152.211 125.67 151.463 126.867 150.604 127.976C152.178 125.65 153.276 123.058 154.258 120.449C154.747 119.139 155.187 117.813 155.629 116.483C155.853 115.816 156.069 115.15 156.329 114.481C156.396 114.313 156.463 114.146 156.54 113.974C156.619 113.801 156.699 113.634 156.835 113.441C156.871 113.392 156.91 113.341 156.969 113.287C157.028 113.233 157.103 113.163 157.255 113.112C157.332 113.088 157.432 113.078 157.53 113.096C157.625 113.114 157.71 113.158 157.766 113.202C157.795 113.222 157.82 113.248 157.838 113.263L157.862 113.284L157.905 113.325C158.024 113.433 158.144 113.534 158.27 113.621C158.52 113.801 158.785 113.927 159.042 113.981C159.299 114.03 159.549 114.012 159.793 113.909C160.284 113.714 160.727 113.233 161.089 112.702C161.814 111.622 162.313 110.327 162.738 109.033C162.949 108.382 163.141 107.72 163.321 107.049C163.406 106.722 163.517 106.338 163.62 106.019L163.926 105.018C164.327 103.682 164.708 102.344 165.047 100.998C165.387 99.655 165.688 98.3039 165.904 96.9554C166.012 96.2811 166.094 95.6069 166.138 94.9429C166.181 94.279 166.184 93.6202 166.102 93.0128C166.027 92.4107 165.832 91.8574 165.572 91.6154C165.443 91.4971 165.315 91.425 165.117 91.3916C165.021 91.3735 164.911 91.3658 164.79 91.3735C164.731 91.3735 164.667 91.3813 164.605 91.389L164.345 91.4199C163.604 91.5099 162.843 91.5511 162.061 91.4893C161.282 91.4327 160.475 91.2526 159.711 90.9077C159.333 90.7276 158.965 90.5166 158.628 90.2567C158.296 89.9967 157.985 89.7111 157.718 89.3945C157.18 88.7666 156.776 88.0666 156.468 87.3615C155.848 85.9461 155.519 84.5127 155.243 83.0998C154.971 81.687 154.783 80.2819 154.598 78.8871C154.413 77.4923 154.24 76.1052 154.045 74.7258C153.662 71.9696 153.201 69.2391 152.574 66.555C151.949 63.8709 151.165 61.2331 150.208 58.6622C149.305 56.2071 147.793 53.9347 146.15 51.7473C144.493 49.5624 142.67 47.4702 140.808 45.396L137.987 42.2949L135.163 39.1682C133.286 37.0682 131.426 34.9348 129.675 32.6882C127.926 30.439 126.267 28.0791 124.943 25.4619C124.284 24.1546 123.713 22.7752 123.325 21.316C122.932 19.862 122.752 18.3102 122.857 16.7533L125.251 16.9823C124.817 20.3922 124.354 23.8277 123.69 27.2402C123.024 30.6526 122.188 34.0573 120.897 37.3565C120.249 39.0035 119.473 40.6222 118.472 42.1405C117.472 43.6512 116.227 45.0846 114.609 46.1165L114.306 46.3044L114.02 46.4665L113.449 46.7908L112.878 47.1125L112.297 47.4187C111.528 47.833 110.741 48.2113 109.959 48.5948C108.386 49.3385 106.786 50.0179 105.181 50.6639C101.964 51.9454 98.7002 53.0392 95.4675 54.1818C93.8524 54.7531 92.2399 55.3296 90.6454 55.9395C89.0483 56.5417 87.4666 57.1824 85.9133 57.8773C82.8065 59.2721 79.7898 60.8857 77.0046 62.8518C74.2322 64.8256 71.6836 67.1649 69.6544 69.9417L69.6519 69.9468Z" fill="white"/>
<path d="M149.127 192.202C152.923 191.963 156.658 191.24 160.299 190.231C163.944 189.217 167.503 187.933 171.024 186.535C174.552 185.156 178.047 183.671 181.583 182.25C182.476 181.895 183.34 181.548 184.266 181.208C185.186 180.879 186.115 180.593 187.051 180.336C188.923 179.824 190.824 179.43 192.742 179.149C196.579 178.596 200.507 178.467 204.395 179.008C208.273 179.541 212.128 180.74 215.552 182.796C217.262 183.82 218.854 185.048 220.278 186.445C221.701 187.848 222.948 189.42 224.018 191.09C226.16 194.444 227.569 198.18 228.485 201.976C229.395 205.78 229.838 209.658 229.959 213.523C230.077 217.391 229.907 221.246 229.547 225.073C229.367 226.988 229.138 228.895 228.871 230.794C228.598 232.701 228.302 234.561 228.002 236.443C227.405 240.197 226.824 243.954 226.194 247.714C225.558 251.472 224.867 255.229 224.008 258.963C223.164 262.7 222.086 266.385 220.847 270.003C219.618 273.627 218.167 277.16 216.647 280.652C215.894 282.402 215.083 284.126 214.291 285.856C213.489 287.58 212.643 289.286 211.82 291C213.193 287.451 214.59 283.915 215.883 280.343C216.207 279.45 216.555 278.568 216.858 277.669L217.792 274.983C218.092 274.085 218.373 273.181 218.666 272.281C218.972 271.385 219.227 270.474 219.502 269.571C220.582 265.947 221.449 262.275 222.187 258.574C222.927 254.874 223.473 251.124 224.023 247.372C224.579 243.62 225.09 239.852 225.618 236.087L226.417 230.451C226.672 228.586 226.888 226.715 227.055 224.844C227.392 221.099 227.539 217.345 227.405 213.611C227.258 209.882 226.87 206.163 226.019 202.565C225.17 198.975 223.864 195.496 221.922 192.423C219.983 189.356 217.403 186.721 214.32 184.824C211.241 182.914 207.71 181.751 204.079 181.203C200.44 180.66 196.698 180.673 193.007 181.126C191.161 181.355 189.324 181.689 187.522 182.14C186.622 182.366 185.727 182.621 184.852 182.912C184.42 183.056 183.975 183.218 183.528 183.378L182.19 183.854C178.623 185.135 175.069 186.489 171.469 187.745C167.86 188.977 164.208 190.12 160.474 190.941C158.607 191.345 156.722 191.672 154.829 191.901C152.934 192.112 151.028 192.217 149.127 192.205V192.202Z" fill="white"/>
<path d="M183.582 231.875C183.885 235.668 183.798 239.489 183.366 243.288C182.928 247.084 182.093 250.854 180.917 254.498C179.745 258.147 178.23 261.647 176.648 265.067C175.056 268.487 173.441 271.864 171.818 275.31C172.415 271.545 173.544 267.885 174.771 264.313C176.008 260.739 177.327 257.241 178.469 253.708C179.611 250.175 180.583 246.597 181.378 242.951C182.188 239.307 182.823 235.611 183.582 231.875Z" fill="white"/>
<path d="M128.713 265.942C125.786 260.098 123.505 253.875 122.252 247.382C121.651 244.135 121.314 240.82 121.342 237.487C121.378 234.157 121.805 230.812 122.661 227.564C123.093 225.943 123.631 224.339 124.279 222.793C124.927 221.246 125.66 219.746 126.444 218.282C128.011 215.35 129.762 212.561 131.457 209.784C133.159 207.015 134.8 204.22 136.359 201.374C137.917 198.528 139.373 195.627 140.8 192.714C142.215 189.796 143.557 186.841 144.812 183.846C145.432 182.346 146.047 180.845 146.63 179.33C146.934 178.578 147.219 177.819 147.507 177.06C147.798 176.303 148.083 175.541 148.356 174.777C148.917 173.254 149.441 171.717 149.961 170.178L150.717 167.862C150.961 167.09 151.198 166.321 151.416 165.551C151.854 164.012 152.232 162.471 152.435 160.924C152.543 160.149 152.597 159.375 152.602 158.605C152.612 158.219 152.587 157.836 152.571 157.452C152.535 157.072 152.507 156.688 152.44 156.312C152.224 154.804 151.694 153.317 151.108 151.824C150.516 150.332 149.83 148.836 149.251 147.267C148.675 145.702 148.197 144.037 148.117 142.305C148.071 141.448 148.145 140.553 148.302 139.729C148.451 138.9 148.649 138.097 148.855 137.3C149.266 135.707 149.732 134.142 150.118 132.567C150.305 131.782 150.491 130.992 150.591 130.21C150.64 129.819 150.671 129.425 150.637 129.062C150.622 128.882 150.586 128.707 150.527 128.568C150.465 128.426 150.385 128.347 150.277 128.3C150.043 128.208 149.65 128.311 149.308 128.465C149.218 128.504 149.135 128.547 149.043 128.591L148.768 128.725C148.593 128.815 148.418 128.908 148.253 129.016C147.579 129.433 146.975 129.968 146.432 130.56C145.347 131.754 144.545 133.198 143.907 134.698C144.434 133.154 145.157 131.653 146.193 130.354C146.713 129.708 147.307 129.111 148.001 128.632C148.173 128.509 148.353 128.398 148.536 128.293L148.804 128.143C148.894 128.094 148.989 128.038 149.084 127.991C149.277 127.894 149.482 127.806 149.709 127.747C149.933 127.69 150.195 127.659 150.473 127.744C150.75 127.832 150.979 128.069 151.085 128.298C151.2 128.529 151.252 128.761 151.285 128.985C151.347 129.433 151.332 129.86 151.303 130.282C151.236 131.123 151.098 131.942 150.936 132.75C150.611 134.366 150.213 135.954 149.876 137.542C149.709 138.334 149.549 139.127 149.441 139.912C149.39 140.303 149.346 140.694 149.338 141.07C149.333 141.451 149.349 141.837 149.39 142.22C149.534 143.756 150.028 145.257 150.645 146.726C151.262 148.198 152.003 149.647 152.684 151.163C153.026 151.92 153.35 152.697 153.626 153.502C153.906 154.305 154.143 155.141 154.294 156.001C154.382 156.428 154.428 156.861 154.482 157.29C154.515 157.723 154.554 158.155 154.559 158.585C154.58 159.447 154.546 160.309 154.456 161.156C154.287 162.854 153.942 164.511 153.523 166.125C153.309 166.931 153.083 167.728 152.849 168.518L152.129 170.878C151.632 172.445 151.131 174.013 150.593 175.567C150.334 176.347 150.059 177.121 149.778 177.896C149.5 178.671 149.228 179.445 148.932 180.215C148.351 181.754 147.739 183.28 147.119 184.806C145.867 187.848 144.524 190.853 143.107 193.823C140.268 199.76 137.043 205.515 133.555 211.086C131.801 213.855 130.019 216.57 128.45 219.375C126.879 222.18 125.544 225.075 124.634 228.12C123.723 231.167 123.227 234.34 123.07 237.541C122.903 240.743 123.083 243.975 123.533 247.174C123.96 250.38 124.675 253.553 125.557 256.685C125.997 258.253 126.488 259.807 127.02 261.348C127.543 262.895 128.119 264.421 128.715 265.945L128.713 265.942Z" fill="white"/>
<path d="M98.952 263.863C98.0056 258.785 97.2778 253.685 96.6014 248.582C96.2568 246.031 95.9919 243.476 95.7656 240.889C95.5547 238.306 95.4132 235.699 95.4544 233.074C95.4981 230.451 95.7399 227.798 96.2465 225.207C96.7506 222.613 97.4681 220.062 98.3965 217.597C100.264 212.666 102.838 208.052 105.793 203.757C107.269 201.605 108.828 199.518 110.458 197.496C112.091 195.475 113.786 193.512 115.512 191.584C117.237 189.657 118.994 187.763 120.766 185.892L122.096 184.489L122.762 183.789C122.991 183.553 123.181 183.339 123.392 183.112C124.204 182.209 124.922 181.242 125.521 180.22C126.113 179.198 126.565 178.112 126.843 176.982C127.111 175.85 127.219 174.679 127.154 173.501C127.028 171.141 126.216 168.763 125.457 166.279C125.076 165.036 124.721 163.747 124.48 162.412C124.24 161.032 124.212 159.632 124.4 158.243C124.588 156.858 124.999 155.471 125.75 154.212C126.131 153.59 126.594 152.998 127.157 152.499C127.712 151.992 128.368 151.59 129.062 151.299L129.482 151.124L129.875 151.33C130.197 151.497 130.505 151.734 130.752 152.017C131.002 152.3 131.184 152.622 131.31 152.939C131.565 153.579 131.624 154.189 131.647 154.755C131.665 155.324 131.632 155.862 131.593 156.379C131.555 156.897 131.511 157.393 131.506 157.844C131.49 159.699 132.077 161.555 132.951 163.31C133.823 165.073 134.947 166.756 136.037 168.487C136.585 169.352 137.125 170.232 137.627 171.146C138.123 172.062 138.609 173.079 138.722 174.242C138.784 174.818 138.714 175.42 138.565 175.963C138.414 176.509 138.19 177.011 137.945 177.482C137.701 177.953 137.434 178.395 137.182 178.833C136.937 179.273 136.675 179.705 136.444 180.153C136.204 180.598 135.968 181.043 135.744 181.496C135.513 181.944 135.299 182.402 135.086 182.86C134.867 183.316 134.672 183.782 134.461 184.242C134.268 184.708 134.065 185.174 133.882 185.645C132.398 189.41 131.349 193.363 130.78 197.398C130.942 195.367 131.228 193.342 131.634 191.335C132.046 189.33 132.596 187.354 133.252 185.411C133.905 183.465 134.7 181.566 135.603 179.718C135.821 179.252 136.068 178.802 136.299 178.341C136.539 177.886 136.78 177.446 136.986 177.003C137.408 176.12 137.665 175.233 137.534 174.37C137.418 173.495 136.978 172.638 136.485 171.789C135.978 170.932 135.425 170.093 134.857 169.254C133.723 167.576 132.519 165.901 131.521 164.041C131.025 163.109 130.58 162.134 130.256 161.094C129.927 160.059 129.731 158.958 129.713 157.846C129.708 157.277 129.744 156.758 129.77 156.258C129.795 155.759 129.811 155.278 129.785 154.828C129.762 154.38 129.69 153.963 129.556 153.657C129.42 153.345 129.253 153.175 128.996 153.044L129.808 153.072C128.828 153.5 128.036 154.267 127.489 155.232C126.941 156.199 126.619 157.334 126.491 158.497C126.36 159.663 126.419 160.86 126.63 162.013C126.861 163.204 127.206 164.396 127.594 165.608C127.98 166.817 128.399 168.047 128.754 169.332C129.114 170.611 129.392 171.957 129.495 173.349C129.59 174.736 129.484 176.154 129.178 177.528C128.862 178.902 128.33 180.22 127.651 181.432C126.961 182.639 126.136 183.746 125.236 184.757C125.009 185.001 124.773 185.266 124.557 185.493L123.896 186.193L122.576 187.595C120.822 189.466 119.089 191.35 117.394 193.262C114.007 197.086 110.769 201.029 107.879 205.193C104.991 209.354 102.499 213.781 100.701 218.467C99.8161 220.814 99.0832 223.215 98.5791 225.665C98.0648 228.115 97.8024 230.603 97.7253 233.12C97.6507 235.637 97.7536 238.174 97.9233 240.722C98.003 241.996 98.1008 243.272 98.2036 244.551L98.2808 245.511L98.3374 246.474L98.4479 248.401C98.7206 253.543 98.9417 258.688 98.9417 263.855L98.952 263.863Z" fill="white"/>
<path d="M137.709 172.741C138.164 171.709 138.524 170.647 138.756 169.555C139.002 168.469 139.147 167.363 139.221 166.254C139.365 164.035 139.275 161.807 139.085 159.581C138.91 157.352 138.66 155.121 138.442 152.872C138.223 150.622 138.077 148.348 138.079 146.047C138.087 143.749 138.27 141.409 138.83 139.109C138.966 138.532 139.131 137.964 139.319 137.397C139.368 137.253 139.409 137.122 139.465 136.968C139.522 136.813 139.584 136.659 139.648 136.51C139.782 136.208 139.928 135.915 140.101 135.629C140.448 135.058 140.864 134.495 141.513 134.011C141.837 133.774 142.235 133.558 142.711 133.45C143.182 133.339 143.722 133.365 144.174 133.511C144.64 133.65 145.062 133.934 145.37 134.232C145.681 134.536 145.908 134.86 146.088 135.174C146.178 135.331 146.257 135.491 146.329 135.645C146.396 135.797 146.461 135.946 146.522 136.098C146.641 136.401 146.746 136.71 146.831 137.022C147.181 138.272 147.255 139.544 147.209 140.748C147.109 143.162 146.592 145.378 146.445 147.493C146.281 149.573 146.556 151.696 146.952 153.88C147.33 156.063 147.824 158.309 147.993 160.669C148.081 161.848 148.073 163.055 147.96 164.236C147.855 165.417 147.646 166.581 147.376 167.718C147.106 168.853 146.78 169.967 146.412 171.056C146.041 172.144 145.635 173.212 145.216 174.268C144.797 175.323 144.367 176.365 143.94 177.405C143.513 178.444 143.092 179.489 142.652 180.524L140.036 186.749C138.259 190.887 136.49 195.028 134.61 199.125C137.328 190.534 140.309 182.021 143.333 173.565C143.699 172.51 144.046 171.457 144.354 170.402C144.668 169.347 144.946 168.289 145.162 167.229C145.594 165.103 145.774 162.983 145.561 160.867C145.363 158.737 144.876 156.577 144.452 154.336C144.244 153.214 144.053 152.069 143.94 150.893C143.825 149.722 143.794 148.502 143.881 147.305C144.069 144.93 144.581 142.732 144.676 140.645C144.73 139.605 144.673 138.602 144.426 137.678C144.367 137.446 144.293 137.222 144.21 137.001L144.077 136.674C144.033 136.574 143.984 136.479 143.938 136.394C143.843 136.219 143.74 136.082 143.652 135.987C143.557 135.895 143.501 135.856 143.426 135.83C143.344 135.802 143.303 135.799 143.225 135.81C143.151 135.822 143.038 135.866 142.906 135.956C142.642 136.139 142.348 136.474 142.107 136.86C141.983 137.053 141.873 137.258 141.775 137.472C141.726 137.578 141.677 137.686 141.636 137.794L141.5 138.159C141.32 138.656 141.155 139.163 141.016 139.678C140.453 141.739 140.18 143.906 140.072 146.103C139.962 148.301 140.036 150.527 140.108 152.769C140.183 155.01 140.306 157.265 140.332 159.532C140.34 161.799 140.281 164.087 139.918 166.341C139.733 167.468 139.481 168.583 139.123 169.664C138.761 170.742 138.293 171.784 137.706 172.747L137.709 172.741Z" fill="white"/>
<path d="M64.246 113.547C62.8006 109.751 61.507 105.885 60.5349 101.925C60.0643 99.9406 59.6579 97.9385 59.3673 95.9131C59.0793 93.8878 58.9301 91.8368 58.9198 89.7806C58.8761 85.663 59.6168 81.5506 60.6429 77.6106C61.1418 75.6342 61.6562 73.6835 62.042 71.72C62.42 69.759 62.6618 67.7851 62.7132 65.8036L62.7312 65.1113L63.441 65.0186C64.6112 64.8642 65.8148 65.155 66.8023 65.7135C67.8002 66.2694 68.6129 67.062 69.2481 67.9576C69.8833 68.8505 70.354 69.8851 70.5983 70.9531C70.858 72.003 70.9378 73.0685 70.9429 74.1081C70.9429 76.1952 70.5957 78.1742 70.4234 80.0966C70.2177 82.0267 70.1405 83.9671 70.1225 85.9049C70.0479 93.6716 71.3981 101.415 73.5867 108.894C75.7444 116.393 78.72 123.658 82.0453 130.76C82.8786 132.536 83.7324 134.304 84.5939 136.07L87.2249 141.373C88.0967 143.165 88.9351 144.999 89.6398 146.914C90.3367 148.829 90.9025 150.828 91.1649 152.91C91.4298 154.985 91.368 157.154 90.8794 159.223C90.3959 161.287 89.5806 163.173 88.7834 164.988C87.9836 166.799 87.176 168.554 86.6385 170.343C86.0933 172.116 85.8567 173.969 85.8567 175.85C85.8567 177.734 86.0882 179.633 86.4353 181.527C86.78 183.424 87.248 185.315 87.7418 187.217C87.9887 188.159 88.2485 189.137 88.4722 190.11C88.7011 191.083 88.9094 192.055 89.1049 193.031C89.4983 194.979 89.8507 196.929 90.1747 198.883C90.8228 202.787 91.3732 206.701 91.9158 210.61L92.7157 216.475L93.4898 222.342L94.2896 228.202C94.5648 230.156 94.8348 232.106 95.1331 234.054C95.7401 237.948 96.347 241.847 97.2754 245.684C96.1438 241.901 95.3132 238.03 94.5468 234.157C93.7752 230.284 93.0989 226.393 92.4353 222.502L91.4478 216.665L90.4808 210.829C89.8301 206.94 89.1537 203.057 88.4208 199.194C88.0581 197.261 87.6672 195.336 87.2403 193.427C87.0269 192.472 86.8031 191.52 86.5614 190.578C86.3248 189.634 86.0573 188.71 85.7847 187.75C85.2446 185.843 84.7251 183.913 84.3239 181.934C83.9253 179.957 83.6553 177.927 83.627 175.863C83.5987 173.804 83.8378 171.694 84.4268 169.687C85.0029 167.685 85.8335 165.837 86.6025 164.033C87.3689 162.234 88.0942 160.463 88.4876 158.672C88.8965 156.897 88.9454 155.057 88.7062 153.224C88.4671 151.389 87.9527 149.57 87.2918 147.781C86.6257 145.993 85.8181 144.238 84.9566 142.488L82.3076 137.202C81.4255 135.429 80.564 133.645 79.7358 131.841C76.4054 124.646 73.4067 117.25 71.2309 109.568C69.0886 101.889 67.7899 93.9007 67.9725 85.8689C68.0316 83.8642 68.1551 81.862 68.4071 79.8701C68.6334 77.8705 69.0012 75.9507 69.0372 74.085C69.0526 73.156 68.9986 72.2372 68.8006 71.3674C68.6232 70.5079 68.276 69.7049 67.7848 68.9818C67.2961 68.2612 66.6712 67.6359 65.9562 67.2087C65.2413 66.7789 64.4363 66.5705 63.6416 66.6477L64.3694 65.8602C64.264 67.9395 63.9605 70.006 63.5182 72.0211C63.0707 74.0361 62.4997 76.0022 61.9545 77.9503C61.4093 79.901 60.9001 81.844 60.5426 83.8153C60.1748 85.784 59.9588 87.781 59.9074 89.7883C59.8508 91.7956 59.9434 93.808 60.1491 95.8153C60.3574 97.8226 60.6841 99.8171 61.0775 101.804C61.9057 105.767 62.9884 109.684 64.2665 113.541L64.246 113.547Z" fill="white"/>
<path d="M55.1985 261.23C56.6669 252.377 58.1174 243.525 59.3776 234.651C59.5396 233.542 59.6888 232.433 59.8328 231.321L60.2803 227.991C60.5529 225.768 60.8435 223.549 61.075 221.323C61.5739 216.876 61.97 212.422 62.2606 207.964C62.546 203.507 62.7235 199.045 62.6978 194.585C62.6875 190.125 62.5358 185.671 62.1937 181.229C62.0986 180.12 62.0188 179.008 61.9082 177.901L61.5559 174.579L61.1341 171.264C61.0004 170.158 60.8101 169.059 60.6584 167.957C59.9948 163.549 59.195 159.161 58.2717 154.794C57.3382 150.429 56.3095 146.08 55.2062 141.749C54.1029 137.415 52.9661 133.089 51.7497 128.781C51.1582 126.622 50.5281 124.473 49.9186 122.319L48.036 115.868C46.7759 111.565 45.5028 107.236 44.505 102.81C43.5097 98.3888 42.7973 93.8544 42.7176 89.2633C42.6816 86.9703 42.7896 84.6697 43.1008 82.3921C43.2576 81.247 43.4402 80.1326 43.6974 78.9849C43.9623 77.8448 44.2992 76.7228 44.7107 75.6368C45.5234 73.4571 46.5984 71.4137 47.7223 69.4502C48.8436 67.484 50.0189 65.5874 51.0116 63.6341C51.4977 62.6717 51.9632 61.632 52.4415 60.6232C52.9147 59.6092 53.3905 58.6004 53.8354 57.5891C54.2752 56.5777 54.697 55.5663 54.9876 54.5472C55.291 53.5281 55.4428 52.5013 55.4556 51.4462L55.4711 50.1723L56.5821 50.7488C57.0733 51.0036 57.5619 51.2738 58.0429 51.5877C58.5212 51.9043 58.9996 52.262 59.4265 52.7304C59.8534 53.1936 60.2032 53.8112 60.3472 54.4546C60.4938 55.0979 60.4758 55.7182 60.4166 56.2895C60.2854 57.4347 60.0257 58.4743 59.802 59.5243L59.7171 59.9155L59.6168 60.3298C59.5448 60.6026 59.4702 60.8754 59.3802 61.143C59.2079 61.6783 59.0073 62.1981 58.781 62.7025C57.8808 64.7279 56.7107 66.555 55.5842 68.3745C55.0184 69.2829 54.4604 70.1888 53.946 71.1101C53.4394 72.0339 52.9687 72.9733 52.6575 73.9486C52.5084 74.4247 52.3798 74.9625 52.246 75.4747C52.1175 75.9919 51.9863 76.5092 51.868 77.0265C51.742 77.5437 51.6391 78.0661 51.5285 78.586C51.4359 79.1084 51.3228 79.6282 51.2482 80.1558C50.9087 82.2532 50.7313 84.3814 50.6978 86.5148C50.667 88.6482 50.7621 90.7868 50.9396 92.9176C51.1067 95.051 51.4102 97.1741 51.724 99.2947C50.901 95.0896 50.2709 90.8254 50.1963 86.5123C50.1578 84.3583 50.2632 82.1966 50.5358 80.0503C50.595 79.5124 50.6901 78.9797 50.7673 78.4444C50.865 77.9143 50.9499 77.379 51.063 76.8515C51.1685 76.3213 51.2842 75.7964 51.3999 75.2688C51.5234 74.7412 51.6262 74.2317 51.7831 73.6784C52.0969 72.6001 52.5649 71.6016 53.0613 70.634C53.5628 69.6663 54.1054 68.7347 54.6481 67.8083C55.7282 65.958 56.8238 64.1282 57.6108 62.2033C57.8088 61.7246 57.9837 61.2382 58.1303 60.7493C58.2074 60.5048 58.2666 60.2603 58.3283 60.0133L58.408 59.6427L58.4852 59.2464C58.6884 58.1964 58.9198 57.1439 59.0073 56.1531C59.0484 55.6615 59.0381 55.1932 58.9378 54.7917C58.835 54.3902 58.6344 54.0505 58.3309 53.7289C57.7188 53.0906 56.8007 52.5862 55.88 52.1282L57.0064 51.4308C57.0064 52.0252 56.9833 52.6248 56.9035 53.2193C56.8213 53.8112 56.7107 54.4031 56.5512 54.9718C56.2503 56.117 55.8285 57.1902 55.3965 58.2453C54.9619 59.2978 54.5066 60.3272 54.0463 61.3515C53.5808 62.3757 53.1462 63.3922 52.6395 64.4396C51.6288 66.501 50.4689 68.4388 49.3991 70.3869C48.3266 72.3299 47.3416 74.2909 46.6164 76.3265C46.2512 77.343 45.958 78.3801 45.7317 79.4275C45.5157 80.4723 45.3511 81.5738 45.2199 82.6521C44.9653 84.8241 44.8727 87.0141 44.9293 89.2067C45.045 93.5945 45.7703 97.9642 46.7836 102.277C47.7969 106.596 49.1033 110.862 50.3944 115.158L52.3078 121.614C52.9301 123.773 53.5679 125.925 54.1723 128.089C55.4093 132.407 56.5692 136.754 57.6982 141.108C58.7912 145.473 59.8097 149.861 60.7355 154.269C61.6511 158.683 62.4432 163.124 63.0964 167.589C63.7419 172.057 64.2151 176.553 64.498 181.059C64.7835 185.565 64.9018 190.081 64.8324 194.593C64.7681 199.104 64.5006 203.608 64.1226 208.096C63.9477 210.34 63.7034 212.579 63.4642 214.815C63.189 217.049 62.9267 219.283 62.6052 221.506C62.312 223.735 61.9571 225.953 61.6228 228.177C61.2627 230.395 60.9052 232.611 60.5041 234.821C58.943 243.666 57.1479 252.46 55.1959 261.22L55.1985 261.23Z" fill="white"/>
<path d="M90.0226 156.765C91.3934 157.609 92.8233 158.222 94.2892 158.788C95.7525 159.352 97.2313 159.866 98.7204 160.366C100.209 160.865 101.704 161.351 103.203 161.838L104.329 162.208C104.522 162.278 104.692 162.316 104.867 162.368L105.392 162.514C105.736 162.628 106.094 162.684 106.449 162.751L106.981 162.854C107.161 162.875 107.341 162.888 107.521 162.906C107.881 162.939 108.239 163.001 108.606 162.991L109.154 163.001C109.337 163.006 109.519 163.011 109.702 162.996C110.07 162.975 110.437 162.967 110.805 162.937C111.173 162.893 111.541 162.844 111.914 162.805C113.392 162.589 114.874 162.221 116.36 161.789C119.333 160.932 122.296 159.735 125.398 158.873C124.083 159.805 122.738 160.664 121.357 161.48C119.976 162.296 118.546 163.047 117.047 163.691C115.55 164.337 113.976 164.867 112.33 165.209C111.916 165.284 111.5 165.348 111.083 165.415C110.664 165.466 110.237 165.492 109.812 165.531C109.602 165.554 109.386 165.551 109.172 165.549L108.529 165.543C108.1 165.554 107.673 165.497 107.243 165.459C107.03 165.435 106.814 165.415 106.6 165.386L105.965 165.258C105.543 165.17 105.116 165.098 104.707 164.954L104.093 164.756C103.89 164.689 103.676 164.625 103.496 164.553C103.123 164.414 102.75 164.275 102.38 164.125C100.894 163.544 99.4122 162.924 97.9617 162.229C96.5112 161.534 95.0813 160.777 93.7131 159.902C93.3711 159.684 93.0367 159.449 92.705 159.22C92.3809 158.973 92.0492 158.742 91.738 158.477C91.1053 157.967 90.5189 157.388 90.02 156.758L90.0226 156.765Z" fill="white"/>
<path d="M130.41 154.601C130.68 153.507 131.117 152.594 131.588 151.714C132.064 150.839 132.604 150.031 133.188 149.253C133.777 148.479 134.409 147.74 135.124 147.051C135.844 146.361 136.608 145.697 137.593 145.144C137.524 146.271 137.195 147.259 136.788 148.201C136.374 149.138 135.847 150.005 135.235 150.81C134.623 151.613 133.928 152.354 133.136 153.003C132.339 153.646 131.475 154.228 130.41 154.601Z" fill="white"/>
<path d="M116.993 113.122C117.26 113.297 117.492 113.518 117.721 113.74C117.952 113.961 118.163 114.203 118.371 114.447C118.783 114.939 119.164 115.456 119.5 116.022C119.67 116.305 119.824 116.599 119.958 116.938C119.992 117.021 120.022 117.111 120.051 117.209C120.079 117.301 120.107 117.402 120.125 117.51C120.164 117.723 120.172 117.937 120.159 118.148C120.131 118.57 120.007 118.979 119.796 119.357C119.585 119.736 119.279 120.093 118.829 120.351C118.605 120.477 118.341 120.575 118.06 120.616C117.78 120.66 117.479 120.634 117.214 120.564C116.679 120.42 116.327 120.165 116.072 120.016C115.818 119.852 115.65 119.797 115.648 119.826C115.63 119.852 115.681 119.836 115.576 119.906C115.473 119.975 115.301 120.142 115.087 120.351C114.869 120.559 114.617 120.817 114.259 121.079C114.079 121.208 113.871 121.342 113.621 121.447C113.377 121.547 113.12 121.625 112.85 121.661C112.307 121.74 111.775 121.648 111.348 121.506C110.921 121.36 110.571 121.167 110.265 120.979C109.959 120.791 109.684 120.606 109.434 120.428C108.938 120.07 108.491 119.785 108.131 119.64C108.043 119.607 107.958 119.579 107.881 119.561C107.843 119.548 107.801 119.548 107.77 119.54C107.832 119.54 107.853 119.53 107.855 119.525C107.848 119.52 107.765 119.54 107.67 119.581C107.575 119.622 107.459 119.682 107.338 119.751C107.097 119.885 106.834 120.057 106.531 120.225C106.379 120.31 106.22 120.397 106.035 120.482C105.847 120.567 105.649 120.654 105.361 120.716C105.219 120.747 105.052 120.768 104.841 120.755C104.61 120.742 104.378 120.665 104.201 120.559C103.838 120.343 103.663 120.078 103.537 119.857C103.296 119.401 103.229 119.002 103.19 118.598C103.167 118.194 103.185 117.8 103.321 117.353C103.36 117.237 103.401 117.124 103.47 116.998C103.486 116.967 103.506 116.933 103.524 116.902C103.545 116.871 103.568 116.833 103.576 116.825L103.648 116.738C103.743 116.622 103.838 116.501 103.931 116.382C104.679 115.425 105.446 114.311 106.5 113.552C105.934 114.707 105.608 115.865 105.116 117.064C105.055 117.214 104.99 117.363 104.924 117.515L104.872 117.628C104.859 117.654 104.864 117.651 104.864 117.654C104.864 117.656 104.864 117.654 104.864 117.662L104.857 117.746C104.844 117.906 104.864 118.145 104.924 118.359C104.975 118.573 105.07 118.789 105.152 118.868C105.186 118.91 105.219 118.894 105.132 118.827C105.091 118.796 105.011 118.768 104.936 118.758C104.88 118.75 104.87 118.755 104.88 118.745C104.895 118.735 104.983 118.688 105.07 118.632C105.163 118.573 105.268 118.498 105.381 118.416C105.605 118.248 105.855 118.06 106.137 117.86C106.281 117.759 106.433 117.659 106.613 117.556C106.796 117.456 106.999 117.348 107.292 117.263C107.444 117.221 107.621 117.191 107.84 117.191C107.961 117.196 108.079 117.196 108.195 117.211C108.426 117.234 108.645 117.281 108.856 117.337C109.692 117.574 110.299 117.986 110.839 118.315C111.109 118.482 111.35 118.65 111.579 118.781C111.806 118.917 112.014 119.013 112.176 119.069C112.338 119.126 112.441 119.139 112.515 119.128C112.554 119.128 112.598 119.113 112.644 119.098C112.683 119.082 112.744 119.056 112.821 119.007C112.976 118.912 113.179 118.74 113.421 118.526C113.665 118.315 113.961 118.06 114.401 117.818C114.624 117.7 114.894 117.592 115.198 117.541C115.506 117.487 115.825 117.499 116.124 117.574C116.425 117.649 116.674 117.775 116.869 117.896C117.065 118.019 117.217 118.14 117.343 118.241C117.592 118.452 117.749 118.58 117.813 118.619C117.87 118.657 117.896 118.693 118.014 118.678C118.125 118.657 118.281 118.567 118.418 118.428C118.554 118.289 118.667 118.104 118.744 117.914C118.821 117.713 118.85 117.543 118.798 117.275C118.757 117.016 118.672 116.73 118.58 116.449C118.395 115.881 118.155 115.315 117.896 114.753C117.631 114.195 117.358 113.637 116.99 113.124L116.993 113.122Z" fill="white"/>
<path d="M152.263 168.974C154.158 171.586 156.529 173.601 159.171 175.117C161.809 176.635 164.692 177.685 167.655 178.328C170.641 178.974 173.724 179.26 176.857 179.407C179.989 179.566 183.173 179.561 186.393 179.813C183.276 180.637 180.115 181.188 176.883 181.429C173.658 181.661 170.35 181.548 167.11 180.843C163.862 180.135 160.729 178.794 158.054 176.797C156.722 175.796 155.511 174.63 154.511 173.313C153.513 171.995 152.715 170.528 152.26 168.976L152.263 168.974Z" fill="white"/>
<path d="M59.717 171.8C59.6681 172.595 59.4701 173.385 59.1718 174.139C58.8657 174.89 58.4491 175.601 57.9579 176.257C56.9729 177.572 55.6793 178.645 54.252 179.481C52.822 180.305 51.2687 180.892 49.7102 181.339C48.1491 181.792 46.5726 182.111 45.0218 182.428C38.8161 183.686 32.5924 184.844 26.3558 185.918C24.7947 186.183 23.2465 186.437 21.724 186.746C20.2015 187.045 18.7047 187.397 17.2491 187.843C15.796 188.29 14.397 188.851 13.0725 189.541C12.4193 189.899 11.7763 190.274 11.1771 190.717C10.8814 190.941 10.565 191.142 10.2821 191.386C9.99924 191.628 9.70862 191.865 9.42573 192.112C7.20113 194.137 5.45232 196.718 3.96583 199.459C2.47162 202.205 1.27574 205.144 -0.00244141 208.052C0.733089 204.961 1.61007 201.901 2.82395 198.916C4.05841 195.954 5.69149 193.062 8.01639 190.658C9.18398 189.472 10.5136 188.411 11.9589 187.565C13.4017 186.713 14.9396 186.059 16.493 185.521C18.0515 184.994 19.6331 184.603 21.2097 184.258C22.7887 183.923 24.3601 183.656 25.9186 183.383C32.1552 182.312 38.4098 181.327 44.6772 180.441C47.8045 180.004 50.8881 179.607 53.6759 178.362C55.0595 177.755 56.3403 176.885 57.4178 175.794C57.9553 175.248 58.4337 174.635 58.8246 173.966C59.2232 173.3 59.5241 172.569 59.717 171.797V171.8Z" fill="white"/>
<path d="M78.63 97.1381C80.4817 97.6039 82.2176 97.9848 83.9665 98.2113C85.7076 98.4454 87.441 98.5484 89.1718 98.5252C90.9026 98.4995 92.6308 98.3554 94.3642 98.0774C96.1053 97.8072 97.8284 97.3852 99.6698 96.8705C98.3942 98.309 96.6968 99.3307 94.8966 100.031C93.086 100.72 91.1443 101.076 89.2026 101.099C87.2609 101.122 85.3115 100.816 83.483 100.17C81.6647 99.516 79.9442 98.5407 78.6274 97.1381H78.63Z" fill="white"/>
<path d="M121.121 97.223C123.091 97.4418 124.945 97.766 126.782 97.9487C128.615 98.1418 130.41 98.2293 132.218 98.1598C134.026 98.098 135.847 97.9153 137.712 97.7069C139.576 97.5087 141.472 97.2565 143.454 97.223C141.785 98.291 140.003 99.0759 138.139 99.6858C136.274 100.283 134.309 100.669 132.301 100.733C130.295 100.808 128.266 100.52 126.368 99.9226C124.47 99.3153 122.687 98.4377 121.121 97.223Z" fill="white"/>
<path d="M96.2002 137.879C97.1903 136.986 98.3296 136.252 99.5409 135.653C100.755 135.056 102.046 134.582 103.417 134.312C104.782 134.044 106.243 133.954 107.737 134.296C107.917 134.338 108.118 134.399 108.282 134.446L108.763 134.59C109.085 134.682 109.391 134.785 109.692 134.881C110.294 135.063 110.834 135.218 111.348 135.279C111.605 135.31 111.865 135.321 112.13 135.321C112.397 135.316 112.67 135.298 112.953 135.256C113.105 135.241 113.197 135.225 113.331 135.2C113.454 135.177 113.583 135.143 113.717 135.104C113.984 135.03 114.267 134.927 114.576 134.824C115.188 134.618 115.895 134.353 116.713 134.268C117.518 134.175 118.279 134.268 118.971 134.405C119.668 134.546 120.295 134.731 120.925 134.909C121.555 135.089 122.186 135.279 122.816 135.475C124.071 135.877 125.323 136.299 126.558 136.813C125.22 136.852 123.901 136.795 122.587 136.721C121.931 136.679 121.275 136.631 120.619 136.574C119.964 136.52 119.308 136.443 118.711 136.412C118.109 136.381 117.549 136.402 117.06 136.512C116.582 136.625 116.06 136.839 115.455 137.104C115.154 137.235 114.825 137.367 114.468 137.488C114.29 137.547 114.105 137.606 113.907 137.655C113.722 137.704 113.49 137.75 113.321 137.776C112.595 137.886 111.801 137.938 111.016 137.825C110.628 137.768 110.247 137.686 109.89 137.585C109.535 137.482 109.201 137.361 108.882 137.243C108.565 137.125 108.257 137.006 107.961 136.883L107.516 136.703C107.372 136.649 107.259 136.605 107.125 136.564C106.608 136.394 106.045 136.286 105.459 136.234C104.875 136.167 104.27 136.178 103.658 136.198C102.434 136.263 101.182 136.456 99.937 136.749C98.6897 137.037 97.4501 137.421 96.2028 137.884L96.2002 137.879Z" fill="white"/>
<path d="M52.0838 74.296C52.1275 74.085 52.1738 73.8714 52.2252 73.6604L52.2998 73.3412L52.3898 73.0273C52.5158 72.613 52.6418 72.1909 52.7859 71.7843C53.061 70.9582 53.3825 70.1553 53.7014 69.3498C54.3572 67.7491 55.0722 66.1793 55.8103 64.6275C57.2916 61.5265 58.9016 58.4949 60.4652 55.4865C60.8561 54.7377 61.247 53.9862 61.5942 53.2425C61.7871 52.8667 61.9311 52.5116 62.0957 52.1487L62.2449 51.7988C62.3066 51.6649 62.376 51.526 62.4661 51.3767C62.5586 51.2274 62.6718 51.0679 62.8287 50.9083C62.9856 50.7488 63.1913 50.5841 63.4485 50.4657C63.7082 50.3447 63.9988 50.283 64.2895 50.2856C64.5826 50.2881 64.8578 50.3628 65.079 50.4657C65.5239 50.6767 65.7785 50.9418 65.9868 51.1863C66.0897 51.3098 66.1797 51.4307 66.2569 51.5543L66.4498 51.8734C66.5706 52.0896 66.6889 52.3057 66.7892 52.5296C67.211 53.4149 67.4605 54.3542 67.5891 55.2858C67.8488 57.1567 67.5968 59.0096 67.103 60.7055C66.8561 61.5573 66.5526 62.3809 66.2106 63.1812C66.0383 63.5801 65.8634 63.979 65.6834 64.3701L65.5419 64.6635C65.4956 64.7562 65.4519 64.8668 65.3747 64.9698C65.3027 65.0624 65.1613 65.1885 64.9993 65.0933C64.935 65.0315 64.9375 64.9595 64.9504 64.9029C64.9581 64.8745 64.971 64.8437 64.9967 64.8231C65.025 64.7999 65.061 64.8128 65.079 64.8308C65.0198 64.8025 64.9941 64.8643 65.0018 64.908C65.0018 64.9543 65.0327 65.0032 65.0584 65.0058C65.0739 65.0084 65.1176 64.9955 65.1407 64.9698C65.1664 64.944 65.187 64.908 65.2024 64.8668C65.2333 64.7845 65.2436 64.6841 65.2616 64.5734L65.313 64.2543C65.3876 63.8297 65.4622 63.4051 65.5265 62.983C65.6576 62.1364 65.7888 61.2974 65.8634 60.4662C66.0254 58.8063 65.9945 57.1722 65.6036 55.6641C65.5111 55.2884 65.3902 54.9229 65.2513 54.573C65.115 54.2204 64.9581 53.8807 64.773 53.5642C64.6855 53.402 64.5826 53.2502 64.4798 53.1009L64.3255 52.8796C64.2843 52.823 64.2432 52.7767 64.2046 52.7381C64.1326 52.6609 64.0606 52.63 64.112 52.666C64.1377 52.6815 64.202 52.7046 64.2792 52.7072C64.3538 52.7123 64.4335 52.6969 64.4978 52.6686C64.6315 52.6043 64.6212 52.5759 64.5852 52.6506C64.5672 52.6866 64.5415 52.7381 64.5158 52.8024L64.4206 53.0469C64.2509 53.4715 64.0837 53.9167 63.8985 54.3105C63.7134 54.7145 63.5282 55.1185 63.3302 55.5045C63.1347 55.8957 62.947 56.2895 62.7438 56.6729C61.1416 59.7456 59.3825 62.6871 57.5719 65.6003C56.6641 67.0543 55.7434 68.498 54.8098 69.934C53.884 71.3777 52.935 72.7957 52.0786 74.2986L52.0838 74.296Z" fill="white"/>
<path d="M104.453 143.435C105.909 143.733 107.233 143.983 108.542 144.137C109.846 144.297 111.111 144.348 112.364 144.287C113.616 144.225 114.859 144.037 116.126 143.738C117.399 143.437 118.678 143.005 120.113 142.575C119.341 143.862 118.194 144.868 116.877 145.617C115.55 146.351 114.028 146.788 112.49 146.857C110.952 146.93 109.406 146.662 108.015 146.083C107.318 145.792 106.657 145.432 106.053 144.994C105.451 144.554 104.885 144.055 104.453 143.435Z" fill="white"/>
<path d="M160.217 115.137C159.785 120.361 159.577 125.544 159.734 130.706C159.883 135.866 160.374 141 161.212 146.075C162.051 151.15 163.231 156.171 164.749 161.104C166.258 166.045 168.115 170.883 170.198 175.696C167.176 171.406 164.756 166.686 162.838 161.768C160.927 156.848 159.533 151.714 158.677 146.492C157.818 141.27 157.488 135.961 157.72 130.688C157.959 125.415 158.738 120.168 160.217 115.134V115.137Z" fill="white"/>
<path d="M120.455 84.2862C122.237 82.3587 124.323 80.7426 126.591 79.3863C128.862 78.043 131.344 76.9904 133.956 76.3651C136.564 75.7397 139.311 75.557 141.973 75.9405C144.629 76.3239 147.196 77.2272 149.385 78.6838C146.797 78.2334 144.308 77.9297 141.834 77.9581C139.365 77.9684 136.937 78.3003 134.551 78.8665C132.161 79.4352 129.816 80.2407 127.488 81.1878C125.153 82.1271 122.859 83.2311 120.455 84.2811V84.2862Z" fill="white"/>
<path d="M104.569 84.2862C102.164 83.2337 99.87 82.1296 97.5349 81.1929C95.2074 80.2459 92.8619 79.4378 90.4727 78.8716C88.0861 78.3055 85.6584 77.9735 83.1894 77.9632C80.7154 77.9349 78.2259 78.2386 75.6387 78.6889C77.8247 77.2323 80.3939 76.329 83.0506 75.9456C85.7124 75.5622 88.459 75.7449 91.0668 76.3702C93.6798 76.993 96.1615 78.0481 98.4324 79.3915C100.698 80.7451 102.784 82.3613 104.569 84.2914V84.2862Z" fill="white"/>
<path d="M147.335 22.2991C147.929 22.2914 148.528 22.4175 149.104 22.6156C149.678 22.8241 150.221 23.1175 150.73 23.452C151.751 24.1288 152.643 24.9781 153.451 25.8531C155.076 27.5979 156.612 29.4508 157.944 31.4452C160.647 35.4109 162.758 39.7704 164.358 44.2791C165.942 48.7981 167.025 53.4638 167.732 58.1604C168.429 62.8621 168.771 67.5973 168.694 72.3325C167.704 67.7002 166.816 63.0886 165.744 58.5412C164.682 53.9939 163.458 49.5058 161.93 45.1335C160.384 40.7715 158.522 36.5355 156.233 32.5158C155.112 30.4904 153.824 28.5655 152.481 26.6586C151.818 25.6987 151.108 24.8031 150.287 24.0105C149.876 23.6167 149.429 23.2616 148.937 22.9682C148.449 22.6671 147.909 22.4406 147.333 22.2991H147.335Z" fill="white"/>
<path d="M63.8369 45.1489C65.7735 40.8821 68.3967 36.919 71.4417 33.3161C74.4944 29.7158 77.992 26.4758 81.8111 23.6785C85.6302 20.8811 89.7734 18.529 94.13 16.7069C98.484 14.8952 103.054 13.5931 107.706 13.0423C103.309 14.6353 99.0575 16.4264 94.9838 18.5418C90.9101 20.6495 87.0164 23.0608 83.3311 25.7553C79.6457 28.4523 76.1686 31.4349 72.9282 34.68C69.6774 37.9226 66.6865 41.4354 63.8395 45.1489H63.8369Z" fill="white"/>
</g>
<defs>
<clipPath id="clip0_280_1399">
<rect width="230" height="291" fill="white"/>
</clipPath>
</defs>
</svg>
