<svg width="215" height="247" viewBox="0 0 215 247" fill="none" xmlns="http://www.w3.org/2000/svg">
<g clip-path="url(#clip0_280_2539)">
<path d="M128.766 51.6355C129.094 51.1125 129.588 50.9956 130.163 50.8611C130.767 50.7197 131.373 50.5948 131.984 50.4971C133.177 50.305 134.394 50.236 135.6 50.2011C138.059 50.1287 140.553 50.4045 142.971 50.8306C147.786 51.6791 152.506 53.4025 156.692 55.936C158.758 57.1861 160.892 58.6196 162.493 60.4468C162.805 60.8022 163.029 61.3609 162.605 61.7319C162.08 62.192 161.503 61.704 161.065 61.3914C160.103 60.7061 159.151 60.0025 158.174 59.339C154.159 56.6108 149.691 54.5863 144.978 53.4191C142.335 52.7652 139.634 52.3854 136.913 52.299C135.538 52.2553 134.167 52.2483 132.793 52.3016C132.14 52.3269 131.487 52.3365 130.834 52.361C130.176 52.3863 129.45 52.5487 128.893 52.1218C128.745 52.0083 128.654 51.8153 128.766 51.6363V51.6355Z" fill="white"/>
<path d="M73.1396 49.0705C73.6379 48.2883 74.8371 47.9478 75.6872 47.6937C76.6228 47.4144 77.596 47.2634 78.5674 47.1778C80.443 47.0119 82.3221 47.1551 84.1864 47.383C86.0603 47.6126 87.9141 47.9094 89.7172 48.4821C90.5944 48.7606 91.4619 49.0923 92.2919 49.4904C93.1385 49.8955 94.0759 50.3809 94.6755 51.1212C94.9155 51.4172 94.7017 51.9139 94.2819 51.7969C93.4388 51.5621 92.6681 51.1003 91.8582 50.7729C91.029 50.4376 90.1833 50.1548 89.3175 49.9295C87.6426 49.4948 85.9101 49.2233 84.1855 49.1011C82.4583 48.9797 80.6961 48.9072 78.9671 49.0225C78.1232 49.0784 77.2879 49.2032 76.471 49.4249C76.0451 49.5402 75.62 49.6772 75.2159 49.8545C74.7594 50.0553 74.3789 50.3137 73.8648 50.3346C73.2391 50.3599 72.8035 49.5978 73.1396 49.0705Z" fill="white"/>
<path d="M89.8682 88.2917C89.9904 87.0284 90.7567 86.062 91.5457 85.1261C92.3574 84.164 93.101 83.1574 93.7853 82.1011C96.4193 78.0416 98.336 73.1789 98.8291 68.3406C98.9556 67.1 98.9792 65.8097 98.7418 64.5805C98.6214 63.9598 98.4311 63.3539 98.192 62.769C97.9581 62.1981 97.5601 61.7196 97.4283 61.1225C97.4003 60.9968 97.5112 60.8615 97.6465 60.9042C98.5428 61.1862 99.1346 62.2906 99.4776 63.12C99.914 64.1737 100.137 65.3112 100.207 66.447C100.356 68.8277 99.9227 71.2582 99.3257 73.5543C98.6825 76.031 97.7067 78.4301 96.4961 80.6833C95.8983 81.7964 95.2376 82.8755 94.5132 83.9109C93.8027 84.9253 92.9875 85.8577 92.2614 86.8582C91.8765 87.3881 91.557 87.9468 91.5614 88.6182C91.5666 89.3777 91.8337 90.139 92.0572 90.8566C92.5276 92.3695 93.3707 93.844 93.6456 95.4041C93.7442 95.9637 93.0888 96.457 92.6367 95.9917C91.6836 95.0113 91.1983 93.6223 90.7497 92.3582C90.3029 91.1002 89.7364 89.6492 89.8673 88.2917H89.8682Z" fill="white"/>
<path d="M67.5621 68.1573C67.4407 68.0045 67.5097 67.76 67.7279 67.7574C67.9452 67.7548 68.1442 67.7723 68.3598 67.8081C68.4331 67.8203 68.4811 67.8246 68.5867 67.8299C68.6914 67.8351 68.7962 67.8334 68.9009 67.8377C68.9987 67.8421 69.0964 67.8412 69.1942 67.836C69.2465 67.8334 69.2989 67.829 69.3513 67.8238C69.3513 67.8238 69.3696 67.8211 69.3827 67.8203C69.3984 67.8177 69.4307 67.8124 69.4359 67.8115C69.5328 67.795 69.6262 67.767 69.7231 67.7496C69.7973 67.7365 69.8715 67.7338 69.9465 67.7277C69.9675 67.726 70.0609 67.7173 70.0416 67.719C70.1429 67.7077 70.2817 67.6963 70.3995 67.7225C70.4623 67.6474 70.5243 67.5715 70.5871 67.4964C70.3637 67.5392 70.1368 67.5671 69.9116 67.5558C69.5573 67.5383 69.2038 67.4772 68.8774 67.3366C68.7176 67.2677 68.5824 67.1891 68.4488 67.0765C68.3205 66.9682 68.235 66.8451 68.1398 66.708C68.0587 66.5919 68.1922 66.4496 68.3153 66.4802C68.4497 66.5134 68.5876 66.5308 68.7237 66.5588C68.8634 66.5876 69.0004 66.6234 69.1401 66.653C69.4124 66.7107 69.6576 66.7543 69.9378 66.7508C70.2127 66.7473 70.4466 66.7255 70.7076 66.6583C70.9136 66.605 71.1998 66.516 71.4364 66.5396C71.576 66.3955 71.7183 66.2532 71.8675 66.1179C71.4861 66.1214 71.1047 66.0943 70.7303 66.0192C70.334 65.9398 69.9282 65.8053 69.5808 65.5941C69.2745 65.4081 68.8215 65.1034 68.811 64.7158C68.8084 64.6242 68.9018 64.5604 68.9865 64.5823C69.1724 64.6311 69.2561 64.735 69.3993 64.8573C69.5433 64.9812 69.703 65.0799 69.868 65.1724C70.2014 65.3601 70.5531 65.4902 70.9275 65.567C71.377 65.6596 71.8405 65.6709 72.2969 65.6534C72.3379 65.6517 72.379 65.6534 72.42 65.6517C72.7386 65.3942 73.0624 65.1445 73.394 64.9035C73.0248 64.8599 72.6583 64.77 72.3214 64.6242C71.8841 64.4347 71.4852 64.1746 71.1169 63.8725C70.9389 63.7267 70.7704 63.5687 70.6116 63.4028C70.4265 63.2107 70.355 62.9951 70.2319 62.7646C70.1839 62.6756 70.2895 62.5411 70.3838 62.6127C70.5496 62.7384 70.7451 62.81 70.9048 62.9462C71.0619 63.0815 71.2155 63.2177 71.384 63.3391C71.7322 63.5905 72.1119 63.807 72.5177 63.9511C72.941 64.1012 73.3652 64.2156 73.8173 64.2252C73.991 64.2287 74.1647 64.2252 74.3384 64.2322C74.3645 64.2147 74.3899 64.1973 74.4152 64.1789C74.3436 64.1641 74.272 64.1501 74.2031 64.1326C73.7833 64.0244 73.3574 63.8725 72.9794 63.6577C72.6111 63.4482 72.2638 63.1968 71.9478 62.9148C71.7829 62.7673 71.6266 62.6101 71.4817 62.4434C71.3726 62.3185 71.2304 62.0357 71.068 61.9798C70.938 61.9344 70.8882 61.7781 70.9877 61.6742C71.3342 61.3093 71.7357 61.9405 71.9609 62.1518C72.2812 62.4538 72.6399 62.7096 73.0257 62.9218C73.3966 63.1252 73.7876 63.3033 74.1917 63.4307C74.4021 63.4971 74.6177 63.5504 74.8306 63.6062C74.9345 63.6333 75.0305 63.6682 75.13 63.7057C75.535 63.4508 75.9504 63.2125 76.3851 63.0082C76.3528 62.9951 76.3205 62.9873 76.2882 62.9733C75.8099 62.7734 75.356 62.5272 74.9345 62.2251C74.512 61.9222 74.128 61.5817 73.7929 61.1827C73.6305 60.9898 73.4603 60.789 73.3434 60.5655C73.2195 60.328 73.1138 60.0792 73.017 59.8296C72.9192 59.5764 73.2849 59.4742 73.4219 59.6584C73.6986 60.0312 74.025 60.3883 74.3462 60.7235C74.6578 61.0483 74.9999 61.3556 75.3674 61.6157C75.7436 61.882 76.1485 62.1142 76.5744 62.2923C76.7813 62.3788 76.9899 62.4582 77.1959 62.5473C77.2482 62.57 77.2945 62.6005 77.3442 62.6276C77.5389 62.5673 77.7352 62.5132 77.9325 62.4669C77.8539 62.4277 77.7771 62.384 77.7021 62.3377C77.3495 62.1195 77.0178 61.8549 76.7097 61.5782C76.4121 61.3111 76.0874 61.0073 75.9024 60.6484C75.8029 60.4555 75.7104 60.2503 75.6772 60.0356C75.6423 59.8112 75.6187 59.5877 75.5742 59.3651C75.555 59.2673 75.6982 59.1896 75.7462 59.2926C75.8343 59.4795 75.9321 59.6497 76.0516 59.8191C76.1625 59.9762 76.2585 60.1438 76.3737 60.2975C76.6015 60.5987 76.852 60.8667 77.1383 61.1129C77.4071 61.3442 77.6698 61.593 77.9534 61.8061C78.1027 61.9187 78.2642 62.0138 78.4221 62.1125C78.5216 62.1753 78.6342 62.233 78.7084 62.3229C79.0165 62.2819 79.3263 62.2513 79.637 62.2434C79.1902 61.7694 78.8437 61.1941 78.5496 60.6196C78.2973 60.1273 78.0547 59.6331 77.8985 59.1006C77.7475 58.582 77.7344 58.1132 77.8382 57.5868C77.8539 57.5073 77.9657 57.5196 77.9875 57.5868C78.1359 58.0364 78.3645 58.4895 78.5818 58.9094C78.7983 59.3276 79.0366 59.7361 79.2818 60.1386C79.5297 60.5437 79.7496 60.9671 80.0289 61.3521C80.2052 61.5957 80.4077 61.7886 80.632 61.9667C80.6285 61.958 80.6215 61.9492 80.6181 61.9405C80.4147 61.4848 80.3082 61.0221 80.2419 60.5288C80.207 60.2704 80.1607 59.998 80.1747 59.7379C80.1895 59.4673 80.275 59.2298 80.3606 58.9757C80.3676 58.9557 80.4007 58.9452 80.4112 58.9688C80.4897 59.153 80.5927 59.3258 80.6565 59.5161C80.7324 59.7422 80.7682 59.9762 80.8205 60.2076C80.9174 60.6301 81.0309 61.0614 81.1819 61.4682C81.3128 61.8218 81.51 62.1527 81.7902 62.4067C81.8033 62.4189 81.819 62.4285 81.833 62.4407C82.3339 62.5403 82.8306 62.6703 83.3176 62.8353C83.2539 62.7219 83.1849 62.6119 83.1264 62.4957C82.9981 62.2382 82.8899 61.9789 82.8131 61.7013C82.7764 61.5686 82.7328 61.4315 82.7372 61.2927C82.7407 61.1469 82.7607 61.0003 82.7721 60.8545C82.7738 60.83 82.8114 60.8126 82.8236 60.8405C82.8768 60.9653 82.9423 61.0797 83.0165 61.1932C83.088 61.3023 83.1264 61.4272 83.1788 61.5468C83.2923 61.8034 83.4188 62.0584 83.5515 62.3046C83.6833 62.5481 83.8273 62.7856 83.9783 63.0178C83.9957 63.0449 84.0158 63.0737 84.0376 63.1025C85.2168 63.5818 86.3296 64.2261 87.3045 64.9681C88.9671 66.234 90.8436 67.6841 91.8691 69.5358C91.9258 69.6379 91.8124 69.7514 91.7103 69.6946C90.0886 68.7954 88.9086 67.2869 87.4179 66.1965C87.1334 65.9878 86.8401 65.787 86.5434 65.5906C86.6664 65.9651 86.6795 66.3632 86.6185 66.75C86.5574 67.1393 86.3776 67.4746 86.1375 67.7819C86.0948 67.8369 86.0468 67.8901 85.9979 67.9425C86.1052 67.9608 86.2126 67.9783 86.3191 68.001C87.404 68.2297 88.6337 68.6383 89.3398 69.5392C89.4044 69.6213 89.3485 69.7942 89.2211 69.7427C88.0559 69.2712 86.9999 68.8199 85.7317 68.6977C84.3047 68.5597 82.8777 68.7177 81.4551 68.8356C80.0507 68.9517 78.6281 68.9962 77.2194 68.9919C76.3021 68.9892 75.0445 68.8888 74.5932 67.939C74.5173 67.7784 74.6456 67.547 74.8437 67.6134C75.3325 67.7784 75.7741 67.9259 76.2908 67.9792C76.5762 68.0088 76.8616 68.0202 77.147 68.0237C76.7638 67.4457 76.6992 66.6548 76.7822 65.9712C76.852 65.3942 76.9742 64.7944 77.2264 64.2671C77.2744 64.1658 77.332 64.0698 77.3896 63.9738C77.3608 63.9851 77.3311 63.9938 77.3023 64.0052C76.4479 64.3657 75.672 64.9061 74.9179 65.4396C74.1516 65.9808 73.3722 66.5186 72.6862 67.1629C71.9888 67.8177 71.4686 68.6147 70.8778 69.3594C70.2738 70.1215 69.6279 70.6558 68.7159 70.9928C68.0395 71.2425 67.7576 70.2752 68.2594 69.9094C68.7578 69.5462 69.1846 69.1219 69.5861 68.6741C69.374 68.7116 69.1558 68.7238 68.9472 68.7204C68.4549 68.7125 67.8771 68.5484 67.5621 68.1529V68.1573Z" fill="white"/>
<path d="M123.264 71.0383C123.776 70.9894 124.288 71.006 124.798 70.9221C125.35 70.8314 125.89 70.6576 126.417 70.4752C127.377 70.1425 128.299 69.6571 129.175 69.1394C129.059 69.067 128.941 68.9867 128.861 68.8793C128.818 68.8217 128.783 68.7684 128.761 68.6986C128.743 68.6427 128.731 68.586 128.721 68.5283C128.71 68.4681 128.755 68.4244 128.815 68.434C128.856 68.441 128.897 68.448 128.939 68.4506C129.008 68.4559 129.066 68.4725 129.133 68.4908C129.197 68.5083 129.258 68.5397 129.319 68.5676C129.333 68.5729 129.347 68.579 129.362 68.5851C129.392 68.5964 129.422 68.6069 129.453 68.6165C129.56 68.6514 129.671 68.6794 129.78 68.7099C129.813 68.7195 129.848 68.7265 129.882 68.7344C130.121 68.5973 130.359 68.4567 130.602 68.3258C130.564 68.3066 130.524 68.29 130.488 68.2682C130.32 68.1678 130.173 68.0342 130.049 67.8814C129.978 67.7941 129.908 67.7077 129.872 67.6003C129.844 67.5148 129.82 67.4266 129.798 67.3393C129.767 67.2223 129.924 67.1158 130.011 67.2153C130.059 67.2703 130.108 67.3175 130.169 67.3585C130.245 67.4109 130.307 67.4755 130.378 67.5357C130.378 67.5357 130.437 67.5837 130.405 67.5593C130.418 67.5689 130.431 67.5785 130.444 67.5881C130.478 67.6117 130.512 67.6344 130.547 67.6562C130.62 67.7016 130.695 67.7452 130.771 67.7854C130.808 67.8046 130.845 67.8212 130.882 67.8395C130.884 67.8413 130.883 67.8395 130.884 67.8413C130.888 67.843 130.887 67.8421 130.893 67.8448C130.912 67.8517 130.931 67.8596 130.951 67.8666C131.028 67.8945 131.108 67.9164 131.188 67.9329C131.208 67.9373 131.228 67.9408 131.249 67.9443C131.254 67.9452 131.278 67.9487 131.289 67.9504C131.301 67.9513 131.314 67.953 131.316 67.953C131.321 67.953 131.325 67.9548 131.329 67.9556C131.425 67.9085 131.519 67.8561 131.616 67.8098C131.548 67.7662 131.48 67.7225 131.414 67.6693C131.269 67.5514 131.144 67.4109 131.037 67.2581C130.927 67.1018 130.888 66.9263 130.859 66.7395C130.85 66.6819 130.923 66.6173 130.97 66.6749C131.071 66.798 131.199 66.8897 131.313 66.9988C131.428 67.1088 131.544 67.1909 131.692 67.2686C131.727 67.2878 131.764 67.3052 131.802 67.3218C131.806 67.3236 131.804 67.3227 131.806 67.3236C131.81 67.3253 131.809 67.3253 131.817 67.3279C131.836 67.3349 131.855 67.3419 131.873 67.3489C131.949 67.376 132.024 67.4056 132.101 67.431C132.175 67.4554 132.251 67.4737 132.328 67.4877C132.477 67.424 132.626 67.3559 132.777 67.2965C132.714 67.259 132.651 67.2214 132.591 67.1778C132.417 67.0503 132.282 66.8766 132.144 66.7125C131.989 66.5291 131.85 66.3318 131.761 66.1083C131.679 65.9014 131.625 65.6858 131.597 65.4658C131.596 65.4544 131.613 65.451 131.618 65.4606C131.803 65.8237 132.087 66.1537 132.397 66.4165C132.548 66.5448 132.729 66.6164 132.9 66.7116C133.088 66.8164 133.204 66.8661 133.418 66.9255C133.49 66.9456 133.56 66.9674 133.631 66.9901C133.708 66.9648 133.783 66.9325 133.861 66.908C133.821 66.8775 133.778 66.8521 133.74 66.8207C133.491 66.6173 133.281 66.3798 133.111 66.1066C132.947 65.8438 132.825 65.5653 132.756 65.2633C132.722 65.1096 132.702 64.9559 132.697 64.7988C132.695 64.7281 132.69 64.6513 132.701 64.5814C132.715 64.5002 132.743 64.4295 132.749 64.344C132.75 64.3195 132.785 64.3134 132.792 64.3379C132.814 64.4173 132.855 64.4714 132.896 64.5395C132.93 64.5963 132.954 64.6626 132.983 64.722C133.043 64.839 133.109 64.9542 133.176 65.0668C133.312 65.2929 133.466 65.5121 133.634 65.7032C133.809 65.9006 134.003 66.0952 134.211 66.2567C134.224 66.2655 134.267 66.2969 134.266 66.296C134.293 66.3144 134.319 66.3327 134.346 66.3502C134.404 66.3894 134.464 66.4261 134.526 66.461C134.545 66.4715 134.566 66.482 134.586 66.4925C134.389 66.1101 134.242 65.6963 134.138 65.279C133.929 64.4382 133.881 63.5574 134.097 62.714C134.105 62.6835 134.15 62.6905 134.151 62.721C134.17 63.5111 134.27 64.3038 134.537 65.0511C134.665 65.4099 134.833 65.7521 135.029 66.0787C135.116 66.2236 135.208 66.365 135.328 66.4863C135.343 66.5029 135.363 66.5125 135.38 66.5274C135.526 66.5029 135.672 66.4802 135.819 66.4567C135.624 66.1371 135.482 65.774 135.387 65.4152C135.134 64.4609 135.207 63.4631 135.253 62.4879C135.255 62.4312 135.338 62.4312 135.342 62.4879C135.385 63.3906 135.455 64.309 135.786 65.1594C135.916 65.4937 136.094 65.8194 136.318 66.0987C136.39 66.1878 136.468 66.2707 136.543 66.3563C136.858 66.3222 137.172 66.2917 137.489 66.2777C137.408 66.1965 137.343 66.0961 137.285 65.9975C137.163 65.7862 137.103 65.5557 137.048 65.32C136.989 65.0721 136.948 64.8224 136.906 64.5718C136.859 64.2872 136.793 64.0052 136.807 63.7154C136.817 63.5076 137.142 63.3697 137.241 63.5984C137.299 63.7346 137.347 63.8603 137.376 64.0052C137.401 64.1257 137.424 64.2471 137.449 64.3675C137.499 64.6198 137.544 64.8713 137.588 65.1244C137.627 65.3479 137.683 65.5662 137.726 65.7888C137.757 65.9521 137.808 66.1066 137.813 66.269C137.874 66.2681 137.934 66.2637 137.994 66.2629C137.961 66.159 137.936 66.0525 137.92 65.9564C137.852 65.5706 137.872 65.189 137.932 64.804C137.989 64.4382 138.066 64.0594 138.196 63.7128C138.261 63.5373 138.326 63.3583 138.406 63.1898C138.486 63.0205 138.598 62.9079 138.746 62.7979C138.816 62.7463 138.932 62.7996 138.95 62.8808C139.022 63.2256 138.919 63.5198 138.844 63.8559C138.773 64.1746 138.677 64.4863 138.61 64.8058C138.546 65.1148 138.506 65.4352 138.543 65.7504C138.564 65.9267 138.638 66.1022 138.679 66.2786C139.274 66.3083 139.867 66.379 140.447 66.5073C140.447 66.4942 140.444 66.4785 140.443 66.4671C140.436 66.2777 140.525 66.0586 140.591 65.884C140.666 65.6902 140.755 65.5147 140.868 65.3418C140.99 65.1567 141.125 64.9804 141.263 64.8075C141.333 64.7194 141.414 64.6469 141.498 64.5718C141.544 64.5308 141.582 64.5011 141.64 64.4793C141.689 64.461 141.738 64.4487 141.782 64.4182C141.829 64.385 141.897 64.44 141.88 64.4932C141.851 64.5814 141.875 64.674 141.837 64.7604C141.798 64.8512 141.761 64.9455 141.716 65.0328C141.627 65.203 141.524 65.3645 141.437 65.5374C141.35 65.7129 141.28 65.8779 141.201 66.0568C141.14 66.1983 141.099 66.3886 141.04 66.5466C141.03 66.5763 141.014 66.6112 140.997 66.6461C141.033 66.6566 141.07 66.6636 141.105 66.674C141.754 66.867 142.387 67.1237 142.976 67.4571C143.139 67.1551 143.401 66.8975 143.643 66.6636C143.813 66.4986 143.976 66.3266 144.132 66.1485C144.288 65.9713 144.425 65.7713 144.66 65.7032C144.752 65.6771 144.817 65.7486 144.829 65.8316C144.858 66.0525 144.737 66.2454 144.625 66.4261C144.517 66.5981 144.404 66.7657 144.285 66.9298C144.154 67.1106 144.019 67.2843 143.863 67.4449C143.805 67.5052 143.747 67.5654 143.693 67.6283C143.679 67.644 143.666 67.6606 143.652 67.6763C143.646 67.6841 143.637 67.6946 143.637 67.6963C143.61 67.7339 143.583 67.7732 143.561 67.8133C143.559 67.8168 143.556 67.8212 143.555 67.8247C143.596 67.8544 143.642 67.8788 143.683 67.9094C144.043 68.1765 144.378 68.4733 144.701 68.7841C144.793 68.4864 145.065 68.2236 145.275 68.0176C145.453 67.843 145.632 67.6684 145.815 67.499C145.907 67.4135 146.011 67.341 146.111 67.2651C146.214 67.1865 146.306 67.1533 146.429 67.1175C146.45 67.1114 146.469 67.1315 146.464 67.1516C146.435 67.2607 146.411 67.3524 146.346 67.4458C146.278 67.5436 146.214 67.6457 146.14 67.7391C145.988 67.9303 145.83 68.1171 145.678 68.3083C145.537 68.4856 145.395 68.6575 145.245 68.8269C145.167 68.9151 145.08 68.9928 144.99 69.067C145.161 69.239 145.331 69.4118 145.497 69.5873C145.502 69.5838 145.506 69.5812 145.51 69.5777C145.498 69.5864 145.498 69.5864 145.51 69.576C145.536 69.5559 145.559 69.5349 145.587 69.5175C145.641 69.4843 145.699 69.4764 145.758 69.459C145.784 69.4511 145.808 69.4433 145.832 69.4337C145.836 69.4319 145.835 69.4328 145.838 69.4319C145.839 69.431 145.84 69.4302 145.848 69.4267C145.892 69.4057 145.933 69.3813 145.976 69.3586C146.155 69.2617 146.322 69.1534 146.485 69.0321C146.641 68.916 146.782 68.7972 146.947 68.6785C147.084 68.5798 147.219 68.4271 147.397 68.4201C147.415 68.4201 147.433 68.4297 147.442 68.4454C147.542 68.634 147.392 68.8627 147.284 69.0155C147.148 69.2075 146.971 69.3577 146.795 69.5122C146.624 69.6615 146.44 69.8291 146.23 69.9217C146.127 69.9662 146.025 70.002 145.916 70.0229C145.946 70.0535 145.976 70.0849 146.005 70.1155C146.814 70.9527 147.641 71.7733 148.465 72.5957C148.488 72.5835 148.508 72.5713 148.535 72.5599C148.657 72.5067 148.792 72.5137 148.923 72.5058C149.147 72.4927 149.358 72.4953 149.574 72.4211C149.776 72.3521 149.969 72.2334 150.155 72.1278C150.36 72.0099 150.566 71.906 150.79 71.8275C150.83 71.8135 150.871 71.8659 150.847 71.9008C150.569 72.298 150.192 72.704 149.74 72.8978C149.52 72.9921 149.223 73.0724 148.944 73.0689C149.055 73.1771 149.166 73.2863 149.277 73.3937C149.35 73.3526 149.447 73.3448 149.526 73.3395C149.544 73.3387 149.563 73.336 149.582 73.3352C149.599 73.3352 149.659 73.3413 149.67 73.343C149.688 73.3439 149.724 73.3465 149.736 73.3474C149.774 73.3491 149.812 73.3483 149.849 73.3474C149.867 73.3474 149.887 73.3448 149.905 73.3439C149.948 73.3413 149.908 73.3448 149.933 73.3413C150.076 73.3195 150.197 73.2802 150.311 73.2164C150.454 73.137 150.555 73.0252 150.686 72.9214C150.809 72.8236 151.074 72.6926 151.206 72.8454C151.232 72.8742 151.252 72.9187 151.236 72.958C151.206 73.0314 151.149 73.0759 151.09 73.1265C151.04 73.1693 150.998 73.2208 150.951 73.2671C150.84 73.3797 150.738 73.4932 150.609 73.5892C150.372 73.7673 150.074 73.8633 149.778 73.8834C149.828 73.9323 149.878 73.9795 149.927 74.0283C150.312 73.8468 150.774 73.8939 151.186 73.8197C151.426 73.7769 151.665 73.7097 151.898 73.6398C151.989 73.6128 152.081 73.5831 152.166 73.5421C152.279 73.4888 152.362 73.419 152.487 73.3963C152.633 73.3701 152.746 73.4801 152.718 73.6276C152.672 73.8738 152.39 74.0248 152.183 74.1348C151.926 74.2719 151.661 74.3618 151.376 74.4177C151.069 74.4779 150.676 74.5312 150.34 74.4544C150.707 74.8481 151.05 75.261 151.333 75.7194C151.515 76.0162 151.151 76.3776 150.855 76.1969C149.927 75.6303 149.211 74.8245 148.445 74.0615C147.652 73.2714 146.855 72.4857 146.059 71.6983C145.016 70.6655 143.987 69.5838 142.757 68.8086C142.784 68.9107 142.805 69.0085 142.821 69.0932C142.899 69.5253 142.866 69.9531 142.755 70.3774C142.656 70.7571 142.512 71.1247 142.368 71.4896C142.25 71.7908 142.114 72.0929 141.902 72.3347C142.449 72.4482 142.999 72.4726 143.548 72.5765C143.678 72.601 143.713 72.8157 143.587 72.8698C142.556 73.3186 141.256 72.7948 140.255 72.4779C138.878 72.0431 137.504 71.8126 136.062 71.7533C134.679 71.6965 133.281 71.7323 131.903 71.8528C131.192 71.9148 130.489 72.03 129.781 72.1121C129.191 72.1802 128.566 72.2579 128.016 71.9968C127.798 71.8929 127.856 71.5315 128.084 71.48C128.666 71.3499 129.294 71.4075 129.889 71.3351C130.561 71.253 131.228 71.1509 131.903 71.0863C132.231 71.0548 132.558 71.0321 132.886 71.0138C132.347 70.2595 132.139 69.4057 132.413 68.5388C131.343 68.9579 130.317 69.4878 129.302 70.1067C127.589 71.15 125.161 72.525 123.113 71.5952C122.815 71.4599 123.003 71.0627 123.264 71.0374V71.0383Z" fill="white"/>
<path d="M76.6909 122.788C76.8052 121.87 76.6411 120.94 76.7354 120.019C76.9064 118.351 77.9599 117.237 79.4637 116.608C81.1639 115.897 83.084 115.635 84.8959 115.375C88.9605 114.792 93.1088 114.862 97.183 115.309C99.2506 115.536 101.313 115.831 103.322 116.382C105.132 116.878 106.891 117.547 108.612 118.292C110.424 119.075 112.204 119.93 114.015 120.716C115.786 121.485 117.586 122.07 119.426 122.642C121.108 123.165 122.846 123.754 124.151 124.991C124.269 125.102 124.381 125.223 124.488 125.347C124.789 125.29 125.164 125.461 125.214 125.858C125.248 126.131 125.284 126.402 125.322 126.674C125.341 126.716 125.363 126.757 125.381 126.799C125.553 127.225 125.765 127.888 125.599 128.38C125.595 128.567 125.548 128.751 125.418 128.926C124.941 129.571 124.197 129.924 123.442 130.133C122.609 130.363 121.734 130.42 120.876 130.489C119.83 130.573 118.783 130.651 117.735 130.73C113.508 131.048 109.277 131.317 105.042 130.995C102.943 130.836 100.882 130.544 98.8177 130.141C96.7702 129.741 94.7724 129.705 92.6934 129.75C88.4543 129.842 84.3347 128.796 80.2003 127.984C79.3049 127.809 78.2366 127.81 77.4371 127.323C76.7808 126.923 76.4465 126.209 76.3557 125.468C76.2431 124.547 76.5774 123.689 76.69 122.788H76.6909ZM77.5392 125.578C77.74 126.494 78.5595 126.594 79.3564 126.737C81.1901 127.064 83.0543 127.256 84.9003 127.503C86.7314 127.749 88.5747 127.995 90.4241 128.035C92.2378 128.074 94.0514 127.871 95.8633 127.961C97.6543 128.049 99.3981 128.482 101.164 128.76C105.261 129.407 109.451 129.303 113.581 129.101C115.664 128.999 117.748 128.905 119.831 128.808C121.308 128.739 122.928 128.834 124.227 128.046C124.238 127.445 124.19 126.835 124.139 126.235C123.701 125.738 123.169 125.315 122.602 124.978C121.171 124.132 119.51 123.838 117.943 123.345C114.736 122.335 111.703 120.854 108.623 119.52C105.357 118.106 102.073 117.021 98.5332 116.554C94.9731 116.083 91.3135 115.956 87.7325 116.225C85.9127 116.362 84.106 116.588 82.3221 116.976C81.0138 117.259 79.4035 117.554 78.4722 118.616C77.4057 119.831 77.952 121.738 77.7513 123.211C77.6466 123.978 77.3699 124.8 77.5401 125.576L77.5392 125.578Z" fill="white"/>
<path d="M167.027 24.5754C167.744 25.8841 168.243 27.322 168.897 28.6664C169.522 29.9497 170.209 31.2112 170.997 32.402C171.848 33.688 172.849 34.8648 173.998 35.8932C175.159 36.9321 176.43 37.8401 177.618 38.8467C179.883 40.7673 181.831 43.0677 183.357 45.616C185.01 48.3756 186.037 51.4521 187.873 54.1096C188.864 55.5448 190.008 56.8683 191.161 58.1735C192.31 59.4752 193.582 60.6799 194.636 62.0602C194.723 62.1745 194.553 62.3378 194.439 62.2575C193.187 61.3766 192.069 60.3037 190.976 59.2351C189.86 58.1456 188.829 57.001 187.884 55.7596C186.91 54.4789 186.067 53.1144 185.357 51.6704C184.628 50.188 184.005 48.6559 183.238 47.1918C181.816 44.4724 179.917 42.0131 177.651 39.9432C176.459 38.8536 175.133 37.93 173.892 36.899C172.754 35.9526 171.753 34.8936 170.882 33.6967C169.904 32.3558 169.113 30.9005 168.425 29.3936C167.743 27.9043 167.012 26.3442 166.581 24.7623C166.51 24.4995 166.892 24.3284 167.026 24.5746L167.027 24.5754Z" fill="white"/>
<path d="M176.273 40.6389C177.029 41.5032 177.457 42.7115 177.987 43.725C178.542 44.7875 179.123 45.8369 179.755 46.8557C181.067 48.9727 182.727 50.7755 184.239 52.7398C185.737 54.6857 186.729 56.9233 187.918 59.0561C189.117 61.202 190.555 63.2038 192.118 65.0965C192.97 66.1275 193.848 67.1385 194.742 68.1337C195.643 69.1377 196.649 70.098 197.331 71.2722C197.405 71.3988 197.255 71.5585 197.127 71.4765C196.129 70.8435 195.321 69.9618 194.516 69.1062C193.672 68.2097 192.837 67.3017 192.047 66.3562C190.495 64.4993 189.039 62.5516 187.801 60.4695C186.518 58.3114 185.584 55.9473 184.134 53.8896C182.73 51.8965 180.995 50.1871 179.678 48.1224C178.939 46.9639 178.276 45.7583 177.651 44.5334C177.33 43.904 177.019 43.2684 176.713 42.6311C176.431 42.0445 176.113 41.4421 175.996 40.7987C175.969 40.6503 176.155 40.501 176.274 40.6372L176.273 40.6389Z" fill="white"/>
<path d="M176.037 45.4406C176.94 45.6152 177.321 46.5598 177.612 47.3472C178.038 48.4917 178.37 49.6668 178.812 50.8052C179.279 52.0091 179.827 53.1851 180.507 54.2842C181.211 55.4235 182.083 56.4353 182.957 57.4454C186.221 61.2168 188.875 65.4239 191.054 69.9042C191.649 71.1291 192.223 72.3635 192.734 73.6259C193.239 74.8708 193.893 76.2476 194.049 77.5903C194.065 77.7326 193.877 77.7404 193.811 77.6549C193.075 76.6989 192.608 75.4374 192.1 74.3461C191.601 73.2749 191.114 72.1976 190.611 71.1282C189.579 68.9299 188.459 66.7675 187.231 64.6731C185.982 62.5447 184.586 60.521 183.006 58.624C181.418 56.7156 179.889 54.8848 178.85 52.6045C178.289 51.3718 177.834 50.0946 177.424 48.8052C177.235 48.2106 177.099 47.5934 176.87 47.012C176.657 46.4725 176.309 45.9967 175.962 45.5401C175.924 45.4894 175.987 45.4327 176.037 45.4423V45.4406Z" fill="white"/>
<path d="M175.234 53.7272C176.11 54.327 176.808 54.9817 177.483 55.8067C178.123 56.5881 178.683 57.4297 179.2 58.2975C180.296 60.1386 181.181 62.0942 182.094 64.0297C183.008 65.9669 183.945 67.9146 185.153 69.6894C186.442 71.5821 188.114 73.13 189.793 74.6674C190.728 75.5229 191.651 76.375 192.487 77.3301C192.882 77.7806 193.249 78.2564 193.594 78.747C193.928 79.221 194.308 79.7256 194.316 80.3237C194.316 80.3856 194.25 80.4162 194.199 80.3909C193.737 80.1613 193.447 79.7353 193.113 79.3537C192.743 78.9303 192.348 78.5314 191.949 78.135C191.144 77.3345 190.299 76.5714 189.465 75.8023C187.823 74.2894 186.204 72.7738 184.905 70.9448C182.457 67.4982 181.092 63.4631 179.121 59.7545C178.006 57.6593 176.621 55.7456 175.033 53.9874C174.912 53.8547 175.07 53.6146 175.234 53.7263V53.7272Z" fill="white"/>
<path d="M181.557 65.9424C182.107 66.5605 182.46 67.3436 182.815 68.0831C183.182 68.8496 183.526 69.6274 183.839 70.4175C184.49 72.0597 185.079 73.7263 185.738 75.3658C186.398 77.0079 187.143 78.6247 188.065 80.1368C189.016 81.696 190.211 83.0509 191.461 84.3736C192.804 85.794 194.421 87.2702 194.998 89.1952C195.068 89.4266 194.774 89.5724 194.608 89.4213C193.288 88.214 192.16 86.7735 190.952 85.4535C189.749 84.1405 188.551 82.817 187.581 81.318C187.52 81.2246 187.467 81.1268 187.408 81.0316C187.391 83.3443 187.516 85.6028 188.149 87.8543C188.479 89.0294 188.907 90.1913 189.424 91.2975C189.692 91.871 189.951 92.4498 190.231 93.0182C190.456 93.4756 190.771 93.9252 190.838 94.4386C190.846 94.5014 190.767 94.5294 190.721 94.5058C190.231 94.2561 189.908 93.7122 189.595 93.2748C189.204 92.7275 188.87 92.1696 188.58 91.562C188.032 90.4131 187.607 89.2214 187.301 87.9861C186.697 85.5451 186.431 82.8728 186.945 80.3926C186.952 80.3629 186.964 80.3393 186.978 80.3175C185.446 77.6286 184.489 74.642 183.437 71.7445C183.092 70.7947 182.741 69.8448 182.369 68.9055C182.004 67.9853 181.499 67.0861 181.232 66.131C181.182 65.9512 181.425 65.794 181.556 65.9424H181.557Z" fill="white"/>
<path d="M184.827 84.5133C185.351 85.6176 185.717 86.784 186.131 87.932C186.586 89.1961 187.086 90.4402 187.629 91.6694C188.139 92.8226 188.703 93.9514 189.357 95.0296C189.684 95.5665 190.04 96.0833 190.373 96.615C190.61 96.9922 191.06 97.4487 190.996 97.9167C190.991 97.949 190.951 97.9743 190.921 97.9734C190.445 97.9577 190.087 97.3902 189.805 97.0533C189.401 96.5705 189.062 96.0458 188.736 95.5072C188.067 94.4002 187.488 93.2382 186.977 92.05C186.476 90.8845 186.061 89.6815 185.669 88.4759C185.255 87.203 184.841 85.9214 184.623 84.5988C184.605 84.4853 184.767 84.3902 184.826 84.5133H184.827Z" fill="white"/>
<path d="M183.689 89.8334C184.287 91.4669 184.686 93.1588 185.308 94.7887C185.629 95.6311 185.999 96.4492 186.394 97.2602C186.753 97.9979 187.169 98.7304 187.395 99.5222C187.423 99.62 187.299 99.6863 187.229 99.6191C186.592 99.0184 186.154 98.2039 185.774 97.4226C185.395 96.6438 185.055 95.8442 184.749 95.0331C184.136 93.4023 183.595 91.5987 183.602 89.8457C183.602 89.7933 183.673 89.788 183.69 89.8343L183.689 89.8334Z" fill="white"/>
<path d="M182.283 94.4107C182.706 95.7891 183.213 97.1641 183.765 98.4972C184.313 99.8234 184.917 101.117 185.377 102.477C185.401 102.549 185.297 102.611 185.247 102.552C183.34 100.336 182.431 97.3396 181.898 94.5163C181.851 94.2666 182.206 94.1618 182.283 94.4098V94.4107Z" fill="white"/>
<path d="M122.684 3.05646C123.493 1.13582 125.596 0.681853 127.473 0.492409C130.324 0.205186 133.189 -0.0357664 136.057 0.00439239C141.636 0.0829639 147.01 1.5313 152.264 3.30614C161.015 6.26218 169.484 10.2204 177.127 15.4315C184.677 20.5779 191.35 26.9116 196.345 34.5968C202.092 43.4378 205.101 53.6556 207.887 63.7276C210.855 74.457 214.111 85.6011 213.02 96.856C212.884 98.2493 212.681 99.6191 212.357 100.981C212.092 102.096 210.52 101.596 210.68 100.518C211.08 97.8198 211.358 95.1178 211.357 92.387C211.355 89.6981 211.14 87.0101 210.775 84.3465C210.027 78.8937 208.678 73.5438 207.272 68.2298C204.633 58.2582 202.031 48.0762 197.004 38.989C192.712 31.2305 186.542 24.5379 179.48 19.2134C172.358 13.8435 164.37 9.71583 156.07 6.50138C151.354 4.67503 146.489 2.98138 141.496 2.1136C138.785 1.64217 136.045 1.52257 133.299 1.58368C131.918 1.61424 130.539 1.66924 129.159 1.73733C128.049 1.79233 126.912 1.79233 125.821 2.03154C124.896 2.23408 124.052 2.55447 123.606 3.44582C123.355 3.94781 122.461 3.58813 122.686 3.05733L122.684 3.05646Z" fill="white"/>
<path d="M173.896 202.085C174.685 204.551 176.94 205.989 179.355 206.584C182.117 207.263 185.084 206.902 187.751 206.006C193.263 204.152 197.886 199.951 201.329 195.367C208.663 185.602 211.348 173.17 210.571 161.131C210.327 157.366 209.733 153.643 208.932 149.959C208.524 148.078 208.048 146.212 207.513 144.363C206.978 142.513 206.341 140.708 205.995 138.811C205.951 138.567 206.271 138.405 206.411 138.636C207.335 140.169 207.927 141.823 208.499 143.515C209.069 145.198 209.59 146.898 210.054 148.614C210.99 152.069 211.654 155.592 212.06 159.149C212.822 165.813 212.562 172.572 210.994 179.105C209.552 185.11 207.03 190.906 203.377 195.9C199.697 200.932 194.899 205.334 188.943 207.448C185.789 208.567 182.206 208.978 178.942 208.089C176.192 207.34 173.208 205.432 172.69 202.417C172.556 201.633 173.647 201.304 173.897 202.084L173.896 202.085Z" fill="white"/>
<path d="M121.052 226.729C121.542 222.876 122.393 219.131 123.537 215.422C124.103 213.584 124.679 211.745 125.074 209.86C125.472 207.96 125.566 206.038 125.729 204.11C126.047 200.358 126.99 196.74 128.503 193.295C130.056 189.754 132.179 186.502 134.282 183.27C136.456 179.93 138.649 176.602 140.865 173.29C145.275 166.699 149.734 160.138 154.264 153.629C158.782 147.136 163.426 140.702 168.281 134.456C168.799 133.789 169.326 133.138 169.873 132.498C168.303 128.909 167.113 125.153 166.405 121.298C166.197 120.159 166.019 119.012 165.906 117.861C165.794 116.725 165.789 115.563 165.386 114.481C164.623 112.436 162.842 110.994 161.23 109.626C159.585 108.228 158.088 106.793 156.975 104.924C155.91 103.137 155.134 101.197 154 99.4488C152.785 97.5744 151.021 96.154 149.752 94.3198C148.546 92.579 147.683 90.6052 147.136 88.5623C146.552 86.3806 146.349 84.0479 146.703 81.8113C146.952 80.2389 147.733 77.8582 149.331 77.0943C149.352 77.0219 149.373 76.9503 149.401 76.8813C149.779 75.9463 150.763 76.2755 151.446 76.6404C152.946 77.4436 154.101 78.9766 155.076 80.3306C155.651 81.1286 156.166 81.9579 156.603 82.8388C156.949 83.5355 157.318 84.274 157.487 85.044C158.54 86.2715 159.59 87.5024 160.663 88.7124C161.197 89.3157 161.725 89.9242 162.258 90.5283C162.431 90.7256 162.595 90.929 162.76 91.1316C162.708 90.7623 162.661 90.3913 162.627 90.0202C162.45 88.0682 162.534 86.0899 162.833 84.1536C162.989 83.14 163.224 82.1526 163.547 81.1792C163.742 80.589 163.932 79.9919 164.226 79.455C164.306 78.7182 164.758 78.1175 165.507 77.8993C166.282 77.674 167.064 77.929 167.674 78.4213C168.345 78.9626 168.823 79.7518 169.244 80.4921C169.717 81.3232 170.094 82.2111 170.433 83.1033C170.813 84.1029 171.117 85.1313 171.398 86.1624C171.425 86.2601 171.446 86.3623 171.462 86.4653C177.084 92.2578 181.978 98.7766 185.708 105.948C186.385 107.251 187.009 108.577 187.575 109.929C188.064 106.916 189.588 103.335 192.641 102.18C192.733 102.145 192.824 102.153 192.906 102.184C193.22 101.937 193.575 101.775 193.949 101.765C193.76 101.493 193.633 101.163 193.586 100.884C193.454 100.105 193.514 99.3344 193.631 98.5583C193.908 96.7171 194.367 94.889 194.788 93.0767C195.008 92.1321 195.235 91.1892 195.469 90.2472C195.681 89.3934 195.867 88.5239 196.244 87.7242C196.864 86.4086 198.109 85.6324 199.446 85.1855C200.205 84.9314 200.981 84.7944 201.772 84.6905C202.275 84.6241 202.834 84.6721 203.155 85.0475C203.635 84.6817 204.269 84.5063 204.856 84.6966C205.591 84.9358 205.941 85.6778 206.151 86.3632C206.417 87.2309 206.552 88.1406 206.601 89.0451C206.712 91.0827 206.448 93.2879 205.911 95.2575C205.902 95.288 205.884 95.3081 205.87 95.3334C206.435 97.364 206.522 99.5527 206.735 101.636C206.975 103.988 207.216 106.34 207.457 108.693C207.933 113.348 208.374 118.007 208.829 122.665C209.037 124.799 209.166 126.975 208.497 129.047C207.814 131.158 206.662 133.149 205.651 135.116C204.61 137.14 203.601 139.183 202.513 141.183C201.467 143.107 200.266 144.909 198.969 146.671C197.508 148.656 196.098 150.649 194.958 152.841C193.819 155.03 192.974 157.362 191.808 159.536C191.734 159.675 191.619 159.744 191.497 159.764C191.164 160.475 190.833 161.191 190.5 161.908C190.981 161.897 191.463 161.989 191.807 162.157C193.237 162.855 193.391 164.628 193.331 166.029C193.257 167.735 192.395 168.876 191.062 169.864C189.588 170.956 188.052 171.95 186.596 173.071C185.702 173.76 184.806 174.449 183.906 175.132C183.366 175.541 182.831 175.985 182.281 176.403C180.718 178.576 179.07 180.692 177.448 182.836C176.603 183.952 175.765 185.072 175.02 186.258C174.276 187.444 173.73 188.697 173.104 189.941C172.734 190.676 171.592 190.16 171.798 189.39C172.118 188.197 172.75 187.044 173.364 185.978C173.96 184.942 174.628 183.948 175.327 182.979C176.785 180.959 178.433 179.083 179.917 177.082C179.953 177.033 179.987 176.982 180.024 176.933C179.801 176.546 179.827 175.997 180.279 175.802C180.673 175.442 181.099 175.111 181.537 174.794C183.881 171.362 185.945 167.737 187.787 164.015C187.877 163.828 187.966 163.641 188.06 163.455C188.626 162.296 189.179 161.129 189.698 159.949C190.264 158.665 190.699 157.171 191.486 156.008C191.541 155.928 191.633 155.892 191.722 155.895C192.024 155.241 192.311 154.582 192.545 153.902C192.625 153.674 192.841 153.539 193.057 153.557C193.111 153.441 193.161 153.322 193.216 153.206C194.134 151.247 195.201 149.387 196.471 147.635C197.752 145.868 199.101 144.16 200.219 142.28C201.343 140.387 202.311 138.404 203.29 136.433C204.282 134.438 205.318 132.462 206.295 130.459C206.774 129.476 207.181 128.465 207.364 127.382C207.541 126.335 207.524 125.255 207.461 124.199C207.326 121.926 207.035 119.662 206.828 117.395C206.617 115.08 206.401 112.768 206.17 110.455C205.913 107.869 205.686 105.28 205.447 102.692C205.329 101.398 205.202 100.105 205.103 98.8106C205.019 97.7202 204.931 96.6534 204.992 95.5726C204.425 95.5813 203.828 95.2243 203.415 94.8812C202.835 94.3993 202.424 93.7288 202.188 93.0182C201.9 92.1504 201.877 91.1944 201.914 90.2891C201.953 89.362 202.01 88.427 202.099 87.5033C202.157 86.9114 202.257 86.2942 202.539 85.7704C202.463 85.7643 202.386 85.7625 202.306 85.7739C201.93 85.8306 201.557 85.9546 201.191 86.0506C200.481 86.2374 199.771 86.4208 199.116 86.763C198.455 87.1087 197.887 87.5871 197.536 88.255C197.105 89.0748 196.954 90.0648 196.734 90.957C196.235 92.992 195.774 95.0357 195.328 97.0829C195.141 97.9402 194.918 98.8045 194.881 99.6845C194.861 100.132 194.944 100.528 194.985 100.967C195.019 101.315 195.182 101.715 195.06 102.054C195.046 102.09 195.026 102.125 195.003 102.159C196.188 103.109 196.435 105.116 196.535 106.505C196.607 107.499 196.576 108.5 196.51 109.494C196.463 110.199 196.439 110.925 196.089 111.534C196.334 111.732 196.543 112.012 196.695 112.24C197.27 113.11 197.73 114.033 198.116 115.002C198.899 116.967 199.277 119.087 199.363 121.197C199.454 123.417 199.232 125.643 199.027 127.851C198.82 130.084 198.62 132.318 198.401 134.55C198.202 136.567 198.007 138.618 197.229 140.51C196.659 141.897 195.856 143.141 194.901 144.292C193.002 146.579 190.579 148.312 188.334 150.231C187.087 151.298 185.856 152.413 184.79 153.664C184.296 154.242 183.88 154.864 183.459 155.495C183.002 156.176 182.666 156.904 182.13 157.528C181.884 157.815 181.462 157.562 181.44 157.242C181.346 155.905 182.144 154.546 182.896 153.489C183.692 152.368 184.618 151.345 185.627 150.411C187.695 148.496 189.964 146.812 192.011 144.869C194.168 142.821 195.765 140.528 196.361 137.57C196.775 135.517 196.909 133.397 197.124 131.316C197.34 129.224 197.561 127.13 197.715 125.033C197.884 122.72 197.959 120.334 197.557 118.041C197.367 116.954 197.071 115.885 196.665 114.858C196.454 114.323 196.209 113.799 195.95 113.285C195.911 113.208 195.831 113.019 195.736 112.812C195.624 112.866 195.499 112.891 195.376 112.872C194.647 112.76 194.015 112.158 193.563 111.607C193.077 111.015 192.727 110.35 192.451 109.637C192.108 108.749 191.942 107.803 191.829 106.861C191.725 105.98 191.575 105.038 191.728 104.156C191.734 104.121 191.743 104.085 191.751 104.05C191.11 104.679 190.572 105.386 190.144 106.237C189.491 107.537 189.098 108.971 188.913 110.41C188.68 112.226 188.723 114.064 188.714 115.892C188.705 117.712 188.562 119.511 188.289 121.31C188.304 121.307 188.317 121.305 188.336 121.302C188.625 121.254 188.91 121.172 189.184 121.068C189.449 120.968 189.689 120.827 189.936 120.691C190.066 120.619 190.196 120.552 190.321 120.473C190.391 120.429 190.453 120.384 190.529 120.353C190.59 120.329 190.657 120.316 190.713 120.282C190.875 120.182 191.085 120.383 190.978 120.547C190.93 120.622 190.911 120.712 190.862 120.787C190.809 120.869 190.732 120.939 190.664 121.008C190.519 121.155 190.367 121.293 190.196 121.41C189.867 121.631 189.51 121.808 189.14 121.95C188.825 122.071 188.489 122.173 188.149 122.174C187.879 123.736 187.534 125.284 187.16 126.824C186.817 128.238 186.478 129.658 185.996 131.033C185.034 133.769 183.476 136.228 180.723 137.41C179.104 138.105 177.325 138.377 175.919 139.506C174.65 140.524 173.77 141.986 173.14 143.468C172.992 143.818 172.424 143.631 172.439 143.278C172.57 140.156 175.034 137.874 177.798 136.808C179.282 136.235 180.821 135.843 181.987 134.697C182.958 133.743 183.637 132.494 184.131 131.235C184.664 129.873 185.03 128.453 185.381 127.034C185.841 125.176 186.308 123.316 186.65 121.431C187.241 118.175 187.058 114.868 187.369 111.593C185.673 108.34 183.98 105.083 182.052 101.957C179.924 98.5086 177.513 95.2348 174.925 92.1181C173.7 90.6418 172.406 89.2284 171.065 87.8569C170.999 87.8613 170.931 87.8552 170.857 87.8272C169.929 87.464 169.069 86.8424 168.235 86.3021C167.449 85.7922 166.728 85.2151 166.135 84.4853C165.477 83.676 164.909 82.7017 164.564 81.6707C164.384 82.3979 164.228 83.133 164.104 83.8707C163.811 85.5993 163.753 87.3575 163.906 89.1036C164.06 90.8714 164.444 92.6236 165.031 94.2971C165.676 96.1375 166.582 97.88 167.439 99.6278C167.533 99.5859 167.624 99.5396 167.712 99.4794C168.005 99.2768 168.242 98.994 168.48 98.7321C168.776 98.4064 169.092 98.1087 169.434 97.8329C169.781 97.5526 170.149 97.3282 170.536 97.1082C170.725 97 170.957 97.2724 170.778 97.4217C170.18 97.9193 169.635 98.4998 169.128 99.0883C168.737 99.5431 168.336 100.071 167.786 100.343C169.452 103.757 171.086 107.186 172.748 110.602C173.591 112.335 174.576 114.061 175.212 115.885C175.378 116.365 175.498 116.865 175.565 117.37C175.854 117.35 176.138 117.319 176.424 117.245C176.777 117.155 177.135 117.034 177.469 116.886C177.806 116.737 178.123 116.483 178.483 116.405C178.567 116.387 178.665 116.462 178.633 116.556C178.503 116.933 178.131 117.188 177.811 117.406C177.442 117.656 177.048 117.836 176.621 117.962C176.297 118.057 175.957 118.116 175.618 118.147C175.618 118.246 175.626 118.344 175.622 118.442C175.577 119.387 175.349 120.313 175.167 121.238C174.733 123.431 174.357 125.634 174.087 127.853C173.953 128.959 173.851 130.066 173.74 131.174C173.627 132.304 173.597 133.436 173.26 134.526C173.122 134.973 172.398 135.041 172.283 134.539C172.111 135.026 171.49 135.31 171.007 134.854C170.769 134.631 170.617 134.361 170.447 134.086C170.364 133.951 170.359 133.803 170.4 133.668C170.388 133.641 170.376 133.614 170.364 133.588C168.451 136.629 166.286 139.534 164.216 142.465C161.964 145.655 159.731 148.86 157.514 152.075C157.206 152.522 156.894 152.968 156.585 153.414C156.722 153.457 156.855 153.511 156.979 153.561C157.271 153.68 157.552 153.819 157.82 153.984C158.333 154.302 158.79 154.721 159.204 155.158C159.627 155.605 160.009 156.088 160.378 156.582C160.582 156.856 161.236 157.661 160.674 157.923C160.497 158.006 160.264 157.768 160.447 157.627C160.55 157.546 158.71 155.604 158.501 155.416C158.131 155.084 157.731 154.788 157.301 154.537C157.095 154.417 156.881 154.307 156.659 154.221C156.49 154.156 156.313 154.114 156.144 154.053C152.104 159.883 148.015 165.675 144.085 171.58C141.921 174.834 139.763 178.092 137.618 181.359C135.496 184.59 133.291 187.796 131.475 191.213C129.742 194.473 128.432 197.97 127.811 201.617C127.488 203.512 127.44 205.434 127.245 207.343C127.052 209.233 126.66 211.081 126.143 212.908C125.09 216.621 123.862 220.233 123.228 224.054C122.596 227.856 122.363 231.687 122.069 235.524C121.994 236.509 121.911 237.485 121.782 238.464C121.66 239.39 120.313 239.458 120.287 238.464C120.187 234.565 120.565 230.592 121.057 226.724L121.052 226.729ZM188.521 165.815C187.806 167.335 187.04 168.83 186.224 170.298C185.88 170.916 185.52 171.522 185.152 172.122C186.717 170.966 188.284 169.852 189.952 168.849C190.594 168.463 191.253 168.042 191.691 167.418C192.229 166.648 192.323 165.603 192.218 164.69C192.129 163.913 191.789 163.185 191.004 162.927C190.652 162.811 190.338 162.833 190.031 162.906C189.558 163.896 189.065 164.874 188.521 165.815ZM203.807 93.4215C204.023 93.7052 204.301 93.9593 204.624 94.1147C204.827 94.2116 205.024 94.2579 205.215 94.3233C205.384 92.744 205.661 91.1875 205.606 89.5837C205.582 88.8609 205.262 84.7559 203.829 85.9659C203.186 86.509 203.287 87.636 203.241 88.3903C203.186 89.2921 203.095 90.1992 203.121 91.1036C203.143 91.9147 203.303 92.7624 203.806 93.4215H203.807ZM192.888 105.302C192.961 106.228 193.059 107.169 193.252 108.078C193.427 108.901 193.695 109.682 194.171 110.381C194.452 110.792 194.8 111.082 195.166 111.36C195.2 111.344 195.235 111.331 195.269 111.32C195.332 111.158 195.425 110.998 195.469 110.833C195.575 110.43 195.571 110.003 195.586 109.589C195.618 108.683 195.646 107.776 195.588 106.87C195.547 106.213 194.959 101.962 193.642 102.967C192.937 103.505 192.824 104.493 192.888 105.302ZM165.534 80.5777C165.839 81.8374 166.473 83.0073 167.373 83.9405C167.928 84.5167 168.569 84.9777 169.239 85.4098C169.622 85.6569 170.024 85.8952 170.415 86.1484C170.445 86.1257 170.478 86.1056 170.512 86.0882C170.372 85.7189 170.198 85.367 170.139 85.2151C169.872 84.5263 169.607 83.834 169.313 83.1548C168.781 81.923 168.152 80.5393 167.213 79.5597C166.848 79.1791 166.327 78.8316 165.78 79.0368C165.163 79.2682 165.417 80.094 165.534 80.5777ZM156.089 83.9467C155.726 83.2928 155.326 82.6607 154.919 82.033C154.125 80.8082 153.214 79.6331 152.169 78.6108C151.92 78.3672 151.66 78.1306 151.374 77.9307C151.234 77.832 151.088 77.7404 150.937 77.6574C150.786 77.5745 150.577 77.5291 150.431 77.4383C150.424 77.4654 150.418 77.4881 150.418 77.4916C150.39 77.6566 150.378 77.8251 150.376 77.9927C150.372 78.3576 150.416 78.7164 150.503 79.07C150.858 80.5009 151.833 81.586 152.93 82.5184C154.103 83.5154 155.371 84.3465 156.693 85.12C156.701 85.106 156.709 85.092 156.717 85.079C156.496 84.7088 156.298 84.3255 156.088 83.9475L156.089 83.9467ZM172.159 133.732C171.995 132.063 172.289 130.295 172.477 128.657C172.708 126.646 172.998 124.64 173.35 122.647C173.67 120.836 174.445 118.82 173.972 116.984C173.744 116.095 173.332 115.274 172.93 114.453C172.481 113.534 172.031 112.615 171.582 111.696C169.766 107.985 167.915 104.291 166.11 100.576C165.252 98.8098 164.35 97.055 163.713 95.1937C163.39 94.2509 163.144 93.2853 162.955 92.3075C162.82 92.2482 162.702 92.1434 162.565 92.0247C162.26 91.7601 161.962 91.493 161.676 91.2075C161.091 90.6235 160.514 90.0342 159.954 89.4257C158.994 88.3842 158.063 87.3226 157.159 86.2348C157.035 86.3413 156.866 86.3998 156.675 86.3623C155.769 86.1833 155.021 85.7023 154.289 85.1619C153.589 84.6442 152.904 84.0994 152.252 83.5224C150.98 82.3944 149.807 80.988 149.387 79.3031C149.339 79.111 149.298 78.905 149.266 78.6937C149.09 78.9565 148.922 79.2236 148.779 79.5074C148.38 80.3062 148.154 81.2071 148.018 82.0863C147.718 84.0401 147.942 86.1004 148.451 88.0001C148.974 89.9539 149.898 91.7977 151.117 93.4119C152.371 95.0741 153.975 96.4317 155.128 98.1742C155.133 98.1646 155.138 98.155 155.143 98.1454C155.394 97.7159 155.728 97.3221 156.02 96.9188C156.174 96.7067 156.323 96.4902 156.489 96.2867C156.624 96.1209 156.754 95.934 156.929 95.8075C157.208 95.6049 157.738 95.7114 157.678 96.1305C157.668 96.2064 157.567 96.2134 157.521 96.1724C157.373 96.0406 157.124 96.5906 157.082 96.663C156.894 96.9974 156.669 97.3125 156.459 97.6338C156.263 97.9341 156.056 98.2301 155.874 98.54C155.801 98.664 155.723 98.7853 155.684 98.925C155.673 98.9617 155.668 98.9983 155.659 99.035C156.537 100.556 157.226 102.185 158.1 103.708C159.151 105.543 160.546 106.935 162.155 108.285C163.693 109.577 165.26 110.91 166.258 112.685C166.271 112.674 166.285 112.663 166.297 112.651C166.521 112.438 166.753 112.236 166.972 112.017C167.185 111.804 167.378 111.573 167.587 111.357C167.695 111.244 167.802 111.125 167.917 111.02C167.983 110.96 168.063 110.894 168.141 110.856C168.207 110.824 168.264 110.8 168.327 110.76C168.473 110.667 168.654 110.82 168.612 110.979C168.592 111.049 168.585 111.116 168.572 111.187C168.556 111.275 168.514 111.368 168.47 111.448C168.397 111.583 168.299 111.713 168.209 111.838C168.014 112.108 167.779 112.355 167.55 112.596C167.339 112.819 167.123 113.045 166.889 113.243C166.804 113.315 166.717 113.383 166.63 113.452C167.386 115.298 167.296 117.307 167.615 119.279C168.422 124.282 169.961 129.17 172.16 133.733L172.159 133.732Z" fill="white"/>
<path d="M160.564 235.532C160.611 233.843 160.698 232.154 160.824 230.469C161.078 227.053 161.535 223.651 162.105 220.274C163.226 213.632 164.908 207.004 167.336 200.715C168.005 198.984 168.717 197.269 169.469 195.571C170.22 193.88 170.943 192.048 172.178 190.645C172.306 190.499 172.501 190.659 172.474 190.818C172.19 192.464 171.426 194.011 170.814 195.555C170.205 197.089 169.632 198.636 169.093 200.196C169.04 200.349 168.99 200.505 168.937 200.658C169.082 200.578 169.249 200.537 169.432 200.562C170.139 200.658 170.297 201.63 169.894 201.971C169.906 202.019 169.918 202.068 169.932 202.109C170.027 202.403 170.127 202.696 170.226 202.989C170.422 203.577 170.621 204.164 170.82 204.749C171.219 205.922 171.623 207.093 172.032 208.262C172.829 210.539 173.64 212.813 174.483 215.075C175.847 218.736 177.436 222.453 180.108 225.367C183.115 228.647 187.34 229.849 191.318 231.517C195.382 233.221 199.339 235.2 203.109 237.483C207.36 240.057 211.281 243.054 214.896 246.459C215.209 246.754 214.755 247.178 214.434 246.921C206.755 240.772 198.254 235.529 189.033 232.052C186.75 231.191 184.411 230.386 182.321 229.104C180.426 227.942 178.85 226.392 177.557 224.591C174.891 220.878 173.441 216.401 171.904 212.142C170.855 209.23 169.836 206.305 168.85 203.37C168.722 202.989 168.529 202.57 168.436 202.148C167.6 204.668 166.823 207.209 166.141 209.775C164.443 216.167 163.359 222.696 162.847 229.287C162.702 231.151 162.595 233.017 162.541 234.886C162.514 235.82 162.509 236.755 162.497 237.689C162.485 238.557 162.598 239.591 161.854 240.179C161.703 240.298 161.461 240.385 161.283 240.252C160.559 239.711 160.55 238.973 160.532 238.12C160.514 237.257 160.541 236.394 160.565 235.531L160.564 235.532Z" fill="white"/>
<path d="M174.112 133.21C174.338 133.331 174.558 133.462 174.721 133.666C174.894 133.881 175.035 134.113 175.17 134.352C175.301 134.585 175.446 134.824 175.542 135.074C175.587 135.19 175.612 135.313 175.654 135.429C175.702 135.562 175.757 135.692 175.805 135.825C175.889 136.054 175.521 136.209 175.411 135.992C175.353 135.88 175.295 135.767 175.234 135.657C175.172 135.545 175.091 135.449 175.021 135.344C174.877 135.129 174.768 134.886 174.636 134.664C174.505 134.447 174.365 134.237 174.248 134.012C174.126 133.779 174.074 133.533 174.023 133.278C174.012 133.226 174.064 133.183 174.113 133.209L174.112 133.21Z" fill="white"/>
<path d="M172.355 162.399C172.865 161.797 173.405 161.225 173.967 160.673C174.184 160.46 175.365 159.209 175.622 159.92C175.728 160.214 175.497 160.498 175.33 160.717C175.13 160.981 174.897 161.218 174.679 161.467C174.222 161.989 173.783 162.527 173.349 163.068C172.99 163.517 172.587 163.991 172.388 164.537C172.302 164.774 172.241 165.039 172.235 165.293C172.23 165.574 172.331 165.904 172.255 166.171C172.166 166.478 171.741 166.621 171.513 166.367C170.337 165.062 171.441 163.479 172.356 162.399L172.355 162.399Z" fill="white"/>
<path d="M130.825 194.223C131.736 193.988 132.698 194.029 133.611 194.23C135.672 194.683 137.506 195.982 139.421 196.824C141.419 197.702 143.52 198.355 145.656 198.799C148.05 199.297 150.481 199.536 152.906 199.83C155.416 200.135 157.899 200.323 160.422 200.053C160.667 200.026 160.712 200.418 160.48 200.477C159.441 200.739 158.477 201.058 157.402 201.18C156.287 201.305 155.177 201.295 154.058 201.228C151.864 201.096 149.661 200.845 147.486 200.525C145.358 200.212 143.258 199.758 141.229 199.037C139.2 198.316 137.294 197.358 135.361 196.423C134.453 195.983 133.472 195.566 132.454 195.482C131.998 195.444 131.543 195.468 131.099 195.578C130.707 195.677 130.186 195.878 129.845 195.544C129.234 194.945 130.362 194.343 130.825 194.223V194.223Z" fill="white"/>
<path d="M164.379 19.8734C165.735 19.9319 167.087 20.0759 168.427 20.295C169.766 20.5142 171.088 20.8381 172.386 21.2353C173.054 21.4404 173.713 21.6639 174.359 21.9311C174.87 22.1432 175.46 22.3527 175.781 22.8277C175.818 22.8835 175.782 22.9778 175.714 22.99C175.22 23.0791 174.719 22.8844 174.252 22.729C173.627 22.5204 173 22.3126 172.37 22.1197C171.141 21.7443 169.891 21.45 168.631 21.2012C167.371 20.9524 166.098 20.7778 164.818 20.6792C164.175 20.6294 163.522 20.5796 162.878 20.6006C162.424 20.6154 161.792 20.8546 161.39 20.6041C161.346 20.5762 161.318 20.5185 161.334 20.4662C161.629 19.553 163.669 19.8411 164.38 19.8716L164.379 19.8734Z" fill="white"/>
<path d="M60.5853 60.5428C60.8454 58.8666 61.4703 57.3353 62.3484 55.8914C63.1784 54.5251 64.1681 53.2409 64.834 51.7803C65.5811 50.1408 65.5829 48.3651 65.6841 46.6016C65.7862 44.8145 66.0821 43.0423 66.6311 41.3356C67.1775 39.6384 67.956 38.0233 68.8768 36.4991C69.8002 34.9704 70.8379 33.509 71.6514 31.9166C73.3131 28.6629 73.9468 25.004 75.5126 21.7075C77.0722 18.4241 79.1809 15.3389 81.4353 12.4937C79.2315 13.4802 77.1473 14.7217 75.352 16.2835C74.4338 17.0823 73.5828 17.9806 72.8628 18.9636C72.0939 20.013 71.4681 21.1636 70.7725 22.261C70.7088 22.3605 70.5726 22.2933 70.5901 22.1842C70.9697 19.8594 72.5032 17.806 74.1824 16.2189C75.8521 14.6405 77.8193 13.3999 79.8695 12.3794C80.7274 11.9524 81.6072 11.5736 82.4966 11.2209C86.2591 6.91601 91.1005 3.6422 96.5397 1.85863C94.301 1.91799 92.0623 2.23926 89.8751 2.68014C87.5762 3.14371 85.252 3.94077 82.9024 4.03855C82.8204 4.04204 82.7881 3.92156 82.8605 3.88403C84.7955 2.85736 87.0665 2.3868 89.1987 1.93632C91.3449 1.48236 93.5181 1.14363 95.7123 1.05545C96.8469 1.01005 97.9972 1.03101 99.1415 1.13053C105.472 -0.330026 112.276 0.295053 118.187 2.99267C119.004 3.36545 119.757 3.84125 120.498 4.34498C120.692 4.4768 120.577 4.84522 120.327 4.75006C117.1 3.51212 113.85 2.48196 110.417 2.0018C108.073 1.67355 105.69 1.64212 103.337 1.89704C104.433 2.21394 105.5 2.62688 106.516 3.14894C108.336 4.08482 109.865 5.35768 111.178 6.92387C111.259 7.02077 111.126 7.16046 111.038 7.0653C108.668 4.50561 105.211 2.9726 101.837 2.2864C101.662 2.25061 101.487 2.22093 101.311 2.1895C100.999 2.24625 100.687 2.30299 100.377 2.37021C94.9198 3.5549 89.883 6.22196 85.8812 10.0816C88.5624 9.33165 91.3309 8.89689 94.1229 8.82006C95.4941 8.78252 96.8984 8.79736 98.2599 8.97546C99.4207 9.12736 100.563 9.44689 101.472 10.216C101.491 10.2326 101.466 10.2649 101.445 10.2509C100.461 9.563 99.2951 9.48617 98.1334 9.4399C96.9717 9.39276 95.8153 9.35784 94.6527 9.40498C92.2822 9.50101 89.9292 9.82403 87.6259 10.3959C86.6755 10.6316 85.7206 10.9048 84.7719 11.2147C84.5546 11.4487 84.3373 11.6836 84.1269 11.9245C81.8088 14.5872 79.7962 17.6192 78.117 20.721C77.2625 22.2994 76.5529 23.9363 75.9682 25.6326C75.4104 27.2512 74.926 28.8951 74.2933 30.4866C73.6326 32.1497 72.7746 33.6687 71.7814 35.1546C70.81 36.6082 69.7792 38.0373 69.0313 39.6245C68.3191 41.1374 67.8268 42.7595 67.5414 44.406C67.2368 46.1599 67.3154 47.9478 67.064 49.7078C66.8004 51.5542 65.9887 53.1431 64.9658 54.6805C64.0127 56.1122 62.9218 57.4881 62.344 59.1285C61.699 60.9584 61.651 62.9087 61.8517 64.8215C62.0324 66.5457 62.3466 68.2673 62.6233 69.9827C64.3645 65.8246 66.2017 61.6812 67.6496 57.413C68.4011 55.1973 69.1098 52.965 69.7845 50.7249C70.4557 48.4969 71.1277 46.2664 72.0328 44.1196C75.2202 36.5584 81.3733 30.7398 87.7036 25.7575C94.7191 20.2356 102.128 15.0368 110.679 12.2117C114.902 10.8167 119.313 9.99863 123.754 9.7699C126.023 9.65292 128.29 9.68697 130.556 9.85371C132.962 10.0318 135.344 10.2361 137.759 10.1444C140.13 10.0545 142.521 9.81094 144.891 10.0405C146.813 10.2265 148.705 10.6473 150.522 11.2994C154.066 12.5723 157.45 14.6649 159.927 17.5275C160.524 18.2172 161.05 18.9645 161.534 19.7371C161.623 19.8794 161.414 20.0462 161.299 19.9187C158.8 17.1111 155.789 14.6955 152.338 13.1694C150.583 12.3942 148.722 11.8512 146.83 11.5465C144.712 11.2051 142.559 11.2427 140.425 11.3614C138.076 11.4924 135.75 11.6251 133.397 11.4854C131.143 11.3509 128.898 11.1362 126.638 11.1405C122.256 11.1484 117.87 11.7682 113.643 12.9171C109.405 14.0695 105.362 15.7632 101.57 17.9798C97.7668 20.2042 94.2015 22.8232 90.6973 25.4877C84.463 30.2273 78.2287 35.5675 74.5621 42.6224C72.5041 46.5833 71.5519 50.9379 70.0961 55.1275C68.5643 59.5345 66.7734 63.8978 64.8925 68.166C64.4317 69.2119 63.9674 70.2569 63.503 71.301C63.2386 71.8946 62.2899 71.5926 62.2454 71.0426C62.1956 71.0059 62.1511 70.9561 62.1232 70.8819C60.8751 67.5767 60.0407 64.0934 60.5906 60.5428H60.5853Z" fill="white"/>
<path d="M1.22628 109.299C2.09732 105.838 3.27123 102.459 4.75671 99.214C6.18895 96.086 7.95633 93.1369 9.51949 90.0753C9.93668 89.2581 10.332 88.4296 10.6995 87.588C10.4246 85.6168 10.8566 83.5512 12.0287 81.9195C13.2506 80.2198 15.4867 78.9251 17.55 79.9457C18.2046 80.2695 18.709 80.7567 19.0896 81.3355C19.1542 81.2543 19.2188 81.1731 19.2833 81.0919C19.8402 80.3935 20.397 79.6951 20.9538 78.9967C22.0195 77.6601 23.0974 76.334 24.1709 75.0035C24.52 74.5714 24.8412 74.1252 25.1554 73.6756C25.7297 72.0056 26.565 70.256 27.9562 69.1971C28.6623 68.6593 29.5281 68.3153 30.4262 68.469C31.3382 68.6252 32.0216 69.2582 32.5793 69.9575C33.7454 71.4189 34.509 73.1483 34.7831 75.0009C34.9472 76.114 35.0205 77.6383 34.6129 78.8587C35.2291 78.8657 35.8383 79.0464 36.3698 79.4463C37.5795 80.3577 37.9609 81.9353 38.1128 83.3653C38.2524 84.6783 38.2367 86.2558 37.8344 87.6142C38.1075 87.4658 38.3842 87.3218 38.6635 87.183C40.2677 86.3868 41.9059 85.6866 43.4647 84.8468C44.1839 84.3692 44.9231 83.9188 45.6746 83.4884C46.0228 83.2395 46.3641 82.9794 46.6949 82.6974C46.8136 82.5961 46.9777 82.6197 47.0815 82.7035C47.881 82.2644 48.6831 81.8322 49.4747 81.3888C50.5735 80.7741 51.6863 80.1709 52.7066 79.428C53.7033 78.7016 54.5648 77.8094 55.3782 76.8875C56.1724 75.9874 56.9265 75.0515 57.7548 74.182C58.1336 73.7848 58.5263 73.4024 58.9435 73.0471C59.3555 72.6961 59.8198 72.2605 60.3592 72.1278C61.0862 71.9497 61.7295 72.3792 62.0288 72.9991C62.1126 72.9519 62.2217 72.9502 62.3195 73.0392C65.2773 75.7098 63.7116 80.0364 62.0489 82.9357C60.0904 86.351 57.692 89.6353 54.6032 92.1129C54.5726 92.1373 54.5412 92.1609 54.5107 92.1853C53.5026 96.3278 52.8131 100.494 52.5347 104.754C52.2467 109.169 52.5312 113.561 53.0295 117.95C53.527 122.33 54.1048 126.701 54.6477 131.076C55.1853 135.406 55.5597 139.818 56.8314 144.01C58.0088 147.894 59.8608 151.57 62.0794 154.96C63.9935 157.885 66.2199 160.611 68.7807 162.994C71.3222 165.36 74.1963 167.374 77.3776 168.783C80.9962 170.385 84.9115 171.05 88.8539 171.041C93.189 171.032 97.4752 170.294 101.72 169.48C106.095 168.64 110.474 167.821 114.85 166.985C115.881 166.787 116.899 166.674 117.944 166.594C118.247 166.572 118.264 167.002 118.012 167.095C115.863 167.884 113.623 168.343 111.394 168.857C109.166 169.371 106.934 169.854 104.694 170.309C100.345 171.192 95.9705 172.089 91.5368 172.409C87.6311 172.692 83.6643 172.452 79.9069 171.306C80.0178 171.545 80.133 171.783 80.2683 172.014C80.4219 172.277 80.0379 172.488 79.8668 172.249C79.7481 172.083 79.6215 171.927 79.4915 171.774C79.776 176.191 80.0972 180.596 80.6383 184.993C81.2414 189.897 81.8847 194.793 82.3376 199.714C83.1502 208.549 83.3038 217.568 81.2667 226.26C80.716 228.608 79.9907 230.915 79.0717 233.145C78.6187 234.246 78.1291 235.33 77.5871 236.39C77.3113 236.93 77.0233 237.462 76.7222 237.988C76.572 238.249 76.4114 238.506 76.2657 238.769C76.1548 238.97 75.879 239.345 75.8581 239.562C75.8214 239.926 75.4217 240.273 75.0578 240.021C73.972 239.269 74.3901 238.147 74.9452 237.183C75.4819 236.251 75.9785 235.295 76.4359 234.322C77.354 232.369 78.0959 230.337 78.7008 228.265C79.9183 224.094 80.5877 219.792 80.8426 215.459C81.4029 205.932 80.0003 196.52 79.1118 187.062C78.6039 181.662 78.0139 176.184 78.2792 170.752C75.2498 169.591 72.4525 167.863 69.945 165.815C64.1715 161.1 59.7395 154.506 56.9449 147.635C55.2927 143.573 54.5142 139.3 53.9425 134.972C53.3446 130.448 52.7459 125.924 52.1611 121.398C51.5833 116.927 51.0972 112.452 51.0605 107.938C51.0248 103.463 51.4795 99.0097 52.3784 94.6254C52.4465 94.2919 52.5242 93.9611 52.5993 93.6293C51.5685 94.3897 50.5412 95.1527 49.596 96.0258C47.9578 97.5396 46.4418 99.1913 44.8865 100.79C42.0168 103.74 38.6932 106.643 37.2383 110.603C36.4397 112.777 35.9797 115.058 35.1427 117.222C34.4069 119.123 33.5132 121.027 32.3629 122.725C34.1207 125.952 35.6323 129.323 37.2391 132.627C38.7918 135.82 40.4038 138.99 41.7977 142.255C42.4654 143.82 43.0658 145.404 43.5537 147.035C43.6401 147.324 43.7265 147.614 43.8147 147.902C43.9639 147.276 44.1952 146.681 44.5312 146.149C45.0313 145.359 45.7348 144.703 46.612 144.359C47.7082 143.931 49.0112 144.047 50.1537 144.199C52.3784 144.495 53.884 145.797 55.0666 147.636C56.2388 149.46 57.3542 151.518 57.8377 153.646C58.1126 154.856 58.1606 156.1 58.2697 157.332C58.323 157.934 58.4068 158.531 58.542 159.121C58.6154 159.44 58.7576 159.754 58.8379 160.073C60.9152 161.899 62.6581 164.116 64.0415 166.504C65.643 169.266 66.7829 172.292 67.5614 175.385C68.3635 178.575 68.9195 181.878 69.1385 185.161C69.2555 186.917 69.2162 188.71 68.792 190.426C68.3897 192.053 67.5954 193.488 66.5455 194.782C65.5793 195.972 64.4342 196.998 63.3485 198.074C62.268 199.146 61.3812 200.282 60.532 201.541C59.8573 202.543 58.4565 201.578 58.9566 200.667C59.9682 198.193 62.3326 196.478 64.1514 194.617C65.0862 193.661 65.9485 192.628 66.5062 191.402C67.132 190.028 67.3432 188.492 67.3746 186.995C67.4392 183.854 66.9705 180.6 66.3194 177.533C65.6448 174.358 64.6463 171.218 63.1381 168.336C61.8237 165.823 60.1419 163.512 58.0568 161.583C56.0363 159.714 53.6693 158.481 51.2037 157.307C48.9048 156.212 46.495 155.071 44.7451 153.163C44.4553 153.205 44.1333 153.07 44.0329 152.731C43.9622 152.49 43.8985 152.241 43.8435 151.986C42.4846 149.873 42.0298 147.325 41.1344 144.971C40.4405 143.146 39.5869 141.395 38.7857 139.615C37.9766 137.819 37.1868 136.013 36.3873 134.213C34.8145 130.671 33.1274 127.159 31.6969 123.556C31.1314 123.892 30.2988 123.331 30.7168 122.646C31.7685 120.921 32.7897 119.204 33.5603 117.33C34.3118 115.503 34.7918 113.603 35.3478 111.712C35.9081 109.806 36.6483 107.99 37.8291 106.38C38.187 105.892 38.5701 105.426 38.9638 104.97C38.9402 104.811 38.9061 104.654 38.852 104.496C38.7368 104.16 38.5544 103.837 38.3266 103.563C38.0901 103.281 37.8143 103.055 37.5079 102.853C37.2033 102.652 36.849 102.471 36.4894 102.401C36.2991 102.365 36.3428 102.057 36.5348 102.064C36.7416 102.073 36.9651 102.08 37.1693 102.119C37.3788 102.16 37.5874 102.252 37.7785 102.342C38.1625 102.523 38.5082 102.822 38.7831 103.142C39.0781 103.484 39.3373 103.908 39.5014 104.36C40.2179 103.569 40.965 102.806 41.7148 102.044C44.4797 99.2358 47.1051 96.1873 50.2035 93.7315C50.1869 93.7192 50.1712 93.7053 50.1616 93.6878C50.0115 93.4215 50.0787 93.061 50.0324 92.765C49.9835 92.449 49.9006 92.1303 49.7854 91.8318C49.6746 91.5454 49.5201 91.273 49.3412 91.0234C49.2451 90.8907 49.1195 90.7763 49.0462 90.6296C49.013 90.5633 48.9632 90.4995 48.9362 90.4315C48.9257 90.4044 48.924 90.3791 48.9152 90.3529C48.9091 90.3345 48.91 90.3311 48.9091 90.3258C48.9039 90.3206 48.8978 90.3145 48.8812 90.2918C48.828 90.2184 48.9283 90.1451 48.9947 90.1783C49.0156 90.1888 49.0366 90.1992 49.0575 90.2097C49.1692 90.2045 49.2783 90.2769 49.3761 90.3337C49.5271 90.421 49.6362 90.5764 49.7418 90.7134C49.9661 91.0033 50.1476 91.3176 50.2899 91.6554C50.4304 91.9907 50.5194 92.3303 50.5604 92.6917C50.5866 92.9239 50.6198 93.2129 50.5535 93.4547C50.6652 93.3692 50.7725 93.2775 50.886 93.1928C51.6305 92.6384 52.3802 92.0989 53.1142 91.5411C53.1256 91.4992 53.1352 91.4573 53.1465 91.4153C53.2626 90.9937 53.6161 90.8444 53.9486 90.8907C54.5351 90.4175 55.105 89.9225 55.6444 89.3856C56.9964 88.0385 58.1973 86.5422 59.2935 84.9821C61.3995 81.985 64.7973 77.3283 62.199 73.7088C62.2339 74.8298 61.2721 75.7098 60.5102 76.4056C58.5936 78.156 56.1332 79.661 53.5777 80.2346C53.5515 80.2407 53.5227 80.2407 53.4956 80.2442C52.2772 81.1225 50.9445 81.8331 49.6091 82.542C48.3148 83.2299 47.0291 83.9519 45.7191 84.618C44.3122 85.8525 42.5361 86.6819 40.8516 87.4615C39.6367 88.0246 38.4165 88.5842 37.2775 89.293C36.0163 90.0788 35.0039 91.0915 34.0482 92.222C33.0655 93.384 32.1359 94.587 30.9664 95.5709C29.899 96.4692 28.7373 97.2436 27.5887 98.0319C25.241 99.6427 23.1271 101.456 22.1478 104.218C21.5918 105.786 21.4068 107.412 21.1747 109.048C21.0577 109.874 20.9355 110.698 20.7985 111.521C20.6632 112.334 20.5567 113.167 20.2469 113.935C20.143 114.191 19.7965 114.152 19.7677 113.87C19.6159 112.373 19.738 110.757 19.8201 109.254C19.8995 107.801 20.1107 106.33 20.4764 104.921C20.843 103.51 21.4129 102.132 22.2875 100.957C23.1314 99.8225 24.1709 98.8971 25.2951 98.0494C26.4105 97.2087 27.5818 96.4465 28.7085 95.6224C29.9191 94.7363 31.0048 93.7315 32.0077 92.6149C33.0559 91.4485 34.0526 90.2368 35.2911 89.2625C35.8357 88.8347 36.4047 88.4497 36.993 88.0944C37.0541 87.5592 37.1484 87.0302 37.1981 86.4898C37.2671 85.7355 37.2679 84.9803 37.2164 84.2252C37.1318 82.9907 36.9773 81.5249 36.1028 80.5646C35.895 80.3368 35.6611 80.1822 35.4133 80.0845C35.333 80.8518 34.674 81.7179 34.283 82.2024C33.3674 83.3356 32.1718 84.24 30.8312 84.8084C30.6557 84.8826 30.4602 84.8834 30.2891 84.8284C29.9453 85.5356 29.6014 86.2419 29.1868 86.9115C28.6204 87.8264 27.9736 88.6872 27.3339 89.5515C24.6344 93.1946 22.8731 97.4095 21.2227 101.606C20.2862 103.988 19.5111 106.436 18.2308 108.658C18.1339 108.827 17.8118 108.768 17.8389 108.552C18.2308 105.431 19.5495 102.474 20.7435 99.5833C21.9253 96.7207 23.066 93.7707 24.7243 91.1438C25.5106 89.8972 26.4271 88.7378 27.2649 87.5261C28.1054 86.3117 28.7731 85.0249 29.4355 83.7084C29.9034 82.7795 30.4131 81.8541 31.0746 81.05C31.3906 80.5297 31.7764 80.0574 32.273 79.675C32.7338 79.3197 33.2706 79.0657 33.8257 78.9417C33.8719 78.568 33.9339 78.1935 33.9679 77.8199C34.036 77.0699 34.0142 76.3174 33.9225 75.571C33.7297 74.0109 33.1781 72.5049 32.2791 71.212C31.8505 70.5965 31.2911 69.8798 30.5518 69.6353C30.4585 69.6048 30.3651 69.5838 30.2726 69.5725C30.359 69.7375 30.3659 69.9356 30.2254 70.1312C29.4364 71.2251 28.6553 72.3251 27.8759 73.426C27.3234 74.2064 26.7308 75.2453 25.6869 75.3073C25.4522 75.6233 25.2139 75.9368 24.9695 76.2476C23.9789 77.5082 22.9586 78.7435 21.9436 79.9841C21.4033 80.6441 20.8622 81.3049 20.3219 81.9649C20.1221 82.2094 19.9213 82.4538 19.7215 82.6983C20.0112 83.6342 20.0907 84.653 20.0147 85.5757C19.7948 88.2393 18.6759 90.8261 17.7795 93.3177C17.255 94.7738 16.7322 96.2309 16.2068 97.6871C15.6735 99.1634 15.2048 100.692 14.4586 102.075C14.3163 102.339 13.9567 102.146 14.003 101.883C14.2098 100.697 14.62 99.5763 14.9918 98.4335C15.3628 97.2942 15.7424 96.1585 16.1195 95.0218C16.8509 92.8209 17.6669 90.6384 18.3276 88.4157C18.7728 86.9184 19.1253 85.1925 18.7876 83.6263C18.7614 83.6438 18.7361 83.6612 18.716 83.6822C18.2622 84.1676 17.5343 83.4377 17.9872 82.9532C17.8877 83.0597 18.1356 82.5123 18.0885 82.5918C18.1461 82.4957 18.2212 82.4023 18.2988 82.3107C18.2692 82.2574 18.243 82.2024 18.2116 82.15C17.7542 81.3905 17.015 80.7803 16.0959 80.7541C15.1673 80.7287 14.2954 81.263 13.6591 81.8986C13.6478 81.9099 13.639 81.9239 13.6277 81.9353C13.8747 81.8375 14.1531 81.7956 14.4699 81.834C14.8792 81.8829 15.2362 82.2155 15.1036 82.666C14.4612 84.8503 13.4601 86.8984 12.0837 88.7151C11.9519 88.8888 11.7547 88.9884 11.5557 89.0102C11.3209 89.5008 11.0809 89.9888 10.8322 90.4707C9.34406 93.3596 7.63863 96.1331 6.26574 99.0813C4.8719 102.074 3.71198 105.191 2.82873 108.373C2.02925 111.252 1.37554 114.213 1.30135 117.211C1.26295 118.77 1.36243 120.351 1.74646 121.866C2.1427 123.429 2.90118 124.834 3.55663 126.295C3.64915 126.502 3.59502 126.704 3.47545 126.841C3.82631 127.545 4.16496 128.254 4.47306 128.979C5.2673 130.844 5.94368 132.741 6.48132 134.697C7.01546 136.641 7.40037 138.61 7.75909 140.592C7.92841 141.528 8.11606 142.462 8.37615 143.379C8.64322 144.321 9.20964 145.249 9.36325 146.209C9.41125 146.511 9.07874 146.917 8.76104 146.672C8.01917 146.099 7.67878 145.141 7.37942 144.282C7.06696 143.385 6.85313 142.457 6.66636 141.527C6.264 139.528 5.92799 137.525 5.41043 135.549C4.88414 133.543 4.25747 131.549 3.54353 129.602C3.19878 128.663 2.84094 127.728 2.45866 126.805C2.37313 126.599 2.28061 126.391 2.18635 126.183C0.534164 124.138 0.0899277 121.053 0.0113754 118.535C-0.0855026 115.419 0.468704 112.303 1.22628 109.293V109.299ZM45.1186 150.977C45.1736 151.064 45.226 151.152 45.2853 151.238C46.742 153.328 49.1884 154.508 51.421 155.574C53.5698 156.6 55.6523 157.623 57.5532 159.03C57.5427 158.989 57.5305 158.946 57.5209 158.907C57.287 158.01 57.1866 157.073 57.0862 156.153C56.8576 154.053 56.2466 152.23 55.2185 150.385C54.3588 148.843 53.4485 147.009 51.8714 146.085C50.9645 145.554 49.9015 145.452 48.8716 145.417C47.8531 145.382 46.9166 145.478 46.1703 146.236C45.4965 146.92 45.1369 147.876 45.0418 148.821C44.9676 149.554 45.0375 150.265 45.1186 150.978V150.977ZM58.8484 76.2537C59.2298 75.9525 59.5964 75.6312 59.949 75.296C60.3321 74.9302 60.8794 74.4858 60.9954 73.9428C61.0723 73.5814 60.8977 73.1693 60.4918 73.3526C60.0188 73.5656 59.5824 74.051 59.2097 74.4055C58.0271 75.5282 57.0286 76.822 55.9359 78.0276C56.9571 77.5466 57.9311 76.9783 58.8493 76.2545L58.8484 76.2537ZM32.0783 81.7825C31.8776 82.1413 31.7118 82.5237 31.5747 82.9183C31.9448 82.6721 32.2983 82.4006 32.6247 82.0933C32.9834 81.7554 33.3159 81.3879 33.6057 80.9889C33.6616 80.9121 33.8999 80.5428 34.0508 80.287C33.2557 80.5969 32.6151 81.1338 32.0792 81.7816L32.0783 81.7825Z" fill="white"/>
<path d="M49.7286 238.67C49.7277 238.649 49.7286 238.632 49.7234 238.602C49.7042 238.485 49.7269 238.323 49.7277 238.2C49.7321 237.865 49.7347 237.531 49.7269 237.196C49.7094 236.454 49.7714 235.721 49.8394 234.982C49.9669 233.604 50.1126 232.227 50.2819 230.853C50.6258 228.068 51.0596 225.293 51.647 222.548C52.7868 217.219 54.5036 211.961 57.1499 207.179C57.5365 206.481 57.9336 205.786 58.3709 205.118C58.7375 204.558 59.1224 203.849 59.6234 203.398C59.9044 203.146 60.4062 203.072 60.703 203.355C60.9413 203.584 60.8479 203.876 60.5485 203.977C60.4604 204.007 60.3897 203.986 60.3382 203.943C60.2806 203.978 60.2378 204.028 60.223 204.112C60.1278 204.248 60.0737 204.414 59.9978 204.562C59.8459 204.859 59.6705 205.144 59.509 205.437C59.1555 206.078 58.7994 206.719 58.4625 207.37C57.8036 208.646 57.1918 209.949 56.6472 211.277C55.5859 213.865 54.7454 216.539 54.048 219.246C53.3253 222.048 52.786 224.896 52.3618 227.758C51.9463 230.561 51.743 233.377 51.4323 236.19C51.3433 236.997 51.1992 237.798 51.0901 238.602C51.016 239.148 50.7349 239.801 50.0716 239.735C49.2573 239.653 49.4065 238.971 49.7286 238.67Z" fill="white"/>
<path d="M9.72448 146.327C9.75765 146.287 9.84056 146.285 9.87372 146.327C10.3075 146.875 10.3791 147.446 10.4716 148.129C10.5746 148.89 10.6426 149.652 10.7709 150.411C11.0293 151.935 11.3828 153.436 11.827 154.917C12.7085 157.854 13.8929 160.68 15.024 163.526C17.4181 169.548 19.1619 175.753 20.3637 182.12C21.0393 185.697 21.5865 189.307 21.6991 192.948C21.7078 193.215 21.295 193.274 21.2313 193.011C20.4554 189.813 19.95 186.566 19.319 183.338C18.6941 180.14 18.0107 176.956 17.1484 173.812C16.2966 170.708 15.2859 167.658 14.1163 164.658C12.9774 161.738 11.752 158.846 10.7771 155.865C10.2543 154.266 9.79691 152.633 9.51413 150.973C9.37623 150.161 9.26627 149.331 9.22525 148.508C9.18598 147.722 9.20954 146.95 9.72448 146.326V146.327Z" fill="white"/>
<path d="M1.52639 240.704C1.99246 239.07 2.62957 237.543 3.5137 236.09C4.40132 234.633 5.34045 233.209 6.27345 231.782C8.10019 228.986 9.94089 226.149 11.2186 223.05C12.4981 219.946 13.0166 216.656 13.3928 213.339C13.7602 210.098 13.9845 206.758 14.9812 203.634C15.5224 201.939 16.2677 200.297 17.2976 198.842C18.4689 197.186 19.9849 195.815 21.2155 194.205C21.4346 193.918 21.8928 194.159 21.713 194.496C20.8769 196.059 19.6629 197.372 18.6338 198.805C17.6947 200.115 16.9843 201.561 16.485 203.092C15.4656 206.219 15.1593 209.507 14.8407 212.764C14.5204 216.039 14.1547 219.333 13.0437 222.45C11.9178 225.609 10.2202 228.514 8.43185 231.336C7.41418 232.943 6.36511 234.53 5.36664 236.148C4.34897 237.797 3.28154 239.385 2.18358 240.98C1.96189 241.303 1.40769 241.115 1.52551 240.702L1.52639 240.704Z" fill="white"/>
<path d="M36.3155 192.013C39.235 190.041 43.0936 189.599 46.5245 190.049C48.2587 190.276 49.931 190.756 51.5212 191.484C52.3756 191.875 53.1943 192.347 54.0767 192.677C54.5567 192.855 55.0621 192.998 55.5753 193.033C55.8345 193.05 56.1234 193.068 56.3582 192.927C56.4559 192.868 56.4184 192.666 56.4428 192.793C56.428 192.718 56.4751 192.648 56.5554 192.645C56.6505 192.642 56.6985 192.653 56.7823 192.693C56.8775 192.739 56.9342 192.881 56.8993 192.981C56.6767 193.626 55.9532 193.624 55.3754 193.581C54.4974 193.515 53.6682 193.218 52.8635 192.876C51.0961 192.126 49.3968 191.432 47.495 191.092C43.7063 190.415 40.0528 191.167 36.4438 192.317C36.2562 192.376 36.1654 192.114 36.3155 192.013Z" fill="white"/>
<path d="M22.3199 146.201C22.6559 145.834 22.8863 145.498 23.2834 145.185C23.574 144.957 23.8795 144.753 24.1911 144.556C24.9042 144.104 25.6583 143.724 26.4324 143.389C27.499 142.928 28.5917 142.626 29.6958 142.333C29.4846 141.416 29.2751 140.498 29.0368 139.594C28.5446 137.721 27.9135 135.861 26.9421 134.178C25.9838 132.52 24.6092 131.143 23.0067 130.097C22.8348 129.984 22.9395 129.687 23.1516 129.753C26.4211 130.766 28.1789 134.214 29.2096 137.248C29.7507 138.839 30.1208 140.481 30.5031 142.119C30.7065 142.064 30.9107 142.009 31.1149 141.952C31.8917 141.733 32.6536 141.462 33.3344 141.021C34.085 140.535 34.6436 139.843 35.155 139.121C35.4823 138.659 36.7932 136.254 37.5037 137.69C37.57 137.824 37.3859 137.934 37.303 137.807C36.8884 137.176 35.9414 139.12 35.786 139.374C35.4107 139.985 34.9796 140.577 34.4612 141.075C33.4714 142.025 32.1788 142.516 30.8819 142.887C30.8208 142.904 30.7597 142.921 30.6986 142.937C31.1027 144.625 31.5496 146.299 32.246 147.899C32.9801 149.585 34.0047 151.148 35.4527 152.306C36.3368 153.014 37.3283 153.575 38.2237 154.269C39.0241 154.89 39.7476 155.6 40.4083 156.368C41.7716 157.954 42.8792 159.737 43.9492 161.527C45.0672 163.397 46.1408 165.294 47.1279 167.238C48.2215 169.392 49.1946 171.602 49.9801 173.888C50.7753 176.203 51.271 178.522 51.5285 180.951C51.5354 181.013 51.4333 181.026 51.4194 180.966C50.5003 176.784 48.9119 172.715 47.0197 168.884C46.0701 166.962 45.0262 165.088 43.9309 163.245C42.8731 161.466 41.8118 159.663 40.5881 157.992C39.9833 157.166 39.3191 156.378 38.5781 155.67C37.79 154.917 36.9024 154.326 36.0016 153.718C34.4594 152.677 33.1956 151.426 32.2548 149.811C31.0521 147.748 30.4324 145.465 29.8887 143.161C28.7689 143.468 27.6552 143.777 26.5825 144.243C25.9018 144.539 25.2385 144.879 24.5891 145.238C24.2348 145.433 23.8891 145.644 23.5365 145.842C23.1778 146.043 22.7912 146.156 22.4324 146.347C22.3373 146.398 22.2457 146.279 22.3181 146.199L22.3199 146.201Z" fill="white"/>
<path d="M12.8945 112.722C12.8753 111.778 13.1834 110.903 13.543 110.043C13.9689 109.023 14.3459 108.006 14.5266 106.91C14.6191 106.351 14.6671 105.786 14.6689 105.219C14.6706 104.708 14.5065 104.086 14.6846 103.604C14.7178 103.514 14.8426 103.456 14.9159 103.542C15.3776 104.086 15.3322 105.178 15.3426 105.853C15.3557 106.736 15.2589 107.62 15.0599 108.48C14.8425 109.42 14.421 110.279 14.1399 111.198C13.8711 112.075 13.8668 112.914 14.1199 113.793C14.5685 115.353 15.5207 116.714 15.9807 118.271C16.5244 120.112 15.999 121.951 16.1945 123.814C16.2896 124.718 16.6405 125.587 17.1799 126.319C17.5787 126.86 18.6584 127.528 18.6444 128.255C18.6427 128.354 18.5912 128.455 18.5021 128.504C17.8598 128.854 17.0682 128.169 16.6449 127.736C16.0723 127.151 15.6307 126.429 15.3234 125.673C14.5859 123.853 15.0127 122.004 15.0066 120.111C15.0005 118.292 14.064 116.749 13.4269 115.099C13.1336 114.339 12.9137 113.541 12.8962 112.721L12.8945 112.722Z" fill="white"/>
<path d="M85.6185 226.69C85.7721 227.04 85.979 227.356 86.1405 227.702C86.3037 228.052 86.4442 228.411 86.5978 228.765C86.9094 229.48 87.2175 230.194 87.5526 230.899C88.2107 232.284 89.1271 233.541 89.7005 234.961C89.7913 235.186 89.4789 235.303 89.3305 235.177C88.1365 234.162 87.3755 232.615 86.7165 231.218C86.391 230.528 86.089 229.805 85.8655 229.074C85.7442 228.678 85.6273 228.279 85.5566 227.87C85.4911 227.495 85.4972 227.114 85.4536 226.735C85.444 226.649 85.5845 226.611 85.6185 226.69Z" fill="white"/>
</g>
<defs>
<clipPath id="clip0_280_2539">
<rect width="215" height="247" fill="white" transform="matrix(-1 0 0 1 215 0)"/>
</clipPath>
</defs>
</svg>
