<svg width="211" height="207" viewBox="0 0 211 207" fill="none" xmlns="http://www.w3.org/2000/svg">
<g clip-path="url(#clip0_216_447)">
<path d="M211 100.432C210.92 113.669 208.148 128.6 202.698 143.038C196.485 159.501 186.174 172.881 172.354 183.633C153.96 197.942 133.109 205.635 109.874 206.827C93.4936 207.667 77.5261 205.469 62.0666 199.917C38.2511 191.366 21.0903 175.483 10.3849 152.563C4.57534 140.125 0.888768 127.096 0.156582 113.35C-1.16154 88.6034 5.81654 66.4886 21.5486 47.2627C31.4924 35.1104 43.6309 25.6416 57.3687 18.1731C72.8006 9.78368 89.1755 4.16424 106.563 1.61591C111.001 0.965628 115.463 0.30821 119.935 0.0917668C131.529 -0.469084 142.766 1.55312 153.551 5.77543C176.007 14.5664 191.936 30.2036 201.59 52.2989C207.774 66.4534 210.998 82.2376 211 100.432V100.432ZM120.727 5.8858C122.056 6.74491 123.487 7.57501 124.815 8.54543C129.228 11.7693 132.685 15.8779 135.45 20.5564C142.468 32.4327 145.332 45.3104 144.225 59.0263C143.095 73.0328 136.897 84.4372 126.09 93.3585C122.346 96.4486 118.344 99.1659 114.102 101.505C109.24 104.185 104.312 106.745 99.4038 109.339C94.6009 111.878 89.8541 114.508 85.4258 117.676C81.4524 120.519 77.7939 123.709 74.7597 127.563C68.1093 136.01 65.6506 145.509 67.7935 156.102C69.1249 162.685 71.9791 168.616 76.0062 173.934C85.7026 186.739 98.2452 195.497 113.651 200.078C114.108 200.214 114.63 200.233 115.109 200.183C134.808 198.153 152.428 190.938 168.092 178.842C181.476 168.507 191.315 155.559 197.097 139.583C201.119 128.47 203.542 117.028 204.254 105.231C205.302 87.8442 202.561 71.0848 195.756 55.0347C189.439 40.1405 179.795 27.9626 166.223 19.0289C154.016 10.9939 140.565 6.76869 126.031 5.90102C124.247 5.79446 122.452 5.88627 120.726 5.88627L120.727 5.8858ZM100.507 200.77C100.52 200.703 100.532 200.636 100.545 200.568C100.443 200.512 100.344 200.447 100.238 200.401C90.0378 195.993 81.4819 189.36 74.2241 181.004C69.7797 175.888 66.2304 170.197 63.9811 163.778C58.4622 148.028 61.1398 133.818 72.1586 121.249C74.8063 118.229 77.8414 115.626 81.0688 113.247C85.753 109.793 90.808 106.959 95.9656 104.295C100.657 101.873 105.38 99.5079 110.03 97.009C115.086 94.2923 119.855 91.1332 124.131 87.2686C131.825 80.3158 136.546 71.756 137.999 61.4495C139.201 52.9211 138.357 44.5355 136.044 36.2802C134.126 29.4344 131.217 23.0629 126.798 17.4439C123.023 12.6436 118.357 9.02589 112.644 6.81722C112.222 6.65405 111.718 6.49089 111.296 6.56842C105.257 7.67823 99.1232 8.44506 93.2139 10.0439C76.4017 14.5935 60.7737 21.807 46.6271 32.0698C37.8328 38.4499 30.1562 45.9892 23.7499 54.7849C10.7016 72.6988 5.05824 92.7677 6.62944 114.85C7.52402 127.423 11.0848 139.309 16.4 150.693C25.7185 170.651 40.4168 184.903 61.0025 192.922C71.6601 197.074 82.7126 199.455 94.091 200.382C96.2258 200.556 98.3673 200.643 100.506 200.77L100.507 200.77Z" fill="white"/>
<path d="M106.257 151.757C106.458 148.01 108.471 144.492 112.479 142.25C115.685 140.458 120.078 141.546 122.211 144.52C124.19 147.279 125.016 150.26 124.016 153.606C123.431 155.565 122.345 157.177 120.622 158.305C119.043 159.339 117.357 160.114 115.488 160.502C111.76 161.275 106.105 158.21 106.258 151.757H106.257ZM116.147 145.015C116.139 144.976 116.131 144.936 116.123 144.897C115.381 145.045 114.611 145.108 113.905 145.354C110.004 146.712 108.088 152.932 110.867 156.085C111.906 157.264 113.054 157.862 114.621 157.631C116.203 157.398 117.556 156.649 118.834 155.757C120.355 154.696 121.081 153.188 121.143 151.345C121.2 149.639 120.423 148.211 119.676 146.754C119.121 145.67 118.293 145.131 117.106 145.081C116.786 145.067 116.467 145.037 116.147 145.015H116.147Z" fill="white"/>
<path d="M106.958 49.3077C106.843 52.5282 105.581 55.2578 103.221 57.4122C101.142 59.3093 98.5226 59.9415 95.8071 59.7979C92.3636 59.6152 89.6462 56.8433 89.2283 53.2508C88.7212 48.8896 90.2179 45.3318 93.7971 42.7483C94.7292 42.0757 95.7596 41.4948 96.8194 41.0524C99.4889 39.9383 101.904 40.5411 104.006 42.4405C106.024 44.2644 106.989 46.5729 106.958 49.3077H106.958ZM97.4011 56.8533C98.2653 56.8533 99.4519 56.6916 100.504 55.9951C103.386 54.0881 104.54 49.4776 102.86 46.4588C101.781 44.5198 99.4742 43.3639 97.2325 44.9736C96.8118 45.2757 96.3664 45.5431 95.9538 45.8551C93.8812 47.4221 92.7701 49.5137 92.6186 52.1068C92.4439 55.0975 94.0683 56.8319 97.4016 56.8538L97.4011 56.8533Z" fill="white"/>
</g>
<defs>
<clipPath id="clip0_216_447">
<rect width="211" height="207" fill="white"/>
</clipPath>
</defs>
</svg>
