<svg width="211" height="207" viewBox="0 0 211 207" fill="none" xmlns="http://www.w3.org/2000/svg">
<g clip-path="url(#clip0_385_2569)">
<path d="M211 100.432C210.92 113.669 208.147 128.6 202.698 143.038C196.485 159.501 186.174 172.881 172.353 183.633C153.959 197.942 133.109 205.635 109.874 206.827C93.4934 207.667 77.5259 205.469 62.0664 199.917C38.2509 191.366 21.0901 175.483 10.3846 152.563C4.57511 140.125 0.888539 127.096 0.156353 113.35C-1.16177 88.6035 5.81631 66.4886 21.5483 47.2627C31.4922 35.1105 43.6307 25.6417 57.3684 18.1732C72.8004 9.78374 89.1753 4.1643 106.563 1.61597C111.001 0.965689 115.463 0.308271 119.935 0.0918279C131.529 -0.469023 142.765 1.55318 153.551 5.77549C176.007 14.5664 191.936 30.2037 201.59 52.299C207.774 66.4534 210.998 82.2376 211 100.432V100.432ZM120.727 5.88586C122.056 6.74497 123.486 7.57507 124.814 8.5455C129.228 11.7693 132.685 15.8779 135.45 20.5564C142.468 32.4328 145.332 45.3105 144.225 59.0263C143.095 73.0328 136.897 84.4373 126.089 93.3586C122.346 96.4487 118.344 99.1659 114.101 101.505C109.24 104.185 104.312 106.745 99.4036 109.339C94.6007 111.878 89.8538 114.508 85.4256 117.676C81.4522 120.519 77.7937 123.709 74.7595 127.563C68.1091 136.01 65.6504 145.509 67.7933 156.102C69.1247 162.685 71.9789 168.616 76.0059 173.934C85.7024 186.739 98.245 195.497 113.651 200.078C114.108 200.214 114.629 200.233 115.109 200.183C134.808 198.153 152.428 190.938 168.092 178.842C181.475 168.507 191.315 155.559 197.097 139.583C201.118 128.47 203.542 117.028 204.253 105.232C205.302 87.8442 202.561 71.0849 195.755 55.0347C189.439 40.1406 179.794 27.9626 166.223 19.029C154.016 10.9939 140.565 6.76876 126.031 5.90108C124.247 5.79452 122.451 5.88633 120.726 5.88633L120.727 5.88586ZM100.507 200.77C100.519 200.703 100.532 200.636 100.545 200.569C100.443 200.512 100.344 200.447 100.238 200.401C90.0376 195.993 81.4817 189.36 74.2239 181.004C69.7795 175.888 66.2302 170.197 63.9809 163.778C58.462 148.028 61.1395 133.818 72.1584 121.249C74.806 118.229 77.8411 115.626 81.0686 113.247C85.7527 109.793 90.8078 106.959 95.9653 104.295C100.657 101.873 105.379 99.5079 110.03 97.0091C115.086 94.2924 119.854 91.1332 124.131 87.2686C131.824 80.3158 136.546 71.7561 137.999 61.4495C139.2 52.9212 138.357 44.5355 136.044 36.2802C134.125 29.4344 131.217 23.0629 126.798 17.4439C123.023 12.6437 118.357 9.02595 112.644 6.81728C112.222 6.65411 111.718 6.49095 111.296 6.56849C105.257 7.67829 99.123 8.44512 93.2137 10.044C76.4015 14.5935 60.7734 21.8071 46.6269 32.0698C37.8326 38.4499 30.156 45.9893 23.7496 54.785C10.7013 72.6989 5.05801 92.7677 6.62922 114.85C7.52379 127.423 11.0845 139.309 16.3998 150.693C25.7183 170.651 40.4166 184.903 61.0023 192.922C71.6598 197.074 82.7124 199.455 94.0907 200.382C96.2255 200.556 98.367 200.643 100.506 200.77L100.507 200.77Z" fill="black"/>
<path d="M106.257 151.757C106.458 148.01 108.471 144.492 112.479 142.25C115.685 140.458 120.078 141.546 122.211 144.52C124.19 147.279 125.016 150.26 124.016 153.606C123.431 155.565 122.345 157.177 120.621 158.305C119.043 159.339 117.357 160.114 115.488 160.502C111.76 161.275 106.105 158.21 106.257 151.757H106.257ZM116.147 145.015C116.139 144.976 116.131 144.936 116.122 144.897C115.381 145.045 114.611 145.108 113.905 145.354C110.004 146.712 108.088 152.932 110.867 156.085C111.906 157.264 113.054 157.862 114.621 157.631C116.203 157.398 117.555 156.649 118.834 155.757C120.355 154.696 121.081 153.188 121.143 151.345C121.2 149.639 120.422 148.211 119.676 146.754C119.121 145.67 118.293 145.131 117.105 145.081C116.786 145.067 116.467 145.037 116.147 145.015H116.147Z" fill="black"/>
<path d="M106.959 49.3079C106.843 52.5284 105.582 55.258 103.221 57.4124C101.142 59.3095 98.5227 59.9417 95.8072 59.7981C92.3637 59.6154 89.6463 56.8435 89.2284 53.251C88.7213 48.8898 90.218 45.332 93.7972 42.7485C94.7293 42.0759 95.7597 41.495 96.8195 41.0526C99.489 39.9385 101.904 40.5412 104.006 42.4407C106.025 44.2645 106.989 46.5731 106.958 49.3079H106.959ZM97.4012 56.8535C98.2654 56.8535 99.4519 56.6917 100.504 55.9953C103.386 54.0882 104.54 49.4778 102.86 46.459C101.781 44.52 99.4743 43.364 97.2326 44.9738C96.8119 45.2759 96.3665 45.5432 95.9539 45.8553C93.8813 47.4222 92.7702 49.5139 92.6187 52.1069C92.444 55.0977 94.0683 56.8321 97.4016 56.854L97.4012 56.8535Z" fill="black"/>
</g>
<defs>
<clipPath id="clip0_385_2569">
<rect width="211" height="207" fill="white"/>
</clipPath>
</defs>
</svg>
