<svg width="223" height="382" viewBox="0 0 223 382" fill="none" xmlns="http://www.w3.org/2000/svg">
<g clip-path="url(#clip0_385_2296)">
<path fill-rule="evenodd" clip-rule="evenodd" d="M63.0566 21.3979H169.453L125.606 114.596L190.126 136.067L60.9886 352.083L92.5033 195.64L19.5889 175.037L57.5043 21.3979H63.0566Z" fill="black"/>
<path fill-rule="evenodd" clip-rule="evenodd" d="M147.128 35.5923H68.609L36.6406 165.133L108.974 185.571L91.1593 274.005L168.932 143.91L106.018 122.973L147.128 35.5923Z" fill="#FFD7CE"/>
<path fill-rule="evenodd" clip-rule="evenodd" d="M26.0501 112.087L33.4986 67.3512L24.1289 73.8999L39.1204 29.2321L32.5623 32.7408L48.022 0L88.3123 1.40348L74.96 6.31434L121.106 12.6012H50.6014L26.0501 112.087Z" fill="black"/>
<path fill-rule="evenodd" clip-rule="evenodd" d="M146.873 12.6014L169.828 9.58886L156.008 2.80713L208.946 5.37974L168.188 60.571L198.64 52.1514L167.017 92.1414L166.314 75.0692L144.166 95.8373L183.326 12.6014H146.873Z" fill="black"/>
<path fill-rule="evenodd" clip-rule="evenodd" d="M163.553 117.951L189.737 122.076L185.756 114.593L223 134.003L185.991 207.2L191.612 172.121L172.404 200.653L180.369 202.056L130.606 252.793L203.307 131.182L163.553 117.951Z" fill="black"/>
<path fill-rule="evenodd" clip-rule="evenodd" d="M19.6626 137.972L9.36969 159.025L1.17236 151.542L0 189.661L35.3714 193.169L23.893 202.056L65.3531 210.943L40.7598 278.995L59.031 268.237L49.66 304.72L40.2903 293.962L45.9751 382L82.2579 201.886L8.99727 181.186L19.6626 137.972Z" fill="black"/>
</g>
<defs>
<clipPath id="clip0_385_2296">
<rect width="223" height="382" fill="white"/>
</clipPath>
</defs>
</svg>
